M48
;DRILL file {KiCad 5.0.2+dfsg1-1~bpo9+1} date 2019年02月28日 23時45分38秒
;FORMAT={-:-/ absolute / metric / decimal}
FMAT,2
METRIC,TZ
T1C1.200
T2C1.800
T3C2.200
T4C3.000
T5C4.000
T6C4.800
%
G90
G05
T1
X175.49Y-60.96
X175.49Y-62.71
X182.49Y-60.96
X182.49Y-62.71
T2
X170.18Y-138.43
X180.34Y-138.43
X121.92Y-78.74
X132.08Y-78.74
X165.1Y-99.06
X175.26Y-99.06
X184.15Y-99.06
X194.31Y-99.06
X104.14Y-102.87
X114.3Y-102.87
X100.33Y-83.82
X110.49Y-83.82
X194.31Y-138.43
X204.47Y-138.43
X95.25Y-121.92
X105.41Y-121.92
X180.34Y-80.01
X190.5Y-80.01
X142.24Y-95.25
X152.4Y-95.25
X161.29Y-80.01
X171.45Y-80.01
X142.24Y-76.2
X152.4Y-76.2
X85.09Y-102.87
X95.25Y-102.87
X142.24Y-114.3
X152.4Y-114.3
X123.19Y-97.79
X133.35Y-97.79
T3
X208.28Y-105.41
X208.28Y-110.49
T4
X105.41Y-105.41
X106.68Y-107.95
X111.76Y-107.95
X113.03Y-105.41
X101.6Y-86.36
X102.87Y-88.9
X107.95Y-88.9
X109.22Y-86.36
X195.58Y-140.97
X196.85Y-143.51
X201.93Y-143.51
X203.2Y-140.97
X96.52Y-124.46
X97.79Y-127.
X102.87Y-127.
X104.14Y-124.46
X181.61Y-82.55
X182.88Y-85.09
X187.96Y-85.09
X189.23Y-82.55
X143.51Y-97.79
X144.78Y-100.33
X149.86Y-100.33
X151.13Y-97.79
X162.56Y-82.55
X163.83Y-85.09
X168.91Y-85.09
X170.18Y-82.55
X143.51Y-78.74
X144.78Y-81.28
X149.86Y-81.28
X151.13Y-78.74
X86.36Y-105.41
X87.63Y-107.95
X92.71Y-107.95
X93.98Y-105.41
X143.51Y-116.84
X144.78Y-119.38
X149.86Y-119.38
X151.13Y-116.84
X124.46Y-100.33
X125.73Y-102.87
X130.81Y-102.87
X132.08Y-100.33
X171.45Y-140.97
X172.72Y-143.51
X177.8Y-143.51
X179.07Y-140.97
X123.19Y-81.28
X124.46Y-83.82
X129.54Y-83.82
X130.81Y-81.28
X166.37Y-101.6
X167.64Y-104.14
X172.72Y-104.14
X173.99Y-101.6
X185.42Y-101.6
X186.69Y-104.14
X191.77Y-104.14
X193.04Y-101.6
T5
X109.22Y-102.87
X105.41Y-83.82
X199.39Y-138.43
X100.33Y-121.92
X185.42Y-80.01
X147.32Y-95.25
X166.37Y-80.01
X147.32Y-76.2
X90.17Y-102.87
X147.32Y-114.3
X128.27Y-97.79
X175.26Y-138.43
X127.Y-78.74
X170.18Y-99.06
X189.23Y-99.06
T6
X214.63Y-133.35
X160.02Y-109.22
X95.25Y-91.44
X115.57Y-127.
X175.26Y-71.12
T0
M30
