M48
;DRILL file {KiCad 5.0.2+dfsg1-1~bpo9+1} date 2019年02月28日 23時45分38秒
;FORMAT={-:-/ absolute / metric / decimal}
FMAT,2
METRIC,TZ
T1C0.400
T2C0.813
T3C1.000
T4C1.300
%
G90
G05
T1
X90.17Y-99.06
X90.17Y-111.76
X97.79Y-113.03
X100.33Y-118.11
X100.33Y-130.81
X105.41Y-80.01
X105.41Y-92.71
X109.22Y-99.06
X109.22Y-111.76
X123.825Y-88.9
X125.73Y-72.39
X127.Y-74.93
X127.Y-87.63
X128.27Y-69.85
X128.27Y-93.98
X128.27Y-106.68
X129.54Y-88.9
X132.08Y-87.63
X141.605Y-87.63
X142.24Y-68.58
X145.415Y-105.41
X147.32Y-72.39
X147.32Y-85.09
X147.32Y-91.44
X147.32Y-104.14
X147.32Y-110.49
X147.32Y-123.19
X151.13Y-68.58
X152.4Y-87.63
X154.94Y-121.92
X156.21Y-82.55
X156.21Y-105.41
X158.115Y-104.775
X158.155Y-85.13
X158.75Y-101.6
X158.75Y-135.89
X160.02Y-116.84
X162.56Y-97.79
X163.83Y-87.63
X163.83Y-90.17
X165.1Y-95.25
X166.37Y-76.2
X166.37Y-88.9
X167.005Y-113.03
X167.64Y-92.71
X168.275Y-90.805
X170.18Y-95.25
X170.18Y-107.95
X171.45Y-90.17
X171.45Y-92.71
X172.085Y-95.25
X172.72Y-87.63
X173.355Y-93.345
X175.26Y-86.36
X175.26Y-95.25
X175.26Y-134.62
X175.26Y-147.32
X175.895Y-90.805
X176.53Y-109.22
X179.07Y-87.63
X180.29Y-62.23
X180.34Y-105.41
X180.975Y-74.93
X181.61Y-97.79
X182.245Y-99.695
X182.88Y-87.63
X183.515Y-109.22
X184.15Y-96.52
X185.42Y-76.2
X185.42Y-88.9
X186.69Y-67.23
X186.69Y-90.17
X186.69Y-93.98
X186.69Y-96.52
X186.69Y-113.03
X189.23Y-74.93
X189.23Y-95.25
X189.23Y-107.95
X190.5Y-92.71
X191.77Y-67.31
X191.77Y-87.63
X191.77Y-88.9
X191.77Y-91.44
X191.77Y-93.98
X193.04Y-63.5
X193.04Y-109.22
X194.31Y-87.63
X194.31Y-115.57
X195.58Y-59.69
X195.58Y-95.25
X196.85Y-107.95
X196.85Y-111.76
X198.12Y-68.58
X198.12Y-85.09
X198.12Y-87.63
X199.39Y-81.28
X199.39Y-134.62
X199.39Y-147.32
X200.66Y-76.2
X203.2Y-69.85
X203.2Y-102.87
X203.2Y-109.22
X204.47Y-113.03
X204.47Y-128.27
X207.01Y-101.6
X207.01Y-115.57
X207.01Y-125.73
X208.28Y-97.79
X208.28Y-118.11
X209.55Y-113.03
X209.55Y-132.08
X210.82Y-78.74
X210.82Y-85.09
X210.82Y-101.6
X212.09Y-72.39
X212.09Y-119.38
X213.36Y-83.82
X213.36Y-128.27
X214.63Y-99.06
X214.63Y-107.95
X215.9Y-87.63
X215.9Y-90.17
X215.9Y-93.98
X215.9Y-97.79
X215.9Y-102.87
X215.9Y-113.03
X217.17Y-74.93
X217.17Y-82.55
X217.17Y-88.9
X217.17Y-91.44
X217.17Y-116.84
X217.17Y-123.19
X218.44Y-104.14
X218.44Y-124.46
X219.71Y-68.58
X220.98Y-113.03
X220.98Y-115.57
X220.98Y-120.65
X220.98Y-123.19
X222.25Y-116.205
T2
X109.22Y-114.3
X109.22Y-121.92
X115.57Y-80.01
X115.57Y-87.63
X189.23Y-64.77
X99.06Y-95.25
X99.06Y-102.87
X189.23Y-130.81
X189.23Y-138.43
X138.43Y-106.68
X138.43Y-114.3
X212.09Y-107.95
X217.17Y-107.95
X212.09Y-110.49
X217.17Y-110.49
X137.16Y-68.58
X137.16Y-76.2
X118.11Y-90.17
X118.11Y-97.79
X156.21Y-68.58
X156.21Y-76.2
X158.75Y-68.58
X158.75Y-76.2
X204.47Y-71.882
X204.47Y-74.422
X204.47Y-76.962
X204.47Y-79.502
X204.47Y-82.042
X204.47Y-84.582
X204.47Y-87.122
X204.47Y-89.662
X204.47Y-92.202
X204.47Y-94.742
X204.47Y-97.282
X204.47Y-99.822
X205.796Y-70.612
X205.796Y-73.152
X205.796Y-75.692
X205.796Y-78.232
X205.796Y-80.772
X205.796Y-83.312
X205.796Y-85.852
X205.796Y-88.392
X205.796Y-90.932
X205.796Y-93.472
X205.796Y-96.012
X205.796Y-98.552
X219.71Y-71.882
X219.71Y-74.422
X219.71Y-76.962
X219.71Y-79.502
X219.71Y-82.042
X219.71Y-84.582
X219.71Y-87.122
X219.71Y-89.662
X219.71Y-92.202
X219.71Y-94.742
X219.71Y-97.282
X219.71Y-99.822
X221.016Y-70.612
X221.016Y-73.152
X221.016Y-75.692
X221.016Y-78.232
X221.016Y-80.772
X221.016Y-83.312
X221.016Y-85.852
X221.016Y-88.392
X221.016Y-90.932
X221.016Y-93.472
X221.016Y-96.012
X221.016Y-98.552
X177.8Y-91.44
X177.8Y-99.06
X158.75Y-90.17
X158.75Y-97.79
X195.58Y-72.39
X195.58Y-80.01
X198.12Y-90.17
X198.12Y-97.79
X185.42Y-130.81
X185.42Y-138.43
X137.16Y-90.17
X137.16Y-97.79
X189.23Y-62.23
T4
X192.33Y-59.69
X198.83Y-59.69
T3
X177.04Y-58.86G85X177.54Y-58.86
G05
X177.04Y-64.81G85X177.54Y-64.81
G05
X180.04Y-58.86G85X180.54Y-58.86
G05
X180.04Y-64.81G85X180.54Y-64.81
G05
X184.04Y-58.86G85X184.54Y-58.86
G05
X184.04Y-64.81G85X184.54Y-64.81
G05
X185.54Y-60.61G85X186.04Y-60.61
G05
X185.54Y-63.06G85X186.04Y-63.06
G05
T0
M30
