M48
;DRILL file {KiCad 5.0.2+dfsg1-1~bpo9+1} date 2019年02月28日 23時48分49秒
;FORMAT={-:-/ absolute / metric / decimal}
FMAT,2
METRIC,TZ
T1C1.200
T2C1.800
T3C2.200
T4C3.000
T5C4.000
T6C4.800
%
G90
G05
T1
X212.48Y-99.85
X212.48Y-101.6
X219.48Y-99.85
X219.48Y-101.6
T2
X158.75Y-89.535
X168.91Y-89.535
X120.65Y-89.535
X130.81Y-89.535
X139.7Y-70.485
X149.86Y-70.485
X187.325Y-128.905
X197.485Y-128.905
X82.55Y-70.485
X92.71Y-70.485
X165.1Y-125.73
X175.26Y-125.73
X139.7Y-89.535
X149.86Y-89.535
X158.75Y-70.485
X168.91Y-70.485
X177.8Y-89.535
X187.96Y-89.535
X101.6Y-89.535
X111.76Y-89.535
X120.65Y-70.485
X130.81Y-70.485
X142.875Y-122.555
X153.035Y-122.555
X82.55Y-89.535
X92.71Y-89.535
X101.6Y-70.485
X111.76Y-70.485
X177.8Y-70.485
X187.96Y-70.485
T3
X214.63Y-113.665
X204.47Y-108.585
T4
X140.97Y-67.945
X142.24Y-65.405
X147.32Y-65.405
X148.59Y-67.945
X188.595Y-126.365
X189.865Y-123.825
X194.945Y-123.825
X196.215Y-126.365
X83.82Y-67.945
X85.09Y-65.405
X90.17Y-65.405
X91.44Y-67.945
X166.37Y-123.19
X167.64Y-120.65
X172.72Y-120.65
X173.99Y-123.19
X140.97Y-92.075
X142.24Y-94.615
X147.32Y-94.615
X148.59Y-92.075
X160.02Y-67.945
X161.29Y-65.405
X166.37Y-65.405
X167.64Y-67.945
X179.07Y-92.075
X180.34Y-94.615
X185.42Y-94.615
X186.69Y-92.075
X102.87Y-92.075
X104.14Y-94.615
X109.22Y-94.615
X110.49Y-92.075
X121.92Y-67.945
X123.19Y-65.405
X128.27Y-65.405
X129.54Y-67.945
X144.145Y-120.015
X145.415Y-117.475
X150.495Y-117.475
X151.765Y-120.015
X83.82Y-92.075
X85.09Y-94.615
X90.17Y-94.615
X91.44Y-92.075
X102.87Y-67.945
X104.14Y-65.405
X109.22Y-65.405
X110.49Y-67.945
X179.07Y-67.945
X180.34Y-65.405
X185.42Y-65.405
X186.69Y-67.945
X160.02Y-92.075
X161.29Y-94.615
X166.37Y-94.615
X167.64Y-92.075
X121.92Y-92.075
X123.19Y-94.615
X128.27Y-94.615
X129.54Y-92.075
T5
X144.78Y-70.485
X192.405Y-128.905
X87.63Y-70.485
X170.18Y-125.73
X144.78Y-89.535
X163.83Y-70.485
X182.88Y-89.535
X106.68Y-89.535
X125.73Y-70.485
X147.955Y-122.555
X87.63Y-89.535
X106.68Y-70.485
X182.88Y-70.485
X163.83Y-89.535
X125.73Y-89.535
T6
X158.75Y-127.
X201.93Y-117.475
X97.155Y-80.01
X184.15Y-102.87
X194.945Y-64.135
T0
M30
