M48
;DRILL file {KiCad 5.0.2+dfsg1-1~bpo9+1} date 2019年02月28日 23時47分20秒
;FORMAT={-:-/ absolute / metric / decimal}
FMAT,2
METRIC,TZ
T1C1.200
T2C1.800
T3C2.200
T4C3.000
T5C4.000
T6C4.800
%
G90
G05
T1
X89.13Y-53.34
X89.13Y-55.09
X96.13Y-53.34
X96.13Y-55.09
T2
X150.495Y-126.365
X160.655Y-126.365
X133.985Y-64.095
X144.145Y-64.095
X130.175Y-100.965
X140.335Y-100.965
X111.76Y-88.265
X121.92Y-88.265
X172.085Y-126.365
X182.245Y-126.365
X132.08Y-82.55
X142.24Y-82.55
X167.005Y-104.775
X177.165Y-104.775
X148.59Y-102.87
X158.75Y-102.87
X150.495Y-84.455
X160.655Y-84.455
X109.855Y-69.81
X120.015Y-69.81
X93.328Y-90.17
X103.487Y-90.17
X91.44Y-71.755
X101.6Y-71.755
X152.4Y-66.04
X162.56Y-66.04
X170.815Y-67.945
X180.975Y-67.945
T3
X125.095Y-130.175
X125.095Y-117.475
T4
X168.275Y-107.315
X169.545Y-109.855
X174.625Y-109.855
X175.895Y-107.315
X149.86Y-105.41
X151.13Y-107.95
X156.21Y-107.95
X157.48Y-105.41
X151.765Y-81.915
X153.035Y-79.375
X158.115Y-79.375
X159.385Y-81.915
X111.125Y-72.35
X112.395Y-74.89
X117.475Y-74.89
X118.745Y-72.35
X94.597Y-87.63
X95.867Y-85.09
X100.947Y-85.09
X102.218Y-87.63
X92.71Y-74.295
X93.98Y-76.835
X99.06Y-76.835
X100.33Y-74.295
X153.67Y-68.58
X154.94Y-71.12
X160.02Y-71.12
X161.29Y-68.58
X172.085Y-70.485
X173.355Y-73.025
X178.435Y-73.025
X179.705Y-70.485
X151.765Y-123.825
X153.035Y-121.285
X158.115Y-121.285
X159.385Y-123.825
X135.255Y-66.635
X136.525Y-69.175
X141.605Y-69.175
X142.875Y-66.635
X131.445Y-103.505
X132.715Y-106.045
X137.795Y-106.045
X139.065Y-103.505
X113.03Y-85.725
X114.3Y-83.185
X119.38Y-83.185
X120.65Y-85.725
X173.355Y-123.825
X174.625Y-121.285
X179.705Y-121.285
X180.975Y-123.825
X133.35Y-80.01
X134.62Y-77.47
X139.7Y-77.47
X140.97Y-80.01
T5
X172.085Y-104.775
X153.67Y-102.87
X155.575Y-84.455
X114.935Y-69.81
X98.407Y-90.17
X96.52Y-71.755
X157.48Y-66.04
X175.895Y-67.945
X155.575Y-126.365
X139.065Y-64.095
X135.255Y-100.965
X116.84Y-88.265
X177.165Y-126.365
X137.16Y-82.55
T6
X104.775Y-60.96
X135.255Y-130.175
X168.275Y-57.15
X91.44Y-100.965
X167.005Y-116.84
T0
M30
