M48
;DRILL file {KiCad 5.0.2+dfsg1-1~bpo9+1} date 2019年02月28日 23時47分20秒
;FORMAT={-:-/ absolute / metric / decimal}
FMAT,2
METRIC,TZ
T1C0.400
T2C0.813
T3C1.000
T4C1.300
%
G90
G05
T1
X88.9Y-59.69
X88.9Y-80.645
X88.9Y-120.015
X90.17Y-114.935
X92.075Y-127.
X92.202Y-117.602
X92.71Y-113.03
X93.345Y-53.975
X93.345Y-115.57
X93.98Y-61.595
X94.742Y-117.602
X95.885Y-59.055
X95.885Y-104.14
X95.885Y-115.57
X96.52Y-79.375
X97.155Y-62.23
X97.155Y-80.645
X97.282Y-116.967
X98.425Y-81.915
X99.06Y-104.14
X99.695Y-101.6
X100.33Y-113.03
X101.6Y-114.935
X102.235Y-58.42
X102.87Y-103.505
X103.505Y-113.03
X103.505Y-130.175
X104.14Y-127.
X104.775Y-81.915
X104.775Y-114.935
X106.045Y-54.61
X106.045Y-71.755
X106.045Y-95.25
X106.68Y-76.2
X106.68Y-85.725
X106.68Y-103.505
X106.68Y-116.84
X107.315Y-81.915
X107.315Y-93.98
X107.95Y-57.15
X107.95Y-65.405
X107.95Y-119.38
X108.585Y-82.55
X108.585Y-89.535
X108.585Y-100.33
X109.22Y-114.3
X109.855Y-98.425
X109.855Y-116.84
X111.76Y-99.695
X111.76Y-114.935
X112.395Y-97.155
X113.03Y-64.136
X113.03Y-95.885
X113.03Y-118.11
X113.03Y-127.635
X114.3Y-63.5
X114.3Y-116.84
X114.3Y-130.175
X114.935Y-77.47
X114.935Y-78.74
X115.57Y-120.015
X116.205Y-92.71
X116.205Y-114.935
X116.205Y-127.635
X116.84Y-80.645
X116.84Y-95.885
X117.475Y-117.475
X117.475Y-126.365
X119.38Y-117.475
X119.38Y-127.
X120.015Y-64.77
X120.015Y-128.27
X120.015Y-130.175
X120.65Y-90.805
X120.65Y-120.015
X121.285Y-55.245
X121.285Y-56.515
X121.92Y-66.04
X121.92Y-93.345
X121.92Y-109.855
X122.555Y-97.79
X122.555Y-121.285
X123.19Y-95.885
X123.825Y-76.2
X123.825Y-109.855
X124.46Y-83.185
X124.46Y-91.44
X125.73Y-55.88
X125.73Y-109.855
X125.73Y-113.665
X125.73Y-121.92
X126.365Y-87.63
X126.365Y-94.615
X126.365Y-123.825
X127.Y-59.69
X127.635Y-72.39
X127.635Y-82.55
X127.635Y-92.075
X128.27Y-63.5
X128.27Y-86.995
X128.27Y-121.285
X128.27Y-127.
X128.905Y-125.095
X129.54Y-90.17
X129.54Y-115.57
X129.54Y-118.745
X130.175Y-57.15
X130.175Y-93.98
X130.81Y-91.44
X130.81Y-120.015
X130.81Y-125.73
X130.81Y-127.
X132.715Y-111.76
X135.255Y-74.295
X135.255Y-108.585
X135.255Y-109.855
X135.89Y-111.76
X137.16Y-74.93
X139.065Y-57.785
X139.095Y-71.725
X139.7Y-74.295
X139.7Y-111.76
X139.7Y-127.
X140.97Y-57.15
X142.24Y-111.76
X142.24Y-116.205
X142.24Y-118.745
X142.24Y-121.285
X142.24Y-123.825
X143.51Y-128.27
X143.51Y-131.445
X144.82Y-121.245
X145.415Y-76.2
X145.415Y-92.075
X145.415Y-116.205
X145.415Y-118.745
X145.415Y-123.825
X146.05Y-120.015
X146.05Y-121.92
X146.05Y-127.635
X146.685Y-73.025
X146.685Y-90.805
X146.685Y-111.125
X147.32Y-54.61
X147.955Y-61.595
X148.59Y-91.44
X148.59Y-111.76
X151.13Y-113.665
X151.765Y-54.61
X153.67Y-76.2
X153.67Y-110.49
X155.575Y-76.835
X155.575Y-117.475
X155.575Y-118.745
X157.48Y-59.055
X157.51Y-73.63
X158.115Y-76.2
X158.75Y-116.84
X163.83Y-77.47
X163.83Y-94.615
X164.465Y-113.03
X165.1Y-74.93
X166.37Y-130.175
X172.085Y-95.885
X172.085Y-112.395
X172.085Y-114.3
X173.99Y-78.74
X175.895Y-60.96
X175.895Y-114.3
X175.925Y-75.535
X176.53Y-94.615
X177.165Y-117.475
X177.165Y-118.745
X177.8Y-95.885
X178.435Y-97.79
X179.705Y-90.805
X180.34Y-92.075
X180.975Y-95.885
X180.975Y-97.155
X181.61Y-91.44
X181.61Y-97.79
X183.515Y-75.565
X183.515Y-100.33
X184.785Y-79.375
T2
X132.715Y-121.285
X140.335Y-121.285
X132.715Y-116.205
X140.335Y-116.205
X129.54Y-73.025
X137.16Y-73.025
X121.92Y-53.34
X129.54Y-53.34
X102.87Y-55.245
X132.715Y-118.745
X140.335Y-118.745
X166.37Y-76.835
X173.99Y-76.835
X114.3Y-101.6
X121.92Y-101.6
X110.49Y-60.325
X118.11Y-60.325
X90.932Y-109.276
X90.932Y-124.496
X92.202Y-107.95
X92.202Y-123.19
X93.472Y-109.276
X93.472Y-124.496
X94.742Y-107.95
X94.742Y-123.19
X96.012Y-109.276
X96.012Y-124.496
X97.282Y-107.95
X97.282Y-123.19
X98.552Y-109.276
X98.552Y-124.496
X99.822Y-107.95
X99.822Y-123.19
X101.092Y-109.276
X101.092Y-124.496
X102.362Y-107.95
X102.362Y-123.19
X103.632Y-109.276
X103.632Y-124.496
X104.902Y-107.95
X104.902Y-123.19
X106.172Y-109.276
X106.172Y-124.496
X107.442Y-107.95
X107.442Y-123.19
X108.712Y-109.276
X108.712Y-124.496
X109.982Y-107.95
X109.982Y-123.19
X111.252Y-109.276
X111.252Y-124.496
X112.522Y-107.95
X112.522Y-123.19
X113.792Y-109.276
X113.792Y-124.496
X115.062Y-107.95
X115.062Y-123.19
X116.332Y-109.276
X116.332Y-124.496
X117.602Y-107.95
X117.602Y-123.19
X118.872Y-109.276
X118.872Y-124.496
X120.142Y-107.95
X120.142Y-123.19
X110.49Y-52.705
X118.11Y-52.705
X101.6Y-100.33
X101.6Y-105.41
X114.3Y-99.06
X121.92Y-99.06
X132.715Y-123.825
X140.335Y-123.825
X147.955Y-74.93
X155.575Y-74.93
X104.775Y-100.33
X104.775Y-105.41
X132.715Y-113.665
X140.335Y-113.665
X110.49Y-55.245
X118.11Y-55.245
X110.49Y-57.785
X118.11Y-57.785
X102.87Y-51.435
T4
X100.267Y-129.892
X106.743Y-130.458
T3
X90.68Y-51.24G85X91.18Y-51.24
G05
X90.68Y-57.19G85X91.18Y-57.19
G05
X93.68Y-51.24G85X94.18Y-51.24
G05
X93.68Y-57.19G85X94.18Y-57.19
G05
X97.68Y-51.24G85X98.18Y-51.24
G05
X97.68Y-57.19G85X98.18Y-57.19
G05
X99.18Y-52.99G85X99.68Y-52.99
G05
X99.18Y-55.44G85X99.68Y-55.44
G05
T0
M30
