%FSLAX45Y45*%
G04 Gerber Fmt 4.5, Leading zero omitted, Abs format (unit mm)*
G04 Created by KiCad (PCBNEW 5.0.0+dfsg1-2~bpo9+1) date Sat Sep 29 22:12:24 2018*
%MOMM*%
%LPD*%
G01*
G04 APERTURE LIST*
%ADD10C,0.150000*%
%ADD11C,0.200000*%
%ADD12C,0.300000*%
G04 APERTURE END LIST*
D10*
X20955000Y-14859000D02*
X22352000Y-13462000D01*
X16510000Y-14859000D02*
X14859000Y-13208000D01*
X10922000Y-7366000D02*
X11684000Y-6604000D01*
X9525000Y-7366000D02*
X10922000Y-7366000D01*
X9017000Y-12319000D02*
X9017000Y-13208000D01*
X8001000Y-11303000D02*
X9017000Y-12319000D01*
X9525000Y-7747000D02*
X9525000Y-7366000D01*
X8001000Y-9271000D02*
X9525000Y-7747000D01*
X9017000Y-13208000D02*
X14859000Y-13208000D01*
X20955000Y-14859000D02*
X16510000Y-14859000D01*
D11*
X20447000Y-6731000D02*
X22352000Y-6731000D01*
X20447000Y-5715000D02*
X20447000Y-6731000D01*
X17272000Y-5715000D02*
X20447000Y-5715000D01*
X17272000Y-6604000D02*
X17272000Y-5715000D01*
X11684000Y-6604000D02*
X17272000Y-6604000D01*
X8001000Y-11303000D02*
X8001000Y-9271000D01*
X22352000Y-6731000D02*
X22352000Y-13462000D01*
D11*
X8997000Y-9886000D02*
X9037000Y-9926000D01*
X9037000Y-9886000D02*
X8997000Y-9926000D01*
X8997000Y-11156000D02*
X9037000Y-11196000D01*
X9037000Y-11156000D02*
X8997000Y-11196000D01*
X9759000Y-11283000D02*
X9799000Y-11323000D01*
X9799000Y-11283000D02*
X9759000Y-11323000D01*
X10013000Y-11791000D02*
X10053000Y-11831000D01*
X10053000Y-11791000D02*
X10013000Y-11831000D01*
X10013000Y-13061000D02*
X10053000Y-13101000D01*
X10053000Y-13061000D02*
X10013000Y-13101000D01*
X10521000Y-7981000D02*
X10561000Y-8021000D01*
X10561000Y-7981000D02*
X10521000Y-8021000D01*
X10521000Y-9251000D02*
X10561000Y-9291000D01*
X10561000Y-9251000D02*
X10521000Y-9291000D01*
X10902000Y-9886000D02*
X10942000Y-9926000D01*
X10942000Y-9886000D02*
X10902000Y-9926000D01*
X10902000Y-11156000D02*
X10942000Y-11196000D01*
X10942000Y-11156000D02*
X10902000Y-11196000D01*
X12680000Y-7473000D02*
X12720000Y-7513000D01*
X12720000Y-7473000D02*
X12680000Y-7513000D01*
X12680000Y-8743000D02*
X12720000Y-8783000D01*
X12720000Y-8743000D02*
X12680000Y-8783000D01*
X12807000Y-9378000D02*
X12847000Y-9418000D01*
X12847000Y-9378000D02*
X12807000Y-9418000D01*
X12807000Y-10648000D02*
X12847000Y-10688000D01*
X12847000Y-10648000D02*
X12807000Y-10688000D01*
X13188000Y-8743000D02*
X13228000Y-8783000D01*
X13228000Y-8743000D02*
X13188000Y-8783000D01*
X14712000Y-7219000D02*
X14752000Y-7259000D01*
X14752000Y-7219000D02*
X14712000Y-7259000D01*
X14712000Y-8489000D02*
X14752000Y-8529000D01*
X14752000Y-8489000D02*
X14712000Y-8529000D01*
X14712000Y-9124000D02*
X14752000Y-9164000D01*
X14752000Y-9124000D02*
X14712000Y-9164000D01*
X14712000Y-10394000D02*
X14752000Y-10434000D01*
X14752000Y-10394000D02*
X14712000Y-10434000D01*
X14712000Y-11029000D02*
X14752000Y-11069000D01*
X14752000Y-11029000D02*
X14712000Y-11069000D01*
X14712000Y-12299000D02*
X14752000Y-12339000D01*
X14752000Y-12299000D02*
X14712000Y-12339000D01*
X15347000Y-10521000D02*
X15387000Y-10561000D01*
X15387000Y-10521000D02*
X15347000Y-10561000D01*
X15601000Y-10521000D02*
X15641000Y-10561000D01*
X15641000Y-10521000D02*
X15601000Y-10561000D01*
X15855000Y-13569000D02*
X15895000Y-13609000D01*
X15895000Y-13569000D02*
X15855000Y-13609000D01*
X16363000Y-8743000D02*
X16403000Y-8783000D01*
X16403000Y-8743000D02*
X16363000Y-8783000D01*
X16617000Y-7600000D02*
X16657000Y-7640000D01*
X16657000Y-7600000D02*
X16617000Y-7640000D01*
X16617000Y-8870000D02*
X16657000Y-8910000D01*
X16657000Y-8870000D02*
X16617000Y-8910000D01*
X16744000Y-9251000D02*
X16784000Y-9291000D01*
X16784000Y-9251000D02*
X16744000Y-9291000D01*
X16998000Y-9505000D02*
X17038000Y-9545000D01*
X17038000Y-9505000D02*
X16998000Y-9545000D01*
X16998000Y-10775000D02*
X17038000Y-10815000D01*
X17038000Y-10775000D02*
X16998000Y-10815000D01*
X17125000Y-8997000D02*
X17165000Y-9037000D01*
X17165000Y-8997000D02*
X17125000Y-9037000D01*
X17125000Y-9251000D02*
X17165000Y-9291000D01*
X17165000Y-9251000D02*
X17125000Y-9291000D01*
X17252000Y-8743000D02*
X17292000Y-8783000D01*
X17292000Y-8743000D02*
X17252000Y-8783000D01*
X17506000Y-8616000D02*
X17546000Y-8656000D01*
X17546000Y-8616000D02*
X17506000Y-8656000D01*
X17506000Y-13442000D02*
X17546000Y-13482000D01*
X17546000Y-13442000D02*
X17506000Y-13482000D01*
X17506000Y-14712000D02*
X17546000Y-14752000D01*
X17546000Y-14712000D02*
X17506000Y-14752000D01*
X17633000Y-10902000D02*
X17673000Y-10942000D01*
X17673000Y-10902000D02*
X17633000Y-10942000D01*
X17887000Y-8743000D02*
X17927000Y-8783000D01*
X17927000Y-8743000D02*
X17887000Y-8783000D01*
X18009000Y-6203000D02*
X18049000Y-6243000D01*
X18049000Y-6203000D02*
X18009000Y-6243000D01*
X18014000Y-10521000D02*
X18054000Y-10561000D01*
X18054000Y-10521000D02*
X18014000Y-10561000D01*
X18268000Y-8743000D02*
X18308000Y-8783000D01*
X18308000Y-8743000D02*
X18268000Y-8783000D01*
X18522000Y-7600000D02*
X18562000Y-7640000D01*
X18562000Y-7600000D02*
X18522000Y-7640000D01*
X18522000Y-8870000D02*
X18562000Y-8910000D01*
X18562000Y-8870000D02*
X18522000Y-8910000D01*
X18649000Y-6703000D02*
X18689000Y-6743000D01*
X18689000Y-6703000D02*
X18649000Y-6743000D01*
X18649000Y-8997000D02*
X18689000Y-9037000D01*
X18689000Y-8997000D02*
X18649000Y-9037000D01*
X18649000Y-9378000D02*
X18689000Y-9418000D01*
X18689000Y-9378000D02*
X18649000Y-9418000D01*
X18903000Y-9505000D02*
X18943000Y-9545000D01*
X18943000Y-9505000D02*
X18903000Y-9545000D01*
X18903000Y-10775000D02*
X18943000Y-10815000D01*
X18943000Y-10775000D02*
X18903000Y-10815000D01*
X19030000Y-9251000D02*
X19070000Y-9291000D01*
X19070000Y-9251000D02*
X19030000Y-9291000D01*
X19157000Y-6711000D02*
X19197000Y-6751000D01*
X19197000Y-6711000D02*
X19157000Y-6751000D01*
X19157000Y-8743000D02*
X19197000Y-8783000D01*
X19197000Y-8743000D02*
X19157000Y-8783000D01*
X19157000Y-8870000D02*
X19197000Y-8910000D01*
X19197000Y-8870000D02*
X19157000Y-8910000D01*
X19157000Y-9124000D02*
X19197000Y-9164000D01*
X19197000Y-9124000D02*
X19157000Y-9164000D01*
X19284000Y-6330000D02*
X19324000Y-6370000D01*
X19324000Y-6330000D02*
X19284000Y-6370000D01*
X19411000Y-8743000D02*
X19451000Y-8783000D01*
X19451000Y-8743000D02*
X19411000Y-8783000D01*
X19411000Y-11537000D02*
X19451000Y-11577000D01*
X19451000Y-11537000D02*
X19411000Y-11577000D01*
X19538000Y-5949000D02*
X19578000Y-5989000D01*
X19578000Y-5949000D02*
X19538000Y-5989000D01*
X19665000Y-10775000D02*
X19705000Y-10815000D01*
X19705000Y-10775000D02*
X19665000Y-10815000D01*
X19665000Y-11156000D02*
X19705000Y-11196000D01*
X19705000Y-11156000D02*
X19665000Y-11196000D01*
X19792000Y-6838000D02*
X19832000Y-6878000D01*
X19832000Y-6838000D02*
X19792000Y-6878000D01*
X19792000Y-8489000D02*
X19832000Y-8529000D01*
X19832000Y-8489000D02*
X19792000Y-8529000D01*
X19792000Y-8743000D02*
X19832000Y-8783000D01*
X19832000Y-8743000D02*
X19792000Y-8783000D01*
X19919000Y-8108000D02*
X19959000Y-8148000D01*
X19959000Y-8108000D02*
X19919000Y-8148000D01*
X19919000Y-13442000D02*
X19959000Y-13482000D01*
X19959000Y-13442000D02*
X19919000Y-13482000D01*
X19919000Y-14712000D02*
X19959000Y-14752000D01*
X19959000Y-14712000D02*
X19919000Y-14752000D01*
X20046000Y-7600000D02*
X20086000Y-7640000D01*
X20086000Y-7600000D02*
X20046000Y-7640000D01*
X20300000Y-6965000D02*
X20340000Y-7005000D01*
X20340000Y-6965000D02*
X20300000Y-7005000D01*
X20300000Y-10267000D02*
X20340000Y-10307000D01*
X20340000Y-10267000D02*
X20300000Y-10307000D01*
X20300000Y-10902000D02*
X20340000Y-10942000D01*
X20340000Y-10902000D02*
X20300000Y-10942000D01*
X20427000Y-11283000D02*
X20467000Y-11323000D01*
X20467000Y-11283000D02*
X20427000Y-11323000D01*
X20427000Y-12807000D02*
X20467000Y-12847000D01*
X20467000Y-12807000D02*
X20427000Y-12847000D01*
X20681000Y-10140000D02*
X20721000Y-10180000D01*
X20721000Y-10140000D02*
X20681000Y-10180000D01*
X20681000Y-11537000D02*
X20721000Y-11577000D01*
X20721000Y-11537000D02*
X20681000Y-11577000D01*
X20681000Y-12553000D02*
X20721000Y-12593000D01*
X20721000Y-12553000D02*
X20681000Y-12593000D01*
X20808000Y-9759000D02*
X20848000Y-9799000D01*
X20848000Y-9759000D02*
X20808000Y-9799000D01*
X20808000Y-11791000D02*
X20848000Y-11831000D01*
X20848000Y-11791000D02*
X20808000Y-11831000D01*
X20935000Y-11283000D02*
X20975000Y-11323000D01*
X20975000Y-11283000D02*
X20935000Y-11323000D01*
X21062000Y-7854000D02*
X21102000Y-7894000D01*
X21102000Y-7854000D02*
X21062000Y-7894000D01*
X21062000Y-8489000D02*
X21102000Y-8529000D01*
X21102000Y-8489000D02*
X21062000Y-8529000D01*
X21062000Y-10140000D02*
X21102000Y-10180000D01*
X21102000Y-10140000D02*
X21062000Y-10180000D01*
X21189000Y-7219000D02*
X21229000Y-7259000D01*
X21229000Y-7219000D02*
X21189000Y-7259000D01*
X21189000Y-11918000D02*
X21229000Y-11958000D01*
X21229000Y-11918000D02*
X21189000Y-11958000D01*
X21316000Y-8362000D02*
X21356000Y-8402000D01*
X21356000Y-8362000D02*
X21316000Y-8402000D01*
X21443000Y-9886000D02*
X21483000Y-9926000D01*
X21483000Y-9886000D02*
X21443000Y-9926000D01*
X21443000Y-10775000D02*
X21483000Y-10815000D01*
X21483000Y-10775000D02*
X21443000Y-10815000D01*
X21570000Y-8743000D02*
X21610000Y-8783000D01*
X21610000Y-8743000D02*
X21570000Y-8783000D01*
X21570000Y-8997000D02*
X21610000Y-9037000D01*
X21610000Y-8997000D02*
X21570000Y-9037000D01*
X21570000Y-9378000D02*
X21610000Y-9418000D01*
X21610000Y-9378000D02*
X21570000Y-9418000D01*
X21570000Y-9759000D02*
X21610000Y-9799000D01*
X21610000Y-9759000D02*
X21570000Y-9799000D01*
X21570000Y-10267000D02*
X21610000Y-10307000D01*
X21610000Y-10267000D02*
X21570000Y-10307000D01*
X21570000Y-11283000D02*
X21610000Y-11323000D01*
X21610000Y-11283000D02*
X21570000Y-11323000D01*
X21697000Y-7473000D02*
X21737000Y-7513000D01*
X21737000Y-7473000D02*
X21697000Y-7513000D01*
X21697000Y-8235000D02*
X21737000Y-8275000D01*
X21737000Y-8235000D02*
X21697000Y-8275000D01*
X21697000Y-8870000D02*
X21737000Y-8910000D01*
X21737000Y-8870000D02*
X21697000Y-8910000D01*
X21697000Y-9124000D02*
X21737000Y-9164000D01*
X21737000Y-9124000D02*
X21697000Y-9164000D01*
X21697000Y-11664000D02*
X21737000Y-11704000D01*
X21737000Y-11664000D02*
X21697000Y-11704000D01*
X21697000Y-12299000D02*
X21737000Y-12339000D01*
X21737000Y-12299000D02*
X21697000Y-12339000D01*
X21824000Y-10394000D02*
X21864000Y-10434000D01*
X21864000Y-10394000D02*
X21824000Y-10434000D01*
X21824000Y-12426000D02*
X21864000Y-12466000D01*
X21864000Y-12426000D02*
X21824000Y-12466000D01*
X21951000Y-6838000D02*
X21991000Y-6878000D01*
X21991000Y-6838000D02*
X21951000Y-6878000D01*
X22078000Y-11283000D02*
X22118000Y-11323000D01*
X22118000Y-11283000D02*
X22078000Y-11323000D01*
X22078000Y-11537000D02*
X22118000Y-11577000D01*
X22118000Y-11537000D02*
X22078000Y-11577000D01*
X18963640Y-6223000D02*
G75*
G03X18963640Y-6223000I-40640J0D01*
G01*
X17820640Y-9144000D02*
G75*
G03X17820640Y-9144000I-40640J0D01*
G01*
X17820640Y-9906000D02*
G75*
G03X17820640Y-9906000I-40640J0D01*
G01*
X13756640Y-9017000D02*
G75*
G03X13756640Y-9017000I-40640J0D01*
G01*
X13756640Y-9779000D02*
G75*
G03X13756640Y-9779000I-40640J0D01*
G01*
X18582640Y-13081000D02*
G75*
G03X18582640Y-13081000I-40640J0D01*
G01*
X18582640Y-13843000D02*
G75*
G03X18582640Y-13843000I-40640J0D01*
G01*
X13756640Y-6858000D02*
G75*
G03X13756640Y-6858000I-40640J0D01*
G01*
X13756640Y-7620000D02*
G75*
G03X13756640Y-7620000I-40640J0D01*
G01*
X21249640Y-11049000D02*
G75*
G03X21249640Y-11049000I-40640J0D01*
G01*
X21757640Y-11049000D02*
G75*
G03X21757640Y-11049000I-40640J0D01*
G01*
X19852640Y-9017000D02*
G75*
G03X19852640Y-9017000I-40640J0D01*
G01*
X19852640Y-9779000D02*
G75*
G03X19852640Y-9779000I-40640J0D01*
G01*
X11851640Y-9017000D02*
G75*
G03X11851640Y-9017000I-40640J0D01*
G01*
X11851640Y-9779000D02*
G75*
G03X11851640Y-9779000I-40640J0D01*
G01*
X18963640Y-6477000D02*
G75*
G03X18963640Y-6477000I-40640J0D01*
G01*
X20487640Y-7188200D02*
G75*
G03X20487640Y-7188200I-40640J0D01*
G01*
X20487640Y-7442200D02*
G75*
G03X20487640Y-7442200I-40640J0D01*
G01*
X20487640Y-7696200D02*
G75*
G03X20487640Y-7696200I-40640J0D01*
G01*
X20487640Y-7950200D02*
G75*
G03X20487640Y-7950200I-40640J0D01*
G01*
X20487640Y-8204200D02*
G75*
G03X20487640Y-8204200I-40640J0D01*
G01*
X20487640Y-8458200D02*
G75*
G03X20487640Y-8458200I-40640J0D01*
G01*
X20487640Y-8712200D02*
G75*
G03X20487640Y-8712200I-40640J0D01*
G01*
X20487640Y-8966200D02*
G75*
G03X20487640Y-8966200I-40640J0D01*
G01*
X20487640Y-9220200D02*
G75*
G03X20487640Y-9220200I-40640J0D01*
G01*
X20487640Y-9474200D02*
G75*
G03X20487640Y-9474200I-40640J0D01*
G01*
X20487640Y-9728200D02*
G75*
G03X20487640Y-9728200I-40640J0D01*
G01*
X20487640Y-9982200D02*
G75*
G03X20487640Y-9982200I-40640J0D01*
G01*
X20620280Y-7061200D02*
G75*
G03X20620280Y-7061200I-40640J0D01*
G01*
X20620280Y-7315200D02*
G75*
G03X20620280Y-7315200I-40640J0D01*
G01*
X20620280Y-7569200D02*
G75*
G03X20620280Y-7569200I-40640J0D01*
G01*
X20620280Y-7823200D02*
G75*
G03X20620280Y-7823200I-40640J0D01*
G01*
X20620280Y-8077200D02*
G75*
G03X20620280Y-8077200I-40640J0D01*
G01*
X20620280Y-8331200D02*
G75*
G03X20620280Y-8331200I-40640J0D01*
G01*
X20620280Y-8585200D02*
G75*
G03X20620280Y-8585200I-40640J0D01*
G01*
X20620280Y-8839200D02*
G75*
G03X20620280Y-8839200I-40640J0D01*
G01*
X20620280Y-9093200D02*
G75*
G03X20620280Y-9093200I-40640J0D01*
G01*
X20620280Y-9347200D02*
G75*
G03X20620280Y-9347200I-40640J0D01*
G01*
X20620280Y-9601200D02*
G75*
G03X20620280Y-9601200I-40640J0D01*
G01*
X20620280Y-9855200D02*
G75*
G03X20620280Y-9855200I-40640J0D01*
G01*
X22011640Y-7188200D02*
G75*
G03X22011640Y-7188200I-40640J0D01*
G01*
X22011640Y-7442200D02*
G75*
G03X22011640Y-7442200I-40640J0D01*
G01*
X22011640Y-7696200D02*
G75*
G03X22011640Y-7696200I-40640J0D01*
G01*
X22011640Y-7950200D02*
G75*
G03X22011640Y-7950200I-40640J0D01*
G01*
X22011640Y-8204200D02*
G75*
G03X22011640Y-8204200I-40640J0D01*
G01*
X22011640Y-8458200D02*
G75*
G03X22011640Y-8458200I-40640J0D01*
G01*
X22011640Y-8712200D02*
G75*
G03X22011640Y-8712200I-40640J0D01*
G01*
X22011640Y-8966200D02*
G75*
G03X22011640Y-8966200I-40640J0D01*
G01*
X22011640Y-9220200D02*
G75*
G03X22011640Y-9220200I-40640J0D01*
G01*
X22011640Y-9474200D02*
G75*
G03X22011640Y-9474200I-40640J0D01*
G01*
X22011640Y-9728200D02*
G75*
G03X22011640Y-9728200I-40640J0D01*
G01*
X22011640Y-9982200D02*
G75*
G03X22011640Y-9982200I-40640J0D01*
G01*
X22142280Y-7061200D02*
G75*
G03X22142280Y-7061200I-40640J0D01*
G01*
X22142280Y-7315200D02*
G75*
G03X22142280Y-7315200I-40640J0D01*
G01*
X22142280Y-7569200D02*
G75*
G03X22142280Y-7569200I-40640J0D01*
G01*
X22142280Y-7823200D02*
G75*
G03X22142280Y-7823200I-40640J0D01*
G01*
X22142280Y-8077200D02*
G75*
G03X22142280Y-8077200I-40640J0D01*
G01*
X22142280Y-8331200D02*
G75*
G03X22142280Y-8331200I-40640J0D01*
G01*
X22142280Y-8585200D02*
G75*
G03X22142280Y-8585200I-40640J0D01*
G01*
X22142280Y-8839200D02*
G75*
G03X22142280Y-8839200I-40640J0D01*
G01*
X22142280Y-9093200D02*
G75*
G03X22142280Y-9093200I-40640J0D01*
G01*
X22142280Y-9347200D02*
G75*
G03X22142280Y-9347200I-40640J0D01*
G01*
X22142280Y-9601200D02*
G75*
G03X22142280Y-9601200I-40640J0D01*
G01*
X22142280Y-9855200D02*
G75*
G03X22142280Y-9855200I-40640J0D01*
G01*
X10962640Y-11430000D02*
G75*
G03X10962640Y-11430000I-40640J0D01*
G01*
X10962640Y-12192000D02*
G75*
G03X10962640Y-12192000I-40640J0D01*
G01*
X19598640Y-7239000D02*
G75*
G03X19598640Y-7239000I-40640J0D01*
G01*
X19598640Y-8001000D02*
G75*
G03X19598640Y-8001000I-40640J0D01*
G01*
X9946640Y-9525000D02*
G75*
G03X9946640Y-9525000I-40640J0D01*
G01*
X9946640Y-10287000D02*
G75*
G03X9946640Y-10287000I-40640J0D01*
G01*
X15661640Y-6858000D02*
G75*
G03X15661640Y-6858000I-40640J0D01*
G01*
X15661640Y-7620000D02*
G75*
G03X15661640Y-7620000I-40640J0D01*
G01*
X15915640Y-6858000D02*
G75*
G03X15915640Y-6858000I-40640J0D01*
G01*
X15915640Y-7620000D02*
G75*
G03X15915640Y-7620000I-40640J0D01*
G01*
X13883640Y-10668000D02*
G75*
G03X13883640Y-10668000I-40640J0D01*
G01*
X13883640Y-11430000D02*
G75*
G03X13883640Y-11430000I-40640J0D01*
G01*
X18963640Y-13081000D02*
G75*
G03X18963640Y-13081000I-40640J0D01*
G01*
X18963640Y-13843000D02*
G75*
G03X18963640Y-13843000I-40640J0D01*
G01*
X15915640Y-9017000D02*
G75*
G03X15915640Y-9017000I-40640J0D01*
G01*
X15915640Y-9779000D02*
G75*
G03X15915640Y-9779000I-40640J0D01*
G01*
X11597640Y-8001000D02*
G75*
G03X11597640Y-8001000I-40640J0D01*
G01*
X11597640Y-8763000D02*
G75*
G03X11597640Y-8763000I-40640J0D01*
G01*
X21249640Y-10795000D02*
G75*
G03X21249640Y-10795000I-40640J0D01*
G01*
X21757640Y-10795000D02*
G75*
G03X21757640Y-10795000I-40640J0D01*
G01*
X17729000Y-5836000D02*
X17729000Y-5936000D01*
X17679000Y-5886000D02*
X17779000Y-5886000D01*
X17704000Y-5926000D02*
X17754000Y-5926000D01*
X17704000Y-5846000D02*
X17754000Y-5846000D01*
X17754000Y-5926000D02*
G75*
G03X17754000Y-5846000I0J40000D01*
G01*
X17704000Y-5846000D02*
G75*
G03X17704000Y-5926000I0J-40000D01*
G01*
X17729000Y-6431000D02*
X17729000Y-6531000D01*
X17679000Y-6481000D02*
X17779000Y-6481000D01*
X17704000Y-6521000D02*
X17754000Y-6521000D01*
X17704000Y-6441000D02*
X17754000Y-6441000D01*
X17754000Y-6521000D02*
G75*
G03X17754000Y-6441000I0J40000D01*
G01*
X17704000Y-6441000D02*
G75*
G03X17704000Y-6521000I0J-40000D01*
G01*
X18029000Y-5836000D02*
X18029000Y-5936000D01*
X17979000Y-5886000D02*
X18079000Y-5886000D01*
X18004000Y-5926000D02*
X18054000Y-5926000D01*
X18004000Y-5846000D02*
X18054000Y-5846000D01*
X18054000Y-5926000D02*
G75*
G03X18054000Y-5846000I0J40000D01*
G01*
X18004000Y-5846000D02*
G75*
G03X18004000Y-5926000I0J-40000D01*
G01*
X18029000Y-6431000D02*
X18029000Y-6531000D01*
X17979000Y-6481000D02*
X18079000Y-6481000D01*
X18004000Y-6521000D02*
X18054000Y-6521000D01*
X18004000Y-6441000D02*
X18054000Y-6441000D01*
X18054000Y-6521000D02*
G75*
G03X18054000Y-6441000I0J40000D01*
G01*
X18004000Y-6441000D02*
G75*
G03X18004000Y-6521000I0J-40000D01*
G01*
X18429000Y-5836000D02*
X18429000Y-5936000D01*
X18379000Y-5886000D02*
X18479000Y-5886000D01*
X18404000Y-5926000D02*
X18454000Y-5926000D01*
X18404000Y-5846000D02*
X18454000Y-5846000D01*
X18454000Y-5926000D02*
G75*
G03X18454000Y-5846000I0J40000D01*
G01*
X18404000Y-5846000D02*
G75*
G03X18404000Y-5926000I0J-40000D01*
G01*
X18429000Y-6431000D02*
X18429000Y-6531000D01*
X18379000Y-6481000D02*
X18479000Y-6481000D01*
X18404000Y-6521000D02*
X18454000Y-6521000D01*
X18404000Y-6441000D02*
X18454000Y-6441000D01*
X18454000Y-6521000D02*
G75*
G03X18454000Y-6441000I0J40000D01*
G01*
X18404000Y-6441000D02*
G75*
G03X18404000Y-6521000I0J-40000D01*
G01*
X18579000Y-6011000D02*
X18579000Y-6111000D01*
X18529000Y-6061000D02*
X18629000Y-6061000D01*
X18554000Y-6101000D02*
X18604000Y-6101000D01*
X18554000Y-6021000D02*
X18604000Y-6021000D01*
X18604000Y-6101000D02*
G75*
G03X18604000Y-6021000I0J40000D01*
G01*
X18554000Y-6021000D02*
G75*
G03X18554000Y-6101000I0J-40000D01*
G01*
X18579000Y-6256000D02*
X18579000Y-6356000D01*
X18529000Y-6306000D02*
X18629000Y-6306000D01*
X18554000Y-6346000D02*
X18604000Y-6346000D01*
X18554000Y-6266000D02*
X18604000Y-6266000D01*
X18604000Y-6346000D02*
G75*
G03X18604000Y-6266000I0J40000D01*
G01*
X18554000Y-6266000D02*
G75*
G03X18554000Y-6346000I0J-40000D01*
G01*
X19278962Y-6014962D02*
X19278962Y-5923038D01*
X19187038Y-5923038D01*
X19187038Y-6014962D01*
X19278962Y-6014962D01*
X19928962Y-6014962D02*
X19928962Y-5923038D01*
X19837038Y-5923038D01*
X19837038Y-6014962D01*
X19928962Y-6014962D01*
D12*
X8277428Y-15332214D02*
X8277428Y-15032214D01*
X8348857Y-15032214D01*
X8391714Y-15046500D01*
X8420286Y-15075071D01*
X8434571Y-15103643D01*
X8448857Y-15160786D01*
X8448857Y-15203643D01*
X8434571Y-15260786D01*
X8420286Y-15289357D01*
X8391714Y-15317929D01*
X8348857Y-15332214D01*
X8277428Y-15332214D01*
X8577428Y-15332214D02*
X8577428Y-15132214D01*
X8577428Y-15189357D02*
X8591714Y-15160786D01*
X8606000Y-15146500D01*
X8634571Y-15132214D01*
X8663143Y-15132214D01*
X8763143Y-15332214D02*
X8763143Y-15132214D01*
X8763143Y-15032214D02*
X8748857Y-15046500D01*
X8763143Y-15060786D01*
X8777428Y-15046500D01*
X8763143Y-15032214D01*
X8763143Y-15060786D01*
X8948857Y-15332214D02*
X8920286Y-15317929D01*
X8906000Y-15289357D01*
X8906000Y-15032214D01*
X9106000Y-15332214D02*
X9077428Y-15317929D01*
X9063143Y-15289357D01*
X9063143Y-15032214D01*
X9448857Y-15332214D02*
X9448857Y-15032214D01*
X9548857Y-15246500D01*
X9648857Y-15032214D01*
X9648857Y-15332214D01*
X9920286Y-15332214D02*
X9920286Y-15175071D01*
X9906000Y-15146500D01*
X9877428Y-15132214D01*
X9820286Y-15132214D01*
X9791714Y-15146500D01*
X9920286Y-15317929D02*
X9891714Y-15332214D01*
X9820286Y-15332214D01*
X9791714Y-15317929D01*
X9777428Y-15289357D01*
X9777428Y-15260786D01*
X9791714Y-15232214D01*
X9820286Y-15217929D01*
X9891714Y-15217929D01*
X9920286Y-15203643D01*
X10063143Y-15132214D02*
X10063143Y-15432214D01*
X10063143Y-15146500D02*
X10091714Y-15132214D01*
X10148857Y-15132214D01*
X10177428Y-15146500D01*
X10191714Y-15160786D01*
X10206000Y-15189357D01*
X10206000Y-15275071D01*
X10191714Y-15303643D01*
X10177428Y-15317929D01*
X10148857Y-15332214D01*
X10091714Y-15332214D01*
X10063143Y-15317929D01*
X10334571Y-15303643D02*
X10348857Y-15317929D01*
X10334571Y-15332214D01*
X10320286Y-15317929D01*
X10334571Y-15303643D01*
X10334571Y-15332214D01*
X10334571Y-15146500D02*
X10348857Y-15160786D01*
X10334571Y-15175071D01*
X10320286Y-15160786D01*
X10334571Y-15146500D01*
X10334571Y-15175071D01*
X7951000Y-15806500D02*
X7991000Y-15846500D01*
X7991000Y-15806500D02*
X7951000Y-15846500D01*
X8334571Y-15662214D02*
X8363143Y-15662214D01*
X8391714Y-15676500D01*
X8406000Y-15690786D01*
X8420286Y-15719357D01*
X8434571Y-15776500D01*
X8434571Y-15847929D01*
X8420286Y-15905071D01*
X8406000Y-15933643D01*
X8391714Y-15947929D01*
X8363143Y-15962214D01*
X8334571Y-15962214D01*
X8306000Y-15947929D01*
X8291714Y-15933643D01*
X8277428Y-15905071D01*
X8263143Y-15847929D01*
X8263143Y-15776500D01*
X8277428Y-15719357D01*
X8291714Y-15690786D01*
X8306000Y-15676500D01*
X8334571Y-15662214D01*
X8563143Y-15933643D02*
X8577428Y-15947929D01*
X8563143Y-15962214D01*
X8548857Y-15947929D01*
X8563143Y-15933643D01*
X8563143Y-15962214D01*
X8834571Y-15762214D02*
X8834571Y-15962214D01*
X8763143Y-15647929D02*
X8691714Y-15862214D01*
X8877428Y-15862214D01*
X9048857Y-15662214D02*
X9077428Y-15662214D01*
X9106000Y-15676500D01*
X9120286Y-15690786D01*
X9134571Y-15719357D01*
X9148857Y-15776500D01*
X9148857Y-15847929D01*
X9134571Y-15905071D01*
X9120286Y-15933643D01*
X9106000Y-15947929D01*
X9077428Y-15962214D01*
X9048857Y-15962214D01*
X9020286Y-15947929D01*
X9006000Y-15933643D01*
X8991714Y-15905071D01*
X8977428Y-15847929D01*
X8977428Y-15776500D01*
X8991714Y-15719357D01*
X9006000Y-15690786D01*
X9020286Y-15676500D01*
X9048857Y-15662214D01*
X9277428Y-15962214D02*
X9277428Y-15762214D01*
X9277428Y-15790786D02*
X9291714Y-15776500D01*
X9320286Y-15762214D01*
X9363143Y-15762214D01*
X9391714Y-15776500D01*
X9406000Y-15805071D01*
X9406000Y-15962214D01*
X9406000Y-15805071D02*
X9420286Y-15776500D01*
X9448857Y-15762214D01*
X9491714Y-15762214D01*
X9520286Y-15776500D01*
X9534571Y-15805071D01*
X9534571Y-15962214D01*
X9677428Y-15962214D02*
X9677428Y-15762214D01*
X9677428Y-15790786D02*
X9691714Y-15776500D01*
X9720286Y-15762214D01*
X9763143Y-15762214D01*
X9791714Y-15776500D01*
X9806000Y-15805071D01*
X9806000Y-15962214D01*
X9806000Y-15805071D02*
X9820286Y-15776500D01*
X9848857Y-15762214D01*
X9891714Y-15762214D01*
X9920286Y-15776500D01*
X9934571Y-15805071D01*
X9934571Y-15962214D01*
X10520286Y-15647929D02*
X10263143Y-16033643D01*
X10906000Y-15662214D02*
X10934571Y-15662214D01*
X10963143Y-15676500D01*
X10977428Y-15690786D01*
X10991714Y-15719357D01*
X11006000Y-15776500D01*
X11006000Y-15847929D01*
X10991714Y-15905071D01*
X10977428Y-15933643D01*
X10963143Y-15947929D01*
X10934571Y-15962214D01*
X10906000Y-15962214D01*
X10877428Y-15947929D01*
X10863143Y-15933643D01*
X10848857Y-15905071D01*
X10834571Y-15847929D01*
X10834571Y-15776500D01*
X10848857Y-15719357D01*
X10863143Y-15690786D01*
X10877428Y-15676500D01*
X10906000Y-15662214D01*
X11134571Y-15933643D02*
X11148857Y-15947929D01*
X11134571Y-15962214D01*
X11120286Y-15947929D01*
X11134571Y-15933643D01*
X11134571Y-15962214D01*
X11334571Y-15662214D02*
X11363143Y-15662214D01*
X11391714Y-15676500D01*
X11406000Y-15690786D01*
X11420286Y-15719357D01*
X11434571Y-15776500D01*
X11434571Y-15847929D01*
X11420286Y-15905071D01*
X11406000Y-15933643D01*
X11391714Y-15947929D01*
X11363143Y-15962214D01*
X11334571Y-15962214D01*
X11306000Y-15947929D01*
X11291714Y-15933643D01*
X11277428Y-15905071D01*
X11263143Y-15847929D01*
X11263143Y-15776500D01*
X11277428Y-15719357D01*
X11291714Y-15690786D01*
X11306000Y-15676500D01*
X11334571Y-15662214D01*
X11720286Y-15962214D02*
X11548857Y-15962214D01*
X11634571Y-15962214D02*
X11634571Y-15662214D01*
X11606000Y-15705071D01*
X11577428Y-15733643D01*
X11548857Y-15747929D01*
X11977428Y-15662214D02*
X11920286Y-15662214D01*
X11891714Y-15676500D01*
X11877428Y-15690786D01*
X11848857Y-15733643D01*
X11834571Y-15790786D01*
X11834571Y-15905071D01*
X11848857Y-15933643D01*
X11863143Y-15947929D01*
X11891714Y-15962214D01*
X11948857Y-15962214D01*
X11977428Y-15947929D01*
X11991714Y-15933643D01*
X12006000Y-15905071D01*
X12006000Y-15833643D01*
X11991714Y-15805071D01*
X11977428Y-15790786D01*
X11948857Y-15776500D01*
X11891714Y-15776500D01*
X11863143Y-15790786D01*
X11848857Y-15805071D01*
X11834571Y-15833643D01*
X12120286Y-15662214D02*
X12120286Y-15719357D01*
X12234571Y-15662214D02*
X12234571Y-15719357D01*
X12677428Y-16076500D02*
X12663143Y-16062214D01*
X12634571Y-16019357D01*
X12620286Y-15990786D01*
X12606000Y-15947929D01*
X12591714Y-15876500D01*
X12591714Y-15819357D01*
X12606000Y-15747929D01*
X12620286Y-15705071D01*
X12634571Y-15676500D01*
X12663143Y-15633643D01*
X12677428Y-15619357D01*
X12948857Y-15962214D02*
X12777428Y-15962214D01*
X12863143Y-15962214D02*
X12863143Y-15662214D01*
X12834571Y-15705071D01*
X12806000Y-15733643D01*
X12777428Y-15747929D01*
X13134571Y-15662214D02*
X13163143Y-15662214D01*
X13191714Y-15676500D01*
X13206000Y-15690786D01*
X13220286Y-15719357D01*
X13234571Y-15776500D01*
X13234571Y-15847929D01*
X13220286Y-15905071D01*
X13206000Y-15933643D01*
X13191714Y-15947929D01*
X13163143Y-15962214D01*
X13134571Y-15962214D01*
X13106000Y-15947929D01*
X13091714Y-15933643D01*
X13077428Y-15905071D01*
X13063143Y-15847929D01*
X13063143Y-15776500D01*
X13077428Y-15719357D01*
X13091714Y-15690786D01*
X13106000Y-15676500D01*
X13134571Y-15662214D01*
X13520286Y-15962214D02*
X13348857Y-15962214D01*
X13434571Y-15962214D02*
X13434571Y-15662214D01*
X13406000Y-15705071D01*
X13377428Y-15733643D01*
X13348857Y-15747929D01*
X13877428Y-15962214D02*
X13877428Y-15662214D01*
X14006000Y-15962214D02*
X14006000Y-15805071D01*
X13991714Y-15776500D01*
X13963143Y-15762214D01*
X13920286Y-15762214D01*
X13891714Y-15776500D01*
X13877428Y-15790786D01*
X14191714Y-15962214D02*
X14163143Y-15947929D01*
X14148857Y-15933643D01*
X14134571Y-15905071D01*
X14134571Y-15819357D01*
X14148857Y-15790786D01*
X14163143Y-15776500D01*
X14191714Y-15762214D01*
X14234571Y-15762214D01*
X14263143Y-15776500D01*
X14277428Y-15790786D01*
X14291714Y-15819357D01*
X14291714Y-15905071D01*
X14277428Y-15933643D01*
X14263143Y-15947929D01*
X14234571Y-15962214D01*
X14191714Y-15962214D01*
X14463143Y-15962214D02*
X14434571Y-15947929D01*
X14420286Y-15919357D01*
X14420286Y-15662214D01*
X14691714Y-15947929D02*
X14663143Y-15962214D01*
X14606000Y-15962214D01*
X14577428Y-15947929D01*
X14563143Y-15919357D01*
X14563143Y-15805071D01*
X14577428Y-15776500D01*
X14606000Y-15762214D01*
X14663143Y-15762214D01*
X14691714Y-15776500D01*
X14706000Y-15805071D01*
X14706000Y-15833643D01*
X14563143Y-15862214D01*
X14820286Y-15947929D02*
X14848857Y-15962214D01*
X14906000Y-15962214D01*
X14934571Y-15947929D01*
X14948857Y-15919357D01*
X14948857Y-15905071D01*
X14934571Y-15876500D01*
X14906000Y-15862214D01*
X14863143Y-15862214D01*
X14834571Y-15847929D01*
X14820286Y-15819357D01*
X14820286Y-15805071D01*
X14834571Y-15776500D01*
X14863143Y-15762214D01*
X14906000Y-15762214D01*
X14934571Y-15776500D01*
X15048857Y-16076500D02*
X15063143Y-16062214D01*
X15091714Y-16019357D01*
X15106000Y-15990786D01*
X15120286Y-15947929D01*
X15134571Y-15876500D01*
X15134571Y-15819357D01*
X15120286Y-15747929D01*
X15106000Y-15705071D01*
X15091714Y-15676500D01*
X15063143Y-15633643D01*
X15048857Y-15619357D01*
X7991000Y-16222500D02*
G75*
G03X7991000Y-16222500I-40640J0D01*
G01*
X8334571Y-16058214D02*
X8363143Y-16058214D01*
X8391714Y-16072500D01*
X8406000Y-16086786D01*
X8420286Y-16115357D01*
X8434571Y-16172500D01*
X8434571Y-16243929D01*
X8420286Y-16301071D01*
X8406000Y-16329643D01*
X8391714Y-16343929D01*
X8363143Y-16358214D01*
X8334571Y-16358214D01*
X8306000Y-16343929D01*
X8291714Y-16329643D01*
X8277428Y-16301071D01*
X8263143Y-16243929D01*
X8263143Y-16172500D01*
X8277428Y-16115357D01*
X8291714Y-16086786D01*
X8306000Y-16072500D01*
X8334571Y-16058214D01*
X8563143Y-16329643D02*
X8577428Y-16343929D01*
X8563143Y-16358214D01*
X8548857Y-16343929D01*
X8563143Y-16329643D01*
X8563143Y-16358214D01*
X8748857Y-16186786D02*
X8720286Y-16172500D01*
X8706000Y-16158214D01*
X8691714Y-16129643D01*
X8691714Y-16115357D01*
X8706000Y-16086786D01*
X8720286Y-16072500D01*
X8748857Y-16058214D01*
X8806000Y-16058214D01*
X8834571Y-16072500D01*
X8848857Y-16086786D01*
X8863143Y-16115357D01*
X8863143Y-16129643D01*
X8848857Y-16158214D01*
X8834571Y-16172500D01*
X8806000Y-16186786D01*
X8748857Y-16186786D01*
X8720286Y-16201071D01*
X8706000Y-16215357D01*
X8691714Y-16243929D01*
X8691714Y-16301071D01*
X8706000Y-16329643D01*
X8720286Y-16343929D01*
X8748857Y-16358214D01*
X8806000Y-16358214D01*
X8834571Y-16343929D01*
X8848857Y-16329643D01*
X8863143Y-16301071D01*
X8863143Y-16243929D01*
X8848857Y-16215357D01*
X8834571Y-16201071D01*
X8806000Y-16186786D01*
X9148857Y-16358214D02*
X8977428Y-16358214D01*
X9063143Y-16358214D02*
X9063143Y-16058214D01*
X9034571Y-16101071D01*
X9006000Y-16129643D01*
X8977428Y-16143929D01*
X9277428Y-16358214D02*
X9277428Y-16158214D01*
X9277428Y-16186786D02*
X9291714Y-16172500D01*
X9320286Y-16158214D01*
X9363143Y-16158214D01*
X9391714Y-16172500D01*
X9406000Y-16201071D01*
X9406000Y-16358214D01*
X9406000Y-16201071D02*
X9420286Y-16172500D01*
X9448857Y-16158214D01*
X9491714Y-16158214D01*
X9520286Y-16172500D01*
X9534571Y-16201071D01*
X9534571Y-16358214D01*
X9677428Y-16358214D02*
X9677428Y-16158214D01*
X9677428Y-16186786D02*
X9691714Y-16172500D01*
X9720286Y-16158214D01*
X9763143Y-16158214D01*
X9791714Y-16172500D01*
X9806000Y-16201071D01*
X9806000Y-16358214D01*
X9806000Y-16201071D02*
X9820286Y-16172500D01*
X9848857Y-16158214D01*
X9891714Y-16158214D01*
X9920286Y-16172500D01*
X9934571Y-16201071D01*
X9934571Y-16358214D01*
X10520286Y-16043929D02*
X10263143Y-16429643D01*
X10906000Y-16058214D02*
X10934571Y-16058214D01*
X10963143Y-16072500D01*
X10977428Y-16086786D01*
X10991714Y-16115357D01*
X11006000Y-16172500D01*
X11006000Y-16243929D01*
X10991714Y-16301071D01*
X10977428Y-16329643D01*
X10963143Y-16343929D01*
X10934571Y-16358214D01*
X10906000Y-16358214D01*
X10877428Y-16343929D01*
X10863143Y-16329643D01*
X10848857Y-16301071D01*
X10834571Y-16243929D01*
X10834571Y-16172500D01*
X10848857Y-16115357D01*
X10863143Y-16086786D01*
X10877428Y-16072500D01*
X10906000Y-16058214D01*
X11134571Y-16329643D02*
X11148857Y-16343929D01*
X11134571Y-16358214D01*
X11120286Y-16343929D01*
X11134571Y-16329643D01*
X11134571Y-16358214D01*
X11334571Y-16058214D02*
X11363143Y-16058214D01*
X11391714Y-16072500D01*
X11406000Y-16086786D01*
X11420286Y-16115357D01*
X11434571Y-16172500D01*
X11434571Y-16243929D01*
X11420286Y-16301071D01*
X11406000Y-16329643D01*
X11391714Y-16343929D01*
X11363143Y-16358214D01*
X11334571Y-16358214D01*
X11306000Y-16343929D01*
X11291714Y-16329643D01*
X11277428Y-16301071D01*
X11263143Y-16243929D01*
X11263143Y-16172500D01*
X11277428Y-16115357D01*
X11291714Y-16086786D01*
X11306000Y-16072500D01*
X11334571Y-16058214D01*
X11534571Y-16058214D02*
X11720286Y-16058214D01*
X11620286Y-16172500D01*
X11663143Y-16172500D01*
X11691714Y-16186786D01*
X11706000Y-16201071D01*
X11720286Y-16229643D01*
X11720286Y-16301071D01*
X11706000Y-16329643D01*
X11691714Y-16343929D01*
X11663143Y-16358214D01*
X11577428Y-16358214D01*
X11548857Y-16343929D01*
X11534571Y-16329643D01*
X11834571Y-16086786D02*
X11848857Y-16072500D01*
X11877428Y-16058214D01*
X11948857Y-16058214D01*
X11977428Y-16072500D01*
X11991714Y-16086786D01*
X12006000Y-16115357D01*
X12006000Y-16143929D01*
X11991714Y-16186786D01*
X11820286Y-16358214D01*
X12006000Y-16358214D01*
X12120286Y-16058214D02*
X12120286Y-16115357D01*
X12234571Y-16058214D02*
X12234571Y-16115357D01*
X12677428Y-16472500D02*
X12663143Y-16458214D01*
X12634571Y-16415357D01*
X12620286Y-16386786D01*
X12606000Y-16343929D01*
X12591714Y-16272500D01*
X12591714Y-16215357D01*
X12606000Y-16143929D01*
X12620286Y-16101071D01*
X12634571Y-16072500D01*
X12663143Y-16029643D01*
X12677428Y-16015357D01*
X12834571Y-16186786D02*
X12806000Y-16172500D01*
X12791714Y-16158214D01*
X12777428Y-16129643D01*
X12777428Y-16115357D01*
X12791714Y-16086786D01*
X12806000Y-16072500D01*
X12834571Y-16058214D01*
X12891714Y-16058214D01*
X12920286Y-16072500D01*
X12934571Y-16086786D01*
X12948857Y-16115357D01*
X12948857Y-16129643D01*
X12934571Y-16158214D01*
X12920286Y-16172500D01*
X12891714Y-16186786D01*
X12834571Y-16186786D01*
X12806000Y-16201071D01*
X12791714Y-16215357D01*
X12777428Y-16243929D01*
X12777428Y-16301071D01*
X12791714Y-16329643D01*
X12806000Y-16343929D01*
X12834571Y-16358214D01*
X12891714Y-16358214D01*
X12920286Y-16343929D01*
X12934571Y-16329643D01*
X12948857Y-16301071D01*
X12948857Y-16243929D01*
X12934571Y-16215357D01*
X12920286Y-16201071D01*
X12891714Y-16186786D01*
X13206000Y-16158214D02*
X13206000Y-16358214D01*
X13134571Y-16043929D02*
X13063143Y-16258214D01*
X13248857Y-16258214D01*
X13591714Y-16358214D02*
X13591714Y-16058214D01*
X13720286Y-16358214D02*
X13720286Y-16201071D01*
X13706000Y-16172500D01*
X13677428Y-16158214D01*
X13634571Y-16158214D01*
X13606000Y-16172500D01*
X13591714Y-16186786D01*
X13906000Y-16358214D02*
X13877428Y-16343929D01*
X13863143Y-16329643D01*
X13848857Y-16301071D01*
X13848857Y-16215357D01*
X13863143Y-16186786D01*
X13877428Y-16172500D01*
X13906000Y-16158214D01*
X13948857Y-16158214D01*
X13977428Y-16172500D01*
X13991714Y-16186786D01*
X14006000Y-16215357D01*
X14006000Y-16301071D01*
X13991714Y-16329643D01*
X13977428Y-16343929D01*
X13948857Y-16358214D01*
X13906000Y-16358214D01*
X14177428Y-16358214D02*
X14148857Y-16343929D01*
X14134571Y-16315357D01*
X14134571Y-16058214D01*
X14406000Y-16343929D02*
X14377428Y-16358214D01*
X14320286Y-16358214D01*
X14291714Y-16343929D01*
X14277428Y-16315357D01*
X14277428Y-16201071D01*
X14291714Y-16172500D01*
X14320286Y-16158214D01*
X14377428Y-16158214D01*
X14406000Y-16172500D01*
X14420286Y-16201071D01*
X14420286Y-16229643D01*
X14277428Y-16258214D01*
X14534571Y-16343929D02*
X14563143Y-16358214D01*
X14620286Y-16358214D01*
X14648857Y-16343929D01*
X14663143Y-16315357D01*
X14663143Y-16301071D01*
X14648857Y-16272500D01*
X14620286Y-16258214D01*
X14577428Y-16258214D01*
X14548857Y-16243929D01*
X14534571Y-16215357D01*
X14534571Y-16201071D01*
X14548857Y-16172500D01*
X14577428Y-16158214D01*
X14620286Y-16158214D01*
X14648857Y-16172500D01*
X14763143Y-16472500D02*
X14777428Y-16458214D01*
X14806000Y-16415357D01*
X14820286Y-16386786D01*
X14834571Y-16343929D01*
X14848857Y-16272500D01*
X14848857Y-16215357D01*
X14834571Y-16143929D01*
X14820286Y-16101071D01*
X14806000Y-16072500D01*
X14777428Y-16029643D01*
X14763143Y-16015357D01*
X7941000Y-16568500D02*
X7941000Y-16668500D01*
X7891000Y-16618500D02*
X7991000Y-16618500D01*
X8434571Y-16754214D02*
X8263143Y-16754214D01*
X8348857Y-16754214D02*
X8348857Y-16454214D01*
X8320286Y-16497071D01*
X8291714Y-16525643D01*
X8263143Y-16539929D01*
X8563143Y-16725643D02*
X8577428Y-16739929D01*
X8563143Y-16754214D01*
X8548857Y-16739929D01*
X8563143Y-16725643D01*
X8563143Y-16754214D01*
X8763143Y-16454214D02*
X8791714Y-16454214D01*
X8820286Y-16468500D01*
X8834571Y-16482786D01*
X8848857Y-16511357D01*
X8863143Y-16568500D01*
X8863143Y-16639929D01*
X8848857Y-16697071D01*
X8834571Y-16725643D01*
X8820286Y-16739929D01*
X8791714Y-16754214D01*
X8763143Y-16754214D01*
X8734571Y-16739929D01*
X8720286Y-16725643D01*
X8706000Y-16697071D01*
X8691714Y-16639929D01*
X8691714Y-16568500D01*
X8706000Y-16511357D01*
X8720286Y-16482786D01*
X8734571Y-16468500D01*
X8763143Y-16454214D01*
X9048857Y-16454214D02*
X9077428Y-16454214D01*
X9106000Y-16468500D01*
X9120286Y-16482786D01*
X9134571Y-16511357D01*
X9148857Y-16568500D01*
X9148857Y-16639929D01*
X9134571Y-16697071D01*
X9120286Y-16725643D01*
X9106000Y-16739929D01*
X9077428Y-16754214D01*
X9048857Y-16754214D01*
X9020286Y-16739929D01*
X9006000Y-16725643D01*
X8991714Y-16697071D01*
X8977428Y-16639929D01*
X8977428Y-16568500D01*
X8991714Y-16511357D01*
X9006000Y-16482786D01*
X9020286Y-16468500D01*
X9048857Y-16454214D01*
X9277428Y-16754214D02*
X9277428Y-16554214D01*
X9277428Y-16582786D02*
X9291714Y-16568500D01*
X9320286Y-16554214D01*
X9363143Y-16554214D01*
X9391714Y-16568500D01*
X9406000Y-16597071D01*
X9406000Y-16754214D01*
X9406000Y-16597071D02*
X9420286Y-16568500D01*
X9448857Y-16554214D01*
X9491714Y-16554214D01*
X9520286Y-16568500D01*
X9534571Y-16597071D01*
X9534571Y-16754214D01*
X9677428Y-16754214D02*
X9677428Y-16554214D01*
X9677428Y-16582786D02*
X9691714Y-16568500D01*
X9720286Y-16554214D01*
X9763143Y-16554214D01*
X9791714Y-16568500D01*
X9806000Y-16597071D01*
X9806000Y-16754214D01*
X9806000Y-16597071D02*
X9820286Y-16568500D01*
X9848857Y-16554214D01*
X9891714Y-16554214D01*
X9920286Y-16568500D01*
X9934571Y-16597071D01*
X9934571Y-16754214D01*
X10520286Y-16439929D02*
X10263143Y-16825643D01*
X10906000Y-16454214D02*
X10934571Y-16454214D01*
X10963143Y-16468500D01*
X10977428Y-16482786D01*
X10991714Y-16511357D01*
X11006000Y-16568500D01*
X11006000Y-16639929D01*
X10991714Y-16697071D01*
X10977428Y-16725643D01*
X10963143Y-16739929D01*
X10934571Y-16754214D01*
X10906000Y-16754214D01*
X10877428Y-16739929D01*
X10863143Y-16725643D01*
X10848857Y-16697071D01*
X10834571Y-16639929D01*
X10834571Y-16568500D01*
X10848857Y-16511357D01*
X10863143Y-16482786D01*
X10877428Y-16468500D01*
X10906000Y-16454214D01*
X11134571Y-16725643D02*
X11148857Y-16739929D01*
X11134571Y-16754214D01*
X11120286Y-16739929D01*
X11134571Y-16725643D01*
X11134571Y-16754214D01*
X11334571Y-16454214D02*
X11363143Y-16454214D01*
X11391714Y-16468500D01*
X11406000Y-16482786D01*
X11420286Y-16511357D01*
X11434571Y-16568500D01*
X11434571Y-16639929D01*
X11420286Y-16697071D01*
X11406000Y-16725643D01*
X11391714Y-16739929D01*
X11363143Y-16754214D01*
X11334571Y-16754214D01*
X11306000Y-16739929D01*
X11291714Y-16725643D01*
X11277428Y-16697071D01*
X11263143Y-16639929D01*
X11263143Y-16568500D01*
X11277428Y-16511357D01*
X11291714Y-16482786D01*
X11306000Y-16468500D01*
X11334571Y-16454214D01*
X11534571Y-16454214D02*
X11720286Y-16454214D01*
X11620286Y-16568500D01*
X11663143Y-16568500D01*
X11691714Y-16582786D01*
X11706000Y-16597071D01*
X11720286Y-16625643D01*
X11720286Y-16697071D01*
X11706000Y-16725643D01*
X11691714Y-16739929D01*
X11663143Y-16754214D01*
X11577428Y-16754214D01*
X11548857Y-16739929D01*
X11534571Y-16725643D01*
X11863143Y-16754214D02*
X11920286Y-16754214D01*
X11948857Y-16739929D01*
X11963143Y-16725643D01*
X11991714Y-16682786D01*
X12006000Y-16625643D01*
X12006000Y-16511357D01*
X11991714Y-16482786D01*
X11977428Y-16468500D01*
X11948857Y-16454214D01*
X11891714Y-16454214D01*
X11863143Y-16468500D01*
X11848857Y-16482786D01*
X11834571Y-16511357D01*
X11834571Y-16582786D01*
X11848857Y-16611357D01*
X11863143Y-16625643D01*
X11891714Y-16639929D01*
X11948857Y-16639929D01*
X11977428Y-16625643D01*
X11991714Y-16611357D01*
X12006000Y-16582786D01*
X12120286Y-16454214D02*
X12120286Y-16511357D01*
X12234571Y-16454214D02*
X12234571Y-16511357D01*
X12677428Y-16868500D02*
X12663143Y-16854214D01*
X12634571Y-16811357D01*
X12620286Y-16782786D01*
X12606000Y-16739929D01*
X12591714Y-16668500D01*
X12591714Y-16611357D01*
X12606000Y-16539929D01*
X12620286Y-16497071D01*
X12634571Y-16468500D01*
X12663143Y-16425643D01*
X12677428Y-16411357D01*
X12848857Y-16454214D02*
X12877428Y-16454214D01*
X12906000Y-16468500D01*
X12920286Y-16482786D01*
X12934571Y-16511357D01*
X12948857Y-16568500D01*
X12948857Y-16639929D01*
X12934571Y-16697071D01*
X12920286Y-16725643D01*
X12906000Y-16739929D01*
X12877428Y-16754214D01*
X12848857Y-16754214D01*
X12820286Y-16739929D01*
X12806000Y-16725643D01*
X12791714Y-16697071D01*
X12777428Y-16639929D01*
X12777428Y-16568500D01*
X12791714Y-16511357D01*
X12806000Y-16482786D01*
X12820286Y-16468500D01*
X12848857Y-16454214D01*
X13306000Y-16754214D02*
X13306000Y-16454214D01*
X13434571Y-16754214D02*
X13434571Y-16597071D01*
X13420286Y-16568500D01*
X13391714Y-16554214D01*
X13348857Y-16554214D01*
X13320286Y-16568500D01*
X13306000Y-16582786D01*
X13620286Y-16754214D02*
X13591714Y-16739929D01*
X13577428Y-16725643D01*
X13563143Y-16697071D01*
X13563143Y-16611357D01*
X13577428Y-16582786D01*
X13591714Y-16568500D01*
X13620286Y-16554214D01*
X13663143Y-16554214D01*
X13691714Y-16568500D01*
X13706000Y-16582786D01*
X13720286Y-16611357D01*
X13720286Y-16697071D01*
X13706000Y-16725643D01*
X13691714Y-16739929D01*
X13663143Y-16754214D01*
X13620286Y-16754214D01*
X13891714Y-16754214D02*
X13863143Y-16739929D01*
X13848857Y-16711357D01*
X13848857Y-16454214D01*
X14120286Y-16739929D02*
X14091714Y-16754214D01*
X14034571Y-16754214D01*
X14006000Y-16739929D01*
X13991714Y-16711357D01*
X13991714Y-16597071D01*
X14006000Y-16568500D01*
X14034571Y-16554214D01*
X14091714Y-16554214D01*
X14120286Y-16568500D01*
X14134571Y-16597071D01*
X14134571Y-16625643D01*
X13991714Y-16654214D01*
X14248857Y-16739929D02*
X14277428Y-16754214D01*
X14334571Y-16754214D01*
X14363143Y-16739929D01*
X14377428Y-16711357D01*
X14377428Y-16697071D01*
X14363143Y-16668500D01*
X14334571Y-16654214D01*
X14291714Y-16654214D01*
X14263143Y-16639929D01*
X14248857Y-16611357D01*
X14248857Y-16597071D01*
X14263143Y-16568500D01*
X14291714Y-16554214D01*
X14334571Y-16554214D01*
X14363143Y-16568500D01*
X14734571Y-16639929D02*
X14963143Y-16639929D01*
X14848857Y-16754214D02*
X14848857Y-16525643D01*
X15377428Y-16582786D02*
X15348857Y-16568500D01*
X15334571Y-16554214D01*
X15320286Y-16525643D01*
X15320286Y-16511357D01*
X15334571Y-16482786D01*
X15348857Y-16468500D01*
X15377428Y-16454214D01*
X15434571Y-16454214D01*
X15463143Y-16468500D01*
X15477428Y-16482786D01*
X15491714Y-16511357D01*
X15491714Y-16525643D01*
X15477428Y-16554214D01*
X15463143Y-16568500D01*
X15434571Y-16582786D01*
X15377428Y-16582786D01*
X15348857Y-16597071D01*
X15334571Y-16611357D01*
X15320286Y-16639929D01*
X15320286Y-16697071D01*
X15334571Y-16725643D01*
X15348857Y-16739929D01*
X15377428Y-16754214D01*
X15434571Y-16754214D01*
X15463143Y-16739929D01*
X15477428Y-16725643D01*
X15491714Y-16697071D01*
X15491714Y-16639929D01*
X15477428Y-16611357D01*
X15463143Y-16597071D01*
X15434571Y-16582786D01*
X15834571Y-16739929D02*
X15863143Y-16754214D01*
X15920286Y-16754214D01*
X15948857Y-16739929D01*
X15963143Y-16711357D01*
X15963143Y-16697071D01*
X15948857Y-16668500D01*
X15920286Y-16654214D01*
X15877428Y-16654214D01*
X15848857Y-16639929D01*
X15834571Y-16611357D01*
X15834571Y-16597071D01*
X15848857Y-16568500D01*
X15877428Y-16554214D01*
X15920286Y-16554214D01*
X15948857Y-16568500D01*
X16134571Y-16754214D02*
X16106000Y-16739929D01*
X16091714Y-16711357D01*
X16091714Y-16454214D01*
X16291714Y-16754214D02*
X16263143Y-16739929D01*
X16248857Y-16725643D01*
X16234571Y-16697071D01*
X16234571Y-16611357D01*
X16248857Y-16582786D01*
X16263143Y-16568500D01*
X16291714Y-16554214D01*
X16334571Y-16554214D01*
X16363143Y-16568500D01*
X16377428Y-16582786D01*
X16391714Y-16611357D01*
X16391714Y-16697071D01*
X16377428Y-16725643D01*
X16363143Y-16739929D01*
X16334571Y-16754214D01*
X16291714Y-16754214D01*
X16477428Y-16554214D02*
X16591714Y-16554214D01*
X16520286Y-16454214D02*
X16520286Y-16711357D01*
X16534571Y-16739929D01*
X16563143Y-16754214D01*
X16591714Y-16754214D01*
X16677428Y-16739929D02*
X16706000Y-16754214D01*
X16763143Y-16754214D01*
X16791714Y-16739929D01*
X16806000Y-16711357D01*
X16806000Y-16697071D01*
X16791714Y-16668500D01*
X16763143Y-16654214D01*
X16720286Y-16654214D01*
X16691714Y-16639929D01*
X16677428Y-16611357D01*
X16677428Y-16597071D01*
X16691714Y-16568500D01*
X16720286Y-16554214D01*
X16763143Y-16554214D01*
X16791714Y-16568500D01*
X16906000Y-16868500D02*
X16920286Y-16854214D01*
X16948857Y-16811357D01*
X16963143Y-16782786D01*
X16977428Y-16739929D01*
X16991714Y-16668500D01*
X16991714Y-16611357D01*
X16977428Y-16539929D01*
X16963143Y-16497071D01*
X16948857Y-16468500D01*
X16920286Y-16425643D01*
X16906000Y-16411357D01*
X7971962Y-17060463D02*
X7971962Y-16968538D01*
X7880037Y-16968538D01*
X7880037Y-17060463D01*
X7971962Y-17060463D01*
X8434571Y-17150214D02*
X8263143Y-17150214D01*
X8348857Y-17150214D02*
X8348857Y-16850214D01*
X8320286Y-16893072D01*
X8291714Y-16921643D01*
X8263143Y-16935929D01*
X8563143Y-17121643D02*
X8577428Y-17135929D01*
X8563143Y-17150214D01*
X8548857Y-17135929D01*
X8563143Y-17121643D01*
X8563143Y-17150214D01*
X8677428Y-16850214D02*
X8863143Y-16850214D01*
X8763143Y-16964500D01*
X8806000Y-16964500D01*
X8834571Y-16978786D01*
X8848857Y-16993072D01*
X8863143Y-17021643D01*
X8863143Y-17093072D01*
X8848857Y-17121643D01*
X8834571Y-17135929D01*
X8806000Y-17150214D01*
X8720286Y-17150214D01*
X8691714Y-17135929D01*
X8677428Y-17121643D01*
X9048857Y-16850214D02*
X9077428Y-16850214D01*
X9106000Y-16864500D01*
X9120286Y-16878786D01*
X9134571Y-16907357D01*
X9148857Y-16964500D01*
X9148857Y-17035929D01*
X9134571Y-17093072D01*
X9120286Y-17121643D01*
X9106000Y-17135929D01*
X9077428Y-17150214D01*
X9048857Y-17150214D01*
X9020286Y-17135929D01*
X9006000Y-17121643D01*
X8991714Y-17093072D01*
X8977428Y-17035929D01*
X8977428Y-16964500D01*
X8991714Y-16907357D01*
X9006000Y-16878786D01*
X9020286Y-16864500D01*
X9048857Y-16850214D01*
X9277428Y-17150214D02*
X9277428Y-16950214D01*
X9277428Y-16978786D02*
X9291714Y-16964500D01*
X9320286Y-16950214D01*
X9363143Y-16950214D01*
X9391714Y-16964500D01*
X9406000Y-16993072D01*
X9406000Y-17150214D01*
X9406000Y-16993072D02*
X9420286Y-16964500D01*
X9448857Y-16950214D01*
X9491714Y-16950214D01*
X9520286Y-16964500D01*
X9534571Y-16993072D01*
X9534571Y-17150214D01*
X9677428Y-17150214D02*
X9677428Y-16950214D01*
X9677428Y-16978786D02*
X9691714Y-16964500D01*
X9720286Y-16950214D01*
X9763143Y-16950214D01*
X9791714Y-16964500D01*
X9806000Y-16993072D01*
X9806000Y-17150214D01*
X9806000Y-16993072D02*
X9820286Y-16964500D01*
X9848857Y-16950214D01*
X9891714Y-16950214D01*
X9920286Y-16964500D01*
X9934571Y-16993072D01*
X9934571Y-17150214D01*
X10520286Y-16835929D02*
X10263143Y-17221643D01*
X10906000Y-16850214D02*
X10934571Y-16850214D01*
X10963143Y-16864500D01*
X10977428Y-16878786D01*
X10991714Y-16907357D01*
X11006000Y-16964500D01*
X11006000Y-17035929D01*
X10991714Y-17093072D01*
X10977428Y-17121643D01*
X10963143Y-17135929D01*
X10934571Y-17150214D01*
X10906000Y-17150214D01*
X10877428Y-17135929D01*
X10863143Y-17121643D01*
X10848857Y-17093072D01*
X10834571Y-17035929D01*
X10834571Y-16964500D01*
X10848857Y-16907357D01*
X10863143Y-16878786D01*
X10877428Y-16864500D01*
X10906000Y-16850214D01*
X11134571Y-17121643D02*
X11148857Y-17135929D01*
X11134571Y-17150214D01*
X11120286Y-17135929D01*
X11134571Y-17121643D01*
X11134571Y-17150214D01*
X11334571Y-16850214D02*
X11363143Y-16850214D01*
X11391714Y-16864500D01*
X11406000Y-16878786D01*
X11420286Y-16907357D01*
X11434571Y-16964500D01*
X11434571Y-17035929D01*
X11420286Y-17093072D01*
X11406000Y-17121643D01*
X11391714Y-17135929D01*
X11363143Y-17150214D01*
X11334571Y-17150214D01*
X11306000Y-17135929D01*
X11291714Y-17121643D01*
X11277428Y-17093072D01*
X11263143Y-17035929D01*
X11263143Y-16964500D01*
X11277428Y-16907357D01*
X11291714Y-16878786D01*
X11306000Y-16864500D01*
X11334571Y-16850214D01*
X11706000Y-16850214D02*
X11563143Y-16850214D01*
X11548857Y-16993072D01*
X11563143Y-16978786D01*
X11591714Y-16964500D01*
X11663143Y-16964500D01*
X11691714Y-16978786D01*
X11706000Y-16993072D01*
X11720286Y-17021643D01*
X11720286Y-17093072D01*
X11706000Y-17121643D01*
X11691714Y-17135929D01*
X11663143Y-17150214D01*
X11591714Y-17150214D01*
X11563143Y-17135929D01*
X11548857Y-17121643D01*
X12006000Y-17150214D02*
X11834571Y-17150214D01*
X11920286Y-17150214D02*
X11920286Y-16850214D01*
X11891714Y-16893072D01*
X11863143Y-16921643D01*
X11834571Y-16935929D01*
X12120286Y-16850214D02*
X12120286Y-16907357D01*
X12234571Y-16850214D02*
X12234571Y-16907357D01*
X12677428Y-17264500D02*
X12663143Y-17250214D01*
X12634571Y-17207357D01*
X12620286Y-17178786D01*
X12606000Y-17135929D01*
X12591714Y-17064500D01*
X12591714Y-17007357D01*
X12606000Y-16935929D01*
X12620286Y-16893072D01*
X12634571Y-16864500D01*
X12663143Y-16821643D01*
X12677428Y-16807357D01*
X12777428Y-16878786D02*
X12791714Y-16864500D01*
X12820286Y-16850214D01*
X12891714Y-16850214D01*
X12920286Y-16864500D01*
X12934571Y-16878786D01*
X12948857Y-16907357D01*
X12948857Y-16935929D01*
X12934571Y-16978786D01*
X12763143Y-17150214D01*
X12948857Y-17150214D01*
X13306000Y-17150214D02*
X13306000Y-16850214D01*
X13434571Y-17150214D02*
X13434571Y-16993072D01*
X13420286Y-16964500D01*
X13391714Y-16950214D01*
X13348857Y-16950214D01*
X13320286Y-16964500D01*
X13306000Y-16978786D01*
X13620286Y-17150214D02*
X13591714Y-17135929D01*
X13577428Y-17121643D01*
X13563143Y-17093072D01*
X13563143Y-17007357D01*
X13577428Y-16978786D01*
X13591714Y-16964500D01*
X13620286Y-16950214D01*
X13663143Y-16950214D01*
X13691714Y-16964500D01*
X13706000Y-16978786D01*
X13720286Y-17007357D01*
X13720286Y-17093072D01*
X13706000Y-17121643D01*
X13691714Y-17135929D01*
X13663143Y-17150214D01*
X13620286Y-17150214D01*
X13891714Y-17150214D02*
X13863143Y-17135929D01*
X13848857Y-17107357D01*
X13848857Y-16850214D01*
X14120286Y-17135929D02*
X14091714Y-17150214D01*
X14034571Y-17150214D01*
X14006000Y-17135929D01*
X13991714Y-17107357D01*
X13991714Y-16993072D01*
X14006000Y-16964500D01*
X14034571Y-16950214D01*
X14091714Y-16950214D01*
X14120286Y-16964500D01*
X14134571Y-16993072D01*
X14134571Y-17021643D01*
X13991714Y-17050214D01*
X14248857Y-17135929D02*
X14277428Y-17150214D01*
X14334571Y-17150214D01*
X14363143Y-17135929D01*
X14377428Y-17107357D01*
X14377428Y-17093072D01*
X14363143Y-17064500D01*
X14334571Y-17050214D01*
X14291714Y-17050214D01*
X14263143Y-17035929D01*
X14248857Y-17007357D01*
X14248857Y-16993072D01*
X14263143Y-16964500D01*
X14291714Y-16950214D01*
X14334571Y-16950214D01*
X14363143Y-16964500D01*
X14477428Y-17264500D02*
X14491714Y-17250214D01*
X14520286Y-17207357D01*
X14534571Y-17178786D01*
X14548857Y-17135929D01*
X14563143Y-17064500D01*
X14563143Y-17007357D01*
X14548857Y-16935929D01*
X14534571Y-16893072D01*
X14520286Y-16864500D01*
X14491714Y-16821643D01*
X14477428Y-16807357D01*
M02*
