%FSLAX45Y45*%
G04 Gerber Fmt 4.5, Leading zero omitted, Abs format (unit mm)*
G04 Created by KiCad (PCBNEW 5.0.0+dfsg1-2~bpo9+1) date Sat Sep 29 22:12:24 2018*
%MOMM*%
%LPD*%
G01*
G04 APERTURE LIST*
%ADD10C,0.150000*%
%ADD11C,0.200000*%
%ADD12C,0.300000*%
G04 APERTURE END LIST*
D10*
X20955000Y-14859000D02*
X22352000Y-13462000D01*
X16510000Y-14859000D02*
X14859000Y-13208000D01*
X10922000Y-7366000D02*
X11684000Y-6604000D01*
X9525000Y-7366000D02*
X10922000Y-7366000D01*
X9017000Y-12319000D02*
X9017000Y-13208000D01*
X8001000Y-11303000D02*
X9017000Y-12319000D01*
X9525000Y-7747000D02*
X9525000Y-7366000D01*
X8001000Y-9271000D02*
X9525000Y-7747000D01*
X9017000Y-13208000D02*
X14859000Y-13208000D01*
X20955000Y-14859000D02*
X16510000Y-14859000D01*
D11*
X20447000Y-6731000D02*
X22352000Y-6731000D01*
X20447000Y-5715000D02*
X20447000Y-6731000D01*
X17272000Y-5715000D02*
X20447000Y-5715000D01*
X17272000Y-6604000D02*
X17272000Y-5715000D01*
X11684000Y-6604000D02*
X17272000Y-6604000D01*
X8001000Y-11303000D02*
X8001000Y-9271000D01*
X22352000Y-6731000D02*
X22352000Y-13462000D01*
D11*
X17489000Y-6036000D02*
X17609000Y-6156000D01*
X17609000Y-6036000D02*
X17489000Y-6156000D01*
X17489000Y-6211000D02*
X17609000Y-6331000D01*
X17609000Y-6211000D02*
X17489000Y-6331000D01*
X18189000Y-6036000D02*
X18309000Y-6156000D01*
X18309000Y-6036000D02*
X18189000Y-6156000D01*
X18189000Y-6211000D02*
X18309000Y-6331000D01*
X18309000Y-6211000D02*
X18189000Y-6331000D01*
X14314000Y-7620000D02*
G75*
G03X14314000Y-7620000I-90000J0D01*
G01*
X15330000Y-7620000D02*
G75*
G03X15330000Y-7620000I-90000J0D01*
G01*
X17108000Y-13843000D02*
G75*
G03X17108000Y-13843000I-90000J0D01*
G01*
X18124000Y-13843000D02*
G75*
G03X18124000Y-13843000I-90000J0D01*
G01*
X9615000Y-12192000D02*
G75*
G03X9615000Y-12192000I-90000J0D01*
G01*
X10631000Y-12192000D02*
G75*
G03X10631000Y-12192000I-90000J0D01*
G01*
X14314000Y-11430000D02*
G75*
G03X14314000Y-11430000I-90000J0D01*
G01*
X15330000Y-11430000D02*
G75*
G03X15330000Y-11430000I-90000J0D01*
G01*
X12409000Y-9779000D02*
G75*
G03X12409000Y-9779000I-90000J0D01*
G01*
X13425000Y-9779000D02*
G75*
G03X13425000Y-9779000I-90000J0D01*
G01*
X14314000Y-9525000D02*
G75*
G03X14314000Y-9525000I-90000J0D01*
G01*
X15330000Y-9525000D02*
G75*
G03X15330000Y-9525000I-90000J0D01*
G01*
X18124000Y-8001000D02*
G75*
G03X18124000Y-8001000I-90000J0D01*
G01*
X19140000Y-8001000D02*
G75*
G03X19140000Y-8001000I-90000J0D01*
G01*
X10504000Y-10287000D02*
G75*
G03X10504000Y-10287000I-90000J0D01*
G01*
X11520000Y-10287000D02*
G75*
G03X11520000Y-10287000I-90000J0D01*
G01*
X16600000Y-9906000D02*
G75*
G03X16600000Y-9906000I-90000J0D01*
G01*
X17616000Y-9906000D02*
G75*
G03X17616000Y-9906000I-90000J0D01*
G01*
X16219000Y-8001000D02*
G75*
G03X16219000Y-8001000I-90000J0D01*
G01*
X17235000Y-8001000D02*
G75*
G03X17235000Y-8001000I-90000J0D01*
G01*
X12282000Y-7874000D02*
G75*
G03X12282000Y-7874000I-90000J0D01*
G01*
X13298000Y-7874000D02*
G75*
G03X13298000Y-7874000I-90000J0D01*
G01*
X8599000Y-10287000D02*
G75*
G03X8599000Y-10287000I-90000J0D01*
G01*
X9615000Y-10287000D02*
G75*
G03X9615000Y-10287000I-90000J0D01*
G01*
X10123000Y-8382000D02*
G75*
G03X10123000Y-8382000I-90000J0D01*
G01*
X11139000Y-8382000D02*
G75*
G03X11139000Y-8382000I-90000J0D01*
G01*
X18505000Y-9906000D02*
G75*
G03X18505000Y-9906000I-90000J0D01*
G01*
X19521000Y-9906000D02*
G75*
G03X19521000Y-9906000I-90000J0D01*
G01*
X19521000Y-13843000D02*
G75*
G03X19521000Y-13843000I-90000J0D01*
G01*
X20537000Y-13843000D02*
G75*
G03X20537000Y-13843000I-90000J0D01*
G01*
X20828000Y-10431000D02*
X20828000Y-10651000D01*
X20718000Y-10541000D02*
X20938000Y-10541000D01*
X20828000Y-10939000D02*
X20828000Y-11159000D01*
X20718000Y-11049000D02*
X20938000Y-11049000D01*
X10266067Y-8742067D02*
X10266067Y-8529933D01*
X10053933Y-8529933D01*
X10053933Y-8742067D01*
X10266067Y-8742067D01*
X10393067Y-8996067D02*
X10393067Y-8783933D01*
X10180933Y-8783933D01*
X10180933Y-8996067D01*
X10393067Y-8996067D01*
X10901067Y-8996067D02*
X10901067Y-8783933D01*
X10688933Y-8783933D01*
X10688933Y-8996067D01*
X10901067Y-8996067D01*
X11028067Y-8742067D02*
X11028067Y-8529933D01*
X10815933Y-8529933D01*
X10815933Y-8742067D01*
X11028067Y-8742067D01*
X18648067Y-10266067D02*
X18648067Y-10053933D01*
X18435933Y-10053933D01*
X18435933Y-10266067D01*
X18648067Y-10266067D01*
X18775067Y-10520067D02*
X18775067Y-10307933D01*
X18562933Y-10307933D01*
X18562933Y-10520067D01*
X18775067Y-10520067D01*
X19283067Y-10520067D02*
X19283067Y-10307933D01*
X19070933Y-10307933D01*
X19070933Y-10520067D01*
X19283067Y-10520067D01*
X19410067Y-10266067D02*
X19410067Y-10053933D01*
X19197933Y-10053933D01*
X19197933Y-10266067D01*
X19410067Y-10266067D01*
X19664067Y-14203067D02*
X19664067Y-13990933D01*
X19451933Y-13990933D01*
X19451933Y-14203067D01*
X19664067Y-14203067D01*
X19791067Y-14457067D02*
X19791067Y-14244933D01*
X19578933Y-14244933D01*
X19578933Y-14457067D01*
X19791067Y-14457067D01*
X20299067Y-14457067D02*
X20299067Y-14244933D01*
X20086933Y-14244933D01*
X20086933Y-14457067D01*
X20299067Y-14457067D01*
X20426067Y-14203067D02*
X20426067Y-13990933D01*
X20213933Y-13990933D01*
X20213933Y-14203067D01*
X20426067Y-14203067D01*
X14457067Y-7980067D02*
X14457067Y-7767933D01*
X14244933Y-7767933D01*
X14244933Y-7980067D01*
X14457067Y-7980067D01*
X14584067Y-8234067D02*
X14584067Y-8021933D01*
X14371933Y-8021933D01*
X14371933Y-8234067D01*
X14584067Y-8234067D01*
X15092067Y-8234067D02*
X15092067Y-8021933D01*
X14879933Y-8021933D01*
X14879933Y-8234067D01*
X15092067Y-8234067D01*
X15219067Y-7980067D02*
X15219067Y-7767933D01*
X15006933Y-7767933D01*
X15006933Y-7980067D01*
X15219067Y-7980067D01*
X17251067Y-14203067D02*
X17251067Y-13990933D01*
X17038933Y-13990933D01*
X17038933Y-14203067D01*
X17251067Y-14203067D01*
X17378067Y-14457067D02*
X17378067Y-14244933D01*
X17165933Y-14244933D01*
X17165933Y-14457067D01*
X17378067Y-14457067D01*
X17886067Y-14457067D02*
X17886067Y-14244933D01*
X17673933Y-14244933D01*
X17673933Y-14457067D01*
X17886067Y-14457067D01*
X18013067Y-14203067D02*
X18013067Y-13990933D01*
X17800933Y-13990933D01*
X17800933Y-14203067D01*
X18013067Y-14203067D01*
X9758067Y-12552067D02*
X9758067Y-12339933D01*
X9545933Y-12339933D01*
X9545933Y-12552067D01*
X9758067Y-12552067D01*
X9885067Y-12806067D02*
X9885067Y-12593933D01*
X9672933Y-12593933D01*
X9672933Y-12806067D01*
X9885067Y-12806067D01*
X10393067Y-12806067D02*
X10393067Y-12593933D01*
X10180933Y-12593933D01*
X10180933Y-12806067D01*
X10393067Y-12806067D01*
X10520067Y-12552067D02*
X10520067Y-12339933D01*
X10307933Y-12339933D01*
X10307933Y-12552067D01*
X10520067Y-12552067D01*
X14457067Y-11790067D02*
X14457067Y-11577933D01*
X14244933Y-11577933D01*
X14244933Y-11790067D01*
X14457067Y-11790067D01*
X14584067Y-12044067D02*
X14584067Y-11831933D01*
X14371933Y-11831933D01*
X14371933Y-12044067D01*
X14584067Y-12044067D01*
X15092067Y-12044067D02*
X15092067Y-11831933D01*
X14879933Y-11831933D01*
X14879933Y-12044067D01*
X15092067Y-12044067D01*
X15219067Y-11790067D02*
X15219067Y-11577933D01*
X15006933Y-11577933D01*
X15006933Y-11790067D01*
X15219067Y-11790067D01*
X12552067Y-10139067D02*
X12552067Y-9926933D01*
X12339933Y-9926933D01*
X12339933Y-10139067D01*
X12552067Y-10139067D01*
X12679067Y-10393067D02*
X12679067Y-10180933D01*
X12466933Y-10180933D01*
X12466933Y-10393067D01*
X12679067Y-10393067D01*
X13187067Y-10393067D02*
X13187067Y-10180933D01*
X12974933Y-10180933D01*
X12974933Y-10393067D01*
X13187067Y-10393067D01*
X13314067Y-10139067D02*
X13314067Y-9926933D01*
X13101933Y-9926933D01*
X13101933Y-10139067D01*
X13314067Y-10139067D01*
X14457067Y-9885067D02*
X14457067Y-9672933D01*
X14244933Y-9672933D01*
X14244933Y-9885067D01*
X14457067Y-9885067D01*
X14584067Y-10139067D02*
X14584067Y-9926933D01*
X14371933Y-9926933D01*
X14371933Y-10139067D01*
X14584067Y-10139067D01*
X15092067Y-10139067D02*
X15092067Y-9926933D01*
X14879933Y-9926933D01*
X14879933Y-10139067D01*
X15092067Y-10139067D01*
X15219067Y-9885067D02*
X15219067Y-9672933D01*
X15006933Y-9672933D01*
X15006933Y-9885067D01*
X15219067Y-9885067D01*
X18267067Y-8361067D02*
X18267067Y-8148933D01*
X18054933Y-8148933D01*
X18054933Y-8361067D01*
X18267067Y-8361067D01*
X18394067Y-8615067D02*
X18394067Y-8402933D01*
X18181933Y-8402933D01*
X18181933Y-8615067D01*
X18394067Y-8615067D01*
X18902067Y-8615067D02*
X18902067Y-8402933D01*
X18689933Y-8402933D01*
X18689933Y-8615067D01*
X18902067Y-8615067D01*
X19029067Y-8361067D02*
X19029067Y-8148933D01*
X18816933Y-8148933D01*
X18816933Y-8361067D01*
X19029067Y-8361067D01*
X10647067Y-10647067D02*
X10647067Y-10434933D01*
X10434933Y-10434933D01*
X10434933Y-10647067D01*
X10647067Y-10647067D01*
X10774067Y-10901067D02*
X10774067Y-10688933D01*
X10561933Y-10688933D01*
X10561933Y-10901067D01*
X10774067Y-10901067D01*
X11282067Y-10901067D02*
X11282067Y-10688933D01*
X11069933Y-10688933D01*
X11069933Y-10901067D01*
X11282067Y-10901067D01*
X11409067Y-10647067D02*
X11409067Y-10434933D01*
X11196933Y-10434933D01*
X11196933Y-10647067D01*
X11409067Y-10647067D01*
X16743067Y-10266067D02*
X16743067Y-10053933D01*
X16530933Y-10053933D01*
X16530933Y-10266067D01*
X16743067Y-10266067D01*
X16870067Y-10520067D02*
X16870067Y-10307933D01*
X16657933Y-10307933D01*
X16657933Y-10520067D01*
X16870067Y-10520067D01*
X17378067Y-10520067D02*
X17378067Y-10307933D01*
X17165933Y-10307933D01*
X17165933Y-10520067D01*
X17378067Y-10520067D01*
X17505067Y-10266067D02*
X17505067Y-10053933D01*
X17292933Y-10053933D01*
X17292933Y-10266067D01*
X17505067Y-10266067D01*
X16362067Y-8361067D02*
X16362067Y-8148933D01*
X16149933Y-8148933D01*
X16149933Y-8361067D01*
X16362067Y-8361067D01*
X16489067Y-8615067D02*
X16489067Y-8402933D01*
X16276933Y-8402933D01*
X16276933Y-8615067D01*
X16489067Y-8615067D01*
X16997067Y-8615067D02*
X16997067Y-8402933D01*
X16784933Y-8402933D01*
X16784933Y-8615067D01*
X16997067Y-8615067D01*
X17124067Y-8361067D02*
X17124067Y-8148933D01*
X16911933Y-8148933D01*
X16911933Y-8361067D01*
X17124067Y-8361067D01*
X12425067Y-8234067D02*
X12425067Y-8021933D01*
X12212933Y-8021933D01*
X12212933Y-8234067D01*
X12425067Y-8234067D01*
X12552067Y-8488067D02*
X12552067Y-8275933D01*
X12339933Y-8275933D01*
X12339933Y-8488067D01*
X12552067Y-8488067D01*
X13060067Y-8488067D02*
X13060067Y-8275933D01*
X12847933Y-8275933D01*
X12847933Y-8488067D01*
X13060067Y-8488067D01*
X13187067Y-8234067D02*
X13187067Y-8021933D01*
X12974933Y-8021933D01*
X12974933Y-8234067D01*
X13187067Y-8234067D01*
X8742067Y-10647067D02*
X8742067Y-10434933D01*
X8529933Y-10434933D01*
X8529933Y-10647067D01*
X8742067Y-10647067D01*
X8869067Y-10901067D02*
X8869067Y-10688933D01*
X8656933Y-10688933D01*
X8656933Y-10901067D01*
X8869067Y-10901067D01*
X9377067Y-10901067D02*
X9377067Y-10688933D01*
X9164933Y-10688933D01*
X9164933Y-10901067D01*
X9377067Y-10901067D01*
X9504067Y-10647067D02*
X9504067Y-10434933D01*
X9291933Y-10434933D01*
X9291933Y-10647067D01*
X9504067Y-10647067D01*
X10541000Y-8582000D02*
X10741000Y-8382000D01*
X10541000Y-8182000D01*
X10341000Y-8382000D01*
X10541000Y-8582000D01*
X18923000Y-10106000D02*
X19123000Y-9906000D01*
X18923000Y-9706000D01*
X18723000Y-9906000D01*
X18923000Y-10106000D01*
X19939000Y-14043000D02*
X20139000Y-13843000D01*
X19939000Y-13643000D01*
X19739000Y-13843000D01*
X19939000Y-14043000D01*
X14732000Y-7820000D02*
X14932000Y-7620000D01*
X14732000Y-7420000D01*
X14532000Y-7620000D01*
X14732000Y-7820000D01*
X17526000Y-14043000D02*
X17726000Y-13843000D01*
X17526000Y-13643000D01*
X17326000Y-13843000D01*
X17526000Y-14043000D01*
X10033000Y-12392000D02*
X10233000Y-12192000D01*
X10033000Y-11992000D01*
X9833000Y-12192000D01*
X10033000Y-12392000D01*
X14732000Y-11630000D02*
X14932000Y-11430000D01*
X14732000Y-11230000D01*
X14532000Y-11430000D01*
X14732000Y-11630000D01*
X12827000Y-9979000D02*
X13027000Y-9779000D01*
X12827000Y-9579000D01*
X12627000Y-9779000D01*
X12827000Y-9979000D01*
X14732000Y-9725000D02*
X14932000Y-9525000D01*
X14732000Y-9325000D01*
X14532000Y-9525000D01*
X14732000Y-9725000D01*
X18542000Y-8201000D02*
X18742000Y-8001000D01*
X18542000Y-7801000D01*
X18342000Y-8001000D01*
X18542000Y-8201000D01*
X10922000Y-10487000D02*
X11122000Y-10287000D01*
X10922000Y-10087000D01*
X10722000Y-10287000D01*
X10922000Y-10487000D01*
X17018000Y-10106000D02*
X17218000Y-9906000D01*
X17018000Y-9706000D01*
X16818000Y-9906000D01*
X17018000Y-10106000D01*
X16637000Y-8201000D02*
X16837000Y-8001000D01*
X16637000Y-7801000D01*
X16437000Y-8001000D01*
X16637000Y-8201000D01*
X12700000Y-8074000D02*
X12900000Y-7874000D01*
X12700000Y-7674000D01*
X12500000Y-7874000D01*
X12700000Y-8074000D01*
X9017000Y-10487000D02*
X9217000Y-10287000D01*
X9017000Y-10087000D01*
X8817000Y-10287000D01*
X9017000Y-10487000D01*
X21223000Y-13095000D02*
X21703000Y-13575000D01*
X21703000Y-13095000D02*
X21223000Y-13575000D01*
X21703000Y-13335000D02*
G75*
G03X21703000Y-13335000I-240000J0D01*
G01*
X9285000Y-8904000D02*
X9765000Y-9384000D01*
X9765000Y-8904000D02*
X9285000Y-9384000D01*
X9765000Y-9144000D02*
G75*
G03X9765000Y-9144000I-240000J0D01*
G01*
X11317000Y-12460000D02*
X11797000Y-12940000D01*
X11797000Y-12460000D02*
X11317000Y-12940000D01*
X11797000Y-12700000D02*
G75*
G03X11797000Y-12700000I-240000J0D01*
G01*
X15762000Y-10682000D02*
X16242000Y-11162000D01*
X16242000Y-10682000D02*
X15762000Y-11162000D01*
X16242000Y-10922000D02*
G75*
G03X16242000Y-10922000I-240000J0D01*
G01*
X17286000Y-6872000D02*
X17766000Y-7352000D01*
X17766000Y-6872000D02*
X17286000Y-7352000D01*
X17766000Y-7112000D02*
G75*
G03X17766000Y-7112000I-240000J0D01*
G01*
D12*
X8277428Y-15332214D02*
X8277428Y-15032214D01*
X8348857Y-15032214D01*
X8391714Y-15046500D01*
X8420286Y-15075071D01*
X8434571Y-15103643D01*
X8448857Y-15160786D01*
X8448857Y-15203643D01*
X8434571Y-15260786D01*
X8420286Y-15289357D01*
X8391714Y-15317929D01*
X8348857Y-15332214D01*
X8277428Y-15332214D01*
X8577428Y-15332214D02*
X8577428Y-15132214D01*
X8577428Y-15189357D02*
X8591714Y-15160786D01*
X8606000Y-15146500D01*
X8634571Y-15132214D01*
X8663143Y-15132214D01*
X8763143Y-15332214D02*
X8763143Y-15132214D01*
X8763143Y-15032214D02*
X8748857Y-15046500D01*
X8763143Y-15060786D01*
X8777428Y-15046500D01*
X8763143Y-15032214D01*
X8763143Y-15060786D01*
X8948857Y-15332214D02*
X8920286Y-15317929D01*
X8906000Y-15289357D01*
X8906000Y-15032214D01*
X9106000Y-15332214D02*
X9077428Y-15317929D01*
X9063143Y-15289357D01*
X9063143Y-15032214D01*
X9448857Y-15332214D02*
X9448857Y-15032214D01*
X9548857Y-15246500D01*
X9648857Y-15032214D01*
X9648857Y-15332214D01*
X9920286Y-15332214D02*
X9920286Y-15175071D01*
X9906000Y-15146500D01*
X9877428Y-15132214D01*
X9820286Y-15132214D01*
X9791714Y-15146500D01*
X9920286Y-15317929D02*
X9891714Y-15332214D01*
X9820286Y-15332214D01*
X9791714Y-15317929D01*
X9777428Y-15289357D01*
X9777428Y-15260786D01*
X9791714Y-15232214D01*
X9820286Y-15217929D01*
X9891714Y-15217929D01*
X9920286Y-15203643D01*
X10063143Y-15132214D02*
X10063143Y-15432214D01*
X10063143Y-15146500D02*
X10091714Y-15132214D01*
X10148857Y-15132214D01*
X10177428Y-15146500D01*
X10191714Y-15160786D01*
X10206000Y-15189357D01*
X10206000Y-15275071D01*
X10191714Y-15303643D01*
X10177428Y-15317929D01*
X10148857Y-15332214D01*
X10091714Y-15332214D01*
X10063143Y-15317929D01*
X10334571Y-15303643D02*
X10348857Y-15317929D01*
X10334571Y-15332214D01*
X10320286Y-15317929D01*
X10334571Y-15303643D01*
X10334571Y-15332214D01*
X10334571Y-15146500D02*
X10348857Y-15160786D01*
X10334571Y-15175071D01*
X10320286Y-15160786D01*
X10334571Y-15146500D01*
X10334571Y-15175071D01*
X7871000Y-15766500D02*
X7991000Y-15886500D01*
X7991000Y-15766500D02*
X7871000Y-15886500D01*
X8434571Y-15962214D02*
X8263143Y-15962214D01*
X8348857Y-15962214D02*
X8348857Y-15662214D01*
X8320286Y-15705071D01*
X8291714Y-15733643D01*
X8263143Y-15747929D01*
X8563143Y-15933643D02*
X8577428Y-15947929D01*
X8563143Y-15962214D01*
X8548857Y-15947929D01*
X8563143Y-15933643D01*
X8563143Y-15962214D01*
X8691714Y-15690786D02*
X8706000Y-15676500D01*
X8734571Y-15662214D01*
X8806000Y-15662214D01*
X8834571Y-15676500D01*
X8848857Y-15690786D01*
X8863143Y-15719357D01*
X8863143Y-15747929D01*
X8848857Y-15790786D01*
X8677428Y-15962214D01*
X8863143Y-15962214D01*
X9048857Y-15662214D02*
X9077428Y-15662214D01*
X9106000Y-15676500D01*
X9120286Y-15690786D01*
X9134571Y-15719357D01*
X9148857Y-15776500D01*
X9148857Y-15847929D01*
X9134571Y-15905071D01*
X9120286Y-15933643D01*
X9106000Y-15947929D01*
X9077428Y-15962214D01*
X9048857Y-15962214D01*
X9020286Y-15947929D01*
X9006000Y-15933643D01*
X8991714Y-15905071D01*
X8977428Y-15847929D01*
X8977428Y-15776500D01*
X8991714Y-15719357D01*
X9006000Y-15690786D01*
X9020286Y-15676500D01*
X9048857Y-15662214D01*
X9277428Y-15962214D02*
X9277428Y-15762214D01*
X9277428Y-15790786D02*
X9291714Y-15776500D01*
X9320286Y-15762214D01*
X9363143Y-15762214D01*
X9391714Y-15776500D01*
X9406000Y-15805071D01*
X9406000Y-15962214D01*
X9406000Y-15805071D02*
X9420286Y-15776500D01*
X9448857Y-15762214D01*
X9491714Y-15762214D01*
X9520286Y-15776500D01*
X9534571Y-15805071D01*
X9534571Y-15962214D01*
X9677428Y-15962214D02*
X9677428Y-15762214D01*
X9677428Y-15790786D02*
X9691714Y-15776500D01*
X9720286Y-15762214D01*
X9763143Y-15762214D01*
X9791714Y-15776500D01*
X9806000Y-15805071D01*
X9806000Y-15962214D01*
X9806000Y-15805071D02*
X9820286Y-15776500D01*
X9848857Y-15762214D01*
X9891714Y-15762214D01*
X9920286Y-15776500D01*
X9934571Y-15805071D01*
X9934571Y-15962214D01*
X10520286Y-15647929D02*
X10263143Y-16033643D01*
X10906000Y-15662214D02*
X10934571Y-15662214D01*
X10963143Y-15676500D01*
X10977428Y-15690786D01*
X10991714Y-15719357D01*
X11006000Y-15776500D01*
X11006000Y-15847929D01*
X10991714Y-15905071D01*
X10977428Y-15933643D01*
X10963143Y-15947929D01*
X10934571Y-15962214D01*
X10906000Y-15962214D01*
X10877428Y-15947929D01*
X10863143Y-15933643D01*
X10848857Y-15905071D01*
X10834571Y-15847929D01*
X10834571Y-15776500D01*
X10848857Y-15719357D01*
X10863143Y-15690786D01*
X10877428Y-15676500D01*
X10906000Y-15662214D01*
X11134571Y-15933643D02*
X11148857Y-15947929D01*
X11134571Y-15962214D01*
X11120286Y-15947929D01*
X11134571Y-15933643D01*
X11134571Y-15962214D01*
X11334571Y-15662214D02*
X11363143Y-15662214D01*
X11391714Y-15676500D01*
X11406000Y-15690786D01*
X11420286Y-15719357D01*
X11434571Y-15776500D01*
X11434571Y-15847929D01*
X11420286Y-15905071D01*
X11406000Y-15933643D01*
X11391714Y-15947929D01*
X11363143Y-15962214D01*
X11334571Y-15962214D01*
X11306000Y-15947929D01*
X11291714Y-15933643D01*
X11277428Y-15905071D01*
X11263143Y-15847929D01*
X11263143Y-15776500D01*
X11277428Y-15719357D01*
X11291714Y-15690786D01*
X11306000Y-15676500D01*
X11334571Y-15662214D01*
X11691714Y-15762214D02*
X11691714Y-15962214D01*
X11620286Y-15647929D02*
X11548857Y-15862214D01*
X11734571Y-15862214D01*
X11820286Y-15662214D02*
X12020286Y-15662214D01*
X11891714Y-15962214D01*
X12120286Y-15662214D02*
X12120286Y-15719357D01*
X12234571Y-15662214D02*
X12234571Y-15719357D01*
X12677428Y-16076500D02*
X12663143Y-16062214D01*
X12634571Y-16019357D01*
X12620286Y-15990786D01*
X12606000Y-15947929D01*
X12591714Y-15876500D01*
X12591714Y-15819357D01*
X12606000Y-15747929D01*
X12620286Y-15705071D01*
X12634571Y-15676500D01*
X12663143Y-15633643D01*
X12677428Y-15619357D01*
X12920286Y-15762214D02*
X12920286Y-15962214D01*
X12848857Y-15647929D02*
X12777428Y-15862214D01*
X12963143Y-15862214D01*
X13306000Y-15962214D02*
X13306000Y-15662214D01*
X13434571Y-15962214D02*
X13434571Y-15805071D01*
X13420286Y-15776500D01*
X13391714Y-15762214D01*
X13348857Y-15762214D01*
X13320286Y-15776500D01*
X13306000Y-15790786D01*
X13620286Y-15962214D02*
X13591714Y-15947929D01*
X13577428Y-15933643D01*
X13563143Y-15905071D01*
X13563143Y-15819357D01*
X13577428Y-15790786D01*
X13591714Y-15776500D01*
X13620286Y-15762214D01*
X13663143Y-15762214D01*
X13691714Y-15776500D01*
X13706000Y-15790786D01*
X13720286Y-15819357D01*
X13720286Y-15905071D01*
X13706000Y-15933643D01*
X13691714Y-15947929D01*
X13663143Y-15962214D01*
X13620286Y-15962214D01*
X13891714Y-15962214D02*
X13863143Y-15947929D01*
X13848857Y-15919357D01*
X13848857Y-15662214D01*
X14120286Y-15947929D02*
X14091714Y-15962214D01*
X14034571Y-15962214D01*
X14006000Y-15947929D01*
X13991714Y-15919357D01*
X13991714Y-15805071D01*
X14006000Y-15776500D01*
X14034571Y-15762214D01*
X14091714Y-15762214D01*
X14120286Y-15776500D01*
X14134571Y-15805071D01*
X14134571Y-15833643D01*
X13991714Y-15862214D01*
X14248857Y-15947929D02*
X14277428Y-15962214D01*
X14334571Y-15962214D01*
X14363143Y-15947929D01*
X14377428Y-15919357D01*
X14377428Y-15905071D01*
X14363143Y-15876500D01*
X14334571Y-15862214D01*
X14291714Y-15862214D01*
X14263143Y-15847929D01*
X14248857Y-15819357D01*
X14248857Y-15805071D01*
X14263143Y-15776500D01*
X14291714Y-15762214D01*
X14334571Y-15762214D01*
X14363143Y-15776500D01*
X14477428Y-16076500D02*
X14491714Y-16062214D01*
X14520286Y-16019357D01*
X14534571Y-15990786D01*
X14548857Y-15947929D01*
X14563143Y-15876500D01*
X14563143Y-15819357D01*
X14548857Y-15747929D01*
X14534571Y-15705071D01*
X14520286Y-15676500D01*
X14491714Y-15633643D01*
X14477428Y-15619357D01*
X15020286Y-16076500D02*
X15006000Y-16062214D01*
X14977428Y-16019357D01*
X14963143Y-15990786D01*
X14948857Y-15947929D01*
X14934571Y-15876500D01*
X14934571Y-15819357D01*
X14948857Y-15747929D01*
X14963143Y-15705071D01*
X14977428Y-15676500D01*
X15006000Y-15633643D01*
X15020286Y-15619357D01*
X15134571Y-15762214D02*
X15134571Y-15962214D01*
X15134571Y-15790786D02*
X15148857Y-15776500D01*
X15177428Y-15762214D01*
X15220286Y-15762214D01*
X15248857Y-15776500D01*
X15263143Y-15805071D01*
X15263143Y-15962214D01*
X15448857Y-15962214D02*
X15420286Y-15947929D01*
X15406000Y-15933643D01*
X15391714Y-15905071D01*
X15391714Y-15819357D01*
X15406000Y-15790786D01*
X15420286Y-15776500D01*
X15448857Y-15762214D01*
X15491714Y-15762214D01*
X15520286Y-15776500D01*
X15534571Y-15790786D01*
X15548857Y-15819357D01*
X15548857Y-15905071D01*
X15534571Y-15933643D01*
X15520286Y-15947929D01*
X15491714Y-15962214D01*
X15448857Y-15962214D01*
X15634571Y-15762214D02*
X15748857Y-15762214D01*
X15677428Y-15662214D02*
X15677428Y-15919357D01*
X15691714Y-15947929D01*
X15720286Y-15962214D01*
X15748857Y-15962214D01*
X16077428Y-15762214D02*
X16077428Y-16062214D01*
X16077428Y-15776500D02*
X16106000Y-15762214D01*
X16163143Y-15762214D01*
X16191714Y-15776500D01*
X16206000Y-15790786D01*
X16220286Y-15819357D01*
X16220286Y-15905071D01*
X16206000Y-15933643D01*
X16191714Y-15947929D01*
X16163143Y-15962214D01*
X16106000Y-15962214D01*
X16077428Y-15947929D01*
X16391714Y-15962214D02*
X16363143Y-15947929D01*
X16348857Y-15919357D01*
X16348857Y-15662214D01*
X16634571Y-15962214D02*
X16634571Y-15805071D01*
X16620286Y-15776500D01*
X16591714Y-15762214D01*
X16534571Y-15762214D01*
X16506000Y-15776500D01*
X16634571Y-15947929D02*
X16606000Y-15962214D01*
X16534571Y-15962214D01*
X16506000Y-15947929D01*
X16491714Y-15919357D01*
X16491714Y-15890786D01*
X16506000Y-15862214D01*
X16534571Y-15847929D01*
X16606000Y-15847929D01*
X16634571Y-15833643D01*
X16734571Y-15762214D02*
X16848857Y-15762214D01*
X16777428Y-15662214D02*
X16777428Y-15919357D01*
X16791714Y-15947929D01*
X16820286Y-15962214D01*
X16848857Y-15962214D01*
X17063143Y-15947929D02*
X17034571Y-15962214D01*
X16977428Y-15962214D01*
X16948857Y-15947929D01*
X16934571Y-15919357D01*
X16934571Y-15805071D01*
X16948857Y-15776500D01*
X16977428Y-15762214D01*
X17034571Y-15762214D01*
X17063143Y-15776500D01*
X17077428Y-15805071D01*
X17077428Y-15833643D01*
X16934571Y-15862214D01*
X17334571Y-15962214D02*
X17334571Y-15662214D01*
X17334571Y-15947929D02*
X17306000Y-15962214D01*
X17248857Y-15962214D01*
X17220286Y-15947929D01*
X17206000Y-15933643D01*
X17191714Y-15905071D01*
X17191714Y-15819357D01*
X17206000Y-15790786D01*
X17220286Y-15776500D01*
X17248857Y-15762214D01*
X17306000Y-15762214D01*
X17334571Y-15776500D01*
X17448857Y-16076500D02*
X17463143Y-16062214D01*
X17491714Y-16019357D01*
X17506000Y-15990786D01*
X17520286Y-15947929D01*
X17534571Y-15876500D01*
X17534571Y-15819357D01*
X17520286Y-15747929D01*
X17506000Y-15705071D01*
X17491714Y-15676500D01*
X17463143Y-15633643D01*
X17448857Y-15619357D01*
X7991000Y-16222500D02*
G75*
G03X7991000Y-16222500I-90000J0D01*
G01*
X8434571Y-16358214D02*
X8263143Y-16358214D01*
X8348857Y-16358214D02*
X8348857Y-16058214D01*
X8320286Y-16101071D01*
X8291714Y-16129643D01*
X8263143Y-16143929D01*
X8563143Y-16329643D02*
X8577428Y-16343929D01*
X8563143Y-16358214D01*
X8548857Y-16343929D01*
X8563143Y-16329643D01*
X8563143Y-16358214D01*
X8748857Y-16186786D02*
X8720286Y-16172500D01*
X8706000Y-16158214D01*
X8691714Y-16129643D01*
X8691714Y-16115357D01*
X8706000Y-16086786D01*
X8720286Y-16072500D01*
X8748857Y-16058214D01*
X8806000Y-16058214D01*
X8834571Y-16072500D01*
X8848857Y-16086786D01*
X8863143Y-16115357D01*
X8863143Y-16129643D01*
X8848857Y-16158214D01*
X8834571Y-16172500D01*
X8806000Y-16186786D01*
X8748857Y-16186786D01*
X8720286Y-16201071D01*
X8706000Y-16215357D01*
X8691714Y-16243929D01*
X8691714Y-16301071D01*
X8706000Y-16329643D01*
X8720286Y-16343929D01*
X8748857Y-16358214D01*
X8806000Y-16358214D01*
X8834571Y-16343929D01*
X8848857Y-16329643D01*
X8863143Y-16301071D01*
X8863143Y-16243929D01*
X8848857Y-16215357D01*
X8834571Y-16201071D01*
X8806000Y-16186786D01*
X9048857Y-16058214D02*
X9077428Y-16058214D01*
X9106000Y-16072500D01*
X9120286Y-16086786D01*
X9134571Y-16115357D01*
X9148857Y-16172500D01*
X9148857Y-16243929D01*
X9134571Y-16301071D01*
X9120286Y-16329643D01*
X9106000Y-16343929D01*
X9077428Y-16358214D01*
X9048857Y-16358214D01*
X9020286Y-16343929D01*
X9006000Y-16329643D01*
X8991714Y-16301071D01*
X8977428Y-16243929D01*
X8977428Y-16172500D01*
X8991714Y-16115357D01*
X9006000Y-16086786D01*
X9020286Y-16072500D01*
X9048857Y-16058214D01*
X9277428Y-16358214D02*
X9277428Y-16158214D01*
X9277428Y-16186786D02*
X9291714Y-16172500D01*
X9320286Y-16158214D01*
X9363143Y-16158214D01*
X9391714Y-16172500D01*
X9406000Y-16201071D01*
X9406000Y-16358214D01*
X9406000Y-16201071D02*
X9420286Y-16172500D01*
X9448857Y-16158214D01*
X9491714Y-16158214D01*
X9520286Y-16172500D01*
X9534571Y-16201071D01*
X9534571Y-16358214D01*
X9677428Y-16358214D02*
X9677428Y-16158214D01*
X9677428Y-16186786D02*
X9691714Y-16172500D01*
X9720286Y-16158214D01*
X9763143Y-16158214D01*
X9791714Y-16172500D01*
X9806000Y-16201071D01*
X9806000Y-16358214D01*
X9806000Y-16201071D02*
X9820286Y-16172500D01*
X9848857Y-16158214D01*
X9891714Y-16158214D01*
X9920286Y-16172500D01*
X9934571Y-16201071D01*
X9934571Y-16358214D01*
X10520286Y-16043929D02*
X10263143Y-16429643D01*
X10906000Y-16058214D02*
X10934571Y-16058214D01*
X10963143Y-16072500D01*
X10977428Y-16086786D01*
X10991714Y-16115357D01*
X11006000Y-16172500D01*
X11006000Y-16243929D01*
X10991714Y-16301071D01*
X10977428Y-16329643D01*
X10963143Y-16343929D01*
X10934571Y-16358214D01*
X10906000Y-16358214D01*
X10877428Y-16343929D01*
X10863143Y-16329643D01*
X10848857Y-16301071D01*
X10834571Y-16243929D01*
X10834571Y-16172500D01*
X10848857Y-16115357D01*
X10863143Y-16086786D01*
X10877428Y-16072500D01*
X10906000Y-16058214D01*
X11134571Y-16329643D02*
X11148857Y-16343929D01*
X11134571Y-16358214D01*
X11120286Y-16343929D01*
X11134571Y-16329643D01*
X11134571Y-16358214D01*
X11334571Y-16058214D02*
X11363143Y-16058214D01*
X11391714Y-16072500D01*
X11406000Y-16086786D01*
X11420286Y-16115357D01*
X11434571Y-16172500D01*
X11434571Y-16243929D01*
X11420286Y-16301071D01*
X11406000Y-16329643D01*
X11391714Y-16343929D01*
X11363143Y-16358214D01*
X11334571Y-16358214D01*
X11306000Y-16343929D01*
X11291714Y-16329643D01*
X11277428Y-16301071D01*
X11263143Y-16243929D01*
X11263143Y-16172500D01*
X11277428Y-16115357D01*
X11291714Y-16086786D01*
X11306000Y-16072500D01*
X11334571Y-16058214D01*
X11534571Y-16058214D02*
X11734571Y-16058214D01*
X11606000Y-16358214D01*
X12006000Y-16358214D02*
X11834571Y-16358214D01*
X11920286Y-16358214D02*
X11920286Y-16058214D01*
X11891714Y-16101071D01*
X11863143Y-16129643D01*
X11834571Y-16143929D01*
X12120286Y-16058214D02*
X12120286Y-16115357D01*
X12234571Y-16058214D02*
X12234571Y-16115357D01*
X12677428Y-16472500D02*
X12663143Y-16458214D01*
X12634571Y-16415357D01*
X12620286Y-16386786D01*
X12606000Y-16343929D01*
X12591714Y-16272500D01*
X12591714Y-16215357D01*
X12606000Y-16143929D01*
X12620286Y-16101071D01*
X12634571Y-16072500D01*
X12663143Y-16029643D01*
X12677428Y-16015357D01*
X12763143Y-16058214D02*
X12948857Y-16058214D01*
X12848857Y-16172500D01*
X12891714Y-16172500D01*
X12920286Y-16186786D01*
X12934571Y-16201071D01*
X12948857Y-16229643D01*
X12948857Y-16301071D01*
X12934571Y-16329643D01*
X12920286Y-16343929D01*
X12891714Y-16358214D01*
X12806000Y-16358214D01*
X12777428Y-16343929D01*
X12763143Y-16329643D01*
X13134571Y-16058214D02*
X13163143Y-16058214D01*
X13191714Y-16072500D01*
X13206000Y-16086786D01*
X13220286Y-16115357D01*
X13234571Y-16172500D01*
X13234571Y-16243929D01*
X13220286Y-16301071D01*
X13206000Y-16329643D01*
X13191714Y-16343929D01*
X13163143Y-16358214D01*
X13134571Y-16358214D01*
X13106000Y-16343929D01*
X13091714Y-16329643D01*
X13077428Y-16301071D01*
X13063143Y-16243929D01*
X13063143Y-16172500D01*
X13077428Y-16115357D01*
X13091714Y-16086786D01*
X13106000Y-16072500D01*
X13134571Y-16058214D01*
X13591714Y-16358214D02*
X13591714Y-16058214D01*
X13720286Y-16358214D02*
X13720286Y-16201071D01*
X13706000Y-16172500D01*
X13677428Y-16158214D01*
X13634571Y-16158214D01*
X13606000Y-16172500D01*
X13591714Y-16186786D01*
X13906000Y-16358214D02*
X13877428Y-16343929D01*
X13863143Y-16329643D01*
X13848857Y-16301071D01*
X13848857Y-16215357D01*
X13863143Y-16186786D01*
X13877428Y-16172500D01*
X13906000Y-16158214D01*
X13948857Y-16158214D01*
X13977428Y-16172500D01*
X13991714Y-16186786D01*
X14006000Y-16215357D01*
X14006000Y-16301071D01*
X13991714Y-16329643D01*
X13977428Y-16343929D01*
X13948857Y-16358214D01*
X13906000Y-16358214D01*
X14177428Y-16358214D02*
X14148857Y-16343929D01*
X14134571Y-16315357D01*
X14134571Y-16058214D01*
X14406000Y-16343929D02*
X14377428Y-16358214D01*
X14320286Y-16358214D01*
X14291714Y-16343929D01*
X14277428Y-16315357D01*
X14277428Y-16201071D01*
X14291714Y-16172500D01*
X14320286Y-16158214D01*
X14377428Y-16158214D01*
X14406000Y-16172500D01*
X14420286Y-16201071D01*
X14420286Y-16229643D01*
X14277428Y-16258214D01*
X14534571Y-16343929D02*
X14563143Y-16358214D01*
X14620286Y-16358214D01*
X14648857Y-16343929D01*
X14663143Y-16315357D01*
X14663143Y-16301071D01*
X14648857Y-16272500D01*
X14620286Y-16258214D01*
X14577428Y-16258214D01*
X14548857Y-16243929D01*
X14534571Y-16215357D01*
X14534571Y-16201071D01*
X14548857Y-16172500D01*
X14577428Y-16158214D01*
X14620286Y-16158214D01*
X14648857Y-16172500D01*
X14763143Y-16472500D02*
X14777428Y-16458214D01*
X14806000Y-16415357D01*
X14820286Y-16386786D01*
X14834571Y-16343929D01*
X14848857Y-16272500D01*
X14848857Y-16215357D01*
X14834571Y-16143929D01*
X14820286Y-16101071D01*
X14806000Y-16072500D01*
X14777428Y-16029643D01*
X14763143Y-16015357D01*
X15306000Y-16472500D02*
X15291714Y-16458214D01*
X15263143Y-16415357D01*
X15248857Y-16386786D01*
X15234571Y-16343929D01*
X15220286Y-16272500D01*
X15220286Y-16215357D01*
X15234571Y-16143929D01*
X15248857Y-16101071D01*
X15263143Y-16072500D01*
X15291714Y-16029643D01*
X15306000Y-16015357D01*
X15420286Y-16158214D02*
X15420286Y-16358214D01*
X15420286Y-16186786D02*
X15434571Y-16172500D01*
X15463143Y-16158214D01*
X15506000Y-16158214D01*
X15534571Y-16172500D01*
X15548857Y-16201071D01*
X15548857Y-16358214D01*
X15734571Y-16358214D02*
X15706000Y-16343929D01*
X15691714Y-16329643D01*
X15677428Y-16301071D01*
X15677428Y-16215357D01*
X15691714Y-16186786D01*
X15706000Y-16172500D01*
X15734571Y-16158214D01*
X15777428Y-16158214D01*
X15806000Y-16172500D01*
X15820286Y-16186786D01*
X15834571Y-16215357D01*
X15834571Y-16301071D01*
X15820286Y-16329643D01*
X15806000Y-16343929D01*
X15777428Y-16358214D01*
X15734571Y-16358214D01*
X15920286Y-16158214D02*
X16034571Y-16158214D01*
X15963143Y-16058214D02*
X15963143Y-16315357D01*
X15977428Y-16343929D01*
X16006000Y-16358214D01*
X16034571Y-16358214D01*
X16363143Y-16158214D02*
X16363143Y-16458214D01*
X16363143Y-16172500D02*
X16391714Y-16158214D01*
X16448857Y-16158214D01*
X16477428Y-16172500D01*
X16491714Y-16186786D01*
X16506000Y-16215357D01*
X16506000Y-16301071D01*
X16491714Y-16329643D01*
X16477428Y-16343929D01*
X16448857Y-16358214D01*
X16391714Y-16358214D01*
X16363143Y-16343929D01*
X16677428Y-16358214D02*
X16648857Y-16343929D01*
X16634571Y-16315357D01*
X16634571Y-16058214D01*
X16920286Y-16358214D02*
X16920286Y-16201071D01*
X16906000Y-16172500D01*
X16877428Y-16158214D01*
X16820286Y-16158214D01*
X16791714Y-16172500D01*
X16920286Y-16343929D02*
X16891714Y-16358214D01*
X16820286Y-16358214D01*
X16791714Y-16343929D01*
X16777428Y-16315357D01*
X16777428Y-16286786D01*
X16791714Y-16258214D01*
X16820286Y-16243929D01*
X16891714Y-16243929D01*
X16920286Y-16229643D01*
X17020286Y-16158214D02*
X17134571Y-16158214D01*
X17063143Y-16058214D02*
X17063143Y-16315357D01*
X17077428Y-16343929D01*
X17106000Y-16358214D01*
X17134571Y-16358214D01*
X17348857Y-16343929D02*
X17320286Y-16358214D01*
X17263143Y-16358214D01*
X17234571Y-16343929D01*
X17220286Y-16315357D01*
X17220286Y-16201071D01*
X17234571Y-16172500D01*
X17263143Y-16158214D01*
X17320286Y-16158214D01*
X17348857Y-16172500D01*
X17363143Y-16201071D01*
X17363143Y-16229643D01*
X17220286Y-16258214D01*
X17620286Y-16358214D02*
X17620286Y-16058214D01*
X17620286Y-16343929D02*
X17591714Y-16358214D01*
X17534571Y-16358214D01*
X17506000Y-16343929D01*
X17491714Y-16329643D01*
X17477428Y-16301071D01*
X17477428Y-16215357D01*
X17491714Y-16186786D01*
X17506000Y-16172500D01*
X17534571Y-16158214D01*
X17591714Y-16158214D01*
X17620286Y-16172500D01*
X17734571Y-16472500D02*
X17748857Y-16458214D01*
X17777428Y-16415357D01*
X17791714Y-16386786D01*
X17806000Y-16343929D01*
X17820286Y-16272500D01*
X17820286Y-16215357D01*
X17806000Y-16143929D01*
X17791714Y-16101071D01*
X17777428Y-16072500D01*
X17748857Y-16029643D01*
X17734571Y-16015357D01*
X7881000Y-16508500D02*
X7881000Y-16728500D01*
X7771000Y-16618500D02*
X7991000Y-16618500D01*
X8263143Y-16482786D02*
X8277428Y-16468500D01*
X8306000Y-16454214D01*
X8377428Y-16454214D01*
X8406000Y-16468500D01*
X8420286Y-16482786D01*
X8434571Y-16511357D01*
X8434571Y-16539929D01*
X8420286Y-16582786D01*
X8248857Y-16754214D01*
X8434571Y-16754214D01*
X8563143Y-16725643D02*
X8577428Y-16739929D01*
X8563143Y-16754214D01*
X8548857Y-16739929D01*
X8563143Y-16725643D01*
X8563143Y-16754214D01*
X8691714Y-16482786D02*
X8706000Y-16468500D01*
X8734571Y-16454214D01*
X8806000Y-16454214D01*
X8834571Y-16468500D01*
X8848857Y-16482786D01*
X8863143Y-16511357D01*
X8863143Y-16539929D01*
X8848857Y-16582786D01*
X8677428Y-16754214D01*
X8863143Y-16754214D01*
X9048857Y-16454214D02*
X9077428Y-16454214D01*
X9106000Y-16468500D01*
X9120286Y-16482786D01*
X9134571Y-16511357D01*
X9148857Y-16568500D01*
X9148857Y-16639929D01*
X9134571Y-16697071D01*
X9120286Y-16725643D01*
X9106000Y-16739929D01*
X9077428Y-16754214D01*
X9048857Y-16754214D01*
X9020286Y-16739929D01*
X9006000Y-16725643D01*
X8991714Y-16697071D01*
X8977428Y-16639929D01*
X8977428Y-16568500D01*
X8991714Y-16511357D01*
X9006000Y-16482786D01*
X9020286Y-16468500D01*
X9048857Y-16454214D01*
X9277428Y-16754214D02*
X9277428Y-16554214D01*
X9277428Y-16582786D02*
X9291714Y-16568500D01*
X9320286Y-16554214D01*
X9363143Y-16554214D01*
X9391714Y-16568500D01*
X9406000Y-16597071D01*
X9406000Y-16754214D01*
X9406000Y-16597071D02*
X9420286Y-16568500D01*
X9448857Y-16554214D01*
X9491714Y-16554214D01*
X9520286Y-16568500D01*
X9534571Y-16597071D01*
X9534571Y-16754214D01*
X9677428Y-16754214D02*
X9677428Y-16554214D01*
X9677428Y-16582786D02*
X9691714Y-16568500D01*
X9720286Y-16554214D01*
X9763143Y-16554214D01*
X9791714Y-16568500D01*
X9806000Y-16597071D01*
X9806000Y-16754214D01*
X9806000Y-16597071D02*
X9820286Y-16568500D01*
X9848857Y-16554214D01*
X9891714Y-16554214D01*
X9920286Y-16568500D01*
X9934571Y-16597071D01*
X9934571Y-16754214D01*
X10520286Y-16439929D02*
X10263143Y-16825643D01*
X10906000Y-16454214D02*
X10934571Y-16454214D01*
X10963143Y-16468500D01*
X10977428Y-16482786D01*
X10991714Y-16511357D01*
X11006000Y-16568500D01*
X11006000Y-16639929D01*
X10991714Y-16697071D01*
X10977428Y-16725643D01*
X10963143Y-16739929D01*
X10934571Y-16754214D01*
X10906000Y-16754214D01*
X10877428Y-16739929D01*
X10863143Y-16725643D01*
X10848857Y-16697071D01*
X10834571Y-16639929D01*
X10834571Y-16568500D01*
X10848857Y-16511357D01*
X10863143Y-16482786D01*
X10877428Y-16468500D01*
X10906000Y-16454214D01*
X11134571Y-16725643D02*
X11148857Y-16739929D01*
X11134571Y-16754214D01*
X11120286Y-16739929D01*
X11134571Y-16725643D01*
X11134571Y-16754214D01*
X11334571Y-16454214D02*
X11363143Y-16454214D01*
X11391714Y-16468500D01*
X11406000Y-16482786D01*
X11420286Y-16511357D01*
X11434571Y-16568500D01*
X11434571Y-16639929D01*
X11420286Y-16697071D01*
X11406000Y-16725643D01*
X11391714Y-16739929D01*
X11363143Y-16754214D01*
X11334571Y-16754214D01*
X11306000Y-16739929D01*
X11291714Y-16725643D01*
X11277428Y-16697071D01*
X11263143Y-16639929D01*
X11263143Y-16568500D01*
X11277428Y-16511357D01*
X11291714Y-16482786D01*
X11306000Y-16468500D01*
X11334571Y-16454214D01*
X11606000Y-16582786D02*
X11577428Y-16568500D01*
X11563143Y-16554214D01*
X11548857Y-16525643D01*
X11548857Y-16511357D01*
X11563143Y-16482786D01*
X11577428Y-16468500D01*
X11606000Y-16454214D01*
X11663143Y-16454214D01*
X11691714Y-16468500D01*
X11706000Y-16482786D01*
X11720286Y-16511357D01*
X11720286Y-16525643D01*
X11706000Y-16554214D01*
X11691714Y-16568500D01*
X11663143Y-16582786D01*
X11606000Y-16582786D01*
X11577428Y-16597071D01*
X11563143Y-16611357D01*
X11548857Y-16639929D01*
X11548857Y-16697071D01*
X11563143Y-16725643D01*
X11577428Y-16739929D01*
X11606000Y-16754214D01*
X11663143Y-16754214D01*
X11691714Y-16739929D01*
X11706000Y-16725643D01*
X11720286Y-16697071D01*
X11720286Y-16639929D01*
X11706000Y-16611357D01*
X11691714Y-16597071D01*
X11663143Y-16582786D01*
X11820286Y-16454214D02*
X12020286Y-16454214D01*
X11891714Y-16754214D01*
X12120286Y-16454214D02*
X12120286Y-16511357D01*
X12234571Y-16454214D02*
X12234571Y-16511357D01*
X12677428Y-16868500D02*
X12663143Y-16854214D01*
X12634571Y-16811357D01*
X12620286Y-16782786D01*
X12606000Y-16739929D01*
X12591714Y-16668500D01*
X12591714Y-16611357D01*
X12606000Y-16539929D01*
X12620286Y-16497071D01*
X12634571Y-16468500D01*
X12663143Y-16425643D01*
X12677428Y-16411357D01*
X12777428Y-16482786D02*
X12791714Y-16468500D01*
X12820286Y-16454214D01*
X12891714Y-16454214D01*
X12920286Y-16468500D01*
X12934571Y-16482786D01*
X12948857Y-16511357D01*
X12948857Y-16539929D01*
X12934571Y-16582786D01*
X12763143Y-16754214D01*
X12948857Y-16754214D01*
X13306000Y-16754214D02*
X13306000Y-16454214D01*
X13434571Y-16754214D02*
X13434571Y-16597071D01*
X13420286Y-16568500D01*
X13391714Y-16554214D01*
X13348857Y-16554214D01*
X13320286Y-16568500D01*
X13306000Y-16582786D01*
X13620286Y-16754214D02*
X13591714Y-16739929D01*
X13577428Y-16725643D01*
X13563143Y-16697071D01*
X13563143Y-16611357D01*
X13577428Y-16582786D01*
X13591714Y-16568500D01*
X13620286Y-16554214D01*
X13663143Y-16554214D01*
X13691714Y-16568500D01*
X13706000Y-16582786D01*
X13720286Y-16611357D01*
X13720286Y-16697071D01*
X13706000Y-16725643D01*
X13691714Y-16739929D01*
X13663143Y-16754214D01*
X13620286Y-16754214D01*
X13891714Y-16754214D02*
X13863143Y-16739929D01*
X13848857Y-16711357D01*
X13848857Y-16454214D01*
X14120286Y-16739929D02*
X14091714Y-16754214D01*
X14034571Y-16754214D01*
X14006000Y-16739929D01*
X13991714Y-16711357D01*
X13991714Y-16597071D01*
X14006000Y-16568500D01*
X14034571Y-16554214D01*
X14091714Y-16554214D01*
X14120286Y-16568500D01*
X14134571Y-16597071D01*
X14134571Y-16625643D01*
X13991714Y-16654214D01*
X14248857Y-16739929D02*
X14277428Y-16754214D01*
X14334571Y-16754214D01*
X14363143Y-16739929D01*
X14377428Y-16711357D01*
X14377428Y-16697071D01*
X14363143Y-16668500D01*
X14334571Y-16654214D01*
X14291714Y-16654214D01*
X14263143Y-16639929D01*
X14248857Y-16611357D01*
X14248857Y-16597071D01*
X14263143Y-16568500D01*
X14291714Y-16554214D01*
X14334571Y-16554214D01*
X14363143Y-16568500D01*
X14477428Y-16868500D02*
X14491714Y-16854214D01*
X14520286Y-16811357D01*
X14534571Y-16782786D01*
X14548857Y-16739929D01*
X14563143Y-16668500D01*
X14563143Y-16611357D01*
X14548857Y-16539929D01*
X14534571Y-16497071D01*
X14520286Y-16468500D01*
X14491714Y-16425643D01*
X14477428Y-16411357D01*
X15020286Y-16868500D02*
X15006000Y-16854214D01*
X14977428Y-16811357D01*
X14963143Y-16782786D01*
X14948857Y-16739929D01*
X14934571Y-16668500D01*
X14934571Y-16611357D01*
X14948857Y-16539929D01*
X14963143Y-16497071D01*
X14977428Y-16468500D01*
X15006000Y-16425643D01*
X15020286Y-16411357D01*
X15134571Y-16554214D02*
X15134571Y-16754214D01*
X15134571Y-16582786D02*
X15148857Y-16568500D01*
X15177428Y-16554214D01*
X15220286Y-16554214D01*
X15248857Y-16568500D01*
X15263143Y-16597071D01*
X15263143Y-16754214D01*
X15448857Y-16754214D02*
X15420286Y-16739929D01*
X15406000Y-16725643D01*
X15391714Y-16697071D01*
X15391714Y-16611357D01*
X15406000Y-16582786D01*
X15420286Y-16568500D01*
X15448857Y-16554214D01*
X15491714Y-16554214D01*
X15520286Y-16568500D01*
X15534571Y-16582786D01*
X15548857Y-16611357D01*
X15548857Y-16697071D01*
X15534571Y-16725643D01*
X15520286Y-16739929D01*
X15491714Y-16754214D01*
X15448857Y-16754214D01*
X15634571Y-16554214D02*
X15748857Y-16554214D01*
X15677428Y-16454214D02*
X15677428Y-16711357D01*
X15691714Y-16739929D01*
X15720286Y-16754214D01*
X15748857Y-16754214D01*
X16077428Y-16554214D02*
X16077428Y-16854214D01*
X16077428Y-16568500D02*
X16106000Y-16554214D01*
X16163143Y-16554214D01*
X16191714Y-16568500D01*
X16206000Y-16582786D01*
X16220286Y-16611357D01*
X16220286Y-16697071D01*
X16206000Y-16725643D01*
X16191714Y-16739929D01*
X16163143Y-16754214D01*
X16106000Y-16754214D01*
X16077428Y-16739929D01*
X16391714Y-16754214D02*
X16363143Y-16739929D01*
X16348857Y-16711357D01*
X16348857Y-16454214D01*
X16634571Y-16754214D02*
X16634571Y-16597071D01*
X16620286Y-16568500D01*
X16591714Y-16554214D01*
X16534571Y-16554214D01*
X16506000Y-16568500D01*
X16634571Y-16739929D02*
X16606000Y-16754214D01*
X16534571Y-16754214D01*
X16506000Y-16739929D01*
X16491714Y-16711357D01*
X16491714Y-16682786D01*
X16506000Y-16654214D01*
X16534571Y-16639929D01*
X16606000Y-16639929D01*
X16634571Y-16625643D01*
X16734571Y-16554214D02*
X16848857Y-16554214D01*
X16777428Y-16454214D02*
X16777428Y-16711357D01*
X16791714Y-16739929D01*
X16820286Y-16754214D01*
X16848857Y-16754214D01*
X17063143Y-16739929D02*
X17034571Y-16754214D01*
X16977428Y-16754214D01*
X16948857Y-16739929D01*
X16934571Y-16711357D01*
X16934571Y-16597071D01*
X16948857Y-16568500D01*
X16977428Y-16554214D01*
X17034571Y-16554214D01*
X17063143Y-16568500D01*
X17077428Y-16597071D01*
X17077428Y-16625643D01*
X16934571Y-16654214D01*
X17334571Y-16754214D02*
X17334571Y-16454214D01*
X17334571Y-16739929D02*
X17306000Y-16754214D01*
X17248857Y-16754214D01*
X17220286Y-16739929D01*
X17206000Y-16725643D01*
X17191714Y-16697071D01*
X17191714Y-16611357D01*
X17206000Y-16582786D01*
X17220286Y-16568500D01*
X17248857Y-16554214D01*
X17306000Y-16554214D01*
X17334571Y-16568500D01*
X17448857Y-16868500D02*
X17463143Y-16854214D01*
X17491714Y-16811357D01*
X17506000Y-16782786D01*
X17520286Y-16739929D01*
X17534571Y-16668500D01*
X17534571Y-16611357D01*
X17520286Y-16539929D01*
X17506000Y-16497071D01*
X17491714Y-16468500D01*
X17463143Y-16425643D01*
X17448857Y-16411357D01*
X7947067Y-17120567D02*
X7947067Y-16908433D01*
X7734933Y-16908433D01*
X7734933Y-17120567D01*
X7947067Y-17120567D01*
X8248857Y-16850214D02*
X8434571Y-16850214D01*
X8334571Y-16964500D01*
X8377428Y-16964500D01*
X8406000Y-16978786D01*
X8420286Y-16993072D01*
X8434571Y-17021643D01*
X8434571Y-17093072D01*
X8420286Y-17121643D01*
X8406000Y-17135929D01*
X8377428Y-17150214D01*
X8291714Y-17150214D01*
X8263143Y-17135929D01*
X8248857Y-17121643D01*
X8563143Y-17121643D02*
X8577428Y-17135929D01*
X8563143Y-17150214D01*
X8548857Y-17135929D01*
X8563143Y-17121643D01*
X8563143Y-17150214D01*
X8763143Y-16850214D02*
X8791714Y-16850214D01*
X8820286Y-16864500D01*
X8834571Y-16878786D01*
X8848857Y-16907357D01*
X8863143Y-16964500D01*
X8863143Y-17035929D01*
X8848857Y-17093072D01*
X8834571Y-17121643D01*
X8820286Y-17135929D01*
X8791714Y-17150214D01*
X8763143Y-17150214D01*
X8734571Y-17135929D01*
X8720286Y-17121643D01*
X8706000Y-17093072D01*
X8691714Y-17035929D01*
X8691714Y-16964500D01*
X8706000Y-16907357D01*
X8720286Y-16878786D01*
X8734571Y-16864500D01*
X8763143Y-16850214D01*
X9048857Y-16850214D02*
X9077428Y-16850214D01*
X9106000Y-16864500D01*
X9120286Y-16878786D01*
X9134571Y-16907357D01*
X9148857Y-16964500D01*
X9148857Y-17035929D01*
X9134571Y-17093072D01*
X9120286Y-17121643D01*
X9106000Y-17135929D01*
X9077428Y-17150214D01*
X9048857Y-17150214D01*
X9020286Y-17135929D01*
X9006000Y-17121643D01*
X8991714Y-17093072D01*
X8977428Y-17035929D01*
X8977428Y-16964500D01*
X8991714Y-16907357D01*
X9006000Y-16878786D01*
X9020286Y-16864500D01*
X9048857Y-16850214D01*
X9277428Y-17150214D02*
X9277428Y-16950214D01*
X9277428Y-16978786D02*
X9291714Y-16964500D01*
X9320286Y-16950214D01*
X9363143Y-16950214D01*
X9391714Y-16964500D01*
X9406000Y-16993072D01*
X9406000Y-17150214D01*
X9406000Y-16993072D02*
X9420286Y-16964500D01*
X9448857Y-16950214D01*
X9491714Y-16950214D01*
X9520286Y-16964500D01*
X9534571Y-16993072D01*
X9534571Y-17150214D01*
X9677428Y-17150214D02*
X9677428Y-16950214D01*
X9677428Y-16978786D02*
X9691714Y-16964500D01*
X9720286Y-16950214D01*
X9763143Y-16950214D01*
X9791714Y-16964500D01*
X9806000Y-16993072D01*
X9806000Y-17150214D01*
X9806000Y-16993072D02*
X9820286Y-16964500D01*
X9848857Y-16950214D01*
X9891714Y-16950214D01*
X9920286Y-16964500D01*
X9934571Y-16993072D01*
X9934571Y-17150214D01*
X10520286Y-16835929D02*
X10263143Y-17221643D01*
X10906000Y-16850214D02*
X10934571Y-16850214D01*
X10963143Y-16864500D01*
X10977428Y-16878786D01*
X10991714Y-16907357D01*
X11006000Y-16964500D01*
X11006000Y-17035929D01*
X10991714Y-17093072D01*
X10977428Y-17121643D01*
X10963143Y-17135929D01*
X10934571Y-17150214D01*
X10906000Y-17150214D01*
X10877428Y-17135929D01*
X10863143Y-17121643D01*
X10848857Y-17093072D01*
X10834571Y-17035929D01*
X10834571Y-16964500D01*
X10848857Y-16907357D01*
X10863143Y-16878786D01*
X10877428Y-16864500D01*
X10906000Y-16850214D01*
X11134571Y-17121643D02*
X11148857Y-17135929D01*
X11134571Y-17150214D01*
X11120286Y-17135929D01*
X11134571Y-17121643D01*
X11134571Y-17150214D01*
X11434571Y-17150214D02*
X11263143Y-17150214D01*
X11348857Y-17150214D02*
X11348857Y-16850214D01*
X11320286Y-16893072D01*
X11291714Y-16921643D01*
X11263143Y-16935929D01*
X11720286Y-17150214D02*
X11548857Y-17150214D01*
X11634571Y-17150214D02*
X11634571Y-16850214D01*
X11606000Y-16893072D01*
X11577428Y-16921643D01*
X11548857Y-16935929D01*
X11891714Y-16978786D02*
X11863143Y-16964500D01*
X11848857Y-16950214D01*
X11834571Y-16921643D01*
X11834571Y-16907357D01*
X11848857Y-16878786D01*
X11863143Y-16864500D01*
X11891714Y-16850214D01*
X11948857Y-16850214D01*
X11977428Y-16864500D01*
X11991714Y-16878786D01*
X12006000Y-16907357D01*
X12006000Y-16921643D01*
X11991714Y-16950214D01*
X11977428Y-16964500D01*
X11948857Y-16978786D01*
X11891714Y-16978786D01*
X11863143Y-16993072D01*
X11848857Y-17007357D01*
X11834571Y-17035929D01*
X11834571Y-17093072D01*
X11848857Y-17121643D01*
X11863143Y-17135929D01*
X11891714Y-17150214D01*
X11948857Y-17150214D01*
X11977428Y-17135929D01*
X11991714Y-17121643D01*
X12006000Y-17093072D01*
X12006000Y-17035929D01*
X11991714Y-17007357D01*
X11977428Y-16993072D01*
X11948857Y-16978786D01*
X12120286Y-16850214D02*
X12120286Y-16907357D01*
X12234571Y-16850214D02*
X12234571Y-16907357D01*
X12677428Y-17264500D02*
X12663143Y-17250214D01*
X12634571Y-17207357D01*
X12620286Y-17178786D01*
X12606000Y-17135929D01*
X12591714Y-17064500D01*
X12591714Y-17007357D01*
X12606000Y-16935929D01*
X12620286Y-16893072D01*
X12634571Y-16864500D01*
X12663143Y-16821643D01*
X12677428Y-16807357D01*
X12920286Y-16850214D02*
X12863143Y-16850214D01*
X12834571Y-16864500D01*
X12820286Y-16878786D01*
X12791714Y-16921643D01*
X12777428Y-16978786D01*
X12777428Y-17093072D01*
X12791714Y-17121643D01*
X12806000Y-17135929D01*
X12834571Y-17150214D01*
X12891714Y-17150214D01*
X12920286Y-17135929D01*
X12934571Y-17121643D01*
X12948857Y-17093072D01*
X12948857Y-17021643D01*
X12934571Y-16993072D01*
X12920286Y-16978786D01*
X12891714Y-16964500D01*
X12834571Y-16964500D01*
X12806000Y-16978786D01*
X12791714Y-16993072D01*
X12777428Y-17021643D01*
X13134571Y-16850214D02*
X13163143Y-16850214D01*
X13191714Y-16864500D01*
X13206000Y-16878786D01*
X13220286Y-16907357D01*
X13234571Y-16964500D01*
X13234571Y-17035929D01*
X13220286Y-17093072D01*
X13206000Y-17121643D01*
X13191714Y-17135929D01*
X13163143Y-17150214D01*
X13134571Y-17150214D01*
X13106000Y-17135929D01*
X13091714Y-17121643D01*
X13077428Y-17093072D01*
X13063143Y-17035929D01*
X13063143Y-16964500D01*
X13077428Y-16907357D01*
X13091714Y-16878786D01*
X13106000Y-16864500D01*
X13134571Y-16850214D01*
X13591714Y-17150214D02*
X13591714Y-16850214D01*
X13720286Y-17150214D02*
X13720286Y-16993072D01*
X13706000Y-16964500D01*
X13677428Y-16950214D01*
X13634571Y-16950214D01*
X13606000Y-16964500D01*
X13591714Y-16978786D01*
X13906000Y-17150214D02*
X13877428Y-17135929D01*
X13863143Y-17121643D01*
X13848857Y-17093072D01*
X13848857Y-17007357D01*
X13863143Y-16978786D01*
X13877428Y-16964500D01*
X13906000Y-16950214D01*
X13948857Y-16950214D01*
X13977428Y-16964500D01*
X13991714Y-16978786D01*
X14006000Y-17007357D01*
X14006000Y-17093072D01*
X13991714Y-17121643D01*
X13977428Y-17135929D01*
X13948857Y-17150214D01*
X13906000Y-17150214D01*
X14177428Y-17150214D02*
X14148857Y-17135929D01*
X14134571Y-17107357D01*
X14134571Y-16850214D01*
X14406000Y-17135929D02*
X14377428Y-17150214D01*
X14320286Y-17150214D01*
X14291714Y-17135929D01*
X14277428Y-17107357D01*
X14277428Y-16993072D01*
X14291714Y-16964500D01*
X14320286Y-16950214D01*
X14377428Y-16950214D01*
X14406000Y-16964500D01*
X14420286Y-16993072D01*
X14420286Y-17021643D01*
X14277428Y-17050214D01*
X14534571Y-17135929D02*
X14563143Y-17150214D01*
X14620286Y-17150214D01*
X14648857Y-17135929D01*
X14663143Y-17107357D01*
X14663143Y-17093072D01*
X14648857Y-17064500D01*
X14620286Y-17050214D01*
X14577428Y-17050214D01*
X14548857Y-17035929D01*
X14534571Y-17007357D01*
X14534571Y-16993072D01*
X14548857Y-16964500D01*
X14577428Y-16950214D01*
X14620286Y-16950214D01*
X14648857Y-16964500D01*
X14763143Y-17264500D02*
X14777428Y-17250214D01*
X14806000Y-17207357D01*
X14820286Y-17178786D01*
X14834571Y-17135929D01*
X14848857Y-17064500D01*
X14848857Y-17007357D01*
X14834571Y-16935929D01*
X14820286Y-16893072D01*
X14806000Y-16864500D01*
X14777428Y-16821643D01*
X14763143Y-16807357D01*
X15306000Y-17264500D02*
X15291714Y-17250214D01*
X15263143Y-17207357D01*
X15248857Y-17178786D01*
X15234571Y-17135929D01*
X15220286Y-17064500D01*
X15220286Y-17007357D01*
X15234571Y-16935929D01*
X15248857Y-16893072D01*
X15263143Y-16864500D01*
X15291714Y-16821643D01*
X15306000Y-16807357D01*
X15420286Y-16950214D02*
X15420286Y-17150214D01*
X15420286Y-16978786D02*
X15434571Y-16964500D01*
X15463143Y-16950214D01*
X15506000Y-16950214D01*
X15534571Y-16964500D01*
X15548857Y-16993072D01*
X15548857Y-17150214D01*
X15734571Y-17150214D02*
X15706000Y-17135929D01*
X15691714Y-17121643D01*
X15677428Y-17093072D01*
X15677428Y-17007357D01*
X15691714Y-16978786D01*
X15706000Y-16964500D01*
X15734571Y-16950214D01*
X15777428Y-16950214D01*
X15806000Y-16964500D01*
X15820286Y-16978786D01*
X15834571Y-17007357D01*
X15834571Y-17093072D01*
X15820286Y-17121643D01*
X15806000Y-17135929D01*
X15777428Y-17150214D01*
X15734571Y-17150214D01*
X15920286Y-16950214D02*
X16034571Y-16950214D01*
X15963143Y-16850214D02*
X15963143Y-17107357D01*
X15977428Y-17135929D01*
X16006000Y-17150214D01*
X16034571Y-17150214D01*
X16363143Y-16950214D02*
X16363143Y-17250214D01*
X16363143Y-16964500D02*
X16391714Y-16950214D01*
X16448857Y-16950214D01*
X16477428Y-16964500D01*
X16491714Y-16978786D01*
X16506000Y-17007357D01*
X16506000Y-17093072D01*
X16491714Y-17121643D01*
X16477428Y-17135929D01*
X16448857Y-17150214D01*
X16391714Y-17150214D01*
X16363143Y-17135929D01*
X16677428Y-17150214D02*
X16648857Y-17135929D01*
X16634571Y-17107357D01*
X16634571Y-16850214D01*
X16920286Y-17150214D02*
X16920286Y-16993072D01*
X16906000Y-16964500D01*
X16877428Y-16950214D01*
X16820286Y-16950214D01*
X16791714Y-16964500D01*
X16920286Y-17135929D02*
X16891714Y-17150214D01*
X16820286Y-17150214D01*
X16791714Y-17135929D01*
X16777428Y-17107357D01*
X16777428Y-17078786D01*
X16791714Y-17050214D01*
X16820286Y-17035929D01*
X16891714Y-17035929D01*
X16920286Y-17021643D01*
X17020286Y-16950214D02*
X17134571Y-16950214D01*
X17063143Y-16850214D02*
X17063143Y-17107357D01*
X17077428Y-17135929D01*
X17106000Y-17150214D01*
X17134571Y-17150214D01*
X17348857Y-17135929D02*
X17320286Y-17150214D01*
X17263143Y-17150214D01*
X17234571Y-17135929D01*
X17220286Y-17107357D01*
X17220286Y-16993072D01*
X17234571Y-16964500D01*
X17263143Y-16950214D01*
X17320286Y-16950214D01*
X17348857Y-16964500D01*
X17363143Y-16993072D01*
X17363143Y-17021643D01*
X17220286Y-17050214D01*
X17620286Y-17150214D02*
X17620286Y-16850214D01*
X17620286Y-17135929D02*
X17591714Y-17150214D01*
X17534571Y-17150214D01*
X17506000Y-17135929D01*
X17491714Y-17121643D01*
X17477428Y-17093072D01*
X17477428Y-17007357D01*
X17491714Y-16978786D01*
X17506000Y-16964500D01*
X17534571Y-16950214D01*
X17591714Y-16950214D01*
X17620286Y-16964500D01*
X17734571Y-17264500D02*
X17748857Y-17250214D01*
X17777428Y-17207357D01*
X17791714Y-17178786D01*
X17806000Y-17135929D01*
X17820286Y-17064500D01*
X17820286Y-17007357D01*
X17806000Y-16935929D01*
X17791714Y-16893072D01*
X17777428Y-16864500D01*
X17748857Y-16821643D01*
X17734571Y-16807357D01*
X7791000Y-17644500D02*
X7991000Y-17444500D01*
X7791000Y-17244500D01*
X7591000Y-17444500D01*
X7791000Y-17644500D01*
X8406000Y-17380214D02*
X8406000Y-17580214D01*
X8334571Y-17265929D02*
X8263143Y-17480214D01*
X8448857Y-17480214D01*
X8563143Y-17551643D02*
X8577428Y-17565929D01*
X8563143Y-17580214D01*
X8548857Y-17565929D01*
X8563143Y-17551643D01*
X8563143Y-17580214D01*
X8763143Y-17280214D02*
X8791714Y-17280214D01*
X8820286Y-17294500D01*
X8834571Y-17308786D01*
X8848857Y-17337357D01*
X8863143Y-17394500D01*
X8863143Y-17465929D01*
X8848857Y-17523072D01*
X8834571Y-17551643D01*
X8820286Y-17565929D01*
X8791714Y-17580214D01*
X8763143Y-17580214D01*
X8734571Y-17565929D01*
X8720286Y-17551643D01*
X8706000Y-17523072D01*
X8691714Y-17465929D01*
X8691714Y-17394500D01*
X8706000Y-17337357D01*
X8720286Y-17308786D01*
X8734571Y-17294500D01*
X8763143Y-17280214D01*
X9048857Y-17280214D02*
X9077428Y-17280214D01*
X9106000Y-17294500D01*
X9120286Y-17308786D01*
X9134571Y-17337357D01*
X9148857Y-17394500D01*
X9148857Y-17465929D01*
X9134571Y-17523072D01*
X9120286Y-17551643D01*
X9106000Y-17565929D01*
X9077428Y-17580214D01*
X9048857Y-17580214D01*
X9020286Y-17565929D01*
X9006000Y-17551643D01*
X8991714Y-17523072D01*
X8977428Y-17465929D01*
X8977428Y-17394500D01*
X8991714Y-17337357D01*
X9006000Y-17308786D01*
X9020286Y-17294500D01*
X9048857Y-17280214D01*
X9277428Y-17580214D02*
X9277428Y-17380214D01*
X9277428Y-17408786D02*
X9291714Y-17394500D01*
X9320286Y-17380214D01*
X9363143Y-17380214D01*
X9391714Y-17394500D01*
X9406000Y-17423072D01*
X9406000Y-17580214D01*
X9406000Y-17423072D02*
X9420286Y-17394500D01*
X9448857Y-17380214D01*
X9491714Y-17380214D01*
X9520286Y-17394500D01*
X9534571Y-17423072D01*
X9534571Y-17580214D01*
X9677428Y-17580214D02*
X9677428Y-17380214D01*
X9677428Y-17408786D02*
X9691714Y-17394500D01*
X9720286Y-17380214D01*
X9763143Y-17380214D01*
X9791714Y-17394500D01*
X9806000Y-17423072D01*
X9806000Y-17580214D01*
X9806000Y-17423072D02*
X9820286Y-17394500D01*
X9848857Y-17380214D01*
X9891714Y-17380214D01*
X9920286Y-17394500D01*
X9934571Y-17423072D01*
X9934571Y-17580214D01*
X10520286Y-17265929D02*
X10263143Y-17651643D01*
X10906000Y-17280214D02*
X10934571Y-17280214D01*
X10963143Y-17294500D01*
X10977428Y-17308786D01*
X10991714Y-17337357D01*
X11006000Y-17394500D01*
X11006000Y-17465929D01*
X10991714Y-17523072D01*
X10977428Y-17551643D01*
X10963143Y-17565929D01*
X10934571Y-17580214D01*
X10906000Y-17580214D01*
X10877428Y-17565929D01*
X10863143Y-17551643D01*
X10848857Y-17523072D01*
X10834571Y-17465929D01*
X10834571Y-17394500D01*
X10848857Y-17337357D01*
X10863143Y-17308786D01*
X10877428Y-17294500D01*
X10906000Y-17280214D01*
X11134571Y-17551643D02*
X11148857Y-17565929D01*
X11134571Y-17580214D01*
X11120286Y-17565929D01*
X11134571Y-17551643D01*
X11134571Y-17580214D01*
X11434571Y-17580214D02*
X11263143Y-17580214D01*
X11348857Y-17580214D02*
X11348857Y-17280214D01*
X11320286Y-17323072D01*
X11291714Y-17351643D01*
X11263143Y-17365929D01*
X11706000Y-17280214D02*
X11563143Y-17280214D01*
X11548857Y-17423072D01*
X11563143Y-17408786D01*
X11591714Y-17394500D01*
X11663143Y-17394500D01*
X11691714Y-17408786D01*
X11706000Y-17423072D01*
X11720286Y-17451643D01*
X11720286Y-17523072D01*
X11706000Y-17551643D01*
X11691714Y-17565929D01*
X11663143Y-17580214D01*
X11591714Y-17580214D01*
X11563143Y-17565929D01*
X11548857Y-17551643D01*
X11820286Y-17280214D02*
X12020286Y-17280214D01*
X11891714Y-17580214D01*
X12120286Y-17280214D02*
X12120286Y-17337357D01*
X12234571Y-17280214D02*
X12234571Y-17337357D01*
X12677428Y-17694500D02*
X12663143Y-17680214D01*
X12634571Y-17637357D01*
X12620286Y-17608786D01*
X12606000Y-17565929D01*
X12591714Y-17494500D01*
X12591714Y-17437357D01*
X12606000Y-17365929D01*
X12620286Y-17323072D01*
X12634571Y-17294500D01*
X12663143Y-17251643D01*
X12677428Y-17237357D01*
X12948857Y-17580214D02*
X12777428Y-17580214D01*
X12863143Y-17580214D02*
X12863143Y-17280214D01*
X12834571Y-17323072D01*
X12806000Y-17351643D01*
X12777428Y-17365929D01*
X13220286Y-17280214D02*
X13077428Y-17280214D01*
X13063143Y-17423072D01*
X13077428Y-17408786D01*
X13106000Y-17394500D01*
X13177428Y-17394500D01*
X13206000Y-17408786D01*
X13220286Y-17423072D01*
X13234571Y-17451643D01*
X13234571Y-17523072D01*
X13220286Y-17551643D01*
X13206000Y-17565929D01*
X13177428Y-17580214D01*
X13106000Y-17580214D01*
X13077428Y-17565929D01*
X13063143Y-17551643D01*
X13591714Y-17580214D02*
X13591714Y-17280214D01*
X13720286Y-17580214D02*
X13720286Y-17423072D01*
X13706000Y-17394500D01*
X13677428Y-17380214D01*
X13634571Y-17380214D01*
X13606000Y-17394500D01*
X13591714Y-17408786D01*
X13906000Y-17580214D02*
X13877428Y-17565929D01*
X13863143Y-17551643D01*
X13848857Y-17523072D01*
X13848857Y-17437357D01*
X13863143Y-17408786D01*
X13877428Y-17394500D01*
X13906000Y-17380214D01*
X13948857Y-17380214D01*
X13977428Y-17394500D01*
X13991714Y-17408786D01*
X14006000Y-17437357D01*
X14006000Y-17523072D01*
X13991714Y-17551643D01*
X13977428Y-17565929D01*
X13948857Y-17580214D01*
X13906000Y-17580214D01*
X14177428Y-17580214D02*
X14148857Y-17565929D01*
X14134571Y-17537357D01*
X14134571Y-17280214D01*
X14406000Y-17565929D02*
X14377428Y-17580214D01*
X14320286Y-17580214D01*
X14291714Y-17565929D01*
X14277428Y-17537357D01*
X14277428Y-17423072D01*
X14291714Y-17394500D01*
X14320286Y-17380214D01*
X14377428Y-17380214D01*
X14406000Y-17394500D01*
X14420286Y-17423072D01*
X14420286Y-17451643D01*
X14277428Y-17480214D01*
X14534571Y-17565929D02*
X14563143Y-17580214D01*
X14620286Y-17580214D01*
X14648857Y-17565929D01*
X14663143Y-17537357D01*
X14663143Y-17523072D01*
X14648857Y-17494500D01*
X14620286Y-17480214D01*
X14577428Y-17480214D01*
X14548857Y-17465929D01*
X14534571Y-17437357D01*
X14534571Y-17423072D01*
X14548857Y-17394500D01*
X14577428Y-17380214D01*
X14620286Y-17380214D01*
X14648857Y-17394500D01*
X14763143Y-17694500D02*
X14777428Y-17680214D01*
X14806000Y-17637357D01*
X14820286Y-17608786D01*
X14834571Y-17565929D01*
X14848857Y-17494500D01*
X14848857Y-17437357D01*
X14834571Y-17365929D01*
X14820286Y-17323072D01*
X14806000Y-17294500D01*
X14777428Y-17251643D01*
X14763143Y-17237357D01*
X15306000Y-17694500D02*
X15291714Y-17680214D01*
X15263143Y-17637357D01*
X15248857Y-17608786D01*
X15234571Y-17565929D01*
X15220286Y-17494500D01*
X15220286Y-17437357D01*
X15234571Y-17365929D01*
X15248857Y-17323072D01*
X15263143Y-17294500D01*
X15291714Y-17251643D01*
X15306000Y-17237357D01*
X15420286Y-17380214D02*
X15420286Y-17580214D01*
X15420286Y-17408786D02*
X15434571Y-17394500D01*
X15463143Y-17380214D01*
X15506000Y-17380214D01*
X15534571Y-17394500D01*
X15548857Y-17423072D01*
X15548857Y-17580214D01*
X15734571Y-17580214D02*
X15706000Y-17565929D01*
X15691714Y-17551643D01*
X15677428Y-17523072D01*
X15677428Y-17437357D01*
X15691714Y-17408786D01*
X15706000Y-17394500D01*
X15734571Y-17380214D01*
X15777428Y-17380214D01*
X15806000Y-17394500D01*
X15820286Y-17408786D01*
X15834571Y-17437357D01*
X15834571Y-17523072D01*
X15820286Y-17551643D01*
X15806000Y-17565929D01*
X15777428Y-17580214D01*
X15734571Y-17580214D01*
X15920286Y-17380214D02*
X16034571Y-17380214D01*
X15963143Y-17280214D02*
X15963143Y-17537357D01*
X15977428Y-17565929D01*
X16006000Y-17580214D01*
X16034571Y-17580214D01*
X16363143Y-17380214D02*
X16363143Y-17680214D01*
X16363143Y-17394500D02*
X16391714Y-17380214D01*
X16448857Y-17380214D01*
X16477428Y-17394500D01*
X16491714Y-17408786D01*
X16506000Y-17437357D01*
X16506000Y-17523072D01*
X16491714Y-17551643D01*
X16477428Y-17565929D01*
X16448857Y-17580214D01*
X16391714Y-17580214D01*
X16363143Y-17565929D01*
X16677428Y-17580214D02*
X16648857Y-17565929D01*
X16634571Y-17537357D01*
X16634571Y-17280214D01*
X16920286Y-17580214D02*
X16920286Y-17423072D01*
X16906000Y-17394500D01*
X16877428Y-17380214D01*
X16820286Y-17380214D01*
X16791714Y-17394500D01*
X16920286Y-17565929D02*
X16891714Y-17580214D01*
X16820286Y-17580214D01*
X16791714Y-17565929D01*
X16777428Y-17537357D01*
X16777428Y-17508786D01*
X16791714Y-17480214D01*
X16820286Y-17465929D01*
X16891714Y-17465929D01*
X16920286Y-17451643D01*
X17020286Y-17380214D02*
X17134571Y-17380214D01*
X17063143Y-17280214D02*
X17063143Y-17537357D01*
X17077428Y-17565929D01*
X17106000Y-17580214D01*
X17134571Y-17580214D01*
X17348857Y-17565929D02*
X17320286Y-17580214D01*
X17263143Y-17580214D01*
X17234571Y-17565929D01*
X17220286Y-17537357D01*
X17220286Y-17423072D01*
X17234571Y-17394500D01*
X17263143Y-17380214D01*
X17320286Y-17380214D01*
X17348857Y-17394500D01*
X17363143Y-17423072D01*
X17363143Y-17451643D01*
X17220286Y-17480214D01*
X17620286Y-17580214D02*
X17620286Y-17280214D01*
X17620286Y-17565929D02*
X17591714Y-17580214D01*
X17534571Y-17580214D01*
X17506000Y-17565929D01*
X17491714Y-17551643D01*
X17477428Y-17523072D01*
X17477428Y-17437357D01*
X17491714Y-17408786D01*
X17506000Y-17394500D01*
X17534571Y-17380214D01*
X17591714Y-17380214D01*
X17620286Y-17394500D01*
X17734571Y-17694500D02*
X17748857Y-17680214D01*
X17777428Y-17637357D01*
X17791714Y-17608786D01*
X17806000Y-17565929D01*
X17820286Y-17494500D01*
X17820286Y-17437357D01*
X17806000Y-17365929D01*
X17791714Y-17323072D01*
X17777428Y-17294500D01*
X17748857Y-17251643D01*
X17734571Y-17237357D01*
X7511000Y-17734500D02*
X7991000Y-18214500D01*
X7991000Y-17734500D02*
X7511000Y-18214500D01*
X7991000Y-17974500D02*
G75*
G03X7991000Y-17974500I-240000J0D01*
G01*
X8406000Y-17910214D02*
X8406000Y-18110214D01*
X8334571Y-17795929D02*
X8263143Y-18010214D01*
X8448857Y-18010214D01*
X8563143Y-18081643D02*
X8577428Y-18095929D01*
X8563143Y-18110214D01*
X8548857Y-18095929D01*
X8563143Y-18081643D01*
X8563143Y-18110214D01*
X8748857Y-17938786D02*
X8720286Y-17924500D01*
X8706000Y-17910214D01*
X8691714Y-17881643D01*
X8691714Y-17867357D01*
X8706000Y-17838786D01*
X8720286Y-17824500D01*
X8748857Y-17810214D01*
X8806000Y-17810214D01*
X8834571Y-17824500D01*
X8848857Y-17838786D01*
X8863143Y-17867357D01*
X8863143Y-17881643D01*
X8848857Y-17910214D01*
X8834571Y-17924500D01*
X8806000Y-17938786D01*
X8748857Y-17938786D01*
X8720286Y-17953072D01*
X8706000Y-17967357D01*
X8691714Y-17995929D01*
X8691714Y-18053072D01*
X8706000Y-18081643D01*
X8720286Y-18095929D01*
X8748857Y-18110214D01*
X8806000Y-18110214D01*
X8834571Y-18095929D01*
X8848857Y-18081643D01*
X8863143Y-18053072D01*
X8863143Y-17995929D01*
X8848857Y-17967357D01*
X8834571Y-17953072D01*
X8806000Y-17938786D01*
X9048857Y-17810214D02*
X9077428Y-17810214D01*
X9106000Y-17824500D01*
X9120286Y-17838786D01*
X9134571Y-17867357D01*
X9148857Y-17924500D01*
X9148857Y-17995929D01*
X9134571Y-18053072D01*
X9120286Y-18081643D01*
X9106000Y-18095929D01*
X9077428Y-18110214D01*
X9048857Y-18110214D01*
X9020286Y-18095929D01*
X9006000Y-18081643D01*
X8991714Y-18053072D01*
X8977428Y-17995929D01*
X8977428Y-17924500D01*
X8991714Y-17867357D01*
X9006000Y-17838786D01*
X9020286Y-17824500D01*
X9048857Y-17810214D01*
X9277428Y-18110214D02*
X9277428Y-17910214D01*
X9277428Y-17938786D02*
X9291714Y-17924500D01*
X9320286Y-17910214D01*
X9363143Y-17910214D01*
X9391714Y-17924500D01*
X9406000Y-17953072D01*
X9406000Y-18110214D01*
X9406000Y-17953072D02*
X9420286Y-17924500D01*
X9448857Y-17910214D01*
X9491714Y-17910214D01*
X9520286Y-17924500D01*
X9534571Y-17953072D01*
X9534571Y-18110214D01*
X9677428Y-18110214D02*
X9677428Y-17910214D01*
X9677428Y-17938786D02*
X9691714Y-17924500D01*
X9720286Y-17910214D01*
X9763143Y-17910214D01*
X9791714Y-17924500D01*
X9806000Y-17953072D01*
X9806000Y-18110214D01*
X9806000Y-17953072D02*
X9820286Y-17924500D01*
X9848857Y-17910214D01*
X9891714Y-17910214D01*
X9920286Y-17924500D01*
X9934571Y-17953072D01*
X9934571Y-18110214D01*
X10520286Y-17795929D02*
X10263143Y-18181643D01*
X10906000Y-17810214D02*
X10934571Y-17810214D01*
X10963143Y-17824500D01*
X10977428Y-17838786D01*
X10991714Y-17867357D01*
X11006000Y-17924500D01*
X11006000Y-17995929D01*
X10991714Y-18053072D01*
X10977428Y-18081643D01*
X10963143Y-18095929D01*
X10934571Y-18110214D01*
X10906000Y-18110214D01*
X10877428Y-18095929D01*
X10863143Y-18081643D01*
X10848857Y-18053072D01*
X10834571Y-17995929D01*
X10834571Y-17924500D01*
X10848857Y-17867357D01*
X10863143Y-17838786D01*
X10877428Y-17824500D01*
X10906000Y-17810214D01*
X11134571Y-18081643D02*
X11148857Y-18095929D01*
X11134571Y-18110214D01*
X11120286Y-18095929D01*
X11134571Y-18081643D01*
X11134571Y-18110214D01*
X11434571Y-18110214D02*
X11263143Y-18110214D01*
X11348857Y-18110214D02*
X11348857Y-17810214D01*
X11320286Y-17853072D01*
X11291714Y-17881643D01*
X11263143Y-17895929D01*
X11606000Y-17938786D02*
X11577428Y-17924500D01*
X11563143Y-17910214D01*
X11548857Y-17881643D01*
X11548857Y-17867357D01*
X11563143Y-17838786D01*
X11577428Y-17824500D01*
X11606000Y-17810214D01*
X11663143Y-17810214D01*
X11691714Y-17824500D01*
X11706000Y-17838786D01*
X11720286Y-17867357D01*
X11720286Y-17881643D01*
X11706000Y-17910214D01*
X11691714Y-17924500D01*
X11663143Y-17938786D01*
X11606000Y-17938786D01*
X11577428Y-17953072D01*
X11563143Y-17967357D01*
X11548857Y-17995929D01*
X11548857Y-18053072D01*
X11563143Y-18081643D01*
X11577428Y-18095929D01*
X11606000Y-18110214D01*
X11663143Y-18110214D01*
X11691714Y-18095929D01*
X11706000Y-18081643D01*
X11720286Y-18053072D01*
X11720286Y-17995929D01*
X11706000Y-17967357D01*
X11691714Y-17953072D01*
X11663143Y-17938786D01*
X11863143Y-18110214D02*
X11920286Y-18110214D01*
X11948857Y-18095929D01*
X11963143Y-18081643D01*
X11991714Y-18038786D01*
X12006000Y-17981643D01*
X12006000Y-17867357D01*
X11991714Y-17838786D01*
X11977428Y-17824500D01*
X11948857Y-17810214D01*
X11891714Y-17810214D01*
X11863143Y-17824500D01*
X11848857Y-17838786D01*
X11834571Y-17867357D01*
X11834571Y-17938786D01*
X11848857Y-17967357D01*
X11863143Y-17981643D01*
X11891714Y-17995929D01*
X11948857Y-17995929D01*
X11977428Y-17981643D01*
X11991714Y-17967357D01*
X12006000Y-17938786D01*
X12120286Y-17810214D02*
X12120286Y-17867357D01*
X12234571Y-17810214D02*
X12234571Y-17867357D01*
X12677428Y-18224500D02*
X12663143Y-18210214D01*
X12634571Y-18167357D01*
X12620286Y-18138786D01*
X12606000Y-18095929D01*
X12591714Y-18024500D01*
X12591714Y-17967357D01*
X12606000Y-17895929D01*
X12620286Y-17853072D01*
X12634571Y-17824500D01*
X12663143Y-17781643D01*
X12677428Y-17767357D01*
X12934571Y-17810214D02*
X12791714Y-17810214D01*
X12777428Y-17953072D01*
X12791714Y-17938786D01*
X12820286Y-17924500D01*
X12891714Y-17924500D01*
X12920286Y-17938786D01*
X12934571Y-17953072D01*
X12948857Y-17981643D01*
X12948857Y-18053072D01*
X12934571Y-18081643D01*
X12920286Y-18095929D01*
X12891714Y-18110214D01*
X12820286Y-18110214D01*
X12791714Y-18095929D01*
X12777428Y-18081643D01*
X13306000Y-18110214D02*
X13306000Y-17810214D01*
X13434571Y-18110214D02*
X13434571Y-17953072D01*
X13420286Y-17924500D01*
X13391714Y-17910214D01*
X13348857Y-17910214D01*
X13320286Y-17924500D01*
X13306000Y-17938786D01*
X13620286Y-18110214D02*
X13591714Y-18095929D01*
X13577428Y-18081643D01*
X13563143Y-18053072D01*
X13563143Y-17967357D01*
X13577428Y-17938786D01*
X13591714Y-17924500D01*
X13620286Y-17910214D01*
X13663143Y-17910214D01*
X13691714Y-17924500D01*
X13706000Y-17938786D01*
X13720286Y-17967357D01*
X13720286Y-18053072D01*
X13706000Y-18081643D01*
X13691714Y-18095929D01*
X13663143Y-18110214D01*
X13620286Y-18110214D01*
X13891714Y-18110214D02*
X13863143Y-18095929D01*
X13848857Y-18067357D01*
X13848857Y-17810214D01*
X14120286Y-18095929D02*
X14091714Y-18110214D01*
X14034571Y-18110214D01*
X14006000Y-18095929D01*
X13991714Y-18067357D01*
X13991714Y-17953072D01*
X14006000Y-17924500D01*
X14034571Y-17910214D01*
X14091714Y-17910214D01*
X14120286Y-17924500D01*
X14134571Y-17953072D01*
X14134571Y-17981643D01*
X13991714Y-18010214D01*
X14248857Y-18095929D02*
X14277428Y-18110214D01*
X14334571Y-18110214D01*
X14363143Y-18095929D01*
X14377428Y-18067357D01*
X14377428Y-18053072D01*
X14363143Y-18024500D01*
X14334571Y-18010214D01*
X14291714Y-18010214D01*
X14263143Y-17995929D01*
X14248857Y-17967357D01*
X14248857Y-17953072D01*
X14263143Y-17924500D01*
X14291714Y-17910214D01*
X14334571Y-17910214D01*
X14363143Y-17924500D01*
X14477428Y-18224500D02*
X14491714Y-18210214D01*
X14520286Y-18167357D01*
X14534571Y-18138786D01*
X14548857Y-18095929D01*
X14563143Y-18024500D01*
X14563143Y-17967357D01*
X14548857Y-17895929D01*
X14534571Y-17853072D01*
X14520286Y-17824500D01*
X14491714Y-17781643D01*
X14477428Y-17767357D01*
X15020286Y-18224500D02*
X15006000Y-18210214D01*
X14977428Y-18167357D01*
X14963143Y-18138786D01*
X14948857Y-18095929D01*
X14934571Y-18024500D01*
X14934571Y-17967357D01*
X14948857Y-17895929D01*
X14963143Y-17853072D01*
X14977428Y-17824500D01*
X15006000Y-17781643D01*
X15020286Y-17767357D01*
X15134571Y-17910214D02*
X15134571Y-18110214D01*
X15134571Y-17938786D02*
X15148857Y-17924500D01*
X15177428Y-17910214D01*
X15220286Y-17910214D01*
X15248857Y-17924500D01*
X15263143Y-17953072D01*
X15263143Y-18110214D01*
X15448857Y-18110214D02*
X15420286Y-18095929D01*
X15406000Y-18081643D01*
X15391714Y-18053072D01*
X15391714Y-17967357D01*
X15406000Y-17938786D01*
X15420286Y-17924500D01*
X15448857Y-17910214D01*
X15491714Y-17910214D01*
X15520286Y-17924500D01*
X15534571Y-17938786D01*
X15548857Y-17967357D01*
X15548857Y-18053072D01*
X15534571Y-18081643D01*
X15520286Y-18095929D01*
X15491714Y-18110214D01*
X15448857Y-18110214D01*
X15634571Y-17910214D02*
X15748857Y-17910214D01*
X15677428Y-17810214D02*
X15677428Y-18067357D01*
X15691714Y-18095929D01*
X15720286Y-18110214D01*
X15748857Y-18110214D01*
X16077428Y-17910214D02*
X16077428Y-18210214D01*
X16077428Y-17924500D02*
X16106000Y-17910214D01*
X16163143Y-17910214D01*
X16191714Y-17924500D01*
X16206000Y-17938786D01*
X16220286Y-17967357D01*
X16220286Y-18053072D01*
X16206000Y-18081643D01*
X16191714Y-18095929D01*
X16163143Y-18110214D01*
X16106000Y-18110214D01*
X16077428Y-18095929D01*
X16391714Y-18110214D02*
X16363143Y-18095929D01*
X16348857Y-18067357D01*
X16348857Y-17810214D01*
X16634571Y-18110214D02*
X16634571Y-17953072D01*
X16620286Y-17924500D01*
X16591714Y-17910214D01*
X16534571Y-17910214D01*
X16506000Y-17924500D01*
X16634571Y-18095929D02*
X16606000Y-18110214D01*
X16534571Y-18110214D01*
X16506000Y-18095929D01*
X16491714Y-18067357D01*
X16491714Y-18038786D01*
X16506000Y-18010214D01*
X16534571Y-17995929D01*
X16606000Y-17995929D01*
X16634571Y-17981643D01*
X16734571Y-17910214D02*
X16848857Y-17910214D01*
X16777428Y-17810214D02*
X16777428Y-18067357D01*
X16791714Y-18095929D01*
X16820286Y-18110214D01*
X16848857Y-18110214D01*
X17063143Y-18095929D02*
X17034571Y-18110214D01*
X16977428Y-18110214D01*
X16948857Y-18095929D01*
X16934571Y-18067357D01*
X16934571Y-17953072D01*
X16948857Y-17924500D01*
X16977428Y-17910214D01*
X17034571Y-17910214D01*
X17063143Y-17924500D01*
X17077428Y-17953072D01*
X17077428Y-17981643D01*
X16934571Y-18010214D01*
X17334571Y-18110214D02*
X17334571Y-17810214D01*
X17334571Y-18095929D02*
X17306000Y-18110214D01*
X17248857Y-18110214D01*
X17220286Y-18095929D01*
X17206000Y-18081643D01*
X17191714Y-18053072D01*
X17191714Y-17967357D01*
X17206000Y-17938786D01*
X17220286Y-17924500D01*
X17248857Y-17910214D01*
X17306000Y-17910214D01*
X17334571Y-17924500D01*
X17448857Y-18224500D02*
X17463143Y-18210214D01*
X17491714Y-18167357D01*
X17506000Y-18138786D01*
X17520286Y-18095929D01*
X17534571Y-18024500D01*
X17534571Y-17967357D01*
X17520286Y-17895929D01*
X17506000Y-17853072D01*
X17491714Y-17824500D01*
X17463143Y-17781643D01*
X17448857Y-17767357D01*
M02*
