M48
;DRILL file {KiCad 5.0.2+dfsg1-1~bpo9+1} date 2019年02月28日 23時48分49秒
;FORMAT={-:-/ absolute / metric / decimal}
FMAT,2
METRIC,TZ
T1C0.400
T2C0.813
T3C1.000
T4C1.300
%
G90
G05
T1
X79.375Y-89.535
X80.63Y-88.28
X80.645Y-98.425
X81.915Y-97.155
X82.55Y-73.66
X82.55Y-76.2
X82.55Y-80.01
X82.55Y-81.915
X84.455Y-86.36
X90.17Y-86.36
X92.71Y-73.66
X92.71Y-82.55
X92.71Y-86.36
X93.345Y-62.865
X94.615Y-61.595
X94.615Y-88.265
X94.63Y-71.74
X95.885Y-70.485
X96.52Y-85.09
X98.425Y-73.025
X98.425Y-89.535
X99.68Y-88.28
X99.695Y-74.93
X99.695Y-98.425
X100.965Y-97.155
X101.6Y-73.66
X101.6Y-76.2
X101.6Y-80.01
X101.6Y-81.915
X102.87Y-72.39
X103.505Y-86.36
X109.855Y-86.36
X110.49Y-72.39
X111.76Y-73.66
X111.76Y-74.93
X111.76Y-82.55
X111.76Y-86.36
X112.395Y-62.865
X113.665Y-61.595
X113.665Y-73.025
X113.665Y-88.265
X113.68Y-71.74
X114.935Y-70.485
X115.57Y-85.09
X117.475Y-89.535
X118.11Y-73.025
X118.73Y-88.28
X118.745Y-74.93
X118.745Y-98.425
X120.015Y-97.155
X120.65Y-73.66
X120.65Y-77.47
X120.65Y-80.645
X120.65Y-81.915
X122.555Y-86.36
X123.19Y-72.39
X125.73Y-76.2
X128.905Y-86.36
X130.175Y-72.39
X130.81Y-73.66
X130.81Y-74.93
X130.81Y-82.55
X130.81Y-86.36
X131.445Y-62.865
X132.715Y-61.595
X132.715Y-73.025
X132.715Y-88.265
X132.73Y-71.74
X133.985Y-70.485
X133.985Y-77.47
X134.62Y-85.09
X136.525Y-89.535
X137.16Y-72.39
X137.78Y-88.28
X137.795Y-74.93
X137.795Y-98.425
X139.065Y-97.155
X139.7Y-73.66
X139.7Y-78.105
X139.7Y-80.01
X139.7Y-81.915
X142.24Y-86.36
X142.875Y-73.025
X142.875Y-125.73
X143.51Y-80.01
X145.415Y-125.73
X147.32Y-86.36
X147.955Y-74.295
X149.86Y-73.66
X149.86Y-74.93
X149.86Y-82.55
X149.86Y-86.36
X150.495Y-62.865
X151.13Y-125.73
X151.765Y-61.595
X151.765Y-73.025
X151.765Y-88.265
X151.78Y-71.74
X153.035Y-70.485
X153.035Y-114.935
X153.67Y-85.09
X153.67Y-93.98
X154.94Y-98.425
X155.575Y-85.09
X155.575Y-89.535
X156.21Y-73.025
X156.83Y-88.28
X156.845Y-74.93
X156.845Y-98.425
X156.845Y-123.19
X157.48Y-82.55
X158.115Y-97.155
X158.75Y-73.66
X158.75Y-78.105
X158.75Y-80.01
X158.75Y-81.915
X158.75Y-84.455
X158.75Y-120.015
X161.29Y-72.39
X161.29Y-114.935
X161.925Y-86.36
X165.1Y-128.905
X166.37Y-80.01
X166.37Y-81.28
X167.005Y-86.36
X167.005Y-128.905
X167.64Y-72.39
X167.64Y-100.33
X168.91Y-73.66
X168.91Y-74.93
X168.91Y-82.55
X168.91Y-86.36
X169.545Y-62.865
X170.18Y-115.57
X170.815Y-61.595
X170.815Y-88.265
X170.83Y-71.74
X171.45Y-73.025
X172.085Y-70.485
X172.72Y-85.09
X172.72Y-128.905
X173.355Y-95.25
X174.625Y-72.39
X174.625Y-85.09
X174.625Y-89.535
X174.625Y-115.57
X175.26Y-118.11
X175.895Y-74.93
X175.895Y-83.185
X175.895Y-88.265
X175.895Y-98.425
X175.895Y-100.33
X176.53Y-79.375
X176.53Y-81.28
X176.53Y-104.14
X177.165Y-97.155
X177.8Y-73.66
X177.8Y-81.915
X177.8Y-128.27
X179.07Y-115.57
X179.705Y-72.39
X179.705Y-104.14
X179.705Y-123.19
X180.34Y-76.2
X180.34Y-86.36
X180.975Y-135.89
X181.61Y-107.95
X182.245Y-118.745
X182.88Y-86.36
X183.515Y-109.855
X183.515Y-125.73
X183.515Y-129.54
X184.15Y-76.835
X184.15Y-85.09
X185.42Y-83.82
X185.42Y-132.715
X186.055Y-75.565
X186.055Y-78.74
X186.055Y-82.55
X186.055Y-86.36
X186.69Y-72.39
X187.325Y-114.935
X187.325Y-132.08
X187.96Y-73.66
X187.96Y-74.93
X187.96Y-108.585
X188.595Y-62.865
X189.865Y-61.595
X189.865Y-88.9
X189.865Y-132.08
X189.88Y-71.74
X190.5Y-73.025
X190.5Y-78.105
X190.5Y-80.01
X190.5Y-82.55
X191.135Y-70.485
X191.135Y-86.995
X191.77Y-81.915
X191.77Y-106.045
X192.405Y-73.66
X192.405Y-76.835
X192.405Y-83.82
X193.04Y-79.375
X193.675Y-74.295
X193.675Y-102.235
X193.675Y-115.57
X194.31Y-67.945
X194.31Y-69.85
X194.31Y-85.09
X194.945Y-78.105
X194.945Y-90.805
X194.945Y-104.775
X194.945Y-119.38
X194.945Y-132.08
X195.58Y-76.835
X196.85Y-74.93
X196.85Y-78.74
X197.485Y-106.045
X197.485Y-110.49
X197.485Y-121.285
X197.739Y-87.63
X198.12Y-71.12
X198.12Y-77.47
X198.755Y-99.695
X199.39Y-62.23
X199.39Y-76.2
X199.39Y-108.585
X199.39Y-136.525
X200.025Y-112.395
X203.2Y-99.06
X203.2Y-121.92
X204.47Y-113.03
X205.105Y-105.41
X205.613Y-64.897
X206.375Y-74.93
X206.375Y-94.615
X207.01Y-97.79
X207.01Y-117.475
X208.28Y-69.85
X208.28Y-92.71
X208.28Y-108.585
X208.28Y-112.395
X208.915Y-61.595
X208.915Y-74.93
X208.915Y-87.63
X208.915Y-90.17
X208.915Y-106.045
X210.185Y-69.215
X210.185Y-86.36
X210.185Y-88.9
X210.185Y-90.805
X210.82Y-73.025
X210.82Y-110.49
X212.09Y-67.945
X212.09Y-85.725
X212.725Y-80.645
X212.725Y-83.185
X212.725Y-93.98
X213.36Y-106.045
X213.868Y-77.597
X213.995Y-79.375
X213.995Y-81.915
X213.995Y-84.455
X213.995Y-101.6
X214.63Y-67.945
X215.265Y-116.205
X216.535Y-95.25
X219.075Y-95.25
X219.075Y-110.49
T2
X99.06Y-61.595
X106.68Y-61.595
X88.265Y-98.425
X95.885Y-98.425
X148.59Y-131.445
X156.21Y-131.445
X126.365Y-98.425
X133.985Y-98.425
X145.415Y-98.425
X153.035Y-98.425
X118.11Y-61.595
X125.73Y-61.595
X181.61Y-125.73
X181.61Y-133.35
X107.315Y-98.425
X114.935Y-98.425
X175.26Y-61.595
X182.88Y-61.595
X200.025Y-97.155
X200.025Y-102.235
X197.485Y-97.155
X197.485Y-102.235
X205.74Y-103.505
X80.01Y-61.595
X87.63Y-61.595
X205.74Y-99.695
X164.465Y-98.425
X172.085Y-98.425
X183.645Y-98.425
X191.265Y-98.425
X167.64Y-134.62
X175.26Y-134.62
X137.16Y-61.595
X144.78Y-61.595
X201.93Y-64.897
X201.93Y-67.437
X201.93Y-69.977
X201.93Y-72.517
X201.93Y-75.057
X201.93Y-77.597
X201.93Y-80.137
X201.93Y-82.677
X201.93Y-85.217
X201.93Y-87.757
X201.93Y-90.297
X201.93Y-92.837
X203.256Y-63.627
X203.256Y-66.167
X203.256Y-68.707
X203.256Y-71.247
X203.256Y-73.787
X203.256Y-76.327
X203.256Y-78.867
X203.256Y-81.407
X203.256Y-83.947
X203.256Y-86.487
X203.256Y-89.027
X203.256Y-91.567
X217.17Y-64.897
X217.17Y-67.437
X217.17Y-69.977
X217.17Y-72.517
X217.17Y-75.057
X217.17Y-77.597
X217.17Y-80.137
X217.17Y-82.677
X217.17Y-85.217
X217.17Y-87.757
X217.17Y-90.297
X217.17Y-92.837
X218.476Y-63.627
X218.476Y-66.167
X218.476Y-68.707
X218.476Y-71.247
X218.476Y-73.787
X218.476Y-76.327
X218.476Y-78.867
X218.476Y-81.407
X218.476Y-83.947
X218.476Y-86.487
X218.476Y-89.027
X218.476Y-91.567
X156.21Y-61.595
X163.83Y-61.595
T4
X219.075Y-107.24
X219.075Y-113.74
T3
X209.43Y-99.5G85X208.93Y-99.5
G05
X209.43Y-101.95G85X208.93Y-101.95
G05
X210.93Y-97.75G85X210.43Y-97.75
G05
X210.93Y-103.7G85X210.43Y-103.7
G05
X214.93Y-97.75G85X214.43Y-97.75
G05
X214.93Y-103.7G85X214.43Y-103.7
G05
X217.93Y-97.75G85X217.43Y-97.75
G05
X217.93Y-103.7G85X217.43Y-103.7
G05
T0
M30
