  0
SECTION
  2
HEADER
  9
$ANGBASE
  50
0.0
  9
$ANGDIR
  70
  1
  9
$MEASUREMENT
  70
0
  0
ENDSEC
  0
SECTION
  2
TABLES
  0
TABLE
  2
LTYPE
  70
4
  0
LTYPE
  5
40F
  2
CONTINUOUS
  70
0
  3
Solid line
  72
65
  73
0
  40
0.0
  0
LTYPE
  5
410
  2
DASHDOT
 70
0
  3
Dash Dot ____ _ ____ _
 72
65
 73
4
 40
2.0
 49
1.25
 49
-0.25
 49
0.25
 49
-0.25
  0
LTYPE
  5
411
  2
DASHED
 70
0
  3
Dashed __ __ __ __ __
 72
65
 73
2
 40
0.75
 49
0.5
 49
-0.25
  0
LTYPE
  5
43B
  2
DOTTED
 70
0
  3
Dotted .  .  .  .
 72
65
 73
2
 40
0.2
 49
0.0
 49
-0.2
  0
ENDTAB
  0
TABLE
  2
STYLE
  70
4
  0
STYLE
  2
KICAD
  70
0
  40
0
  41
1
  42
1
  50
0
  71
0
  3
isocp.shx
  0
STYLE
  2
KICADB
  70
0
  40
0
  41
1
  42
1
  50
0
  71
0
  3
isocp.shx
  0
STYLE
  2
KICADI
  70
0
  40
0
  41
1
  42
1
  50
15
  71
0
  3
isocp.shx
  0
STYLE
  2
KICADBI
  70
0
  40
0
  41
1
  42
1
  50
15
  71
0
  3
isocp.shx
  0
ENDTAB
  0
TABLE
  2
LAYER
  70
30
  0
LAYER
  2
BLACK
  70
0
  62
7
  6
CONTINUOUS
  0
LAYER
  2
GRAY1
  70
0
  62
251
  6
CONTINUOUS
  0
LAYER
  2
GRAY2
  70
0
  62
8
  6
CONTINUOUS
  0
LAYER
  2
GRAY3
  70
0
  62
9
  6
CONTINUOUS
  0
LAYER
  2
WHITE
  70
0
  62
7
  6
CONTINUOUS
  0
LAYER
  2
LYELLOW
  70
0
  62
51
  6
CONTINUOUS
  0
LAYER
  2
BLUE1
  70
0
  62
178
  6
CONTINUOUS
  0
LAYER
  2
GREEN1
  70
0
  62
98
  6
CONTINUOUS
  0
LAYER
  2
CYAN1
  70
0
  62
138
  6
CONTINUOUS
  0
LAYER
  2
RED1
  70
0
  62
18
  6
CONTINUOUS
  0
LAYER
  2
MAGENTA1
  70
0
  62
228
  6
CONTINUOUS
  0
LAYER
  2
BROWN1
  70
0
  62
58
  6
CONTINUOUS
  0
LAYER
  2
BLUE2
  70
0
  62
5
  6
CONTINUOUS
  0
LAYER
  2
GREEN2
  70
0
  62
3
  6
CONTINUOUS
  0
LAYER
  2
CYAN2
  70
0
  62
4
  6
CONTINUOUS
  0
LAYER
  2
RED2
  70
0
  62
1
  6
CONTINUOUS
  0
LAYER
  2
MAGENTA2
  70
0
  62
6
  6
CONTINUOUS
  0
LAYER
  2
BROWN2
  70
0
  62
54
  6
CONTINUOUS
  0
LAYER
  2
BLUE3
  70
0
  62
171
  6
CONTINUOUS
  0
LAYER
  2
GREEN3
  70
0
  62
91
  6
CONTINUOUS
  0
LAYER
  2
CYAN3
  70
0
  62
131
  6
CONTINUOUS
  0
LAYER
  2
RED3
  70
0
  62
11
  6
CONTINUOUS
  0
LAYER
  2
MAGENTA3
  70
0
  62
221
  6
CONTINUOUS
  0
LAYER
  2
YELLOW3
  70
0
  62
2
  6
CONTINUOUS
  0
LAYER
  2
BLUE4
  70
0
  62
5
  6
CONTINUOUS
  0
LAYER
  2
GREEN4
  70
0
  62
3
  6
CONTINUOUS
  0
LAYER
  2
CYAN4
  70
0
  62
4
  6
CONTINUOUS
  0
LAYER
  2
RED4
  70
0
  62
1
  6
CONTINUOUS
  0
LAYER
  2
MAGENTA4
  70
0
  62
6
  6
CONTINUOUS
  0
LAYER
  2
YELLOW4
  70
0
  62
2
  6
CONTINUOUS
  0
ENDTAB
  0
ENDSEC
  0
SECTION
  2
ENTITIES
0
LINE
8
BLACK
6
CONTINUOUS
10
177.002
20
-166.007
11
177.002
21
-198.007
0
LINE
8
BLACK
6
CONTINUOUS
10
177.002
20
-198.007
11
285.002
21
-198.007
0
LINE
8
BLACK
6
CONTINUOUS
10
285.002
20
-198.007
11
285.002
21
-166.007
0
LINE
8
BLACK
6
CONTINUOUS
10
285.002
20
-166.007
11
177.002
21
-166.007
0
LINE
8
BLACK
6
CONTINUOUS
10
10
20
-10
11
10
21
-200.007
0
LINE
8
BLACK
6
CONTINUOUS
10
10
20
-200.007
11
287.002
21
-200.007
0
LINE
8
BLACK
6
CONTINUOUS
10
287.002
20
-200.007
11
287.002
21
-10
0
LINE
8
BLACK
6
CONTINUOUS
10
287.002
20
-10
11
10
21
-10
0
LINE
8
BLACK
6
CONTINUOUS
10
12
20
-12
11
12
21
-198.007
0
LINE
8
BLACK
6
CONTINUOUS
10
12
20
-198.007
11
285.002
21
-198.007
0
LINE
8
BLACK
6
CONTINUOUS
10
285.002
20
-198.007
11
285.002
21
-12
0
LINE
8
BLACK
6
CONTINUOUS
10
285.002
20
-12
11
12
21
-12
0
LINE
8
BLACK
6
CONTINUOUS
10
60
20
-12
11
60
21
-10
0
LINE
8
BLACK
6
CONTINUOUS
10
110
20
-12
11
110
21
-10
0
LINE
8
BLACK
6
CONTINUOUS
10
160
20
-12
11
160
21
-10
0
LINE
8
BLACK
6
CONTINUOUS
10
210
20
-12
11
210
21
-10
0
LINE
8
BLACK
6
CONTINUOUS
10
260
20
-12
11
260
21
-10
0
LINE
8
BLACK
6
CONTINUOUS
10
36.0655
20
-11.5881
11
35.3226
21
-11.5881
0
LINE
8
BLACK
6
CONTINUOUS
10
35.694
20
-11.5881
11
35.694
21
-10.2881
0
LINE
8
BLACK
6
CONTINUOUS
10
35.694
20
-10.2881
11
35.5702
21
-10.4738
0
LINE
8
BLACK
6
CONTINUOUS
10
35.5702
20
-10.4738
11
35.4464
21
-10.5976
0
LINE
8
BLACK
6
CONTINUOUS
10
35.4464
20
-10.5976
11
35.3226
21
-10.6595
0
LINE
8
BLACK
6
CONTINUOUS
10
85.3226
20
-10.4119
11
85.3845
21
-10.35
0
LINE
8
BLACK
6
CONTINUOUS
10
85.3845
20
-10.35
11
85.5083
21
-10.2881
0
LINE
8
BLACK
6
CONTINUOUS
10
85.5083
20
-10.2881
11
85.8179
21
-10.2881
0
LINE
8
BLACK
6
CONTINUOUS
10
85.8179
20
-10.2881
11
85.9417
21
-10.35
0
LINE
8
BLACK
6
CONTINUOUS
10
85.9417
20
-10.35
11
86.0036
21
-10.4119
0
LINE
8
BLACK
6
CONTINUOUS
10
86.0036
20
-10.4119
11
86.0655
21
-10.5357
0
LINE
8
BLACK
6
CONTINUOUS
10
86.0655
20
-10.5357
11
86.0655
21
-10.6595
0
LINE
8
BLACK
6
CONTINUOUS
10
86.0655
20
-10.6595
11
86.0036
21
-10.8452
0
LINE
8
BLACK
6
CONTINUOUS
10
86.0036
20
-10.8452
11
85.2607
21
-11.5881
0
LINE
8
BLACK
6
CONTINUOUS
10
85.2607
20
-11.5881
11
86.0655
21
-11.5881
0
LINE
8
BLACK
6
CONTINUOUS
10
135.261
20
-10.2881
11
136.065
21
-10.2881
0
LINE
8
BLACK
6
CONTINUOUS
10
136.065
20
-10.2881
11
135.632
21
-10.7833
0
LINE
8
BLACK
6
CONTINUOUS
10
135.632
20
-10.7833
11
135.818
21
-10.7833
0
LINE
8
BLACK
6
CONTINUOUS
10
135.818
20
-10.7833
11
135.942
21
-10.8452
0
LINE
8
BLACK
6
CONTINUOUS
10
135.942
20
-10.8452
11
136.004
21
-10.9071
0
LINE
8
BLACK
6
CONTINUOUS
10
136.004
20
-10.9071
11
136.065
21
-11.031
0
LINE
8
BLACK
6
CONTINUOUS
10
136.065
20
-11.031
11
136.065
21
-11.3405
0
LINE
8
BLACK
6
CONTINUOUS
10
136.065
20
-11.3405
11
136.004
21
-11.4643
0
LINE
8
BLACK
6
CONTINUOUS
10
136.004
20
-11.4643
11
135.942
21
-11.5262
0
LINE
8
BLACK
6
CONTINUOUS
10
135.942
20
-11.5262
11
135.818
21
-11.5881
0
LINE
8
BLACK
6
CONTINUOUS
10
135.818
20
-11.5881
11
135.446
21
-11.5881
0
LINE
8
BLACK
6
CONTINUOUS
10
135.446
20
-11.5881
11
135.323
21
-11.5262
0
LINE
8
BLACK
6
CONTINUOUS
10
135.323
20
-11.5262
11
135.261
21
-11.4643
0
LINE
8
BLACK
6
CONTINUOUS
10
185.942
20
-10.7214
11
185.942
21
-11.5881
0
LINE
8
BLACK
6
CONTINUOUS
10
185.632
20
-10.2262
11
185.323
21
-11.1548
0
LINE
8
BLACK
6
CONTINUOUS
10
185.323
20
-11.1548
11
186.127
21
-11.1548
0
LINE
8
BLACK
6
CONTINUOUS
10
236.004
20
-10.2881
11
235.385
21
-10.2881
0
LINE
8
BLACK
6
CONTINUOUS
10
235.385
20
-10.2881
11
235.323
21
-10.9071
0
LINE
8
BLACK
6
CONTINUOUS
10
235.323
20
-10.9071
11
235.385
21
-10.8452
0
LINE
8
BLACK
6
CONTINUOUS
10
235.385
20
-10.8452
11
235.508
21
-10.7833
0
LINE
8
BLACK
6
CONTINUOUS
10
235.508
20
-10.7833
11
235.818
21
-10.7833
0
LINE
8
BLACK
6
CONTINUOUS
10
235.818
20
-10.7833
11
235.942
21
-10.8452
0
LINE
8
BLACK
6
CONTINUOUS
10
235.942
20
-10.8452
11
236.004
21
-10.9071
0
LINE
8
BLACK
6
CONTINUOUS
10
236.004
20
-10.9071
11
236.065
21
-11.031
0
LINE
8
BLACK
6
CONTINUOUS
10
236.065
20
-11.031
11
236.065
21
-11.3405
0
LINE
8
BLACK
6
CONTINUOUS
10
236.065
20
-11.3405
11
236.004
21
-11.4643
0
LINE
8
BLACK
6
CONTINUOUS
10
236.004
20
-11.4643
11
235.942
21
-11.5262
0
LINE
8
BLACK
6
CONTINUOUS
10
235.942
20
-11.5262
11
235.818
21
-11.5881
0
LINE
8
BLACK
6
CONTINUOUS
10
235.818
20
-11.5881
11
235.508
21
-11.5881
0
LINE
8
BLACK
6
CONTINUOUS
10
235.508
20
-11.5881
11
235.385
21
-11.5262
0
LINE
8
BLACK
6
CONTINUOUS
10
235.385
20
-11.5262
11
235.323
21
-11.4643
0
LINE
8
BLACK
6
CONTINUOUS
10
285.942
20
-10.2881
11
285.694
21
-10.2881
0
LINE
8
BLACK
6
CONTINUOUS
10
285.694
20
-10.2881
11
285.57
21
-10.35
0
LINE
8
BLACK
6
CONTINUOUS
10
285.57
20
-10.35
11
285.508
21
-10.4119
0
LINE
8
BLACK
6
CONTINUOUS
10
285.508
20
-10.4119
11
285.385
21
-10.5976
0
LINE
8
BLACK
6
CONTINUOUS
10
285.385
20
-10.5976
11
285.323
21
-10.8452
0
LINE
8
BLACK
6
CONTINUOUS
10
285.323
20
-10.8452
11
285.323
21
-11.3405
0
LINE
8
BLACK
6
CONTINUOUS
10
285.323
20
-11.3405
11
285.385
21
-11.4643
0
LINE
8
BLACK
6
CONTINUOUS
10
285.385
20
-11.4643
11
285.446
21
-11.5262
0
LINE
8
BLACK
6
CONTINUOUS
10
285.446
20
-11.5262
11
285.57
21
-11.5881
0
LINE
8
BLACK
6
CONTINUOUS
10
285.57
20
-11.5881
11
285.818
21
-11.5881
0
LINE
8
BLACK
6
CONTINUOUS
10
285.818
20
-11.5881
11
285.942
21
-11.5262
0
LINE
8
BLACK
6
CONTINUOUS
10
285.942
20
-11.5262
11
286.004
21
-11.4643
0
LINE
8
BLACK
6
CONTINUOUS
10
286.004
20
-11.4643
11
286.065
21
-11.3405
0
LINE
8
BLACK
6
CONTINUOUS
10
286.065
20
-11.3405
11
286.065
21
-11.031
0
LINE
8
BLACK
6
CONTINUOUS
10
286.065
20
-11.031
11
286.004
21
-10.9071
0
LINE
8
BLACK
6
CONTINUOUS
10
286.004
20
-10.9071
11
285.942
21
-10.8452
0
LINE
8
BLACK
6
CONTINUOUS
10
285.942
20
-10.8452
11
285.818
21
-10.7833
0
LINE
8
BLACK
6
CONTINUOUS
10
285.818
20
-10.7833
11
285.57
21
-10.7833
0
LINE
8
BLACK
6
CONTINUOUS
10
285.57
20
-10.7833
11
285.446
21
-10.8452
0
LINE
8
BLACK
6
CONTINUOUS
10
285.446
20
-10.8452
11
285.385
21
-10.9071
0
LINE
8
BLACK
6
CONTINUOUS
10
285.385
20
-10.9071
11
285.323
21
-11.031
0
LINE
8
BLACK
6
CONTINUOUS
10
60
20
-198.007
11
60
21
-200.007
0
LINE
8
BLACK
6
CONTINUOUS
10
110
20
-198.007
11
110
21
-200.007
0
LINE
8
BLACK
6
CONTINUOUS
10
160
20
-198.007
11
160
21
-200.007
0
LINE
8
BLACK
6
CONTINUOUS
10
210
20
-198.007
11
210
21
-200.007
0
LINE
8
BLACK
6
CONTINUOUS
10
260
20
-198.007
11
260
21
-200.007
0
LINE
8
BLACK
6
CONTINUOUS
10
36.0655
20
-199.595
11
35.3226
21
-199.595
0
LINE
8
BLACK
6
CONTINUOUS
10
35.694
20
-199.595
11
35.694
21
-198.295
0
LINE
8
BLACK
6
CONTINUOUS
10
35.694
20
-198.295
11
35.5702
21
-198.481
0
LINE
8
BLACK
6
CONTINUOUS
10
35.5702
20
-198.481
11
35.4464
21
-198.605
0
LINE
8
BLACK
6
CONTINUOUS
10
35.4464
20
-198.605
11
35.3226
21
-198.667
0
LINE
8
BLACK
6
CONTINUOUS
10
85.3226
20
-198.419
11
85.3845
21
-198.357
0
LINE
8
BLACK
6
CONTINUOUS
10
85.3845
20
-198.357
11
85.5083
21
-198.295
0
LINE
8
BLACK
6
CONTINUOUS
10
85.5083
20
-198.295
11
85.8179
21
-198.295
0
LINE
8
BLACK
6
CONTINUOUS
10
85.8179
20
-198.295
11
85.9417
21
-198.357
0
LINE
8
BLACK
6
CONTINUOUS
10
85.9417
20
-198.357
11
86.0036
21
-198.419
0
LINE
8
BLACK
6
CONTINUOUS
10
86.0036
20
-198.419
11
86.0655
21
-198.543
0
LINE
8
BLACK
6
CONTINUOUS
10
86.0655
20
-198.543
11
86.0655
21
-198.667
0
LINE
8
BLACK
6
CONTINUOUS
10
86.0655
20
-198.667
11
86.0036
21
-198.852
0
LINE
8
BLACK
6
CONTINUOUS
10
86.0036
20
-198.852
11
85.2607
21
-199.595
0
LINE
8
BLACK
6
CONTINUOUS
10
85.2607
20
-199.595
11
86.0655
21
-199.595
0
LINE
8
BLACK
6
CONTINUOUS
10
135.261
20
-198.295
11
136.065
21
-198.295
0
LINE
8
BLACK
6
CONTINUOUS
10
136.065
20
-198.295
11
135.632
21
-198.791
0
LINE
8
BLACK
6
CONTINUOUS
10
135.632
20
-198.791
11
135.818
21
-198.791
0
LINE
8
BLACK
6
CONTINUOUS
10
135.818
20
-198.791
11
135.942
21
-198.852
0
LINE
8
BLACK
6
CONTINUOUS
10
135.942
20
-198.852
11
136.004
21
-198.914
0
LINE
8
BLACK
6
CONTINUOUS
10
136.004
20
-198.914
11
136.065
21
-199.038
0
LINE
8
BLACK
6
CONTINUOUS
10
136.065
20
-199.038
11
136.065
21
-199.348
0
LINE
8
BLACK
6
CONTINUOUS
10
136.065
20
-199.348
11
136.004
21
-199.471
0
LINE
8
BLACK
6
CONTINUOUS
10
136.004
20
-199.471
11
135.942
21
-199.533
0
LINE
8
BLACK
6
CONTINUOUS
10
135.942
20
-199.533
11
135.818
21
-199.595
0
LINE
8
BLACK
6
CONTINUOUS
10
135.818
20
-199.595
11
135.446
21
-199.595
0
LINE
8
BLACK
6
CONTINUOUS
10
135.446
20
-199.595
11
135.323
21
-199.533
0
LINE
8
BLACK
6
CONTINUOUS
10
135.323
20
-199.533
11
135.261
21
-199.471
0
LINE
8
BLACK
6
CONTINUOUS
10
185.942
20
-198.729
11
185.942
21
-199.595
0
LINE
8
BLACK
6
CONTINUOUS
10
185.632
20
-198.233
11
185.323
21
-199.162
0
LINE
8
BLACK
6
CONTINUOUS
10
185.323
20
-199.162
11
186.127
21
-199.162
0
LINE
8
BLACK
6
CONTINUOUS
10
236.004
20
-198.295
11
235.385
21
-198.295
0
LINE
8
BLACK
6
CONTINUOUS
10
235.385
20
-198.295
11
235.323
21
-198.914
0
LINE
8
BLACK
6
CONTINUOUS
10
235.323
20
-198.914
11
235.385
21
-198.852
0
LINE
8
BLACK
6
CONTINUOUS
10
235.385
20
-198.852
11
235.508
21
-198.791
0
LINE
8
BLACK
6
CONTINUOUS
10
235.508
20
-198.791
11
235.818
21
-198.791
0
LINE
8
BLACK
6
CONTINUOUS
10
235.818
20
-198.791
11
235.942
21
-198.852
0
LINE
8
BLACK
6
CONTINUOUS
10
235.942
20
-198.852
11
236.004
21
-198.914
0
LINE
8
BLACK
6
CONTINUOUS
10
236.004
20
-198.914
11
236.065
21
-199.038
0
LINE
8
BLACK
6
CONTINUOUS
10
236.065
20
-199.038
11
236.065
21
-199.348
0
LINE
8
BLACK
6
CONTINUOUS
10
236.065
20
-199.348
11
236.004
21
-199.471
0
LINE
8
BLACK
6
CONTINUOUS
10
236.004
20
-199.471
11
235.942
21
-199.533
0
LINE
8
BLACK
6
CONTINUOUS
10
235.942
20
-199.533
11
235.818
21
-199.595
0
LINE
8
BLACK
6
CONTINUOUS
10
235.818
20
-199.595
11
235.508
21
-199.595
0
LINE
8
BLACK
6
CONTINUOUS
10
235.508
20
-199.595
11
235.385
21
-199.533
0
LINE
8
BLACK
6
CONTINUOUS
10
235.385
20
-199.533
11
235.323
21
-199.471
0
LINE
8
BLACK
6
CONTINUOUS
10
285.942
20
-198.295
11
285.694
21
-198.295
0
LINE
8
BLACK
6
CONTINUOUS
10
285.694
20
-198.295
11
285.57
21
-198.357
0
LINE
8
BLACK
6
CONTINUOUS
10
285.57
20
-198.357
11
285.508
21
-198.419
0
LINE
8
BLACK
6
CONTINUOUS
10
285.508
20
-198.419
11
285.385
21
-198.605
0
LINE
8
BLACK
6
CONTINUOUS
10
285.385
20
-198.605
11
285.323
21
-198.852
0
LINE
8
BLACK
6
CONTINUOUS
10
285.323
20
-198.852
11
285.323
21
-199.348
0
LINE
8
BLACK
6
CONTINUOUS
10
285.323
20
-199.348
11
285.385
21
-199.471
0
LINE
8
BLACK
6
CONTINUOUS
10
285.385
20
-199.471
11
285.446
21
-199.533
0
LINE
8
BLACK
6
CONTINUOUS
10
285.446
20
-199.533
11
285.57
21
-199.595
0
LINE
8
BLACK
6
CONTINUOUS
10
285.57
20
-199.595
11
285.818
21
-199.595
0
LINE
8
BLACK
6
CONTINUOUS
10
285.818
20
-199.595
11
285.942
21
-199.533
0
LINE
8
BLACK
6
CONTINUOUS
10
285.942
20
-199.533
11
286.004
21
-199.471
0
LINE
8
BLACK
6
CONTINUOUS
10
286.004
20
-199.471
11
286.065
21
-199.348
0
LINE
8
BLACK
6
CONTINUOUS
10
286.065
20
-199.348
11
286.065
21
-199.038
0
LINE
8
BLACK
6
CONTINUOUS
10
286.065
20
-199.038
11
286.004
21
-198.914
0
LINE
8
BLACK
6
CONTINUOUS
10
286.004
20
-198.914
11
285.942
21
-198.852
0
LINE
8
BLACK
6
CONTINUOUS
10
285.942
20
-198.852
11
285.818
21
-198.791
0
LINE
8
BLACK
6
CONTINUOUS
10
285.818
20
-198.791
11
285.57
21
-198.791
0
LINE
8
BLACK
6
CONTINUOUS
10
285.57
20
-198.791
11
285.446
21
-198.852
0
LINE
8
BLACK
6
CONTINUOUS
10
285.446
20
-198.852
11
285.385
21
-198.914
0
LINE
8
BLACK
6
CONTINUOUS
10
285.385
20
-198.914
11
285.323
21
-199.038
0
LINE
8
BLACK
6
CONTINUOUS
10
10
20
-60
11
12
21
-60
0
LINE
8
BLACK
6
CONTINUOUS
10
10
20
-110
11
12
21
-110
0
LINE
8
BLACK
6
CONTINUOUS
10
10
20
-160
11
12
21
-160
0
LINE
8
BLACK
6
CONTINUOUS
10
10.6905
20
-35.2167
11
11.3095
21
-35.2167
0
LINE
8
BLACK
6
CONTINUOUS
10
10.5667
20
-35.5881
11
11
21
-34.2881
0
LINE
8
BLACK
6
CONTINUOUS
10
11
20
-34.2881
11
11.4333
21
-35.5881
0
LINE
8
BLACK
6
CONTINUOUS
10
11.0929
20
-84.9071
11
11.2786
21
-84.969
0
LINE
8
BLACK
6
CONTINUOUS
10
11.2786
20
-84.969
11
11.3405
21
-85.031
0
LINE
8
BLACK
6
CONTINUOUS
10
11.3405
20
-85.031
11
11.4024
21
-85.1548
0
LINE
8
BLACK
6
CONTINUOUS
10
11.4024
20
-85.1548
11
11.4024
21
-85.3405
0
LINE
8
BLACK
6
CONTINUOUS
10
11.4024
20
-85.3405
11
11.3405
21
-85.4643
0
LINE
8
BLACK
6
CONTINUOUS
10
11.3405
20
-85.4643
11
11.2786
21
-85.5262
0
LINE
8
BLACK
6
CONTINUOUS
10
11.2786
20
-85.5262
11
11.1548
21
-85.5881
0
LINE
8
BLACK
6
CONTINUOUS
10
11.1548
20
-85.5881
11
10.6595
21
-85.5881
0
LINE
8
BLACK
6
CONTINUOUS
10
10.6595
20
-85.5881
11
10.6595
21
-84.2881
0
LINE
8
BLACK
6
CONTINUOUS
10
10.6595
20
-84.2881
11
11.0929
21
-84.2881
0
LINE
8
BLACK
6
CONTINUOUS
10
11.0929
20
-84.2881
11
11.2167
21
-84.35
0
LINE
8
BLACK
6
CONTINUOUS
10
11.2167
20
-84.35
11
11.2786
21
-84.4119
0
LINE
8
BLACK
6
CONTINUOUS
10
11.2786
20
-84.4119
11
11.3405
21
-84.5357
0
LINE
8
BLACK
6
CONTINUOUS
10
11.3405
20
-84.5357
11
11.3405
21
-84.6595
0
LINE
8
BLACK
6
CONTINUOUS
10
11.3405
20
-84.6595
11
11.2786
21
-84.7833
0
LINE
8
BLACK
6
CONTINUOUS
10
11.2786
20
-84.7833
11
11.2167
21
-84.8452
0
LINE
8
BLACK
6
CONTINUOUS
10
11.2167
20
-84.8452
11
11.0929
21
-84.9071
0
LINE
8
BLACK
6
CONTINUOUS
10
11.0929
20
-84.9071
11
10.6595
21
-84.9071
0
LINE
8
BLACK
6
CONTINUOUS
10
11.4024
20
-135.464
11
11.3405
21
-135.526
0
LINE
8
BLACK
6
CONTINUOUS
10
11.3405
20
-135.526
11
11.1548
21
-135.588
0
LINE
8
BLACK
6
CONTINUOUS
10
11.1548
20
-135.588
11
11.031
21
-135.588
0
LINE
8
BLACK
6
CONTINUOUS
10
11.031
20
-135.588
11
10.8452
21
-135.526
0
LINE
8
BLACK
6
CONTINUOUS
10
10.8452
20
-135.526
11
10.7214
21
-135.402
0
LINE
8
BLACK
6
CONTINUOUS
10
10.7214
20
-135.402
11
10.6595
21
-135.279
0
LINE
8
BLACK
6
CONTINUOUS
10
10.6595
20
-135.279
11
10.5976
21
-135.031
0
LINE
8
BLACK
6
CONTINUOUS
10
10.5976
20
-135.031
11
10.5976
21
-134.845
0
LINE
8
BLACK
6
CONTINUOUS
10
10.5976
20
-134.845
11
10.6595
21
-134.598
0
LINE
8
BLACK
6
CONTINUOUS
10
10.6595
20
-134.598
11
10.7214
21
-134.474
0
LINE
8
BLACK
6
CONTINUOUS
10
10.7214
20
-134.474
11
10.8452
21
-134.35
0
LINE
8
BLACK
6
CONTINUOUS
10
10.8452
20
-134.35
11
11.031
21
-134.288
0
LINE
8
BLACK
6
CONTINUOUS
10
11.031
20
-134.288
11
11.1548
21
-134.288
0
LINE
8
BLACK
6
CONTINUOUS
10
11.1548
20
-134.288
11
11.3405
21
-134.35
0
LINE
8
BLACK
6
CONTINUOUS
10
11.3405
20
-134.35
11
11.4024
21
-134.412
0
LINE
8
BLACK
6
CONTINUOUS
10
10.6595
20
-185.588
11
10.6595
21
-184.288
0
LINE
8
BLACK
6
CONTINUOUS
10
10.6595
20
-184.288
11
10.969
21
-184.288
0
LINE
8
BLACK
6
CONTINUOUS
10
10.969
20
-184.288
11
11.1548
21
-184.35
0
LINE
8
BLACK
6
CONTINUOUS
10
11.1548
20
-184.35
11
11.2786
21
-184.474
0
LINE
8
BLACK
6
CONTINUOUS
10
11.2786
20
-184.474
11
11.3405
21
-184.598
0
LINE
8
BLACK
6
CONTINUOUS
10
11.3405
20
-184.598
11
11.4024
21
-184.845
0
LINE
8
BLACK
6
CONTINUOUS
10
11.4024
20
-184.845
11
11.4024
21
-185.031
0
LINE
8
BLACK
6
CONTINUOUS
10
11.4024
20
-185.031
11
11.3405
21
-185.279
0
LINE
8
BLACK
6
CONTINUOUS
10
11.3405
20
-185.279
11
11.2786
21
-185.402
0
LINE
8
BLACK
6
CONTINUOUS
10
11.2786
20
-185.402
11
11.1548
21
-185.526
0
LINE
8
BLACK
6
CONTINUOUS
10
11.1548
20
-185.526
11
10.969
21
-185.588
0
LINE
8
BLACK
6
CONTINUOUS
10
10.969
20
-185.588
11
10.6595
21
-185.588
0
LINE
8
BLACK
6
CONTINUOUS
10
287.002
20
-60
11
285.002
21
-60
0
LINE
8
BLACK
6
CONTINUOUS
10
287.002
20
-110
11
285.002
21
-110
0
LINE
8
BLACK
6
CONTINUOUS
10
287.002
20
-160
11
285.002
21
-160
0
LINE
8
BLACK
6
CONTINUOUS
10
285.693
20
-35.2167
11
286.312
21
-35.2167
0
LINE
8
BLACK
6
CONTINUOUS
10
285.569
20
-35.5881
11
286.002
21
-34.2881
0
LINE
8
BLACK
6
CONTINUOUS
10
286.002
20
-34.2881
11
286.436
21
-35.5881
0
LINE
8
BLACK
6
CONTINUOUS
10
286.095
20
-84.9071
11
286.281
21
-84.969
0
LINE
8
BLACK
6
CONTINUOUS
10
286.281
20
-84.969
11
286.343
21
-85.031
0
LINE
8
BLACK
6
CONTINUOUS
10
286.343
20
-85.031
11
286.405
21
-85.1548
0
LINE
8
BLACK
6
CONTINUOUS
10
286.405
20
-85.1548
11
286.405
21
-85.3405
0
LINE
8
BLACK
6
CONTINUOUS
10
286.405
20
-85.3405
11
286.343
21
-85.4643
0
LINE
8
BLACK
6
CONTINUOUS
10
286.343
20
-85.4643
11
286.281
21
-85.5262
0
LINE
8
BLACK
6
CONTINUOUS
10
286.281
20
-85.5262
11
286.157
21
-85.5881
0
LINE
8
BLACK
6
CONTINUOUS
10
286.157
20
-85.5881
11
285.662
21
-85.5881
0
LINE
8
BLACK
6
CONTINUOUS
10
285.662
20
-85.5881
11
285.662
21
-84.2881
0
LINE
8
BLACK
6
CONTINUOUS
10
285.662
20
-84.2881
11
286.095
21
-84.2881
0
LINE
8
BLACK
6
CONTINUOUS
10
286.095
20
-84.2881
11
286.219
21
-84.35
0
LINE
8
BLACK
6
CONTINUOUS
10
286.219
20
-84.35
11
286.281
21
-84.4119
0
LINE
8
BLACK
6
CONTINUOUS
10
286.281
20
-84.4119
11
286.343
21
-84.5357
0
LINE
8
BLACK
6
CONTINUOUS
10
286.343
20
-84.5357
11
286.343
21
-84.6595
0
LINE
8
BLACK
6
CONTINUOUS
10
286.343
20
-84.6595
11
286.281
21
-84.7833
0
LINE
8
BLACK
6
CONTINUOUS
10
286.281
20
-84.7833
11
286.219
21
-84.8452
0
LINE
8
BLACK
6
CONTINUOUS
10
286.219
20
-84.8452
11
286.095
21
-84.9071
0
LINE
8
BLACK
6
CONTINUOUS
10
286.095
20
-84.9071
11
285.662
21
-84.9071
0
LINE
8
BLACK
6
CONTINUOUS
10
286.405
20
-135.464
11
286.343
21
-135.526
0
LINE
8
BLACK
6
CONTINUOUS
10
286.343
20
-135.526
11
286.157
21
-135.588
0
LINE
8
BLACK
6
CONTINUOUS
10
286.157
20
-135.588
11
286.033
21
-135.588
0
LINE
8
BLACK
6
CONTINUOUS
10
286.033
20
-135.588
11
285.847
21
-135.526
0
LINE
8
BLACK
6
CONTINUOUS
10
285.847
20
-135.526
11
285.724
21
-135.402
0
LINE
8
BLACK
6
CONTINUOUS
10
285.724
20
-135.402
11
285.662
21
-135.279
0
LINE
8
BLACK
6
CONTINUOUS
10
285.662
20
-135.279
11
285.6
21
-135.031
0
LINE
8
BLACK
6
CONTINUOUS
10
285.6
20
-135.031
11
285.6
21
-134.845
0
LINE
8
BLACK
6
CONTINUOUS
10
285.6
20
-134.845
11
285.662
21
-134.598
0
LINE
8
BLACK
6
CONTINUOUS
10
285.662
20
-134.598
11
285.724
21
-134.474
0
LINE
8
BLACK
6
CONTINUOUS
10
285.724
20
-134.474
11
285.847
21
-134.35
0
LINE
8
BLACK
6
CONTINUOUS
10
285.847
20
-134.35
11
286.033
21
-134.288
0
LINE
8
BLACK
6
CONTINUOUS
10
286.033
20
-134.288
11
286.157
21
-134.288
0
LINE
8
BLACK
6
CONTINUOUS
10
286.157
20
-134.288
11
286.343
21
-134.35
0
LINE
8
BLACK
6
CONTINUOUS
10
286.343
20
-134.35
11
286.405
21
-134.412
0
LINE
8
BLACK
6
CONTINUOUS
10
285.662
20
-185.588
11
285.662
21
-184.288
0
LINE
8
BLACK
6
CONTINUOUS
10
285.662
20
-184.288
11
285.971
21
-184.288
0
LINE
8
BLACK
6
CONTINUOUS
10
285.971
20
-184.288
11
286.157
21
-184.35
0
LINE
8
BLACK
6
CONTINUOUS
10
286.157
20
-184.35
11
286.281
21
-184.474
0
LINE
8
BLACK
6
CONTINUOUS
10
286.281
20
-184.474
11
286.343
21
-184.598
0
LINE
8
BLACK
6
CONTINUOUS
10
286.343
20
-184.598
11
286.405
21
-184.845
0
LINE
8
BLACK
6
CONTINUOUS
10
286.405
20
-184.845
11
286.405
21
-185.031
0
LINE
8
BLACK
6
CONTINUOUS
10
286.405
20
-185.031
11
286.343
21
-185.279
0
LINE
8
BLACK
6
CONTINUOUS
10
286.343
20
-185.279
11
286.281
21
-185.402
0
LINE
8
BLACK
6
CONTINUOUS
10
286.281
20
-185.402
11
286.157
21
-185.526
0
LINE
8
BLACK
6
CONTINUOUS
10
286.157
20
-185.526
11
285.971
21
-185.588
0
LINE
8
BLACK
6
CONTINUOUS
10
285.971
20
-185.588
11
285.662
21
-185.588
0
LINE
8
BLACK
6
CONTINUOUS
10
200.434
20
-193.786
11
200.434
21
-192.286
0
LINE
8
BLACK
6
CONTINUOUS
10
200.434
20
-192.286
11
200.791
21
-192.286
0
LINE
8
BLACK
6
CONTINUOUS
10
200.791
20
-192.286
11
201.006
21
-192.357
0
LINE
8
BLACK
6
CONTINUOUS
10
201.006
20
-192.357
11
201.149
21
-192.5
0
LINE
8
BLACK
6
CONTINUOUS
10
201.149
20
-192.5
11
201.22
21
-192.643
0
LINE
8
BLACK
6
CONTINUOUS
10
201.22
20
-192.643
11
201.291
21
-192.929
0
LINE
8
BLACK
6
CONTINUOUS
10
201.291
20
-192.929
11
201.291
21
-193.143
0
LINE
8
BLACK
6
CONTINUOUS
10
201.291
20
-193.143
11
201.22
21
-193.429
0
LINE
8
BLACK
6
CONTINUOUS
10
201.22
20
-193.429
11
201.149
21
-193.571
0
LINE
8
BLACK
6
CONTINUOUS
10
201.149
20
-193.571
11
201.006
21
-193.714
0
LINE
8
BLACK
6
CONTINUOUS
10
201.006
20
-193.714
11
200.791
21
-193.786
0
LINE
8
BLACK
6
CONTINUOUS
10
200.791
20
-193.786
11
200.434
21
-193.786
0
LINE
8
BLACK
6
CONTINUOUS
10
202.577
20
-193.786
11
202.577
21
-193
0
LINE
8
BLACK
6
CONTINUOUS
10
202.577
20
-193
11
202.506
21
-192.857
0
LINE
8
BLACK
6
CONTINUOUS
10
202.506
20
-192.857
11
202.363
21
-192.786
0
LINE
8
BLACK
6
CONTINUOUS
10
202.363
20
-192.786
11
202.077
21
-192.786
0
LINE
8
BLACK
6
CONTINUOUS
10
202.077
20
-192.786
11
201.934
21
-192.857
0
LINE
8
BLACK
6
CONTINUOUS
10
202.577
20
-193.714
11
202.434
21
-193.786
0
LINE
8
BLACK
6
CONTINUOUS
10
202.434
20
-193.786
11
202.077
21
-193.786
0
LINE
8
BLACK
6
CONTINUOUS
10
202.077
20
-193.786
11
201.934
21
-193.714
0
LINE
8
BLACK
6
CONTINUOUS
10
201.934
20
-193.714
11
201.863
21
-193.571
0
LINE
8
BLACK
6
CONTINUOUS
10
201.863
20
-193.571
11
201.863
21
-193.429
0
LINE
8
BLACK
6
CONTINUOUS
10
201.863
20
-193.429
11
201.934
21
-193.286
0
LINE
8
BLACK
6
CONTINUOUS
10
201.934
20
-193.286
11
202.077
21
-193.214
0
LINE
8
BLACK
6
CONTINUOUS
10
202.077
20
-193.214
11
202.434
21
-193.214
0
LINE
8
BLACK
6
CONTINUOUS
10
202.434
20
-193.214
11
202.577
21
-193.143
0
LINE
8
BLACK
6
CONTINUOUS
10
203.077
20
-192.786
11
203.649
21
-192.786
0
LINE
8
BLACK
6
CONTINUOUS
10
203.291
20
-192.286
11
203.291
21
-193.571
0
LINE
8
BLACK
6
CONTINUOUS
10
203.291
20
-193.571
11
203.363
21
-193.714
0
LINE
8
BLACK
6
CONTINUOUS
10
203.363
20
-193.714
11
203.506
21
-193.786
0
LINE
8
BLACK
6
CONTINUOUS
10
203.506
20
-193.786
11
203.649
21
-193.786
0
LINE
8
BLACK
6
CONTINUOUS
10
204.72
20
-193.714
11
204.577
21
-193.786
0
LINE
8
BLACK
6
CONTINUOUS
10
204.577
20
-193.786
11
204.291
21
-193.786
0
LINE
8
BLACK
6
CONTINUOUS
10
204.291
20
-193.786
11
204.149
21
-193.714
0
LINE
8
BLACK
6
CONTINUOUS
10
204.149
20
-193.714
11
204.077
21
-193.571
0
LINE
8
BLACK
6
CONTINUOUS
10
204.077
20
-193.571
11
204.077
21
-193
0
LINE
8
BLACK
6
CONTINUOUS
10
204.077
20
-193
11
204.149
21
-192.857
0
LINE
8
BLACK
6
CONTINUOUS
10
204.149
20
-192.857
11
204.291
21
-192.786
0
LINE
8
BLACK
6
CONTINUOUS
10
204.291
20
-192.786
11
204.577
21
-192.786
0
LINE
8
BLACK
6
CONTINUOUS
10
204.577
20
-192.786
11
204.72
21
-192.857
0
LINE
8
BLACK
6
CONTINUOUS
10
204.72
20
-192.857
11
204.791
21
-193
0
LINE
8
BLACK
6
CONTINUOUS
10
204.791
20
-193
11
204.791
21
-193.143
0
LINE
8
BLACK
6
CONTINUOUS
10
204.791
20
-193.143
11
204.077
21
-193.286
0
LINE
8
BLACK
6
CONTINUOUS
10
205.434
20
-193.643
11
205.506
21
-193.714
0
LINE
8
BLACK
6
CONTINUOUS
10
205.506
20
-193.714
11
205.434
21
-193.786
0
LINE
8
BLACK
6
CONTINUOUS
10
205.434
20
-193.786
11
205.363
21
-193.714
0
LINE
8
BLACK
6
CONTINUOUS
10
205.363
20
-193.714
11
205.434
21
-193.643
0
LINE
8
BLACK
6
CONTINUOUS
10
205.434
20
-193.643
11
205.434
21
-193.786
0
LINE
8
BLACK
6
CONTINUOUS
10
205.434
20
-192.857
11
205.506
21
-192.929
0
LINE
8
BLACK
6
CONTINUOUS
10
205.506
20
-192.929
11
205.434
21
-193
0
LINE
8
BLACK
6
CONTINUOUS
10
205.434
20
-193
11
205.363
21
-192.929
0
LINE
8
BLACK
6
CONTINUOUS
10
205.363
20
-192.929
11
205.434
21
-192.857
0
LINE
8
BLACK
6
CONTINUOUS
10
205.434
20
-192.857
11
205.434
21
-193
0
LINE
8
BLACK
6
CONTINUOUS
10
177.002
20
-194.507
11
285.002
21
-194.507
0
LINE
8
BLACK
6
CONTINUOUS
10
178.434
20
-196.586
11
178.434
21
-195.086
0
LINE
8
BLACK
6
CONTINUOUS
10
179.291
20
-196.586
11
178.649
21
-195.729
0
LINE
8
BLACK
6
CONTINUOUS
10
179.291
20
-195.086
11
178.434
21
-195.943
0
LINE
8
BLACK
6
CONTINUOUS
10
179.934
20
-196.586
11
179.934
21
-195.586
0
LINE
8
BLACK
6
CONTINUOUS
10
179.934
20
-195.086
11
179.863
21
-195.157
0
LINE
8
BLACK
6
CONTINUOUS
10
179.863
20
-195.157
11
179.934
21
-195.229
0
LINE
8
BLACK
6
CONTINUOUS
10
179.934
20
-195.229
11
180.006
21
-195.157
0
LINE
8
BLACK
6
CONTINUOUS
10
180.006
20
-195.157
11
179.934
21
-195.086
0
LINE
8
BLACK
6
CONTINUOUS
10
179.934
20
-195.086
11
179.934
21
-195.229
0
LINE
8
BLACK
6
CONTINUOUS
10
181.506
20
-196.443
11
181.434
21
-196.514
0
LINE
8
BLACK
6
CONTINUOUS
10
181.434
20
-196.514
11
181.22
21
-196.586
0
LINE
8
BLACK
6
CONTINUOUS
10
181.22
20
-196.586
11
181.077
21
-196.586
0
LINE
8
BLACK
6
CONTINUOUS
10
181.077
20
-196.586
11
180.863
21
-196.514
0
LINE
8
BLACK
6
CONTINUOUS
10
180.863
20
-196.514
11
180.72
21
-196.371
0
LINE
8
BLACK
6
CONTINUOUS
10
180.72
20
-196.371
11
180.649
21
-196.229
0
LINE
8
BLACK
6
CONTINUOUS
10
180.649
20
-196.229
11
180.577
21
-195.943
0
LINE
8
BLACK
6
CONTINUOUS
10
180.577
20
-195.943
11
180.577
21
-195.729
0
LINE
8
BLACK
6
CONTINUOUS
10
180.577
20
-195.729
11
180.649
21
-195.443
0
LINE
8
BLACK
6
CONTINUOUS
10
180.649
20
-195.443
11
180.72
21
-195.3
0
LINE
8
BLACK
6
CONTINUOUS
10
180.72
20
-195.3
11
180.863
21
-195.157
0
LINE
8
BLACK
6
CONTINUOUS
10
180.863
20
-195.157
11
181.077
21
-195.086
0
LINE
8
BLACK
6
CONTINUOUS
10
181.077
20
-195.086
11
181.22
21
-195.086
0
LINE
8
BLACK
6
CONTINUOUS
10
181.22
20
-195.086
11
181.434
21
-195.157
0
LINE
8
BLACK
6
CONTINUOUS
10
181.434
20
-195.157
11
181.506
21
-195.229
0
LINE
8
BLACK
6
CONTINUOUS
10
182.791
20
-196.586
11
182.791
21
-195.8
0
LINE
8
BLACK
6
CONTINUOUS
10
182.791
20
-195.8
11
182.72
21
-195.657
0
LINE
8
BLACK
6
CONTINUOUS
10
182.72
20
-195.657
11
182.577
21
-195.586
0
LINE
8
BLACK
6
CONTINUOUS
10
182.577
20
-195.586
11
182.291
21
-195.586
0
LINE
8
BLACK
6
CONTINUOUS
10
182.291
20
-195.586
11
182.149
21
-195.657
0
LINE
8
BLACK
6
CONTINUOUS
10
182.791
20
-196.514
11
182.649
21
-196.586
0
LINE
8
BLACK
6
CONTINUOUS
10
182.649
20
-196.586
11
182.291
21
-196.586
0
LINE
8
BLACK
6
CONTINUOUS
10
182.291
20
-196.586
11
182.149
21
-196.514
0
LINE
8
BLACK
6
CONTINUOUS
10
182.149
20
-196.514
11
182.077
21
-196.371
0
LINE
8
BLACK
6
CONTINUOUS
10
182.077
20
-196.371
11
182.077
21
-196.229
0
LINE
8
BLACK
6
CONTINUOUS
10
182.077
20
-196.229
11
182.149
21
-196.086
0
LINE
8
BLACK
6
CONTINUOUS
10
182.149
20
-196.086
11
182.291
21
-196.014
0
LINE
8
BLACK
6
CONTINUOUS
10
182.291
20
-196.014
11
182.649
21
-196.014
0
LINE
8
BLACK
6
CONTINUOUS
10
182.649
20
-196.014
11
182.791
21
-195.943
0
LINE
8
BLACK
6
CONTINUOUS
10
184.149
20
-196.586
11
184.149
21
-195.086
0
LINE
8
BLACK
6
CONTINUOUS
10
184.149
20
-196.514
11
184.006
21
-196.586
0
LINE
8
BLACK
6
CONTINUOUS
10
184.006
20
-196.586
11
183.72
21
-196.586
0
LINE
8
BLACK
6
CONTINUOUS
10
183.72
20
-196.586
11
183.577
21
-196.514
0
LINE
8
BLACK
6
CONTINUOUS
10
183.577
20
-196.514
11
183.506
21
-196.443
0
LINE
8
BLACK
6
CONTINUOUS
10
183.506
20
-196.443
11
183.434
21
-196.3
0
LINE
8
BLACK
6
CONTINUOUS
10
183.434
20
-196.3
11
183.434
21
-195.871
0
LINE
8
BLACK
6
CONTINUOUS
10
183.434
20
-195.871
11
183.506
21
-195.729
0
LINE
8
BLACK
6
CONTINUOUS
10
183.506
20
-195.729
11
183.577
21
-195.657
0
LINE
8
BLACK
6
CONTINUOUS
10
183.577
20
-195.657
11
183.72
21
-195.586
0
LINE
8
BLACK
6
CONTINUOUS
10
183.72
20
-195.586
11
184.006
21
-195.586
0
LINE
8
BLACK
6
CONTINUOUS
10
184.006
20
-195.586
11
184.149
21
-195.657
0
LINE
8
BLACK
6
CONTINUOUS
10
186.006
20
-195.8
11
186.506
21
-195.8
0
LINE
8
BLACK
6
CONTINUOUS
10
186.72
20
-196.586
11
186.006
21
-196.586
0
LINE
8
BLACK
6
CONTINUOUS
10
186.006
20
-196.586
11
186.006
21
-195.086
0
LINE
8
BLACK
6
CONTINUOUS
10
186.006
20
-195.086
11
186.72
21
-195.086
0
LINE
8
BLACK
6
CONTINUOUS
10
187.363
20
-196.443
11
187.434
21
-196.514
0
LINE
8
BLACK
6
CONTINUOUS
10
187.434
20
-196.514
11
187.363
21
-196.586
0
LINE
8
BLACK
6
CONTINUOUS
10
187.363
20
-196.586
11
187.291
21
-196.514
0
LINE
8
BLACK
6
CONTINUOUS
10
187.291
20
-196.514
11
187.363
21
-196.443
0
LINE
8
BLACK
6
CONTINUOUS
10
187.363
20
-196.443
11
187.363
21
-196.586
0
LINE
8
BLACK
6
CONTINUOUS
10
188.077
20
-196.586
11
188.077
21
-195.086
0
LINE
8
BLACK
6
CONTINUOUS
10
188.077
20
-195.086
11
188.434
21
-195.086
0
LINE
8
BLACK
6
CONTINUOUS
10
188.434
20
-195.086
11
188.649
21
-195.157
0
LINE
8
BLACK
6
CONTINUOUS
10
188.649
20
-195.157
11
188.791
21
-195.3
0
LINE
8
BLACK
6
CONTINUOUS
10
188.791
20
-195.3
11
188.863
21
-195.443
0
LINE
8
BLACK
6
CONTINUOUS
10
188.863
20
-195.443
11
188.934
21
-195.729
0
LINE
8
BLACK
6
CONTINUOUS
10
188.934
20
-195.729
11
188.934
21
-195.943
0
LINE
8
BLACK
6
CONTINUOUS
10
188.934
20
-195.943
11
188.863
21
-196.229
0
LINE
8
BLACK
6
CONTINUOUS
10
188.863
20
-196.229
11
188.791
21
-196.371
0
LINE
8
BLACK
6
CONTINUOUS
10
188.791
20
-196.371
11
188.649
21
-196.514
0
LINE
8
BLACK
6
CONTINUOUS
10
188.649
20
-196.514
11
188.434
21
-196.586
0
LINE
8
BLACK
6
CONTINUOUS
10
188.434
20
-196.586
11
188.077
21
-196.586
0
LINE
8
BLACK
6
CONTINUOUS
10
189.577
20
-196.443
11
189.649
21
-196.514
0
LINE
8
BLACK
6
CONTINUOUS
10
189.649
20
-196.514
11
189.577
21
-196.586
0
LINE
8
BLACK
6
CONTINUOUS
10
189.577
20
-196.586
11
189.506
21
-196.514
0
LINE
8
BLACK
6
CONTINUOUS
10
189.506
20
-196.514
11
189.577
21
-196.443
0
LINE
8
BLACK
6
CONTINUOUS
10
189.577
20
-196.443
11
189.577
21
-196.586
0
LINE
8
BLACK
6
CONTINUOUS
10
190.22
20
-196.157
11
190.934
21
-196.157
0
LINE
8
BLACK
6
CONTINUOUS
10
190.077
20
-196.586
11
190.577
21
-195.086
0
LINE
8
BLACK
6
CONTINUOUS
10
190.577
20
-195.086
11
191.077
21
-196.586
0
LINE
8
BLACK
6
CONTINUOUS
10
191.577
20
-196.443
11
191.649
21
-196.514
0
LINE
8
BLACK
6
CONTINUOUS
10
191.649
20
-196.514
11
191.577
21
-196.586
0
LINE
8
BLACK
6
CONTINUOUS
10
191.577
20
-196.586
11
191.506
21
-196.514
0
LINE
8
BLACK
6
CONTINUOUS
10
191.506
20
-196.514
11
191.577
21
-196.443
0
LINE
8
BLACK
6
CONTINUOUS
10
191.577
20
-196.443
11
191.577
21
-196.586
0
LINE
8
BLACK
6
CONTINUOUS
10
194.577
20
-196.586
11
194.577
21
-195.086
0
LINE
8
BLACK
6
CONTINUOUS
10
194.72
20
-196.014
11
195.149
21
-196.586
0
LINE
8
BLACK
6
CONTINUOUS
10
195.149
20
-195.586
11
194.577
21
-196.157
0
LINE
8
BLACK
6
CONTINUOUS
10
195.791
20
-196.586
11
195.791
21
-195.586
0
LINE
8
BLACK
6
CONTINUOUS
10
195.791
20
-195.086
11
195.72
21
-195.157
0
LINE
8
BLACK
6
CONTINUOUS
10
195.72
20
-195.157
11
195.791
21
-195.229
0
LINE
8
BLACK
6
CONTINUOUS
10
195.791
20
-195.229
11
195.863
21
-195.157
0
LINE
8
BLACK
6
CONTINUOUS
10
195.863
20
-195.157
11
195.791
21
-195.086
0
LINE
8
BLACK
6
CONTINUOUS
10
195.791
20
-195.086
11
195.791
21
-195.229
0
LINE
8
BLACK
6
CONTINUOUS
10
197.149
20
-196.514
11
197.006
21
-196.586
0
LINE
8
BLACK
6
CONTINUOUS
10
197.006
20
-196.586
11
196.72
21
-196.586
0
LINE
8
BLACK
6
CONTINUOUS
10
196.72
20
-196.586
11
196.577
21
-196.514
0
LINE
8
BLACK
6
CONTINUOUS
10
196.577
20
-196.514
11
196.506
21
-196.443
0
LINE
8
BLACK
6
CONTINUOUS
10
196.506
20
-196.443
11
196.434
21
-196.3
0
LINE
8
BLACK
6
CONTINUOUS
10
196.434
20
-196.3
11
196.434
21
-195.871
0
LINE
8
BLACK
6
CONTINUOUS
10
196.434
20
-195.871
11
196.506
21
-195.729
0
LINE
8
BLACK
6
CONTINUOUS
10
196.506
20
-195.729
11
196.577
21
-195.657
0
LINE
8
BLACK
6
CONTINUOUS
10
196.577
20
-195.657
11
196.72
21
-195.586
0
LINE
8
BLACK
6
CONTINUOUS
10
196.72
20
-195.586
11
197.006
21
-195.586
0
LINE
8
BLACK
6
CONTINUOUS
10
197.006
20
-195.586
11
197.149
21
-195.657
0
LINE
8
BLACK
6
CONTINUOUS
10
198.434
20
-196.586
11
198.434
21
-195.8
0
LINE
8
BLACK
6
CONTINUOUS
10
198.434
20
-195.8
11
198.363
21
-195.657
0
LINE
8
BLACK
6
CONTINUOUS
10
198.363
20
-195.657
11
198.22
21
-195.586
0
LINE
8
BLACK
6
CONTINUOUS
10
198.22
20
-195.586
11
197.934
21
-195.586
0
LINE
8
BLACK
6
CONTINUOUS
10
197.934
20
-195.586
11
197.791
21
-195.657
0
LINE
8
BLACK
6
CONTINUOUS
10
198.434
20
-196.514
11
198.291
21
-196.586
0
LINE
8
BLACK
6
CONTINUOUS
10
198.291
20
-196.586
11
197.934
21
-196.586
0
LINE
8
BLACK
6
CONTINUOUS
10
197.934
20
-196.586
11
197.791
21
-196.514
0
LINE
8
BLACK
6
CONTINUOUS
10
197.791
20
-196.514
11
197.72
21
-196.371
0
LINE
8
BLACK
6
CONTINUOUS
10
197.72
20
-196.371
11
197.72
21
-196.229
0
LINE
8
BLACK
6
CONTINUOUS
10
197.72
20
-196.229
11
197.791
21
-196.086
0
LINE
8
BLACK
6
CONTINUOUS
10
197.791
20
-196.086
11
197.934
21
-196.014
0
LINE
8
BLACK
6
CONTINUOUS
10
197.934
20
-196.014
11
198.291
21
-196.014
0
LINE
8
BLACK
6
CONTINUOUS
10
198.291
20
-196.014
11
198.434
21
-195.943
0
LINE
8
BLACK
6
CONTINUOUS
10
199.791
20
-196.586
11
199.791
21
-195.086
0
LINE
8
BLACK
6
CONTINUOUS
10
199.791
20
-196.514
11
199.649
21
-196.586
0
LINE
8
BLACK
6
CONTINUOUS
10
199.649
20
-196.586
11
199.363
21
-196.586
0
LINE
8
BLACK
6
CONTINUOUS
10
199.363
20
-196.586
11
199.22
21
-196.514
0
LINE
8
BLACK
6
CONTINUOUS
10
199.22
20
-196.514
11
199.149
21
-196.443
0
LINE
8
BLACK
6
CONTINUOUS
10
199.149
20
-196.443
11
199.077
21
-196.3
0
LINE
8
BLACK
6
CONTINUOUS
10
199.077
20
-196.3
11
199.077
21
-195.871
0
LINE
8
BLACK
6
CONTINUOUS
10
199.077
20
-195.871
11
199.149
21
-195.729
0
LINE
8
BLACK
6
CONTINUOUS
10
199.149
20
-195.729
11
199.22
21
-195.657
0
LINE
8
BLACK
6
CONTINUOUS
10
199.22
20
-195.657
11
199.363
21
-195.586
0
LINE
8
BLACK
6
CONTINUOUS
10
199.363
20
-195.586
11
199.649
21
-195.586
0
LINE
8
BLACK
6
CONTINUOUS
10
199.649
20
-195.586
11
199.791
21
-195.657
0
LINE
8
BLACK
6
CONTINUOUS
10
202.363
20
-195.086
11
201.649
21
-195.086
0
LINE
8
BLACK
6
CONTINUOUS
10
201.649
20
-195.086
11
201.577
21
-195.8
0
LINE
8
BLACK
6
CONTINUOUS
10
201.577
20
-195.8
11
201.649
21
-195.729
0
LINE
8
BLACK
6
CONTINUOUS
10
201.649
20
-195.729
11
201.791
21
-195.657
0
LINE
8
BLACK
6
CONTINUOUS
10
201.791
20
-195.657
11
202.149
21
-195.657
0
LINE
8
BLACK
6
CONTINUOUS
10
202.149
20
-195.657
11
202.291
21
-195.729
0
LINE
8
BLACK
6
CONTINUOUS
10
202.291
20
-195.729
11
202.363
21
-195.8
0
LINE
8
BLACK
6
CONTINUOUS
10
202.363
20
-195.8
11
202.434
21
-195.943
0
LINE
8
BLACK
6
CONTINUOUS
10
202.434
20
-195.943
11
202.434
21
-196.3
0
LINE
8
BLACK
6
CONTINUOUS
10
202.434
20
-196.3
11
202.363
21
-196.443
0
LINE
8
BLACK
6
CONTINUOUS
10
202.363
20
-196.443
11
202.291
21
-196.514
0
LINE
8
BLACK
6
CONTINUOUS
10
202.291
20
-196.514
11
202.149
21
-196.586
0
LINE
8
BLACK
6
CONTINUOUS
10
202.149
20
-196.586
11
201.791
21
-196.586
0
LINE
8
BLACK
6
CONTINUOUS
10
201.791
20
-196.586
11
201.649
21
-196.514
0
LINE
8
BLACK
6
CONTINUOUS
10
201.649
20
-196.514
11
201.577
21
-196.443
0
LINE
8
BLACK
6
CONTINUOUS
10
203.077
20
-196.443
11
203.149
21
-196.514
0
LINE
8
BLACK
6
CONTINUOUS
10
203.149
20
-196.514
11
203.077
21
-196.586
0
LINE
8
BLACK
6
CONTINUOUS
10
203.077
20
-196.586
11
203.006
21
-196.514
0
LINE
8
BLACK
6
CONTINUOUS
10
203.006
20
-196.514
11
203.077
21
-196.443
0
LINE
8
BLACK
6
CONTINUOUS
10
203.077
20
-196.443
11
203.077
21
-196.586
0
LINE
8
BLACK
6
CONTINUOUS
10
204.077
20
-195.086
11
204.22
21
-195.086
0
LINE
8
BLACK
6
CONTINUOUS
10
204.22
20
-195.086
11
204.363
21
-195.157
0
LINE
8
BLACK
6
CONTINUOUS
10
204.363
20
-195.157
11
204.434
21
-195.229
0
LINE
8
BLACK
6
CONTINUOUS
10
204.434
20
-195.229
11
204.506
21
-195.371
0
LINE
8
BLACK
6
CONTINUOUS
10
204.506
20
-195.371
11
204.577
21
-195.657
0
LINE
8
BLACK
6
CONTINUOUS
10
204.577
20
-195.657
11
204.577
21
-196.014
0
LINE
8
BLACK
6
CONTINUOUS
10
204.577
20
-196.014
11
204.506
21
-196.3
0
LINE
8
BLACK
6
CONTINUOUS
10
204.506
20
-196.3
11
204.434
21
-196.443
0
LINE
8
BLACK
6
CONTINUOUS
10
204.434
20
-196.443
11
204.363
21
-196.514
0
LINE
8
BLACK
6
CONTINUOUS
10
204.363
20
-196.514
11
204.22
21
-196.586
0
LINE
8
BLACK
6
CONTINUOUS
10
204.22
20
-196.586
11
204.077
21
-196.586
0
LINE
8
BLACK
6
CONTINUOUS
10
204.077
20
-196.586
11
203.934
21
-196.514
0
LINE
8
BLACK
6
CONTINUOUS
10
203.934
20
-196.514
11
203.863
21
-196.443
0
LINE
8
BLACK
6
CONTINUOUS
10
203.863
20
-196.443
11
203.791
21
-196.3
0
LINE
8
BLACK
6
CONTINUOUS
10
203.791
20
-196.3
11
203.72
21
-196.014
0
LINE
8
BLACK
6
CONTINUOUS
10
203.72
20
-196.014
11
203.72
21
-195.657
0
LINE
8
BLACK
6
CONTINUOUS
10
203.72
20
-195.657
11
203.791
21
-195.371
0
LINE
8
BLACK
6
CONTINUOUS
10
203.791
20
-195.371
11
203.863
21
-195.229
0
LINE
8
BLACK
6
CONTINUOUS
10
203.863
20
-195.229
11
203.934
21
-195.157
0
LINE
8
BLACK
6
CONTINUOUS
10
203.934
20
-195.157
11
204.077
21
-195.086
0
LINE
8
BLACK
6
CONTINUOUS
10
205.22
20
-196.443
11
205.291
21
-196.514
0
LINE
8
BLACK
6
CONTINUOUS
10
205.291
20
-196.514
11
205.22
21
-196.586
0
LINE
8
BLACK
6
CONTINUOUS
10
205.22
20
-196.586
11
205.149
21
-196.514
0
LINE
8
BLACK
6
CONTINUOUS
10
205.149
20
-196.514
11
205.22
21
-196.443
0
LINE
8
BLACK
6
CONTINUOUS
10
205.22
20
-196.443
11
205.22
21
-196.586
0
LINE
8
BLACK
6
CONTINUOUS
10
206.72
20
-196.586
11
205.863
21
-196.586
0
LINE
8
BLACK
6
CONTINUOUS
10
206.291
20
-196.586
11
206.291
21
-195.086
0
LINE
8
BLACK
6
CONTINUOUS
10
206.291
20
-195.086
11
206.149
21
-195.3
0
LINE
8
BLACK
6
CONTINUOUS
10
206.149
20
-195.3
11
206.006
21
-195.443
0
LINE
8
BLACK
6
CONTINUOUS
10
206.006
20
-195.443
11
205.863
21
-195.514
0
LINE
8
BLACK
6
CONTINUOUS
10
207.363
20
-196.014
11
208.506
21
-196.014
0
LINE
8
BLACK
6
CONTINUOUS
10
207.934
20
-196.586
11
207.934
21
-195.443
0
LINE
8
BLACK
6
CONTINUOUS
10
209.863
20
-196.586
11
209.863
21
-195.086
0
LINE
8
BLACK
6
CONTINUOUS
10
209.863
20
-196.514
11
209.72
21
-196.586
0
LINE
8
BLACK
6
CONTINUOUS
10
209.72
20
-196.586
11
209.434
21
-196.586
0
LINE
8
BLACK
6
CONTINUOUS
10
209.434
20
-196.586
11
209.291
21
-196.514
0
LINE
8
BLACK
6
CONTINUOUS
10
209.291
20
-196.514
11
209.22
21
-196.443
0
LINE
8
BLACK
6
CONTINUOUS
10
209.22
20
-196.443
11
209.149
21
-196.3
0
LINE
8
BLACK
6
CONTINUOUS
10
209.149
20
-196.3
11
209.149
21
-195.871
0
LINE
8
BLACK
6
CONTINUOUS
10
209.149
20
-195.871
11
209.22
21
-195.729
0
LINE
8
BLACK
6
CONTINUOUS
10
209.22
20
-195.729
11
209.291
21
-195.657
0
LINE
8
BLACK
6
CONTINUOUS
10
209.291
20
-195.657
11
209.434
21
-195.586
0
LINE
8
BLACK
6
CONTINUOUS
10
209.434
20
-195.586
11
209.72
21
-195.586
0
LINE
8
BLACK
6
CONTINUOUS
10
209.72
20
-195.586
11
209.863
21
-195.657
0
LINE
8
BLACK
6
CONTINUOUS
10
210.363
20
-195.586
11
210.934
21
-195.586
0
LINE
8
BLACK
6
CONTINUOUS
10
210.577
20
-196.586
11
210.577
21
-195.3
0
LINE
8
BLACK
6
CONTINUOUS
10
210.577
20
-195.3
11
210.649
21
-195.157
0
LINE
8
BLACK
6
CONTINUOUS
10
210.649
20
-195.157
11
210.791
21
-195.086
0
LINE
8
BLACK
6
CONTINUOUS
10
210.791
20
-195.086
11
210.934
21
-195.086
0
LINE
8
BLACK
6
CONTINUOUS
10
211.363
20
-196.514
11
211.506
21
-196.586
0
LINE
8
BLACK
6
CONTINUOUS
10
211.506
20
-196.586
11
211.791
21
-196.586
0
LINE
8
BLACK
6
CONTINUOUS
10
211.791
20
-196.586
11
211.934
21
-196.514
0
LINE
8
BLACK
6
CONTINUOUS
10
211.934
20
-196.514
11
212.006
21
-196.371
0
LINE
8
BLACK
6
CONTINUOUS
10
212.006
20
-196.371
11
212.006
21
-196.3
0
LINE
8
BLACK
6
CONTINUOUS
10
212.006
20
-196.3
11
211.934
21
-196.157
0
LINE
8
BLACK
6
CONTINUOUS
10
211.934
20
-196.157
11
211.791
21
-196.086
0
LINE
8
BLACK
6
CONTINUOUS
10
211.791
20
-196.086
11
211.577
21
-196.086
0
LINE
8
BLACK
6
CONTINUOUS
10
211.577
20
-196.086
11
211.434
21
-196.014
0
LINE
8
BLACK
6
CONTINUOUS
10
211.434
20
-196.014
11
211.363
21
-195.871
0
LINE
8
BLACK
6
CONTINUOUS
10
211.363
20
-195.871
11
211.363
21
-195.8
0
LINE
8
BLACK
6
CONTINUOUS
10
211.363
20
-195.8
11
211.434
21
-195.657
0
LINE
8
BLACK
6
CONTINUOUS
10
211.434
20
-195.657
11
211.577
21
-195.586
0
LINE
8
BLACK
6
CONTINUOUS
10
211.577
20
-195.586
11
211.791
21
-195.586
0
LINE
8
BLACK
6
CONTINUOUS
10
211.791
20
-195.586
11
211.934
21
-195.657
0
LINE
8
BLACK
6
CONTINUOUS
10
213.291
20
-195.586
11
213.291
21
-196.8
0
LINE
8
BLACK
6
CONTINUOUS
10
213.291
20
-196.8
11
213.22
21
-196.943
0
LINE
8
BLACK
6
CONTINUOUS
10
213.22
20
-196.943
11
213.149
21
-197.014
0
LINE
8
BLACK
6
CONTINUOUS
10
213.149
20
-197.014
11
213.006
21
-197.086
0
LINE
8
BLACK
6
CONTINUOUS
10
213.006
20
-197.086
11
212.791
21
-197.086
0
LINE
8
BLACK
6
CONTINUOUS
10
212.791
20
-197.086
11
212.649
21
-197.014
0
LINE
8
BLACK
6
CONTINUOUS
10
213.291
20
-196.514
11
213.149
21
-196.586
0
LINE
8
BLACK
6
CONTINUOUS
10
213.149
20
-196.586
11
212.863
21
-196.586
0
LINE
8
BLACK
6
CONTINUOUS
10
212.863
20
-196.586
11
212.72
21
-196.514
0
LINE
8
BLACK
6
CONTINUOUS
10
212.72
20
-196.514
11
212.649
21
-196.443
0
LINE
8
BLACK
6
CONTINUOUS
10
212.649
20
-196.443
11
212.577
21
-196.3
0
LINE
8
BLACK
6
CONTINUOUS
10
212.577
20
-196.3
11
212.577
21
-195.871
0
LINE
8
BLACK
6
CONTINUOUS
10
212.577
20
-195.871
11
212.649
21
-195.729
0
LINE
8
BLACK
6
CONTINUOUS
10
212.649
20
-195.729
11
212.72
21
-195.657
0
LINE
8
BLACK
6
CONTINUOUS
10
212.72
20
-195.657
11
212.863
21
-195.586
0
LINE
8
BLACK
6
CONTINUOUS
10
212.863
20
-195.586
11
213.149
21
-195.586
0
LINE
8
BLACK
6
CONTINUOUS
10
213.149
20
-195.586
11
213.291
21
-195.657
0
LINE
8
BLACK
6
CONTINUOUS
10
214.791
20
-196.586
11
213.934
21
-196.586
0
LINE
8
BLACK
6
CONTINUOUS
10
214.363
20
-196.586
11
214.363
21
-195.086
0
LINE
8
BLACK
6
CONTINUOUS
10
214.363
20
-195.086
11
214.22
21
-195.3
0
LINE
8
BLACK
6
CONTINUOUS
10
214.22
20
-195.3
11
214.077
21
-195.443
0
LINE
8
BLACK
6
CONTINUOUS
10
214.077
20
-195.443
11
213.934
21
-195.514
0
LINE
8
BLACK
6
CONTINUOUS
10
215.434
20
-196.014
11
216.577
21
-196.014
0
LINE
8
BLACK
6
CONTINUOUS
10
217.22
20
-195.229
11
217.291
21
-195.157
0
LINE
8
BLACK
6
CONTINUOUS
10
217.291
20
-195.157
11
217.434
21
-195.086
0
LINE
8
BLACK
6
CONTINUOUS
10
217.434
20
-195.086
11
217.791
21
-195.086
0
LINE
8
BLACK
6
CONTINUOUS
10
217.791
20
-195.086
11
217.934
21
-195.157
0
LINE
8
BLACK
6
CONTINUOUS
10
217.934
20
-195.157
11
218.006
21
-195.229
0
LINE
8
BLACK
6
CONTINUOUS
10
218.006
20
-195.229
11
218.077
21
-195.371
0
LINE
8
BLACK
6
CONTINUOUS
10
218.077
20
-195.371
11
218.077
21
-195.514
0
LINE
8
BLACK
6
CONTINUOUS
10
218.077
20
-195.514
11
218.006
21
-195.729
0
LINE
8
BLACK
6
CONTINUOUS
10
218.006
20
-195.729
11
217.149
21
-196.586
0
LINE
8
BLACK
6
CONTINUOUS
10
217.149
20
-196.586
11
218.077
21
-196.586
0
LINE
8
BLACK
6
CONTINUOUS
10
218.363
20
-194.677
11
219.72
21
-194.677
0
LINE
8
BLACK
6
CONTINUOUS
10
218.72
20
-196.586
11
218.72
21
-195.086
0
LINE
8
BLACK
6
CONTINUOUS
10
218.72
20
-195.657
11
218.863
21
-195.586
0
LINE
8
BLACK
6
CONTINUOUS
10
218.863
20
-195.586
11
219.149
21
-195.586
0
LINE
8
BLACK
6
CONTINUOUS
10
219.149
20
-195.586
11
219.291
21
-195.657
0
LINE
8
BLACK
6
CONTINUOUS
10
219.291
20
-195.657
11
219.363
21
-195.729
0
LINE
8
BLACK
6
CONTINUOUS
10
219.363
20
-195.729
11
219.434
21
-195.871
0
LINE
8
BLACK
6
CONTINUOUS
10
219.434
20
-195.871
11
219.434
21
-196.3
0
LINE
8
BLACK
6
CONTINUOUS
10
219.434
20
-196.3
11
219.363
21
-196.443
0
LINE
8
BLACK
6
CONTINUOUS
10
219.363
20
-196.443
11
219.291
21
-196.514
0
LINE
8
BLACK
6
CONTINUOUS
10
219.291
20
-196.514
11
219.149
21
-196.586
0
LINE
8
BLACK
6
CONTINUOUS
10
219.149
20
-196.586
11
218.863
21
-196.586
0
LINE
8
BLACK
6
CONTINUOUS
10
218.863
20
-196.586
11
218.72
21
-196.514
0
LINE
8
BLACK
6
CONTINUOUS
10
219.72
20
-194.677
11
221.077
21
-194.677
0
LINE
8
BLACK
6
CONTINUOUS
10
220.077
20
-195.586
11
220.077
21
-197.086
0
LINE
8
BLACK
6
CONTINUOUS
10
220.077
20
-195.657
11
220.22
21
-195.586
0
LINE
8
BLACK
6
CONTINUOUS
10
220.22
20
-195.586
11
220.506
21
-195.586
0
LINE
8
BLACK
6
CONTINUOUS
10
220.506
20
-195.586
11
220.649
21
-195.657
0
LINE
8
BLACK
6
CONTINUOUS
10
220.649
20
-195.657
11
220.72
21
-195.729
0
LINE
8
BLACK
6
CONTINUOUS
10
220.72
20
-195.729
11
220.791
21
-195.871
0
LINE
8
BLACK
6
CONTINUOUS
10
220.791
20
-195.871
11
220.791
21
-196.3
0
LINE
8
BLACK
6
CONTINUOUS
10
220.791
20
-196.3
11
220.72
21
-196.443
0
LINE
8
BLACK
6
CONTINUOUS
10
220.72
20
-196.443
11
220.649
21
-196.514
0
LINE
8
BLACK
6
CONTINUOUS
10
220.649
20
-196.514
11
220.506
21
-196.586
0
LINE
8
BLACK
6
CONTINUOUS
10
220.506
20
-196.586
11
220.22
21
-196.586
0
LINE
8
BLACK
6
CONTINUOUS
10
220.22
20
-196.586
11
220.077
21
-196.514
0
LINE
8
BLACK
6
CONTINUOUS
10
221.077
20
-194.677
11
222.434
21
-194.677
0
LINE
8
BLACK
6
CONTINUOUS
10
221.649
20
-196.586
11
221.506
21
-196.514
0
LINE
8
BLACK
6
CONTINUOUS
10
221.506
20
-196.514
11
221.434
21
-196.443
0
LINE
8
BLACK
6
CONTINUOUS
10
221.434
20
-196.443
11
221.363
21
-196.3
0
LINE
8
BLACK
6
CONTINUOUS
10
221.363
20
-196.3
11
221.363
21
-195.871
0
LINE
8
BLACK
6
CONTINUOUS
10
221.363
20
-195.871
11
221.434
21
-195.729
0
LINE
8
BLACK
6
CONTINUOUS
10
221.434
20
-195.729
11
221.506
21
-195.657
0
LINE
8
BLACK
6
CONTINUOUS
10
221.506
20
-195.657
11
221.649
21
-195.586
0
LINE
8
BLACK
6
CONTINUOUS
10
221.649
20
-195.586
11
221.863
21
-195.586
0
LINE
8
BLACK
6
CONTINUOUS
10
221.863
20
-195.586
11
222.006
21
-195.657
0
LINE
8
BLACK
6
CONTINUOUS
10
222.006
20
-195.657
11
222.077
21
-195.729
0
LINE
8
BLACK
6
CONTINUOUS
10
222.077
20
-195.729
11
222.149
21
-195.871
0
LINE
8
BLACK
6
CONTINUOUS
10
222.149
20
-195.871
11
222.149
21
-196.3
0
LINE
8
BLACK
6
CONTINUOUS
10
222.149
20
-196.3
11
222.077
21
-196.443
0
LINE
8
BLACK
6
CONTINUOUS
10
222.077
20
-196.443
11
222.006
21
-196.514
0
LINE
8
BLACK
6
CONTINUOUS
10
222.006
20
-196.514
11
221.863
21
-196.586
0
LINE
8
BLACK
6
CONTINUOUS
10
221.863
20
-196.586
11
221.649
21
-196.586
0
LINE
8
BLACK
6
CONTINUOUS
10
222.434
20
-194.677
11
223.863
21
-194.677
0
LINE
8
BLACK
6
CONTINUOUS
10
222.863
20
-196.586
11
223.149
21
-196.586
0
LINE
8
BLACK
6
CONTINUOUS
10
223.149
20
-196.586
11
223.291
21
-196.514
0
LINE
8
BLACK
6
CONTINUOUS
10
223.291
20
-196.514
11
223.363
21
-196.443
0
LINE
8
BLACK
6
CONTINUOUS
10
223.363
20
-196.443
11
223.506
21
-196.229
0
LINE
8
BLACK
6
CONTINUOUS
10
223.506
20
-196.229
11
223.577
21
-195.943
0
LINE
8
BLACK
6
CONTINUOUS
10
223.577
20
-195.943
11
223.577
21
-195.371
0
LINE
8
BLACK
6
CONTINUOUS
10
223.577
20
-195.371
11
223.506
21
-195.229
0
LINE
8
BLACK
6
CONTINUOUS
10
223.506
20
-195.229
11
223.434
21
-195.157
0
LINE
8
BLACK
6
CONTINUOUS
10
223.434
20
-195.157
11
223.291
21
-195.086
0
LINE
8
BLACK
6
CONTINUOUS
10
223.291
20
-195.086
11
223.006
21
-195.086
0
LINE
8
BLACK
6
CONTINUOUS
10
223.006
20
-195.086
11
222.863
21
-195.157
0
LINE
8
BLACK
6
CONTINUOUS
10
222.863
20
-195.157
11
222.791
21
-195.229
0
LINE
8
BLACK
6
CONTINUOUS
10
222.791
20
-195.229
11
222.72
21
-195.371
0
LINE
8
BLACK
6
CONTINUOUS
10
222.72
20
-195.371
11
222.72
21
-195.729
0
LINE
8
BLACK
6
CONTINUOUS
10
222.72
20
-195.729
11
222.791
21
-195.871
0
LINE
8
BLACK
6
CONTINUOUS
10
222.791
20
-195.871
11
222.863
21
-195.943
0
LINE
8
BLACK
6
CONTINUOUS
10
222.863
20
-195.943
11
223.006
21
-196.014
0
LINE
8
BLACK
6
CONTINUOUS
10
223.006
20
-196.014
11
223.291
21
-196.014
0
LINE
8
BLACK
6
CONTINUOUS
10
223.291
20
-196.014
11
223.434
21
-195.943
0
LINE
8
BLACK
6
CONTINUOUS
10
223.434
20
-195.943
11
223.506
21
-195.871
0
LINE
8
BLACK
6
CONTINUOUS
10
223.506
20
-195.871
11
223.577
21
-195.729
0
LINE
8
BLACK
6
CONTINUOUS
10
223.863
20
-194.677
11
225.72
21
-194.677
0
LINE
8
BLACK
6
CONTINUOUS
10
224.22
20
-196.014
11
225.363
21
-196.014
0
LINE
8
BLACK
6
CONTINUOUS
10
224.791
20
-196.586
11
224.791
21
-195.443
0
LINE
8
BLACK
6
CONTINUOUS
10
225.72
20
-194.677
11
227.149
21
-194.677
0
LINE
8
BLACK
6
CONTINUOUS
10
226.863
20
-196.586
11
226.006
21
-196.586
0
LINE
8
BLACK
6
CONTINUOUS
10
226.434
20
-196.586
11
226.434
21
-195.086
0
LINE
8
BLACK
6
CONTINUOUS
10
226.434
20
-195.086
11
226.291
21
-195.3
0
LINE
8
BLACK
6
CONTINUOUS
10
226.291
20
-195.3
11
226.149
21
-195.443
0
LINE
8
BLACK
6
CONTINUOUS
10
226.149
20
-195.443
11
226.006
21
-195.514
0
LINE
8
BLACK
6
CONTINUOUS
10
177.002
20
-191.507
11
285.002
21
-191.507
0
LINE
8
BLACK
6
CONTINUOUS
10
264.411
20
-193.786
11
263.911
21
-193.071
0
LINE
8
BLACK
6
CONTINUOUS
10
263.554
20
-193.786
11
263.554
21
-192.286
0
LINE
8
BLACK
6
CONTINUOUS
10
263.554
20
-192.286
11
264.126
21
-192.286
0
LINE
8
BLACK
6
CONTINUOUS
10
264.126
20
-192.286
11
264.269
21
-192.357
0
LINE
8
BLACK
6
CONTINUOUS
10
264.269
20
-192.357
11
264.34
21
-192.429
0
LINE
8
BLACK
6
CONTINUOUS
10
264.34
20
-192.429
11
264.411
21
-192.571
0
LINE
8
BLACK
6
CONTINUOUS
10
264.411
20
-192.571
11
264.411
21
-192.786
0
LINE
8
BLACK
6
CONTINUOUS
10
264.411
20
-192.786
11
264.34
21
-192.929
0
LINE
8
BLACK
6
CONTINUOUS
10
264.34
20
-192.929
11
264.269
21
-193
0
LINE
8
BLACK
6
CONTINUOUS
10
264.269
20
-193
11
264.126
21
-193.071
0
LINE
8
BLACK
6
CONTINUOUS
10
264.126
20
-193.071
11
263.554
21
-193.071
0
LINE
8
BLACK
6
CONTINUOUS
10
265.626
20
-193.714
11
265.483
21
-193.786
0
LINE
8
BLACK
6
CONTINUOUS
10
265.483
20
-193.786
11
265.197
21
-193.786
0
LINE
8
BLACK
6
CONTINUOUS
10
265.197
20
-193.786
11
265.054
21
-193.714
0
LINE
8
BLACK
6
CONTINUOUS
10
265.054
20
-193.714
11
264.983
21
-193.571
0
LINE
8
BLACK
6
CONTINUOUS
10
264.983
20
-193.571
11
264.983
21
-193
0
LINE
8
BLACK
6
CONTINUOUS
10
264.983
20
-193
11
265.054
21
-192.857
0
LINE
8
BLACK
6
CONTINUOUS
10
265.054
20
-192.857
11
265.197
21
-192.786
0
LINE
8
BLACK
6
CONTINUOUS
10
265.197
20
-192.786
11
265.483
21
-192.786
0
LINE
8
BLACK
6
CONTINUOUS
10
265.483
20
-192.786
11
265.626
21
-192.857
0
LINE
8
BLACK
6
CONTINUOUS
10
265.626
20
-192.857
11
265.697
21
-193
0
LINE
8
BLACK
6
CONTINUOUS
10
265.697
20
-193
11
265.697
21
-193.143
0
LINE
8
BLACK
6
CONTINUOUS
10
265.697
20
-193.143
11
264.983
21
-193.286
0
LINE
8
BLACK
6
CONTINUOUS
10
266.197
20
-192.786
11
266.554
21
-193.786
0
LINE
8
BLACK
6
CONTINUOUS
10
266.554
20
-193.786
11
266.911
21
-192.786
0
LINE
8
BLACK
6
CONTINUOUS
10
267.483
20
-193.643
11
267.554
21
-193.714
0
LINE
8
BLACK
6
CONTINUOUS
10
267.554
20
-193.714
11
267.483
21
-193.786
0
LINE
8
BLACK
6
CONTINUOUS
10
267.483
20
-193.786
11
267.411
21
-193.714
0
LINE
8
BLACK
6
CONTINUOUS
10
267.411
20
-193.714
11
267.483
21
-193.643
0
LINE
8
BLACK
6
CONTINUOUS
10
267.483
20
-193.643
11
267.483
21
-193.786
0
LINE
8
BLACK
6
CONTINUOUS
10
267.483
20
-192.857
11
267.554
21
-192.929
0
LINE
8
BLACK
6
CONTINUOUS
10
267.554
20
-192.929
11
267.483
21
-193
0
LINE
8
BLACK
6
CONTINUOUS
10
267.483
20
-193
11
267.411
21
-192.929
0
LINE
8
BLACK
6
CONTINUOUS
10
267.411
20
-192.929
11
267.483
21
-192.857
0
LINE
8
BLACK
6
CONTINUOUS
10
267.483
20
-192.857
11
267.483
21
-193
0
LINE
8
BLACK
6
CONTINUOUS
10
178.363
20
-193.714
11
178.577
21
-193.786
0
LINE
8
BLACK
6
CONTINUOUS
10
178.577
20
-193.786
11
178.934
21
-193.786
0
LINE
8
BLACK
6
CONTINUOUS
10
178.934
20
-193.786
11
179.077
21
-193.714
0
LINE
8
BLACK
6
CONTINUOUS
10
179.077
20
-193.714
11
179.149
21
-193.643
0
LINE
8
BLACK
6
CONTINUOUS
10
179.149
20
-193.643
11
179.22
21
-193.5
0
LINE
8
BLACK
6
CONTINUOUS
10
179.22
20
-193.5
11
179.22
21
-193.357
0
LINE
8
BLACK
6
CONTINUOUS
10
179.22
20
-193.357
11
179.149
21
-193.214
0
LINE
8
BLACK
6
CONTINUOUS
10
179.149
20
-193.214
11
179.077
21
-193.143
0
LINE
8
BLACK
6
CONTINUOUS
10
179.077
20
-193.143
11
178.934
21
-193.071
0
LINE
8
BLACK
6
CONTINUOUS
10
178.934
20
-193.071
11
178.649
21
-193
0
LINE
8
BLACK
6
CONTINUOUS
10
178.649
20
-193
11
178.506
21
-192.929
0
LINE
8
BLACK
6
CONTINUOUS
10
178.506
20
-192.929
11
178.434
21
-192.857
0
LINE
8
BLACK
6
CONTINUOUS
10
178.434
20
-192.857
11
178.363
21
-192.714
0
LINE
8
BLACK
6
CONTINUOUS
10
178.363
20
-192.714
11
178.363
21
-192.571
0
LINE
8
BLACK
6
CONTINUOUS
10
178.363
20
-192.571
11
178.434
21
-192.429
0
LINE
8
BLACK
6
CONTINUOUS
10
178.434
20
-192.429
11
178.506
21
-192.357
0
LINE
8
BLACK
6
CONTINUOUS
10
178.506
20
-192.357
11
178.649
21
-192.286
0
LINE
8
BLACK
6
CONTINUOUS
10
178.649
20
-192.286
11
179.006
21
-192.286
0
LINE
8
BLACK
6
CONTINUOUS
10
179.006
20
-192.286
11
179.22
21
-192.357
0
LINE
8
BLACK
6
CONTINUOUS
10
179.863
20
-193.786
11
179.863
21
-192.786
0
LINE
8
BLACK
6
CONTINUOUS
10
179.863
20
-192.286
11
179.791
21
-192.357
0
LINE
8
BLACK
6
CONTINUOUS
10
179.791
20
-192.357
11
179.863
21
-192.429
0
LINE
8
BLACK
6
CONTINUOUS
10
179.863
20
-192.429
11
179.934
21
-192.357
0
LINE
8
BLACK
6
CONTINUOUS
10
179.934
20
-192.357
11
179.863
21
-192.286
0
LINE
8
BLACK
6
CONTINUOUS
10
179.863
20
-192.286
11
179.863
21
-192.429
0
LINE
8
BLACK
6
CONTINUOUS
10
180.434
20
-192.786
11
181.22
21
-192.786
0
LINE
8
BLACK
6
CONTINUOUS
10
181.22
20
-192.786
11
180.434
21
-193.786
0
LINE
8
BLACK
6
CONTINUOUS
10
180.434
20
-193.786
11
181.22
21
-193.786
0
LINE
8
BLACK
6
CONTINUOUS
10
182.363
20
-193.714
11
182.22
21
-193.786
0
LINE
8
BLACK
6
CONTINUOUS
10
182.22
20
-193.786
11
181.934
21
-193.786
0
LINE
8
BLACK
6
CONTINUOUS
10
181.934
20
-193.786
11
181.791
21
-193.714
0
LINE
8
BLACK
6
CONTINUOUS
10
181.791
20
-193.714
11
181.72
21
-193.571
0
LINE
8
BLACK
6
CONTINUOUS
10
181.72
20
-193.571
11
181.72
21
-193
0
LINE
8
BLACK
6
CONTINUOUS
10
181.72
20
-193
11
181.791
21
-192.857
0
LINE
8
BLACK
6
CONTINUOUS
10
181.791
20
-192.857
11
181.934
21
-192.786
0
LINE
8
BLACK
6
CONTINUOUS
10
181.934
20
-192.786
11
182.22
21
-192.786
0
LINE
8
BLACK
6
CONTINUOUS
10
182.22
20
-192.786
11
182.363
21
-192.857
0
LINE
8
BLACK
6
CONTINUOUS
10
182.363
20
-192.857
11
182.434
21
-193
0
LINE
8
BLACK
6
CONTINUOUS
10
182.434
20
-193
11
182.434
21
-193.143
0
LINE
8
BLACK
6
CONTINUOUS
10
182.434
20
-193.143
11
181.72
21
-193.286
0
LINE
8
BLACK
6
CONTINUOUS
10
183.077
20
-193.643
11
183.149
21
-193.714
0
LINE
8
BLACK
6
CONTINUOUS
10
183.149
20
-193.714
11
183.077
21
-193.786
0
LINE
8
BLACK
6
CONTINUOUS
10
183.077
20
-193.786
11
183.006
21
-193.714
0
LINE
8
BLACK
6
CONTINUOUS
10
183.006
20
-193.714
11
183.077
21
-193.643
0
LINE
8
BLACK
6
CONTINUOUS
10
183.077
20
-193.643
11
183.077
21
-193.786
0
LINE
8
BLACK
6
CONTINUOUS
10
183.077
20
-192.857
11
183.149
21
-192.929
0
LINE
8
BLACK
6
CONTINUOUS
10
183.149
20
-192.929
11
183.077
21
-193
0
LINE
8
BLACK
6
CONTINUOUS
10
183.077
20
-193
11
183.006
21
-192.929
0
LINE
8
BLACK
6
CONTINUOUS
10
183.006
20
-192.929
11
183.077
21
-192.857
0
LINE
8
BLACK
6
CONTINUOUS
10
183.077
20
-192.857
11
183.077
21
-193
0
LINE
8
BLACK
6
CONTINUOUS
10
184.863
20
-193.357
11
185.577
21
-193.357
0
LINE
8
BLACK
6
CONTINUOUS
10
184.72
20
-193.786
11
185.22
21
-192.286
0
LINE
8
BLACK
6
CONTINUOUS
10
185.22
20
-192.286
11
185.72
21
-193.786
0
LINE
8
BLACK
6
CONTINUOUS
10
186.863
20
-192.786
11
186.863
21
-193.786
0
LINE
8
BLACK
6
CONTINUOUS
10
186.506
20
-192.214
11
186.149
21
-193.286
0
LINE
8
BLACK
6
CONTINUOUS
10
186.149
20
-193.286
11
187.077
21
-193.286
0
LINE
8
BLACK
6
CONTINUOUS
10
263.434
20
-196.586
11
263.434
21
-195.086
0
LINE
8
BLACK
6
CONTINUOUS
10
264.791
20
-196.586
11
264.791
21
-195.086
0
LINE
8
BLACK
6
CONTINUOUS
10
264.791
20
-196.514
11
264.649
21
-196.586
0
LINE
8
BLACK
6
CONTINUOUS
10
264.649
20
-196.586
11
264.363
21
-196.586
0
LINE
8
BLACK
6
CONTINUOUS
10
264.363
20
-196.586
11
264.22
21
-196.514
0
LINE
8
BLACK
6
CONTINUOUS
10
264.22
20
-196.514
11
264.149
21
-196.443
0
LINE
8
BLACK
6
CONTINUOUS
10
264.149
20
-196.443
11
264.077
21
-196.3
0
LINE
8
BLACK
6
CONTINUOUS
10
264.077
20
-196.3
11
264.077
21
-195.871
0
LINE
8
BLACK
6
CONTINUOUS
10
264.077
20
-195.871
11
264.149
21
-195.729
0
LINE
8
BLACK
6
CONTINUOUS
10
264.149
20
-195.729
11
264.22
21
-195.657
0
LINE
8
BLACK
6
CONTINUOUS
10
264.22
20
-195.657
11
264.363
21
-195.586
0
LINE
8
BLACK
6
CONTINUOUS
10
264.363
20
-195.586
11
264.649
21
-195.586
0
LINE
8
BLACK
6
CONTINUOUS
10
264.649
20
-195.586
11
264.791
21
-195.657
0
LINE
8
BLACK
6
CONTINUOUS
10
265.506
20
-196.443
11
265.577
21
-196.514
0
LINE
8
BLACK
6
CONTINUOUS
10
265.577
20
-196.514
11
265.506
21
-196.586
0
LINE
8
BLACK
6
CONTINUOUS
10
265.506
20
-196.586
11
265.434
21
-196.514
0
LINE
8
BLACK
6
CONTINUOUS
10
265.434
20
-196.514
11
265.506
21
-196.443
0
LINE
8
BLACK
6
CONTINUOUS
10
265.506
20
-196.443
11
265.506
21
-196.586
0
LINE
8
BLACK
6
CONTINUOUS
10
265.506
20
-195.657
11
265.577
21
-195.729
0
LINE
8
BLACK
6
CONTINUOUS
10
265.577
20
-195.729
11
265.506
21
-195.8
0
LINE
8
BLACK
6
CONTINUOUS
10
265.506
20
-195.8
11
265.434
21
-195.729
0
LINE
8
BLACK
6
CONTINUOUS
10
265.434
20
-195.729
11
265.506
21
-195.657
0
LINE
8
BLACK
6
CONTINUOUS
10
265.506
20
-195.657
11
265.506
21
-195.8
0
LINE
8
BLACK
6
CONTINUOUS
10
268.149
20
-196.586
11
267.291
21
-196.586
0
LINE
8
BLACK
6
CONTINUOUS
10
267.72
20
-196.586
11
267.72
21
-195.086
0
LINE
8
BLACK
6
CONTINUOUS
10
267.72
20
-195.086
11
267.577
21
-195.3
0
LINE
8
BLACK
6
CONTINUOUS
10
267.577
20
-195.3
11
267.434
21
-195.443
0
LINE
8
BLACK
6
CONTINUOUS
10
267.434
20
-195.443
11
267.291
21
-195.514
0
LINE
8
BLACK
6
CONTINUOUS
10
269.863
20
-195.014
11
268.577
21
-196.943
0
LINE
8
BLACK
6
CONTINUOUS
10
271.149
20
-196.586
11
270.291
21
-196.586
0
LINE
8
BLACK
6
CONTINUOUS
10
270.72
20
-196.586
11
270.72
21
-195.086
0
LINE
8
BLACK
6
CONTINUOUS
10
270.72
20
-195.086
11
270.577
21
-195.3
0
LINE
8
BLACK
6
CONTINUOUS
10
270.577
20
-195.3
11
270.434
21
-195.443
0
LINE
8
BLACK
6
CONTINUOUS
10
270.434
20
-195.443
11
270.291
21
-195.514
0
LINE
8
BLACK
6
CONTINUOUS
10
177.002
20
-187.507
11
285.002
21
-187.507
0
LINE
8
BLACK
6
CONTINUOUS
10
178.715
20
-188.212
11
179.857
21
-188.212
0
LINE
8
BLACK
6
CONTINUOUS
10
179.036
20
-190.212
11
179.286
21
-188.212
0
LINE
8
BLACK
6
CONTINUOUS
10
180.274
20
-190.212
11
180.441
21
-188.879
0
LINE
8
BLACK
6
CONTINUOUS
10
180.524
20
-188.212
11
180.417
21
-188.307
0
LINE
8
BLACK
6
CONTINUOUS
10
180.417
20
-188.307
11
180.5
21
-188.402
0
LINE
8
BLACK
6
CONTINUOUS
10
180.5
20
-188.402
11
180.607
21
-188.307
0
LINE
8
BLACK
6
CONTINUOUS
10
180.607
20
-188.307
11
180.524
21
-188.212
0
LINE
8
BLACK
6
CONTINUOUS
10
180.524
20
-188.212
11
180.5
21
-188.402
0
LINE
8
BLACK
6
CONTINUOUS
10
181.107
20
-188.879
11
181.869
21
-188.879
0
LINE
8
BLACK
6
CONTINUOUS
10
181.476
20
-188.212
11
181.262
21
-189.926
0
LINE
8
BLACK
6
CONTINUOUS
10
181.262
20
-189.926
11
181.334
21
-190.117
0
LINE
8
BLACK
6
CONTINUOUS
10
181.334
20
-190.117
11
181.512
21
-190.212
0
LINE
8
BLACK
6
CONTINUOUS
10
181.512
20
-190.212
11
181.703
21
-190.212
0
LINE
8
BLACK
6
CONTINUOUS
10
182.655
20
-190.212
11
182.476
21
-190.117
0
LINE
8
BLACK
6
CONTINUOUS
10
182.476
20
-190.117
11
182.405
21
-189.926
0
LINE
8
BLACK
6
CONTINUOUS
10
182.405
20
-189.926
11
182.619
21
-188.212
0
LINE
8
BLACK
6
CONTINUOUS
10
184.191
20
-190.117
11
183.988
21
-190.212
0
LINE
8
BLACK
6
CONTINUOUS
10
183.988
20
-190.212
11
183.607
21
-190.212
0
LINE
8
BLACK
6
CONTINUOUS
10
183.607
20
-190.212
11
183.429
21
-190.117
0
LINE
8
BLACK
6
CONTINUOUS
10
183.429
20
-190.117
11
183.357
21
-189.926
0
LINE
8
BLACK
6
CONTINUOUS
10
183.357
20
-189.926
11
183.453
21
-189.164
0
LINE
8
BLACK
6
CONTINUOUS
10
183.453
20
-189.164
11
183.572
21
-188.974
0
LINE
8
BLACK
6
CONTINUOUS
10
183.572
20
-188.974
11
183.774
21
-188.879
0
LINE
8
BLACK
6
CONTINUOUS
10
183.774
20
-188.879
11
184.155
21
-188.879
0
LINE
8
BLACK
6
CONTINUOUS
10
184.155
20
-188.879
11
184.334
21
-188.974
0
LINE
8
BLACK
6
CONTINUOUS
10
184.334
20
-188.974
11
184.405
21
-189.164
0
LINE
8
BLACK
6
CONTINUOUS
10
184.405
20
-189.164
11
184.381
21
-189.355
0
LINE
8
BLACK
6
CONTINUOUS
10
184.381
20
-189.355
11
183.405
21
-189.545
0
LINE
8
BLACK
6
CONTINUOUS
10
185.155
20
-190.021
11
185.238
21
-190.117
0
LINE
8
BLACK
6
CONTINUOUS
10
185.238
20
-190.117
11
185.131
21
-190.212
0
LINE
8
BLACK
6
CONTINUOUS
10
185.131
20
-190.212
11
185.048
21
-190.117
0
LINE
8
BLACK
6
CONTINUOUS
10
185.048
20
-190.117
11
185.155
21
-190.021
0
LINE
8
BLACK
6
CONTINUOUS
10
185.155
20
-190.021
11
185.131
21
-190.212
0
LINE
8
BLACK
6
CONTINUOUS
10
185.286
20
-188.974
11
185.369
21
-189.069
0
LINE
8
BLACK
6
CONTINUOUS
10
185.369
20
-189.069
11
185.262
21
-189.164
0
LINE
8
BLACK
6
CONTINUOUS
10
185.262
20
-189.164
11
185.179
21
-189.069
0
LINE
8
BLACK
6
CONTINUOUS
10
185.179
20
-189.069
11
185.286
21
-188.974
0
LINE
8
BLACK
6
CONTINUOUS
10
185.286
20
-188.974
11
185.262
21
-189.164
0
LINE
8
BLACK
6
CONTINUOUS
10
178.934
20
-185.6
11
178.434
21
-185.6
0
LINE
8
BLACK
6
CONTINUOUS
10
178.434
20
-186.386
11
178.434
21
-184.886
0
LINE
8
BLACK
6
CONTINUOUS
10
178.434
20
-184.886
11
179.149
21
-184.886
0
LINE
8
BLACK
6
CONTINUOUS
10
179.72
20
-186.386
11
179.72
21
-185.386
0
LINE
8
BLACK
6
CONTINUOUS
10
179.72
20
-184.886
11
179.649
21
-184.957
0
LINE
8
BLACK
6
CONTINUOUS
10
179.649
20
-184.957
11
179.72
21
-185.029
0
LINE
8
BLACK
6
CONTINUOUS
10
179.72
20
-185.029
11
179.791
21
-184.957
0
LINE
8
BLACK
6
CONTINUOUS
10
179.791
20
-184.957
11
179.72
21
-184.886
0
LINE
8
BLACK
6
CONTINUOUS
10
179.72
20
-184.886
11
179.72
21
-185.029
0
LINE
8
BLACK
6
CONTINUOUS
10
180.649
20
-186.386
11
180.506
21
-186.314
0
LINE
8
BLACK
6
CONTINUOUS
10
180.506
20
-186.314
11
180.434
21
-186.171
0
LINE
8
BLACK
6
CONTINUOUS
10
180.434
20
-186.171
11
180.434
21
-184.886
0
LINE
8
BLACK
6
CONTINUOUS
10
181.791
20
-186.314
11
181.649
21
-186.386
0
LINE
8
BLACK
6
CONTINUOUS
10
181.649
20
-186.386
11
181.363
21
-186.386
0
LINE
8
BLACK
6
CONTINUOUS
10
181.363
20
-186.386
11
181.22
21
-186.314
0
LINE
8
BLACK
6
CONTINUOUS
10
181.22
20
-186.314
11
181.149
21
-186.171
0
LINE
8
BLACK
6
CONTINUOUS
10
181.149
20
-186.171
11
181.149
21
-185.6
0
LINE
8
BLACK
6
CONTINUOUS
10
181.149
20
-185.6
11
181.22
21
-185.457
0
LINE
8
BLACK
6
CONTINUOUS
10
181.22
20
-185.457
11
181.363
21
-185.386
0
LINE
8
BLACK
6
CONTINUOUS
10
181.363
20
-185.386
11
181.649
21
-185.386
0
LINE
8
BLACK
6
CONTINUOUS
10
181.649
20
-185.386
11
181.791
21
-185.457
0
LINE
8
BLACK
6
CONTINUOUS
10
181.791
20
-185.457
11
181.863
21
-185.6
0
LINE
8
BLACK
6
CONTINUOUS
10
181.863
20
-185.6
11
181.863
21
-185.743
0
LINE
8
BLACK
6
CONTINUOUS
10
181.863
20
-185.743
11
181.149
21
-185.886
0
LINE
8
BLACK
6
CONTINUOUS
10
182.506
20
-186.243
11
182.577
21
-186.314
0
LINE
8
BLACK
6
CONTINUOUS
10
182.577
20
-186.314
11
182.506
21
-186.386
0
LINE
8
BLACK
6
CONTINUOUS
10
182.506
20
-186.386
11
182.434
21
-186.314
0
LINE
8
BLACK
6
CONTINUOUS
10
182.434
20
-186.314
11
182.506
21
-186.243
0
LINE
8
BLACK
6
CONTINUOUS
10
182.506
20
-186.243
11
182.506
21
-186.386
0
LINE
8
BLACK
6
CONTINUOUS
10
182.506
20
-185.457
11
182.577
21
-185.529
0
LINE
8
BLACK
6
CONTINUOUS
10
182.577
20
-185.529
11
182.506
21
-185.6
0
LINE
8
BLACK
6
CONTINUOUS
10
182.506
20
-185.6
11
182.434
21
-185.529
0
LINE
8
BLACK
6
CONTINUOUS
10
182.434
20
-185.529
11
182.506
21
-185.457
0
LINE
8
BLACK
6
CONTINUOUS
10
182.506
20
-185.457
11
182.506
21
-185.6
0
LINE
8
BLACK
6
CONTINUOUS
10
184.363
20
-186.386
11
184.363
21
-185.386
0
LINE
8
BLACK
6
CONTINUOUS
10
184.363
20
-184.886
11
184.291
21
-184.957
0
LINE
8
BLACK
6
CONTINUOUS
10
184.291
20
-184.957
11
184.363
21
-185.029
0
LINE
8
BLACK
6
CONTINUOUS
10
184.363
20
-185.029
11
184.434
21
-184.957
0
LINE
8
BLACK
6
CONTINUOUS
10
184.434
20
-184.957
11
184.363
21
-184.886
0
LINE
8
BLACK
6
CONTINUOUS
10
184.363
20
-184.886
11
184.363
21
-185.029
0
LINE
8
BLACK
6
CONTINUOUS
10
185.72
20
-186.386
11
185.72
21
-185.6
0
LINE
8
BLACK
6
CONTINUOUS
10
185.72
20
-185.6
11
185.649
21
-185.457
0
LINE
8
BLACK
6
CONTINUOUS
10
185.649
20
-185.457
11
185.506
21
-185.386
0
LINE
8
BLACK
6
CONTINUOUS
10
185.506
20
-185.386
11
185.22
21
-185.386
0
LINE
8
BLACK
6
CONTINUOUS
10
185.22
20
-185.386
11
185.077
21
-185.457
0
LINE
8
BLACK
6
CONTINUOUS
10
185.72
20
-186.314
11
185.577
21
-186.386
0
LINE
8
BLACK
6
CONTINUOUS
10
185.577
20
-186.386
11
185.22
21
-186.386
0
LINE
8
BLACK
6
CONTINUOUS
10
185.22
20
-186.386
11
185.077
21
-186.314
0
LINE
8
BLACK
6
CONTINUOUS
10
185.077
20
-186.314
11
185.006
21
-186.171
0
LINE
8
BLACK
6
CONTINUOUS
10
185.006
20
-186.171
11
185.006
21
-186.029
0
LINE
8
BLACK
6
CONTINUOUS
10
185.006
20
-186.029
11
185.077
21
-185.886
0
LINE
8
BLACK
6
CONTINUOUS
10
185.077
20
-185.886
11
185.22
21
-185.814
0
LINE
8
BLACK
6
CONTINUOUS
10
185.22
20
-185.814
11
185.577
21
-185.814
0
LINE
8
BLACK
6
CONTINUOUS
10
185.577
20
-185.814
11
185.72
21
-185.743
0
LINE
8
BLACK
6
CONTINUOUS
10
186.434
20
-186.386
11
186.434
21
-185.386
0
LINE
8
BLACK
6
CONTINUOUS
10
186.434
20
-184.886
11
186.363
21
-184.957
0
LINE
8
BLACK
6
CONTINUOUS
10
186.363
20
-184.957
11
186.434
21
-185.029
0
LINE
8
BLACK
6
CONTINUOUS
10
186.434
20
-185.029
11
186.506
21
-184.957
0
LINE
8
BLACK
6
CONTINUOUS
10
186.506
20
-184.957
11
186.434
21
-184.886
0
LINE
8
BLACK
6
CONTINUOUS
10
186.434
20
-184.886
11
186.434
21
-185.029
0
LINE
8
BLACK
6
CONTINUOUS
10
187.149
20
-186.243
11
187.22
21
-186.314
0
LINE
8
BLACK
6
CONTINUOUS
10
187.22
20
-186.314
11
187.149
21
-186.386
0
LINE
8
BLACK
6
CONTINUOUS
10
187.149
20
-186.386
11
187.077
21
-186.314
0
LINE
8
BLACK
6
CONTINUOUS
10
187.077
20
-186.314
11
187.149
21
-186.243
0
LINE
8
BLACK
6
CONTINUOUS
10
187.149
20
-186.243
11
187.149
21
-186.386
0
LINE
8
BLACK
6
CONTINUOUS
10
187.863
20
-186.386
11
187.863
21
-184.886
0
LINE
8
BLACK
6
CONTINUOUS
10
188.006
20
-185.814
11
188.434
21
-186.386
0
LINE
8
BLACK
6
CONTINUOUS
10
188.434
20
-185.386
11
187.863
21
-185.957
0
LINE
8
BLACK
6
CONTINUOUS
10
189.077
20
-186.386
11
189.077
21
-185.386
0
LINE
8
BLACK
6
CONTINUOUS
10
189.077
20
-184.886
11
189.006
21
-184.957
0
LINE
8
BLACK
6
CONTINUOUS
10
189.006
20
-184.957
11
189.077
21
-185.029
0
LINE
8
BLACK
6
CONTINUOUS
10
189.077
20
-185.029
11
189.149
21
-184.957
0
LINE
8
BLACK
6
CONTINUOUS
10
189.149
20
-184.957
11
189.077
21
-184.886
0
LINE
8
BLACK
6
CONTINUOUS
10
189.077
20
-184.886
11
189.077
21
-185.029
0
LINE
8
BLACK
6
CONTINUOUS
10
190.434
20
-186.314
11
190.291
21
-186.386
0
LINE
8
BLACK
6
CONTINUOUS
10
190.291
20
-186.386
11
190.006
21
-186.386
0
LINE
8
BLACK
6
CONTINUOUS
10
190.006
20
-186.386
11
189.863
21
-186.314
0
LINE
8
BLACK
6
CONTINUOUS
10
189.863
20
-186.314
11
189.791
21
-186.243
0
LINE
8
BLACK
6
CONTINUOUS
10
189.791
20
-186.243
11
189.72
21
-186.1
0
LINE
8
BLACK
6
CONTINUOUS
10
189.72
20
-186.1
11
189.72
21
-185.671
0
LINE
8
BLACK
6
CONTINUOUS
10
189.72
20
-185.671
11
189.791
21
-185.529
0
LINE
8
BLACK
6
CONTINUOUS
10
189.791
20
-185.529
11
189.863
21
-185.457
0
LINE
8
BLACK
6
CONTINUOUS
10
189.863
20
-185.457
11
190.006
21
-185.386
0
LINE
8
BLACK
6
CONTINUOUS
10
190.006
20
-185.386
11
190.291
21
-185.386
0
LINE
8
BLACK
6
CONTINUOUS
10
190.291
20
-185.386
11
190.434
21
-185.457
0
LINE
8
BLACK
6
CONTINUOUS
10
191.72
20
-186.386
11
191.72
21
-185.6
0
LINE
8
BLACK
6
CONTINUOUS
10
191.72
20
-185.6
11
191.649
21
-185.457
0
LINE
8
BLACK
6
CONTINUOUS
10
191.649
20
-185.457
11
191.506
21
-185.386
0
LINE
8
BLACK
6
CONTINUOUS
10
191.506
20
-185.386
11
191.22
21
-185.386
0
LINE
8
BLACK
6
CONTINUOUS
10
191.22
20
-185.386
11
191.077
21
-185.457
0
LINE
8
BLACK
6
CONTINUOUS
10
191.72
20
-186.314
11
191.577
21
-186.386
0
LINE
8
BLACK
6
CONTINUOUS
10
191.577
20
-186.386
11
191.22
21
-186.386
0
LINE
8
BLACK
6
CONTINUOUS
10
191.22
20
-186.386
11
191.077
21
-186.314
0
LINE
8
BLACK
6
CONTINUOUS
10
191.077
20
-186.314
11
191.006
21
-186.171
0
LINE
8
BLACK
6
CONTINUOUS
10
191.006
20
-186.171
11
191.006
21
-186.029
0
LINE
8
BLACK
6
CONTINUOUS
10
191.006
20
-186.029
11
191.077
21
-185.886
0
LINE
8
BLACK
6
CONTINUOUS
10
191.077
20
-185.886
11
191.22
21
-185.814
0
LINE
8
BLACK
6
CONTINUOUS
10
191.22
20
-185.814
11
191.577
21
-185.814
0
LINE
8
BLACK
6
CONTINUOUS
10
191.577
20
-185.814
11
191.72
21
-185.743
0
LINE
8
BLACK
6
CONTINUOUS
10
193.077
20
-186.386
11
193.077
21
-184.886
0
LINE
8
BLACK
6
CONTINUOUS
10
193.077
20
-186.314
11
192.934
21
-186.386
0
LINE
8
BLACK
6
CONTINUOUS
10
192.934
20
-186.386
11
192.649
21
-186.386
0
LINE
8
BLACK
6
CONTINUOUS
10
192.649
20
-186.386
11
192.506
21
-186.314
0
LINE
8
BLACK
6
CONTINUOUS
10
192.506
20
-186.314
11
192.434
21
-186.243
0
LINE
8
BLACK
6
CONTINUOUS
10
192.434
20
-186.243
11
192.363
21
-186.1
0
LINE
8
BLACK
6
CONTINUOUS
10
192.363
20
-186.1
11
192.363
21
-185.671
0
LINE
8
BLACK
6
CONTINUOUS
10
192.363
20
-185.671
11
192.434
21
-185.529
0
LINE
8
BLACK
6
CONTINUOUS
10
192.434
20
-185.529
11
192.506
21
-185.457
0
LINE
8
BLACK
6
CONTINUOUS
10
192.506
20
-185.457
11
192.649
21
-185.386
0
LINE
8
BLACK
6
CONTINUOUS
10
192.649
20
-185.386
11
192.934
21
-185.386
0
LINE
8
BLACK
6
CONTINUOUS
10
192.934
20
-185.386
11
193.077
21
-185.457
0
LINE
8
BLACK
6
CONTINUOUS
10
193.434
20
-186.529
11
194.577
21
-186.529
0
LINE
8
BLACK
6
CONTINUOUS
10
194.934
20
-185.386
11
194.934
21
-186.886
0
LINE
8
BLACK
6
CONTINUOUS
10
194.934
20
-185.457
11
195.077
21
-185.386
0
LINE
8
BLACK
6
CONTINUOUS
10
195.077
20
-185.386
11
195.363
21
-185.386
0
LINE
8
BLACK
6
CONTINUOUS
10
195.363
20
-185.386
11
195.506
21
-185.457
0
LINE
8
BLACK
6
CONTINUOUS
10
195.506
20
-185.457
11
195.577
21
-185.529
0
LINE
8
BLACK
6
CONTINUOUS
10
195.577
20
-185.529
11
195.649
21
-185.671
0
LINE
8
BLACK
6
CONTINUOUS
10
195.649
20
-185.671
11
195.649
21
-186.1
0
LINE
8
BLACK
6
CONTINUOUS
10
195.649
20
-186.1
11
195.577
21
-186.243
0
LINE
8
BLACK
6
CONTINUOUS
10
195.577
20
-186.243
11
195.506
21
-186.314
0
LINE
8
BLACK
6
CONTINUOUS
10
195.506
20
-186.314
11
195.363
21
-186.386
0
LINE
8
BLACK
6
CONTINUOUS
10
195.363
20
-186.386
11
195.077
21
-186.386
0
LINE
8
BLACK
6
CONTINUOUS
10
195.077
20
-186.386
11
194.934
21
-186.314
0
LINE
8
BLACK
6
CONTINUOUS
10
196.934
20
-186.314
11
196.791
21
-186.386
0
LINE
8
BLACK
6
CONTINUOUS
10
196.791
20
-186.386
11
196.506
21
-186.386
0
LINE
8
BLACK
6
CONTINUOUS
10
196.506
20
-186.386
11
196.363
21
-186.314
0
LINE
8
BLACK
6
CONTINUOUS
10
196.363
20
-186.314
11
196.291
21
-186.243
0
LINE
8
BLACK
6
CONTINUOUS
10
196.291
20
-186.243
11
196.22
21
-186.1
0
LINE
8
BLACK
6
CONTINUOUS
10
196.22
20
-186.1
11
196.22
21
-185.671
0
LINE
8
BLACK
6
CONTINUOUS
10
196.22
20
-185.671
11
196.291
21
-185.529
0
LINE
8
BLACK
6
CONTINUOUS
10
196.291
20
-185.529
11
196.363
21
-185.457
0
LINE
8
BLACK
6
CONTINUOUS
10
196.363
20
-185.457
11
196.506
21
-185.386
0
LINE
8
BLACK
6
CONTINUOUS
10
196.506
20
-185.386
11
196.791
21
-185.386
0
LINE
8
BLACK
6
CONTINUOUS
10
196.791
20
-185.386
11
196.934
21
-185.457
0
LINE
8
BLACK
6
CONTINUOUS
10
197.577
20
-186.386
11
197.577
21
-184.886
0
LINE
8
BLACK
6
CONTINUOUS
10
197.577
20
-185.457
11
197.72
21
-185.386
0
LINE
8
BLACK
6
CONTINUOUS
10
197.72
20
-185.386
11
198.006
21
-185.386
0
LINE
8
BLACK
6
CONTINUOUS
10
198.006
20
-185.386
11
198.149
21
-185.457
0
LINE
8
BLACK
6
CONTINUOUS
10
198.149
20
-185.457
11
198.22
21
-185.529
0
LINE
8
BLACK
6
CONTINUOUS
10
198.22
20
-185.529
11
198.291
21
-185.671
0
LINE
8
BLACK
6
CONTINUOUS
10
198.291
20
-185.671
11
198.291
21
-186.1
0
LINE
8
BLACK
6
CONTINUOUS
10
198.291
20
-186.1
11
198.22
21
-186.243
0
LINE
8
BLACK
6
CONTINUOUS
10
198.22
20
-186.243
11
198.149
21
-186.314
0
LINE
8
BLACK
6
CONTINUOUS
10
198.149
20
-186.314
11
198.006
21
-186.386
0
LINE
8
BLACK
6
CONTINUOUS
10
198.006
20
-186.386
11
197.72
21
-186.386
0
LINE
8
BLACK
6
CONTINUOUS
10
197.72
20
-186.386
11
197.577
21
-186.314
0
LINE
8
BLACK
6
CONTINUOUS
10
177.002
20
-181.507
11
285.002
21
-181.507
0
LINE
8
BLACK
6
CONTINUOUS
10
178.363
20
-183.614
11
178.577
21
-183.686
0
LINE
8
BLACK
6
CONTINUOUS
10
178.577
20
-183.686
11
178.934
21
-183.686
0
LINE
8
BLACK
6
CONTINUOUS
10
178.934
20
-183.686
11
179.077
21
-183.614
0
LINE
8
BLACK
6
CONTINUOUS
10
179.077
20
-183.614
11
179.149
21
-183.543
0
LINE
8
BLACK
6
CONTINUOUS
10
179.149
20
-183.543
11
179.22
21
-183.4
0
LINE
8
BLACK
6
CONTINUOUS
10
179.22
20
-183.4
11
179.22
21
-183.257
0
LINE
8
BLACK
6
CONTINUOUS
10
179.22
20
-183.257
11
179.149
21
-183.114
0
LINE
8
BLACK
6
CONTINUOUS
10
179.149
20
-183.114
11
179.077
21
-183.043
0
LINE
8
BLACK
6
CONTINUOUS
10
179.077
20
-183.043
11
178.934
21
-182.971
0
LINE
8
BLACK
6
CONTINUOUS
10
178.934
20
-182.971
11
178.649
21
-182.9
0
LINE
8
BLACK
6
CONTINUOUS
10
178.649
20
-182.9
11
178.506
21
-182.829
0
LINE
8
BLACK
6
CONTINUOUS
10
178.506
20
-182.829
11
178.434
21
-182.757
0
LINE
8
BLACK
6
CONTINUOUS
10
178.434
20
-182.757
11
178.363
21
-182.614
0
LINE
8
BLACK
6
CONTINUOUS
10
178.363
20
-182.614
11
178.363
21
-182.471
0
LINE
8
BLACK
6
CONTINUOUS
10
178.363
20
-182.471
11
178.434
21
-182.329
0
LINE
8
BLACK
6
CONTINUOUS
10
178.434
20
-182.329
11
178.506
21
-182.257
0
LINE
8
BLACK
6
CONTINUOUS
10
178.506
20
-182.257
11
178.649
21
-182.186
0
LINE
8
BLACK
6
CONTINUOUS
10
178.649
20
-182.186
11
179.006
21
-182.186
0
LINE
8
BLACK
6
CONTINUOUS
10
179.006
20
-182.186
11
179.22
21
-182.257
0
LINE
8
BLACK
6
CONTINUOUS
10
179.863
20
-183.686
11
179.863
21
-182.186
0
LINE
8
BLACK
6
CONTINUOUS
10
180.506
20
-183.686
11
180.506
21
-182.9
0
LINE
8
BLACK
6
CONTINUOUS
10
180.506
20
-182.9
11
180.434
21
-182.757
0
LINE
8
BLACK
6
CONTINUOUS
10
180.434
20
-182.757
11
180.291
21
-182.686
0
LINE
8
BLACK
6
CONTINUOUS
10
180.291
20
-182.686
11
180.077
21
-182.686
0
LINE
8
BLACK
6
CONTINUOUS
10
180.077
20
-182.686
11
179.934
21
-182.757
0
LINE
8
BLACK
6
CONTINUOUS
10
179.934
20
-182.757
11
179.863
21
-182.829
0
LINE
8
BLACK
6
CONTINUOUS
10
181.791
20
-183.614
11
181.649
21
-183.686
0
LINE
8
BLACK
6
CONTINUOUS
10
181.649
20
-183.686
11
181.363
21
-183.686
0
LINE
8
BLACK
6
CONTINUOUS
10
181.363
20
-183.686
11
181.22
21
-183.614
0
LINE
8
BLACK
6
CONTINUOUS
10
181.22
20
-183.614
11
181.149
21
-183.471
0
LINE
8
BLACK
6
CONTINUOUS
10
181.149
20
-183.471
11
181.149
21
-182.9
0
LINE
8
BLACK
6
CONTINUOUS
10
181.149
20
-182.9
11
181.22
21
-182.757
0
LINE
8
BLACK
6
CONTINUOUS
10
181.22
20
-182.757
11
181.363
21
-182.686
0
LINE
8
BLACK
6
CONTINUOUS
10
181.363
20
-182.686
11
181.649
21
-182.686
0
LINE
8
BLACK
6
CONTINUOUS
10
181.649
20
-182.686
11
181.791
21
-182.757
0
LINE
8
BLACK
6
CONTINUOUS
10
181.791
20
-182.757
11
181.863
21
-182.9
0
LINE
8
BLACK
6
CONTINUOUS
10
181.863
20
-182.9
11
181.863
21
-183.043
0
LINE
8
BLACK
6
CONTINUOUS
10
181.863
20
-183.043
11
181.149
21
-183.186
0
LINE
8
BLACK
6
CONTINUOUS
10
183.077
20
-183.614
11
182.934
21
-183.686
0
LINE
8
BLACK
6
CONTINUOUS
10
182.934
20
-183.686
11
182.649
21
-183.686
0
LINE
8
BLACK
6
CONTINUOUS
10
182.649
20
-183.686
11
182.506
21
-183.614
0
LINE
8
BLACK
6
CONTINUOUS
10
182.506
20
-183.614
11
182.434
21
-183.471
0
LINE
8
BLACK
6
CONTINUOUS
10
182.434
20
-183.471
11
182.434
21
-182.9
0
LINE
8
BLACK
6
CONTINUOUS
10
182.434
20
-182.9
11
182.506
21
-182.757
0
LINE
8
BLACK
6
CONTINUOUS
10
182.506
20
-182.757
11
182.649
21
-182.686
0
LINE
8
BLACK
6
CONTINUOUS
10
182.649
20
-182.686
11
182.934
21
-182.686
0
LINE
8
BLACK
6
CONTINUOUS
10
182.934
20
-182.686
11
183.077
21
-182.757
0
LINE
8
BLACK
6
CONTINUOUS
10
183.077
20
-182.757
11
183.149
21
-182.9
0
LINE
8
BLACK
6
CONTINUOUS
10
183.149
20
-182.9
11
183.149
21
-183.043
0
LINE
8
BLACK
6
CONTINUOUS
10
183.149
20
-183.043
11
182.434
21
-183.186
0
LINE
8
BLACK
6
CONTINUOUS
10
183.577
20
-182.686
11
184.149
21
-182.686
0
LINE
8
BLACK
6
CONTINUOUS
10
183.791
20
-182.186
11
183.791
21
-183.471
0
LINE
8
BLACK
6
CONTINUOUS
10
183.791
20
-183.471
11
183.863
21
-183.614
0
LINE
8
BLACK
6
CONTINUOUS
10
183.863
20
-183.614
11
184.006
21
-183.686
0
LINE
8
BLACK
6
CONTINUOUS
10
184.006
20
-183.686
11
184.149
21
-183.686
0
LINE
8
BLACK
6
CONTINUOUS
10
184.649
20
-183.543
11
184.72
21
-183.614
0
LINE
8
BLACK
6
CONTINUOUS
10
184.72
20
-183.614
11
184.649
21
-183.686
0
LINE
8
BLACK
6
CONTINUOUS
10
184.649
20
-183.686
11
184.577
21
-183.614
0
LINE
8
BLACK
6
CONTINUOUS
10
184.577
20
-183.614
11
184.649
21
-183.543
0
LINE
8
BLACK
6
CONTINUOUS
10
184.649
20
-183.543
11
184.649
21
-183.686
0
LINE
8
BLACK
6
CONTINUOUS
10
184.649
20
-182.757
11
184.72
21
-182.829
0
LINE
8
BLACK
6
CONTINUOUS
10
184.72
20
-182.829
11
184.649
21
-182.9
0
LINE
8
BLACK
6
CONTINUOUS
10
184.649
20
-182.9
11
184.577
21
-182.829
0
LINE
8
BLACK
6
CONTINUOUS
10
184.577
20
-182.829
11
184.649
21
-182.757
0
LINE
8
BLACK
6
CONTINUOUS
10
184.649
20
-182.757
11
184.649
21
-182.9
0
LINE
8
BLACK
6
CONTINUOUS
10
197.002
20
-191.507
11
197.002
21
-194.507
0
LINE
8
BLACK
6
CONTINUOUS
10
261.002
20
-191.507
11
261.002
21
-198.007
0
LINE
8
BLACK
6
CONTINUOUS
10
160.936
20
-128.202
11
160.569
21
-128.708
0
LINE
8
BLACK
6
CONTINUOUS
10
160.569
20
-128.708
11
160.087
21
-129.107
0
LINE
8
BLACK
6
CONTINUOUS
10
160.087
20
-129.107
11
159.521
21
-129.373
0
LINE
8
BLACK
6
CONTINUOUS
10
159.521
20
-129.373
11
158.907
21
-129.49
0
LINE
8
BLACK
6
CONTINUOUS
10
158.907
20
-129.49
11
158.282
21
-129.451
0
LINE
8
BLACK
6
CONTINUOUS
10
158.282
20
-129.451
11
157.688
21
-129.258
0
LINE
8
BLACK
6
CONTINUOUS
10
157.688
20
-129.258
11
157.16
21
-128.922
0
LINE
8
BLACK
6
CONTINUOUS
10
157.16
20
-128.922
11
156.732
21
-128.467
0
LINE
8
BLACK
6
CONTINUOUS
10
156.732
20
-128.467
11
156.43
21
-127.918
0
LINE
8
BLACK
6
CONTINUOUS
10
156.43
20
-127.918
11
156.275
21
-127.313
0
LINE
8
BLACK
6
CONTINUOUS
10
156.275
20
-127.313
11
156.275
21
-126.687
0
LINE
8
BLACK
6
CONTINUOUS
10
156.275
20
-126.687
11
156.43
21
-126.082
0
LINE
8
BLACK
6
CONTINUOUS
10
156.43
20
-126.082
11
156.732
21
-125.533
0
LINE
8
BLACK
6
CONTINUOUS
10
156.732
20
-125.533
11
157.16
21
-125.078
0
LINE
8
BLACK
6
CONTINUOUS
10
157.16
20
-125.078
11
157.688
21
-124.742
0
LINE
8
BLACK
6
CONTINUOUS
10
157.688
20
-124.742
11
158.282
21
-124.549
0
LINE
8
BLACK
6
CONTINUOUS
10
158.282
20
-124.549
11
158.907
21
-124.51
0
LINE
8
BLACK
6
CONTINUOUS
10
158.907
20
-124.51
11
159.521
21
-124.627
0
LINE
8
BLACK
6
CONTINUOUS
10
159.521
20
-124.627
11
160.087
21
-124.893
0
LINE
8
BLACK
6
CONTINUOUS
10
160.087
20
-124.893
11
160.569
21
-125.292
0
LINE
8
BLACK
6
CONTINUOUS
10
160.569
20
-125.292
11
160.936
21
-125.798
0
LINE
8
BLACK
6
CONTINUOUS
10
160.936
20
-125.798
11
161.167
21
-126.38
0
LINE
8
BLACK
6
CONTINUOUS
10
161.167
20
-126.38
11
161.245
21
-127
0
LINE
8
BLACK
6
CONTINUOUS
10
161.245
20
-127
11
161.167
21
-127.62
0
LINE
8
BLACK
6
CONTINUOUS
10
161.167
20
-127.62
11
160.936
21
-128.202
0
LINE
8
BLACK
6
CONTINUOUS
10
160.875
20
-125.832
11
160.518
21
-125.34
0
LINE
8
BLACK
6
CONTINUOUS
10
160.518
20
-125.34
11
160.049
21
-124.953
0
LINE
8
BLACK
6
CONTINUOUS
10
160.049
20
-124.953
11
159.499
21
-124.694
0
LINE
8
BLACK
6
CONTINUOUS
10
159.499
20
-124.694
11
158.902
21
-124.58
0
LINE
8
BLACK
6
CONTINUOUS
10
158.902
20
-124.58
11
158.296
21
-124.618
0
LINE
8
BLACK
6
CONTINUOUS
10
158.296
20
-124.618
11
157.717
21
-124.806
0
LINE
8
BLACK
6
CONTINUOUS
10
157.717
20
-124.806
11
157.204
21
-125.132
0
LINE
8
BLACK
6
CONTINUOUS
10
157.204
20
-125.132
11
156.788
21
-125.575
0
LINE
8
BLACK
6
CONTINUOUS
10
156.788
20
-125.575
11
156.495
21
-126.107
0
LINE
8
BLACK
6
CONTINUOUS
10
156.495
20
-126.107
11
156.344
21
-126.696
0
LINE
8
BLACK
6
CONTINUOUS
10
156.344
20
-126.696
11
156.344
21
-127.304
0
LINE
8
BLACK
6
CONTINUOUS
10
156.344
20
-127.304
11
156.495
21
-127.893
0
LINE
8
BLACK
6
CONTINUOUS
10
156.495
20
-127.893
11
156.788
21
-128.425
0
LINE
8
BLACK
6
CONTINUOUS
10
156.788
20
-128.425
11
157.204
21
-128.868
0
LINE
8
BLACK
6
CONTINUOUS
10
157.204
20
-128.868
11
157.717
21
-129.194
0
LINE
8
BLACK
6
CONTINUOUS
10
157.717
20
-129.194
11
158.296
21
-129.382
0
LINE
8
BLACK
6
CONTINUOUS
10
158.296
20
-129.382
11
158.902
21
-129.42
0
LINE
8
BLACK
6
CONTINUOUS
10
158.902
20
-129.42
11
159.499
21
-129.306
0
LINE
8
BLACK
6
CONTINUOUS
10
159.499
20
-129.306
11
160.049
21
-129.047
0
LINE
8
BLACK
6
CONTINUOUS
10
160.049
20
-129.047
11
160.518
21
-128.66
0
LINE
8
BLACK
6
CONTINUOUS
10
160.518
20
-128.66
11
160.875
21
-128.168
0
LINE
8
BLACK
6
CONTINUOUS
10
160.875
20
-128.168
11
161.099
21
-127.603
0
LINE
8
BLACK
6
CONTINUOUS
10
161.099
20
-127.603
11
161.175
21
-127
0
LINE
8
BLACK
6
CONTINUOUS
10
161.175
20
-127
11
161.099
21
-126.397
0
LINE
8
BLACK
6
CONTINUOUS
10
161.099
20
-126.397
11
160.875
21
-125.832
0
LINE
8
BLACK
6
CONTINUOUS
10
204.116
20
-118.677
11
203.749
21
-119.183
0
LINE
8
BLACK
6
CONTINUOUS
10
203.749
20
-119.183
11
203.267
21
-119.582
0
LINE
8
BLACK
6
CONTINUOUS
10
203.267
20
-119.582
11
202.701
21
-119.848
0
LINE
8
BLACK
6
CONTINUOUS
10
202.701
20
-119.848
11
202.087
21
-119.965
0
LINE
8
BLACK
6
CONTINUOUS
10
202.087
20
-119.965
11
201.462
21
-119.926
0
LINE
8
BLACK
6
CONTINUOUS
10
201.462
20
-119.926
11
200.868
21
-119.733
0
LINE
8
BLACK
6
CONTINUOUS
10
200.868
20
-119.733
11
200.34
21
-119.397
0
LINE
8
BLACK
6
CONTINUOUS
10
200.34
20
-119.397
11
199.912
21
-118.942
0
LINE
8
BLACK
6
CONTINUOUS
10
199.912
20
-118.942
11
199.61
21
-118.393
0
LINE
8
BLACK
6
CONTINUOUS
10
199.61
20
-118.393
11
199.455
21
-117.788
0
LINE
8
BLACK
6
CONTINUOUS
10
199.455
20
-117.788
11
199.455
21
-117.162
0
LINE
8
BLACK
6
CONTINUOUS
10
199.455
20
-117.162
11
199.61
21
-116.557
0
LINE
8
BLACK
6
CONTINUOUS
10
199.61
20
-116.557
11
199.912
21
-116.008
0
LINE
8
BLACK
6
CONTINUOUS
10
199.912
20
-116.008
11
200.34
21
-115.553
0
LINE
8
BLACK
6
CONTINUOUS
10
200.34
20
-115.553
11
200.868
21
-115.217
0
LINE
8
BLACK
6
CONTINUOUS
10
200.868
20
-115.217
11
201.462
21
-115.024
0
LINE
8
BLACK
6
CONTINUOUS
10
201.462
20
-115.024
11
202.087
21
-114.985
0
LINE
8
BLACK
6
CONTINUOUS
10
202.087
20
-114.985
11
202.701
21
-115.102
0
LINE
8
BLACK
6
CONTINUOUS
10
202.701
20
-115.102
11
203.267
21
-115.368
0
LINE
8
BLACK
6
CONTINUOUS
10
203.267
20
-115.368
11
203.749
21
-115.767
0
LINE
8
BLACK
6
CONTINUOUS
10
203.749
20
-115.767
11
204.116
21
-116.273
0
LINE
8
BLACK
6
CONTINUOUS
10
204.116
20
-116.273
11
204.347
21
-116.855
0
LINE
8
BLACK
6
CONTINUOUS
10
204.347
20
-116.855
11
204.425
21
-117.475
0
LINE
8
BLACK
6
CONTINUOUS
10
204.425
20
-117.475
11
204.347
21
-118.095
0
LINE
8
BLACK
6
CONTINUOUS
10
204.347
20
-118.095
11
204.116
21
-118.677
0
LINE
8
BLACK
6
CONTINUOUS
10
204.055
20
-116.307
11
203.698
21
-115.815
0
LINE
8
BLACK
6
CONTINUOUS
10
203.698
20
-115.815
11
203.229
21
-115.428
0
LINE
8
BLACK
6
CONTINUOUS
10
203.229
20
-115.428
11
202.679
21
-115.169
0
LINE
8
BLACK
6
CONTINUOUS
10
202.679
20
-115.169
11
202.082
21
-115.055
0
LINE
8
BLACK
6
CONTINUOUS
10
202.082
20
-115.055
11
201.476
21
-115.093
0
LINE
8
BLACK
6
CONTINUOUS
10
201.476
20
-115.093
11
200.897
21
-115.281
0
LINE
8
BLACK
6
CONTINUOUS
10
200.897
20
-115.281
11
200.384
21
-115.607
0
LINE
8
BLACK
6
CONTINUOUS
10
200.384
20
-115.607
11
199.968
21
-116.05
0
LINE
8
BLACK
6
CONTINUOUS
10
199.968
20
-116.05
11
199.675
21
-116.582
0
LINE
8
BLACK
6
CONTINUOUS
10
199.675
20
-116.582
11
199.524
21
-117.171
0
LINE
8
BLACK
6
CONTINUOUS
10
199.524
20
-117.171
11
199.524
21
-117.779
0
LINE
8
BLACK
6
CONTINUOUS
10
199.524
20
-117.779
11
199.675
21
-118.368
0
LINE
8
BLACK
6
CONTINUOUS
10
199.675
20
-118.368
11
199.968
21
-118.9
0
LINE
8
BLACK
6
CONTINUOUS
10
199.968
20
-118.9
11
200.384
21
-119.343
0
LINE
8
BLACK
6
CONTINUOUS
10
200.384
20
-119.343
11
200.897
21
-119.669
0
LINE
8
BLACK
6
CONTINUOUS
10
200.897
20
-119.669
11
201.476
21
-119.857
0
LINE
8
BLACK
6
CONTINUOUS
10
201.476
20
-119.857
11
202.082
21
-119.895
0
LINE
8
BLACK
6
CONTINUOUS
10
202.082
20
-119.895
11
202.679
21
-119.781
0
LINE
8
BLACK
6
CONTINUOUS
10
202.679
20
-119.781
11
203.229
21
-119.522
0
LINE
8
BLACK
6
CONTINUOUS
10
203.229
20
-119.522
11
203.698
21
-119.135
0
LINE
8
BLACK
6
CONTINUOUS
10
203.698
20
-119.135
11
204.055
21
-118.643
0
LINE
8
BLACK
6
CONTINUOUS
10
204.055
20
-118.643
11
204.279
21
-118.078
0
LINE
8
BLACK
6
CONTINUOUS
10
204.279
20
-118.078
11
204.355
21
-117.475
0
LINE
8
BLACK
6
CONTINUOUS
10
204.355
20
-117.475
11
204.279
21
-116.872
0
LINE
8
BLACK
6
CONTINUOUS
10
204.279
20
-116.872
11
204.055
21
-116.307
0
LINE
8
BLACK
6
CONTINUOUS
10
216.816
20
-114.867
11
216.449
21
-115.373
0
LINE
8
BLACK
6
CONTINUOUS
10
216.449
20
-115.373
11
215.967
21
-115.772
0
LINE
8
BLACK
6
CONTINUOUS
10
215.967
20
-115.772
11
215.401
21
-116.038
0
LINE
8
BLACK
6
CONTINUOUS
10
215.401
20
-116.038
11
214.787
21
-116.155
0
LINE
8
BLACK
6
CONTINUOUS
10
214.787
20
-116.155
11
214.162
21
-116.116
0
LINE
8
BLACK
6
CONTINUOUS
10
214.162
20
-116.116
11
213.568
21
-115.923
0
LINE
8
BLACK
6
CONTINUOUS
10
213.568
20
-115.923
11
213.04
21
-115.587
0
LINE
8
BLACK
6
CONTINUOUS
10
213.04
20
-115.587
11
212.612
21
-115.132
0
LINE
8
BLACK
6
CONTINUOUS
10
212.612
20
-115.132
11
212.31
21
-114.583
0
LINE
8
BLACK
6
CONTINUOUS
10
212.31
20
-114.583
11
212.155
21
-113.978
0
LINE
8
BLACK
6
CONTINUOUS
10
212.155
20
-113.978
11
212.155
21
-113.352
0
LINE
8
BLACK
6
CONTINUOUS
10
212.155
20
-113.352
11
212.31
21
-112.747
0
LINE
8
BLACK
6
CONTINUOUS
10
212.31
20
-112.747
11
212.612
21
-112.198
0
LINE
8
BLACK
6
CONTINUOUS
10
212.612
20
-112.198
11
213.04
21
-111.743
0
LINE
8
BLACK
6
CONTINUOUS
10
213.04
20
-111.743
11
213.568
21
-111.407
0
LINE
8
BLACK
6
CONTINUOUS
10
213.568
20
-111.407
11
214.162
21
-111.214
0
LINE
8
BLACK
6
CONTINUOUS
10
214.162
20
-111.214
11
214.787
21
-111.175
0
LINE
8
BLACK
6
CONTINUOUS
10
214.787
20
-111.175
11
215.401
21
-111.292
0
LINE
8
BLACK
6
CONTINUOUS
10
215.401
20
-111.292
11
215.967
21
-111.558
0
LINE
8
BLACK
6
CONTINUOUS
10
215.967
20
-111.558
11
216.449
21
-111.957
0
LINE
8
BLACK
6
CONTINUOUS
10
216.449
20
-111.957
11
216.816
21
-112.463
0
LINE
8
BLACK
6
CONTINUOUS
10
216.816
20
-112.463
11
217.047
21
-113.045
0
LINE
8
BLACK
6
CONTINUOUS
10
217.047
20
-113.045
11
217.125
21
-113.665
0
LINE
8
BLACK
6
CONTINUOUS
10
217.125
20
-113.665
11
217.047
21
-114.285
0
LINE
8
BLACK
6
CONTINUOUS
10
217.047
20
-114.285
11
216.816
21
-114.867
0
LINE
8
BLACK
6
CONTINUOUS
10
216.755
20
-112.497
11
216.398
21
-112.005
0
LINE
8
BLACK
6
CONTINUOUS
10
216.398
20
-112.005
11
215.929
21
-111.618
0
LINE
8
BLACK
6
CONTINUOUS
10
215.929
20
-111.618
11
215.379
21
-111.359
0
LINE
8
BLACK
6
CONTINUOUS
10
215.379
20
-111.359
11
214.782
21
-111.245
0
LINE
8
BLACK
6
CONTINUOUS
10
214.782
20
-111.245
11
214.176
21
-111.283
0
LINE
8
BLACK
6
CONTINUOUS
10
214.176
20
-111.283
11
213.597
21
-111.471
0
LINE
8
BLACK
6
CONTINUOUS
10
213.597
20
-111.471
11
213.084
21
-111.797
0
LINE
8
BLACK
6
CONTINUOUS
10
213.084
20
-111.797
11
212.668
21
-112.24
0
LINE
8
BLACK
6
CONTINUOUS
10
212.668
20
-112.24
11
212.375
21
-112.772
0
LINE
8
BLACK
6
CONTINUOUS
10
212.375
20
-112.772
11
212.224
21
-113.361
0
LINE
8
BLACK
6
CONTINUOUS
10
212.224
20
-113.361
11
212.224
21
-113.969
0
LINE
8
BLACK
6
CONTINUOUS
10
212.224
20
-113.969
11
212.375
21
-114.558
0
LINE
8
BLACK
6
CONTINUOUS
10
212.375
20
-114.558
11
212.668
21
-115.09
0
LINE
8
BLACK
6
CONTINUOUS
10
212.668
20
-115.09
11
213.084
21
-115.533
0
LINE
8
BLACK
6
CONTINUOUS
10
213.084
20
-115.533
11
213.597
21
-115.859
0
LINE
8
BLACK
6
CONTINUOUS
10
213.597
20
-115.859
11
214.176
21
-116.047
0
LINE
8
BLACK
6
CONTINUOUS
10
214.176
20
-116.047
11
214.782
21
-116.085
0
LINE
8
BLACK
6
CONTINUOUS
10
214.782
20
-116.085
11
215.379
21
-115.971
0
LINE
8
BLACK
6
CONTINUOUS
10
215.379
20
-115.971
11
215.929
21
-115.712
0
LINE
8
BLACK
6
CONTINUOUS
10
215.929
20
-115.712
11
216.398
21
-115.325
0
LINE
8
BLACK
6
CONTINUOUS
10
216.398
20
-115.325
11
216.755
21
-114.833
0
LINE
8
BLACK
6
CONTINUOUS
10
216.755
20
-114.833
11
216.979
21
-114.268
0
LINE
8
BLACK
6
CONTINUOUS
10
216.979
20
-114.268
11
217.055
21
-113.665
0
LINE
8
BLACK
6
CONTINUOUS
10
217.055
20
-113.665
11
216.979
21
-113.062
0
LINE
8
BLACK
6
CONTINUOUS
10
216.979
20
-113.062
11
216.755
21
-112.497
0
LINE
8
BLACK
6
CONTINUOUS
10
206.656
20
-109.787
11
206.289
21
-110.293
0
LINE
8
BLACK
6
CONTINUOUS
10
206.289
20
-110.293
11
205.807
21
-110.692
0
LINE
8
BLACK
6
CONTINUOUS
10
205.807
20
-110.692
11
205.241
21
-110.958
0
LINE
8
BLACK
6
CONTINUOUS
10
205.241
20
-110.958
11
204.627
21
-111.075
0
LINE
8
BLACK
6
CONTINUOUS
10
204.627
20
-111.075
11
204.002
21
-111.036
0
LINE
8
BLACK
6
CONTINUOUS
10
204.002
20
-111.036
11
203.408
21
-110.843
0
LINE
8
BLACK
6
CONTINUOUS
10
203.408
20
-110.843
11
202.88
21
-110.507
0
LINE
8
BLACK
6
CONTINUOUS
10
202.88
20
-110.507
11
202.452
21
-110.052
0
LINE
8
BLACK
6
CONTINUOUS
10
202.452
20
-110.052
11
202.15
21
-109.503
0
LINE
8
BLACK
6
CONTINUOUS
10
202.15
20
-109.503
11
201.995
21
-108.898
0
LINE
8
BLACK
6
CONTINUOUS
10
201.995
20
-108.898
11
201.995
21
-108.272
0
LINE
8
BLACK
6
CONTINUOUS
10
201.995
20
-108.272
11
202.15
21
-107.667
0
LINE
8
BLACK
6
CONTINUOUS
10
202.15
20
-107.667
11
202.452
21
-107.118
0
LINE
8
BLACK
6
CONTINUOUS
10
202.452
20
-107.118
11
202.88
21
-106.663
0
LINE
8
BLACK
6
CONTINUOUS
10
202.88
20
-106.663
11
203.408
21
-106.327
0
LINE
8
BLACK
6
CONTINUOUS
10
203.408
20
-106.327
11
204.002
21
-106.134
0
LINE
8
BLACK
6
CONTINUOUS
10
204.002
20
-106.134
11
204.627
21
-106.095
0
LINE
8
BLACK
6
CONTINUOUS
10
204.627
20
-106.095
11
205.241
21
-106.212
0
LINE
8
BLACK
6
CONTINUOUS
10
205.241
20
-106.212
11
205.807
21
-106.478
0
LINE
8
BLACK
6
CONTINUOUS
10
205.807
20
-106.478
11
206.289
21
-106.877
0
LINE
8
BLACK
6
CONTINUOUS
10
206.289
20
-106.877
11
206.656
21
-107.383
0
LINE
8
BLACK
6
CONTINUOUS
10
206.656
20
-107.383
11
206.887
21
-107.965
0
LINE
8
BLACK
6
CONTINUOUS
10
206.887
20
-107.965
11
206.965
21
-108.585
0
LINE
8
BLACK
6
CONTINUOUS
10
206.965
20
-108.585
11
206.887
21
-109.205
0
LINE
8
BLACK
6
CONTINUOUS
10
206.887
20
-109.205
11
206.656
21
-109.787
0
LINE
8
BLACK
6
CONTINUOUS
10
206.595
20
-107.417
11
206.238
21
-106.925
0
LINE
8
BLACK
6
CONTINUOUS
10
206.238
20
-106.925
11
205.769
21
-106.538
0
LINE
8
BLACK
6
CONTINUOUS
10
205.769
20
-106.538
11
205.219
21
-106.279
0
LINE
8
BLACK
6
CONTINUOUS
10
205.219
20
-106.279
11
204.622
21
-106.165
0
LINE
8
BLACK
6
CONTINUOUS
10
204.622
20
-106.165
11
204.016
21
-106.203
0
LINE
8
BLACK
6
CONTINUOUS
10
204.016
20
-106.203
11
203.437
21
-106.391
0
LINE
8
BLACK
6
CONTINUOUS
10
203.437
20
-106.391
11
202.924
21
-106.717
0
LINE
8
BLACK
6
CONTINUOUS
10
202.924
20
-106.717
11
202.508
21
-107.16
0
LINE
8
BLACK
6
CONTINUOUS
10
202.508
20
-107.16
11
202.215
21
-107.692
0
LINE
8
BLACK
6
CONTINUOUS
10
202.215
20
-107.692
11
202.064
21
-108.281
0
LINE
8
BLACK
6
CONTINUOUS
10
202.064
20
-108.281
11
202.064
21
-108.889
0
LINE
8
BLACK
6
CONTINUOUS
10
202.064
20
-108.889
11
202.215
21
-109.478
0
LINE
8
BLACK
6
CONTINUOUS
10
202.215
20
-109.478
11
202.508
21
-110.01
0
LINE
8
BLACK
6
CONTINUOUS
10
202.508
20
-110.01
11
202.924
21
-110.453
0
LINE
8
BLACK
6
CONTINUOUS
10
202.924
20
-110.453
11
203.437
21
-110.779
0
LINE
8
BLACK
6
CONTINUOUS
10
203.437
20
-110.779
11
204.016
21
-110.967
0
LINE
8
BLACK
6
CONTINUOUS
10
204.016
20
-110.967
11
204.622
21
-111.005
0
LINE
8
BLACK
6
CONTINUOUS
10
204.622
20
-111.005
11
205.219
21
-110.891
0
LINE
8
BLACK
6
CONTINUOUS
10
205.219
20
-110.891
11
205.769
21
-110.632
0
LINE
8
BLACK
6
CONTINUOUS
10
205.769
20
-110.632
11
206.238
21
-110.245
0
LINE
8
BLACK
6
CONTINUOUS
10
206.238
20
-110.245
11
206.595
21
-109.753
0
LINE
8
BLACK
6
CONTINUOUS
10
206.595
20
-109.753
11
206.819
21
-109.188
0
LINE
8
BLACK
6
CONTINUOUS
10
206.819
20
-109.188
11
206.895
21
-108.585
0
LINE
8
BLACK
6
CONTINUOUS
10
206.895
20
-108.585
11
206.819
21
-107.982
0
LINE
8
BLACK
6
CONTINUOUS
10
206.819
20
-107.982
11
206.595
21
-107.417
0
LINE
8
BLACK
6
CONTINUOUS
10
186.336
20
-104.072
11
185.969
21
-104.578
0
LINE
8
BLACK
6
CONTINUOUS
10
185.969
20
-104.578
11
185.487
21
-104.977
0
LINE
8
BLACK
6
CONTINUOUS
10
185.487
20
-104.977
11
184.921
21
-105.243
0
LINE
8
BLACK
6
CONTINUOUS
10
184.921
20
-105.243
11
184.307
21
-105.36
0
LINE
8
BLACK
6
CONTINUOUS
10
184.307
20
-105.36
11
183.682
21
-105.321
0
LINE
8
BLACK
6
CONTINUOUS
10
183.682
20
-105.321
11
183.088
21
-105.128
0
LINE
8
BLACK
6
CONTINUOUS
10
183.088
20
-105.128
11
182.56
21
-104.792
0
LINE
8
BLACK
6
CONTINUOUS
10
182.56
20
-104.792
11
182.132
21
-104.337
0
LINE
8
BLACK
6
CONTINUOUS
10
182.132
20
-104.337
11
181.83
21
-103.788
0
LINE
8
BLACK
6
CONTINUOUS
10
181.83
20
-103.788
11
181.675
21
-103.183
0
LINE
8
BLACK
6
CONTINUOUS
10
181.675
20
-103.183
11
181.675
21
-102.557
0
LINE
8
BLACK
6
CONTINUOUS
10
181.675
20
-102.557
11
181.83
21
-101.952
0
LINE
8
BLACK
6
CONTINUOUS
10
181.83
20
-101.952
11
182.132
21
-101.403
0
LINE
8
BLACK
6
CONTINUOUS
10
182.132
20
-101.403
11
182.56
21
-100.948
0
LINE
8
BLACK
6
CONTINUOUS
10
182.56
20
-100.948
11
183.088
21
-100.612
0
LINE
8
BLACK
6
CONTINUOUS
10
183.088
20
-100.612
11
183.682
21
-100.419
0
LINE
8
BLACK
6
CONTINUOUS
10
183.682
20
-100.419
11
184.307
21
-100.38
0
LINE
8
BLACK
6
CONTINUOUS
10
184.307
20
-100.38
11
184.921
21
-100.497
0
LINE
8
BLACK
6
CONTINUOUS
10
184.921
20
-100.497
11
185.487
21
-100.763
0
LINE
8
BLACK
6
CONTINUOUS
10
185.487
20
-100.763
11
185.969
21
-101.162
0
LINE
8
BLACK
6
CONTINUOUS
10
185.969
20
-101.162
11
186.336
21
-101.668
0
LINE
8
BLACK
6
CONTINUOUS
10
186.336
20
-101.668
11
186.567
21
-102.25
0
LINE
8
BLACK
6
CONTINUOUS
10
186.567
20
-102.25
11
186.645
21
-102.87
0
LINE
8
BLACK
6
CONTINUOUS
10
186.645
20
-102.87
11
186.567
21
-103.49
0
LINE
8
BLACK
6
CONTINUOUS
10
186.567
20
-103.49
11
186.336
21
-104.072
0
LINE
8
BLACK
6
CONTINUOUS
10
186.275
20
-101.702
11
185.918
21
-101.21
0
LINE
8
BLACK
6
CONTINUOUS
10
185.918
20
-101.21
11
185.449
21
-100.823
0
LINE
8
BLACK
6
CONTINUOUS
10
185.449
20
-100.823
11
184.899
21
-100.564
0
LINE
8
BLACK
6
CONTINUOUS
10
184.899
20
-100.564
11
184.302
21
-100.45
0
LINE
8
BLACK
6
CONTINUOUS
10
184.302
20
-100.45
11
183.696
21
-100.488
0
LINE
8
BLACK
6
CONTINUOUS
10
183.696
20
-100.488
11
183.117
21
-100.676
0
LINE
8
BLACK
6
CONTINUOUS
10
183.117
20
-100.676
11
182.604
21
-101.002
0
LINE
8
BLACK
6
CONTINUOUS
10
182.604
20
-101.002
11
182.188
21
-101.445
0
LINE
8
BLACK
6
CONTINUOUS
10
182.188
20
-101.445
11
181.895
21
-101.977
0
LINE
8
BLACK
6
CONTINUOUS
10
181.895
20
-101.977
11
181.744
21
-102.566
0
LINE
8
BLACK
6
CONTINUOUS
10
181.744
20
-102.566
11
181.744
21
-103.174
0
LINE
8
BLACK
6
CONTINUOUS
10
181.744
20
-103.174
11
181.895
21
-103.763
0
LINE
8
BLACK
6
CONTINUOUS
10
181.895
20
-103.763
11
182.188
21
-104.295
0
LINE
8
BLACK
6
CONTINUOUS
10
182.188
20
-104.295
11
182.604
21
-104.738
0
LINE
8
BLACK
6
CONTINUOUS
10
182.604
20
-104.738
11
183.117
21
-105.064
0
LINE
8
BLACK
6
CONTINUOUS
10
183.117
20
-105.064
11
183.696
21
-105.252
0
LINE
8
BLACK
6
CONTINUOUS
10
183.696
20
-105.252
11
184.302
21
-105.29
0
LINE
8
BLACK
6
CONTINUOUS
10
184.302
20
-105.29
11
184.899
21
-105.176
0
LINE
8
BLACK
6
CONTINUOUS
10
184.899
20
-105.176
11
185.449
21
-104.917
0
LINE
8
BLACK
6
CONTINUOUS
10
185.449
20
-104.917
11
185.918
21
-104.53
0
LINE
8
BLACK
6
CONTINUOUS
10
185.918
20
-104.53
11
186.275
21
-104.038
0
LINE
8
BLACK
6
CONTINUOUS
10
186.275
20
-104.038
11
186.499
21
-103.473
0
LINE
8
BLACK
6
CONTINUOUS
10
186.499
20
-103.473
11
186.575
21
-102.87
0
LINE
8
BLACK
6
CONTINUOUS
10
186.575
20
-102.87
11
186.499
21
-102.267
0
LINE
8
BLACK
6
CONTINUOUS
10
186.499
20
-102.267
11
186.275
21
-101.702
0
LINE
8
BLACK
6
CONTINUOUS
10
99.3414
20
-81.212
11
98.9738
21
-81.7179
0
LINE
8
BLACK
6
CONTINUOUS
10
98.9738
20
-81.7179
11
98.4919
21
-82.1166
0
LINE
8
BLACK
6
CONTINUOUS
10
98.4919
20
-82.1166
11
97.926
21
-82.3829
0
LINE
8
BLACK
6
CONTINUOUS
10
97.926
20
-82.3829
11
97.3117
21
-82.5001
0
LINE
8
BLACK
6
CONTINUOUS
10
97.3117
20
-82.5001
11
96.6875
21
-82.4608
0
LINE
8
BLACK
6
CONTINUOUS
10
96.6875
20
-82.4608
11
96.0927
21
-82.2675
0
LINE
8
BLACK
6
CONTINUOUS
10
96.0927
20
-82.2675
11
95.5646
21
-81.9324
0
LINE
8
BLACK
6
CONTINUOUS
10
95.5646
20
-81.9324
11
95.1365
21
-81.4765
0
LINE
8
BLACK
6
CONTINUOUS
10
95.1365
20
-81.4765
11
94.8352
21
-80.9285
0
LINE
8
BLACK
6
CONTINUOUS
10
94.8352
20
-80.9285
11
94.6797
21
-80.3227
0
LINE
8
BLACK
6
CONTINUOUS
10
94.6797
20
-80.3227
11
94.6797
21
-79.6973
0
LINE
8
BLACK
6
CONTINUOUS
10
94.6797
20
-79.6973
11
94.8352
21
-79.0915
0
LINE
8
BLACK
6
CONTINUOUS
10
94.8352
20
-79.0915
11
95.1365
21
-78.5435
0
LINE
8
BLACK
6
CONTINUOUS
10
95.1365
20
-78.5435
11
95.5646
21
-78.0876
0
LINE
8
BLACK
6
CONTINUOUS
10
95.5646
20
-78.0876
11
96.0927
21
-77.7525
0
LINE
8
BLACK
6
CONTINUOUS
10
96.0927
20
-77.7525
11
96.6875
21
-77.5592
0
LINE
8
BLACK
6
CONTINUOUS
10
96.6875
20
-77.5592
11
97.3117
21
-77.5199
0
LINE
8
BLACK
6
CONTINUOUS
10
97.3117
20
-77.5199
11
97.926
21
-77.6371
0
LINE
8
BLACK
6
CONTINUOUS
10
97.926
20
-77.6371
11
98.4919
21
-77.9034
0
LINE
8
BLACK
6
CONTINUOUS
10
98.4919
20
-77.9034
11
98.9738
21
-78.3021
0
LINE
8
BLACK
6
CONTINUOUS
10
98.9738
20
-78.3021
11
99.3414
21
-78.808
0
LINE
8
BLACK
6
CONTINUOUS
10
99.3414
20
-78.808
11
99.5716
21
-79.3895
0
LINE
8
BLACK
6
CONTINUOUS
10
99.5716
20
-79.3895
11
99.65
21
-80.01
0
LINE
8
BLACK
6
CONTINUOUS
10
99.65
20
-80.01
11
99.5716
21
-80.6305
0
LINE
8
BLACK
6
CONTINUOUS
10
99.5716
20
-80.6305
11
99.3414
21
-81.212
0
LINE
8
BLACK
6
CONTINUOUS
10
99.28
20
-78.8417
11
98.9227
21
-78.35
0
LINE
8
BLACK
6
CONTINUOUS
10
98.9227
20
-78.35
11
98.4544
21
-77.9625
0
LINE
8
BLACK
6
CONTINUOUS
10
98.4544
20
-77.9625
11
97.9044
21
-77.7037
0
LINE
8
BLACK
6
CONTINUOUS
10
97.9044
20
-77.7037
11
97.3073
21
-77.5898
0
LINE
8
BLACK
6
CONTINUOUS
10
97.3073
20
-77.5898
11
96.7006
21
-77.628
0
LINE
8
BLACK
6
CONTINUOUS
10
96.7006
20
-77.628
11
96.1225
21
-77.8158
0
LINE
8
BLACK
6
CONTINUOUS
10
96.1225
20
-77.8158
11
95.6092
21
-78.1415
0
LINE
8
BLACK
6
CONTINUOUS
10
95.6092
20
-78.1415
11
95.1931
21
-78.5846
0
LINE
8
BLACK
6
CONTINUOUS
10
95.1931
20
-78.5846
11
94.9003
21
-79.1173
0
LINE
8
BLACK
6
CONTINUOUS
10
94.9003
20
-79.1173
11
94.7491
21
-79.7061
0
LINE
8
BLACK
6
CONTINUOUS
10
94.7491
20
-79.7061
11
94.7491
21
-80.3139
0
LINE
8
BLACK
6
CONTINUOUS
10
94.7491
20
-80.3139
11
94.9003
21
-80.9027
0
LINE
8
BLACK
6
CONTINUOUS
10
94.9003
20
-80.9027
11
95.1931
21
-81.4354
0
LINE
8
BLACK
6
CONTINUOUS
10
95.1931
20
-81.4354
11
95.6092
21
-81.8785
0
LINE
8
BLACK
6
CONTINUOUS
10
95.6092
20
-81.8785
11
96.1225
21
-82.2042
0
LINE
8
BLACK
6
CONTINUOUS
10
96.1225
20
-82.2042
11
96.7006
21
-82.392
0
LINE
8
BLACK
6
CONTINUOUS
10
96.7006
20
-82.392
11
97.3073
21
-82.4302
0
LINE
8
BLACK
6
CONTINUOUS
10
97.3073
20
-82.4302
11
97.9044
21
-82.3163
0
LINE
8
BLACK
6
CONTINUOUS
10
97.9044
20
-82.3163
11
98.4544
21
-82.0575
0
LINE
8
BLACK
6
CONTINUOUS
10
98.4544
20
-82.0575
11
98.9227
21
-81.67
0
LINE
8
BLACK
6
CONTINUOUS
10
98.9227
20
-81.67
11
99.28
21
-81.1783
0
LINE
8
BLACK
6
CONTINUOUS
10
99.28
20
-81.1783
11
99.5038
21
-80.6131
0
LINE
8
BLACK
6
CONTINUOUS
10
99.5038
20
-80.6131
11
99.58
21
-80.01
0
LINE
8
BLACK
6
CONTINUOUS
10
99.58
20
-80.01
11
99.5038
21
-79.4069
0
LINE
8
BLACK
6
CONTINUOUS
10
99.5038
20
-79.4069
11
99.28
21
-78.8417
0
LINE
8
BLACK
6
CONTINUOUS
10
197.131
20
-65.337
11
196.764
21
-65.8429
0
LINE
8
BLACK
6
CONTINUOUS
10
196.764
20
-65.8429
11
196.282
21
-66.2416
0
LINE
8
BLACK
6
CONTINUOUS
10
196.282
20
-66.2416
11
195.716
21
-66.5079
0
LINE
8
BLACK
6
CONTINUOUS
10
195.716
20
-66.5079
11
195.102
21
-66.6251
0
LINE
8
BLACK
6
CONTINUOUS
10
195.102
20
-66.6251
11
194.477
21
-66.5858
0
LINE
8
BLACK
6
CONTINUOUS
10
194.477
20
-66.5858
11
193.883
21
-66.3925
0
LINE
8
BLACK
6
CONTINUOUS
10
193.883
20
-66.3925
11
193.355
21
-66.0574
0
LINE
8
BLACK
6
CONTINUOUS
10
193.355
20
-66.0574
11
192.927
21
-65.6015
0
LINE
8
BLACK
6
CONTINUOUS
10
192.927
20
-65.6015
11
192.625
21
-65.0535
0
LINE
8
BLACK
6
CONTINUOUS
10
192.625
20
-65.0535
11
192.47
21
-64.4477
0
LINE
8
BLACK
6
CONTINUOUS
10
192.47
20
-64.4477
11
192.47
21
-63.8223
0
LINE
8
BLACK
6
CONTINUOUS
10
192.47
20
-63.8223
11
192.625
21
-63.2165
0
LINE
8
BLACK
6
CONTINUOUS
10
192.625
20
-63.2165
11
192.927
21
-62.6685
0
LINE
8
BLACK
6
CONTINUOUS
10
192.927
20
-62.6685
11
193.355
21
-62.2126
0
LINE
8
BLACK
6
CONTINUOUS
10
193.355
20
-62.2126
11
193.883
21
-61.8775
0
LINE
8
BLACK
6
CONTINUOUS
10
193.883
20
-61.8775
11
194.477
21
-61.6842
0
LINE
8
BLACK
6
CONTINUOUS
10
194.477
20
-61.6842
11
195.102
21
-61.6449
0
LINE
8
BLACK
6
CONTINUOUS
10
195.102
20
-61.6449
11
195.716
21
-61.7621
0
LINE
8
BLACK
6
CONTINUOUS
10
195.716
20
-61.7621
11
196.282
21
-62.0284
0
LINE
8
BLACK
6
CONTINUOUS
10
196.282
20
-62.0284
11
196.764
21
-62.4271
0
LINE
8
BLACK
6
CONTINUOUS
10
196.764
20
-62.4271
11
197.131
21
-62.933
0
LINE
8
BLACK
6
CONTINUOUS
10
197.131
20
-62.933
11
197.362
21
-63.5145
0
LINE
8
BLACK
6
CONTINUOUS
10
197.362
20
-63.5145
11
197.44
21
-64.135
0
LINE
8
BLACK
6
CONTINUOUS
10
197.44
20
-64.135
11
197.362
21
-64.7555
0
LINE
8
BLACK
6
CONTINUOUS
10
197.362
20
-64.7555
11
197.131
21
-65.337
0
LINE
8
BLACK
6
CONTINUOUS
10
197.07
20
-62.9667
11
196.713
21
-62.475
0
LINE
8
BLACK
6
CONTINUOUS
10
196.713
20
-62.475
11
196.244
21
-62.0875
0
LINE
8
BLACK
6
CONTINUOUS
10
196.244
20
-62.0875
11
195.694
21
-61.8287
0
LINE
8
BLACK
6
CONTINUOUS
10
195.694
20
-61.8287
11
195.097
21
-61.7148
0
LINE
8
BLACK
6
CONTINUOUS
10
195.097
20
-61.7148
11
194.491
21
-61.753
0
LINE
8
BLACK
6
CONTINUOUS
10
194.491
20
-61.753
11
193.912
21
-61.9408
0
LINE
8
BLACK
6
CONTINUOUS
10
193.912
20
-61.9408
11
193.399
21
-62.2665
0
LINE
8
BLACK
6
CONTINUOUS
10
193.399
20
-62.2665
11
192.983
21
-62.7096
0
LINE
8
BLACK
6
CONTINUOUS
10
192.983
20
-62.7096
11
192.69
21
-63.2423
0
LINE
8
BLACK
6
CONTINUOUS
10
192.69
20
-63.2423
11
192.539
21
-63.8311
0
LINE
8
BLACK
6
CONTINUOUS
10
192.539
20
-63.8311
11
192.539
21
-64.4389
0
LINE
8
BLACK
6
CONTINUOUS
10
192.539
20
-64.4389
11
192.69
21
-65.0277
0
LINE
8
BLACK
6
CONTINUOUS
10
192.69
20
-65.0277
11
192.983
21
-65.5604
0
LINE
8
BLACK
6
CONTINUOUS
10
192.983
20
-65.5604
11
193.399
21
-66.0035
0
LINE
8
BLACK
6
CONTINUOUS
10
193.399
20
-66.0035
11
193.912
21
-66.3292
0
LINE
8
BLACK
6
CONTINUOUS
10
193.912
20
-66.3292
11
194.491
21
-66.517
0
LINE
8
BLACK
6
CONTINUOUS
10
194.491
20
-66.517
11
195.097
21
-66.5552
0
LINE
8
BLACK
6
CONTINUOUS
10
195.097
20
-66.5552
11
195.694
21
-66.4413
0
LINE
8
BLACK
6
CONTINUOUS
10
195.694
20
-66.4413
11
196.244
21
-66.1825
0
LINE
8
BLACK
6
CONTINUOUS
10
196.244
20
-66.1825
11
196.713
21
-65.795
0
LINE
8
BLACK
6
CONTINUOUS
10
196.713
20
-65.795
11
197.07
21
-65.3033
0
LINE
8
BLACK
6
CONTINUOUS
10
197.07
20
-65.3033
11
197.294
21
-64.7381
0
LINE
8
BLACK
6
CONTINUOUS
10
197.294
20
-64.7381
11
197.37
21
-64.135
0
LINE
8
BLACK
6
CONTINUOUS
10
197.37
20
-64.135
11
197.294
21
-63.5319
0
LINE
8
BLACK
6
CONTINUOUS
10
197.294
20
-63.5319
11
197.07
21
-62.9667
  0
ENDSEC
  0
EOF
