  0
SECTION
  2
HEADER
  9
$ANGBASE
  50
0.0
  9
$ANGDIR
  70
  1
  9
$MEASUREMENT
  70
0
  0
ENDSEC
  0
SECTION
  2
TABLES
  0
TABLE
  2
LTYPE
  70
4
  0
LTYPE
  5
40F
  2
CONTINUOUS
  70
0
  3
Solid line
  72
65
  73
0
  40
0.0
  0
LTYPE
  5
410
  2
DASHDOT
 70
0
  3
Dash Dot ____ _ ____ _
 72
65
 73
4
 40
2.0
 49
1.25
 49
-0.25
 49
0.25
 49
-0.25
  0
LTYPE
  5
411
  2
DASHED
 70
0
  3
Dashed __ __ __ __ __
 72
65
 73
2
 40
0.75
 49
0.5
 49
-0.25
  0
LTYPE
  5
43B
  2
DOTTED
 70
0
  3
Dotted .  .  .  .
 72
65
 73
2
 40
0.2
 49
0.0
 49
-0.2
  0
ENDTAB
  0
TABLE
  2
STYLE
  70
4
  0
STYLE
  2
KICAD
  70
0
  40
0
  41
1
  42
1
  50
0
  71
0
  3
isocp.shx
  0
STYLE
  2
KICADB
  70
0
  40
0
  41
1
  42
1
  50
0
  71
0
  3
isocp.shx
  0
STYLE
  2
KICADI
  70
0
  40
0
  41
1
  42
1
  50
15
  71
0
  3
isocp.shx
  0
STYLE
  2
KICADBI
  70
0
  40
0
  41
1
  42
1
  50
15
  71
0
  3
isocp.shx
  0
ENDTAB
  0
TABLE
  2
LAYER
  70
30
  0
LAYER
  2
BLACK
  70
0
  62
7
  6
CONTINUOUS
  0
LAYER
  2
GRAY1
  70
0
  62
251
  6
CONTINUOUS
  0
LAYER
  2
GRAY2
  70
0
  62
8
  6
CONTINUOUS
  0
LAYER
  2
GRAY3
  70
0
  62
9
  6
CONTINUOUS
  0
LAYER
  2
WHITE
  70
0
  62
7
  6
CONTINUOUS
  0
LAYER
  2
LYELLOW
  70
0
  62
51
  6
CONTINUOUS
  0
LAYER
  2
BLUE1
  70
0
  62
178
  6
CONTINUOUS
  0
LAYER
  2
GREEN1
  70
0
  62
98
  6
CONTINUOUS
  0
LAYER
  2
CYAN1
  70
0
  62
138
  6
CONTINUOUS
  0
LAYER
  2
RED1
  70
0
  62
18
  6
CONTINUOUS
  0
LAYER
  2
MAGENTA1
  70
0
  62
228
  6
CONTINUOUS
  0
LAYER
  2
BROWN1
  70
0
  62
58
  6
CONTINUOUS
  0
LAYER
  2
BLUE2
  70
0
  62
5
  6
CONTINUOUS
  0
LAYER
  2
GREEN2
  70
0
  62
3
  6
CONTINUOUS
  0
LAYER
  2
CYAN2
  70
0
  62
4
  6
CONTINUOUS
  0
LAYER
  2
RED2
  70
0
  62
1
  6
CONTINUOUS
  0
LAYER
  2
MAGENTA2
  70
0
  62
6
  6
CONTINUOUS
  0
LAYER
  2
BROWN2
  70
0
  62
54
  6
CONTINUOUS
  0
LAYER
  2
BLUE3
  70
0
  62
171
  6
CONTINUOUS
  0
LAYER
  2
GREEN3
  70
0
  62
91
  6
CONTINUOUS
  0
LAYER
  2
CYAN3
  70
0
  62
131
  6
CONTINUOUS
  0
LAYER
  2
RED3
  70
0
  62
11
  6
CONTINUOUS
  0
LAYER
  2
MAGENTA3
  70
0
  62
221
  6
CONTINUOUS
  0
LAYER
  2
YELLOW3
  70
0
  62
2
  6
CONTINUOUS
  0
LAYER
  2
BLUE4
  70
0
  62
5
  6
CONTINUOUS
  0
LAYER
  2
GREEN4
  70
0
  62
3
  6
CONTINUOUS
  0
LAYER
  2
CYAN4
  70
0
  62
4
  6
CONTINUOUS
  0
LAYER
  2
RED4
  70
0
  62
1
  6
CONTINUOUS
  0
LAYER
  2
MAGENTA4
  70
0
  62
6
  6
CONTINUOUS
  0
LAYER
  2
YELLOW4
  70
0
  62
2
  6
CONTINUOUS
  0
ENDTAB
  0
ENDSEC
  0
SECTION
  2
ENTITIES
0
LINE
8
BLACK
6
CONTINUOUS
10
177.002
20
-166.007
11
177.002
21
-198.007
0
LINE
8
BLACK
6
CONTINUOUS
10
177.002
20
-198.007
11
285.002
21
-198.007
0
LINE
8
BLACK
6
CONTINUOUS
10
285.002
20
-198.007
11
285.002
21
-166.007
0
LINE
8
BLACK
6
CONTINUOUS
10
285.002
20
-166.007
11
177.002
21
-166.007
0
LINE
8
BLACK
6
CONTINUOUS
10
10
20
-10
11
10
21
-200.007
0
LINE
8
BLACK
6
CONTINUOUS
10
10
20
-200.007
11
287.002
21
-200.007
0
LINE
8
BLACK
6
CONTINUOUS
10
287.002
20
-200.007
11
287.002
21
-10
0
LINE
8
BLACK
6
CONTINUOUS
10
287.002
20
-10
11
10
21
-10
0
LINE
8
BLACK
6
CONTINUOUS
10
12
20
-12
11
12
21
-198.007
0
LINE
8
BLACK
6
CONTINUOUS
10
12
20
-198.007
11
285.002
21
-198.007
0
LINE
8
BLACK
6
CONTINUOUS
10
285.002
20
-198.007
11
285.002
21
-12
0
LINE
8
BLACK
6
CONTINUOUS
10
285.002
20
-12
11
12
21
-12
0
LINE
8
BLACK
6
CONTINUOUS
10
60
20
-12
11
60
21
-10
0
LINE
8
BLACK
6
CONTINUOUS
10
110
20
-12
11
110
21
-10
0
LINE
8
BLACK
6
CONTINUOUS
10
160
20
-12
11
160
21
-10
0
LINE
8
BLACK
6
CONTINUOUS
10
210
20
-12
11
210
21
-10
0
LINE
8
BLACK
6
CONTINUOUS
10
260
20
-12
11
260
21
-10
0
LINE
8
BLACK
6
CONTINUOUS
10
36.0655
20
-11.5881
11
35.3226
21
-11.5881
0
LINE
8
BLACK
6
CONTINUOUS
10
35.694
20
-11.5881
11
35.694
21
-10.2881
0
LINE
8
BLACK
6
CONTINUOUS
10
35.694
20
-10.2881
11
35.5702
21
-10.4738
0
LINE
8
BLACK
6
CONTINUOUS
10
35.5702
20
-10.4738
11
35.4464
21
-10.5976
0
LINE
8
BLACK
6
CONTINUOUS
10
35.4464
20
-10.5976
11
35.3226
21
-10.6595
0
LINE
8
BLACK
6
CONTINUOUS
10
85.3226
20
-10.4119
11
85.3845
21
-10.35
0
LINE
8
BLACK
6
CONTINUOUS
10
85.3845
20
-10.35
11
85.5083
21
-10.2881
0
LINE
8
BLACK
6
CONTINUOUS
10
85.5083
20
-10.2881
11
85.8179
21
-10.2881
0
LINE
8
BLACK
6
CONTINUOUS
10
85.8179
20
-10.2881
11
85.9417
21
-10.35
0
LINE
8
BLACK
6
CONTINUOUS
10
85.9417
20
-10.35
11
86.0036
21
-10.4119
0
LINE
8
BLACK
6
CONTINUOUS
10
86.0036
20
-10.4119
11
86.0655
21
-10.5357
0
LINE
8
BLACK
6
CONTINUOUS
10
86.0655
20
-10.5357
11
86.0655
21
-10.6595
0
LINE
8
BLACK
6
CONTINUOUS
10
86.0655
20
-10.6595
11
86.0036
21
-10.8452
0
LINE
8
BLACK
6
CONTINUOUS
10
86.0036
20
-10.8452
11
85.2607
21
-11.5881
0
LINE
8
BLACK
6
CONTINUOUS
10
85.2607
20
-11.5881
11
86.0655
21
-11.5881
0
LINE
8
BLACK
6
CONTINUOUS
10
135.261
20
-10.2881
11
136.065
21
-10.2881
0
LINE
8
BLACK
6
CONTINUOUS
10
136.065
20
-10.2881
11
135.632
21
-10.7833
0
LINE
8
BLACK
6
CONTINUOUS
10
135.632
20
-10.7833
11
135.818
21
-10.7833
0
LINE
8
BLACK
6
CONTINUOUS
10
135.818
20
-10.7833
11
135.942
21
-10.8452
0
LINE
8
BLACK
6
CONTINUOUS
10
135.942
20
-10.8452
11
136.004
21
-10.9071
0
LINE
8
BLACK
6
CONTINUOUS
10
136.004
20
-10.9071
11
136.065
21
-11.031
0
LINE
8
BLACK
6
CONTINUOUS
10
136.065
20
-11.031
11
136.065
21
-11.3405
0
LINE
8
BLACK
6
CONTINUOUS
10
136.065
20
-11.3405
11
136.004
21
-11.4643
0
LINE
8
BLACK
6
CONTINUOUS
10
136.004
20
-11.4643
11
135.942
21
-11.5262
0
LINE
8
BLACK
6
CONTINUOUS
10
135.942
20
-11.5262
11
135.818
21
-11.5881
0
LINE
8
BLACK
6
CONTINUOUS
10
135.818
20
-11.5881
11
135.446
21
-11.5881
0
LINE
8
BLACK
6
CONTINUOUS
10
135.446
20
-11.5881
11
135.323
21
-11.5262
0
LINE
8
BLACK
6
CONTINUOUS
10
135.323
20
-11.5262
11
135.261
21
-11.4643
0
LINE
8
BLACK
6
CONTINUOUS
10
185.942
20
-10.7214
11
185.942
21
-11.5881
0
LINE
8
BLACK
6
CONTINUOUS
10
185.632
20
-10.2262
11
185.323
21
-11.1548
0
LINE
8
BLACK
6
CONTINUOUS
10
185.323
20
-11.1548
11
186.127
21
-11.1548
0
LINE
8
BLACK
6
CONTINUOUS
10
236.004
20
-10.2881
11
235.385
21
-10.2881
0
LINE
8
BLACK
6
CONTINUOUS
10
235.385
20
-10.2881
11
235.323
21
-10.9071
0
LINE
8
BLACK
6
CONTINUOUS
10
235.323
20
-10.9071
11
235.385
21
-10.8452
0
LINE
8
BLACK
6
CONTINUOUS
10
235.385
20
-10.8452
11
235.508
21
-10.7833
0
LINE
8
BLACK
6
CONTINUOUS
10
235.508
20
-10.7833
11
235.818
21
-10.7833
0
LINE
8
BLACK
6
CONTINUOUS
10
235.818
20
-10.7833
11
235.942
21
-10.8452
0
LINE
8
BLACK
6
CONTINUOUS
10
235.942
20
-10.8452
11
236.004
21
-10.9071
0
LINE
8
BLACK
6
CONTINUOUS
10
236.004
20
-10.9071
11
236.065
21
-11.031
0
LINE
8
BLACK
6
CONTINUOUS
10
236.065
20
-11.031
11
236.065
21
-11.3405
0
LINE
8
BLACK
6
CONTINUOUS
10
236.065
20
-11.3405
11
236.004
21
-11.4643
0
LINE
8
BLACK
6
CONTINUOUS
10
236.004
20
-11.4643
11
235.942
21
-11.5262
0
LINE
8
BLACK
6
CONTINUOUS
10
235.942
20
-11.5262
11
235.818
21
-11.5881
0
LINE
8
BLACK
6
CONTINUOUS
10
235.818
20
-11.5881
11
235.508
21
-11.5881
0
LINE
8
BLACK
6
CONTINUOUS
10
235.508
20
-11.5881
11
235.385
21
-11.5262
0
LINE
8
BLACK
6
CONTINUOUS
10
235.385
20
-11.5262
11
235.323
21
-11.4643
0
LINE
8
BLACK
6
CONTINUOUS
10
285.942
20
-10.2881
11
285.694
21
-10.2881
0
LINE
8
BLACK
6
CONTINUOUS
10
285.694
20
-10.2881
11
285.57
21
-10.35
0
LINE
8
BLACK
6
CONTINUOUS
10
285.57
20
-10.35
11
285.508
21
-10.4119
0
LINE
8
BLACK
6
CONTINUOUS
10
285.508
20
-10.4119
11
285.385
21
-10.5976
0
LINE
8
BLACK
6
CONTINUOUS
10
285.385
20
-10.5976
11
285.323
21
-10.8452
0
LINE
8
BLACK
6
CONTINUOUS
10
285.323
20
-10.8452
11
285.323
21
-11.3405
0
LINE
8
BLACK
6
CONTINUOUS
10
285.323
20
-11.3405
11
285.385
21
-11.4643
0
LINE
8
BLACK
6
CONTINUOUS
10
285.385
20
-11.4643
11
285.446
21
-11.5262
0
LINE
8
BLACK
6
CONTINUOUS
10
285.446
20
-11.5262
11
285.57
21
-11.5881
0
LINE
8
BLACK
6
CONTINUOUS
10
285.57
20
-11.5881
11
285.818
21
-11.5881
0
LINE
8
BLACK
6
CONTINUOUS
10
285.818
20
-11.5881
11
285.942
21
-11.5262
0
LINE
8
BLACK
6
CONTINUOUS
10
285.942
20
-11.5262
11
286.004
21
-11.4643
0
LINE
8
BLACK
6
CONTINUOUS
10
286.004
20
-11.4643
11
286.065
21
-11.3405
0
LINE
8
BLACK
6
CONTINUOUS
10
286.065
20
-11.3405
11
286.065
21
-11.031
0
LINE
8
BLACK
6
CONTINUOUS
10
286.065
20
-11.031
11
286.004
21
-10.9071
0
LINE
8
BLACK
6
CONTINUOUS
10
286.004
20
-10.9071
11
285.942
21
-10.8452
0
LINE
8
BLACK
6
CONTINUOUS
10
285.942
20
-10.8452
11
285.818
21
-10.7833
0
LINE
8
BLACK
6
CONTINUOUS
10
285.818
20
-10.7833
11
285.57
21
-10.7833
0
LINE
8
BLACK
6
CONTINUOUS
10
285.57
20
-10.7833
11
285.446
21
-10.8452
0
LINE
8
BLACK
6
CONTINUOUS
10
285.446
20
-10.8452
11
285.385
21
-10.9071
0
LINE
8
BLACK
6
CONTINUOUS
10
285.385
20
-10.9071
11
285.323
21
-11.031
0
LINE
8
BLACK
6
CONTINUOUS
10
60
20
-198.007
11
60
21
-200.007
0
LINE
8
BLACK
6
CONTINUOUS
10
110
20
-198.007
11
110
21
-200.007
0
LINE
8
BLACK
6
CONTINUOUS
10
160
20
-198.007
11
160
21
-200.007
0
LINE
8
BLACK
6
CONTINUOUS
10
210
20
-198.007
11
210
21
-200.007
0
LINE
8
BLACK
6
CONTINUOUS
10
260
20
-198.007
11
260
21
-200.007
0
LINE
8
BLACK
6
CONTINUOUS
10
36.0655
20
-199.595
11
35.3226
21
-199.595
0
LINE
8
BLACK
6
CONTINUOUS
10
35.694
20
-199.595
11
35.694
21
-198.295
0
LINE
8
BLACK
6
CONTINUOUS
10
35.694
20
-198.295
11
35.5702
21
-198.481
0
LINE
8
BLACK
6
CONTINUOUS
10
35.5702
20
-198.481
11
35.4464
21
-198.605
0
LINE
8
BLACK
6
CONTINUOUS
10
35.4464
20
-198.605
11
35.3226
21
-198.667
0
LINE
8
BLACK
6
CONTINUOUS
10
85.3226
20
-198.419
11
85.3845
21
-198.357
0
LINE
8
BLACK
6
CONTINUOUS
10
85.3845
20
-198.357
11
85.5083
21
-198.295
0
LINE
8
BLACK
6
CONTINUOUS
10
85.5083
20
-198.295
11
85.8179
21
-198.295
0
LINE
8
BLACK
6
CONTINUOUS
10
85.8179
20
-198.295
11
85.9417
21
-198.357
0
LINE
8
BLACK
6
CONTINUOUS
10
85.9417
20
-198.357
11
86.0036
21
-198.419
0
LINE
8
BLACK
6
CONTINUOUS
10
86.0036
20
-198.419
11
86.0655
21
-198.543
0
LINE
8
BLACK
6
CONTINUOUS
10
86.0655
20
-198.543
11
86.0655
21
-198.667
0
LINE
8
BLACK
6
CONTINUOUS
10
86.0655
20
-198.667
11
86.0036
21
-198.852
0
LINE
8
BLACK
6
CONTINUOUS
10
86.0036
20
-198.852
11
85.2607
21
-199.595
0
LINE
8
BLACK
6
CONTINUOUS
10
85.2607
20
-199.595
11
86.0655
21
-199.595
0
LINE
8
BLACK
6
CONTINUOUS
10
135.261
20
-198.295
11
136.065
21
-198.295
0
LINE
8
BLACK
6
CONTINUOUS
10
136.065
20
-198.295
11
135.632
21
-198.791
0
LINE
8
BLACK
6
CONTINUOUS
10
135.632
20
-198.791
11
135.818
21
-198.791
0
LINE
8
BLACK
6
CONTINUOUS
10
135.818
20
-198.791
11
135.942
21
-198.852
0
LINE
8
BLACK
6
CONTINUOUS
10
135.942
20
-198.852
11
136.004
21
-198.914
0
LINE
8
BLACK
6
CONTINUOUS
10
136.004
20
-198.914
11
136.065
21
-199.038
0
LINE
8
BLACK
6
CONTINUOUS
10
136.065
20
-199.038
11
136.065
21
-199.348
0
LINE
8
BLACK
6
CONTINUOUS
10
136.065
20
-199.348
11
136.004
21
-199.471
0
LINE
8
BLACK
6
CONTINUOUS
10
136.004
20
-199.471
11
135.942
21
-199.533
0
LINE
8
BLACK
6
CONTINUOUS
10
135.942
20
-199.533
11
135.818
21
-199.595
0
LINE
8
BLACK
6
CONTINUOUS
10
135.818
20
-199.595
11
135.446
21
-199.595
0
LINE
8
BLACK
6
CONTINUOUS
10
135.446
20
-199.595
11
135.323
21
-199.533
0
LINE
8
BLACK
6
CONTINUOUS
10
135.323
20
-199.533
11
135.261
21
-199.471
0
LINE
8
BLACK
6
CONTINUOUS
10
185.942
20
-198.729
11
185.942
21
-199.595
0
LINE
8
BLACK
6
CONTINUOUS
10
185.632
20
-198.233
11
185.323
21
-199.162
0
LINE
8
BLACK
6
CONTINUOUS
10
185.323
20
-199.162
11
186.127
21
-199.162
0
LINE
8
BLACK
6
CONTINUOUS
10
236.004
20
-198.295
11
235.385
21
-198.295
0
LINE
8
BLACK
6
CONTINUOUS
10
235.385
20
-198.295
11
235.323
21
-198.914
0
LINE
8
BLACK
6
CONTINUOUS
10
235.323
20
-198.914
11
235.385
21
-198.852
0
LINE
8
BLACK
6
CONTINUOUS
10
235.385
20
-198.852
11
235.508
21
-198.791
0
LINE
8
BLACK
6
CONTINUOUS
10
235.508
20
-198.791
11
235.818
21
-198.791
0
LINE
8
BLACK
6
CONTINUOUS
10
235.818
20
-198.791
11
235.942
21
-198.852
0
LINE
8
BLACK
6
CONTINUOUS
10
235.942
20
-198.852
11
236.004
21
-198.914
0
LINE
8
BLACK
6
CONTINUOUS
10
236.004
20
-198.914
11
236.065
21
-199.038
0
LINE
8
BLACK
6
CONTINUOUS
10
236.065
20
-199.038
11
236.065
21
-199.348
0
LINE
8
BLACK
6
CONTINUOUS
10
236.065
20
-199.348
11
236.004
21
-199.471
0
LINE
8
BLACK
6
CONTINUOUS
10
236.004
20
-199.471
11
235.942
21
-199.533
0
LINE
8
BLACK
6
CONTINUOUS
10
235.942
20
-199.533
11
235.818
21
-199.595
0
LINE
8
BLACK
6
CONTINUOUS
10
235.818
20
-199.595
11
235.508
21
-199.595
0
LINE
8
BLACK
6
CONTINUOUS
10
235.508
20
-199.595
11
235.385
21
-199.533
0
LINE
8
BLACK
6
CONTINUOUS
10
235.385
20
-199.533
11
235.323
21
-199.471
0
LINE
8
BLACK
6
CONTINUOUS
10
285.942
20
-198.295
11
285.694
21
-198.295
0
LINE
8
BLACK
6
CONTINUOUS
10
285.694
20
-198.295
11
285.57
21
-198.357
0
LINE
8
BLACK
6
CONTINUOUS
10
285.57
20
-198.357
11
285.508
21
-198.419
0
LINE
8
BLACK
6
CONTINUOUS
10
285.508
20
-198.419
11
285.385
21
-198.605
0
LINE
8
BLACK
6
CONTINUOUS
10
285.385
20
-198.605
11
285.323
21
-198.852
0
LINE
8
BLACK
6
CONTINUOUS
10
285.323
20
-198.852
11
285.323
21
-199.348
0
LINE
8
BLACK
6
CONTINUOUS
10
285.323
20
-199.348
11
285.385
21
-199.471
0
LINE
8
BLACK
6
CONTINUOUS
10
285.385
20
-199.471
11
285.446
21
-199.533
0
LINE
8
BLACK
6
CONTINUOUS
10
285.446
20
-199.533
11
285.57
21
-199.595
0
LINE
8
BLACK
6
CONTINUOUS
10
285.57
20
-199.595
11
285.818
21
-199.595
0
LINE
8
BLACK
6
CONTINUOUS
10
285.818
20
-199.595
11
285.942
21
-199.533
0
LINE
8
BLACK
6
CONTINUOUS
10
285.942
20
-199.533
11
286.004
21
-199.471
0
LINE
8
BLACK
6
CONTINUOUS
10
286.004
20
-199.471
11
286.065
21
-199.348
0
LINE
8
BLACK
6
CONTINUOUS
10
286.065
20
-199.348
11
286.065
21
-199.038
0
LINE
8
BLACK
6
CONTINUOUS
10
286.065
20
-199.038
11
286.004
21
-198.914
0
LINE
8
BLACK
6
CONTINUOUS
10
286.004
20
-198.914
11
285.942
21
-198.852
0
LINE
8
BLACK
6
CONTINUOUS
10
285.942
20
-198.852
11
285.818
21
-198.791
0
LINE
8
BLACK
6
CONTINUOUS
10
285.818
20
-198.791
11
285.57
21
-198.791
0
LINE
8
BLACK
6
CONTINUOUS
10
285.57
20
-198.791
11
285.446
21
-198.852
0
LINE
8
BLACK
6
CONTINUOUS
10
285.446
20
-198.852
11
285.385
21
-198.914
0
LINE
8
BLACK
6
CONTINUOUS
10
285.385
20
-198.914
11
285.323
21
-199.038
0
LINE
8
BLACK
6
CONTINUOUS
10
10
20
-60
11
12
21
-60
0
LINE
8
BLACK
6
CONTINUOUS
10
10
20
-110
11
12
21
-110
0
LINE
8
BLACK
6
CONTINUOUS
10
10
20
-160
11
12
21
-160
0
LINE
8
BLACK
6
CONTINUOUS
10
10.6905
20
-35.2167
11
11.3095
21
-35.2167
0
LINE
8
BLACK
6
CONTINUOUS
10
10.5667
20
-35.5881
11
11
21
-34.2881
0
LINE
8
BLACK
6
CONTINUOUS
10
11
20
-34.2881
11
11.4333
21
-35.5881
0
LINE
8
BLACK
6
CONTINUOUS
10
11.0929
20
-84.9071
11
11.2786
21
-84.969
0
LINE
8
BLACK
6
CONTINUOUS
10
11.2786
20
-84.969
11
11.3405
21
-85.031
0
LINE
8
BLACK
6
CONTINUOUS
10
11.3405
20
-85.031
11
11.4024
21
-85.1548
0
LINE
8
BLACK
6
CONTINUOUS
10
11.4024
20
-85.1548
11
11.4024
21
-85.3405
0
LINE
8
BLACK
6
CONTINUOUS
10
11.4024
20
-85.3405
11
11.3405
21
-85.4643
0
LINE
8
BLACK
6
CONTINUOUS
10
11.3405
20
-85.4643
11
11.2786
21
-85.5262
0
LINE
8
BLACK
6
CONTINUOUS
10
11.2786
20
-85.5262
11
11.1548
21
-85.5881
0
LINE
8
BLACK
6
CONTINUOUS
10
11.1548
20
-85.5881
11
10.6595
21
-85.5881
0
LINE
8
BLACK
6
CONTINUOUS
10
10.6595
20
-85.5881
11
10.6595
21
-84.2881
0
LINE
8
BLACK
6
CONTINUOUS
10
10.6595
20
-84.2881
11
11.0929
21
-84.2881
0
LINE
8
BLACK
6
CONTINUOUS
10
11.0929
20
-84.2881
11
11.2167
21
-84.35
0
LINE
8
BLACK
6
CONTINUOUS
10
11.2167
20
-84.35
11
11.2786
21
-84.4119
0
LINE
8
BLACK
6
CONTINUOUS
10
11.2786
20
-84.4119
11
11.3405
21
-84.5357
0
LINE
8
BLACK
6
CONTINUOUS
10
11.3405
20
-84.5357
11
11.3405
21
-84.6595
0
LINE
8
BLACK
6
CONTINUOUS
10
11.3405
20
-84.6595
11
11.2786
21
-84.7833
0
LINE
8
BLACK
6
CONTINUOUS
10
11.2786
20
-84.7833
11
11.2167
21
-84.8452
0
LINE
8
BLACK
6
CONTINUOUS
10
11.2167
20
-84.8452
11
11.0929
21
-84.9071
0
LINE
8
BLACK
6
CONTINUOUS
10
11.0929
20
-84.9071
11
10.6595
21
-84.9071
0
LINE
8
BLACK
6
CONTINUOUS
10
11.4024
20
-135.464
11
11.3405
21
-135.526
0
LINE
8
BLACK
6
CONTINUOUS
10
11.3405
20
-135.526
11
11.1548
21
-135.588
0
LINE
8
BLACK
6
CONTINUOUS
10
11.1548
20
-135.588
11
11.031
21
-135.588
0
LINE
8
BLACK
6
CONTINUOUS
10
11.031
20
-135.588
11
10.8452
21
-135.526
0
LINE
8
BLACK
6
CONTINUOUS
10
10.8452
20
-135.526
11
10.7214
21
-135.402
0
LINE
8
BLACK
6
CONTINUOUS
10
10.7214
20
-135.402
11
10.6595
21
-135.279
0
LINE
8
BLACK
6
CONTINUOUS
10
10.6595
20
-135.279
11
10.5976
21
-135.031
0
LINE
8
BLACK
6
CONTINUOUS
10
10.5976
20
-135.031
11
10.5976
21
-134.845
0
LINE
8
BLACK
6
CONTINUOUS
10
10.5976
20
-134.845
11
10.6595
21
-134.598
0
LINE
8
BLACK
6
CONTINUOUS
10
10.6595
20
-134.598
11
10.7214
21
-134.474
0
LINE
8
BLACK
6
CONTINUOUS
10
10.7214
20
-134.474
11
10.8452
21
-134.35
0
LINE
8
BLACK
6
CONTINUOUS
10
10.8452
20
-134.35
11
11.031
21
-134.288
0
LINE
8
BLACK
6
CONTINUOUS
10
11.031
20
-134.288
11
11.1548
21
-134.288
0
LINE
8
BLACK
6
CONTINUOUS
10
11.1548
20
-134.288
11
11.3405
21
-134.35
0
LINE
8
BLACK
6
CONTINUOUS
10
11.3405
20
-134.35
11
11.4024
21
-134.412
0
LINE
8
BLACK
6
CONTINUOUS
10
10.6595
20
-185.588
11
10.6595
21
-184.288
0
LINE
8
BLACK
6
CONTINUOUS
10
10.6595
20
-184.288
11
10.969
21
-184.288
0
LINE
8
BLACK
6
CONTINUOUS
10
10.969
20
-184.288
11
11.1548
21
-184.35
0
LINE
8
BLACK
6
CONTINUOUS
10
11.1548
20
-184.35
11
11.2786
21
-184.474
0
LINE
8
BLACK
6
CONTINUOUS
10
11.2786
20
-184.474
11
11.3405
21
-184.598
0
LINE
8
BLACK
6
CONTINUOUS
10
11.3405
20
-184.598
11
11.4024
21
-184.845
0
LINE
8
BLACK
6
CONTINUOUS
10
11.4024
20
-184.845
11
11.4024
21
-185.031
0
LINE
8
BLACK
6
CONTINUOUS
10
11.4024
20
-185.031
11
11.3405
21
-185.279
0
LINE
8
BLACK
6
CONTINUOUS
10
11.3405
20
-185.279
11
11.2786
21
-185.402
0
LINE
8
BLACK
6
CONTINUOUS
10
11.2786
20
-185.402
11
11.1548
21
-185.526
0
LINE
8
BLACK
6
CONTINUOUS
10
11.1548
20
-185.526
11
10.969
21
-185.588
0
LINE
8
BLACK
6
CONTINUOUS
10
10.969
20
-185.588
11
10.6595
21
-185.588
0
LINE
8
BLACK
6
CONTINUOUS
10
287.002
20
-60
11
285.002
21
-60
0
LINE
8
BLACK
6
CONTINUOUS
10
287.002
20
-110
11
285.002
21
-110
0
LINE
8
BLACK
6
CONTINUOUS
10
287.002
20
-160
11
285.002
21
-160
0
LINE
8
BLACK
6
CONTINUOUS
10
285.693
20
-35.2167
11
286.312
21
-35.2167
0
LINE
8
BLACK
6
CONTINUOUS
10
285.569
20
-35.5881
11
286.002
21
-34.2881
0
LINE
8
BLACK
6
CONTINUOUS
10
286.002
20
-34.2881
11
286.436
21
-35.5881
0
LINE
8
BLACK
6
CONTINUOUS
10
286.095
20
-84.9071
11
286.281
21
-84.969
0
LINE
8
BLACK
6
CONTINUOUS
10
286.281
20
-84.969
11
286.343
21
-85.031
0
LINE
8
BLACK
6
CONTINUOUS
10
286.343
20
-85.031
11
286.405
21
-85.1548
0
LINE
8
BLACK
6
CONTINUOUS
10
286.405
20
-85.1548
11
286.405
21
-85.3405
0
LINE
8
BLACK
6
CONTINUOUS
10
286.405
20
-85.3405
11
286.343
21
-85.4643
0
LINE
8
BLACK
6
CONTINUOUS
10
286.343
20
-85.4643
11
286.281
21
-85.5262
0
LINE
8
BLACK
6
CONTINUOUS
10
286.281
20
-85.5262
11
286.157
21
-85.5881
0
LINE
8
BLACK
6
CONTINUOUS
10
286.157
20
-85.5881
11
285.662
21
-85.5881
0
LINE
8
BLACK
6
CONTINUOUS
10
285.662
20
-85.5881
11
285.662
21
-84.2881
0
LINE
8
BLACK
6
CONTINUOUS
10
285.662
20
-84.2881
11
286.095
21
-84.2881
0
LINE
8
BLACK
6
CONTINUOUS
10
286.095
20
-84.2881
11
286.219
21
-84.35
0
LINE
8
BLACK
6
CONTINUOUS
10
286.219
20
-84.35
11
286.281
21
-84.4119
0
LINE
8
BLACK
6
CONTINUOUS
10
286.281
20
-84.4119
11
286.343
21
-84.5357
0
LINE
8
BLACK
6
CONTINUOUS
10
286.343
20
-84.5357
11
286.343
21
-84.6595
0
LINE
8
BLACK
6
CONTINUOUS
10
286.343
20
-84.6595
11
286.281
21
-84.7833
0
LINE
8
BLACK
6
CONTINUOUS
10
286.281
20
-84.7833
11
286.219
21
-84.8452
0
LINE
8
BLACK
6
CONTINUOUS
10
286.219
20
-84.8452
11
286.095
21
-84.9071
0
LINE
8
BLACK
6
CONTINUOUS
10
286.095
20
-84.9071
11
285.662
21
-84.9071
0
LINE
8
BLACK
6
CONTINUOUS
10
286.405
20
-135.464
11
286.343
21
-135.526
0
LINE
8
BLACK
6
CONTINUOUS
10
286.343
20
-135.526
11
286.157
21
-135.588
0
LINE
8
BLACK
6
CONTINUOUS
10
286.157
20
-135.588
11
286.033
21
-135.588
0
LINE
8
BLACK
6
CONTINUOUS
10
286.033
20
-135.588
11
285.847
21
-135.526
0
LINE
8
BLACK
6
CONTINUOUS
10
285.847
20
-135.526
11
285.724
21
-135.402
0
LINE
8
BLACK
6
CONTINUOUS
10
285.724
20
-135.402
11
285.662
21
-135.279
0
LINE
8
BLACK
6
CONTINUOUS
10
285.662
20
-135.279
11
285.6
21
-135.031
0
LINE
8
BLACK
6
CONTINUOUS
10
285.6
20
-135.031
11
285.6
21
-134.845
0
LINE
8
BLACK
6
CONTINUOUS
10
285.6
20
-134.845
11
285.662
21
-134.598
0
LINE
8
BLACK
6
CONTINUOUS
10
285.662
20
-134.598
11
285.724
21
-134.474
0
LINE
8
BLACK
6
CONTINUOUS
10
285.724
20
-134.474
11
285.847
21
-134.35
0
LINE
8
BLACK
6
CONTINUOUS
10
285.847
20
-134.35
11
286.033
21
-134.288
0
LINE
8
BLACK
6
CONTINUOUS
10
286.033
20
-134.288
11
286.157
21
-134.288
0
LINE
8
BLACK
6
CONTINUOUS
10
286.157
20
-134.288
11
286.343
21
-134.35
0
LINE
8
BLACK
6
CONTINUOUS
10
286.343
20
-134.35
11
286.405
21
-134.412
0
LINE
8
BLACK
6
CONTINUOUS
10
285.662
20
-185.588
11
285.662
21
-184.288
0
LINE
8
BLACK
6
CONTINUOUS
10
285.662
20
-184.288
11
285.971
21
-184.288
0
LINE
8
BLACK
6
CONTINUOUS
10
285.971
20
-184.288
11
286.157
21
-184.35
0
LINE
8
BLACK
6
CONTINUOUS
10
286.157
20
-184.35
11
286.281
21
-184.474
0
LINE
8
BLACK
6
CONTINUOUS
10
286.281
20
-184.474
11
286.343
21
-184.598
0
LINE
8
BLACK
6
CONTINUOUS
10
286.343
20
-184.598
11
286.405
21
-184.845
0
LINE
8
BLACK
6
CONTINUOUS
10
286.405
20
-184.845
11
286.405
21
-185.031
0
LINE
8
BLACK
6
CONTINUOUS
10
286.405
20
-185.031
11
286.343
21
-185.279
0
LINE
8
BLACK
6
CONTINUOUS
10
286.343
20
-185.279
11
286.281
21
-185.402
0
LINE
8
BLACK
6
CONTINUOUS
10
286.281
20
-185.402
11
286.157
21
-185.526
0
LINE
8
BLACK
6
CONTINUOUS
10
286.157
20
-185.526
11
285.971
21
-185.588
0
LINE
8
BLACK
6
CONTINUOUS
10
285.971
20
-185.588
11
285.662
21
-185.588
0
LINE
8
BLACK
6
CONTINUOUS
10
200.434
20
-193.786
11
200.434
21
-192.286
0
LINE
8
BLACK
6
CONTINUOUS
10
200.434
20
-192.286
11
200.791
21
-192.286
0
LINE
8
BLACK
6
CONTINUOUS
10
200.791
20
-192.286
11
201.006
21
-192.357
0
LINE
8
BLACK
6
CONTINUOUS
10
201.006
20
-192.357
11
201.149
21
-192.5
0
LINE
8
BLACK
6
CONTINUOUS
10
201.149
20
-192.5
11
201.22
21
-192.643
0
LINE
8
BLACK
6
CONTINUOUS
10
201.22
20
-192.643
11
201.291
21
-192.929
0
LINE
8
BLACK
6
CONTINUOUS
10
201.291
20
-192.929
11
201.291
21
-193.143
0
LINE
8
BLACK
6
CONTINUOUS
10
201.291
20
-193.143
11
201.22
21
-193.429
0
LINE
8
BLACK
6
CONTINUOUS
10
201.22
20
-193.429
11
201.149
21
-193.571
0
LINE
8
BLACK
6
CONTINUOUS
10
201.149
20
-193.571
11
201.006
21
-193.714
0
LINE
8
BLACK
6
CONTINUOUS
10
201.006
20
-193.714
11
200.791
21
-193.786
0
LINE
8
BLACK
6
CONTINUOUS
10
200.791
20
-193.786
11
200.434
21
-193.786
0
LINE
8
BLACK
6
CONTINUOUS
10
202.577
20
-193.786
11
202.577
21
-193
0
LINE
8
BLACK
6
CONTINUOUS
10
202.577
20
-193
11
202.506
21
-192.857
0
LINE
8
BLACK
6
CONTINUOUS
10
202.506
20
-192.857
11
202.363
21
-192.786
0
LINE
8
BLACK
6
CONTINUOUS
10
202.363
20
-192.786
11
202.077
21
-192.786
0
LINE
8
BLACK
6
CONTINUOUS
10
202.077
20
-192.786
11
201.934
21
-192.857
0
LINE
8
BLACK
6
CONTINUOUS
10
202.577
20
-193.714
11
202.434
21
-193.786
0
LINE
8
BLACK
6
CONTINUOUS
10
202.434
20
-193.786
11
202.077
21
-193.786
0
LINE
8
BLACK
6
CONTINUOUS
10
202.077
20
-193.786
11
201.934
21
-193.714
0
LINE
8
BLACK
6
CONTINUOUS
10
201.934
20
-193.714
11
201.863
21
-193.571
0
LINE
8
BLACK
6
CONTINUOUS
10
201.863
20
-193.571
11
201.863
21
-193.429
0
LINE
8
BLACK
6
CONTINUOUS
10
201.863
20
-193.429
11
201.934
21
-193.286
0
LINE
8
BLACK
6
CONTINUOUS
10
201.934
20
-193.286
11
202.077
21
-193.214
0
LINE
8
BLACK
6
CONTINUOUS
10
202.077
20
-193.214
11
202.434
21
-193.214
0
LINE
8
BLACK
6
CONTINUOUS
10
202.434
20
-193.214
11
202.577
21
-193.143
0
LINE
8
BLACK
6
CONTINUOUS
10
203.077
20
-192.786
11
203.649
21
-192.786
0
LINE
8
BLACK
6
CONTINUOUS
10
203.291
20
-192.286
11
203.291
21
-193.571
0
LINE
8
BLACK
6
CONTINUOUS
10
203.291
20
-193.571
11
203.363
21
-193.714
0
LINE
8
BLACK
6
CONTINUOUS
10
203.363
20
-193.714
11
203.506
21
-193.786
0
LINE
8
BLACK
6
CONTINUOUS
10
203.506
20
-193.786
11
203.649
21
-193.786
0
LINE
8
BLACK
6
CONTINUOUS
10
204.72
20
-193.714
11
204.577
21
-193.786
0
LINE
8
BLACK
6
CONTINUOUS
10
204.577
20
-193.786
11
204.291
21
-193.786
0
LINE
8
BLACK
6
CONTINUOUS
10
204.291
20
-193.786
11
204.149
21
-193.714
0
LINE
8
BLACK
6
CONTINUOUS
10
204.149
20
-193.714
11
204.077
21
-193.571
0
LINE
8
BLACK
6
CONTINUOUS
10
204.077
20
-193.571
11
204.077
21
-193
0
LINE
8
BLACK
6
CONTINUOUS
10
204.077
20
-193
11
204.149
21
-192.857
0
LINE
8
BLACK
6
CONTINUOUS
10
204.149
20
-192.857
11
204.291
21
-192.786
0
LINE
8
BLACK
6
CONTINUOUS
10
204.291
20
-192.786
11
204.577
21
-192.786
0
LINE
8
BLACK
6
CONTINUOUS
10
204.577
20
-192.786
11
204.72
21
-192.857
0
LINE
8
BLACK
6
CONTINUOUS
10
204.72
20
-192.857
11
204.791
21
-193
0
LINE
8
BLACK
6
CONTINUOUS
10
204.791
20
-193
11
204.791
21
-193.143
0
LINE
8
BLACK
6
CONTINUOUS
10
204.791
20
-193.143
11
204.077
21
-193.286
0
LINE
8
BLACK
6
CONTINUOUS
10
205.434
20
-193.643
11
205.506
21
-193.714
0
LINE
8
BLACK
6
CONTINUOUS
10
205.506
20
-193.714
11
205.434
21
-193.786
0
LINE
8
BLACK
6
CONTINUOUS
10
205.434
20
-193.786
11
205.363
21
-193.714
0
LINE
8
BLACK
6
CONTINUOUS
10
205.363
20
-193.714
11
205.434
21
-193.643
0
LINE
8
BLACK
6
CONTINUOUS
10
205.434
20
-193.643
11
205.434
21
-193.786
0
LINE
8
BLACK
6
CONTINUOUS
10
205.434
20
-192.857
11
205.506
21
-192.929
0
LINE
8
BLACK
6
CONTINUOUS
10
205.506
20
-192.929
11
205.434
21
-193
0
LINE
8
BLACK
6
CONTINUOUS
10
205.434
20
-193
11
205.363
21
-192.929
0
LINE
8
BLACK
6
CONTINUOUS
10
205.363
20
-192.929
11
205.434
21
-192.857
0
LINE
8
BLACK
6
CONTINUOUS
10
205.434
20
-192.857
11
205.434
21
-193
0
LINE
8
BLACK
6
CONTINUOUS
10
177.002
20
-194.507
11
285.002
21
-194.507
0
LINE
8
BLACK
6
CONTINUOUS
10
178.434
20
-196.586
11
178.434
21
-195.086
0
LINE
8
BLACK
6
CONTINUOUS
10
179.291
20
-196.586
11
178.649
21
-195.729
0
LINE
8
BLACK
6
CONTINUOUS
10
179.291
20
-195.086
11
178.434
21
-195.943
0
LINE
8
BLACK
6
CONTINUOUS
10
179.934
20
-196.586
11
179.934
21
-195.586
0
LINE
8
BLACK
6
CONTINUOUS
10
179.934
20
-195.086
11
179.863
21
-195.157
0
LINE
8
BLACK
6
CONTINUOUS
10
179.863
20
-195.157
11
179.934
21
-195.229
0
LINE
8
BLACK
6
CONTINUOUS
10
179.934
20
-195.229
11
180.006
21
-195.157
0
LINE
8
BLACK
6
CONTINUOUS
10
180.006
20
-195.157
11
179.934
21
-195.086
0
LINE
8
BLACK
6
CONTINUOUS
10
179.934
20
-195.086
11
179.934
21
-195.229
0
LINE
8
BLACK
6
CONTINUOUS
10
181.506
20
-196.443
11
181.434
21
-196.514
0
LINE
8
BLACK
6
CONTINUOUS
10
181.434
20
-196.514
11
181.22
21
-196.586
0
LINE
8
BLACK
6
CONTINUOUS
10
181.22
20
-196.586
11
181.077
21
-196.586
0
LINE
8
BLACK
6
CONTINUOUS
10
181.077
20
-196.586
11
180.863
21
-196.514
0
LINE
8
BLACK
6
CONTINUOUS
10
180.863
20
-196.514
11
180.72
21
-196.371
0
LINE
8
BLACK
6
CONTINUOUS
10
180.72
20
-196.371
11
180.649
21
-196.229
0
LINE
8
BLACK
6
CONTINUOUS
10
180.649
20
-196.229
11
180.577
21
-195.943
0
LINE
8
BLACK
6
CONTINUOUS
10
180.577
20
-195.943
11
180.577
21
-195.729
0
LINE
8
BLACK
6
CONTINUOUS
10
180.577
20
-195.729
11
180.649
21
-195.443
0
LINE
8
BLACK
6
CONTINUOUS
10
180.649
20
-195.443
11
180.72
21
-195.3
0
LINE
8
BLACK
6
CONTINUOUS
10
180.72
20
-195.3
11
180.863
21
-195.157
0
LINE
8
BLACK
6
CONTINUOUS
10
180.863
20
-195.157
11
181.077
21
-195.086
0
LINE
8
BLACK
6
CONTINUOUS
10
181.077
20
-195.086
11
181.22
21
-195.086
0
LINE
8
BLACK
6
CONTINUOUS
10
181.22
20
-195.086
11
181.434
21
-195.157
0
LINE
8
BLACK
6
CONTINUOUS
10
181.434
20
-195.157
11
181.506
21
-195.229
0
LINE
8
BLACK
6
CONTINUOUS
10
182.791
20
-196.586
11
182.791
21
-195.8
0
LINE
8
BLACK
6
CONTINUOUS
10
182.791
20
-195.8
11
182.72
21
-195.657
0
LINE
8
BLACK
6
CONTINUOUS
10
182.72
20
-195.657
11
182.577
21
-195.586
0
LINE
8
BLACK
6
CONTINUOUS
10
182.577
20
-195.586
11
182.291
21
-195.586
0
LINE
8
BLACK
6
CONTINUOUS
10
182.291
20
-195.586
11
182.149
21
-195.657
0
LINE
8
BLACK
6
CONTINUOUS
10
182.791
20
-196.514
11
182.649
21
-196.586
0
LINE
8
BLACK
6
CONTINUOUS
10
182.649
20
-196.586
11
182.291
21
-196.586
0
LINE
8
BLACK
6
CONTINUOUS
10
182.291
20
-196.586
11
182.149
21
-196.514
0
LINE
8
BLACK
6
CONTINUOUS
10
182.149
20
-196.514
11
182.077
21
-196.371
0
LINE
8
BLACK
6
CONTINUOUS
10
182.077
20
-196.371
11
182.077
21
-196.229
0
LINE
8
BLACK
6
CONTINUOUS
10
182.077
20
-196.229
11
182.149
21
-196.086
0
LINE
8
BLACK
6
CONTINUOUS
10
182.149
20
-196.086
11
182.291
21
-196.014
0
LINE
8
BLACK
6
CONTINUOUS
10
182.291
20
-196.014
11
182.649
21
-196.014
0
LINE
8
BLACK
6
CONTINUOUS
10
182.649
20
-196.014
11
182.791
21
-195.943
0
LINE
8
BLACK
6
CONTINUOUS
10
184.149
20
-196.586
11
184.149
21
-195.086
0
LINE
8
BLACK
6
CONTINUOUS
10
184.149
20
-196.514
11
184.006
21
-196.586
0
LINE
8
BLACK
6
CONTINUOUS
10
184.006
20
-196.586
11
183.72
21
-196.586
0
LINE
8
BLACK
6
CONTINUOUS
10
183.72
20
-196.586
11
183.577
21
-196.514
0
LINE
8
BLACK
6
CONTINUOUS
10
183.577
20
-196.514
11
183.506
21
-196.443
0
LINE
8
BLACK
6
CONTINUOUS
10
183.506
20
-196.443
11
183.434
21
-196.3
0
LINE
8
BLACK
6
CONTINUOUS
10
183.434
20
-196.3
11
183.434
21
-195.871
0
LINE
8
BLACK
6
CONTINUOUS
10
183.434
20
-195.871
11
183.506
21
-195.729
0
LINE
8
BLACK
6
CONTINUOUS
10
183.506
20
-195.729
11
183.577
21
-195.657
0
LINE
8
BLACK
6
CONTINUOUS
10
183.577
20
-195.657
11
183.72
21
-195.586
0
LINE
8
BLACK
6
CONTINUOUS
10
183.72
20
-195.586
11
184.006
21
-195.586
0
LINE
8
BLACK
6
CONTINUOUS
10
184.006
20
-195.586
11
184.149
21
-195.657
0
LINE
8
BLACK
6
CONTINUOUS
10
186.006
20
-195.8
11
186.506
21
-195.8
0
LINE
8
BLACK
6
CONTINUOUS
10
186.72
20
-196.586
11
186.006
21
-196.586
0
LINE
8
BLACK
6
CONTINUOUS
10
186.006
20
-196.586
11
186.006
21
-195.086
0
LINE
8
BLACK
6
CONTINUOUS
10
186.006
20
-195.086
11
186.72
21
-195.086
0
LINE
8
BLACK
6
CONTINUOUS
10
187.363
20
-196.443
11
187.434
21
-196.514
0
LINE
8
BLACK
6
CONTINUOUS
10
187.434
20
-196.514
11
187.363
21
-196.586
0
LINE
8
BLACK
6
CONTINUOUS
10
187.363
20
-196.586
11
187.291
21
-196.514
0
LINE
8
BLACK
6
CONTINUOUS
10
187.291
20
-196.514
11
187.363
21
-196.443
0
LINE
8
BLACK
6
CONTINUOUS
10
187.363
20
-196.443
11
187.363
21
-196.586
0
LINE
8
BLACK
6
CONTINUOUS
10
188.077
20
-196.586
11
188.077
21
-195.086
0
LINE
8
BLACK
6
CONTINUOUS
10
188.077
20
-195.086
11
188.434
21
-195.086
0
LINE
8
BLACK
6
CONTINUOUS
10
188.434
20
-195.086
11
188.649
21
-195.157
0
LINE
8
BLACK
6
CONTINUOUS
10
188.649
20
-195.157
11
188.791
21
-195.3
0
LINE
8
BLACK
6
CONTINUOUS
10
188.791
20
-195.3
11
188.863
21
-195.443
0
LINE
8
BLACK
6
CONTINUOUS
10
188.863
20
-195.443
11
188.934
21
-195.729
0
LINE
8
BLACK
6
CONTINUOUS
10
188.934
20
-195.729
11
188.934
21
-195.943
0
LINE
8
BLACK
6
CONTINUOUS
10
188.934
20
-195.943
11
188.863
21
-196.229
0
LINE
8
BLACK
6
CONTINUOUS
10
188.863
20
-196.229
11
188.791
21
-196.371
0
LINE
8
BLACK
6
CONTINUOUS
10
188.791
20
-196.371
11
188.649
21
-196.514
0
LINE
8
BLACK
6
CONTINUOUS
10
188.649
20
-196.514
11
188.434
21
-196.586
0
LINE
8
BLACK
6
CONTINUOUS
10
188.434
20
-196.586
11
188.077
21
-196.586
0
LINE
8
BLACK
6
CONTINUOUS
10
189.577
20
-196.443
11
189.649
21
-196.514
0
LINE
8
BLACK
6
CONTINUOUS
10
189.649
20
-196.514
11
189.577
21
-196.586
0
LINE
8
BLACK
6
CONTINUOUS
10
189.577
20
-196.586
11
189.506
21
-196.514
0
LINE
8
BLACK
6
CONTINUOUS
10
189.506
20
-196.514
11
189.577
21
-196.443
0
LINE
8
BLACK
6
CONTINUOUS
10
189.577
20
-196.443
11
189.577
21
-196.586
0
LINE
8
BLACK
6
CONTINUOUS
10
190.22
20
-196.157
11
190.934
21
-196.157
0
LINE
8
BLACK
6
CONTINUOUS
10
190.077
20
-196.586
11
190.577
21
-195.086
0
LINE
8
BLACK
6
CONTINUOUS
10
190.577
20
-195.086
11
191.077
21
-196.586
0
LINE
8
BLACK
6
CONTINUOUS
10
191.577
20
-196.443
11
191.649
21
-196.514
0
LINE
8
BLACK
6
CONTINUOUS
10
191.649
20
-196.514
11
191.577
21
-196.586
0
LINE
8
BLACK
6
CONTINUOUS
10
191.577
20
-196.586
11
191.506
21
-196.514
0
LINE
8
BLACK
6
CONTINUOUS
10
191.506
20
-196.514
11
191.577
21
-196.443
0
LINE
8
BLACK
6
CONTINUOUS
10
191.577
20
-196.443
11
191.577
21
-196.586
0
LINE
8
BLACK
6
CONTINUOUS
10
194.577
20
-196.586
11
194.577
21
-195.086
0
LINE
8
BLACK
6
CONTINUOUS
10
194.72
20
-196.014
11
195.149
21
-196.586
0
LINE
8
BLACK
6
CONTINUOUS
10
195.149
20
-195.586
11
194.577
21
-196.157
0
LINE
8
BLACK
6
CONTINUOUS
10
195.791
20
-196.586
11
195.791
21
-195.586
0
LINE
8
BLACK
6
CONTINUOUS
10
195.791
20
-195.086
11
195.72
21
-195.157
0
LINE
8
BLACK
6
CONTINUOUS
10
195.72
20
-195.157
11
195.791
21
-195.229
0
LINE
8
BLACK
6
CONTINUOUS
10
195.791
20
-195.229
11
195.863
21
-195.157
0
LINE
8
BLACK
6
CONTINUOUS
10
195.863
20
-195.157
11
195.791
21
-195.086
0
LINE
8
BLACK
6
CONTINUOUS
10
195.791
20
-195.086
11
195.791
21
-195.229
0
LINE
8
BLACK
6
CONTINUOUS
10
197.149
20
-196.514
11
197.006
21
-196.586
0
LINE
8
BLACK
6
CONTINUOUS
10
197.006
20
-196.586
11
196.72
21
-196.586
0
LINE
8
BLACK
6
CONTINUOUS
10
196.72
20
-196.586
11
196.577
21
-196.514
0
LINE
8
BLACK
6
CONTINUOUS
10
196.577
20
-196.514
11
196.506
21
-196.443
0
LINE
8
BLACK
6
CONTINUOUS
10
196.506
20
-196.443
11
196.434
21
-196.3
0
LINE
8
BLACK
6
CONTINUOUS
10
196.434
20
-196.3
11
196.434
21
-195.871
0
LINE
8
BLACK
6
CONTINUOUS
10
196.434
20
-195.871
11
196.506
21
-195.729
0
LINE
8
BLACK
6
CONTINUOUS
10
196.506
20
-195.729
11
196.577
21
-195.657
0
LINE
8
BLACK
6
CONTINUOUS
10
196.577
20
-195.657
11
196.72
21
-195.586
0
LINE
8
BLACK
6
CONTINUOUS
10
196.72
20
-195.586
11
197.006
21
-195.586
0
LINE
8
BLACK
6
CONTINUOUS
10
197.006
20
-195.586
11
197.149
21
-195.657
0
LINE
8
BLACK
6
CONTINUOUS
10
198.434
20
-196.586
11
198.434
21
-195.8
0
LINE
8
BLACK
6
CONTINUOUS
10
198.434
20
-195.8
11
198.363
21
-195.657
0
LINE
8
BLACK
6
CONTINUOUS
10
198.363
20
-195.657
11
198.22
21
-195.586
0
LINE
8
BLACK
6
CONTINUOUS
10
198.22
20
-195.586
11
197.934
21
-195.586
0
LINE
8
BLACK
6
CONTINUOUS
10
197.934
20
-195.586
11
197.791
21
-195.657
0
LINE
8
BLACK
6
CONTINUOUS
10
198.434
20
-196.514
11
198.291
21
-196.586
0
LINE
8
BLACK
6
CONTINUOUS
10
198.291
20
-196.586
11
197.934
21
-196.586
0
LINE
8
BLACK
6
CONTINUOUS
10
197.934
20
-196.586
11
197.791
21
-196.514
0
LINE
8
BLACK
6
CONTINUOUS
10
197.791
20
-196.514
11
197.72
21
-196.371
0
LINE
8
BLACK
6
CONTINUOUS
10
197.72
20
-196.371
11
197.72
21
-196.229
0
LINE
8
BLACK
6
CONTINUOUS
10
197.72
20
-196.229
11
197.791
21
-196.086
0
LINE
8
BLACK
6
CONTINUOUS
10
197.791
20
-196.086
11
197.934
21
-196.014
0
LINE
8
BLACK
6
CONTINUOUS
10
197.934
20
-196.014
11
198.291
21
-196.014
0
LINE
8
BLACK
6
CONTINUOUS
10
198.291
20
-196.014
11
198.434
21
-195.943
0
LINE
8
BLACK
6
CONTINUOUS
10
199.791
20
-196.586
11
199.791
21
-195.086
0
LINE
8
BLACK
6
CONTINUOUS
10
199.791
20
-196.514
11
199.649
21
-196.586
0
LINE
8
BLACK
6
CONTINUOUS
10
199.649
20
-196.586
11
199.363
21
-196.586
0
LINE
8
BLACK
6
CONTINUOUS
10
199.363
20
-196.586
11
199.22
21
-196.514
0
LINE
8
BLACK
6
CONTINUOUS
10
199.22
20
-196.514
11
199.149
21
-196.443
0
LINE
8
BLACK
6
CONTINUOUS
10
199.149
20
-196.443
11
199.077
21
-196.3
0
LINE
8
BLACK
6
CONTINUOUS
10
199.077
20
-196.3
11
199.077
21
-195.871
0
LINE
8
BLACK
6
CONTINUOUS
10
199.077
20
-195.871
11
199.149
21
-195.729
0
LINE
8
BLACK
6
CONTINUOUS
10
199.149
20
-195.729
11
199.22
21
-195.657
0
LINE
8
BLACK
6
CONTINUOUS
10
199.22
20
-195.657
11
199.363
21
-195.586
0
LINE
8
BLACK
6
CONTINUOUS
10
199.363
20
-195.586
11
199.649
21
-195.586
0
LINE
8
BLACK
6
CONTINUOUS
10
199.649
20
-195.586
11
199.791
21
-195.657
0
LINE
8
BLACK
6
CONTINUOUS
10
202.363
20
-195.086
11
201.649
21
-195.086
0
LINE
8
BLACK
6
CONTINUOUS
10
201.649
20
-195.086
11
201.577
21
-195.8
0
LINE
8
BLACK
6
CONTINUOUS
10
201.577
20
-195.8
11
201.649
21
-195.729
0
LINE
8
BLACK
6
CONTINUOUS
10
201.649
20
-195.729
11
201.791
21
-195.657
0
LINE
8
BLACK
6
CONTINUOUS
10
201.791
20
-195.657
11
202.149
21
-195.657
0
LINE
8
BLACK
6
CONTINUOUS
10
202.149
20
-195.657
11
202.291
21
-195.729
0
LINE
8
BLACK
6
CONTINUOUS
10
202.291
20
-195.729
11
202.363
21
-195.8
0
LINE
8
BLACK
6
CONTINUOUS
10
202.363
20
-195.8
11
202.434
21
-195.943
0
LINE
8
BLACK
6
CONTINUOUS
10
202.434
20
-195.943
11
202.434
21
-196.3
0
LINE
8
BLACK
6
CONTINUOUS
10
202.434
20
-196.3
11
202.363
21
-196.443
0
LINE
8
BLACK
6
CONTINUOUS
10
202.363
20
-196.443
11
202.291
21
-196.514
0
LINE
8
BLACK
6
CONTINUOUS
10
202.291
20
-196.514
11
202.149
21
-196.586
0
LINE
8
BLACK
6
CONTINUOUS
10
202.149
20
-196.586
11
201.791
21
-196.586
0
LINE
8
BLACK
6
CONTINUOUS
10
201.791
20
-196.586
11
201.649
21
-196.514
0
LINE
8
BLACK
6
CONTINUOUS
10
201.649
20
-196.514
11
201.577
21
-196.443
0
LINE
8
BLACK
6
CONTINUOUS
10
203.077
20
-196.443
11
203.149
21
-196.514
0
LINE
8
BLACK
6
CONTINUOUS
10
203.149
20
-196.514
11
203.077
21
-196.586
0
LINE
8
BLACK
6
CONTINUOUS
10
203.077
20
-196.586
11
203.006
21
-196.514
0
LINE
8
BLACK
6
CONTINUOUS
10
203.006
20
-196.514
11
203.077
21
-196.443
0
LINE
8
BLACK
6
CONTINUOUS
10
203.077
20
-196.443
11
203.077
21
-196.586
0
LINE
8
BLACK
6
CONTINUOUS
10
204.077
20
-195.086
11
204.22
21
-195.086
0
LINE
8
BLACK
6
CONTINUOUS
10
204.22
20
-195.086
11
204.363
21
-195.157
0
LINE
8
BLACK
6
CONTINUOUS
10
204.363
20
-195.157
11
204.434
21
-195.229
0
LINE
8
BLACK
6
CONTINUOUS
10
204.434
20
-195.229
11
204.506
21
-195.371
0
LINE
8
BLACK
6
CONTINUOUS
10
204.506
20
-195.371
11
204.577
21
-195.657
0
LINE
8
BLACK
6
CONTINUOUS
10
204.577
20
-195.657
11
204.577
21
-196.014
0
LINE
8
BLACK
6
CONTINUOUS
10
204.577
20
-196.014
11
204.506
21
-196.3
0
LINE
8
BLACK
6
CONTINUOUS
10
204.506
20
-196.3
11
204.434
21
-196.443
0
LINE
8
BLACK
6
CONTINUOUS
10
204.434
20
-196.443
11
204.363
21
-196.514
0
LINE
8
BLACK
6
CONTINUOUS
10
204.363
20
-196.514
11
204.22
21
-196.586
0
LINE
8
BLACK
6
CONTINUOUS
10
204.22
20
-196.586
11
204.077
21
-196.586
0
LINE
8
BLACK
6
CONTINUOUS
10
204.077
20
-196.586
11
203.934
21
-196.514
0
LINE
8
BLACK
6
CONTINUOUS
10
203.934
20
-196.514
11
203.863
21
-196.443
0
LINE
8
BLACK
6
CONTINUOUS
10
203.863
20
-196.443
11
203.791
21
-196.3
0
LINE
8
BLACK
6
CONTINUOUS
10
203.791
20
-196.3
11
203.72
21
-196.014
0
LINE
8
BLACK
6
CONTINUOUS
10
203.72
20
-196.014
11
203.72
21
-195.657
0
LINE
8
BLACK
6
CONTINUOUS
10
203.72
20
-195.657
11
203.791
21
-195.371
0
LINE
8
BLACK
6
CONTINUOUS
10
203.791
20
-195.371
11
203.863
21
-195.229
0
LINE
8
BLACK
6
CONTINUOUS
10
203.863
20
-195.229
11
203.934
21
-195.157
0
LINE
8
BLACK
6
CONTINUOUS
10
203.934
20
-195.157
11
204.077
21
-195.086
0
LINE
8
BLACK
6
CONTINUOUS
10
205.22
20
-196.443
11
205.291
21
-196.514
0
LINE
8
BLACK
6
CONTINUOUS
10
205.291
20
-196.514
11
205.22
21
-196.586
0
LINE
8
BLACK
6
CONTINUOUS
10
205.22
20
-196.586
11
205.149
21
-196.514
0
LINE
8
BLACK
6
CONTINUOUS
10
205.149
20
-196.514
11
205.22
21
-196.443
0
LINE
8
BLACK
6
CONTINUOUS
10
205.22
20
-196.443
11
205.22
21
-196.586
0
LINE
8
BLACK
6
CONTINUOUS
10
206.72
20
-196.586
11
205.863
21
-196.586
0
LINE
8
BLACK
6
CONTINUOUS
10
206.291
20
-196.586
11
206.291
21
-195.086
0
LINE
8
BLACK
6
CONTINUOUS
10
206.291
20
-195.086
11
206.149
21
-195.3
0
LINE
8
BLACK
6
CONTINUOUS
10
206.149
20
-195.3
11
206.006
21
-195.443
0
LINE
8
BLACK
6
CONTINUOUS
10
206.006
20
-195.443
11
205.863
21
-195.514
0
LINE
8
BLACK
6
CONTINUOUS
10
207.363
20
-196.014
11
208.506
21
-196.014
0
LINE
8
BLACK
6
CONTINUOUS
10
207.934
20
-196.586
11
207.934
21
-195.443
0
LINE
8
BLACK
6
CONTINUOUS
10
209.863
20
-196.586
11
209.863
21
-195.086
0
LINE
8
BLACK
6
CONTINUOUS
10
209.863
20
-196.514
11
209.72
21
-196.586
0
LINE
8
BLACK
6
CONTINUOUS
10
209.72
20
-196.586
11
209.434
21
-196.586
0
LINE
8
BLACK
6
CONTINUOUS
10
209.434
20
-196.586
11
209.291
21
-196.514
0
LINE
8
BLACK
6
CONTINUOUS
10
209.291
20
-196.514
11
209.22
21
-196.443
0
LINE
8
BLACK
6
CONTINUOUS
10
209.22
20
-196.443
11
209.149
21
-196.3
0
LINE
8
BLACK
6
CONTINUOUS
10
209.149
20
-196.3
11
209.149
21
-195.871
0
LINE
8
BLACK
6
CONTINUOUS
10
209.149
20
-195.871
11
209.22
21
-195.729
0
LINE
8
BLACK
6
CONTINUOUS
10
209.22
20
-195.729
11
209.291
21
-195.657
0
LINE
8
BLACK
6
CONTINUOUS
10
209.291
20
-195.657
11
209.434
21
-195.586
0
LINE
8
BLACK
6
CONTINUOUS
10
209.434
20
-195.586
11
209.72
21
-195.586
0
LINE
8
BLACK
6
CONTINUOUS
10
209.72
20
-195.586
11
209.863
21
-195.657
0
LINE
8
BLACK
6
CONTINUOUS
10
210.363
20
-195.586
11
210.934
21
-195.586
0
LINE
8
BLACK
6
CONTINUOUS
10
210.577
20
-196.586
11
210.577
21
-195.3
0
LINE
8
BLACK
6
CONTINUOUS
10
210.577
20
-195.3
11
210.649
21
-195.157
0
LINE
8
BLACK
6
CONTINUOUS
10
210.649
20
-195.157
11
210.791
21
-195.086
0
LINE
8
BLACK
6
CONTINUOUS
10
210.791
20
-195.086
11
210.934
21
-195.086
0
LINE
8
BLACK
6
CONTINUOUS
10
211.363
20
-196.514
11
211.506
21
-196.586
0
LINE
8
BLACK
6
CONTINUOUS
10
211.506
20
-196.586
11
211.791
21
-196.586
0
LINE
8
BLACK
6
CONTINUOUS
10
211.791
20
-196.586
11
211.934
21
-196.514
0
LINE
8
BLACK
6
CONTINUOUS
10
211.934
20
-196.514
11
212.006
21
-196.371
0
LINE
8
BLACK
6
CONTINUOUS
10
212.006
20
-196.371
11
212.006
21
-196.3
0
LINE
8
BLACK
6
CONTINUOUS
10
212.006
20
-196.3
11
211.934
21
-196.157
0
LINE
8
BLACK
6
CONTINUOUS
10
211.934
20
-196.157
11
211.791
21
-196.086
0
LINE
8
BLACK
6
CONTINUOUS
10
211.791
20
-196.086
11
211.577
21
-196.086
0
LINE
8
BLACK
6
CONTINUOUS
10
211.577
20
-196.086
11
211.434
21
-196.014
0
LINE
8
BLACK
6
CONTINUOUS
10
211.434
20
-196.014
11
211.363
21
-195.871
0
LINE
8
BLACK
6
CONTINUOUS
10
211.363
20
-195.871
11
211.363
21
-195.8
0
LINE
8
BLACK
6
CONTINUOUS
10
211.363
20
-195.8
11
211.434
21
-195.657
0
LINE
8
BLACK
6
CONTINUOUS
10
211.434
20
-195.657
11
211.577
21
-195.586
0
LINE
8
BLACK
6
CONTINUOUS
10
211.577
20
-195.586
11
211.791
21
-195.586
0
LINE
8
BLACK
6
CONTINUOUS
10
211.791
20
-195.586
11
211.934
21
-195.657
0
LINE
8
BLACK
6
CONTINUOUS
10
213.291
20
-195.586
11
213.291
21
-196.8
0
LINE
8
BLACK
6
CONTINUOUS
10
213.291
20
-196.8
11
213.22
21
-196.943
0
LINE
8
BLACK
6
CONTINUOUS
10
213.22
20
-196.943
11
213.149
21
-197.014
0
LINE
8
BLACK
6
CONTINUOUS
10
213.149
20
-197.014
11
213.006
21
-197.086
0
LINE
8
BLACK
6
CONTINUOUS
10
213.006
20
-197.086
11
212.791
21
-197.086
0
LINE
8
BLACK
6
CONTINUOUS
10
212.791
20
-197.086
11
212.649
21
-197.014
0
LINE
8
BLACK
6
CONTINUOUS
10
213.291
20
-196.514
11
213.149
21
-196.586
0
LINE
8
BLACK
6
CONTINUOUS
10
213.149
20
-196.586
11
212.863
21
-196.586
0
LINE
8
BLACK
6
CONTINUOUS
10
212.863
20
-196.586
11
212.72
21
-196.514
0
LINE
8
BLACK
6
CONTINUOUS
10
212.72
20
-196.514
11
212.649
21
-196.443
0
LINE
8
BLACK
6
CONTINUOUS
10
212.649
20
-196.443
11
212.577
21
-196.3
0
LINE
8
BLACK
6
CONTINUOUS
10
212.577
20
-196.3
11
212.577
21
-195.871
0
LINE
8
BLACK
6
CONTINUOUS
10
212.577
20
-195.871
11
212.649
21
-195.729
0
LINE
8
BLACK
6
CONTINUOUS
10
212.649
20
-195.729
11
212.72
21
-195.657
0
LINE
8
BLACK
6
CONTINUOUS
10
212.72
20
-195.657
11
212.863
21
-195.586
0
LINE
8
BLACK
6
CONTINUOUS
10
212.863
20
-195.586
11
213.149
21
-195.586
0
LINE
8
BLACK
6
CONTINUOUS
10
213.149
20
-195.586
11
213.291
21
-195.657
0
LINE
8
BLACK
6
CONTINUOUS
10
214.791
20
-196.586
11
213.934
21
-196.586
0
LINE
8
BLACK
6
CONTINUOUS
10
214.363
20
-196.586
11
214.363
21
-195.086
0
LINE
8
BLACK
6
CONTINUOUS
10
214.363
20
-195.086
11
214.22
21
-195.3
0
LINE
8
BLACK
6
CONTINUOUS
10
214.22
20
-195.3
11
214.077
21
-195.443
0
LINE
8
BLACK
6
CONTINUOUS
10
214.077
20
-195.443
11
213.934
21
-195.514
0
LINE
8
BLACK
6
CONTINUOUS
10
215.434
20
-196.014
11
216.577
21
-196.014
0
LINE
8
BLACK
6
CONTINUOUS
10
217.22
20
-195.229
11
217.291
21
-195.157
0
LINE
8
BLACK
6
CONTINUOUS
10
217.291
20
-195.157
11
217.434
21
-195.086
0
LINE
8
BLACK
6
CONTINUOUS
10
217.434
20
-195.086
11
217.791
21
-195.086
0
LINE
8
BLACK
6
CONTINUOUS
10
217.791
20
-195.086
11
217.934
21
-195.157
0
LINE
8
BLACK
6
CONTINUOUS
10
217.934
20
-195.157
11
218.006
21
-195.229
0
LINE
8
BLACK
6
CONTINUOUS
10
218.006
20
-195.229
11
218.077
21
-195.371
0
LINE
8
BLACK
6
CONTINUOUS
10
218.077
20
-195.371
11
218.077
21
-195.514
0
LINE
8
BLACK
6
CONTINUOUS
10
218.077
20
-195.514
11
218.006
21
-195.729
0
LINE
8
BLACK
6
CONTINUOUS
10
218.006
20
-195.729
11
217.149
21
-196.586
0
LINE
8
BLACK
6
CONTINUOUS
10
217.149
20
-196.586
11
218.077
21
-196.586
0
LINE
8
BLACK
6
CONTINUOUS
10
218.363
20
-194.677
11
219.72
21
-194.677
0
LINE
8
BLACK
6
CONTINUOUS
10
218.72
20
-196.586
11
218.72
21
-195.086
0
LINE
8
BLACK
6
CONTINUOUS
10
218.72
20
-195.657
11
218.863
21
-195.586
0
LINE
8
BLACK
6
CONTINUOUS
10
218.863
20
-195.586
11
219.149
21
-195.586
0
LINE
8
BLACK
6
CONTINUOUS
10
219.149
20
-195.586
11
219.291
21
-195.657
0
LINE
8
BLACK
6
CONTINUOUS
10
219.291
20
-195.657
11
219.363
21
-195.729
0
LINE
8
BLACK
6
CONTINUOUS
10
219.363
20
-195.729
11
219.434
21
-195.871
0
LINE
8
BLACK
6
CONTINUOUS
10
219.434
20
-195.871
11
219.434
21
-196.3
0
LINE
8
BLACK
6
CONTINUOUS
10
219.434
20
-196.3
11
219.363
21
-196.443
0
LINE
8
BLACK
6
CONTINUOUS
10
219.363
20
-196.443
11
219.291
21
-196.514
0
LINE
8
BLACK
6
CONTINUOUS
10
219.291
20
-196.514
11
219.149
21
-196.586
0
LINE
8
BLACK
6
CONTINUOUS
10
219.149
20
-196.586
11
218.863
21
-196.586
0
LINE
8
BLACK
6
CONTINUOUS
10
218.863
20
-196.586
11
218.72
21
-196.514
0
LINE
8
BLACK
6
CONTINUOUS
10
219.72
20
-194.677
11
221.077
21
-194.677
0
LINE
8
BLACK
6
CONTINUOUS
10
220.077
20
-195.586
11
220.077
21
-197.086
0
LINE
8
BLACK
6
CONTINUOUS
10
220.077
20
-195.657
11
220.22
21
-195.586
0
LINE
8
BLACK
6
CONTINUOUS
10
220.22
20
-195.586
11
220.506
21
-195.586
0
LINE
8
BLACK
6
CONTINUOUS
10
220.506
20
-195.586
11
220.649
21
-195.657
0
LINE
8
BLACK
6
CONTINUOUS
10
220.649
20
-195.657
11
220.72
21
-195.729
0
LINE
8
BLACK
6
CONTINUOUS
10
220.72
20
-195.729
11
220.791
21
-195.871
0
LINE
8
BLACK
6
CONTINUOUS
10
220.791
20
-195.871
11
220.791
21
-196.3
0
LINE
8
BLACK
6
CONTINUOUS
10
220.791
20
-196.3
11
220.72
21
-196.443
0
LINE
8
BLACK
6
CONTINUOUS
10
220.72
20
-196.443
11
220.649
21
-196.514
0
LINE
8
BLACK
6
CONTINUOUS
10
220.649
20
-196.514
11
220.506
21
-196.586
0
LINE
8
BLACK
6
CONTINUOUS
10
220.506
20
-196.586
11
220.22
21
-196.586
0
LINE
8
BLACK
6
CONTINUOUS
10
220.22
20
-196.586
11
220.077
21
-196.514
0
LINE
8
BLACK
6
CONTINUOUS
10
221.077
20
-194.677
11
222.434
21
-194.677
0
LINE
8
BLACK
6
CONTINUOUS
10
221.649
20
-196.586
11
221.506
21
-196.514
0
LINE
8
BLACK
6
CONTINUOUS
10
221.506
20
-196.514
11
221.434
21
-196.443
0
LINE
8
BLACK
6
CONTINUOUS
10
221.434
20
-196.443
11
221.363
21
-196.3
0
LINE
8
BLACK
6
CONTINUOUS
10
221.363
20
-196.3
11
221.363
21
-195.871
0
LINE
8
BLACK
6
CONTINUOUS
10
221.363
20
-195.871
11
221.434
21
-195.729
0
LINE
8
BLACK
6
CONTINUOUS
10
221.434
20
-195.729
11
221.506
21
-195.657
0
LINE
8
BLACK
6
CONTINUOUS
10
221.506
20
-195.657
11
221.649
21
-195.586
0
LINE
8
BLACK
6
CONTINUOUS
10
221.649
20
-195.586
11
221.863
21
-195.586
0
LINE
8
BLACK
6
CONTINUOUS
10
221.863
20
-195.586
11
222.006
21
-195.657
0
LINE
8
BLACK
6
CONTINUOUS
10
222.006
20
-195.657
11
222.077
21
-195.729
0
LINE
8
BLACK
6
CONTINUOUS
10
222.077
20
-195.729
11
222.149
21
-195.871
0
LINE
8
BLACK
6
CONTINUOUS
10
222.149
20
-195.871
11
222.149
21
-196.3
0
LINE
8
BLACK
6
CONTINUOUS
10
222.149
20
-196.3
11
222.077
21
-196.443
0
LINE
8
BLACK
6
CONTINUOUS
10
222.077
20
-196.443
11
222.006
21
-196.514
0
LINE
8
BLACK
6
CONTINUOUS
10
222.006
20
-196.514
11
221.863
21
-196.586
0
LINE
8
BLACK
6
CONTINUOUS
10
221.863
20
-196.586
11
221.649
21
-196.586
0
LINE
8
BLACK
6
CONTINUOUS
10
222.434
20
-194.677
11
223.863
21
-194.677
0
LINE
8
BLACK
6
CONTINUOUS
10
222.863
20
-196.586
11
223.149
21
-196.586
0
LINE
8
BLACK
6
CONTINUOUS
10
223.149
20
-196.586
11
223.291
21
-196.514
0
LINE
8
BLACK
6
CONTINUOUS
10
223.291
20
-196.514
11
223.363
21
-196.443
0
LINE
8
BLACK
6
CONTINUOUS
10
223.363
20
-196.443
11
223.506
21
-196.229
0
LINE
8
BLACK
6
CONTINUOUS
10
223.506
20
-196.229
11
223.577
21
-195.943
0
LINE
8
BLACK
6
CONTINUOUS
10
223.577
20
-195.943
11
223.577
21
-195.371
0
LINE
8
BLACK
6
CONTINUOUS
10
223.577
20
-195.371
11
223.506
21
-195.229
0
LINE
8
BLACK
6
CONTINUOUS
10
223.506
20
-195.229
11
223.434
21
-195.157
0
LINE
8
BLACK
6
CONTINUOUS
10
223.434
20
-195.157
11
223.291
21
-195.086
0
LINE
8
BLACK
6
CONTINUOUS
10
223.291
20
-195.086
11
223.006
21
-195.086
0
LINE
8
BLACK
6
CONTINUOUS
10
223.006
20
-195.086
11
222.863
21
-195.157
0
LINE
8
BLACK
6
CONTINUOUS
10
222.863
20
-195.157
11
222.791
21
-195.229
0
LINE
8
BLACK
6
CONTINUOUS
10
222.791
20
-195.229
11
222.72
21
-195.371
0
LINE
8
BLACK
6
CONTINUOUS
10
222.72
20
-195.371
11
222.72
21
-195.729
0
LINE
8
BLACK
6
CONTINUOUS
10
222.72
20
-195.729
11
222.791
21
-195.871
0
LINE
8
BLACK
6
CONTINUOUS
10
222.791
20
-195.871
11
222.863
21
-195.943
0
LINE
8
BLACK
6
CONTINUOUS
10
222.863
20
-195.943
11
223.006
21
-196.014
0
LINE
8
BLACK
6
CONTINUOUS
10
223.006
20
-196.014
11
223.291
21
-196.014
0
LINE
8
BLACK
6
CONTINUOUS
10
223.291
20
-196.014
11
223.434
21
-195.943
0
LINE
8
BLACK
6
CONTINUOUS
10
223.434
20
-195.943
11
223.506
21
-195.871
0
LINE
8
BLACK
6
CONTINUOUS
10
223.506
20
-195.871
11
223.577
21
-195.729
0
LINE
8
BLACK
6
CONTINUOUS
10
223.863
20
-194.677
11
225.72
21
-194.677
0
LINE
8
BLACK
6
CONTINUOUS
10
224.22
20
-196.014
11
225.363
21
-196.014
0
LINE
8
BLACK
6
CONTINUOUS
10
224.791
20
-196.586
11
224.791
21
-195.443
0
LINE
8
BLACK
6
CONTINUOUS
10
225.72
20
-194.677
11
227.149
21
-194.677
0
LINE
8
BLACK
6
CONTINUOUS
10
226.863
20
-196.586
11
226.006
21
-196.586
0
LINE
8
BLACK
6
CONTINUOUS
10
226.434
20
-196.586
11
226.434
21
-195.086
0
LINE
8
BLACK
6
CONTINUOUS
10
226.434
20
-195.086
11
226.291
21
-195.3
0
LINE
8
BLACK
6
CONTINUOUS
10
226.291
20
-195.3
11
226.149
21
-195.443
0
LINE
8
BLACK
6
CONTINUOUS
10
226.149
20
-195.443
11
226.006
21
-195.514
0
LINE
8
BLACK
6
CONTINUOUS
10
177.002
20
-191.507
11
285.002
21
-191.507
0
LINE
8
BLACK
6
CONTINUOUS
10
264.411
20
-193.786
11
263.911
21
-193.071
0
LINE
8
BLACK
6
CONTINUOUS
10
263.554
20
-193.786
11
263.554
21
-192.286
0
LINE
8
BLACK
6
CONTINUOUS
10
263.554
20
-192.286
11
264.126
21
-192.286
0
LINE
8
BLACK
6
CONTINUOUS
10
264.126
20
-192.286
11
264.269
21
-192.357
0
LINE
8
BLACK
6
CONTINUOUS
10
264.269
20
-192.357
11
264.34
21
-192.429
0
LINE
8
BLACK
6
CONTINUOUS
10
264.34
20
-192.429
11
264.411
21
-192.571
0
LINE
8
BLACK
6
CONTINUOUS
10
264.411
20
-192.571
11
264.411
21
-192.786
0
LINE
8
BLACK
6
CONTINUOUS
10
264.411
20
-192.786
11
264.34
21
-192.929
0
LINE
8
BLACK
6
CONTINUOUS
10
264.34
20
-192.929
11
264.269
21
-193
0
LINE
8
BLACK
6
CONTINUOUS
10
264.269
20
-193
11
264.126
21
-193.071
0
LINE
8
BLACK
6
CONTINUOUS
10
264.126
20
-193.071
11
263.554
21
-193.071
0
LINE
8
BLACK
6
CONTINUOUS
10
265.626
20
-193.714
11
265.483
21
-193.786
0
LINE
8
BLACK
6
CONTINUOUS
10
265.483
20
-193.786
11
265.197
21
-193.786
0
LINE
8
BLACK
6
CONTINUOUS
10
265.197
20
-193.786
11
265.054
21
-193.714
0
LINE
8
BLACK
6
CONTINUOUS
10
265.054
20
-193.714
11
264.983
21
-193.571
0
LINE
8
BLACK
6
CONTINUOUS
10
264.983
20
-193.571
11
264.983
21
-193
0
LINE
8
BLACK
6
CONTINUOUS
10
264.983
20
-193
11
265.054
21
-192.857
0
LINE
8
BLACK
6
CONTINUOUS
10
265.054
20
-192.857
11
265.197
21
-192.786
0
LINE
8
BLACK
6
CONTINUOUS
10
265.197
20
-192.786
11
265.483
21
-192.786
0
LINE
8
BLACK
6
CONTINUOUS
10
265.483
20
-192.786
11
265.626
21
-192.857
0
LINE
8
BLACK
6
CONTINUOUS
10
265.626
20
-192.857
11
265.697
21
-193
0
LINE
8
BLACK
6
CONTINUOUS
10
265.697
20
-193
11
265.697
21
-193.143
0
LINE
8
BLACK
6
CONTINUOUS
10
265.697
20
-193.143
11
264.983
21
-193.286
0
LINE
8
BLACK
6
CONTINUOUS
10
266.197
20
-192.786
11
266.554
21
-193.786
0
LINE
8
BLACK
6
CONTINUOUS
10
266.554
20
-193.786
11
266.911
21
-192.786
0
LINE
8
BLACK
6
CONTINUOUS
10
267.483
20
-193.643
11
267.554
21
-193.714
0
LINE
8
BLACK
6
CONTINUOUS
10
267.554
20
-193.714
11
267.483
21
-193.786
0
LINE
8
BLACK
6
CONTINUOUS
10
267.483
20
-193.786
11
267.411
21
-193.714
0
LINE
8
BLACK
6
CONTINUOUS
10
267.411
20
-193.714
11
267.483
21
-193.643
0
LINE
8
BLACK
6
CONTINUOUS
10
267.483
20
-193.643
11
267.483
21
-193.786
0
LINE
8
BLACK
6
CONTINUOUS
10
267.483
20
-192.857
11
267.554
21
-192.929
0
LINE
8
BLACK
6
CONTINUOUS
10
267.554
20
-192.929
11
267.483
21
-193
0
LINE
8
BLACK
6
CONTINUOUS
10
267.483
20
-193
11
267.411
21
-192.929
0
LINE
8
BLACK
6
CONTINUOUS
10
267.411
20
-192.929
11
267.483
21
-192.857
0
LINE
8
BLACK
6
CONTINUOUS
10
267.483
20
-192.857
11
267.483
21
-193
0
LINE
8
BLACK
6
CONTINUOUS
10
178.363
20
-193.714
11
178.577
21
-193.786
0
LINE
8
BLACK
6
CONTINUOUS
10
178.577
20
-193.786
11
178.934
21
-193.786
0
LINE
8
BLACK
6
CONTINUOUS
10
178.934
20
-193.786
11
179.077
21
-193.714
0
LINE
8
BLACK
6
CONTINUOUS
10
179.077
20
-193.714
11
179.149
21
-193.643
0
LINE
8
BLACK
6
CONTINUOUS
10
179.149
20
-193.643
11
179.22
21
-193.5
0
LINE
8
BLACK
6
CONTINUOUS
10
179.22
20
-193.5
11
179.22
21
-193.357
0
LINE
8
BLACK
6
CONTINUOUS
10
179.22
20
-193.357
11
179.149
21
-193.214
0
LINE
8
BLACK
6
CONTINUOUS
10
179.149
20
-193.214
11
179.077
21
-193.143
0
LINE
8
BLACK
6
CONTINUOUS
10
179.077
20
-193.143
11
178.934
21
-193.071
0
LINE
8
BLACK
6
CONTINUOUS
10
178.934
20
-193.071
11
178.649
21
-193
0
LINE
8
BLACK
6
CONTINUOUS
10
178.649
20
-193
11
178.506
21
-192.929
0
LINE
8
BLACK
6
CONTINUOUS
10
178.506
20
-192.929
11
178.434
21
-192.857
0
LINE
8
BLACK
6
CONTINUOUS
10
178.434
20
-192.857
11
178.363
21
-192.714
0
LINE
8
BLACK
6
CONTINUOUS
10
178.363
20
-192.714
11
178.363
21
-192.571
0
LINE
8
BLACK
6
CONTINUOUS
10
178.363
20
-192.571
11
178.434
21
-192.429
0
LINE
8
BLACK
6
CONTINUOUS
10
178.434
20
-192.429
11
178.506
21
-192.357
0
LINE
8
BLACK
6
CONTINUOUS
10
178.506
20
-192.357
11
178.649
21
-192.286
0
LINE
8
BLACK
6
CONTINUOUS
10
178.649
20
-192.286
11
179.006
21
-192.286
0
LINE
8
BLACK
6
CONTINUOUS
10
179.006
20
-192.286
11
179.22
21
-192.357
0
LINE
8
BLACK
6
CONTINUOUS
10
179.863
20
-193.786
11
179.863
21
-192.786
0
LINE
8
BLACK
6
CONTINUOUS
10
179.863
20
-192.286
11
179.791
21
-192.357
0
LINE
8
BLACK
6
CONTINUOUS
10
179.791
20
-192.357
11
179.863
21
-192.429
0
LINE
8
BLACK
6
CONTINUOUS
10
179.863
20
-192.429
11
179.934
21
-192.357
0
LINE
8
BLACK
6
CONTINUOUS
10
179.934
20
-192.357
11
179.863
21
-192.286
0
LINE
8
BLACK
6
CONTINUOUS
10
179.863
20
-192.286
11
179.863
21
-192.429
0
LINE
8
BLACK
6
CONTINUOUS
10
180.434
20
-192.786
11
181.22
21
-192.786
0
LINE
8
BLACK
6
CONTINUOUS
10
181.22
20
-192.786
11
180.434
21
-193.786
0
LINE
8
BLACK
6
CONTINUOUS
10
180.434
20
-193.786
11
181.22
21
-193.786
0
LINE
8
BLACK
6
CONTINUOUS
10
182.363
20
-193.714
11
182.22
21
-193.786
0
LINE
8
BLACK
6
CONTINUOUS
10
182.22
20
-193.786
11
181.934
21
-193.786
0
LINE
8
BLACK
6
CONTINUOUS
10
181.934
20
-193.786
11
181.791
21
-193.714
0
LINE
8
BLACK
6
CONTINUOUS
10
181.791
20
-193.714
11
181.72
21
-193.571
0
LINE
8
BLACK
6
CONTINUOUS
10
181.72
20
-193.571
11
181.72
21
-193
0
LINE
8
BLACK
6
CONTINUOUS
10
181.72
20
-193
11
181.791
21
-192.857
0
LINE
8
BLACK
6
CONTINUOUS
10
181.791
20
-192.857
11
181.934
21
-192.786
0
LINE
8
BLACK
6
CONTINUOUS
10
181.934
20
-192.786
11
182.22
21
-192.786
0
LINE
8
BLACK
6
CONTINUOUS
10
182.22
20
-192.786
11
182.363
21
-192.857
0
LINE
8
BLACK
6
CONTINUOUS
10
182.363
20
-192.857
11
182.434
21
-193
0
LINE
8
BLACK
6
CONTINUOUS
10
182.434
20
-193
11
182.434
21
-193.143
0
LINE
8
BLACK
6
CONTINUOUS
10
182.434
20
-193.143
11
181.72
21
-193.286
0
LINE
8
BLACK
6
CONTINUOUS
10
183.077
20
-193.643
11
183.149
21
-193.714
0
LINE
8
BLACK
6
CONTINUOUS
10
183.149
20
-193.714
11
183.077
21
-193.786
0
LINE
8
BLACK
6
CONTINUOUS
10
183.077
20
-193.786
11
183.006
21
-193.714
0
LINE
8
BLACK
6
CONTINUOUS
10
183.006
20
-193.714
11
183.077
21
-193.643
0
LINE
8
BLACK
6
CONTINUOUS
10
183.077
20
-193.643
11
183.077
21
-193.786
0
LINE
8
BLACK
6
CONTINUOUS
10
183.077
20
-192.857
11
183.149
21
-192.929
0
LINE
8
BLACK
6
CONTINUOUS
10
183.149
20
-192.929
11
183.077
21
-193
0
LINE
8
BLACK
6
CONTINUOUS
10
183.077
20
-193
11
183.006
21
-192.929
0
LINE
8
BLACK
6
CONTINUOUS
10
183.006
20
-192.929
11
183.077
21
-192.857
0
LINE
8
BLACK
6
CONTINUOUS
10
183.077
20
-192.857
11
183.077
21
-193
0
LINE
8
BLACK
6
CONTINUOUS
10
184.863
20
-193.357
11
185.577
21
-193.357
0
LINE
8
BLACK
6
CONTINUOUS
10
184.72
20
-193.786
11
185.22
21
-192.286
0
LINE
8
BLACK
6
CONTINUOUS
10
185.22
20
-192.286
11
185.72
21
-193.786
0
LINE
8
BLACK
6
CONTINUOUS
10
186.863
20
-192.786
11
186.863
21
-193.786
0
LINE
8
BLACK
6
CONTINUOUS
10
186.506
20
-192.214
11
186.149
21
-193.286
0
LINE
8
BLACK
6
CONTINUOUS
10
186.149
20
-193.286
11
187.077
21
-193.286
0
LINE
8
BLACK
6
CONTINUOUS
10
263.434
20
-196.586
11
263.434
21
-195.086
0
LINE
8
BLACK
6
CONTINUOUS
10
264.791
20
-196.586
11
264.791
21
-195.086
0
LINE
8
BLACK
6
CONTINUOUS
10
264.791
20
-196.514
11
264.649
21
-196.586
0
LINE
8
BLACK
6
CONTINUOUS
10
264.649
20
-196.586
11
264.363
21
-196.586
0
LINE
8
BLACK
6
CONTINUOUS
10
264.363
20
-196.586
11
264.22
21
-196.514
0
LINE
8
BLACK
6
CONTINUOUS
10
264.22
20
-196.514
11
264.149
21
-196.443
0
LINE
8
BLACK
6
CONTINUOUS
10
264.149
20
-196.443
11
264.077
21
-196.3
0
LINE
8
BLACK
6
CONTINUOUS
10
264.077
20
-196.3
11
264.077
21
-195.871
0
LINE
8
BLACK
6
CONTINUOUS
10
264.077
20
-195.871
11
264.149
21
-195.729
0
LINE
8
BLACK
6
CONTINUOUS
10
264.149
20
-195.729
11
264.22
21
-195.657
0
LINE
8
BLACK
6
CONTINUOUS
10
264.22
20
-195.657
11
264.363
21
-195.586
0
LINE
8
BLACK
6
CONTINUOUS
10
264.363
20
-195.586
11
264.649
21
-195.586
0
LINE
8
BLACK
6
CONTINUOUS
10
264.649
20
-195.586
11
264.791
21
-195.657
0
LINE
8
BLACK
6
CONTINUOUS
10
265.506
20
-196.443
11
265.577
21
-196.514
0
LINE
8
BLACK
6
CONTINUOUS
10
265.577
20
-196.514
11
265.506
21
-196.586
0
LINE
8
BLACK
6
CONTINUOUS
10
265.506
20
-196.586
11
265.434
21
-196.514
0
LINE
8
BLACK
6
CONTINUOUS
10
265.434
20
-196.514
11
265.506
21
-196.443
0
LINE
8
BLACK
6
CONTINUOUS
10
265.506
20
-196.443
11
265.506
21
-196.586
0
LINE
8
BLACK
6
CONTINUOUS
10
265.506
20
-195.657
11
265.577
21
-195.729
0
LINE
8
BLACK
6
CONTINUOUS
10
265.577
20
-195.729
11
265.506
21
-195.8
0
LINE
8
BLACK
6
CONTINUOUS
10
265.506
20
-195.8
11
265.434
21
-195.729
0
LINE
8
BLACK
6
CONTINUOUS
10
265.434
20
-195.729
11
265.506
21
-195.657
0
LINE
8
BLACK
6
CONTINUOUS
10
265.506
20
-195.657
11
265.506
21
-195.8
0
LINE
8
BLACK
6
CONTINUOUS
10
268.149
20
-196.586
11
267.291
21
-196.586
0
LINE
8
BLACK
6
CONTINUOUS
10
267.72
20
-196.586
11
267.72
21
-195.086
0
LINE
8
BLACK
6
CONTINUOUS
10
267.72
20
-195.086
11
267.577
21
-195.3
0
LINE
8
BLACK
6
CONTINUOUS
10
267.577
20
-195.3
11
267.434
21
-195.443
0
LINE
8
BLACK
6
CONTINUOUS
10
267.434
20
-195.443
11
267.291
21
-195.514
0
LINE
8
BLACK
6
CONTINUOUS
10
269.863
20
-195.014
11
268.577
21
-196.943
0
LINE
8
BLACK
6
CONTINUOUS
10
271.149
20
-196.586
11
270.291
21
-196.586
0
LINE
8
BLACK
6
CONTINUOUS
10
270.72
20
-196.586
11
270.72
21
-195.086
0
LINE
8
BLACK
6
CONTINUOUS
10
270.72
20
-195.086
11
270.577
21
-195.3
0
LINE
8
BLACK
6
CONTINUOUS
10
270.577
20
-195.3
11
270.434
21
-195.443
0
LINE
8
BLACK
6
CONTINUOUS
10
270.434
20
-195.443
11
270.291
21
-195.514
0
LINE
8
BLACK
6
CONTINUOUS
10
177.002
20
-187.507
11
285.002
21
-187.507
0
LINE
8
BLACK
6
CONTINUOUS
10
178.715
20
-188.212
11
179.857
21
-188.212
0
LINE
8
BLACK
6
CONTINUOUS
10
179.036
20
-190.212
11
179.286
21
-188.212
0
LINE
8
BLACK
6
CONTINUOUS
10
180.274
20
-190.212
11
180.441
21
-188.879
0
LINE
8
BLACK
6
CONTINUOUS
10
180.524
20
-188.212
11
180.417
21
-188.307
0
LINE
8
BLACK
6
CONTINUOUS
10
180.417
20
-188.307
11
180.5
21
-188.402
0
LINE
8
BLACK
6
CONTINUOUS
10
180.5
20
-188.402
11
180.607
21
-188.307
0
LINE
8
BLACK
6
CONTINUOUS
10
180.607
20
-188.307
11
180.524
21
-188.212
0
LINE
8
BLACK
6
CONTINUOUS
10
180.524
20
-188.212
11
180.5
21
-188.402
0
LINE
8
BLACK
6
CONTINUOUS
10
181.107
20
-188.879
11
181.869
21
-188.879
0
LINE
8
BLACK
6
CONTINUOUS
10
181.476
20
-188.212
11
181.262
21
-189.926
0
LINE
8
BLACK
6
CONTINUOUS
10
181.262
20
-189.926
11
181.334
21
-190.117
0
LINE
8
BLACK
6
CONTINUOUS
10
181.334
20
-190.117
11
181.512
21
-190.212
0
LINE
8
BLACK
6
CONTINUOUS
10
181.512
20
-190.212
11
181.703
21
-190.212
0
LINE
8
BLACK
6
CONTINUOUS
10
182.655
20
-190.212
11
182.476
21
-190.117
0
LINE
8
BLACK
6
CONTINUOUS
10
182.476
20
-190.117
11
182.405
21
-189.926
0
LINE
8
BLACK
6
CONTINUOUS
10
182.405
20
-189.926
11
182.619
21
-188.212
0
LINE
8
BLACK
6
CONTINUOUS
10
184.191
20
-190.117
11
183.988
21
-190.212
0
LINE
8
BLACK
6
CONTINUOUS
10
183.988
20
-190.212
11
183.607
21
-190.212
0
LINE
8
BLACK
6
CONTINUOUS
10
183.607
20
-190.212
11
183.429
21
-190.117
0
LINE
8
BLACK
6
CONTINUOUS
10
183.429
20
-190.117
11
183.357
21
-189.926
0
LINE
8
BLACK
6
CONTINUOUS
10
183.357
20
-189.926
11
183.453
21
-189.164
0
LINE
8
BLACK
6
CONTINUOUS
10
183.453
20
-189.164
11
183.572
21
-188.974
0
LINE
8
BLACK
6
CONTINUOUS
10
183.572
20
-188.974
11
183.774
21
-188.879
0
LINE
8
BLACK
6
CONTINUOUS
10
183.774
20
-188.879
11
184.155
21
-188.879
0
LINE
8
BLACK
6
CONTINUOUS
10
184.155
20
-188.879
11
184.334
21
-188.974
0
LINE
8
BLACK
6
CONTINUOUS
10
184.334
20
-188.974
11
184.405
21
-189.164
0
LINE
8
BLACK
6
CONTINUOUS
10
184.405
20
-189.164
11
184.381
21
-189.355
0
LINE
8
BLACK
6
CONTINUOUS
10
184.381
20
-189.355
11
183.405
21
-189.545
0
LINE
8
BLACK
6
CONTINUOUS
10
185.155
20
-190.021
11
185.238
21
-190.117
0
LINE
8
BLACK
6
CONTINUOUS
10
185.238
20
-190.117
11
185.131
21
-190.212
0
LINE
8
BLACK
6
CONTINUOUS
10
185.131
20
-190.212
11
185.048
21
-190.117
0
LINE
8
BLACK
6
CONTINUOUS
10
185.048
20
-190.117
11
185.155
21
-190.021
0
LINE
8
BLACK
6
CONTINUOUS
10
185.155
20
-190.021
11
185.131
21
-190.212
0
LINE
8
BLACK
6
CONTINUOUS
10
185.286
20
-188.974
11
185.369
21
-189.069
0
LINE
8
BLACK
6
CONTINUOUS
10
185.369
20
-189.069
11
185.262
21
-189.164
0
LINE
8
BLACK
6
CONTINUOUS
10
185.262
20
-189.164
11
185.179
21
-189.069
0
LINE
8
BLACK
6
CONTINUOUS
10
185.179
20
-189.069
11
185.286
21
-188.974
0
LINE
8
BLACK
6
CONTINUOUS
10
185.286
20
-188.974
11
185.262
21
-189.164
0
LINE
8
BLACK
6
CONTINUOUS
10
178.934
20
-185.6
11
178.434
21
-185.6
0
LINE
8
BLACK
6
CONTINUOUS
10
178.434
20
-186.386
11
178.434
21
-184.886
0
LINE
8
BLACK
6
CONTINUOUS
10
178.434
20
-184.886
11
179.149
21
-184.886
0
LINE
8
BLACK
6
CONTINUOUS
10
179.72
20
-186.386
11
179.72
21
-185.386
0
LINE
8
BLACK
6
CONTINUOUS
10
179.72
20
-184.886
11
179.649
21
-184.957
0
LINE
8
BLACK
6
CONTINUOUS
10
179.649
20
-184.957
11
179.72
21
-185.029
0
LINE
8
BLACK
6
CONTINUOUS
10
179.72
20
-185.029
11
179.791
21
-184.957
0
LINE
8
BLACK
6
CONTINUOUS
10
179.791
20
-184.957
11
179.72
21
-184.886
0
LINE
8
BLACK
6
CONTINUOUS
10
179.72
20
-184.886
11
179.72
21
-185.029
0
LINE
8
BLACK
6
CONTINUOUS
10
180.649
20
-186.386
11
180.506
21
-186.314
0
LINE
8
BLACK
6
CONTINUOUS
10
180.506
20
-186.314
11
180.434
21
-186.171
0
LINE
8
BLACK
6
CONTINUOUS
10
180.434
20
-186.171
11
180.434
21
-184.886
0
LINE
8
BLACK
6
CONTINUOUS
10
181.791
20
-186.314
11
181.649
21
-186.386
0
LINE
8
BLACK
6
CONTINUOUS
10
181.649
20
-186.386
11
181.363
21
-186.386
0
LINE
8
BLACK
6
CONTINUOUS
10
181.363
20
-186.386
11
181.22
21
-186.314
0
LINE
8
BLACK
6
CONTINUOUS
10
181.22
20
-186.314
11
181.149
21
-186.171
0
LINE
8
BLACK
6
CONTINUOUS
10
181.149
20
-186.171
11
181.149
21
-185.6
0
LINE
8
BLACK
6
CONTINUOUS
10
181.149
20
-185.6
11
181.22
21
-185.457
0
LINE
8
BLACK
6
CONTINUOUS
10
181.22
20
-185.457
11
181.363
21
-185.386
0
LINE
8
BLACK
6
CONTINUOUS
10
181.363
20
-185.386
11
181.649
21
-185.386
0
LINE
8
BLACK
6
CONTINUOUS
10
181.649
20
-185.386
11
181.791
21
-185.457
0
LINE
8
BLACK
6
CONTINUOUS
10
181.791
20
-185.457
11
181.863
21
-185.6
0
LINE
8
BLACK
6
CONTINUOUS
10
181.863
20
-185.6
11
181.863
21
-185.743
0
LINE
8
BLACK
6
CONTINUOUS
10
181.863
20
-185.743
11
181.149
21
-185.886
0
LINE
8
BLACK
6
CONTINUOUS
10
182.506
20
-186.243
11
182.577
21
-186.314
0
LINE
8
BLACK
6
CONTINUOUS
10
182.577
20
-186.314
11
182.506
21
-186.386
0
LINE
8
BLACK
6
CONTINUOUS
10
182.506
20
-186.386
11
182.434
21
-186.314
0
LINE
8
BLACK
6
CONTINUOUS
10
182.434
20
-186.314
11
182.506
21
-186.243
0
LINE
8
BLACK
6
CONTINUOUS
10
182.506
20
-186.243
11
182.506
21
-186.386
0
LINE
8
BLACK
6
CONTINUOUS
10
182.506
20
-185.457
11
182.577
21
-185.529
0
LINE
8
BLACK
6
CONTINUOUS
10
182.577
20
-185.529
11
182.506
21
-185.6
0
LINE
8
BLACK
6
CONTINUOUS
10
182.506
20
-185.6
11
182.434
21
-185.529
0
LINE
8
BLACK
6
CONTINUOUS
10
182.434
20
-185.529
11
182.506
21
-185.457
0
LINE
8
BLACK
6
CONTINUOUS
10
182.506
20
-185.457
11
182.506
21
-185.6
0
LINE
8
BLACK
6
CONTINUOUS
10
184.363
20
-186.386
11
184.363
21
-185.386
0
LINE
8
BLACK
6
CONTINUOUS
10
184.363
20
-184.886
11
184.291
21
-184.957
0
LINE
8
BLACK
6
CONTINUOUS
10
184.291
20
-184.957
11
184.363
21
-185.029
0
LINE
8
BLACK
6
CONTINUOUS
10
184.363
20
-185.029
11
184.434
21
-184.957
0
LINE
8
BLACK
6
CONTINUOUS
10
184.434
20
-184.957
11
184.363
21
-184.886
0
LINE
8
BLACK
6
CONTINUOUS
10
184.363
20
-184.886
11
184.363
21
-185.029
0
LINE
8
BLACK
6
CONTINUOUS
10
185.72
20
-186.386
11
185.72
21
-185.6
0
LINE
8
BLACK
6
CONTINUOUS
10
185.72
20
-185.6
11
185.649
21
-185.457
0
LINE
8
BLACK
6
CONTINUOUS
10
185.649
20
-185.457
11
185.506
21
-185.386
0
LINE
8
BLACK
6
CONTINUOUS
10
185.506
20
-185.386
11
185.22
21
-185.386
0
LINE
8
BLACK
6
CONTINUOUS
10
185.22
20
-185.386
11
185.077
21
-185.457
0
LINE
8
BLACK
6
CONTINUOUS
10
185.72
20
-186.314
11
185.577
21
-186.386
0
LINE
8
BLACK
6
CONTINUOUS
10
185.577
20
-186.386
11
185.22
21
-186.386
0
LINE
8
BLACK
6
CONTINUOUS
10
185.22
20
-186.386
11
185.077
21
-186.314
0
LINE
8
BLACK
6
CONTINUOUS
10
185.077
20
-186.314
11
185.006
21
-186.171
0
LINE
8
BLACK
6
CONTINUOUS
10
185.006
20
-186.171
11
185.006
21
-186.029
0
LINE
8
BLACK
6
CONTINUOUS
10
185.006
20
-186.029
11
185.077
21
-185.886
0
LINE
8
BLACK
6
CONTINUOUS
10
185.077
20
-185.886
11
185.22
21
-185.814
0
LINE
8
BLACK
6
CONTINUOUS
10
185.22
20
-185.814
11
185.577
21
-185.814
0
LINE
8
BLACK
6
CONTINUOUS
10
185.577
20
-185.814
11
185.72
21
-185.743
0
LINE
8
BLACK
6
CONTINUOUS
10
186.434
20
-186.386
11
186.434
21
-185.386
0
LINE
8
BLACK
6
CONTINUOUS
10
186.434
20
-184.886
11
186.363
21
-184.957
0
LINE
8
BLACK
6
CONTINUOUS
10
186.363
20
-184.957
11
186.434
21
-185.029
0
LINE
8
BLACK
6
CONTINUOUS
10
186.434
20
-185.029
11
186.506
21
-184.957
0
LINE
8
BLACK
6
CONTINUOUS
10
186.506
20
-184.957
11
186.434
21
-184.886
0
LINE
8
BLACK
6
CONTINUOUS
10
186.434
20
-184.886
11
186.434
21
-185.029
0
LINE
8
BLACK
6
CONTINUOUS
10
187.149
20
-186.243
11
187.22
21
-186.314
0
LINE
8
BLACK
6
CONTINUOUS
10
187.22
20
-186.314
11
187.149
21
-186.386
0
LINE
8
BLACK
6
CONTINUOUS
10
187.149
20
-186.386
11
187.077
21
-186.314
0
LINE
8
BLACK
6
CONTINUOUS
10
187.077
20
-186.314
11
187.149
21
-186.243
0
LINE
8
BLACK
6
CONTINUOUS
10
187.149
20
-186.243
11
187.149
21
-186.386
0
LINE
8
BLACK
6
CONTINUOUS
10
187.863
20
-186.386
11
187.863
21
-184.886
0
LINE
8
BLACK
6
CONTINUOUS
10
188.006
20
-185.814
11
188.434
21
-186.386
0
LINE
8
BLACK
6
CONTINUOUS
10
188.434
20
-185.386
11
187.863
21
-185.957
0
LINE
8
BLACK
6
CONTINUOUS
10
189.077
20
-186.386
11
189.077
21
-185.386
0
LINE
8
BLACK
6
CONTINUOUS
10
189.077
20
-184.886
11
189.006
21
-184.957
0
LINE
8
BLACK
6
CONTINUOUS
10
189.006
20
-184.957
11
189.077
21
-185.029
0
LINE
8
BLACK
6
CONTINUOUS
10
189.077
20
-185.029
11
189.149
21
-184.957
0
LINE
8
BLACK
6
CONTINUOUS
10
189.149
20
-184.957
11
189.077
21
-184.886
0
LINE
8
BLACK
6
CONTINUOUS
10
189.077
20
-184.886
11
189.077
21
-185.029
0
LINE
8
BLACK
6
CONTINUOUS
10
190.434
20
-186.314
11
190.291
21
-186.386
0
LINE
8
BLACK
6
CONTINUOUS
10
190.291
20
-186.386
11
190.006
21
-186.386
0
LINE
8
BLACK
6
CONTINUOUS
10
190.006
20
-186.386
11
189.863
21
-186.314
0
LINE
8
BLACK
6
CONTINUOUS
10
189.863
20
-186.314
11
189.791
21
-186.243
0
LINE
8
BLACK
6
CONTINUOUS
10
189.791
20
-186.243
11
189.72
21
-186.1
0
LINE
8
BLACK
6
CONTINUOUS
10
189.72
20
-186.1
11
189.72
21
-185.671
0
LINE
8
BLACK
6
CONTINUOUS
10
189.72
20
-185.671
11
189.791
21
-185.529
0
LINE
8
BLACK
6
CONTINUOUS
10
189.791
20
-185.529
11
189.863
21
-185.457
0
LINE
8
BLACK
6
CONTINUOUS
10
189.863
20
-185.457
11
190.006
21
-185.386
0
LINE
8
BLACK
6
CONTINUOUS
10
190.006
20
-185.386
11
190.291
21
-185.386
0
LINE
8
BLACK
6
CONTINUOUS
10
190.291
20
-185.386
11
190.434
21
-185.457
0
LINE
8
BLACK
6
CONTINUOUS
10
191.72
20
-186.386
11
191.72
21
-185.6
0
LINE
8
BLACK
6
CONTINUOUS
10
191.72
20
-185.6
11
191.649
21
-185.457
0
LINE
8
BLACK
6
CONTINUOUS
10
191.649
20
-185.457
11
191.506
21
-185.386
0
LINE
8
BLACK
6
CONTINUOUS
10
191.506
20
-185.386
11
191.22
21
-185.386
0
LINE
8
BLACK
6
CONTINUOUS
10
191.22
20
-185.386
11
191.077
21
-185.457
0
LINE
8
BLACK
6
CONTINUOUS
10
191.72
20
-186.314
11
191.577
21
-186.386
0
LINE
8
BLACK
6
CONTINUOUS
10
191.577
20
-186.386
11
191.22
21
-186.386
0
LINE
8
BLACK
6
CONTINUOUS
10
191.22
20
-186.386
11
191.077
21
-186.314
0
LINE
8
BLACK
6
CONTINUOUS
10
191.077
20
-186.314
11
191.006
21
-186.171
0
LINE
8
BLACK
6
CONTINUOUS
10
191.006
20
-186.171
11
191.006
21
-186.029
0
LINE
8
BLACK
6
CONTINUOUS
10
191.006
20
-186.029
11
191.077
21
-185.886
0
LINE
8
BLACK
6
CONTINUOUS
10
191.077
20
-185.886
11
191.22
21
-185.814
0
LINE
8
BLACK
6
CONTINUOUS
10
191.22
20
-185.814
11
191.577
21
-185.814
0
LINE
8
BLACK
6
CONTINUOUS
10
191.577
20
-185.814
11
191.72
21
-185.743
0
LINE
8
BLACK
6
CONTINUOUS
10
193.077
20
-186.386
11
193.077
21
-184.886
0
LINE
8
BLACK
6
CONTINUOUS
10
193.077
20
-186.314
11
192.934
21
-186.386
0
LINE
8
BLACK
6
CONTINUOUS
10
192.934
20
-186.386
11
192.649
21
-186.386
0
LINE
8
BLACK
6
CONTINUOUS
10
192.649
20
-186.386
11
192.506
21
-186.314
0
LINE
8
BLACK
6
CONTINUOUS
10
192.506
20
-186.314
11
192.434
21
-186.243
0
LINE
8
BLACK
6
CONTINUOUS
10
192.434
20
-186.243
11
192.363
21
-186.1
0
LINE
8
BLACK
6
CONTINUOUS
10
192.363
20
-186.1
11
192.363
21
-185.671
0
LINE
8
BLACK
6
CONTINUOUS
10
192.363
20
-185.671
11
192.434
21
-185.529
0
LINE
8
BLACK
6
CONTINUOUS
10
192.434
20
-185.529
11
192.506
21
-185.457
0
LINE
8
BLACK
6
CONTINUOUS
10
192.506
20
-185.457
11
192.649
21
-185.386
0
LINE
8
BLACK
6
CONTINUOUS
10
192.649
20
-185.386
11
192.934
21
-185.386
0
LINE
8
BLACK
6
CONTINUOUS
10
192.934
20
-185.386
11
193.077
21
-185.457
0
LINE
8
BLACK
6
CONTINUOUS
10
193.434
20
-186.529
11
194.577
21
-186.529
0
LINE
8
BLACK
6
CONTINUOUS
10
194.934
20
-185.386
11
194.934
21
-186.886
0
LINE
8
BLACK
6
CONTINUOUS
10
194.934
20
-185.457
11
195.077
21
-185.386
0
LINE
8
BLACK
6
CONTINUOUS
10
195.077
20
-185.386
11
195.363
21
-185.386
0
LINE
8
BLACK
6
CONTINUOUS
10
195.363
20
-185.386
11
195.506
21
-185.457
0
LINE
8
BLACK
6
CONTINUOUS
10
195.506
20
-185.457
11
195.577
21
-185.529
0
LINE
8
BLACK
6
CONTINUOUS
10
195.577
20
-185.529
11
195.649
21
-185.671
0
LINE
8
BLACK
6
CONTINUOUS
10
195.649
20
-185.671
11
195.649
21
-186.1
0
LINE
8
BLACK
6
CONTINUOUS
10
195.649
20
-186.1
11
195.577
21
-186.243
0
LINE
8
BLACK
6
CONTINUOUS
10
195.577
20
-186.243
11
195.506
21
-186.314
0
LINE
8
BLACK
6
CONTINUOUS
10
195.506
20
-186.314
11
195.363
21
-186.386
0
LINE
8
BLACK
6
CONTINUOUS
10
195.363
20
-186.386
11
195.077
21
-186.386
0
LINE
8
BLACK
6
CONTINUOUS
10
195.077
20
-186.386
11
194.934
21
-186.314
0
LINE
8
BLACK
6
CONTINUOUS
10
196.934
20
-186.314
11
196.791
21
-186.386
0
LINE
8
BLACK
6
CONTINUOUS
10
196.791
20
-186.386
11
196.506
21
-186.386
0
LINE
8
BLACK
6
CONTINUOUS
10
196.506
20
-186.386
11
196.363
21
-186.314
0
LINE
8
BLACK
6
CONTINUOUS
10
196.363
20
-186.314
11
196.291
21
-186.243
0
LINE
8
BLACK
6
CONTINUOUS
10
196.291
20
-186.243
11
196.22
21
-186.1
0
LINE
8
BLACK
6
CONTINUOUS
10
196.22
20
-186.1
11
196.22
21
-185.671
0
LINE
8
BLACK
6
CONTINUOUS
10
196.22
20
-185.671
11
196.291
21
-185.529
0
LINE
8
BLACK
6
CONTINUOUS
10
196.291
20
-185.529
11
196.363
21
-185.457
0
LINE
8
BLACK
6
CONTINUOUS
10
196.363
20
-185.457
11
196.506
21
-185.386
0
LINE
8
BLACK
6
CONTINUOUS
10
196.506
20
-185.386
11
196.791
21
-185.386
0
LINE
8
BLACK
6
CONTINUOUS
10
196.791
20
-185.386
11
196.934
21
-185.457
0
LINE
8
BLACK
6
CONTINUOUS
10
197.577
20
-186.386
11
197.577
21
-184.886
0
LINE
8
BLACK
6
CONTINUOUS
10
197.577
20
-185.457
11
197.72
21
-185.386
0
LINE
8
BLACK
6
CONTINUOUS
10
197.72
20
-185.386
11
198.006
21
-185.386
0
LINE
8
BLACK
6
CONTINUOUS
10
198.006
20
-185.386
11
198.149
21
-185.457
0
LINE
8
BLACK
6
CONTINUOUS
10
198.149
20
-185.457
11
198.22
21
-185.529
0
LINE
8
BLACK
6
CONTINUOUS
10
198.22
20
-185.529
11
198.291
21
-185.671
0
LINE
8
BLACK
6
CONTINUOUS
10
198.291
20
-185.671
11
198.291
21
-186.1
0
LINE
8
BLACK
6
CONTINUOUS
10
198.291
20
-186.1
11
198.22
21
-186.243
0
LINE
8
BLACK
6
CONTINUOUS
10
198.22
20
-186.243
11
198.149
21
-186.314
0
LINE
8
BLACK
6
CONTINUOUS
10
198.149
20
-186.314
11
198.006
21
-186.386
0
LINE
8
BLACK
6
CONTINUOUS
10
198.006
20
-186.386
11
197.72
21
-186.386
0
LINE
8
BLACK
6
CONTINUOUS
10
197.72
20
-186.386
11
197.577
21
-186.314
0
LINE
8
BLACK
6
CONTINUOUS
10
177.002
20
-181.507
11
285.002
21
-181.507
0
LINE
8
BLACK
6
CONTINUOUS
10
178.363
20
-183.614
11
178.577
21
-183.686
0
LINE
8
BLACK
6
CONTINUOUS
10
178.577
20
-183.686
11
178.934
21
-183.686
0
LINE
8
BLACK
6
CONTINUOUS
10
178.934
20
-183.686
11
179.077
21
-183.614
0
LINE
8
BLACK
6
CONTINUOUS
10
179.077
20
-183.614
11
179.149
21
-183.543
0
LINE
8
BLACK
6
CONTINUOUS
10
179.149
20
-183.543
11
179.22
21
-183.4
0
LINE
8
BLACK
6
CONTINUOUS
10
179.22
20
-183.4
11
179.22
21
-183.257
0
LINE
8
BLACK
6
CONTINUOUS
10
179.22
20
-183.257
11
179.149
21
-183.114
0
LINE
8
BLACK
6
CONTINUOUS
10
179.149
20
-183.114
11
179.077
21
-183.043
0
LINE
8
BLACK
6
CONTINUOUS
10
179.077
20
-183.043
11
178.934
21
-182.971
0
LINE
8
BLACK
6
CONTINUOUS
10
178.934
20
-182.971
11
178.649
21
-182.9
0
LINE
8
BLACK
6
CONTINUOUS
10
178.649
20
-182.9
11
178.506
21
-182.829
0
LINE
8
BLACK
6
CONTINUOUS
10
178.506
20
-182.829
11
178.434
21
-182.757
0
LINE
8
BLACK
6
CONTINUOUS
10
178.434
20
-182.757
11
178.363
21
-182.614
0
LINE
8
BLACK
6
CONTINUOUS
10
178.363
20
-182.614
11
178.363
21
-182.471
0
LINE
8
BLACK
6
CONTINUOUS
10
178.363
20
-182.471
11
178.434
21
-182.329
0
LINE
8
BLACK
6
CONTINUOUS
10
178.434
20
-182.329
11
178.506
21
-182.257
0
LINE
8
BLACK
6
CONTINUOUS
10
178.506
20
-182.257
11
178.649
21
-182.186
0
LINE
8
BLACK
6
CONTINUOUS
10
178.649
20
-182.186
11
179.006
21
-182.186
0
LINE
8
BLACK
6
CONTINUOUS
10
179.006
20
-182.186
11
179.22
21
-182.257
0
LINE
8
BLACK
6
CONTINUOUS
10
179.863
20
-183.686
11
179.863
21
-182.186
0
LINE
8
BLACK
6
CONTINUOUS
10
180.506
20
-183.686
11
180.506
21
-182.9
0
LINE
8
BLACK
6
CONTINUOUS
10
180.506
20
-182.9
11
180.434
21
-182.757
0
LINE
8
BLACK
6
CONTINUOUS
10
180.434
20
-182.757
11
180.291
21
-182.686
0
LINE
8
BLACK
6
CONTINUOUS
10
180.291
20
-182.686
11
180.077
21
-182.686
0
LINE
8
BLACK
6
CONTINUOUS
10
180.077
20
-182.686
11
179.934
21
-182.757
0
LINE
8
BLACK
6
CONTINUOUS
10
179.934
20
-182.757
11
179.863
21
-182.829
0
LINE
8
BLACK
6
CONTINUOUS
10
181.791
20
-183.614
11
181.649
21
-183.686
0
LINE
8
BLACK
6
CONTINUOUS
10
181.649
20
-183.686
11
181.363
21
-183.686
0
LINE
8
BLACK
6
CONTINUOUS
10
181.363
20
-183.686
11
181.22
21
-183.614
0
LINE
8
BLACK
6
CONTINUOUS
10
181.22
20
-183.614
11
181.149
21
-183.471
0
LINE
8
BLACK
6
CONTINUOUS
10
181.149
20
-183.471
11
181.149
21
-182.9
0
LINE
8
BLACK
6
CONTINUOUS
10
181.149
20
-182.9
11
181.22
21
-182.757
0
LINE
8
BLACK
6
CONTINUOUS
10
181.22
20
-182.757
11
181.363
21
-182.686
0
LINE
8
BLACK
6
CONTINUOUS
10
181.363
20
-182.686
11
181.649
21
-182.686
0
LINE
8
BLACK
6
CONTINUOUS
10
181.649
20
-182.686
11
181.791
21
-182.757
0
LINE
8
BLACK
6
CONTINUOUS
10
181.791
20
-182.757
11
181.863
21
-182.9
0
LINE
8
BLACK
6
CONTINUOUS
10
181.863
20
-182.9
11
181.863
21
-183.043
0
LINE
8
BLACK
6
CONTINUOUS
10
181.863
20
-183.043
11
181.149
21
-183.186
0
LINE
8
BLACK
6
CONTINUOUS
10
183.077
20
-183.614
11
182.934
21
-183.686
0
LINE
8
BLACK
6
CONTINUOUS
10
182.934
20
-183.686
11
182.649
21
-183.686
0
LINE
8
BLACK
6
CONTINUOUS
10
182.649
20
-183.686
11
182.506
21
-183.614
0
LINE
8
BLACK
6
CONTINUOUS
10
182.506
20
-183.614
11
182.434
21
-183.471
0
LINE
8
BLACK
6
CONTINUOUS
10
182.434
20
-183.471
11
182.434
21
-182.9
0
LINE
8
BLACK
6
CONTINUOUS
10
182.434
20
-182.9
11
182.506
21
-182.757
0
LINE
8
BLACK
6
CONTINUOUS
10
182.506
20
-182.757
11
182.649
21
-182.686
0
LINE
8
BLACK
6
CONTINUOUS
10
182.649
20
-182.686
11
182.934
21
-182.686
0
LINE
8
BLACK
6
CONTINUOUS
10
182.934
20
-182.686
11
183.077
21
-182.757
0
LINE
8
BLACK
6
CONTINUOUS
10
183.077
20
-182.757
11
183.149
21
-182.9
0
LINE
8
BLACK
6
CONTINUOUS
10
183.149
20
-182.9
11
183.149
21
-183.043
0
LINE
8
BLACK
6
CONTINUOUS
10
183.149
20
-183.043
11
182.434
21
-183.186
0
LINE
8
BLACK
6
CONTINUOUS
10
183.577
20
-182.686
11
184.149
21
-182.686
0
LINE
8
BLACK
6
CONTINUOUS
10
183.791
20
-182.186
11
183.791
21
-183.471
0
LINE
8
BLACK
6
CONTINUOUS
10
183.791
20
-183.471
11
183.863
21
-183.614
0
LINE
8
BLACK
6
CONTINUOUS
10
183.863
20
-183.614
11
184.006
21
-183.686
0
LINE
8
BLACK
6
CONTINUOUS
10
184.006
20
-183.686
11
184.149
21
-183.686
0
LINE
8
BLACK
6
CONTINUOUS
10
184.649
20
-183.543
11
184.72
21
-183.614
0
LINE
8
BLACK
6
CONTINUOUS
10
184.72
20
-183.614
11
184.649
21
-183.686
0
LINE
8
BLACK
6
CONTINUOUS
10
184.649
20
-183.686
11
184.577
21
-183.614
0
LINE
8
BLACK
6
CONTINUOUS
10
184.577
20
-183.614
11
184.649
21
-183.543
0
LINE
8
BLACK
6
CONTINUOUS
10
184.649
20
-183.543
11
184.649
21
-183.686
0
LINE
8
BLACK
6
CONTINUOUS
10
184.649
20
-182.757
11
184.72
21
-182.829
0
LINE
8
BLACK
6
CONTINUOUS
10
184.72
20
-182.829
11
184.649
21
-182.9
0
LINE
8
BLACK
6
CONTINUOUS
10
184.649
20
-182.9
11
184.577
21
-182.829
0
LINE
8
BLACK
6
CONTINUOUS
10
184.577
20
-182.829
11
184.649
21
-182.757
0
LINE
8
BLACK
6
CONTINUOUS
10
184.649
20
-182.757
11
184.649
21
-182.9
0
LINE
8
BLACK
6
CONTINUOUS
10
197.002
20
-191.507
11
197.002
21
-194.507
0
LINE
8
BLACK
6
CONTINUOUS
10
261.002
20
-191.507
11
261.002
21
-198.007
0
LINE
8
BLACK
6
CONTINUOUS
10
220.987
20
-59.615
11
220.993
21
-59.615
0
LINE
8
BLACK
6
CONTINUOUS
10
220.993
20
-59.615
11
220.999
21
-59.6173
0
LINE
8
BLACK
6
CONTINUOUS
10
220.999
20
-59.6173
11
221.006
21
-59.6184
0
LINE
8
BLACK
6
CONTINUOUS
10
221.006
20
-59.6184
11
221.012
21
-59.6218
0
LINE
8
BLACK
6
CONTINUOUS
10
221.012
20
-59.6218
11
221.018
21
-59.624
0
LINE
8
BLACK
6
CONTINUOUS
10
221.018
20
-59.624
11
221.023
21
-59.6283
0
LINE
8
BLACK
6
CONTINUOUS
10
221.023
20
-59.6283
11
221.029
21
-59.6317
0
LINE
8
BLACK
6
CONTINUOUS
10
221.029
20
-59.6317
11
221.033
21
-59.6368
0
LINE
8
BLACK
6
CONTINUOUS
10
221.033
20
-59.6368
11
221.038
21
-59.641
0
LINE
8
BLACK
6
CONTINUOUS
10
221.038
20
-59.641
11
221.042
21
-59.6468
0
LINE
8
BLACK
6
CONTINUOUS
10
221.042
20
-59.6468
11
221.046
21
-59.6519
0
LINE
8
BLACK
6
CONTINUOUS
10
221.046
20
-59.6519
11
221.048
21
-59.6582
0
LINE
8
BLACK
6
CONTINUOUS
10
221.048
20
-59.6582
11
221.052
21
-59.664
0
LINE
8
BLACK
6
CONTINUOUS
10
221.052
20
-59.664
11
221.053
21
-59.6705
0
LINE
8
BLACK
6
CONTINUOUS
10
221.053
20
-59.6705
11
221.055
21
-59.6768
0
LINE
8
BLACK
6
CONTINUOUS
10
221.055
20
-59.6768
11
221.055
21
-59.6834
0
LINE
8
BLACK
6
CONTINUOUS
10
221.055
20
-59.6834
11
221.055
21
-59.6834
0
LINE
8
BLACK
6
CONTINUOUS
10
221.055
20
-59.6834
11
221.055
21
-114.934
0
LINE
8
BLACK
6
CONTINUOUS
10
221.055
20
-114.934
11
221.055
21
-114.946
0
LINE
8
BLACK
6
CONTINUOUS
10
221.055
20
-114.946
11
221.053
21
-114.953
0
LINE
8
BLACK
6
CONTINUOUS
10
221.053
20
-114.953
11
221.052
21
-114.961
0
LINE
8
BLACK
6
CONTINUOUS
10
221.052
20
-114.961
11
221.049
21
-114.966
0
LINE
8
BLACK
6
CONTINUOUS
10
221.049
20
-114.966
11
221.047
21
-114.971
0
LINE
8
BLACK
6
CONTINUOUS
10
221.047
20
-114.971
11
221.042
21
-114.977
0
LINE
8
BLACK
6
CONTINUOUS
10
221.042
20
-114.977
11
221.038
21
-114.984
0
LINE
8
BLACK
6
CONTINUOUS
10
221.038
20
-114.984
11
221.029
21
-114.992
0
LINE
8
BLACK
6
CONTINUOUS
10
221.029
20
-114.992
11
215.321
21
-120.065
0
LINE
8
BLACK
6
CONTINUOUS
10
215.321
20
-120.065
11
215.318
21
-120.069
0
LINE
8
BLACK
6
CONTINUOUS
10
215.318
20
-120.069
11
215.311
21
-120.074
0
LINE
8
BLACK
6
CONTINUOUS
10
215.311
20
-120.074
11
215.31
21
-120.075
0
LINE
8
BLACK
6
CONTINUOUS
10
215.31
20
-120.075
11
215.306
21
-120.078
0
LINE
8
BLACK
6
CONTINUOUS
10
215.306
20
-120.078
11
215.297
21
-120.084
0
LINE
8
BLACK
6
CONTINUOUS
10
215.297
20
-120.084
11
215.295
21
-120.085
0
LINE
8
BLACK
6
CONTINUOUS
10
215.295
20
-120.085
11
215.293
21
-120.086
0
LINE
8
BLACK
6
CONTINUOUS
10
215.293
20
-120.086
11
215.282
21
-120.088
0
LINE
8
BLACK
6
CONTINUOUS
10
215.282
20
-120.088
11
215.271
21
-120.091
0
LINE
8
BLACK
6
CONTINUOUS
10
215.271
20
-120.091
11
215.269
21
-120.091
0
LINE
8
BLACK
6
CONTINUOUS
10
215.269
20
-120.091
11
215.267
21
-120.091
0
LINE
8
BLACK
6
CONTINUOUS
10
215.267
20
-120.091
11
215.256
21
-120.089
0
LINE
8
BLACK
6
CONTINUOUS
10
215.256
20
-120.089
11
215.245
21
-120.088
0
LINE
8
BLACK
6
CONTINUOUS
10
215.245
20
-120.088
11
215.243
21
-120.088
0
LINE
8
BLACK
6
CONTINUOUS
10
215.243
20
-120.088
11
215.241
21
-120.087
0
LINE
8
BLACK
6
CONTINUOUS
10
215.241
20
-120.087
11
215.231
21
-120.082
0
LINE
8
BLACK
6
CONTINUOUS
10
215.231
20
-120.082
11
215.227
21
-120.08
0
LINE
8
BLACK
6
CONTINUOUS
10
215.227
20
-120.08
11
215.225
21
-120.079
0
LINE
8
BLACK
6
CONTINUOUS
10
215.225
20
-120.079
11
215.218
21
-120.075
0
LINE
8
BLACK
6
CONTINUOUS
10
215.218
20
-120.075
11
215.215
21
-120.071
0
LINE
8
BLACK
6
CONTINUOUS
10
215.215
20
-120.071
11
210.83
21
-116.939
0
LINE
8
BLACK
6
CONTINUOUS
10
210.83
20
-116.939
11
202.005
21
-126.395
0
LINE
8
BLACK
6
CONTINUOUS
10
202.005
20
-126.395
11
202.005
21
-138.437
0
LINE
8
BLACK
6
CONTINUOUS
10
202.005
20
-138.437
11
202.005
21
-138.437
0
LINE
8
BLACK
6
CONTINUOUS
10
202.005
20
-138.437
11
202.005
21
-138.443
0
LINE
8
BLACK
6
CONTINUOUS
10
202.005
20
-138.443
11
202.003
21
-138.449
0
LINE
8
BLACK
6
CONTINUOUS
10
202.003
20
-138.449
11
202.002
21
-138.456
0
LINE
8
BLACK
6
CONTINUOUS
10
202.002
20
-138.456
11
201.998
21
-138.462
0
LINE
8
BLACK
6
CONTINUOUS
10
201.998
20
-138.462
11
201.996
21
-138.468
0
LINE
8
BLACK
6
CONTINUOUS
10
201.996
20
-138.468
11
201.992
21
-138.473
0
LINE
8
BLACK
6
CONTINUOUS
10
201.992
20
-138.473
11
201.988
21
-138.479
0
LINE
8
BLACK
6
CONTINUOUS
10
201.988
20
-138.479
11
201.983
21
-138.483
0
LINE
8
BLACK
6
CONTINUOUS
10
201.983
20
-138.483
11
201.979
21
-138.488
0
LINE
8
BLACK
6
CONTINUOUS
10
201.979
20
-138.488
11
201.973
21
-138.492
0
LINE
8
BLACK
6
CONTINUOUS
10
201.973
20
-138.492
11
201.968
21
-138.496
0
LINE
8
BLACK
6
CONTINUOUS
10
201.968
20
-138.496
11
201.962
21
-138.498
0
LINE
8
BLACK
6
CONTINUOUS
10
201.962
20
-138.498
11
201.956
21
-138.502
0
LINE
8
BLACK
6
CONTINUOUS
10
201.956
20
-138.502
11
201.949
21
-138.503
0
LINE
8
BLACK
6
CONTINUOUS
10
201.949
20
-138.503
11
201.943
21
-138.505
0
LINE
8
BLACK
6
CONTINUOUS
10
201.943
20
-138.505
11
201.937
21
-138.505
0
LINE
8
BLACK
6
CONTINUOUS
10
201.937
20
-138.505
11
201.937
21
-138.505
0
LINE
8
BLACK
6
CONTINUOUS
10
201.937
20
-138.505
11
183.516
21
-138.505
0
LINE
8
BLACK
6
CONTINUOUS
10
183.516
20
-138.505
11
183.511
21
-138.505
0
LINE
8
BLACK
6
CONTINUOUS
10
183.511
20
-138.505
11
183.51
21
-138.505
0
LINE
8
BLACK
6
CONTINUOUS
10
183.51
20
-138.505
11
183.508
21
-138.505
0
LINE
8
BLACK
6
CONTINUOUS
10
183.508
20
-138.505
11
183.503
21
-138.504
0
LINE
8
BLACK
6
CONTINUOUS
10
183.503
20
-138.504
11
138.425
21
-132.155
0
LINE
8
BLACK
6
CONTINUOUS
10
138.425
20
-132.155
11
138.417
21
-132.155
0
LINE
8
BLACK
6
CONTINUOUS
10
138.417
20
-132.155
11
138.406
21
-132.151
0
LINE
8
BLACK
6
CONTINUOUS
10
138.406
20
-132.151
11
138.394
21
-132.147
0
LINE
8
BLACK
6
CONTINUOUS
10
138.394
20
-132.147
11
138.393
21
-132.146
0
LINE
8
BLACK
6
CONTINUOUS
10
138.393
20
-132.146
11
138.392
21
-132.146
0
LINE
8
BLACK
6
CONTINUOUS
10
138.392
20
-132.146
11
138.383
21
-132.138
0
LINE
8
BLACK
6
CONTINUOUS
10
138.383
20
-132.138
11
138.373
21
-132.131
0
LINE
8
BLACK
6
CONTINUOUS
10
138.373
20
-132.131
11
138.373
21
-132.13
0
LINE
8
BLACK
6
CONTINUOUS
10
138.373
20
-132.13
11
138.372
21
-132.129
0
LINE
8
BLACK
6
CONTINUOUS
10
138.372
20
-132.129
11
138.366
21
-132.119
0
LINE
8
BLACK
6
CONTINUOUS
10
138.366
20
-132.119
11
138.359
21
-132.109
0
LINE
8
BLACK
6
CONTINUOUS
10
138.359
20
-132.109
11
138.359
21
-132.107
0
LINE
8
BLACK
6
CONTINUOUS
10
138.359
20
-132.107
11
138.358
21
-132.106
0
LINE
8
BLACK
6
CONTINUOUS
10
138.358
20
-132.106
11
138.356
21
-132.094
0
LINE
8
BLACK
6
CONTINUOUS
10
138.356
20
-132.094
11
138.354
21
-132.083
0
LINE
8
BLACK
6
CONTINUOUS
10
138.354
20
-132.083
11
138.355
21
-132.075
0
LINE
8
BLACK
6
CONTINUOUS
10
138.355
20
-132.075
11
138.355
21
-113.023
0
LINE
8
BLACK
6
CONTINUOUS
10
138.355
20
-113.023
11
138.355
21
-113.017
0
LINE
8
BLACK
6
CONTINUOUS
10
138.355
20
-113.017
11
138.357
21
-113.011
0
LINE
8
BLACK
6
CONTINUOUS
10
138.357
20
-113.011
11
138.358
21
-113.004
0
LINE
8
BLACK
6
CONTINUOUS
10
138.358
20
-113.004
11
138.362
21
-112.998
0
LINE
8
BLACK
6
CONTINUOUS
10
138.362
20
-112.998
11
138.364
21
-112.992
0
LINE
8
BLACK
6
CONTINUOUS
10
138.364
20
-112.992
11
138.368
21
-112.987
0
LINE
8
BLACK
6
CONTINUOUS
10
138.368
20
-112.987
11
138.372
21
-112.981
0
LINE
8
BLACK
6
CONTINUOUS
10
138.372
20
-112.981
11
138.377
21
-112.977
0
LINE
8
BLACK
6
CONTINUOUS
10
138.377
20
-112.977
11
138.381
21
-112.972
0
LINE
8
BLACK
6
CONTINUOUS
10
138.381
20
-112.972
11
138.387
21
-112.968
0
LINE
8
BLACK
6
CONTINUOUS
10
138.387
20
-112.968
11
138.392
21
-112.964
0
LINE
8
BLACK
6
CONTINUOUS
10
138.392
20
-112.964
11
138.398
21
-112.962
0
LINE
8
BLACK
6
CONTINUOUS
10
138.398
20
-112.962
11
138.404
21
-112.958
0
LINE
8
BLACK
6
CONTINUOUS
10
138.404
20
-112.958
11
138.411
21
-112.957
0
LINE
8
BLACK
6
CONTINUOUS
10
138.411
20
-112.957
11
138.417
21
-112.955
0
LINE
8
BLACK
6
CONTINUOUS
10
138.417
20
-112.955
11
138.423
21
-112.955
0
LINE
8
BLACK
6
CONTINUOUS
10
138.423
20
-112.955
11
138.423
21
-112.955
0
LINE
8
BLACK
6
CONTINUOUS
10
138.423
20
-112.955
11
165.095
21
-112.955
0
LINE
8
BLACK
6
CONTINUOUS
10
165.095
20
-112.955
11
165.097
21
-112.955
0
LINE
8
BLACK
6
CONTINUOUS
10
165.097
20
-112.955
11
165.102
21
-112.955
0
LINE
8
BLACK
6
CONTINUOUS
10
165.102
20
-112.955
11
165.107
21
-112.955
0
LINE
8
BLACK
6
CONTINUOUS
10
165.107
20
-112.955
11
165.108
21
-112.955
0
LINE
8
BLACK
6
CONTINUOUS
10
165.108
20
-112.955
11
178.405
21
-113.589
0
LINE
8
BLACK
6
CONTINUOUS
10
178.405
20
-113.589
11
179.626
21
-112.368
0
LINE
8
BLACK
6
CONTINUOUS
10
179.626
20
-112.368
11
179
21
-107.363
0
LINE
8
BLACK
6
CONTINUOUS
10
179
20
-107.363
11
169.521
21
-102.307
0
LINE
8
BLACK
6
CONTINUOUS
10
169.521
20
-102.307
11
156.205
21
-100.405
0
LINE
8
BLACK
6
CONTINUOUS
10
156.205
20
-100.405
11
78.0984
21
-100.405
0
LINE
8
BLACK
6
CONTINUOUS
10
78.0984
20
-100.405
11
78.0984
21
-100.405
0
LINE
8
BLACK
6
CONTINUOUS
10
78.0984
20
-100.405
11
78.0918
21
-100.405
0
LINE
8
BLACK
6
CONTINUOUS
10
78.0918
20
-100.405
11
78.0855
21
-100.403
0
LINE
8
BLACK
6
CONTINUOUS
10
78.0855
20
-100.403
11
78.079
21
-100.402
0
LINE
8
BLACK
6
CONTINUOUS
10
78.079
20
-100.402
11
78.0732
21
-100.398
0
LINE
8
BLACK
6
CONTINUOUS
10
78.0732
20
-100.398
11
78.0669
21
-100.396
0
LINE
8
BLACK
6
CONTINUOUS
10
78.0669
20
-100.396
11
78.0618
21
-100.392
0
LINE
8
BLACK
6
CONTINUOUS
10
78.0618
20
-100.392
11
78.056
21
-100.388
0
LINE
8
BLACK
6
CONTINUOUS
10
78.056
20
-100.388
11
78.0518
21
-100.383
0
LINE
8
BLACK
6
CONTINUOUS
10
78.0518
20
-100.383
11
78.0467
21
-100.379
0
LINE
8
BLACK
6
CONTINUOUS
10
78.0467
20
-100.379
11
78.0433
21
-100.373
0
LINE
8
BLACK
6
CONTINUOUS
10
78.0433
20
-100.373
11
78.039
21
-100.368
0
LINE
8
BLACK
6
CONTINUOUS
10
78.039
20
-100.368
11
78.0368
21
-100.362
0
LINE
8
BLACK
6
CONTINUOUS
10
78.0368
20
-100.362
11
78.0334
21
-100.356
0
LINE
8
BLACK
6
CONTINUOUS
10
78.0334
20
-100.356
11
78.0323
21
-100.349
0
LINE
8
BLACK
6
CONTINUOUS
10
78.0323
20
-100.349
11
78.03
21
-100.343
0
LINE
8
BLACK
6
CONTINUOUS
10
78.03
20
-100.343
11
78.03
21
-100.337
0
LINE
8
BLACK
6
CONTINUOUS
10
78.03
20
-100.337
11
78.03
21
-100.337
0
LINE
8
BLACK
6
CONTINUOUS
10
78.03
20
-100.337
11
78.03
21
-59.6834
0
LINE
8
BLACK
6
CONTINUOUS
10
78.03
20
-59.6834
11
78.03
21
-59.6768
0
LINE
8
BLACK
6
CONTINUOUS
10
78.03
20
-59.6768
11
78.0323
21
-59.6705
0
LINE
8
BLACK
6
CONTINUOUS
10
78.0323
20
-59.6705
11
78.0334
21
-59.664
0
LINE
8
BLACK
6
CONTINUOUS
10
78.0334
20
-59.664
11
78.0368
21
-59.6582
0
LINE
8
BLACK
6
CONTINUOUS
10
78.0368
20
-59.6582
11
78.039
21
-59.6519
0
LINE
8
BLACK
6
CONTINUOUS
10
78.039
20
-59.6519
11
78.0433
21
-59.6468
0
LINE
8
BLACK
6
CONTINUOUS
10
78.0433
20
-59.6468
11
78.0467
21
-59.641
0
LINE
8
BLACK
6
CONTINUOUS
10
78.0467
20
-59.641
11
78.0518
21
-59.6368
0
LINE
8
BLACK
6
CONTINUOUS
10
78.0518
20
-59.6368
11
78.056
21
-59.6317
0
LINE
8
BLACK
6
CONTINUOUS
10
78.056
20
-59.6317
11
78.0618
21
-59.6283
0
LINE
8
BLACK
6
CONTINUOUS
10
78.0618
20
-59.6283
11
78.0669
21
-59.624
0
LINE
8
BLACK
6
CONTINUOUS
10
78.0669
20
-59.624
11
78.0732
21
-59.6218
0
LINE
8
BLACK
6
CONTINUOUS
10
78.0732
20
-59.6218
11
78.079
21
-59.6184
0
LINE
8
BLACK
6
CONTINUOUS
10
78.079
20
-59.6184
11
78.0855
21
-59.6173
0
LINE
8
BLACK
6
CONTINUOUS
10
78.0855
20
-59.6173
11
78.0918
21
-59.615
0
LINE
8
BLACK
6
CONTINUOUS
10
78.0918
20
-59.615
11
78.0984
21
-59.615
0
LINE
8
BLACK
6
CONTINUOUS
10
78.0984
20
-59.615
11
78.0984
21
-59.615
0
LINE
8
BLACK
6
CONTINUOUS
10
78.0984
20
-59.615
11
220.987
21
-59.615
0
LINE
8
BLACK
6
CONTINUOUS
10
220.987
20
-59.615
11
220.987
21
-59.615
0
LINE
8
BLACK
6
CONTINUOUS
10
78.18
20
-59.765
11
78.18
21
-100.255
0
LINE
8
BLACK
6
CONTINUOUS
10
78.18
20
-100.255
11
156.209
21
-100.255
0
LINE
8
BLACK
6
CONTINUOUS
10
156.209
20
-100.255
11
156.214
21
-100.255
0
LINE
8
BLACK
6
CONTINUOUS
10
156.214
20
-100.255
11
156.215
21
-100.255
0
LINE
8
BLACK
6
CONTINUOUS
10
156.215
20
-100.255
11
156.217
21
-100.255
0
LINE
8
BLACK
6
CONTINUOUS
10
156.217
20
-100.255
11
156.222
21
-100.256
0
LINE
8
BLACK
6
CONTINUOUS
10
156.222
20
-100.256
11
169.549
21
-102.16
0
LINE
8
BLACK
6
CONTINUOUS
10
169.549
20
-102.16
11
169.556
21
-102.16
0
LINE
8
BLACK
6
CONTINUOUS
10
169.556
20
-102.16
11
169.562
21
-102.162
0
LINE
8
BLACK
6
CONTINUOUS
10
169.562
20
-102.162
11
169.562
21
-102.162
0
LINE
8
BLACK
6
CONTINUOUS
10
169.562
20
-102.162
11
169.569
21
-102.164
0
LINE
8
BLACK
6
CONTINUOUS
10
169.569
20
-102.164
11
169.575
21
-102.166
0
LINE
8
BLACK
6
CONTINUOUS
10
169.575
20
-102.166
11
169.575
21
-102.166
0
LINE
8
BLACK
6
CONTINUOUS
10
169.575
20
-102.166
11
169.581
21
-102.168
0
LINE
8
BLACK
6
CONTINUOUS
10
169.581
20
-102.168
11
169.586
21
-102.172
0
LINE
8
BLACK
6
CONTINUOUS
10
169.586
20
-102.172
11
179.096
21
-107.244
0
LINE
8
BLACK
6
CONTINUOUS
10
179.096
20
-107.244
11
179.1
21
-107.245
0
LINE
8
BLACK
6
CONTINUOUS
10
179.1
20
-107.245
11
179.108
21
-107.25
0
LINE
8
BLACK
6
CONTINUOUS
10
179.108
20
-107.25
11
179.111
21
-107.252
0
LINE
8
BLACK
6
CONTINUOUS
10
179.111
20
-107.252
11
179.114
21
-107.254
0
LINE
8
BLACK
6
CONTINUOUS
10
179.114
20
-107.254
11
179.122
21
-107.259
0
LINE
8
BLACK
6
CONTINUOUS
10
179.122
20
-107.259
11
179.124
21
-107.262
0
LINE
8
BLACK
6
CONTINUOUS
10
179.124
20
-107.262
11
179.127
21
-107.264
0
LINE
8
BLACK
6
CONTINUOUS
10
179.127
20
-107.264
11
179.132
21
-107.272
0
LINE
8
BLACK
6
CONTINUOUS
10
179.132
20
-107.272
11
179.138
21
-107.28
0
LINE
8
BLACK
6
CONTINUOUS
10
179.138
20
-107.28
11
179.139
21
-107.284
0
LINE
8
BLACK
6
CONTINUOUS
10
179.139
20
-107.284
11
179.141
21
-107.287
0
LINE
8
BLACK
6
CONTINUOUS
10
179.141
20
-107.287
11
179.143
21
-107.296
0
LINE
8
BLACK
6
CONTINUOUS
10
179.143
20
-107.296
11
179.144
21
-107.299
0
LINE
8
BLACK
6
CONTINUOUS
10
179.144
20
-107.299
11
179.144
21
-107.303
0
LINE
8
BLACK
6
CONTINUOUS
10
179.144
20
-107.303
11
179.146
21
-107.312
0
LINE
8
BLACK
6
CONTINUOUS
10
179.146
20
-107.312
11
179.146
21
-107.316
0
LINE
8
BLACK
6
CONTINUOUS
10
179.146
20
-107.316
11
179.778
21
-112.374
0
LINE
8
BLACK
6
CONTINUOUS
10
179.778
20
-112.374
11
179.779
21
-112.375
0
LINE
8
BLACK
6
CONTINUOUS
10
179.779
20
-112.375
11
179.78
21
-112.387
0
LINE
8
BLACK
6
CONTINUOUS
10
179.78
20
-112.387
11
179.78
21
-112.392
0
LINE
8
BLACK
6
CONTINUOUS
10
179.78
20
-112.392
11
179.78
21
-112.394
0
LINE
8
BLACK
6
CONTINUOUS
10
179.78
20
-112.394
11
179.781
21
-112.402
0
LINE
8
BLACK
6
CONTINUOUS
10
179.781
20
-112.402
11
179.78
21
-112.407
0
LINE
8
BLACK
6
CONTINUOUS
10
179.78
20
-112.407
11
179.779
21
-112.412
0
LINE
8
BLACK
6
CONTINUOUS
10
179.779
20
-112.412
11
179.776
21
-112.419
0
LINE
8
BLACK
6
CONTINUOUS
10
179.776
20
-112.419
11
179.774
21
-112.427
0
LINE
8
BLACK
6
CONTINUOUS
10
179.774
20
-112.427
11
179.771
21
-112.431
0
LINE
8
BLACK
6
CONTINUOUS
10
179.771
20
-112.431
11
179.769
21
-112.436
0
LINE
8
BLACK
6
CONTINUOUS
10
179.769
20
-112.436
11
179.763
21
-112.442
0
LINE
8
BLACK
6
CONTINUOUS
10
179.763
20
-112.442
11
179.763
21
-112.443
0
LINE
8
BLACK
6
CONTINUOUS
10
179.763
20
-112.443
11
179.759
21
-112.447
0
LINE
8
BLACK
6
CONTINUOUS
10
179.759
20
-112.447
11
179.751
21
-112.456
0
LINE
8
BLACK
6
CONTINUOUS
10
179.751
20
-112.456
11
179.75
21
-112.456
0
LINE
8
BLACK
6
CONTINUOUS
10
179.75
20
-112.456
11
178.489
21
-113.717
0
LINE
8
BLACK
6
CONTINUOUS
10
178.489
20
-113.717
11
178.481
21
-113.726
0
LINE
8
BLACK
6
CONTINUOUS
10
178.481
20
-113.726
11
178.474
21
-113.729
0
LINE
8
BLACK
6
CONTINUOUS
10
178.474
20
-113.729
11
178.467
21
-113.734
0
LINE
8
BLACK
6
CONTINUOUS
10
178.467
20
-113.734
11
178.462
21
-113.735
0
LINE
8
BLACK
6
CONTINUOUS
10
178.462
20
-113.735
11
178.458
21
-113.738
0
LINE
8
BLACK
6
CONTINUOUS
10
178.458
20
-113.738
11
178.45
21
-113.739
0
LINE
8
BLACK
6
CONTINUOUS
10
178.45
20
-113.739
11
178.442
21
-113.741
0
LINE
8
BLACK
6
CONTINUOUS
10
178.442
20
-113.741
11
178.43
21
-113.74
0
LINE
8
BLACK
6
CONTINUOUS
10
178.43
20
-113.74
11
165.098
21
-113.105
0
LINE
8
BLACK
6
CONTINUOUS
10
165.098
20
-113.105
11
138.505
21
-113.105
0
LINE
8
BLACK
6
CONTINUOUS
10
138.505
20
-113.105
11
138.505
21
-132.015
0
LINE
8
BLACK
6
CONTINUOUS
10
138.505
20
-132.015
11
183.52
21
-138.355
0
LINE
8
BLACK
6
CONTINUOUS
10
183.52
20
-138.355
11
201.855
21
-138.355
0
LINE
8
BLACK
6
CONTINUOUS
10
201.855
20
-138.355
11
201.855
21
-126.37
0
LINE
8
BLACK
6
CONTINUOUS
10
201.855
20
-126.37
11
201.854
21
-126.361
0
LINE
8
BLACK
6
CONTINUOUS
10
201.854
20
-126.361
11
201.856
21
-126.35
0
LINE
8
BLACK
6
CONTINUOUS
10
201.856
20
-126.35
11
201.858
21
-126.339
0
LINE
8
BLACK
6
CONTINUOUS
10
201.858
20
-126.339
11
201.859
21
-126.337
0
LINE
8
BLACK
6
CONTINUOUS
10
201.859
20
-126.337
11
201.86
21
-126.335
0
LINE
8
BLACK
6
CONTINUOUS
10
201.86
20
-126.335
11
201.866
21
-126.326
0
LINE
8
BLACK
6
CONTINUOUS
10
201.866
20
-126.326
11
201.872
21
-126.316
0
LINE
8
BLACK
6
CONTINUOUS
10
201.872
20
-126.316
11
201.878
21
-126.31
0
LINE
8
BLACK
6
CONTINUOUS
10
201.878
20
-126.31
11
210.762
21
-116.792
0
LINE
8
BLACK
6
CONTINUOUS
10
210.762
20
-116.792
11
210.767
21
-116.786
0
LINE
8
BLACK
6
CONTINUOUS
10
210.767
20
-116.786
11
210.776
21
-116.779
0
LINE
8
BLACK
6
CONTINUOUS
10
210.776
20
-116.779
11
210.785
21
-116.772
0
LINE
8
BLACK
6
CONTINUOUS
10
210.785
20
-116.772
11
210.787
21
-116.772
0
LINE
8
BLACK
6
CONTINUOUS
10
210.787
20
-116.772
11
210.788
21
-116.771
0
LINE
8
BLACK
6
CONTINUOUS
10
210.788
20
-116.771
11
210.8
21
-116.768
0
LINE
8
BLACK
6
CONTINUOUS
10
210.8
20
-116.768
11
210.811
21
-116.764
0
LINE
8
BLACK
6
CONTINUOUS
10
210.811
20
-116.764
11
210.812
21
-116.764
0
LINE
8
BLACK
6
CONTINUOUS
10
210.812
20
-116.764
11
210.814
21
-116.764
0
LINE
8
BLACK
6
CONTINUOUS
10
210.814
20
-116.764
11
210.826
21
-116.765
0
LINE
8
BLACK
6
CONTINUOUS
10
210.826
20
-116.765
11
210.837
21
-116.766
0
LINE
8
BLACK
6
CONTINUOUS
10
210.837
20
-116.766
11
210.839
21
-116.766
0
LINE
8
BLACK
6
CONTINUOUS
10
210.839
20
-116.766
11
210.84
21
-116.767
0
LINE
8
BLACK
6
CONTINUOUS
10
210.84
20
-116.767
11
210.851
21
-116.772
0
LINE
8
BLACK
6
CONTINUOUS
10
210.851
20
-116.772
11
210.862
21
-116.776
0
LINE
8
BLACK
6
CONTINUOUS
10
210.862
20
-116.776
11
210.868
21
-116.782
0
LINE
8
BLACK
6
CONTINUOUS
10
210.868
20
-116.782
11
215.26
21
-119.919
0
LINE
8
BLACK
6
CONTINUOUS
10
215.26
20
-119.919
11
220.905
21
-114.901
0
LINE
8
BLACK
6
CONTINUOUS
10
220.905
20
-114.901
11
220.905
21
-59.765
0
LINE
8
BLACK
6
CONTINUOUS
10
220.905
20
-59.765
11
78.18
21
-59.765
  0
ENDSEC
  0
EOF
