  0
SECTION
  2
HEADER
  9
$ANGBASE
  50
0.0
  9
$ANGDIR
  70
  1
  9
$MEASUREMENT
  70
0
  0
ENDSEC
  0
SECTION
  2
TABLES
  0
TABLE
  2
LTYPE
  70
4
  0
LTYPE
  5
40F
  2
CONTINUOUS
  70
0
  3
Solid line
  72
65
  73
0
  40
0.0
  0
LTYPE
  5
410
  2
DASHDOT
 70
0
  3
Dash Dot ____ _ ____ _
 72
65
 73
4
 40
2.0
 49
1.25
 49
-0.25
 49
0.25
 49
-0.25
  0
LTYPE
  5
411
  2
DASHED
 70
0
  3
Dashed __ __ __ __ __
 72
65
 73
2
 40
0.75
 49
0.5
 49
-0.25
  0
LTYPE
  5
43B
  2
DOTTED
 70
0
  3
Dotted .  .  .  .
 72
65
 73
2
 40
0.2
 49
0.0
 49
-0.2
  0
ENDTAB
  0
TABLE
  2
STYLE
  70
4
  0
STYLE
  2
KICAD
  70
0
  40
0
  41
1
  42
1
  50
0
  71
0
  3
isocp.shx
  0
STYLE
  2
KICADB
  70
0
  40
0
  41
1
  42
1
  50
0
  71
0
  3
isocp.shx
  0
STYLE
  2
KICADI
  70
0
  40
0
  41
1
  42
1
  50
15
  71
0
  3
isocp.shx
  0
STYLE
  2
KICADBI
  70
0
  40
0
  41
1
  42
1
  50
15
  71
0
  3
isocp.shx
  0
ENDTAB
  0
TABLE
  2
LAYER
  70
30
  0
LAYER
  2
BLACK
  70
0
  62
7
  6
CONTINUOUS
  0
LAYER
  2
GRAY1
  70
0
  62
251
  6
CONTINUOUS
  0
LAYER
  2
GRAY2
  70
0
  62
8
  6
CONTINUOUS
  0
LAYER
  2
GRAY3
  70
0
  62
9
  6
CONTINUOUS
  0
LAYER
  2
WHITE
  70
0
  62
7
  6
CONTINUOUS
  0
LAYER
  2
LYELLOW
  70
0
  62
51
  6
CONTINUOUS
  0
LAYER
  2
BLUE1
  70
0
  62
178
  6
CONTINUOUS
  0
LAYER
  2
GREEN1
  70
0
  62
98
  6
CONTINUOUS
  0
LAYER
  2
CYAN1
  70
0
  62
138
  6
CONTINUOUS
  0
LAYER
  2
RED1
  70
0
  62
18
  6
CONTINUOUS
  0
LAYER
  2
MAGENTA1
  70
0
  62
228
  6
CONTINUOUS
  0
LAYER
  2
BROWN1
  70
0
  62
58
  6
CONTINUOUS
  0
LAYER
  2
BLUE2
  70
0
  62
5
  6
CONTINUOUS
  0
LAYER
  2
GREEN2
  70
0
  62
3
  6
CONTINUOUS
  0
LAYER
  2
CYAN2
  70
0
  62
4
  6
CONTINUOUS
  0
LAYER
  2
RED2
  70
0
  62
1
  6
CONTINUOUS
  0
LAYER
  2
MAGENTA2
  70
0
  62
6
  6
CONTINUOUS
  0
LAYER
  2
BROWN2
  70
0
  62
54
  6
CONTINUOUS
  0
LAYER
  2
BLUE3
  70
0
  62
171
  6
CONTINUOUS
  0
LAYER
  2
GREEN3
  70
0
  62
91
  6
CONTINUOUS
  0
LAYER
  2
CYAN3
  70
0
  62
131
  6
CONTINUOUS
  0
LAYER
  2
RED3
  70
0
  62
11
  6
CONTINUOUS
  0
LAYER
  2
MAGENTA3
  70
0
  62
221
  6
CONTINUOUS
  0
LAYER
  2
YELLOW3
  70
0
  62
2
  6
CONTINUOUS
  0
LAYER
  2
BLUE4
  70
0
  62
5
  6
CONTINUOUS
  0
LAYER
  2
GREEN4
  70
0
  62
3
  6
CONTINUOUS
  0
LAYER
  2
CYAN4
  70
0
  62
4
  6
CONTINUOUS
  0
LAYER
  2
RED4
  70
0
  62
1
  6
CONTINUOUS
  0
LAYER
  2
MAGENTA4
  70
0
  62
6
  6
CONTINUOUS
  0
LAYER
  2
YELLOW4
  70
0
  62
2
  6
CONTINUOUS
  0
ENDTAB
  0
ENDSEC
  0
SECTION
  2
ENTITIES
0
LINE
8
BLACK
6
CONTINUOUS
10
86.8322
20
-33.9272
11
86.8322
21
-65.9272
0
LINE
8
BLACK
6
CONTINUOUS
10
86.8322
20
-65.9272
11
194.832
21
-65.9272
0
LINE
8
BLACK
6
CONTINUOUS
10
194.832
20
-65.9272
11
194.832
21
-33.9272
0
LINE
8
BLACK
6
CONTINUOUS
10
194.832
20
-33.9272
11
86.8322
21
-33.9272
0
LINE
8
BLACK
6
CONTINUOUS
10
-80.17
20
122.08
11
-80.17
21
-67.9272
0
LINE
8
BLACK
6
CONTINUOUS
10
-80.17
20
-67.9272
11
196.832
21
-67.9272
0
LINE
8
BLACK
6
CONTINUOUS
10
196.832
20
-67.9272
11
196.832
21
122.08
0
LINE
8
BLACK
6
CONTINUOUS
10
196.832
20
122.08
11
-80.17
21
122.08
0
LINE
8
BLACK
6
CONTINUOUS
10
-78.17
20
120.08
11
-78.17
21
-65.9272
0
LINE
8
BLACK
6
CONTINUOUS
10
-78.17
20
-65.9272
11
194.832
21
-65.9272
0
LINE
8
BLACK
6
CONTINUOUS
10
194.832
20
-65.9272
11
194.832
21
120.08
0
LINE
8
BLACK
6
CONTINUOUS
10
194.832
20
120.08
11
-78.17
21
120.08
0
LINE
8
BLACK
6
CONTINUOUS
10
-30.17
20
120.08
11
-30.17
21
122.08
0
LINE
8
BLACK
6
CONTINUOUS
10
19.83
20
120.08
11
19.83
21
122.08
0
LINE
8
BLACK
6
CONTINUOUS
10
69.83
20
120.08
11
69.83
21
122.08
0
LINE
8
BLACK
6
CONTINUOUS
10
119.83
20
120.08
11
119.83
21
122.08
0
LINE
8
BLACK
6
CONTINUOUS
10
169.83
20
120.08
11
169.83
21
122.08
0
LINE
8
BLACK
6
CONTINUOUS
10
-54.1045
20
120.492
11
-54.8474
21
120.492
0
LINE
8
BLACK
6
CONTINUOUS
10
-54.476
20
120.492
11
-54.476
21
121.792
0
LINE
8
BLACK
6
CONTINUOUS
10
-54.476
20
121.792
11
-54.5998
21
121.606
0
LINE
8
BLACK
6
CONTINUOUS
10
-54.5998
20
121.606
11
-54.7236
21
121.482
0
LINE
8
BLACK
6
CONTINUOUS
10
-54.7236
20
121.482
11
-54.8474
21
121.42
0
LINE
8
BLACK
6
CONTINUOUS
10
-4.84738
20
121.668
11
-4.78548
21
121.73
0
LINE
8
BLACK
6
CONTINUOUS
10
-4.78548
20
121.73
11
-4.66167
21
121.792
0
LINE
8
BLACK
6
CONTINUOUS
10
-4.66167
20
121.792
11
-4.35214
21
121.792
0
LINE
8
BLACK
6
CONTINUOUS
10
-4.35214
20
121.792
11
-4.22833
21
121.73
0
LINE
8
BLACK
6
CONTINUOUS
10
-4.22833
20
121.73
11
-4.16643
21
121.668
0
LINE
8
BLACK
6
CONTINUOUS
10
-4.16643
20
121.668
11
-4.10452
21
121.544
0
LINE
8
BLACK
6
CONTINUOUS
10
-4.10452
20
121.544
11
-4.10452
21
121.42
0
LINE
8
BLACK
6
CONTINUOUS
10
-4.10452
20
121.42
11
-4.16643
21
121.235
0
LINE
8
BLACK
6
CONTINUOUS
10
-4.16643
20
121.235
11
-4.90929
21
120.492
0
LINE
8
BLACK
6
CONTINUOUS
10
-4.90929
20
120.492
11
-4.10452
21
120.492
0
LINE
8
BLACK
6
CONTINUOUS
10
45.0907
20
121.792
11
45.8955
21
121.792
0
LINE
8
BLACK
6
CONTINUOUS
10
45.8955
20
121.792
11
45.4621
21
121.297
0
LINE
8
BLACK
6
CONTINUOUS
10
45.4621
20
121.297
11
45.6479
21
121.297
0
LINE
8
BLACK
6
CONTINUOUS
10
45.6479
20
121.297
11
45.7717
21
121.235
0
LINE
8
BLACK
6
CONTINUOUS
10
45.7717
20
121.235
11
45.8336
21
121.173
0
LINE
8
BLACK
6
CONTINUOUS
10
45.8336
20
121.173
11
45.8955
21
121.049
0
LINE
8
BLACK
6
CONTINUOUS
10
45.8955
20
121.049
11
45.8955
21
120.74
0
LINE
8
BLACK
6
CONTINUOUS
10
45.8955
20
120.74
11
45.8336
21
120.616
0
LINE
8
BLACK
6
CONTINUOUS
10
45.8336
20
120.616
11
45.7717
21
120.554
0
LINE
8
BLACK
6
CONTINUOUS
10
45.7717
20
120.554
11
45.6479
21
120.492
0
LINE
8
BLACK
6
CONTINUOUS
10
45.6479
20
120.492
11
45.2764
21
120.492
0
LINE
8
BLACK
6
CONTINUOUS
10
45.2764
20
120.492
11
45.1526
21
120.554
0
LINE
8
BLACK
6
CONTINUOUS
10
45.1526
20
120.554
11
45.0907
21
120.616
0
LINE
8
BLACK
6
CONTINUOUS
10
95.7717
20
121.359
11
95.7717
21
120.492
0
LINE
8
BLACK
6
CONTINUOUS
10
95.4621
20
121.854
11
95.1526
21
120.925
0
LINE
8
BLACK
6
CONTINUOUS
10
95.1526
20
120.925
11
95.9574
21
120.925
0
LINE
8
BLACK
6
CONTINUOUS
10
145.834
20
121.792
11
145.215
21
121.792
0
LINE
8
BLACK
6
CONTINUOUS
10
145.215
20
121.792
11
145.153
21
121.173
0
LINE
8
BLACK
6
CONTINUOUS
10
145.153
20
121.173
11
145.215
21
121.235
0
LINE
8
BLACK
6
CONTINUOUS
10
145.215
20
121.235
11
145.338
21
121.297
0
LINE
8
BLACK
6
CONTINUOUS
10
145.338
20
121.297
11
145.648
21
121.297
0
LINE
8
BLACK
6
CONTINUOUS
10
145.648
20
121.297
11
145.772
21
121.235
0
LINE
8
BLACK
6
CONTINUOUS
10
145.772
20
121.235
11
145.834
21
121.173
0
LINE
8
BLACK
6
CONTINUOUS
10
145.834
20
121.173
11
145.895
21
121.049
0
LINE
8
BLACK
6
CONTINUOUS
10
145.895
20
121.049
11
145.895
21
120.74
0
LINE
8
BLACK
6
CONTINUOUS
10
145.895
20
120.74
11
145.834
21
120.616
0
LINE
8
BLACK
6
CONTINUOUS
10
145.834
20
120.616
11
145.772
21
120.554
0
LINE
8
BLACK
6
CONTINUOUS
10
145.772
20
120.554
11
145.648
21
120.492
0
LINE
8
BLACK
6
CONTINUOUS
10
145.648
20
120.492
11
145.338
21
120.492
0
LINE
8
BLACK
6
CONTINUOUS
10
145.338
20
120.492
11
145.215
21
120.554
0
LINE
8
BLACK
6
CONTINUOUS
10
145.215
20
120.554
11
145.153
21
120.616
0
LINE
8
BLACK
6
CONTINUOUS
10
195.772
20
121.792
11
195.524
21
121.792
0
LINE
8
BLACK
6
CONTINUOUS
10
195.524
20
121.792
11
195.4
21
121.73
0
LINE
8
BLACK
6
CONTINUOUS
10
195.4
20
121.73
11
195.338
21
121.668
0
LINE
8
BLACK
6
CONTINUOUS
10
195.338
20
121.668
11
195.215
21
121.482
0
LINE
8
BLACK
6
CONTINUOUS
10
195.215
20
121.482
11
195.153
21
121.235
0
LINE
8
BLACK
6
CONTINUOUS
10
195.153
20
121.235
11
195.153
21
120.74
0
LINE
8
BLACK
6
CONTINUOUS
10
195.153
20
120.74
11
195.215
21
120.616
0
LINE
8
BLACK
6
CONTINUOUS
10
195.215
20
120.616
11
195.276
21
120.554
0
LINE
8
BLACK
6
CONTINUOUS
10
195.276
20
120.554
11
195.4
21
120.492
0
LINE
8
BLACK
6
CONTINUOUS
10
195.4
20
120.492
11
195.648
21
120.492
0
LINE
8
BLACK
6
CONTINUOUS
10
195.648
20
120.492
11
195.772
21
120.554
0
LINE
8
BLACK
6
CONTINUOUS
10
195.772
20
120.554
11
195.834
21
120.616
0
LINE
8
BLACK
6
CONTINUOUS
10
195.834
20
120.616
11
195.895
21
120.74
0
LINE
8
BLACK
6
CONTINUOUS
10
195.895
20
120.74
11
195.895
21
121.049
0
LINE
8
BLACK
6
CONTINUOUS
10
195.895
20
121.049
11
195.834
21
121.173
0
LINE
8
BLACK
6
CONTINUOUS
10
195.834
20
121.173
11
195.772
21
121.235
0
LINE
8
BLACK
6
CONTINUOUS
10
195.772
20
121.235
11
195.648
21
121.297
0
LINE
8
BLACK
6
CONTINUOUS
10
195.648
20
121.297
11
195.4
21
121.297
0
LINE
8
BLACK
6
CONTINUOUS
10
195.4
20
121.297
11
195.276
21
121.235
0
LINE
8
BLACK
6
CONTINUOUS
10
195.276
20
121.235
11
195.215
21
121.173
0
LINE
8
BLACK
6
CONTINUOUS
10
195.215
20
121.173
11
195.153
21
121.049
0
LINE
8
BLACK
6
CONTINUOUS
10
-30.17
20
-65.9272
11
-30.17
21
-67.9272
0
LINE
8
BLACK
6
CONTINUOUS
10
19.83
20
-65.9272
11
19.83
21
-67.9272
0
LINE
8
BLACK
6
CONTINUOUS
10
69.83
20
-65.9272
11
69.83
21
-67.9272
0
LINE
8
BLACK
6
CONTINUOUS
10
119.83
20
-65.9272
11
119.83
21
-67.9272
0
LINE
8
BLACK
6
CONTINUOUS
10
169.83
20
-65.9272
11
169.83
21
-67.9272
0
LINE
8
BLACK
6
CONTINUOUS
10
-54.1045
20
-67.5153
11
-54.8474
21
-67.5153
0
LINE
8
BLACK
6
CONTINUOUS
10
-54.476
20
-67.5153
11
-54.476
21
-66.2153
0
LINE
8
BLACK
6
CONTINUOUS
10
-54.476
20
-66.2153
11
-54.5998
21
-66.401
0
LINE
8
BLACK
6
CONTINUOUS
10
-54.5998
20
-66.401
11
-54.7236
21
-66.5248
0
LINE
8
BLACK
6
CONTINUOUS
10
-54.7236
20
-66.5248
11
-54.8474
21
-66.5867
0
LINE
8
BLACK
6
CONTINUOUS
10
-4.84738
20
-66.3391
11
-4.78548
21
-66.2772
0
LINE
8
BLACK
6
CONTINUOUS
10
-4.78548
20
-66.2772
11
-4.66167
21
-66.2153
0
LINE
8
BLACK
6
CONTINUOUS
10
-4.66167
20
-66.2153
11
-4.35214
21
-66.2153
0
LINE
8
BLACK
6
CONTINUOUS
10
-4.35214
20
-66.2153
11
-4.22833
21
-66.2772
0
LINE
8
BLACK
6
CONTINUOUS
10
-4.22833
20
-66.2772
11
-4.16643
21
-66.3391
0
LINE
8
BLACK
6
CONTINUOUS
10
-4.16643
20
-66.3391
11
-4.10452
21
-66.4629
0
LINE
8
BLACK
6
CONTINUOUS
10
-4.10452
20
-66.4629
11
-4.10452
21
-66.5867
0
LINE
8
BLACK
6
CONTINUOUS
10
-4.10452
20
-66.5867
11
-4.16643
21
-66.7724
0
LINE
8
BLACK
6
CONTINUOUS
10
-4.16643
20
-66.7724
11
-4.90929
21
-67.5153
0
LINE
8
BLACK
6
CONTINUOUS
10
-4.90929
20
-67.5153
11
-4.10452
21
-67.5153
0
LINE
8
BLACK
6
CONTINUOUS
10
45.0907
20
-66.2153
11
45.8955
21
-66.2153
0
LINE
8
BLACK
6
CONTINUOUS
10
45.8955
20
-66.2153
11
45.4621
21
-66.7105
0
LINE
8
BLACK
6
CONTINUOUS
10
45.4621
20
-66.7105
11
45.6479
21
-66.7105
0
LINE
8
BLACK
6
CONTINUOUS
10
45.6479
20
-66.7105
11
45.7717
21
-66.7724
0
LINE
8
BLACK
6
CONTINUOUS
10
45.7717
20
-66.7724
11
45.8336
21
-66.8343
0
LINE
8
BLACK
6
CONTINUOUS
10
45.8336
20
-66.8343
11
45.8955
21
-66.9582
0
LINE
8
BLACK
6
CONTINUOUS
10
45.8955
20
-66.9582
11
45.8955
21
-67.2677
0
LINE
8
BLACK
6
CONTINUOUS
10
45.8955
20
-67.2677
11
45.8336
21
-67.3915
0
LINE
8
BLACK
6
CONTINUOUS
10
45.8336
20
-67.3915
11
45.7717
21
-67.4534
0
LINE
8
BLACK
6
CONTINUOUS
10
45.7717
20
-67.4534
11
45.6479
21
-67.5153
0
LINE
8
BLACK
6
CONTINUOUS
10
45.6479
20
-67.5153
11
45.2764
21
-67.5153
0
LINE
8
BLACK
6
CONTINUOUS
10
45.2764
20
-67.5153
11
45.1526
21
-67.4534
0
LINE
8
BLACK
6
CONTINUOUS
10
45.1526
20
-67.4534
11
45.0907
21
-67.3915
0
LINE
8
BLACK
6
CONTINUOUS
10
95.7717
20
-66.6486
11
95.7717
21
-67.5153
0
LINE
8
BLACK
6
CONTINUOUS
10
95.4621
20
-66.1534
11
95.1526
21
-67.082
0
LINE
8
BLACK
6
CONTINUOUS
10
95.1526
20
-67.082
11
95.9574
21
-67.082
0
LINE
8
BLACK
6
CONTINUOUS
10
145.834
20
-66.2153
11
145.215
21
-66.2153
0
LINE
8
BLACK
6
CONTINUOUS
10
145.215
20
-66.2153
11
145.153
21
-66.8343
0
LINE
8
BLACK
6
CONTINUOUS
10
145.153
20
-66.8343
11
145.215
21
-66.7724
0
LINE
8
BLACK
6
CONTINUOUS
10
145.215
20
-66.7724
11
145.338
21
-66.7105
0
LINE
8
BLACK
6
CONTINUOUS
10
145.338
20
-66.7105
11
145.648
21
-66.7105
0
LINE
8
BLACK
6
CONTINUOUS
10
145.648
20
-66.7105
11
145.772
21
-66.7724
0
LINE
8
BLACK
6
CONTINUOUS
10
145.772
20
-66.7724
11
145.834
21
-66.8343
0
LINE
8
BLACK
6
CONTINUOUS
10
145.834
20
-66.8343
11
145.895
21
-66.9582
0
LINE
8
BLACK
6
CONTINUOUS
10
145.895
20
-66.9582
11
145.895
21
-67.2677
0
LINE
8
BLACK
6
CONTINUOUS
10
145.895
20
-67.2677
11
145.834
21
-67.3915
0
LINE
8
BLACK
6
CONTINUOUS
10
145.834
20
-67.3915
11
145.772
21
-67.4534
0
LINE
8
BLACK
6
CONTINUOUS
10
145.772
20
-67.4534
11
145.648
21
-67.5153
0
LINE
8
BLACK
6
CONTINUOUS
10
145.648
20
-67.5153
11
145.338
21
-67.5153
0
LINE
8
BLACK
6
CONTINUOUS
10
145.338
20
-67.5153
11
145.215
21
-67.4534
0
LINE
8
BLACK
6
CONTINUOUS
10
145.215
20
-67.4534
11
145.153
21
-67.3915
0
LINE
8
BLACK
6
CONTINUOUS
10
195.772
20
-66.2153
11
195.524
21
-66.2153
0
LINE
8
BLACK
6
CONTINUOUS
10
195.524
20
-66.2153
11
195.4
21
-66.2772
0
LINE
8
BLACK
6
CONTINUOUS
10
195.4
20
-66.2772
11
195.338
21
-66.3391
0
LINE
8
BLACK
6
CONTINUOUS
10
195.338
20
-66.3391
11
195.215
21
-66.5248
0
LINE
8
BLACK
6
CONTINUOUS
10
195.215
20
-66.5248
11
195.153
21
-66.7724
0
LINE
8
BLACK
6
CONTINUOUS
10
195.153
20
-66.7724
11
195.153
21
-67.2677
0
LINE
8
BLACK
6
CONTINUOUS
10
195.153
20
-67.2677
11
195.215
21
-67.3915
0
LINE
8
BLACK
6
CONTINUOUS
10
195.215
20
-67.3915
11
195.276
21
-67.4534
0
LINE
8
BLACK
6
CONTINUOUS
10
195.276
20
-67.4534
11
195.4
21
-67.5153
0
LINE
8
BLACK
6
CONTINUOUS
10
195.4
20
-67.5153
11
195.648
21
-67.5153
0
LINE
8
BLACK
6
CONTINUOUS
10
195.648
20
-67.5153
11
195.772
21
-67.4534
0
LINE
8
BLACK
6
CONTINUOUS
10
195.772
20
-67.4534
11
195.834
21
-67.3915
0
LINE
8
BLACK
6
CONTINUOUS
10
195.834
20
-67.3915
11
195.895
21
-67.2677
0
LINE
8
BLACK
6
CONTINUOUS
10
195.895
20
-67.2677
11
195.895
21
-66.9582
0
LINE
8
BLACK
6
CONTINUOUS
10
195.895
20
-66.9582
11
195.834
21
-66.8343
0
LINE
8
BLACK
6
CONTINUOUS
10
195.834
20
-66.8343
11
195.772
21
-66.7724
0
LINE
8
BLACK
6
CONTINUOUS
10
195.772
20
-66.7724
11
195.648
21
-66.7105
0
LINE
8
BLACK
6
CONTINUOUS
10
195.648
20
-66.7105
11
195.4
21
-66.7105
0
LINE
8
BLACK
6
CONTINUOUS
10
195.4
20
-66.7105
11
195.276
21
-66.7724
0
LINE
8
BLACK
6
CONTINUOUS
10
195.276
20
-66.7724
11
195.215
21
-66.8343
0
LINE
8
BLACK
6
CONTINUOUS
10
195.215
20
-66.8343
11
195.153
21
-66.9582
0
LINE
8
BLACK
6
CONTINUOUS
10
-80.17
20
72.08
11
-78.17
21
72.08
0
LINE
8
BLACK
6
CONTINUOUS
10
-80.17
20
22.08
11
-78.17
21
22.08
0
LINE
8
BLACK
6
CONTINUOUS
10
-80.17
20
-27.92
11
-78.17
21
-27.92
0
LINE
8
BLACK
6
CONTINUOUS
10
-79.4795
20
96.8633
11
-78.8605
21
96.8633
0
LINE
8
BLACK
6
CONTINUOUS
10
-79.6033
20
96.4919
11
-79.17
21
97.7919
0
LINE
8
BLACK
6
CONTINUOUS
10
-79.17
20
97.7919
11
-78.7367
21
96.4919
0
LINE
8
BLACK
6
CONTINUOUS
10
-79.0771
20
47.1729
11
-78.8914
21
47.111
0
LINE
8
BLACK
6
CONTINUOUS
10
-78.8914
20
47.111
11
-78.8295
21
47.049
0
LINE
8
BLACK
6
CONTINUOUS
10
-78.8295
20
47.049
11
-78.7676
21
46.9252
0
LINE
8
BLACK
6
CONTINUOUS
10
-78.7676
20
46.9252
11
-78.7676
21
46.7395
0
LINE
8
BLACK
6
CONTINUOUS
10
-78.7676
20
46.7395
11
-78.8295
21
46.6157
0
LINE
8
BLACK
6
CONTINUOUS
10
-78.8295
20
46.6157
11
-78.8914
21
46.5538
0
LINE
8
BLACK
6
CONTINUOUS
10
-78.8914
20
46.5538
11
-79.0152
21
46.4919
0
LINE
8
BLACK
6
CONTINUOUS
10
-79.0152
20
46.4919
11
-79.5105
21
46.4919
0
LINE
8
BLACK
6
CONTINUOUS
10
-79.5105
20
46.4919
11
-79.5105
21
47.7919
0
LINE
8
BLACK
6
CONTINUOUS
10
-79.5105
20
47.7919
11
-79.0771
21
47.7919
0
LINE
8
BLACK
6
CONTINUOUS
10
-79.0771
20
47.7919
11
-78.9533
21
47.73
0
LINE
8
BLACK
6
CONTINUOUS
10
-78.9533
20
47.73
11
-78.8914
21
47.6681
0
LINE
8
BLACK
6
CONTINUOUS
10
-78.8914
20
47.6681
11
-78.8295
21
47.5443
0
LINE
8
BLACK
6
CONTINUOUS
10
-78.8295
20
47.5443
11
-78.8295
21
47.4205
0
LINE
8
BLACK
6
CONTINUOUS
10
-78.8295
20
47.4205
11
-78.8914
21
47.2967
0
LINE
8
BLACK
6
CONTINUOUS
10
-78.8914
20
47.2967
11
-78.9533
21
47.2348
0
LINE
8
BLACK
6
CONTINUOUS
10
-78.9533
20
47.2348
11
-79.0771
21
47.1729
0
LINE
8
BLACK
6
CONTINUOUS
10
-79.0771
20
47.1729
11
-79.5105
21
47.1729
0
LINE
8
BLACK
6
CONTINUOUS
10
-78.7676
20
-3.38428
11
-78.8295
21
-3.44619
0
LINE
8
BLACK
6
CONTINUOUS
10
-78.8295
20
-3.44619
11
-79.0152
21
-3.50809
0
LINE
8
BLACK
6
CONTINUOUS
10
-79.0152
20
-3.50809
11
-79.139
21
-3.50809
0
LINE
8
BLACK
6
CONTINUOUS
10
-79.139
20
-3.50809
11
-79.3248
21
-3.44619
0
LINE
8
BLACK
6
CONTINUOUS
10
-79.3248
20
-3.44619
11
-79.4486
21
-3.32238
0
LINE
8
BLACK
6
CONTINUOUS
10
-79.4486
20
-3.32238
11
-79.5105
21
-3.19857
0
LINE
8
BLACK
6
CONTINUOUS
10
-79.5105
20
-3.19857
11
-79.5724
21
-2.95095
0
LINE
8
BLACK
6
CONTINUOUS
10
-79.5724
20
-2.95095
11
-79.5724
21
-2.76524
0
LINE
8
BLACK
6
CONTINUOUS
10
-79.5724
20
-2.76524
11
-79.5105
21
-2.51762
0
LINE
8
BLACK
6
CONTINUOUS
10
-79.5105
20
-2.51762
11
-79.4486
21
-2.39381
0
LINE
8
BLACK
6
CONTINUOUS
10
-79.4486
20
-2.39381
11
-79.3248
21
-2.27
0
LINE
8
BLACK
6
CONTINUOUS
10
-79.3248
20
-2.27
11
-79.139
21
-2.20809
0
LINE
8
BLACK
6
CONTINUOUS
10
-79.139
20
-2.20809
11
-79.0152
21
-2.20809
0
LINE
8
BLACK
6
CONTINUOUS
10
-79.0152
20
-2.20809
11
-78.8295
21
-2.27
0
LINE
8
BLACK
6
CONTINUOUS
10
-78.8295
20
-2.27
11
-78.7676
21
-2.3319
0
LINE
8
BLACK
6
CONTINUOUS
10
-79.5105
20
-53.5081
11
-79.5105
21
-52.2081
0
LINE
8
BLACK
6
CONTINUOUS
10
-79.5105
20
-52.2081
11
-79.201
21
-52.2081
0
LINE
8
BLACK
6
CONTINUOUS
10
-79.201
20
-52.2081
11
-79.0152
21
-52.27
0
LINE
8
BLACK
6
CONTINUOUS
10
-79.0152
20
-52.27
11
-78.8914
21
-52.3938
0
LINE
8
BLACK
6
CONTINUOUS
10
-78.8914
20
-52.3938
11
-78.8295
21
-52.5176
0
LINE
8
BLACK
6
CONTINUOUS
10
-78.8295
20
-52.5176
11
-78.7676
21
-52.7652
0
LINE
8
BLACK
6
CONTINUOUS
10
-78.7676
20
-52.7652
11
-78.7676
21
-52.951
0
LINE
8
BLACK
6
CONTINUOUS
10
-78.7676
20
-52.951
11
-78.8295
21
-53.1986
0
LINE
8
BLACK
6
CONTINUOUS
10
-78.8295
20
-53.1986
11
-78.8914
21
-53.3224
0
LINE
8
BLACK
6
CONTINUOUS
10
-78.8914
20
-53.3224
11
-79.0152
21
-53.4462
0
LINE
8
BLACK
6
CONTINUOUS
10
-79.0152
20
-53.4462
11
-79.201
21
-53.5081
0
LINE
8
BLACK
6
CONTINUOUS
10
-79.201
20
-53.5081
11
-79.5105
21
-53.5081
0
LINE
8
BLACK
6
CONTINUOUS
10
196.832
20
72.08
11
194.832
21
72.08
0
LINE
8
BLACK
6
CONTINUOUS
10
196.832
20
22.08
11
194.832
21
22.08
0
LINE
8
BLACK
6
CONTINUOUS
10
196.832
20
-27.92
11
194.832
21
-27.92
0
LINE
8
BLACK
6
CONTINUOUS
10
195.523
20
96.8633
11
196.142
21
96.8633
0
LINE
8
BLACK
6
CONTINUOUS
10
195.399
20
96.4919
11
195.832
21
97.7919
0
LINE
8
BLACK
6
CONTINUOUS
10
195.832
20
97.7919
11
196.266
21
96.4919
0
LINE
8
BLACK
6
CONTINUOUS
10
195.925
20
47.1729
11
196.111
21
47.111
0
LINE
8
BLACK
6
CONTINUOUS
10
196.111
20
47.111
11
196.173
21
47.049
0
LINE
8
BLACK
6
CONTINUOUS
10
196.173
20
47.049
11
196.235
21
46.9252
0
LINE
8
BLACK
6
CONTINUOUS
10
196.235
20
46.9252
11
196.235
21
46.7395
0
LINE
8
BLACK
6
CONTINUOUS
10
196.235
20
46.7395
11
196.173
21
46.6157
0
LINE
8
BLACK
6
CONTINUOUS
10
196.173
20
46.6157
11
196.111
21
46.5538
0
LINE
8
BLACK
6
CONTINUOUS
10
196.111
20
46.5538
11
195.987
21
46.4919
0
LINE
8
BLACK
6
CONTINUOUS
10
195.987
20
46.4919
11
195.492
21
46.4919
0
LINE
8
BLACK
6
CONTINUOUS
10
195.492
20
46.4919
11
195.492
21
47.7919
0
LINE
8
BLACK
6
CONTINUOUS
10
195.492
20
47.7919
11
195.925
21
47.7919
0
LINE
8
BLACK
6
CONTINUOUS
10
195.925
20
47.7919
11
196.049
21
47.73
0
LINE
8
BLACK
6
CONTINUOUS
10
196.049
20
47.73
11
196.111
21
47.6681
0
LINE
8
BLACK
6
CONTINUOUS
10
196.111
20
47.6681
11
196.173
21
47.5443
0
LINE
8
BLACK
6
CONTINUOUS
10
196.173
20
47.5443
11
196.173
21
47.4205
0
LINE
8
BLACK
6
CONTINUOUS
10
196.173
20
47.4205
11
196.111
21
47.2967
0
LINE
8
BLACK
6
CONTINUOUS
10
196.111
20
47.2967
11
196.049
21
47.2348
0
LINE
8
BLACK
6
CONTINUOUS
10
196.049
20
47.2348
11
195.925
21
47.1729
0
LINE
8
BLACK
6
CONTINUOUS
10
195.925
20
47.1729
11
195.492
21
47.1729
0
LINE
8
BLACK
6
CONTINUOUS
10
196.235
20
-3.38428
11
196.173
21
-3.44619
0
LINE
8
BLACK
6
CONTINUOUS
10
196.173
20
-3.44619
11
195.987
21
-3.50809
0
LINE
8
BLACK
6
CONTINUOUS
10
195.987
20
-3.50809
11
195.863
21
-3.50809
0
LINE
8
BLACK
6
CONTINUOUS
10
195.863
20
-3.50809
11
195.677
21
-3.44619
0
LINE
8
BLACK
6
CONTINUOUS
10
195.677
20
-3.44619
11
195.554
21
-3.32238
0
LINE
8
BLACK
6
CONTINUOUS
10
195.554
20
-3.32238
11
195.492
21
-3.19857
0
LINE
8
BLACK
6
CONTINUOUS
10
195.492
20
-3.19857
11
195.43
21
-2.95095
0
LINE
8
BLACK
6
CONTINUOUS
10
195.43
20
-2.95095
11
195.43
21
-2.76524
0
LINE
8
BLACK
6
CONTINUOUS
10
195.43
20
-2.76524
11
195.492
21
-2.51762
0
LINE
8
BLACK
6
CONTINUOUS
10
195.492
20
-2.51762
11
195.554
21
-2.39381
0
LINE
8
BLACK
6
CONTINUOUS
10
195.554
20
-2.39381
11
195.677
21
-2.27
0
LINE
8
BLACK
6
CONTINUOUS
10
195.677
20
-2.27
11
195.863
21
-2.20809
0
LINE
8
BLACK
6
CONTINUOUS
10
195.863
20
-2.20809
11
195.987
21
-2.20809
0
LINE
8
BLACK
6
CONTINUOUS
10
195.987
20
-2.20809
11
196.173
21
-2.27
0
LINE
8
BLACK
6
CONTINUOUS
10
196.173
20
-2.27
11
196.235
21
-2.3319
0
LINE
8
BLACK
6
CONTINUOUS
10
195.492
20
-53.5081
11
195.492
21
-52.2081
0
LINE
8
BLACK
6
CONTINUOUS
10
195.492
20
-52.2081
11
195.801
21
-52.2081
0
LINE
8
BLACK
6
CONTINUOUS
10
195.801
20
-52.2081
11
195.987
21
-52.27
0
LINE
8
BLACK
6
CONTINUOUS
10
195.987
20
-52.27
11
196.111
21
-52.3938
0
LINE
8
BLACK
6
CONTINUOUS
10
196.111
20
-52.3938
11
196.173
21
-52.5176
0
LINE
8
BLACK
6
CONTINUOUS
10
196.173
20
-52.5176
11
196.235
21
-52.7652
0
LINE
8
BLACK
6
CONTINUOUS
10
196.235
20
-52.7652
11
196.235
21
-52.951
0
LINE
8
BLACK
6
CONTINUOUS
10
196.235
20
-52.951
11
196.173
21
-53.1986
0
LINE
8
BLACK
6
CONTINUOUS
10
196.173
20
-53.1986
11
196.111
21
-53.3224
0
LINE
8
BLACK
6
CONTINUOUS
10
196.111
20
-53.3224
11
195.987
21
-53.4462
0
LINE
8
BLACK
6
CONTINUOUS
10
195.987
20
-53.4462
11
195.801
21
-53.5081
0
LINE
8
BLACK
6
CONTINUOUS
10
195.801
20
-53.5081
11
195.492
21
-53.5081
0
LINE
8
BLACK
6
CONTINUOUS
10
110.264
20
-61.7058
11
110.264
21
-60.2058
0
LINE
8
BLACK
6
CONTINUOUS
10
110.264
20
-60.2058
11
110.621
21
-60.2058
0
LINE
8
BLACK
6
CONTINUOUS
10
110.621
20
-60.2058
11
110.836
21
-60.2772
0
LINE
8
BLACK
6
CONTINUOUS
10
110.836
20
-60.2772
11
110.979
21
-60.4201
0
LINE
8
BLACK
6
CONTINUOUS
10
110.979
20
-60.4201
11
111.05
21
-60.5629
0
LINE
8
BLACK
6
CONTINUOUS
10
111.05
20
-60.5629
11
111.121
21
-60.8486
0
LINE
8
BLACK
6
CONTINUOUS
10
111.121
20
-60.8486
11
111.121
21
-61.0629
0
LINE
8
BLACK
6
CONTINUOUS
10
111.121
20
-61.0629
11
111.05
21
-61.3486
0
LINE
8
BLACK
6
CONTINUOUS
10
111.05
20
-61.3486
11
110.979
21
-61.4915
0
LINE
8
BLACK
6
CONTINUOUS
10
110.979
20
-61.4915
11
110.836
21
-61.6343
0
LINE
8
BLACK
6
CONTINUOUS
10
110.836
20
-61.6343
11
110.621
21
-61.7058
0
LINE
8
BLACK
6
CONTINUOUS
10
110.621
20
-61.7058
11
110.264
21
-61.7058
0
LINE
8
BLACK
6
CONTINUOUS
10
112.407
20
-61.7058
11
112.407
21
-60.9201
0
LINE
8
BLACK
6
CONTINUOUS
10
112.407
20
-60.9201
11
112.336
21
-60.7772
0
LINE
8
BLACK
6
CONTINUOUS
10
112.336
20
-60.7772
11
112.193
21
-60.7058
0
LINE
8
BLACK
6
CONTINUOUS
10
112.193
20
-60.7058
11
111.907
21
-60.7058
0
LINE
8
BLACK
6
CONTINUOUS
10
111.907
20
-60.7058
11
111.764
21
-60.7772
0
LINE
8
BLACK
6
CONTINUOUS
10
112.407
20
-61.6343
11
112.264
21
-61.7058
0
LINE
8
BLACK
6
CONTINUOUS
10
112.264
20
-61.7058
11
111.907
21
-61.7058
0
LINE
8
BLACK
6
CONTINUOUS
10
111.907
20
-61.7058
11
111.764
21
-61.6343
0
LINE
8
BLACK
6
CONTINUOUS
10
111.764
20
-61.6343
11
111.693
21
-61.4915
0
LINE
8
BLACK
6
CONTINUOUS
10
111.693
20
-61.4915
11
111.693
21
-61.3486
0
LINE
8
BLACK
6
CONTINUOUS
10
111.693
20
-61.3486
11
111.764
21
-61.2058
0
LINE
8
BLACK
6
CONTINUOUS
10
111.764
20
-61.2058
11
111.907
21
-61.1343
0
LINE
8
BLACK
6
CONTINUOUS
10
111.907
20
-61.1343
11
112.264
21
-61.1343
0
LINE
8
BLACK
6
CONTINUOUS
10
112.264
20
-61.1343
11
112.407
21
-61.0629
0
LINE
8
BLACK
6
CONTINUOUS
10
112.907
20
-60.7058
11
113.479
21
-60.7058
0
LINE
8
BLACK
6
CONTINUOUS
10
113.121
20
-60.2058
11
113.121
21
-61.4915
0
LINE
8
BLACK
6
CONTINUOUS
10
113.121
20
-61.4915
11
113.193
21
-61.6343
0
LINE
8
BLACK
6
CONTINUOUS
10
113.193
20
-61.6343
11
113.336
21
-61.7058
0
LINE
8
BLACK
6
CONTINUOUS
10
113.336
20
-61.7058
11
113.479
21
-61.7058
0
LINE
8
BLACK
6
CONTINUOUS
10
114.55
20
-61.6343
11
114.407
21
-61.7058
0
LINE
8
BLACK
6
CONTINUOUS
10
114.407
20
-61.7058
11
114.121
21
-61.7058
0
LINE
8
BLACK
6
CONTINUOUS
10
114.121
20
-61.7058
11
113.979
21
-61.6343
0
LINE
8
BLACK
6
CONTINUOUS
10
113.979
20
-61.6343
11
113.907
21
-61.4915
0
LINE
8
BLACK
6
CONTINUOUS
10
113.907
20
-61.4915
11
113.907
21
-60.9201
0
LINE
8
BLACK
6
CONTINUOUS
10
113.907
20
-60.9201
11
113.979
21
-60.7772
0
LINE
8
BLACK
6
CONTINUOUS
10
113.979
20
-60.7772
11
114.121
21
-60.7058
0
LINE
8
BLACK
6
CONTINUOUS
10
114.121
20
-60.7058
11
114.407
21
-60.7058
0
LINE
8
BLACK
6
CONTINUOUS
10
114.407
20
-60.7058
11
114.55
21
-60.7772
0
LINE
8
BLACK
6
CONTINUOUS
10
114.55
20
-60.7772
11
114.621
21
-60.9201
0
LINE
8
BLACK
6
CONTINUOUS
10
114.621
20
-60.9201
11
114.621
21
-61.0629
0
LINE
8
BLACK
6
CONTINUOUS
10
114.621
20
-61.0629
11
113.907
21
-61.2058
0
LINE
8
BLACK
6
CONTINUOUS
10
115.264
20
-61.5629
11
115.336
21
-61.6343
0
LINE
8
BLACK
6
CONTINUOUS
10
115.336
20
-61.6343
11
115.264
21
-61.7058
0
LINE
8
BLACK
6
CONTINUOUS
10
115.264
20
-61.7058
11
115.193
21
-61.6343
0
LINE
8
BLACK
6
CONTINUOUS
10
115.193
20
-61.6343
11
115.264
21
-61.5629
0
LINE
8
BLACK
6
CONTINUOUS
10
115.264
20
-61.5629
11
115.264
21
-61.7058
0
LINE
8
BLACK
6
CONTINUOUS
10
115.264
20
-60.7772
11
115.336
21
-60.8486
0
LINE
8
BLACK
6
CONTINUOUS
10
115.336
20
-60.8486
11
115.264
21
-60.9201
0
LINE
8
BLACK
6
CONTINUOUS
10
115.264
20
-60.9201
11
115.193
21
-60.8486
0
LINE
8
BLACK
6
CONTINUOUS
10
115.193
20
-60.8486
11
115.264
21
-60.7772
0
LINE
8
BLACK
6
CONTINUOUS
10
115.264
20
-60.7772
11
115.264
21
-60.9201
0
LINE
8
BLACK
6
CONTINUOUS
10
86.8322
20
-62.4272
11
194.832
21
-62.4272
0
LINE
8
BLACK
6
CONTINUOUS
10
88.2643
20
-64.5058
11
88.2643
21
-63.0058
0
LINE
8
BLACK
6
CONTINUOUS
10
89.1215
20
-64.5058
11
88.4786
21
-63.6486
0
LINE
8
BLACK
6
CONTINUOUS
10
89.1215
20
-63.0058
11
88.2643
21
-63.8629
0
LINE
8
BLACK
6
CONTINUOUS
10
89.7643
20
-64.5058
11
89.7643
21
-63.5058
0
LINE
8
BLACK
6
CONTINUOUS
10
89.7643
20
-63.0058
11
89.6929
21
-63.0772
0
LINE
8
BLACK
6
CONTINUOUS
10
89.6929
20
-63.0772
11
89.7643
21
-63.1486
0
LINE
8
BLACK
6
CONTINUOUS
10
89.7643
20
-63.1486
11
89.8358
21
-63.0772
0
LINE
8
BLACK
6
CONTINUOUS
10
89.8358
20
-63.0772
11
89.7643
21
-63.0058
0
LINE
8
BLACK
6
CONTINUOUS
10
89.7643
20
-63.0058
11
89.7643
21
-63.1486
0
LINE
8
BLACK
6
CONTINUOUS
10
91.3358
20
-64.3629
11
91.2643
21
-64.4343
0
LINE
8
BLACK
6
CONTINUOUS
10
91.2643
20
-64.4343
11
91.0501
21
-64.5058
0
LINE
8
BLACK
6
CONTINUOUS
10
91.0501
20
-64.5058
11
90.9072
21
-64.5058
0
LINE
8
BLACK
6
CONTINUOUS
10
90.9072
20
-64.5058
11
90.6929
21
-64.4343
0
LINE
8
BLACK
6
CONTINUOUS
10
90.6929
20
-64.4343
11
90.5501
21
-64.2915
0
LINE
8
BLACK
6
CONTINUOUS
10
90.5501
20
-64.2915
11
90.4786
21
-64.1486
0
LINE
8
BLACK
6
CONTINUOUS
10
90.4786
20
-64.1486
11
90.4072
21
-63.8629
0
LINE
8
BLACK
6
CONTINUOUS
10
90.4072
20
-63.8629
11
90.4072
21
-63.6486
0
LINE
8
BLACK
6
CONTINUOUS
10
90.4072
20
-63.6486
11
90.4786
21
-63.3629
0
LINE
8
BLACK
6
CONTINUOUS
10
90.4786
20
-63.3629
11
90.5501
21
-63.2201
0
LINE
8
BLACK
6
CONTINUOUS
10
90.5501
20
-63.2201
11
90.6929
21
-63.0772
0
LINE
8
BLACK
6
CONTINUOUS
10
90.6929
20
-63.0772
11
90.9072
21
-63.0058
0
LINE
8
BLACK
6
CONTINUOUS
10
90.9072
20
-63.0058
11
91.0501
21
-63.0058
0
LINE
8
BLACK
6
CONTINUOUS
10
91.0501
20
-63.0058
11
91.2643
21
-63.0772
0
LINE
8
BLACK
6
CONTINUOUS
10
91.2643
20
-63.0772
11
91.3358
21
-63.1486
0
LINE
8
BLACK
6
CONTINUOUS
10
92.6215
20
-64.5058
11
92.6215
21
-63.7201
0
LINE
8
BLACK
6
CONTINUOUS
10
92.6215
20
-63.7201
11
92.5501
21
-63.5772
0
LINE
8
BLACK
6
CONTINUOUS
10
92.5501
20
-63.5772
11
92.4072
21
-63.5058
0
LINE
8
BLACK
6
CONTINUOUS
10
92.4072
20
-63.5058
11
92.1215
21
-63.5058
0
LINE
8
BLACK
6
CONTINUOUS
10
92.1215
20
-63.5058
11
91.9786
21
-63.5772
0
LINE
8
BLACK
6
CONTINUOUS
10
92.6215
20
-64.4343
11
92.4786
21
-64.5058
0
LINE
8
BLACK
6
CONTINUOUS
10
92.4786
20
-64.5058
11
92.1215
21
-64.5058
0
LINE
8
BLACK
6
CONTINUOUS
10
92.1215
20
-64.5058
11
91.9786
21
-64.4343
0
LINE
8
BLACK
6
CONTINUOUS
10
91.9786
20
-64.4343
11
91.9072
21
-64.2915
0
LINE
8
BLACK
6
CONTINUOUS
10
91.9072
20
-64.2915
11
91.9072
21
-64.1486
0
LINE
8
BLACK
6
CONTINUOUS
10
91.9072
20
-64.1486
11
91.9786
21
-64.0058
0
LINE
8
BLACK
6
CONTINUOUS
10
91.9786
20
-64.0058
11
92.1215
21
-63.9343
0
LINE
8
BLACK
6
CONTINUOUS
10
92.1215
20
-63.9343
11
92.4786
21
-63.9343
0
LINE
8
BLACK
6
CONTINUOUS
10
92.4786
20
-63.9343
11
92.6215
21
-63.8629
0
LINE
8
BLACK
6
CONTINUOUS
10
93.9786
20
-64.5058
11
93.9786
21
-63.0058
0
LINE
8
BLACK
6
CONTINUOUS
10
93.9786
20
-64.4343
11
93.8358
21
-64.5058
0
LINE
8
BLACK
6
CONTINUOUS
10
93.8358
20
-64.5058
11
93.5501
21
-64.5058
0
LINE
8
BLACK
6
CONTINUOUS
10
93.5501
20
-64.5058
11
93.4072
21
-64.4343
0
LINE
8
BLACK
6
CONTINUOUS
10
93.4072
20
-64.4343
11
93.3358
21
-64.3629
0
LINE
8
BLACK
6
CONTINUOUS
10
93.3358
20
-64.3629
11
93.2643
21
-64.2201
0
LINE
8
BLACK
6
CONTINUOUS
10
93.2643
20
-64.2201
11
93.2643
21
-63.7915
0
LINE
8
BLACK
6
CONTINUOUS
10
93.2643
20
-63.7915
11
93.3358
21
-63.6486
0
LINE
8
BLACK
6
CONTINUOUS
10
93.3358
20
-63.6486
11
93.4072
21
-63.5772
0
LINE
8
BLACK
6
CONTINUOUS
10
93.4072
20
-63.5772
11
93.5501
21
-63.5058
0
LINE
8
BLACK
6
CONTINUOUS
10
93.5501
20
-63.5058
11
93.8358
21
-63.5058
0
LINE
8
BLACK
6
CONTINUOUS
10
93.8358
20
-63.5058
11
93.9786
21
-63.5772
0
LINE
8
BLACK
6
CONTINUOUS
10
95.8358
20
-63.7201
11
96.3358
21
-63.7201
0
LINE
8
BLACK
6
CONTINUOUS
10
96.5501
20
-64.5058
11
95.8358
21
-64.5058
0
LINE
8
BLACK
6
CONTINUOUS
10
95.8358
20
-64.5058
11
95.8358
21
-63.0058
0
LINE
8
BLACK
6
CONTINUOUS
10
95.8358
20
-63.0058
11
96.5501
21
-63.0058
0
LINE
8
BLACK
6
CONTINUOUS
10
97.1929
20
-64.3629
11
97.2643
21
-64.4343
0
LINE
8
BLACK
6
CONTINUOUS
10
97.2643
20
-64.4343
11
97.1929
21
-64.5058
0
LINE
8
BLACK
6
CONTINUOUS
10
97.1929
20
-64.5058
11
97.1215
21
-64.4343
0
LINE
8
BLACK
6
CONTINUOUS
10
97.1215
20
-64.4343
11
97.1929
21
-64.3629
0
LINE
8
BLACK
6
CONTINUOUS
10
97.1929
20
-64.3629
11
97.1929
21
-64.5058
0
LINE
8
BLACK
6
CONTINUOUS
10
97.9072
20
-64.5058
11
97.9072
21
-63.0058
0
LINE
8
BLACK
6
CONTINUOUS
10
97.9072
20
-63.0058
11
98.2643
21
-63.0058
0
LINE
8
BLACK
6
CONTINUOUS
10
98.2643
20
-63.0058
11
98.4786
21
-63.0772
0
LINE
8
BLACK
6
CONTINUOUS
10
98.4786
20
-63.0772
11
98.6215
21
-63.2201
0
LINE
8
BLACK
6
CONTINUOUS
10
98.6215
20
-63.2201
11
98.6929
21
-63.3629
0
LINE
8
BLACK
6
CONTINUOUS
10
98.6929
20
-63.3629
11
98.7643
21
-63.6486
0
LINE
8
BLACK
6
CONTINUOUS
10
98.7643
20
-63.6486
11
98.7643
21
-63.8629
0
LINE
8
BLACK
6
CONTINUOUS
10
98.7643
20
-63.8629
11
98.6929
21
-64.1486
0
LINE
8
BLACK
6
CONTINUOUS
10
98.6929
20
-64.1486
11
98.6215
21
-64.2915
0
LINE
8
BLACK
6
CONTINUOUS
10
98.6215
20
-64.2915
11
98.4786
21
-64.4343
0
LINE
8
BLACK
6
CONTINUOUS
10
98.4786
20
-64.4343
11
98.2643
21
-64.5058
0
LINE
8
BLACK
6
CONTINUOUS
10
98.2643
20
-64.5058
11
97.9072
21
-64.5058
0
LINE
8
BLACK
6
CONTINUOUS
10
99.4072
20
-64.3629
11
99.4786
21
-64.4343
0
LINE
8
BLACK
6
CONTINUOUS
10
99.4786
20
-64.4343
11
99.4072
21
-64.5058
0
LINE
8
BLACK
6
CONTINUOUS
10
99.4072
20
-64.5058
11
99.3358
21
-64.4343
0
LINE
8
BLACK
6
CONTINUOUS
10
99.3358
20
-64.4343
11
99.4072
21
-64.3629
0
LINE
8
BLACK
6
CONTINUOUS
10
99.4072
20
-64.3629
11
99.4072
21
-64.5058
0
LINE
8
BLACK
6
CONTINUOUS
10
100.05
20
-64.0772
11
100.764
21
-64.0772
0
LINE
8
BLACK
6
CONTINUOUS
10
99.9072
20
-64.5058
11
100.407
21
-63.0058
0
LINE
8
BLACK
6
CONTINUOUS
10
100.407
20
-63.0058
11
100.907
21
-64.5058
0
LINE
8
BLACK
6
CONTINUOUS
10
101.407
20
-64.3629
11
101.479
21
-64.4343
0
LINE
8
BLACK
6
CONTINUOUS
10
101.479
20
-64.4343
11
101.407
21
-64.5058
0
LINE
8
BLACK
6
CONTINUOUS
10
101.407
20
-64.5058
11
101.336
21
-64.4343
0
LINE
8
BLACK
6
CONTINUOUS
10
101.336
20
-64.4343
11
101.407
21
-64.3629
0
LINE
8
BLACK
6
CONTINUOUS
10
101.407
20
-64.3629
11
101.407
21
-64.5058
0
LINE
8
BLACK
6
CONTINUOUS
10
104.407
20
-64.5058
11
104.407
21
-63.0058
0
LINE
8
BLACK
6
CONTINUOUS
10
104.55
20
-63.9343
11
104.979
21
-64.5058
0
LINE
8
BLACK
6
CONTINUOUS
10
104.979
20
-63.5058
11
104.407
21
-64.0772
0
LINE
8
BLACK
6
CONTINUOUS
10
105.621
20
-64.5058
11
105.621
21
-63.5058
0
LINE
8
BLACK
6
CONTINUOUS
10
105.621
20
-63.0058
11
105.55
21
-63.0772
0
LINE
8
BLACK
6
CONTINUOUS
10
105.55
20
-63.0772
11
105.621
21
-63.1486
0
LINE
8
BLACK
6
CONTINUOUS
10
105.621
20
-63.1486
11
105.693
21
-63.0772
0
LINE
8
BLACK
6
CONTINUOUS
10
105.693
20
-63.0772
11
105.621
21
-63.0058
0
LINE
8
BLACK
6
CONTINUOUS
10
105.621
20
-63.0058
11
105.621
21
-63.1486
0
LINE
8
BLACK
6
CONTINUOUS
10
106.979
20
-64.4343
11
106.836
21
-64.5058
0
LINE
8
BLACK
6
CONTINUOUS
10
106.836
20
-64.5058
11
106.55
21
-64.5058
0
LINE
8
BLACK
6
CONTINUOUS
10
106.55
20
-64.5058
11
106.407
21
-64.4343
0
LINE
8
BLACK
6
CONTINUOUS
10
106.407
20
-64.4343
11
106.336
21
-64.3629
0
LINE
8
BLACK
6
CONTINUOUS
10
106.336
20
-64.3629
11
106.264
21
-64.2201
0
LINE
8
BLACK
6
CONTINUOUS
10
106.264
20
-64.2201
11
106.264
21
-63.7915
0
LINE
8
BLACK
6
CONTINUOUS
10
106.264
20
-63.7915
11
106.336
21
-63.6486
0
LINE
8
BLACK
6
CONTINUOUS
10
106.336
20
-63.6486
11
106.407
21
-63.5772
0
LINE
8
BLACK
6
CONTINUOUS
10
106.407
20
-63.5772
11
106.55
21
-63.5058
0
LINE
8
BLACK
6
CONTINUOUS
10
106.55
20
-63.5058
11
106.836
21
-63.5058
0
LINE
8
BLACK
6
CONTINUOUS
10
106.836
20
-63.5058
11
106.979
21
-63.5772
0
LINE
8
BLACK
6
CONTINUOUS
10
108.264
20
-64.5058
11
108.264
21
-63.7201
0
LINE
8
BLACK
6
CONTINUOUS
10
108.264
20
-63.7201
11
108.193
21
-63.5772
0
LINE
8
BLACK
6
CONTINUOUS
10
108.193
20
-63.5772
11
108.05
21
-63.5058
0
LINE
8
BLACK
6
CONTINUOUS
10
108.05
20
-63.5058
11
107.764
21
-63.5058
0
LINE
8
BLACK
6
CONTINUOUS
10
107.764
20
-63.5058
11
107.621
21
-63.5772
0
LINE
8
BLACK
6
CONTINUOUS
10
108.264
20
-64.4343
11
108.121
21
-64.5058
0
LINE
8
BLACK
6
CONTINUOUS
10
108.121
20
-64.5058
11
107.764
21
-64.5058
0
LINE
8
BLACK
6
CONTINUOUS
10
107.764
20
-64.5058
11
107.621
21
-64.4343
0
LINE
8
BLACK
6
CONTINUOUS
10
107.621
20
-64.4343
11
107.55
21
-64.2915
0
LINE
8
BLACK
6
CONTINUOUS
10
107.55
20
-64.2915
11
107.55
21
-64.1486
0
LINE
8
BLACK
6
CONTINUOUS
10
107.55
20
-64.1486
11
107.621
21
-64.0058
0
LINE
8
BLACK
6
CONTINUOUS
10
107.621
20
-64.0058
11
107.764
21
-63.9343
0
LINE
8
BLACK
6
CONTINUOUS
10
107.764
20
-63.9343
11
108.121
21
-63.9343
0
LINE
8
BLACK
6
CONTINUOUS
10
108.121
20
-63.9343
11
108.264
21
-63.8629
0
LINE
8
BLACK
6
CONTINUOUS
10
109.621
20
-64.5058
11
109.621
21
-63.0058
0
LINE
8
BLACK
6
CONTINUOUS
10
109.621
20
-64.4343
11
109.479
21
-64.5058
0
LINE
8
BLACK
6
CONTINUOUS
10
109.479
20
-64.5058
11
109.193
21
-64.5058
0
LINE
8
BLACK
6
CONTINUOUS
10
109.193
20
-64.5058
11
109.05
21
-64.4343
0
LINE
8
BLACK
6
CONTINUOUS
10
109.05
20
-64.4343
11
108.979
21
-64.3629
0
LINE
8
BLACK
6
CONTINUOUS
10
108.979
20
-64.3629
11
108.907
21
-64.2201
0
LINE
8
BLACK
6
CONTINUOUS
10
108.907
20
-64.2201
11
108.907
21
-63.7915
0
LINE
8
BLACK
6
CONTINUOUS
10
108.907
20
-63.7915
11
108.979
21
-63.6486
0
LINE
8
BLACK
6
CONTINUOUS
10
108.979
20
-63.6486
11
109.05
21
-63.5772
0
LINE
8
BLACK
6
CONTINUOUS
10
109.05
20
-63.5772
11
109.193
21
-63.5058
0
LINE
8
BLACK
6
CONTINUOUS
10
109.193
20
-63.5058
11
109.479
21
-63.5058
0
LINE
8
BLACK
6
CONTINUOUS
10
109.479
20
-63.5058
11
109.621
21
-63.5772
0
LINE
8
BLACK
6
CONTINUOUS
10
112.193
20
-63.0058
11
111.479
21
-63.0058
0
LINE
8
BLACK
6
CONTINUOUS
10
111.479
20
-63.0058
11
111.407
21
-63.7201
0
LINE
8
BLACK
6
CONTINUOUS
10
111.407
20
-63.7201
11
111.479
21
-63.6486
0
LINE
8
BLACK
6
CONTINUOUS
10
111.479
20
-63.6486
11
111.621
21
-63.5772
0
LINE
8
BLACK
6
CONTINUOUS
10
111.621
20
-63.5772
11
111.979
21
-63.5772
0
LINE
8
BLACK
6
CONTINUOUS
10
111.979
20
-63.5772
11
112.121
21
-63.6486
0
LINE
8
BLACK
6
CONTINUOUS
10
112.121
20
-63.6486
11
112.193
21
-63.7201
0
LINE
8
BLACK
6
CONTINUOUS
10
112.193
20
-63.7201
11
112.264
21
-63.8629
0
LINE
8
BLACK
6
CONTINUOUS
10
112.264
20
-63.8629
11
112.264
21
-64.2201
0
LINE
8
BLACK
6
CONTINUOUS
10
112.264
20
-64.2201
11
112.193
21
-64.3629
0
LINE
8
BLACK
6
CONTINUOUS
10
112.193
20
-64.3629
11
112.121
21
-64.4343
0
LINE
8
BLACK
6
CONTINUOUS
10
112.121
20
-64.4343
11
111.979
21
-64.5058
0
LINE
8
BLACK
6
CONTINUOUS
10
111.979
20
-64.5058
11
111.621
21
-64.5058
0
LINE
8
BLACK
6
CONTINUOUS
10
111.621
20
-64.5058
11
111.479
21
-64.4343
0
LINE
8
BLACK
6
CONTINUOUS
10
111.479
20
-64.4343
11
111.407
21
-64.3629
0
LINE
8
BLACK
6
CONTINUOUS
10
112.907
20
-64.3629
11
112.979
21
-64.4343
0
LINE
8
BLACK
6
CONTINUOUS
10
112.979
20
-64.4343
11
112.907
21
-64.5058
0
LINE
8
BLACK
6
CONTINUOUS
10
112.907
20
-64.5058
11
112.836
21
-64.4343
0
LINE
8
BLACK
6
CONTINUOUS
10
112.836
20
-64.4343
11
112.907
21
-64.3629
0
LINE
8
BLACK
6
CONTINUOUS
10
112.907
20
-64.3629
11
112.907
21
-64.5058
0
LINE
8
BLACK
6
CONTINUOUS
10
113.907
20
-63.0058
11
114.05
21
-63.0058
0
LINE
8
BLACK
6
CONTINUOUS
10
114.05
20
-63.0058
11
114.193
21
-63.0772
0
LINE
8
BLACK
6
CONTINUOUS
10
114.193
20
-63.0772
11
114.264
21
-63.1486
0
LINE
8
BLACK
6
CONTINUOUS
10
114.264
20
-63.1486
11
114.336
21
-63.2915
0
LINE
8
BLACK
6
CONTINUOUS
10
114.336
20
-63.2915
11
114.407
21
-63.5772
0
LINE
8
BLACK
6
CONTINUOUS
10
114.407
20
-63.5772
11
114.407
21
-63.9343
0
LINE
8
BLACK
6
CONTINUOUS
10
114.407
20
-63.9343
11
114.336
21
-64.2201
0
LINE
8
BLACK
6
CONTINUOUS
10
114.336
20
-64.2201
11
114.264
21
-64.3629
0
LINE
8
BLACK
6
CONTINUOUS
10
114.264
20
-64.3629
11
114.193
21
-64.4343
0
LINE
8
BLACK
6
CONTINUOUS
10
114.193
20
-64.4343
11
114.05
21
-64.5058
0
LINE
8
BLACK
6
CONTINUOUS
10
114.05
20
-64.5058
11
113.907
21
-64.5058
0
LINE
8
BLACK
6
CONTINUOUS
10
113.907
20
-64.5058
11
113.764
21
-64.4343
0
LINE
8
BLACK
6
CONTINUOUS
10
113.764
20
-64.4343
11
113.693
21
-64.3629
0
LINE
8
BLACK
6
CONTINUOUS
10
113.693
20
-64.3629
11
113.621
21
-64.2201
0
LINE
8
BLACK
6
CONTINUOUS
10
113.621
20
-64.2201
11
113.55
21
-63.9343
0
LINE
8
BLACK
6
CONTINUOUS
10
113.55
20
-63.9343
11
113.55
21
-63.5772
0
LINE
8
BLACK
6
CONTINUOUS
10
113.55
20
-63.5772
11
113.621
21
-63.2915
0
LINE
8
BLACK
6
CONTINUOUS
10
113.621
20
-63.2915
11
113.693
21
-63.1486
0
LINE
8
BLACK
6
CONTINUOUS
10
113.693
20
-63.1486
11
113.764
21
-63.0772
0
LINE
8
BLACK
6
CONTINUOUS
10
113.764
20
-63.0772
11
113.907
21
-63.0058
0
LINE
8
BLACK
6
CONTINUOUS
10
115.05
20
-64.3629
11
115.121
21
-64.4343
0
LINE
8
BLACK
6
CONTINUOUS
10
115.121
20
-64.4343
11
115.05
21
-64.5058
0
LINE
8
BLACK
6
CONTINUOUS
10
115.05
20
-64.5058
11
114.979
21
-64.4343
0
LINE
8
BLACK
6
CONTINUOUS
10
114.979
20
-64.4343
11
115.05
21
-64.3629
0
LINE
8
BLACK
6
CONTINUOUS
10
115.05
20
-64.3629
11
115.05
21
-64.5058
0
LINE
8
BLACK
6
CONTINUOUS
10
116.05
20
-63.0058
11
116.193
21
-63.0058
0
LINE
8
BLACK
6
CONTINUOUS
10
116.193
20
-63.0058
11
116.336
21
-63.0772
0
LINE
8
BLACK
6
CONTINUOUS
10
116.336
20
-63.0772
11
116.407
21
-63.1486
0
LINE
8
BLACK
6
CONTINUOUS
10
116.407
20
-63.1486
11
116.479
21
-63.2915
0
LINE
8
BLACK
6
CONTINUOUS
10
116.479
20
-63.2915
11
116.55
21
-63.5772
0
LINE
8
BLACK
6
CONTINUOUS
10
116.55
20
-63.5772
11
116.55
21
-63.9343
0
LINE
8
BLACK
6
CONTINUOUS
10
116.55
20
-63.9343
11
116.479
21
-64.2201
0
LINE
8
BLACK
6
CONTINUOUS
10
116.479
20
-64.2201
11
116.407
21
-64.3629
0
LINE
8
BLACK
6
CONTINUOUS
10
116.407
20
-64.3629
11
116.336
21
-64.4343
0
LINE
8
BLACK
6
CONTINUOUS
10
116.336
20
-64.4343
11
116.193
21
-64.5058
0
LINE
8
BLACK
6
CONTINUOUS
10
116.193
20
-64.5058
11
116.05
21
-64.5058
0
LINE
8
BLACK
6
CONTINUOUS
10
116.05
20
-64.5058
11
115.907
21
-64.4343
0
LINE
8
BLACK
6
CONTINUOUS
10
115.907
20
-64.4343
11
115.836
21
-64.3629
0
LINE
8
BLACK
6
CONTINUOUS
10
115.836
20
-64.3629
11
115.764
21
-64.2201
0
LINE
8
BLACK
6
CONTINUOUS
10
115.764
20
-64.2201
11
115.693
21
-63.9343
0
LINE
8
BLACK
6
CONTINUOUS
10
115.693
20
-63.9343
11
115.693
21
-63.5772
0
LINE
8
BLACK
6
CONTINUOUS
10
115.693
20
-63.5772
11
115.764
21
-63.2915
0
LINE
8
BLACK
6
CONTINUOUS
10
115.764
20
-63.2915
11
115.836
21
-63.1486
0
LINE
8
BLACK
6
CONTINUOUS
10
115.836
20
-63.1486
11
115.907
21
-63.0772
0
LINE
8
BLACK
6
CONTINUOUS
10
115.907
20
-63.0772
11
116.05
21
-63.0058
0
LINE
8
BLACK
6
CONTINUOUS
10
117.193
20
-63.9343
11
118.336
21
-63.9343
0
LINE
8
BLACK
6
CONTINUOUS
10
117.764
20
-64.5058
11
117.764
21
-63.3629
0
LINE
8
BLACK
6
CONTINUOUS
10
119.693
20
-64.5058
11
119.693
21
-63.0058
0
LINE
8
BLACK
6
CONTINUOUS
10
119.693
20
-64.4343
11
119.55
21
-64.5058
0
LINE
8
BLACK
6
CONTINUOUS
10
119.55
20
-64.5058
11
119.264
21
-64.5058
0
LINE
8
BLACK
6
CONTINUOUS
10
119.264
20
-64.5058
11
119.121
21
-64.4343
0
LINE
8
BLACK
6
CONTINUOUS
10
119.121
20
-64.4343
11
119.05
21
-64.3629
0
LINE
8
BLACK
6
CONTINUOUS
10
119.05
20
-64.3629
11
118.979
21
-64.2201
0
LINE
8
BLACK
6
CONTINUOUS
10
118.979
20
-64.2201
11
118.979
21
-63.7915
0
LINE
8
BLACK
6
CONTINUOUS
10
118.979
20
-63.7915
11
119.05
21
-63.6486
0
LINE
8
BLACK
6
CONTINUOUS
10
119.05
20
-63.6486
11
119.121
21
-63.5772
0
LINE
8
BLACK
6
CONTINUOUS
10
119.121
20
-63.5772
11
119.264
21
-63.5058
0
LINE
8
BLACK
6
CONTINUOUS
10
119.264
20
-63.5058
11
119.55
21
-63.5058
0
LINE
8
BLACK
6
CONTINUOUS
10
119.55
20
-63.5058
11
119.693
21
-63.5772
0
LINE
8
BLACK
6
CONTINUOUS
10
120.193
20
-63.5058
11
120.764
21
-63.5058
0
LINE
8
BLACK
6
CONTINUOUS
10
120.407
20
-64.5058
11
120.407
21
-63.2201
0
LINE
8
BLACK
6
CONTINUOUS
10
120.407
20
-63.2201
11
120.479
21
-63.0772
0
LINE
8
BLACK
6
CONTINUOUS
10
120.479
20
-63.0772
11
120.621
21
-63.0058
0
LINE
8
BLACK
6
CONTINUOUS
10
120.621
20
-63.0058
11
120.764
21
-63.0058
0
LINE
8
BLACK
6
CONTINUOUS
10
121.193
20
-64.4343
11
121.336
21
-64.5058
0
LINE
8
BLACK
6
CONTINUOUS
10
121.336
20
-64.5058
11
121.621
21
-64.5058
0
LINE
8
BLACK
6
CONTINUOUS
10
121.621
20
-64.5058
11
121.764
21
-64.4343
0
LINE
8
BLACK
6
CONTINUOUS
10
121.764
20
-64.4343
11
121.836
21
-64.2915
0
LINE
8
BLACK
6
CONTINUOUS
10
121.836
20
-64.2915
11
121.836
21
-64.2201
0
LINE
8
BLACK
6
CONTINUOUS
10
121.836
20
-64.2201
11
121.764
21
-64.0772
0
LINE
8
BLACK
6
CONTINUOUS
10
121.764
20
-64.0772
11
121.621
21
-64.0058
0
LINE
8
BLACK
6
CONTINUOUS
10
121.621
20
-64.0058
11
121.407
21
-64.0058
0
LINE
8
BLACK
6
CONTINUOUS
10
121.407
20
-64.0058
11
121.264
21
-63.9343
0
LINE
8
BLACK
6
CONTINUOUS
10
121.264
20
-63.9343
11
121.193
21
-63.7915
0
LINE
8
BLACK
6
CONTINUOUS
10
121.193
20
-63.7915
11
121.193
21
-63.7201
0
LINE
8
BLACK
6
CONTINUOUS
10
121.193
20
-63.7201
11
121.264
21
-63.5772
0
LINE
8
BLACK
6
CONTINUOUS
10
121.264
20
-63.5772
11
121.407
21
-63.5058
0
LINE
8
BLACK
6
CONTINUOUS
10
121.407
20
-63.5058
11
121.621
21
-63.5058
0
LINE
8
BLACK
6
CONTINUOUS
10
121.621
20
-63.5058
11
121.764
21
-63.5772
0
LINE
8
BLACK
6
CONTINUOUS
10
123.121
20
-63.5058
11
123.121
21
-64.7201
0
LINE
8
BLACK
6
CONTINUOUS
10
123.121
20
-64.7201
11
123.05
21
-64.8629
0
LINE
8
BLACK
6
CONTINUOUS
10
123.05
20
-64.8629
11
122.979
21
-64.9343
0
LINE
8
BLACK
6
CONTINUOUS
10
122.979
20
-64.9343
11
122.836
21
-65.0058
0
LINE
8
BLACK
6
CONTINUOUS
10
122.836
20
-65.0058
11
122.621
21
-65.0058
0
LINE
8
BLACK
6
CONTINUOUS
10
122.621
20
-65.0058
11
122.479
21
-64.9343
0
LINE
8
BLACK
6
CONTINUOUS
10
123.121
20
-64.4343
11
122.979
21
-64.5058
0
LINE
8
BLACK
6
CONTINUOUS
10
122.979
20
-64.5058
11
122.693
21
-64.5058
0
LINE
8
BLACK
6
CONTINUOUS
10
122.693
20
-64.5058
11
122.55
21
-64.4343
0
LINE
8
BLACK
6
CONTINUOUS
10
122.55
20
-64.4343
11
122.479
21
-64.3629
0
LINE
8
BLACK
6
CONTINUOUS
10
122.479
20
-64.3629
11
122.407
21
-64.2201
0
LINE
8
BLACK
6
CONTINUOUS
10
122.407
20
-64.2201
11
122.407
21
-63.7915
0
LINE
8
BLACK
6
CONTINUOUS
10
122.407
20
-63.7915
11
122.479
21
-63.6486
0
LINE
8
BLACK
6
CONTINUOUS
10
122.479
20
-63.6486
11
122.55
21
-63.5772
0
LINE
8
BLACK
6
CONTINUOUS
10
122.55
20
-63.5772
11
122.693
21
-63.5058
0
LINE
8
BLACK
6
CONTINUOUS
10
122.693
20
-63.5058
11
122.979
21
-63.5058
0
LINE
8
BLACK
6
CONTINUOUS
10
122.979
20
-63.5058
11
123.121
21
-63.5772
0
LINE
8
BLACK
6
CONTINUOUS
10
124.621
20
-64.5058
11
123.764
21
-64.5058
0
LINE
8
BLACK
6
CONTINUOUS
10
124.193
20
-64.5058
11
124.193
21
-63.0058
0
LINE
8
BLACK
6
CONTINUOUS
10
124.193
20
-63.0058
11
124.05
21
-63.2201
0
LINE
8
BLACK
6
CONTINUOUS
10
124.05
20
-63.2201
11
123.907
21
-63.3629
0
LINE
8
BLACK
6
CONTINUOUS
10
123.907
20
-63.3629
11
123.764
21
-63.4343
0
LINE
8
BLACK
6
CONTINUOUS
10
125.264
20
-63.9343
11
126.407
21
-63.9343
0
LINE
8
BLACK
6
CONTINUOUS
10
127.05
20
-63.1486
11
127.121
21
-63.0772
0
LINE
8
BLACK
6
CONTINUOUS
10
127.121
20
-63.0772
11
127.264
21
-63.0058
0
LINE
8
BLACK
6
CONTINUOUS
10
127.264
20
-63.0058
11
127.621
21
-63.0058
0
LINE
8
BLACK
6
CONTINUOUS
10
127.621
20
-63.0058
11
127.764
21
-63.0772
0
LINE
8
BLACK
6
CONTINUOUS
10
127.764
20
-63.0772
11
127.836
21
-63.1486
0
LINE
8
BLACK
6
CONTINUOUS
10
127.836
20
-63.1486
11
127.907
21
-63.2915
0
LINE
8
BLACK
6
CONTINUOUS
10
127.907
20
-63.2915
11
127.907
21
-63.4343
0
LINE
8
BLACK
6
CONTINUOUS
10
127.907
20
-63.4343
11
127.836
21
-63.6486
0
LINE
8
BLACK
6
CONTINUOUS
10
127.836
20
-63.6486
11
126.979
21
-64.5058
0
LINE
8
BLACK
6
CONTINUOUS
10
126.979
20
-64.5058
11
127.907
21
-64.5058
0
LINE
8
BLACK
6
CONTINUOUS
10
128.193
20
-62.5972
11
129.55
21
-62.5972
0
LINE
8
BLACK
6
CONTINUOUS
10
128.55
20
-64.5058
11
128.55
21
-63.0058
0
LINE
8
BLACK
6
CONTINUOUS
10
128.55
20
-63.5772
11
128.693
21
-63.5058
0
LINE
8
BLACK
6
CONTINUOUS
10
128.693
20
-63.5058
11
128.979
21
-63.5058
0
LINE
8
BLACK
6
CONTINUOUS
10
128.979
20
-63.5058
11
129.121
21
-63.5772
0
LINE
8
BLACK
6
CONTINUOUS
10
129.121
20
-63.5772
11
129.193
21
-63.6486
0
LINE
8
BLACK
6
CONTINUOUS
10
129.193
20
-63.6486
11
129.264
21
-63.7915
0
LINE
8
BLACK
6
CONTINUOUS
10
129.264
20
-63.7915
11
129.264
21
-64.2201
0
LINE
8
BLACK
6
CONTINUOUS
10
129.264
20
-64.2201
11
129.193
21
-64.3629
0
LINE
8
BLACK
6
CONTINUOUS
10
129.193
20
-64.3629
11
129.121
21
-64.4343
0
LINE
8
BLACK
6
CONTINUOUS
10
129.121
20
-64.4343
11
128.979
21
-64.5058
0
LINE
8
BLACK
6
CONTINUOUS
10
128.979
20
-64.5058
11
128.693
21
-64.5058
0
LINE
8
BLACK
6
CONTINUOUS
10
128.693
20
-64.5058
11
128.55
21
-64.4343
0
LINE
8
BLACK
6
CONTINUOUS
10
129.55
20
-62.5972
11
130.907
21
-62.5972
0
LINE
8
BLACK
6
CONTINUOUS
10
129.907
20
-63.5058
11
129.907
21
-65.0058
0
LINE
8
BLACK
6
CONTINUOUS
10
129.907
20
-63.5772
11
130.05
21
-63.5058
0
LINE
8
BLACK
6
CONTINUOUS
10
130.05
20
-63.5058
11
130.336
21
-63.5058
0
LINE
8
BLACK
6
CONTINUOUS
10
130.336
20
-63.5058
11
130.479
21
-63.5772
0
LINE
8
BLACK
6
CONTINUOUS
10
130.479
20
-63.5772
11
130.55
21
-63.6486
0
LINE
8
BLACK
6
CONTINUOUS
10
130.55
20
-63.6486
11
130.621
21
-63.7915
0
LINE
8
BLACK
6
CONTINUOUS
10
130.621
20
-63.7915
11
130.621
21
-64.2201
0
LINE
8
BLACK
6
CONTINUOUS
10
130.621
20
-64.2201
11
130.55
21
-64.3629
0
LINE
8
BLACK
6
CONTINUOUS
10
130.55
20
-64.3629
11
130.479
21
-64.4343
0
LINE
8
BLACK
6
CONTINUOUS
10
130.479
20
-64.4343
11
130.336
21
-64.5058
0
LINE
8
BLACK
6
CONTINUOUS
10
130.336
20
-64.5058
11
130.05
21
-64.5058
0
LINE
8
BLACK
6
CONTINUOUS
10
130.05
20
-64.5058
11
129.907
21
-64.4343
0
LINE
8
BLACK
6
CONTINUOUS
10
130.907
20
-62.5972
11
132.264
21
-62.5972
0
LINE
8
BLACK
6
CONTINUOUS
10
131.479
20
-64.5058
11
131.336
21
-64.4343
0
LINE
8
BLACK
6
CONTINUOUS
10
131.336
20
-64.4343
11
131.264
21
-64.3629
0
LINE
8
BLACK
6
CONTINUOUS
10
131.264
20
-64.3629
11
131.193
21
-64.2201
0
LINE
8
BLACK
6
CONTINUOUS
10
131.193
20
-64.2201
11
131.193
21
-63.7915
0
LINE
8
BLACK
6
CONTINUOUS
10
131.193
20
-63.7915
11
131.264
21
-63.6486
0
LINE
8
BLACK
6
CONTINUOUS
10
131.264
20
-63.6486
11
131.336
21
-63.5772
0
LINE
8
BLACK
6
CONTINUOUS
10
131.336
20
-63.5772
11
131.479
21
-63.5058
0
LINE
8
BLACK
6
CONTINUOUS
10
131.479
20
-63.5058
11
131.693
21
-63.5058
0
LINE
8
BLACK
6
CONTINUOUS
10
131.693
20
-63.5058
11
131.836
21
-63.5772
0
LINE
8
BLACK
6
CONTINUOUS
10
131.836
20
-63.5772
11
131.907
21
-63.6486
0
LINE
8
BLACK
6
CONTINUOUS
10
131.907
20
-63.6486
11
131.979
21
-63.7915
0
LINE
8
BLACK
6
CONTINUOUS
10
131.979
20
-63.7915
11
131.979
21
-64.2201
0
LINE
8
BLACK
6
CONTINUOUS
10
131.979
20
-64.2201
11
131.907
21
-64.3629
0
LINE
8
BLACK
6
CONTINUOUS
10
131.907
20
-64.3629
11
131.836
21
-64.4343
0
LINE
8
BLACK
6
CONTINUOUS
10
131.836
20
-64.4343
11
131.693
21
-64.5058
0
LINE
8
BLACK
6
CONTINUOUS
10
131.693
20
-64.5058
11
131.479
21
-64.5058
0
LINE
8
BLACK
6
CONTINUOUS
10
132.264
20
-62.5972
11
133.693
21
-62.5972
0
LINE
8
BLACK
6
CONTINUOUS
10
132.693
20
-64.5058
11
132.979
21
-64.5058
0
LINE
8
BLACK
6
CONTINUOUS
10
132.979
20
-64.5058
11
133.121
21
-64.4343
0
LINE
8
BLACK
6
CONTINUOUS
10
133.121
20
-64.4343
11
133.193
21
-64.3629
0
LINE
8
BLACK
6
CONTINUOUS
10
133.193
20
-64.3629
11
133.336
21
-64.1486
0
LINE
8
BLACK
6
CONTINUOUS
10
133.336
20
-64.1486
11
133.407
21
-63.8629
0
LINE
8
BLACK
6
CONTINUOUS
10
133.407
20
-63.8629
11
133.407
21
-63.2915
0
LINE
8
BLACK
6
CONTINUOUS
10
133.407
20
-63.2915
11
133.336
21
-63.1486
0
LINE
8
BLACK
6
CONTINUOUS
10
133.336
20
-63.1486
11
133.264
21
-63.0772
0
LINE
8
BLACK
6
CONTINUOUS
10
133.264
20
-63.0772
11
133.121
21
-63.0058
0
LINE
8
BLACK
6
CONTINUOUS
10
133.121
20
-63.0058
11
132.836
21
-63.0058
0
LINE
8
BLACK
6
CONTINUOUS
10
132.836
20
-63.0058
11
132.693
21
-63.0772
0
LINE
8
BLACK
6
CONTINUOUS
10
132.693
20
-63.0772
11
132.621
21
-63.1486
0
LINE
8
BLACK
6
CONTINUOUS
10
132.621
20
-63.1486
11
132.55
21
-63.2915
0
LINE
8
BLACK
6
CONTINUOUS
10
132.55
20
-63.2915
11
132.55
21
-63.6486
0
LINE
8
BLACK
6
CONTINUOUS
10
132.55
20
-63.6486
11
132.621
21
-63.7915
0
LINE
8
BLACK
6
CONTINUOUS
10
132.621
20
-63.7915
11
132.693
21
-63.8629
0
LINE
8
BLACK
6
CONTINUOUS
10
132.693
20
-63.8629
11
132.836
21
-63.9343
0
LINE
8
BLACK
6
CONTINUOUS
10
132.836
20
-63.9343
11
133.121
21
-63.9343
0
LINE
8
BLACK
6
CONTINUOUS
10
133.121
20
-63.9343
11
133.264
21
-63.8629
0
LINE
8
BLACK
6
CONTINUOUS
10
133.264
20
-63.8629
11
133.336
21
-63.7915
0
LINE
8
BLACK
6
CONTINUOUS
10
133.336
20
-63.7915
11
133.407
21
-63.6486
0
LINE
8
BLACK
6
CONTINUOUS
10
133.693
20
-62.5972
11
135.55
21
-62.5972
0
LINE
8
BLACK
6
CONTINUOUS
10
134.05
20
-63.9343
11
135.193
21
-63.9343
0
LINE
8
BLACK
6
CONTINUOUS
10
134.621
20
-64.5058
11
134.621
21
-63.3629
0
LINE
8
BLACK
6
CONTINUOUS
10
135.55
20
-62.5972
11
136.979
21
-62.5972
0
LINE
8
BLACK
6
CONTINUOUS
10
136.693
20
-64.5058
11
135.836
21
-64.5058
0
LINE
8
BLACK
6
CONTINUOUS
10
136.264
20
-64.5058
11
136.264
21
-63.0058
0
LINE
8
BLACK
6
CONTINUOUS
10
136.264
20
-63.0058
11
136.121
21
-63.2201
0
LINE
8
BLACK
6
CONTINUOUS
10
136.121
20
-63.2201
11
135.979
21
-63.3629
0
LINE
8
BLACK
6
CONTINUOUS
10
135.979
20
-63.3629
11
135.836
21
-63.4343
0
LINE
8
BLACK
6
CONTINUOUS
10
86.8322
20
-59.4272
11
194.832
21
-59.4272
0
LINE
8
BLACK
6
CONTINUOUS
10
174.241
20
-61.7058
11
173.741
21
-60.9915
0
LINE
8
BLACK
6
CONTINUOUS
10
173.384
20
-61.7058
11
173.384
21
-60.2058
0
LINE
8
BLACK
6
CONTINUOUS
10
173.384
20
-60.2058
11
173.956
21
-60.2058
0
LINE
8
BLACK
6
CONTINUOUS
10
173.956
20
-60.2058
11
174.099
21
-60.2772
0
LINE
8
BLACK
6
CONTINUOUS
10
174.099
20
-60.2772
11
174.17
21
-60.3486
0
LINE
8
BLACK
6
CONTINUOUS
10
174.17
20
-60.3486
11
174.241
21
-60.4915
0
LINE
8
BLACK
6
CONTINUOUS
10
174.241
20
-60.4915
11
174.241
21
-60.7058
0
LINE
8
BLACK
6
CONTINUOUS
10
174.241
20
-60.7058
11
174.17
21
-60.8486
0
LINE
8
BLACK
6
CONTINUOUS
10
174.17
20
-60.8486
11
174.099
21
-60.9201
0
LINE
8
BLACK
6
CONTINUOUS
10
174.099
20
-60.9201
11
173.956
21
-60.9915
0
LINE
8
BLACK
6
CONTINUOUS
10
173.956
20
-60.9915
11
173.384
21
-60.9915
0
LINE
8
BLACK
6
CONTINUOUS
10
175.456
20
-61.6343
11
175.313
21
-61.7058
0
LINE
8
BLACK
6
CONTINUOUS
10
175.313
20
-61.7058
11
175.027
21
-61.7058
0
LINE
8
BLACK
6
CONTINUOUS
10
175.027
20
-61.7058
11
174.884
21
-61.6343
0
LINE
8
BLACK
6
CONTINUOUS
10
174.884
20
-61.6343
11
174.813
21
-61.4915
0
LINE
8
BLACK
6
CONTINUOUS
10
174.813
20
-61.4915
11
174.813
21
-60.9201
0
LINE
8
BLACK
6
CONTINUOUS
10
174.813
20
-60.9201
11
174.884
21
-60.7772
0
LINE
8
BLACK
6
CONTINUOUS
10
174.884
20
-60.7772
11
175.027
21
-60.7058
0
LINE
8
BLACK
6
CONTINUOUS
10
175.027
20
-60.7058
11
175.313
21
-60.7058
0
LINE
8
BLACK
6
CONTINUOUS
10
175.313
20
-60.7058
11
175.456
21
-60.7772
0
LINE
8
BLACK
6
CONTINUOUS
10
175.456
20
-60.7772
11
175.527
21
-60.9201
0
LINE
8
BLACK
6
CONTINUOUS
10
175.527
20
-60.9201
11
175.527
21
-61.0629
0
LINE
8
BLACK
6
CONTINUOUS
10
175.527
20
-61.0629
11
174.813
21
-61.2058
0
LINE
8
BLACK
6
CONTINUOUS
10
176.027
20
-60.7058
11
176.384
21
-61.7058
0
LINE
8
BLACK
6
CONTINUOUS
10
176.384
20
-61.7058
11
176.741
21
-60.7058
0
LINE
8
BLACK
6
CONTINUOUS
10
177.313
20
-61.5629
11
177.384
21
-61.6343
0
LINE
8
BLACK
6
CONTINUOUS
10
177.384
20
-61.6343
11
177.313
21
-61.7058
0
LINE
8
BLACK
6
CONTINUOUS
10
177.313
20
-61.7058
11
177.241
21
-61.6343
0
LINE
8
BLACK
6
CONTINUOUS
10
177.241
20
-61.6343
11
177.313
21
-61.5629
0
LINE
8
BLACK
6
CONTINUOUS
10
177.313
20
-61.5629
11
177.313
21
-61.7058
0
LINE
8
BLACK
6
CONTINUOUS
10
177.313
20
-60.7772
11
177.384
21
-60.8486
0
LINE
8
BLACK
6
CONTINUOUS
10
177.384
20
-60.8486
11
177.313
21
-60.9201
0
LINE
8
BLACK
6
CONTINUOUS
10
177.313
20
-60.9201
11
177.241
21
-60.8486
0
LINE
8
BLACK
6
CONTINUOUS
10
177.241
20
-60.8486
11
177.313
21
-60.7772
0
LINE
8
BLACK
6
CONTINUOUS
10
177.313
20
-60.7772
11
177.313
21
-60.9201
0
LINE
8
BLACK
6
CONTINUOUS
10
179.027
20
-60.7058
11
179.384
21
-61.7058
0
LINE
8
BLACK
6
CONTINUOUS
10
179.384
20
-61.7058
11
179.741
21
-60.7058
0
LINE
8
BLACK
6
CONTINUOUS
10
182.241
20
-61.7058
11
181.384
21
-61.7058
0
LINE
8
BLACK
6
CONTINUOUS
10
181.813
20
-61.7058
11
181.813
21
-60.2058
0
LINE
8
BLACK
6
CONTINUOUS
10
181.813
20
-60.2058
11
181.67
21
-60.4201
0
LINE
8
BLACK
6
CONTINUOUS
10
181.67
20
-60.4201
11
181.527
21
-60.5629
0
LINE
8
BLACK
6
CONTINUOUS
10
181.527
20
-60.5629
11
181.384
21
-60.6343
0
LINE
8
BLACK
6
CONTINUOUS
10
182.884
20
-61.5629
11
182.956
21
-61.6343
0
LINE
8
BLACK
6
CONTINUOUS
10
182.956
20
-61.6343
11
182.884
21
-61.7058
0
LINE
8
BLACK
6
CONTINUOUS
10
182.884
20
-61.7058
11
182.813
21
-61.6343
0
LINE
8
BLACK
6
CONTINUOUS
10
182.813
20
-61.6343
11
182.884
21
-61.5629
0
LINE
8
BLACK
6
CONTINUOUS
10
182.884
20
-61.5629
11
182.884
21
-61.7058
0
LINE
8
BLACK
6
CONTINUOUS
10
184.384
20
-61.7058
11
183.527
21
-61.7058
0
LINE
8
BLACK
6
CONTINUOUS
10
183.956
20
-61.7058
11
183.956
21
-60.2058
0
LINE
8
BLACK
6
CONTINUOUS
10
183.956
20
-60.2058
11
183.813
21
-60.4201
0
LINE
8
BLACK
6
CONTINUOUS
10
183.813
20
-60.4201
11
183.67
21
-60.5629
0
LINE
8
BLACK
6
CONTINUOUS
10
183.67
20
-60.5629
11
183.527
21
-60.6343
0
LINE
8
BLACK
6
CONTINUOUS
10
88.1929
20
-61.6343
11
88.4072
21
-61.7058
0
LINE
8
BLACK
6
CONTINUOUS
10
88.4072
20
-61.7058
11
88.7643
21
-61.7058
0
LINE
8
BLACK
6
CONTINUOUS
10
88.7643
20
-61.7058
11
88.9072
21
-61.6343
0
LINE
8
BLACK
6
CONTINUOUS
10
88.9072
20
-61.6343
11
88.9786
21
-61.5629
0
LINE
8
BLACK
6
CONTINUOUS
10
88.9786
20
-61.5629
11
89.0501
21
-61.4201
0
LINE
8
BLACK
6
CONTINUOUS
10
89.0501
20
-61.4201
11
89.0501
21
-61.2772
0
LINE
8
BLACK
6
CONTINUOUS
10
89.0501
20
-61.2772
11
88.9786
21
-61.1343
0
LINE
8
BLACK
6
CONTINUOUS
10
88.9786
20
-61.1343
11
88.9072
21
-61.0629
0
LINE
8
BLACK
6
CONTINUOUS
10
88.9072
20
-61.0629
11
88.7643
21
-60.9915
0
LINE
8
BLACK
6
CONTINUOUS
10
88.7643
20
-60.9915
11
88.4786
21
-60.9201
0
LINE
8
BLACK
6
CONTINUOUS
10
88.4786
20
-60.9201
11
88.3358
21
-60.8486
0
LINE
8
BLACK
6
CONTINUOUS
10
88.3358
20
-60.8486
11
88.2643
21
-60.7772
0
LINE
8
BLACK
6
CONTINUOUS
10
88.2643
20
-60.7772
11
88.1929
21
-60.6343
0
LINE
8
BLACK
6
CONTINUOUS
10
88.1929
20
-60.6343
11
88.1929
21
-60.4915
0
LINE
8
BLACK
6
CONTINUOUS
10
88.1929
20
-60.4915
11
88.2643
21
-60.3486
0
LINE
8
BLACK
6
CONTINUOUS
10
88.2643
20
-60.3486
11
88.3358
21
-60.2772
0
LINE
8
BLACK
6
CONTINUOUS
10
88.3358
20
-60.2772
11
88.4786
21
-60.2058
0
LINE
8
BLACK
6
CONTINUOUS
10
88.4786
20
-60.2058
11
88.8358
21
-60.2058
0
LINE
8
BLACK
6
CONTINUOUS
10
88.8358
20
-60.2058
11
89.0501
21
-60.2772
0
LINE
8
BLACK
6
CONTINUOUS
10
89.6929
20
-61.7058
11
89.6929
21
-60.7058
0
LINE
8
BLACK
6
CONTINUOUS
10
89.6929
20
-60.2058
11
89.6215
21
-60.2772
0
LINE
8
BLACK
6
CONTINUOUS
10
89.6215
20
-60.2772
11
89.6929
21
-60.3486
0
LINE
8
BLACK
6
CONTINUOUS
10
89.6929
20
-60.3486
11
89.7643
21
-60.2772
0
LINE
8
BLACK
6
CONTINUOUS
10
89.7643
20
-60.2772
11
89.6929
21
-60.2058
0
LINE
8
BLACK
6
CONTINUOUS
10
89.6929
20
-60.2058
11
89.6929
21
-60.3486
0
LINE
8
BLACK
6
CONTINUOUS
10
90.2643
20
-60.7058
11
91.0501
21
-60.7058
0
LINE
8
BLACK
6
CONTINUOUS
10
91.0501
20
-60.7058
11
90.2643
21
-61.7058
0
LINE
8
BLACK
6
CONTINUOUS
10
90.2643
20
-61.7058
11
91.0501
21
-61.7058
0
LINE
8
BLACK
6
CONTINUOUS
10
92.1929
20
-61.6343
11
92.0501
21
-61.7058
0
LINE
8
BLACK
6
CONTINUOUS
10
92.0501
20
-61.7058
11
91.7643
21
-61.7058
0
LINE
8
BLACK
6
CONTINUOUS
10
91.7643
20
-61.7058
11
91.6215
21
-61.6343
0
LINE
8
BLACK
6
CONTINUOUS
10
91.6215
20
-61.6343
11
91.5501
21
-61.4915
0
LINE
8
BLACK
6
CONTINUOUS
10
91.5501
20
-61.4915
11
91.5501
21
-60.9201
0
LINE
8
BLACK
6
CONTINUOUS
10
91.5501
20
-60.9201
11
91.6215
21
-60.7772
0
LINE
8
BLACK
6
CONTINUOUS
10
91.6215
20
-60.7772
11
91.7643
21
-60.7058
0
LINE
8
BLACK
6
CONTINUOUS
10
91.7643
20
-60.7058
11
92.0501
21
-60.7058
0
LINE
8
BLACK
6
CONTINUOUS
10
92.0501
20
-60.7058
11
92.1929
21
-60.7772
0
LINE
8
BLACK
6
CONTINUOUS
10
92.1929
20
-60.7772
11
92.2643
21
-60.9201
0
LINE
8
BLACK
6
CONTINUOUS
10
92.2643
20
-60.9201
11
92.2643
21
-61.0629
0
LINE
8
BLACK
6
CONTINUOUS
10
92.2643
20
-61.0629
11
91.5501
21
-61.2058
0
LINE
8
BLACK
6
CONTINUOUS
10
92.9072
20
-61.5629
11
92.9786
21
-61.6343
0
LINE
8
BLACK
6
CONTINUOUS
10
92.9786
20
-61.6343
11
92.9072
21
-61.7058
0
LINE
8
BLACK
6
CONTINUOUS
10
92.9072
20
-61.7058
11
92.8358
21
-61.6343
0
LINE
8
BLACK
6
CONTINUOUS
10
92.8358
20
-61.6343
11
92.9072
21
-61.5629
0
LINE
8
BLACK
6
CONTINUOUS
10
92.9072
20
-61.5629
11
92.9072
21
-61.7058
0
LINE
8
BLACK
6
CONTINUOUS
10
92.9072
20
-60.7772
11
92.9786
21
-60.8486
0
LINE
8
BLACK
6
CONTINUOUS
10
92.9786
20
-60.8486
11
92.9072
21
-60.9201
0
LINE
8
BLACK
6
CONTINUOUS
10
92.9072
20
-60.9201
11
92.8358
21
-60.8486
0
LINE
8
BLACK
6
CONTINUOUS
10
92.8358
20
-60.8486
11
92.9072
21
-60.7772
0
LINE
8
BLACK
6
CONTINUOUS
10
92.9072
20
-60.7772
11
92.9072
21
-60.9201
0
LINE
8
BLACK
6
CONTINUOUS
10
94.6929
20
-61.2772
11
95.4072
21
-61.2772
0
LINE
8
BLACK
6
CONTINUOUS
10
94.5501
20
-61.7058
11
95.0501
21
-60.2058
0
LINE
8
BLACK
6
CONTINUOUS
10
95.0501
20
-60.2058
11
95.5501
21
-61.7058
0
LINE
8
BLACK
6
CONTINUOUS
10
96.6929
20
-60.7058
11
96.6929
21
-61.7058
0
LINE
8
BLACK
6
CONTINUOUS
10
96.3358
20
-60.1343
11
95.9786
21
-61.2058
0
LINE
8
BLACK
6
CONTINUOUS
10
95.9786
20
-61.2058
11
96.9072
21
-61.2058
0
LINE
8
BLACK
6
CONTINUOUS
10
173.264
20
-64.5058
11
173.264
21
-63.0058
0
LINE
8
BLACK
6
CONTINUOUS
10
174.621
20
-64.5058
11
174.621
21
-63.0058
0
LINE
8
BLACK
6
CONTINUOUS
10
174.621
20
-64.4343
11
174.479
21
-64.5058
0
LINE
8
BLACK
6
CONTINUOUS
10
174.479
20
-64.5058
11
174.193
21
-64.5058
0
LINE
8
BLACK
6
CONTINUOUS
10
174.193
20
-64.5058
11
174.05
21
-64.4343
0
LINE
8
BLACK
6
CONTINUOUS
10
174.05
20
-64.4343
11
173.979
21
-64.3629
0
LINE
8
BLACK
6
CONTINUOUS
10
173.979
20
-64.3629
11
173.907
21
-64.2201
0
LINE
8
BLACK
6
CONTINUOUS
10
173.907
20
-64.2201
11
173.907
21
-63.7915
0
LINE
8
BLACK
6
CONTINUOUS
10
173.907
20
-63.7915
11
173.979
21
-63.6486
0
LINE
8
BLACK
6
CONTINUOUS
10
173.979
20
-63.6486
11
174.05
21
-63.5772
0
LINE
8
BLACK
6
CONTINUOUS
10
174.05
20
-63.5772
11
174.193
21
-63.5058
0
LINE
8
BLACK
6
CONTINUOUS
10
174.193
20
-63.5058
11
174.479
21
-63.5058
0
LINE
8
BLACK
6
CONTINUOUS
10
174.479
20
-63.5058
11
174.621
21
-63.5772
0
LINE
8
BLACK
6
CONTINUOUS
10
175.336
20
-64.3629
11
175.407
21
-64.4343
0
LINE
8
BLACK
6
CONTINUOUS
10
175.407
20
-64.4343
11
175.336
21
-64.5058
0
LINE
8
BLACK
6
CONTINUOUS
10
175.336
20
-64.5058
11
175.264
21
-64.4343
0
LINE
8
BLACK
6
CONTINUOUS
10
175.264
20
-64.4343
11
175.336
21
-64.3629
0
LINE
8
BLACK
6
CONTINUOUS
10
175.336
20
-64.3629
11
175.336
21
-64.5058
0
LINE
8
BLACK
6
CONTINUOUS
10
175.336
20
-63.5772
11
175.407
21
-63.6486
0
LINE
8
BLACK
6
CONTINUOUS
10
175.407
20
-63.6486
11
175.336
21
-63.7201
0
LINE
8
BLACK
6
CONTINUOUS
10
175.336
20
-63.7201
11
175.264
21
-63.6486
0
LINE
8
BLACK
6
CONTINUOUS
10
175.264
20
-63.6486
11
175.336
21
-63.5772
0
LINE
8
BLACK
6
CONTINUOUS
10
175.336
20
-63.5772
11
175.336
21
-63.7201
0
LINE
8
BLACK
6
CONTINUOUS
10
177.979
20
-64.5058
11
177.121
21
-64.5058
0
LINE
8
BLACK
6
CONTINUOUS
10
177.55
20
-64.5058
11
177.55
21
-63.0058
0
LINE
8
BLACK
6
CONTINUOUS
10
177.55
20
-63.0058
11
177.407
21
-63.2201
0
LINE
8
BLACK
6
CONTINUOUS
10
177.407
20
-63.2201
11
177.264
21
-63.3629
0
LINE
8
BLACK
6
CONTINUOUS
10
177.264
20
-63.3629
11
177.121
21
-63.4343
0
LINE
8
BLACK
6
CONTINUOUS
10
179.693
20
-62.9343
11
178.407
21
-64.8629
0
LINE
8
BLACK
6
CONTINUOUS
10
180.979
20
-64.5058
11
180.121
21
-64.5058
0
LINE
8
BLACK
6
CONTINUOUS
10
180.55
20
-64.5058
11
180.55
21
-63.0058
0
LINE
8
BLACK
6
CONTINUOUS
10
180.55
20
-63.0058
11
180.407
21
-63.2201
0
LINE
8
BLACK
6
CONTINUOUS
10
180.407
20
-63.2201
11
180.264
21
-63.3629
0
LINE
8
BLACK
6
CONTINUOUS
10
180.264
20
-63.3629
11
180.121
21
-63.4343
0
LINE
8
BLACK
6
CONTINUOUS
10
86.8322
20
-55.4272
11
194.832
21
-55.4272
0
LINE
8
BLACK
6
CONTINUOUS
10
88.5446
20
-56.132
11
89.6874
21
-56.132
0
LINE
8
BLACK
6
CONTINUOUS
10
88.866
20
-58.132
11
89.116
21
-56.132
0
LINE
8
BLACK
6
CONTINUOUS
10
90.1041
20
-58.132
11
90.2708
21
-56.7986
0
LINE
8
BLACK
6
CONTINUOUS
10
90.3541
20
-56.132
11
90.247
21
-56.2272
0
LINE
8
BLACK
6
CONTINUOUS
10
90.247
20
-56.2272
11
90.3303
21
-56.3224
0
LINE
8
BLACK
6
CONTINUOUS
10
90.3303
20
-56.3224
11
90.4374
21
-56.2272
0
LINE
8
BLACK
6
CONTINUOUS
10
90.4374
20
-56.2272
11
90.3541
21
-56.132
0
LINE
8
BLACK
6
CONTINUOUS
10
90.3541
20
-56.132
11
90.3303
21
-56.3224
0
LINE
8
BLACK
6
CONTINUOUS
10
90.9374
20
-56.7986
11
91.6993
21
-56.7986
0
LINE
8
BLACK
6
CONTINUOUS
10
91.3065
20
-56.132
11
91.0922
21
-57.8462
0
LINE
8
BLACK
6
CONTINUOUS
10
91.0922
20
-57.8462
11
91.1636
21
-58.0367
0
LINE
8
BLACK
6
CONTINUOUS
10
91.1636
20
-58.0367
11
91.3422
21
-58.132
0
LINE
8
BLACK
6
CONTINUOUS
10
91.3422
20
-58.132
11
91.5327
21
-58.132
0
LINE
8
BLACK
6
CONTINUOUS
10
92.4851
20
-58.132
11
92.3065
21
-58.0367
0
LINE
8
BLACK
6
CONTINUOUS
10
92.3065
20
-58.0367
11
92.2351
21
-57.8462
0
LINE
8
BLACK
6
CONTINUOUS
10
92.2351
20
-57.8462
11
92.4493
21
-56.132
0
LINE
8
BLACK
6
CONTINUOUS
10
94.0208
20
-58.0367
11
93.8184
21
-58.132
0
LINE
8
BLACK
6
CONTINUOUS
10
93.8184
20
-58.132
11
93.4374
21
-58.132
0
LINE
8
BLACK
6
CONTINUOUS
10
93.4374
20
-58.132
11
93.2589
21
-58.0367
0
LINE
8
BLACK
6
CONTINUOUS
10
93.2589
20
-58.0367
11
93.1874
21
-57.8462
0
LINE
8
BLACK
6
CONTINUOUS
10
93.1874
20
-57.8462
11
93.2827
21
-57.0843
0
LINE
8
BLACK
6
CONTINUOUS
10
93.2827
20
-57.0843
11
93.4017
21
-56.8939
0
LINE
8
BLACK
6
CONTINUOUS
10
93.4017
20
-56.8939
11
93.6041
21
-56.7986
0
LINE
8
BLACK
6
CONTINUOUS
10
93.6041
20
-56.7986
11
93.9851
21
-56.7986
0
LINE
8
BLACK
6
CONTINUOUS
10
93.9851
20
-56.7986
11
94.1636
21
-56.8939
0
LINE
8
BLACK
6
CONTINUOUS
10
94.1636
20
-56.8939
11
94.2351
21
-57.0843
0
LINE
8
BLACK
6
CONTINUOUS
10
94.2351
20
-57.0843
11
94.2112
21
-57.2748
0
LINE
8
BLACK
6
CONTINUOUS
10
94.2112
20
-57.2748
11
93.2351
21
-57.4653
0
LINE
8
BLACK
6
CONTINUOUS
10
94.9851
20
-57.9415
11
95.0684
21
-58.0367
0
LINE
8
BLACK
6
CONTINUOUS
10
95.0684
20
-58.0367
11
94.9612
21
-58.132
0
LINE
8
BLACK
6
CONTINUOUS
10
94.9612
20
-58.132
11
94.8779
21
-58.0367
0
LINE
8
BLACK
6
CONTINUOUS
10
94.8779
20
-58.0367
11
94.9851
21
-57.9415
0
LINE
8
BLACK
6
CONTINUOUS
10
94.9851
20
-57.9415
11
94.9612
21
-58.132
0
LINE
8
BLACK
6
CONTINUOUS
10
95.116
20
-56.8939
11
95.1993
21
-56.9891
0
LINE
8
BLACK
6
CONTINUOUS
10
95.1993
20
-56.9891
11
95.0922
21
-57.0843
0
LINE
8
BLACK
6
CONTINUOUS
10
95.0922
20
-57.0843
11
95.0089
21
-56.9891
0
LINE
8
BLACK
6
CONTINUOUS
10
95.0089
20
-56.9891
11
95.116
21
-56.8939
0
LINE
8
BLACK
6
CONTINUOUS
10
95.116
20
-56.8939
11
95.0922
21
-57.0843
0
LINE
8
BLACK
6
CONTINUOUS
10
97.4374
20
-58.132
11
97.6874
21
-56.132
0
LINE
8
BLACK
6
CONTINUOUS
10
98.5803
20
-58.132
11
97.866
21
-56.9891
0
LINE
8
BLACK
6
CONTINUOUS
10
98.8303
20
-56.132
11
97.5446
21
-57.2748
0
LINE
8
BLACK
6
CONTINUOUS
10
99.7232
20
-58.132
11
99.5446
21
-58.0367
0
LINE
8
BLACK
6
CONTINUOUS
10
99.5446
20
-58.0367
11
99.4612
21
-57.9415
0
LINE
8
BLACK
6
CONTINUOUS
10
99.4612
20
-57.9415
11
99.3898
21
-57.751
0
LINE
8
BLACK
6
CONTINUOUS
10
99.3898
20
-57.751
11
99.4612
21
-57.1796
0
LINE
8
BLACK
6
CONTINUOUS
10
99.4612
20
-57.1796
11
99.5803
21
-56.9891
0
LINE
8
BLACK
6
CONTINUOUS
10
99.5803
20
-56.9891
11
99.6874
21
-56.8939
0
LINE
8
BLACK
6
CONTINUOUS
10
99.6874
20
-56.8939
11
99.8898
21
-56.7986
0
LINE
8
BLACK
6
CONTINUOUS
10
99.8898
20
-56.7986
11
100.176
21
-56.7986
0
LINE
8
BLACK
6
CONTINUOUS
10
100.176
20
-56.7986
11
100.354
21
-56.8939
0
LINE
8
BLACK
6
CONTINUOUS
10
100.354
20
-56.8939
11
100.437
21
-56.9891
0
LINE
8
BLACK
6
CONTINUOUS
10
100.437
20
-56.9891
11
100.509
21
-57.1796
0
LINE
8
BLACK
6
CONTINUOUS
10
100.509
20
-57.1796
11
100.437
21
-57.751
0
LINE
8
BLACK
6
CONTINUOUS
10
100.437
20
-57.751
11
100.318
21
-57.9415
0
LINE
8
BLACK
6
CONTINUOUS
10
100.318
20
-57.9415
11
100.211
21
-58.0367
0
LINE
8
BLACK
6
CONTINUOUS
10
100.211
20
-58.0367
11
100.009
21
-58.132
0
LINE
8
BLACK
6
CONTINUOUS
10
100.009
20
-58.132
11
99.7232
21
-58.132
0
LINE
8
BLACK
6
CONTINUOUS
10
101.128
20
-56.7986
11
101.89
21
-56.7986
0
LINE
8
BLACK
6
CONTINUOUS
10
101.497
20
-56.132
11
101.283
21
-57.8462
0
LINE
8
BLACK
6
CONTINUOUS
10
101.283
20
-57.8462
11
101.354
21
-58.0367
0
LINE
8
BLACK
6
CONTINUOUS
10
101.354
20
-58.0367
11
101.533
21
-58.132
0
LINE
8
BLACK
6
CONTINUOUS
10
101.533
20
-58.132
11
101.723
21
-58.132
0
LINE
8
BLACK
6
CONTINUOUS
10
102.676
20
-58.132
11
102.497
21
-58.0367
0
LINE
8
BLACK
6
CONTINUOUS
10
102.497
20
-58.0367
11
102.414
21
-57.9415
0
LINE
8
BLACK
6
CONTINUOUS
10
102.414
20
-57.9415
11
102.342
21
-57.751
0
LINE
8
BLACK
6
CONTINUOUS
10
102.342
20
-57.751
11
102.414
21
-57.1796
0
LINE
8
BLACK
6
CONTINUOUS
10
102.414
20
-57.1796
11
102.533
21
-56.9891
0
LINE
8
BLACK
6
CONTINUOUS
10
102.533
20
-56.9891
11
102.64
21
-56.8939
0
LINE
8
BLACK
6
CONTINUOUS
10
102.64
20
-56.8939
11
102.842
21
-56.7986
0
LINE
8
BLACK
6
CONTINUOUS
10
102.842
20
-56.7986
11
103.128
21
-56.7986
0
LINE
8
BLACK
6
CONTINUOUS
10
103.128
20
-56.7986
11
103.306
21
-56.8939
0
LINE
8
BLACK
6
CONTINUOUS
10
103.306
20
-56.8939
11
103.39
21
-56.9891
0
LINE
8
BLACK
6
CONTINUOUS
10
103.39
20
-56.9891
11
103.461
21
-57.1796
0
LINE
8
BLACK
6
CONTINUOUS
10
103.461
20
-57.1796
11
103.39
21
-57.751
0
LINE
8
BLACK
6
CONTINUOUS
10
103.39
20
-57.751
11
103.271
21
-57.9415
0
LINE
8
BLACK
6
CONTINUOUS
10
103.271
20
-57.9415
11
103.164
21
-58.0367
0
LINE
8
BLACK
6
CONTINUOUS
10
103.164
20
-58.0367
11
102.961
21
-58.132
0
LINE
8
BLACK
6
CONTINUOUS
10
102.961
20
-58.132
11
102.676
21
-58.132
0
LINE
8
BLACK
6
CONTINUOUS
10
104.366
20
-56.7986
11
104.199
21
-58.132
0
LINE
8
BLACK
6
CONTINUOUS
10
104.342
20
-56.9891
11
104.449
21
-56.8939
0
LINE
8
BLACK
6
CONTINUOUS
10
104.449
20
-56.8939
11
104.652
21
-56.7986
0
LINE
8
BLACK
6
CONTINUOUS
10
104.652
20
-56.7986
11
104.937
21
-56.7986
0
LINE
8
BLACK
6
CONTINUOUS
10
104.937
20
-56.7986
11
105.116
21
-56.8939
0
LINE
8
BLACK
6
CONTINUOUS
10
105.116
20
-56.8939
11
105.187
21
-57.0843
0
LINE
8
BLACK
6
CONTINUOUS
10
105.187
20
-57.0843
11
105.056
21
-58.132
0
LINE
8
BLACK
6
CONTINUOUS
10
106.295
20
-58.132
11
106.116
21
-58.0367
0
LINE
8
BLACK
6
CONTINUOUS
10
106.116
20
-58.0367
11
106.033
21
-57.9415
0
LINE
8
BLACK
6
CONTINUOUS
10
106.033
20
-57.9415
11
105.961
21
-57.751
0
LINE
8
BLACK
6
CONTINUOUS
10
105.961
20
-57.751
11
106.033
21
-57.1796
0
LINE
8
BLACK
6
CONTINUOUS
10
106.033
20
-57.1796
11
106.152
21
-56.9891
0
LINE
8
BLACK
6
CONTINUOUS
10
106.152
20
-56.9891
11
106.259
21
-56.8939
0
LINE
8
BLACK
6
CONTINUOUS
10
106.259
20
-56.8939
11
106.461
21
-56.7986
0
LINE
8
BLACK
6
CONTINUOUS
10
106.461
20
-56.7986
11
106.747
21
-56.7986
0
LINE
8
BLACK
6
CONTINUOUS
10
106.747
20
-56.7986
11
106.926
21
-56.8939
0
LINE
8
BLACK
6
CONTINUOUS
10
106.926
20
-56.8939
11
107.009
21
-56.9891
0
LINE
8
BLACK
6
CONTINUOUS
10
107.009
20
-56.9891
11
107.08
21
-57.1796
0
LINE
8
BLACK
6
CONTINUOUS
10
107.08
20
-57.1796
11
107.009
21
-57.751
0
LINE
8
BLACK
6
CONTINUOUS
10
107.009
20
-57.751
11
106.89
21
-57.9415
0
LINE
8
BLACK
6
CONTINUOUS
10
106.89
20
-57.9415
11
106.783
21
-58.0367
0
LINE
8
BLACK
6
CONTINUOUS
10
106.783
20
-58.0367
11
106.58
21
-58.132
0
LINE
8
BLACK
6
CONTINUOUS
10
106.58
20
-58.132
11
106.295
21
-58.132
0
LINE
8
BLACK
6
CONTINUOUS
10
107.818
20
-58.132
11
108.068
21
-56.132
0
LINE
8
BLACK
6
CONTINUOUS
10
108.676
20
-58.132
11
108.806
21
-57.0843
0
LINE
8
BLACK
6
CONTINUOUS
10
108.806
20
-57.0843
11
108.735
21
-56.8939
0
LINE
8
BLACK
6
CONTINUOUS
10
108.735
20
-56.8939
11
108.556
21
-56.7986
0
LINE
8
BLACK
6
CONTINUOUS
10
108.556
20
-56.7986
11
108.271
21
-56.7986
0
LINE
8
BLACK
6
CONTINUOUS
10
108.271
20
-56.7986
11
108.068
21
-56.8939
0
LINE
8
BLACK
6
CONTINUOUS
10
108.068
20
-56.8939
11
107.961
21
-56.9891
0
LINE
8
BLACK
6
CONTINUOUS
10
110.485
20
-58.132
11
110.616
21
-57.0843
0
LINE
8
BLACK
6
CONTINUOUS
10
110.616
20
-57.0843
11
110.545
21
-56.8939
0
LINE
8
BLACK
6
CONTINUOUS
10
110.545
20
-56.8939
11
110.366
21
-56.7986
0
LINE
8
BLACK
6
CONTINUOUS
10
110.366
20
-56.7986
11
109.985
21
-56.7986
0
LINE
8
BLACK
6
CONTINUOUS
10
109.985
20
-56.7986
11
109.783
21
-56.8939
0
LINE
8
BLACK
6
CONTINUOUS
10
110.497
20
-58.0367
11
110.295
21
-58.132
0
LINE
8
BLACK
6
CONTINUOUS
10
110.295
20
-58.132
11
109.818
21
-58.132
0
LINE
8
BLACK
6
CONTINUOUS
10
109.818
20
-58.132
11
109.64
21
-58.0367
0
LINE
8
BLACK
6
CONTINUOUS
10
109.64
20
-58.0367
11
109.568
21
-57.8462
0
LINE
8
BLACK
6
CONTINUOUS
10
109.568
20
-57.8462
11
109.592
21
-57.6558
0
LINE
8
BLACK
6
CONTINUOUS
10
109.592
20
-57.6558
11
109.711
21
-57.4653
0
LINE
8
BLACK
6
CONTINUOUS
10
109.711
20
-57.4653
11
109.914
21
-57.3701
0
LINE
8
BLACK
6
CONTINUOUS
10
109.914
20
-57.3701
11
110.39
21
-57.3701
0
LINE
8
BLACK
6
CONTINUOUS
10
110.39
20
-57.3701
11
110.592
21
-57.2748
0
LINE
8
BLACK
6
CONTINUOUS
10
112.961
20
-58.132
11
113.211
21
-56.132
0
LINE
8
BLACK
6
CONTINUOUS
10
113.116
20
-56.8939
11
113.318
21
-56.7986
0
LINE
8
BLACK
6
CONTINUOUS
10
113.318
20
-56.7986
11
113.699
21
-56.7986
0
LINE
8
BLACK
6
CONTINUOUS
10
113.699
20
-56.7986
11
113.878
21
-56.8939
0
LINE
8
BLACK
6
CONTINUOUS
10
113.878
20
-56.8939
11
113.961
21
-56.9891
0
LINE
8
BLACK
6
CONTINUOUS
10
113.961
20
-56.9891
11
114.033
21
-57.1796
0
LINE
8
BLACK
6
CONTINUOUS
10
114.033
20
-57.1796
11
113.961
21
-57.751
0
LINE
8
BLACK
6
CONTINUOUS
10
113.961
20
-57.751
11
113.842
21
-57.9415
0
LINE
8
BLACK
6
CONTINUOUS
10
113.842
20
-57.9415
11
113.735
21
-58.0367
0
LINE
8
BLACK
6
CONTINUOUS
10
113.735
20
-58.0367
11
113.533
21
-58.132
0
LINE
8
BLACK
6
CONTINUOUS
10
113.533
20
-58.132
11
113.152
21
-58.132
0
LINE
8
BLACK
6
CONTINUOUS
10
113.152
20
-58.132
11
112.973
21
-58.0367
0
LINE
8
BLACK
6
CONTINUOUS
10
115.056
20
-58.132
11
114.878
21
-58.0367
0
LINE
8
BLACK
6
CONTINUOUS
10
114.878
20
-58.0367
11
114.795
21
-57.9415
0
LINE
8
BLACK
6
CONTINUOUS
10
114.795
20
-57.9415
11
114.723
21
-57.751
0
LINE
8
BLACK
6
CONTINUOUS
10
114.723
20
-57.751
11
114.795
21
-57.1796
0
LINE
8
BLACK
6
CONTINUOUS
10
114.795
20
-57.1796
11
114.914
21
-56.9891
0
LINE
8
BLACK
6
CONTINUOUS
10
114.914
20
-56.9891
11
115.021
21
-56.8939
0
LINE
8
BLACK
6
CONTINUOUS
10
115.021
20
-56.8939
11
115.223
21
-56.7986
0
LINE
8
BLACK
6
CONTINUOUS
10
115.223
20
-56.7986
11
115.509
21
-56.7986
0
LINE
8
BLACK
6
CONTINUOUS
10
115.509
20
-56.7986
11
115.687
21
-56.8939
0
LINE
8
BLACK
6
CONTINUOUS
10
115.687
20
-56.8939
11
115.771
21
-56.9891
0
LINE
8
BLACK
6
CONTINUOUS
10
115.771
20
-56.9891
11
115.842
21
-57.1796
0
LINE
8
BLACK
6
CONTINUOUS
10
115.842
20
-57.1796
11
115.771
21
-57.751
0
LINE
8
BLACK
6
CONTINUOUS
10
115.771
20
-57.751
11
115.652
21
-57.9415
0
LINE
8
BLACK
6
CONTINUOUS
10
115.652
20
-57.9415
11
115.545
21
-58.0367
0
LINE
8
BLACK
6
CONTINUOUS
10
115.545
20
-58.0367
11
115.342
21
-58.132
0
LINE
8
BLACK
6
CONTINUOUS
10
115.342
20
-58.132
11
115.056
21
-58.132
0
LINE
8
BLACK
6
CONTINUOUS
10
117.437
20
-58.132
11
117.568
21
-57.0843
0
LINE
8
BLACK
6
CONTINUOUS
10
117.568
20
-57.0843
11
117.497
21
-56.8939
0
LINE
8
BLACK
6
CONTINUOUS
10
117.497
20
-56.8939
11
117.318
21
-56.7986
0
LINE
8
BLACK
6
CONTINUOUS
10
117.318
20
-56.7986
11
116.937
21
-56.7986
0
LINE
8
BLACK
6
CONTINUOUS
10
116.937
20
-56.7986
11
116.735
21
-56.8939
0
LINE
8
BLACK
6
CONTINUOUS
10
117.449
20
-58.0367
11
117.247
21
-58.132
0
LINE
8
BLACK
6
CONTINUOUS
10
117.247
20
-58.132
11
116.771
21
-58.132
0
LINE
8
BLACK
6
CONTINUOUS
10
116.771
20
-58.132
11
116.592
21
-58.0367
0
LINE
8
BLACK
6
CONTINUOUS
10
116.592
20
-58.0367
11
116.521
21
-57.8462
0
LINE
8
BLACK
6
CONTINUOUS
10
116.521
20
-57.8462
11
116.545
21
-57.6558
0
LINE
8
BLACK
6
CONTINUOUS
10
116.545
20
-57.6558
11
116.664
21
-57.4653
0
LINE
8
BLACK
6
CONTINUOUS
10
116.664
20
-57.4653
11
116.866
21
-57.3701
0
LINE
8
BLACK
6
CONTINUOUS
10
116.866
20
-57.3701
11
117.342
21
-57.3701
0
LINE
8
BLACK
6
CONTINUOUS
10
117.342
20
-57.3701
11
117.545
21
-57.2748
0
LINE
8
BLACK
6
CONTINUOUS
10
118.39
20
-58.132
11
118.556
21
-56.7986
0
LINE
8
BLACK
6
CONTINUOUS
10
118.509
20
-57.1796
11
118.628
21
-56.9891
0
LINE
8
BLACK
6
CONTINUOUS
10
118.628
20
-56.9891
11
118.735
21
-56.8939
0
LINE
8
BLACK
6
CONTINUOUS
10
118.735
20
-56.8939
11
118.937
21
-56.7986
0
LINE
8
BLACK
6
CONTINUOUS
10
118.937
20
-56.7986
11
119.128
21
-56.7986
0
LINE
8
BLACK
6
CONTINUOUS
10
120.485
20
-58.132
11
120.735
21
-56.132
0
LINE
8
BLACK
6
CONTINUOUS
10
120.497
20
-58.0367
11
120.295
21
-58.132
0
LINE
8
BLACK
6
CONTINUOUS
10
120.295
20
-58.132
11
119.914
21
-58.132
0
LINE
8
BLACK
6
CONTINUOUS
10
119.914
20
-58.132
11
119.735
21
-58.0367
0
LINE
8
BLACK
6
CONTINUOUS
10
119.735
20
-58.0367
11
119.652
21
-57.9415
0
LINE
8
BLACK
6
CONTINUOUS
10
119.652
20
-57.9415
11
119.58
21
-57.751
0
LINE
8
BLACK
6
CONTINUOUS
10
119.58
20
-57.751
11
119.652
21
-57.1796
0
LINE
8
BLACK
6
CONTINUOUS
10
119.652
20
-57.1796
11
119.771
21
-56.9891
0
LINE
8
BLACK
6
CONTINUOUS
10
119.771
20
-56.9891
11
119.878
21
-56.8939
0
LINE
8
BLACK
6
CONTINUOUS
10
119.878
20
-56.8939
11
120.08
21
-56.7986
0
LINE
8
BLACK
6
CONTINUOUS
10
120.08
20
-56.7986
11
120.461
21
-56.7986
0
LINE
8
BLACK
6
CONTINUOUS
10
120.461
20
-56.7986
11
120.64
21
-56.8939
0
LINE
8
BLACK
6
CONTINUOUS
10
123.056
20
-57.3701
11
124.58
21
-57.3701
0
LINE
8
BLACK
6
CONTINUOUS
10
127.759
20
-57.0843
11
128.033
21
-57.1796
0
LINE
8
BLACK
6
CONTINUOUS
10
128.033
20
-57.1796
11
128.116
21
-57.2748
0
LINE
8
BLACK
6
CONTINUOUS
10
128.116
20
-57.2748
11
128.187
21
-57.4653
0
LINE
8
BLACK
6
CONTINUOUS
10
128.187
20
-57.4653
11
128.152
21
-57.751
0
LINE
8
BLACK
6
CONTINUOUS
10
128.152
20
-57.751
11
128.033
21
-57.9415
0
LINE
8
BLACK
6
CONTINUOUS
10
128.033
20
-57.9415
11
127.926
21
-58.0367
0
LINE
8
BLACK
6
CONTINUOUS
10
127.926
20
-58.0367
11
127.723
21
-58.132
0
LINE
8
BLACK
6
CONTINUOUS
10
127.723
20
-58.132
11
126.961
21
-58.132
0
LINE
8
BLACK
6
CONTINUOUS
10
126.961
20
-58.132
11
127.211
21
-56.132
0
LINE
8
BLACK
6
CONTINUOUS
10
127.211
20
-56.132
11
127.878
21
-56.132
0
LINE
8
BLACK
6
CONTINUOUS
10
127.878
20
-56.132
11
128.056
21
-56.2272
0
LINE
8
BLACK
6
CONTINUOUS
10
128.056
20
-56.2272
11
128.14
21
-56.3224
0
LINE
8
BLACK
6
CONTINUOUS
10
128.14
20
-56.3224
11
128.211
21
-56.5129
0
LINE
8
BLACK
6
CONTINUOUS
10
128.211
20
-56.5129
11
128.187
21
-56.7034
0
LINE
8
BLACK
6
CONTINUOUS
10
128.187
20
-56.7034
11
128.068
21
-56.8939
0
LINE
8
BLACK
6
CONTINUOUS
10
128.068
20
-56.8939
11
127.961
21
-56.9891
0
LINE
8
BLACK
6
CONTINUOUS
10
127.961
20
-56.9891
11
127.759
21
-57.0843
0
LINE
8
BLACK
6
CONTINUOUS
10
127.759
20
-57.0843
11
127.092
21
-57.0843
0
LINE
8
BLACK
6
CONTINUOUS
10
129.247
20
-58.132
11
129.068
21
-58.0367
0
LINE
8
BLACK
6
CONTINUOUS
10
129.068
20
-58.0367
11
128.985
21
-57.9415
0
LINE
8
BLACK
6
CONTINUOUS
10
128.985
20
-57.9415
11
128.914
21
-57.751
0
LINE
8
BLACK
6
CONTINUOUS
10
128.914
20
-57.751
11
128.985
21
-57.1796
0
LINE
8
BLACK
6
CONTINUOUS
10
128.985
20
-57.1796
11
129.104
21
-56.9891
0
LINE
8
BLACK
6
CONTINUOUS
10
129.104
20
-56.9891
11
129.211
21
-56.8939
0
LINE
8
BLACK
6
CONTINUOUS
10
129.211
20
-56.8939
11
129.414
21
-56.7986
0
LINE
8
BLACK
6
CONTINUOUS
10
129.414
20
-56.7986
11
129.699
21
-56.7986
0
LINE
8
BLACK
6
CONTINUOUS
10
129.699
20
-56.7986
11
129.878
21
-56.8939
0
LINE
8
BLACK
6
CONTINUOUS
10
129.878
20
-56.8939
11
129.961
21
-56.9891
0
LINE
8
BLACK
6
CONTINUOUS
10
129.961
20
-56.9891
11
130.033
21
-57.1796
0
LINE
8
BLACK
6
CONTINUOUS
10
130.033
20
-57.1796
11
129.961
21
-57.751
0
LINE
8
BLACK
6
CONTINUOUS
10
129.961
20
-57.751
11
129.842
21
-57.9415
0
LINE
8
BLACK
6
CONTINUOUS
10
129.842
20
-57.9415
11
129.735
21
-58.0367
0
LINE
8
BLACK
6
CONTINUOUS
10
129.735
20
-58.0367
11
129.533
21
-58.132
0
LINE
8
BLACK
6
CONTINUOUS
10
129.533
20
-58.132
11
129.247
21
-58.132
0
LINE
8
BLACK
6
CONTINUOUS
10
130.937
20
-56.7986
11
130.771
21
-58.132
0
LINE
8
BLACK
6
CONTINUOUS
10
130.914
20
-56.9891
11
131.021
21
-56.8939
0
LINE
8
BLACK
6
CONTINUOUS
10
131.021
20
-56.8939
11
131.223
21
-56.7986
0
LINE
8
BLACK
6
CONTINUOUS
10
131.223
20
-56.7986
11
131.509
21
-56.7986
0
LINE
8
BLACK
6
CONTINUOUS
10
131.509
20
-56.7986
11
131.687
21
-56.8939
0
LINE
8
BLACK
6
CONTINUOUS
10
131.687
20
-56.8939
11
131.759
21
-57.0843
0
LINE
8
BLACK
6
CONTINUOUS
10
131.759
20
-57.0843
11
131.628
21
-58.132
0
LINE
8
BLACK
6
CONTINUOUS
10
132.497
20
-58.0367
11
132.676
21
-58.132
0
LINE
8
BLACK
6
CONTINUOUS
10
132.676
20
-58.132
11
133.056
21
-58.132
0
LINE
8
BLACK
6
CONTINUOUS
10
133.056
20
-58.132
11
133.259
21
-58.0367
0
LINE
8
BLACK
6
CONTINUOUS
10
133.259
20
-58.0367
11
133.378
21
-57.8462
0
LINE
8
BLACK
6
CONTINUOUS
10
133.378
20
-57.8462
11
133.39
21
-57.751
0
LINE
8
BLACK
6
CONTINUOUS
10
133.39
20
-57.751
11
133.318
21
-57.5605
0
LINE
8
BLACK
6
CONTINUOUS
10
133.318
20
-57.5605
11
133.14
21
-57.4653
0
LINE
8
BLACK
6
CONTINUOUS
10
133.14
20
-57.4653
11
132.854
21
-57.4653
0
LINE
8
BLACK
6
CONTINUOUS
10
132.854
20
-57.4653
11
132.676
21
-57.3701
0
LINE
8
BLACK
6
CONTINUOUS
10
132.676
20
-57.3701
11
132.604
21
-57.1796
0
LINE
8
BLACK
6
CONTINUOUS
10
132.604
20
-57.1796
11
132.616
21
-57.0843
0
LINE
8
BLACK
6
CONTINUOUS
10
132.616
20
-57.0843
11
132.735
21
-56.8939
0
LINE
8
BLACK
6
CONTINUOUS
10
132.735
20
-56.8939
11
132.937
21
-56.7986
0
LINE
8
BLACK
6
CONTINUOUS
10
132.937
20
-56.7986
11
133.223
21
-56.7986
0
LINE
8
BLACK
6
CONTINUOUS
10
133.223
20
-56.7986
11
133.402
21
-56.8939
0
LINE
8
BLACK
6
CONTINUOUS
10
135.056
20
-58.132
11
135.187
21
-57.0843
0
LINE
8
BLACK
6
CONTINUOUS
10
135.187
20
-57.0843
11
135.116
21
-56.8939
0
LINE
8
BLACK
6
CONTINUOUS
10
135.116
20
-56.8939
11
134.937
21
-56.7986
0
LINE
8
BLACK
6
CONTINUOUS
10
134.937
20
-56.7986
11
134.556
21
-56.7986
0
LINE
8
BLACK
6
CONTINUOUS
10
134.556
20
-56.7986
11
134.354
21
-56.8939
0
LINE
8
BLACK
6
CONTINUOUS
10
135.068
20
-58.0367
11
134.866
21
-58.132
0
LINE
8
BLACK
6
CONTINUOUS
10
134.866
20
-58.132
11
134.39
21
-58.132
0
LINE
8
BLACK
6
CONTINUOUS
10
134.39
20
-58.132
11
134.211
21
-58.0367
0
LINE
8
BLACK
6
CONTINUOUS
10
134.211
20
-58.0367
11
134.14
21
-57.8462
0
LINE
8
BLACK
6
CONTINUOUS
10
134.14
20
-57.8462
11
134.164
21
-57.6558
0
LINE
8
BLACK
6
CONTINUOUS
10
134.164
20
-57.6558
11
134.283
21
-57.4653
0
LINE
8
BLACK
6
CONTINUOUS
10
134.283
20
-57.4653
11
134.485
21
-57.3701
0
LINE
8
BLACK
6
CONTINUOUS
10
134.485
20
-57.3701
11
134.961
21
-57.3701
0
LINE
8
BLACK
6
CONTINUOUS
10
134.961
20
-57.3701
11
135.164
21
-57.2748
0
LINE
8
BLACK
6
CONTINUOUS
10
136.009
20
-58.132
11
136.176
21
-56.7986
0
LINE
8
BLACK
6
CONTINUOUS
10
136.259
20
-56.132
11
136.152
21
-56.2272
0
LINE
8
BLACK
6
CONTINUOUS
10
136.152
20
-56.2272
11
136.235
21
-56.3224
0
LINE
8
BLACK
6
CONTINUOUS
10
136.235
20
-56.3224
11
136.342
21
-56.2272
0
LINE
8
BLACK
6
CONTINUOUS
10
136.342
20
-56.2272
11
136.259
21
-56.132
0
LINE
8
BLACK
6
CONTINUOUS
10
136.259
20
-56.132
11
136.235
21
-56.3224
0
LINE
8
BLACK
6
CONTINUOUS
10
138.58
20
-57.3701
11
140.104
21
-57.3701
0
LINE
8
BLACK
6
CONTINUOUS
10
88.7643
20
-53.5201
11
88.2643
21
-53.5201
0
LINE
8
BLACK
6
CONTINUOUS
10
88.2643
20
-54.3058
11
88.2643
21
-52.8058
0
LINE
8
BLACK
6
CONTINUOUS
10
88.2643
20
-52.8058
11
88.9786
21
-52.8058
0
LINE
8
BLACK
6
CONTINUOUS
10
89.5501
20
-54.3058
11
89.5501
21
-53.3058
0
LINE
8
BLACK
6
CONTINUOUS
10
89.5501
20
-52.8058
11
89.4786
21
-52.8772
0
LINE
8
BLACK
6
CONTINUOUS
10
89.4786
20
-52.8772
11
89.5501
21
-52.9486
0
LINE
8
BLACK
6
CONTINUOUS
10
89.5501
20
-52.9486
11
89.6215
21
-52.8772
0
LINE
8
BLACK
6
CONTINUOUS
10
89.6215
20
-52.8772
11
89.5501
21
-52.8058
0
LINE
8
BLACK
6
CONTINUOUS
10
89.5501
20
-52.8058
11
89.5501
21
-52.9486
0
LINE
8
BLACK
6
CONTINUOUS
10
90.4786
20
-54.3058
11
90.3358
21
-54.2343
0
LINE
8
BLACK
6
CONTINUOUS
10
90.3358
20
-54.2343
11
90.2643
21
-54.0915
0
LINE
8
BLACK
6
CONTINUOUS
10
90.2643
20
-54.0915
11
90.2643
21
-52.8058
0
LINE
8
BLACK
6
CONTINUOUS
10
91.6215
20
-54.2343
11
91.4786
21
-54.3058
0
LINE
8
BLACK
6
CONTINUOUS
10
91.4786
20
-54.3058
11
91.1929
21
-54.3058
0
LINE
8
BLACK
6
CONTINUOUS
10
91.1929
20
-54.3058
11
91.0501
21
-54.2343
0
LINE
8
BLACK
6
CONTINUOUS
10
91.0501
20
-54.2343
11
90.9786
21
-54.0915
0
LINE
8
BLACK
6
CONTINUOUS
10
90.9786
20
-54.0915
11
90.9786
21
-53.5201
0
LINE
8
BLACK
6
CONTINUOUS
10
90.9786
20
-53.5201
11
91.0501
21
-53.3772
0
LINE
8
BLACK
6
CONTINUOUS
10
91.0501
20
-53.3772
11
91.1929
21
-53.3058
0
LINE
8
BLACK
6
CONTINUOUS
10
91.1929
20
-53.3058
11
91.4786
21
-53.3058
0
LINE
8
BLACK
6
CONTINUOUS
10
91.4786
20
-53.3058
11
91.6215
21
-53.3772
0
LINE
8
BLACK
6
CONTINUOUS
10
91.6215
20
-53.3772
11
91.6929
21
-53.5201
0
LINE
8
BLACK
6
CONTINUOUS
10
91.6929
20
-53.5201
11
91.6929
21
-53.6629
0
LINE
8
BLACK
6
CONTINUOUS
10
91.6929
20
-53.6629
11
90.9786
21
-53.8058
0
LINE
8
BLACK
6
CONTINUOUS
10
92.3358
20
-54.1629
11
92.4072
21
-54.2343
0
LINE
8
BLACK
6
CONTINUOUS
10
92.4072
20
-54.2343
11
92.3358
21
-54.3058
0
LINE
8
BLACK
6
CONTINUOUS
10
92.3358
20
-54.3058
11
92.2643
21
-54.2343
0
LINE
8
BLACK
6
CONTINUOUS
10
92.2643
20
-54.2343
11
92.3358
21
-54.1629
0
LINE
8
BLACK
6
CONTINUOUS
10
92.3358
20
-54.1629
11
92.3358
21
-54.3058
0
LINE
8
BLACK
6
CONTINUOUS
10
92.3358
20
-53.3772
11
92.4072
21
-53.4486
0
LINE
8
BLACK
6
CONTINUOUS
10
92.4072
20
-53.4486
11
92.3358
21
-53.5201
0
LINE
8
BLACK
6
CONTINUOUS
10
92.3358
20
-53.5201
11
92.2643
21
-53.4486
0
LINE
8
BLACK
6
CONTINUOUS
10
92.2643
20
-53.4486
11
92.3358
21
-53.3772
0
LINE
8
BLACK
6
CONTINUOUS
10
92.3358
20
-53.3772
11
92.3358
21
-53.5201
0
LINE
8
BLACK
6
CONTINUOUS
10
94.1929
20
-54.3058
11
94.1929
21
-52.8058
0
LINE
8
BLACK
6
CONTINUOUS
10
94.1929
20
-53.3772
11
94.3358
21
-53.3058
0
LINE
8
BLACK
6
CONTINUOUS
10
94.3358
20
-53.3058
11
94.6215
21
-53.3058
0
LINE
8
BLACK
6
CONTINUOUS
10
94.6215
20
-53.3058
11
94.7643
21
-53.3772
0
LINE
8
BLACK
6
CONTINUOUS
10
94.7643
20
-53.3772
11
94.8358
21
-53.4486
0
LINE
8
BLACK
6
CONTINUOUS
10
94.8358
20
-53.4486
11
94.9072
21
-53.5915
0
LINE
8
BLACK
6
CONTINUOUS
10
94.9072
20
-53.5915
11
94.9072
21
-54.0201
0
LINE
8
BLACK
6
CONTINUOUS
10
94.9072
20
-54.0201
11
94.8358
21
-54.1629
0
LINE
8
BLACK
6
CONTINUOUS
10
94.8358
20
-54.1629
11
94.7643
21
-54.2343
0
LINE
8
BLACK
6
CONTINUOUS
10
94.7643
20
-54.2343
11
94.6215
21
-54.3058
0
LINE
8
BLACK
6
CONTINUOUS
10
94.6215
20
-54.3058
11
94.3358
21
-54.3058
0
LINE
8
BLACK
6
CONTINUOUS
10
94.3358
20
-54.3058
11
94.1929
21
-54.2343
0
LINE
8
BLACK
6
CONTINUOUS
10
95.7643
20
-54.3058
11
95.6215
21
-54.2343
0
LINE
8
BLACK
6
CONTINUOUS
10
95.6215
20
-54.2343
11
95.5501
21
-54.1629
0
LINE
8
BLACK
6
CONTINUOUS
10
95.5501
20
-54.1629
11
95.4786
21
-54.0201
0
LINE
8
BLACK
6
CONTINUOUS
10
95.4786
20
-54.0201
11
95.4786
21
-53.5915
0
LINE
8
BLACK
6
CONTINUOUS
10
95.4786
20
-53.5915
11
95.5501
21
-53.4486
0
LINE
8
BLACK
6
CONTINUOUS
10
95.5501
20
-53.4486
11
95.6215
21
-53.3772
0
LINE
8
BLACK
6
CONTINUOUS
10
95.6215
20
-53.3772
11
95.7643
21
-53.3058
0
LINE
8
BLACK
6
CONTINUOUS
10
95.7643
20
-53.3058
11
95.9786
21
-53.3058
0
LINE
8
BLACK
6
CONTINUOUS
10
95.9786
20
-53.3058
11
96.1215
21
-53.3772
0
LINE
8
BLACK
6
CONTINUOUS
10
96.1215
20
-53.3772
11
96.1929
21
-53.4486
0
LINE
8
BLACK
6
CONTINUOUS
10
96.1929
20
-53.4486
11
96.2643
21
-53.5915
0
LINE
8
BLACK
6
CONTINUOUS
10
96.2643
20
-53.5915
11
96.2643
21
-54.0201
0
LINE
8
BLACK
6
CONTINUOUS
10
96.2643
20
-54.0201
11
96.1929
21
-54.1629
0
LINE
8
BLACK
6
CONTINUOUS
10
96.1929
20
-54.1629
11
96.1215
21
-54.2343
0
LINE
8
BLACK
6
CONTINUOUS
10
96.1215
20
-54.2343
11
95.9786
21
-54.3058
0
LINE
8
BLACK
6
CONTINUOUS
10
95.9786
20
-54.3058
11
95.7643
21
-54.3058
0
LINE
8
BLACK
6
CONTINUOUS
10
96.9072
20
-53.3058
11
96.9072
21
-54.3058
0
LINE
8
BLACK
6
CONTINUOUS
10
96.9072
20
-53.4486
11
96.9786
21
-53.3772
0
LINE
8
BLACK
6
CONTINUOUS
10
96.9786
20
-53.3772
11
97.1215
21
-53.3058
0
LINE
8
BLACK
6
CONTINUOUS
10
97.1215
20
-53.3058
11
97.3358
21
-53.3058
0
LINE
8
BLACK
6
CONTINUOUS
10
97.3358
20
-53.3058
11
97.4786
21
-53.3772
0
LINE
8
BLACK
6
CONTINUOUS
10
97.4786
20
-53.3772
11
97.5501
21
-53.5201
0
LINE
8
BLACK
6
CONTINUOUS
10
97.5501
20
-53.5201
11
97.5501
21
-54.3058
0
LINE
8
BLACK
6
CONTINUOUS
10
98.1929
20
-54.2343
11
98.3358
21
-54.3058
0
LINE
8
BLACK
6
CONTINUOUS
10
98.3358
20
-54.3058
11
98.6215
21
-54.3058
0
LINE
8
BLACK
6
CONTINUOUS
10
98.6215
20
-54.3058
11
98.7643
21
-54.2343
0
LINE
8
BLACK
6
CONTINUOUS
10
98.7643
20
-54.2343
11
98.8358
21
-54.0915
0
LINE
8
BLACK
6
CONTINUOUS
10
98.8358
20
-54.0915
11
98.8358
21
-54.0201
0
LINE
8
BLACK
6
CONTINUOUS
10
98.8358
20
-54.0201
11
98.7643
21
-53.8772
0
LINE
8
BLACK
6
CONTINUOUS
10
98.7643
20
-53.8772
11
98.6215
21
-53.8058
0
LINE
8
BLACK
6
CONTINUOUS
10
98.6215
20
-53.8058
11
98.4072
21
-53.8058
0
LINE
8
BLACK
6
CONTINUOUS
10
98.4072
20
-53.8058
11
98.2643
21
-53.7343
0
LINE
8
BLACK
6
CONTINUOUS
10
98.2643
20
-53.7343
11
98.1929
21
-53.5915
0
LINE
8
BLACK
6
CONTINUOUS
10
98.1929
20
-53.5915
11
98.1929
21
-53.5201
0
LINE
8
BLACK
6
CONTINUOUS
10
98.1929
20
-53.5201
11
98.2643
21
-53.3772
0
LINE
8
BLACK
6
CONTINUOUS
10
98.2643
20
-53.3772
11
98.4072
21
-53.3058
0
LINE
8
BLACK
6
CONTINUOUS
10
98.4072
20
-53.3058
11
98.6215
21
-53.3058
0
LINE
8
BLACK
6
CONTINUOUS
10
98.6215
20
-53.3058
11
98.7643
21
-53.3772
0
LINE
8
BLACK
6
CONTINUOUS
10
100.121
20
-54.3058
11
100.121
21
-53.5201
0
LINE
8
BLACK
6
CONTINUOUS
10
100.121
20
-53.5201
11
100.05
21
-53.3772
0
LINE
8
BLACK
6
CONTINUOUS
10
100.05
20
-53.3772
11
99.9072
21
-53.3058
0
LINE
8
BLACK
6
CONTINUOUS
10
99.9072
20
-53.3058
11
99.6215
21
-53.3058
0
LINE
8
BLACK
6
CONTINUOUS
10
99.6215
20
-53.3058
11
99.4786
21
-53.3772
0
LINE
8
BLACK
6
CONTINUOUS
10
100.121
20
-54.2343
11
99.9786
21
-54.3058
0
LINE
8
BLACK
6
CONTINUOUS
10
99.9786
20
-54.3058
11
99.6215
21
-54.3058
0
LINE
8
BLACK
6
CONTINUOUS
10
99.6215
20
-54.3058
11
99.4786
21
-54.2343
0
LINE
8
BLACK
6
CONTINUOUS
10
99.4786
20
-54.2343
11
99.4072
21
-54.0915
0
LINE
8
BLACK
6
CONTINUOUS
10
99.4072
20
-54.0915
11
99.4072
21
-53.9486
0
LINE
8
BLACK
6
CONTINUOUS
10
99.4072
20
-53.9486
11
99.4786
21
-53.8058
0
LINE
8
BLACK
6
CONTINUOUS
10
99.4786
20
-53.8058
11
99.6215
21
-53.7343
0
LINE
8
BLACK
6
CONTINUOUS
10
99.6215
20
-53.7343
11
99.9786
21
-53.7343
0
LINE
8
BLACK
6
CONTINUOUS
10
99.9786
20
-53.7343
11
100.121
21
-53.6629
0
LINE
8
BLACK
6
CONTINUOUS
10
100.836
20
-54.3058
11
100.836
21
-53.3058
0
LINE
8
BLACK
6
CONTINUOUS
10
100.836
20
-52.8058
11
100.764
21
-52.8772
0
LINE
8
BLACK
6
CONTINUOUS
10
100.764
20
-52.8772
11
100.836
21
-52.9486
0
LINE
8
BLACK
6
CONTINUOUS
10
100.836
20
-52.9486
11
100.907
21
-52.8772
0
LINE
8
BLACK
6
CONTINUOUS
10
100.907
20
-52.8772
11
100.836
21
-52.8058
0
LINE
8
BLACK
6
CONTINUOUS
10
100.836
20
-52.8058
11
100.836
21
-52.9486
0
LINE
8
BLACK
6
CONTINUOUS
10
101.55
20
-54.1629
11
101.621
21
-54.2343
0
LINE
8
BLACK
6
CONTINUOUS
10
101.621
20
-54.2343
11
101.55
21
-54.3058
0
LINE
8
BLACK
6
CONTINUOUS
10
101.55
20
-54.3058
11
101.479
21
-54.2343
0
LINE
8
BLACK
6
CONTINUOUS
10
101.479
20
-54.2343
11
101.55
21
-54.1629
0
LINE
8
BLACK
6
CONTINUOUS
10
101.55
20
-54.1629
11
101.55
21
-54.3058
0
LINE
8
BLACK
6
CONTINUOUS
10
102.264
20
-54.3058
11
102.264
21
-52.8058
0
LINE
8
BLACK
6
CONTINUOUS
10
102.407
20
-53.7343
11
102.836
21
-54.3058
0
LINE
8
BLACK
6
CONTINUOUS
10
102.836
20
-53.3058
11
102.264
21
-53.8772
0
LINE
8
BLACK
6
CONTINUOUS
10
103.479
20
-54.3058
11
103.479
21
-53.3058
0
LINE
8
BLACK
6
CONTINUOUS
10
103.479
20
-52.8058
11
103.407
21
-52.8772
0
LINE
8
BLACK
6
CONTINUOUS
10
103.407
20
-52.8772
11
103.479
21
-52.9486
0
LINE
8
BLACK
6
CONTINUOUS
10
103.479
20
-52.9486
11
103.55
21
-52.8772
0
LINE
8
BLACK
6
CONTINUOUS
10
103.55
20
-52.8772
11
103.479
21
-52.8058
0
LINE
8
BLACK
6
CONTINUOUS
10
103.479
20
-52.8058
11
103.479
21
-52.9486
0
LINE
8
BLACK
6
CONTINUOUS
10
104.836
20
-54.2343
11
104.693
21
-54.3058
0
LINE
8
BLACK
6
CONTINUOUS
10
104.693
20
-54.3058
11
104.407
21
-54.3058
0
LINE
8
BLACK
6
CONTINUOUS
10
104.407
20
-54.3058
11
104.264
21
-54.2343
0
LINE
8
BLACK
6
CONTINUOUS
10
104.264
20
-54.2343
11
104.193
21
-54.1629
0
LINE
8
BLACK
6
CONTINUOUS
10
104.193
20
-54.1629
11
104.121
21
-54.0201
0
LINE
8
BLACK
6
CONTINUOUS
10
104.121
20
-54.0201
11
104.121
21
-53.5915
0
LINE
8
BLACK
6
CONTINUOUS
10
104.121
20
-53.5915
11
104.193
21
-53.4486
0
LINE
8
BLACK
6
CONTINUOUS
10
104.193
20
-53.4486
11
104.264
21
-53.3772
0
LINE
8
BLACK
6
CONTINUOUS
10
104.264
20
-53.3772
11
104.407
21
-53.3058
0
LINE
8
BLACK
6
CONTINUOUS
10
104.407
20
-53.3058
11
104.693
21
-53.3058
0
LINE
8
BLACK
6
CONTINUOUS
10
104.693
20
-53.3058
11
104.836
21
-53.3772
0
LINE
8
BLACK
6
CONTINUOUS
10
106.121
20
-54.3058
11
106.121
21
-53.5201
0
LINE
8
BLACK
6
CONTINUOUS
10
106.121
20
-53.5201
11
106.05
21
-53.3772
0
LINE
8
BLACK
6
CONTINUOUS
10
106.05
20
-53.3772
11
105.907
21
-53.3058
0
LINE
8
BLACK
6
CONTINUOUS
10
105.907
20
-53.3058
11
105.621
21
-53.3058
0
LINE
8
BLACK
6
CONTINUOUS
10
105.621
20
-53.3058
11
105.479
21
-53.3772
0
LINE
8
BLACK
6
CONTINUOUS
10
106.121
20
-54.2343
11
105.979
21
-54.3058
0
LINE
8
BLACK
6
CONTINUOUS
10
105.979
20
-54.3058
11
105.621
21
-54.3058
0
LINE
8
BLACK
6
CONTINUOUS
10
105.621
20
-54.3058
11
105.479
21
-54.2343
0
LINE
8
BLACK
6
CONTINUOUS
10
105.479
20
-54.2343
11
105.407
21
-54.0915
0
LINE
8
BLACK
6
CONTINUOUS
10
105.407
20
-54.0915
11
105.407
21
-53.9486
0
LINE
8
BLACK
6
CONTINUOUS
10
105.407
20
-53.9486
11
105.479
21
-53.8058
0
LINE
8
BLACK
6
CONTINUOUS
10
105.479
20
-53.8058
11
105.621
21
-53.7343
0
LINE
8
BLACK
6
CONTINUOUS
10
105.621
20
-53.7343
11
105.979
21
-53.7343
0
LINE
8
BLACK
6
CONTINUOUS
10
105.979
20
-53.7343
11
106.121
21
-53.6629
0
LINE
8
BLACK
6
CONTINUOUS
10
107.479
20
-54.3058
11
107.479
21
-52.8058
0
LINE
8
BLACK
6
CONTINUOUS
10
107.479
20
-54.2343
11
107.336
21
-54.3058
0
LINE
8
BLACK
6
CONTINUOUS
10
107.336
20
-54.3058
11
107.05
21
-54.3058
0
LINE
8
BLACK
6
CONTINUOUS
10
107.05
20
-54.3058
11
106.907
21
-54.2343
0
LINE
8
BLACK
6
CONTINUOUS
10
106.907
20
-54.2343
11
106.836
21
-54.1629
0
LINE
8
BLACK
6
CONTINUOUS
10
106.836
20
-54.1629
11
106.764
21
-54.0201
0
LINE
8
BLACK
6
CONTINUOUS
10
106.764
20
-54.0201
11
106.764
21
-53.5915
0
LINE
8
BLACK
6
CONTINUOUS
10
106.764
20
-53.5915
11
106.836
21
-53.4486
0
LINE
8
BLACK
6
CONTINUOUS
10
106.836
20
-53.4486
11
106.907
21
-53.3772
0
LINE
8
BLACK
6
CONTINUOUS
10
106.907
20
-53.3772
11
107.05
21
-53.3058
0
LINE
8
BLACK
6
CONTINUOUS
10
107.05
20
-53.3058
11
107.336
21
-53.3058
0
LINE
8
BLACK
6
CONTINUOUS
10
107.336
20
-53.3058
11
107.479
21
-53.3772
0
LINE
8
BLACK
6
CONTINUOUS
10
107.836
20
-54.4486
11
108.979
21
-54.4486
0
LINE
8
BLACK
6
CONTINUOUS
10
109.336
20
-53.3058
11
109.336
21
-54.8058
0
LINE
8
BLACK
6
CONTINUOUS
10
109.336
20
-53.3772
11
109.479
21
-53.3058
0
LINE
8
BLACK
6
CONTINUOUS
10
109.479
20
-53.3058
11
109.764
21
-53.3058
0
LINE
8
BLACK
6
CONTINUOUS
10
109.764
20
-53.3058
11
109.907
21
-53.3772
0
LINE
8
BLACK
6
CONTINUOUS
10
109.907
20
-53.3772
11
109.979
21
-53.4486
0
LINE
8
BLACK
6
CONTINUOUS
10
109.979
20
-53.4486
11
110.05
21
-53.5915
0
LINE
8
BLACK
6
CONTINUOUS
10
110.05
20
-53.5915
11
110.05
21
-54.0201
0
LINE
8
BLACK
6
CONTINUOUS
10
110.05
20
-54.0201
11
109.979
21
-54.1629
0
LINE
8
BLACK
6
CONTINUOUS
10
109.979
20
-54.1629
11
109.907
21
-54.2343
0
LINE
8
BLACK
6
CONTINUOUS
10
109.907
20
-54.2343
11
109.764
21
-54.3058
0
LINE
8
BLACK
6
CONTINUOUS
10
109.764
20
-54.3058
11
109.479
21
-54.3058
0
LINE
8
BLACK
6
CONTINUOUS
10
109.479
20
-54.3058
11
109.336
21
-54.2343
0
LINE
8
BLACK
6
CONTINUOUS
10
111.336
20
-54.2343
11
111.193
21
-54.3058
0
LINE
8
BLACK
6
CONTINUOUS
10
111.193
20
-54.3058
11
110.907
21
-54.3058
0
LINE
8
BLACK
6
CONTINUOUS
10
110.907
20
-54.3058
11
110.764
21
-54.2343
0
LINE
8
BLACK
6
CONTINUOUS
10
110.764
20
-54.2343
11
110.693
21
-54.1629
0
LINE
8
BLACK
6
CONTINUOUS
10
110.693
20
-54.1629
11
110.621
21
-54.0201
0
LINE
8
BLACK
6
CONTINUOUS
10
110.621
20
-54.0201
11
110.621
21
-53.5915
0
LINE
8
BLACK
6
CONTINUOUS
10
110.621
20
-53.5915
11
110.693
21
-53.4486
0
LINE
8
BLACK
6
CONTINUOUS
10
110.693
20
-53.4486
11
110.764
21
-53.3772
0
LINE
8
BLACK
6
CONTINUOUS
10
110.764
20
-53.3772
11
110.907
21
-53.3058
0
LINE
8
BLACK
6
CONTINUOUS
10
110.907
20
-53.3058
11
111.193
21
-53.3058
0
LINE
8
BLACK
6
CONTINUOUS
10
111.193
20
-53.3058
11
111.336
21
-53.3772
0
LINE
8
BLACK
6
CONTINUOUS
10
111.979
20
-54.3058
11
111.979
21
-52.8058
0
LINE
8
BLACK
6
CONTINUOUS
10
111.979
20
-53.3772
11
112.121
21
-53.3058
0
LINE
8
BLACK
6
CONTINUOUS
10
112.121
20
-53.3058
11
112.407
21
-53.3058
0
LINE
8
BLACK
6
CONTINUOUS
10
112.407
20
-53.3058
11
112.55
21
-53.3772
0
LINE
8
BLACK
6
CONTINUOUS
10
112.55
20
-53.3772
11
112.621
21
-53.4486
0
LINE
8
BLACK
6
CONTINUOUS
10
112.621
20
-53.4486
11
112.693
21
-53.5915
0
LINE
8
BLACK
6
CONTINUOUS
10
112.693
20
-53.5915
11
112.693
21
-54.0201
0
LINE
8
BLACK
6
CONTINUOUS
10
112.693
20
-54.0201
11
112.621
21
-54.1629
0
LINE
8
BLACK
6
CONTINUOUS
10
112.621
20
-54.1629
11
112.55
21
-54.2343
0
LINE
8
BLACK
6
CONTINUOUS
10
112.55
20
-54.2343
11
112.407
21
-54.3058
0
LINE
8
BLACK
6
CONTINUOUS
10
112.407
20
-54.3058
11
112.121
21
-54.3058
0
LINE
8
BLACK
6
CONTINUOUS
10
112.121
20
-54.3058
11
111.979
21
-54.2343
0
LINE
8
BLACK
6
CONTINUOUS
10
86.8322
20
-49.4272
11
194.832
21
-49.4272
0
LINE
8
BLACK
6
CONTINUOUS
10
88.1929
20
-51.5343
11
88.4072
21
-51.6058
0
LINE
8
BLACK
6
CONTINUOUS
10
88.4072
20
-51.6058
11
88.7643
21
-51.6058
0
LINE
8
BLACK
6
CONTINUOUS
10
88.7643
20
-51.6058
11
88.9072
21
-51.5343
0
LINE
8
BLACK
6
CONTINUOUS
10
88.9072
20
-51.5343
11
88.9786
21
-51.4629
0
LINE
8
BLACK
6
CONTINUOUS
10
88.9786
20
-51.4629
11
89.0501
21
-51.3201
0
LINE
8
BLACK
6
CONTINUOUS
10
89.0501
20
-51.3201
11
89.0501
21
-51.1772
0
LINE
8
BLACK
6
CONTINUOUS
10
89.0501
20
-51.1772
11
88.9786
21
-51.0343
0
LINE
8
BLACK
6
CONTINUOUS
10
88.9786
20
-51.0343
11
88.9072
21
-50.9629
0
LINE
8
BLACK
6
CONTINUOUS
10
88.9072
20
-50.9629
11
88.7643
21
-50.8915
0
LINE
8
BLACK
6
CONTINUOUS
10
88.7643
20
-50.8915
11
88.4786
21
-50.8201
0
LINE
8
BLACK
6
CONTINUOUS
10
88.4786
20
-50.8201
11
88.3358
21
-50.7486
0
LINE
8
BLACK
6
CONTINUOUS
10
88.3358
20
-50.7486
11
88.2643
21
-50.6772
0
LINE
8
BLACK
6
CONTINUOUS
10
88.2643
20
-50.6772
11
88.1929
21
-50.5343
0
LINE
8
BLACK
6
CONTINUOUS
10
88.1929
20
-50.5343
11
88.1929
21
-50.3915
0
LINE
8
BLACK
6
CONTINUOUS
10
88.1929
20
-50.3915
11
88.2643
21
-50.2486
0
LINE
8
BLACK
6
CONTINUOUS
10
88.2643
20
-50.2486
11
88.3358
21
-50.1772
0
LINE
8
BLACK
6
CONTINUOUS
10
88.3358
20
-50.1772
11
88.4786
21
-50.1058
0
LINE
8
BLACK
6
CONTINUOUS
10
88.4786
20
-50.1058
11
88.8358
21
-50.1058
0
LINE
8
BLACK
6
CONTINUOUS
10
88.8358
20
-50.1058
11
89.0501
21
-50.1772
0
LINE
8
BLACK
6
CONTINUOUS
10
89.6929
20
-51.6058
11
89.6929
21
-50.1058
0
LINE
8
BLACK
6
CONTINUOUS
10
90.3358
20
-51.6058
11
90.3358
21
-50.8201
0
LINE
8
BLACK
6
CONTINUOUS
10
90.3358
20
-50.8201
11
90.2643
21
-50.6772
0
LINE
8
BLACK
6
CONTINUOUS
10
90.2643
20
-50.6772
11
90.1215
21
-50.6058
0
LINE
8
BLACK
6
CONTINUOUS
10
90.1215
20
-50.6058
11
89.9072
21
-50.6058
0
LINE
8
BLACK
6
CONTINUOUS
10
89.9072
20
-50.6058
11
89.7643
21
-50.6772
0
LINE
8
BLACK
6
CONTINUOUS
10
89.7643
20
-50.6772
11
89.6929
21
-50.7486
0
LINE
8
BLACK
6
CONTINUOUS
10
91.6215
20
-51.5343
11
91.4786
21
-51.6058
0
LINE
8
BLACK
6
CONTINUOUS
10
91.4786
20
-51.6058
11
91.1929
21
-51.6058
0
LINE
8
BLACK
6
CONTINUOUS
10
91.1929
20
-51.6058
11
91.0501
21
-51.5343
0
LINE
8
BLACK
6
CONTINUOUS
10
91.0501
20
-51.5343
11
90.9786
21
-51.3915
0
LINE
8
BLACK
6
CONTINUOUS
10
90.9786
20
-51.3915
11
90.9786
21
-50.8201
0
LINE
8
BLACK
6
CONTINUOUS
10
90.9786
20
-50.8201
11
91.0501
21
-50.6772
0
LINE
8
BLACK
6
CONTINUOUS
10
91.0501
20
-50.6772
11
91.1929
21
-50.6058
0
LINE
8
BLACK
6
CONTINUOUS
10
91.1929
20
-50.6058
11
91.4786
21
-50.6058
0
LINE
8
BLACK
6
CONTINUOUS
10
91.4786
20
-50.6058
11
91.6215
21
-50.6772
0
LINE
8
BLACK
6
CONTINUOUS
10
91.6215
20
-50.6772
11
91.6929
21
-50.8201
0
LINE
8
BLACK
6
CONTINUOUS
10
91.6929
20
-50.8201
11
91.6929
21
-50.9629
0
LINE
8
BLACK
6
CONTINUOUS
10
91.6929
20
-50.9629
11
90.9786
21
-51.1058
0
LINE
8
BLACK
6
CONTINUOUS
10
92.9072
20
-51.5343
11
92.7643
21
-51.6058
0
LINE
8
BLACK
6
CONTINUOUS
10
92.7643
20
-51.6058
11
92.4786
21
-51.6058
0
LINE
8
BLACK
6
CONTINUOUS
10
92.4786
20
-51.6058
11
92.3358
21
-51.5343
0
LINE
8
BLACK
6
CONTINUOUS
10
92.3358
20
-51.5343
11
92.2643
21
-51.3915
0
LINE
8
BLACK
6
CONTINUOUS
10
92.2643
20
-51.3915
11
92.2643
21
-50.8201
0
LINE
8
BLACK
6
CONTINUOUS
10
92.2643
20
-50.8201
11
92.3358
21
-50.6772
0
LINE
8
BLACK
6
CONTINUOUS
10
92.3358
20
-50.6772
11
92.4786
21
-50.6058
0
LINE
8
BLACK
6
CONTINUOUS
10
92.4786
20
-50.6058
11
92.7643
21
-50.6058
0
LINE
8
BLACK
6
CONTINUOUS
10
92.7643
20
-50.6058
11
92.9072
21
-50.6772
0
LINE
8
BLACK
6
CONTINUOUS
10
92.9072
20
-50.6772
11
92.9786
21
-50.8201
0
LINE
8
BLACK
6
CONTINUOUS
10
92.9786
20
-50.8201
11
92.9786
21
-50.9629
0
LINE
8
BLACK
6
CONTINUOUS
10
92.9786
20
-50.9629
11
92.2643
21
-51.1058
0
LINE
8
BLACK
6
CONTINUOUS
10
93.4072
20
-50.6058
11
93.9786
21
-50.6058
0
LINE
8
BLACK
6
CONTINUOUS
10
93.6215
20
-50.1058
11
93.6215
21
-51.3915
0
LINE
8
BLACK
6
CONTINUOUS
10
93.6215
20
-51.3915
11
93.6929
21
-51.5343
0
LINE
8
BLACK
6
CONTINUOUS
10
93.6929
20
-51.5343
11
93.8358
21
-51.6058
0
LINE
8
BLACK
6
CONTINUOUS
10
93.8358
20
-51.6058
11
93.9786
21
-51.6058
0
LINE
8
BLACK
6
CONTINUOUS
10
94.4786
20
-51.4629
11
94.5501
21
-51.5343
0
LINE
8
BLACK
6
CONTINUOUS
10
94.5501
20
-51.5343
11
94.4786
21
-51.6058
0
LINE
8
BLACK
6
CONTINUOUS
10
94.4786
20
-51.6058
11
94.4072
21
-51.5343
0
LINE
8
BLACK
6
CONTINUOUS
10
94.4072
20
-51.5343
11
94.4786
21
-51.4629
0
LINE
8
BLACK
6
CONTINUOUS
10
94.4786
20
-51.4629
11
94.4786
21
-51.6058
0
LINE
8
BLACK
6
CONTINUOUS
10
94.4786
20
-50.6772
11
94.5501
21
-50.7486
0
LINE
8
BLACK
6
CONTINUOUS
10
94.5501
20
-50.7486
11
94.4786
21
-50.8201
0
LINE
8
BLACK
6
CONTINUOUS
10
94.4786
20
-50.8201
11
94.4072
21
-50.7486
0
LINE
8
BLACK
6
CONTINUOUS
10
94.4072
20
-50.7486
11
94.4786
21
-50.6772
0
LINE
8
BLACK
6
CONTINUOUS
10
94.4786
20
-50.6772
11
94.4786
21
-50.8201
0
LINE
8
BLACK
6
CONTINUOUS
10
106.832
20
-59.4272
11
106.832
21
-62.4272
0
LINE
8
BLACK
6
CONTINUOUS
10
170.832
20
-59.4272
11
170.832
21
-65.9272
0
LINE
8
BLACK
6
CONTINUOUS
10
126.646
20
-2.47198
11
126.279
21
-2.97795
0
LINE
8
BLACK
6
CONTINUOUS
10
126.279
20
-2.97795
11
125.797
21
-3.3766
0
LINE
8
BLACK
6
CONTINUOUS
10
125.797
20
-3.3766
11
125.231
21
-3.64289
0
LINE
8
BLACK
6
CONTINUOUS
10
125.231
20
-3.64289
11
124.617
21
-3.76008
0
LINE
8
BLACK
6
CONTINUOUS
10
124.617
20
-3.76008
11
123.992
21
-3.72081
0
LINE
8
BLACK
6
CONTINUOUS
10
123.992
20
-3.72081
11
123.398
21
-3.52754
0
LINE
8
BLACK
6
CONTINUOUS
10
123.398
20
-3.52754
11
122.87
21
-3.19243
0
LINE
8
BLACK
6
CONTINUOUS
10
122.87
20
-3.19243
11
122.442
21
-2.73652
0
LINE
8
BLACK
6
CONTINUOUS
10
122.442
20
-2.73652
11
122.14
21
-2.18847
0
LINE
8
BLACK
6
CONTINUOUS
10
122.14
20
-2.18847
11
121.985
21
-1.58271
0
LINE
8
BLACK
6
CONTINUOUS
10
121.985
20
-1.58271
11
121.985
21
-0.957294
0
LINE
8
BLACK
6
CONTINUOUS
10
121.985
20
-0.957294
11
122.14
21
-0.351529
0
LINE
8
BLACK
6
CONTINUOUS
10
122.14
20
-0.351529
11
122.442
21
0.196524
0
LINE
8
BLACK
6
CONTINUOUS
10
122.442
20
0.196524
11
122.87
21
0.652431
0
LINE
8
BLACK
6
CONTINUOUS
10
122.87
20
0.652431
11
123.398
21
0.987543
0
LINE
8
BLACK
6
CONTINUOUS
10
123.398
20
0.987543
11
123.992
21
1.18081
0
LINE
8
BLACK
6
CONTINUOUS
10
123.992
20
1.18081
11
124.617
21
1.22008
0
LINE
8
BLACK
6
CONTINUOUS
10
124.617
20
1.22008
11
125.231
21
1.10289
0
LINE
8
BLACK
6
CONTINUOUS
10
125.231
20
1.10289
11
125.797
21
0.836598
0
LINE
8
BLACK
6
CONTINUOUS
10
125.797
20
0.836598
11
126.279
21
0.437945
0
LINE
8
BLACK
6
CONTINUOUS
10
126.279
20
0.437945
11
126.646
21
-0.068025
0
LINE
8
BLACK
6
CONTINUOUS
10
126.646
20
-0.068025
11
126.877
21
-0.649519
0
LINE
8
BLACK
6
CONTINUOUS
10
126.877
20
-0.649519
11
126.955
21
-1.27
0
LINE
8
BLACK
6
CONTINUOUS
10
126.955
20
-1.27
11
126.877
21
-1.89048
0
LINE
8
BLACK
6
CONTINUOUS
10
126.877
20
-1.89048
11
126.646
21
-2.47198
0
LINE
8
BLACK
6
CONTINUOUS
10
126.585
20
-0.101747
11
126.228
21
0.390027
0
LINE
8
BLACK
6
CONTINUOUS
10
126.228
20
0.390027
11
125.759
21
0.777495
0
LINE
8
BLACK
6
CONTINUOUS
10
125.759
20
0.777495
11
125.209
21
1.03631
0
LINE
8
BLACK
6
CONTINUOUS
10
125.209
20
1.03631
11
124.612
21
1.15021
0
LINE
8
BLACK
6
CONTINUOUS
10
124.612
20
1.15021
11
124.006
21
1.11205
0
LINE
8
BLACK
6
CONTINUOUS
10
124.006
20
1.11205
11
123.427
21
0.924206
0
LINE
8
BLACK
6
CONTINUOUS
10
123.427
20
0.924206
11
122.914
21
0.598495
0
LINE
8
BLACK
6
CONTINUOUS
10
122.914
20
0.598495
11
122.498
21
0.155379
0
LINE
8
BLACK
6
CONTINUOUS
10
122.498
20
0.155379
11
122.205
21
-0.377298
0
LINE
8
BLACK
6
CONTINUOUS
10
122.205
20
-0.377298
11
122.054
21
-0.966067
0
LINE
8
BLACK
6
CONTINUOUS
10
122.054
20
-0.966067
11
122.054
21
-1.57393
0
LINE
8
BLACK
6
CONTINUOUS
10
122.054
20
-1.57393
11
122.205
21
-2.1627
0
LINE
8
BLACK
6
CONTINUOUS
10
122.205
20
-2.1627
11
122.498
21
-2.69538
0
LINE
8
BLACK
6
CONTINUOUS
10
122.498
20
-2.69538
11
122.914
21
-3.13849
0
LINE
8
BLACK
6
CONTINUOUS
10
122.914
20
-3.13849
11
123.427
21
-3.46421
0
LINE
8
BLACK
6
CONTINUOUS
10
123.427
20
-3.46421
11
124.006
21
-3.65205
0
LINE
8
BLACK
6
CONTINUOUS
10
124.006
20
-3.65205
11
124.612
21
-3.69021
0
LINE
8
BLACK
6
CONTINUOUS
10
124.612
20
-3.69021
11
125.209
21
-3.57631
0
LINE
8
BLACK
6
CONTINUOUS
10
125.209
20
-3.57631
11
125.759
21
-3.31749
0
LINE
8
BLACK
6
CONTINUOUS
10
125.759
20
-3.31749
11
126.228
21
-2.93003
0
LINE
8
BLACK
6
CONTINUOUS
10
126.228
20
-2.93003
11
126.585
21
-2.43825
0
LINE
8
BLACK
6
CONTINUOUS
10
126.585
20
-2.43825
11
126.809
21
-1.87307
0
LINE
8
BLACK
6
CONTINUOUS
10
126.809
20
-1.87307
11
126.885
21
-1.27
0
LINE
8
BLACK
6
CONTINUOUS
10
126.885
20
-1.27
11
126.809
21
-0.666927
0
LINE
8
BLACK
6
CONTINUOUS
10
126.809
20
-0.666927
11
126.585
21
-0.101747
0
LINE
8
BLACK
6
CONTINUOUS
10
27.5864
20
3.87802
11
27.2188
21
3.37206
0
LINE
8
BLACK
6
CONTINUOUS
10
27.2188
20
3.37206
11
26.7369
21
2.9734
0
LINE
8
BLACK
6
CONTINUOUS
10
26.7369
20
2.9734
11
26.171
21
2.70711
0
LINE
8
BLACK
6
CONTINUOUS
10
26.171
20
2.70711
11
25.5567
21
2.58992
0
LINE
8
BLACK
6
CONTINUOUS
10
25.5567
20
2.58992
11
24.9325
21
2.62919
0
LINE
8
BLACK
6
CONTINUOUS
10
24.9325
20
2.62919
11
24.3377
21
2.82246
0
LINE
8
BLACK
6
CONTINUOUS
10
24.3377
20
2.82246
11
23.8096
21
3.15757
0
LINE
8
BLACK
6
CONTINUOUS
10
23.8096
20
3.15757
11
23.3815
21
3.61348
0
LINE
8
BLACK
6
CONTINUOUS
10
23.3815
20
3.61348
11
23.0802
21
4.16153
0
LINE
8
BLACK
6
CONTINUOUS
10
23.0802
20
4.16153
11
22.9247
21
4.76729
0
LINE
8
BLACK
6
CONTINUOUS
10
22.9247
20
4.76729
11
22.9247
21
5.39271
0
LINE
8
BLACK
6
CONTINUOUS
10
22.9247
20
5.39271
11
23.0802
21
5.99847
0
LINE
8
BLACK
6
CONTINUOUS
10
23.0802
20
5.99847
11
23.3815
21
6.54652
0
LINE
8
BLACK
6
CONTINUOUS
10
23.3815
20
6.54652
11
23.8096
21
7.00243
0
LINE
8
BLACK
6
CONTINUOUS
10
23.8096
20
7.00243
11
24.3377
21
7.33754
0
LINE
8
BLACK
6
CONTINUOUS
10
24.3377
20
7.33754
11
24.9325
21
7.53081
0
LINE
8
BLACK
6
CONTINUOUS
10
24.9325
20
7.53081
11
25.5567
21
7.57008
0
LINE
8
BLACK
6
CONTINUOUS
10
25.5567
20
7.57008
11
26.171
21
7.45289
0
LINE
8
BLACK
6
CONTINUOUS
10
26.171
20
7.45289
11
26.7369
21
7.1866
0
LINE
8
BLACK
6
CONTINUOUS
10
26.7369
20
7.1866
11
27.2188
21
6.78794
0
LINE
8
BLACK
6
CONTINUOUS
10
27.2188
20
6.78794
11
27.5864
21
6.28198
0
LINE
8
BLACK
6
CONTINUOUS
10
27.5864
20
6.28198
11
27.8166
21
5.70048
0
LINE
8
BLACK
6
CONTINUOUS
10
27.8166
20
5.70048
11
27.895
21
5.08
0
LINE
8
BLACK
6
CONTINUOUS
10
27.895
20
5.08
11
27.8166
21
4.45952
0
LINE
8
BLACK
6
CONTINUOUS
10
27.8166
20
4.45952
11
27.5864
21
3.87802
0
LINE
8
BLACK
6
CONTINUOUS
10
27.525
20
6.24825
11
27.1677
21
6.74003
0
LINE
8
BLACK
6
CONTINUOUS
10
27.1677
20
6.74003
11
26.6994
21
7.12749
0
LINE
8
BLACK
6
CONTINUOUS
10
26.6994
20
7.12749
11
26.1494
21
7.38631
0
LINE
8
BLACK
6
CONTINUOUS
10
26.1494
20
7.38631
11
25.5523
21
7.50021
0
LINE
8
BLACK
6
CONTINUOUS
10
25.5523
20
7.50021
11
24.9456
21
7.46205
0
LINE
8
BLACK
6
CONTINUOUS
10
24.9456
20
7.46205
11
24.3675
21
7.27421
0
LINE
8
BLACK
6
CONTINUOUS
10
24.3675
20
7.27421
11
23.8542
21
6.94849
0
LINE
8
BLACK
6
CONTINUOUS
10
23.8542
20
6.94849
11
23.4381
21
6.50538
0
LINE
8
BLACK
6
CONTINUOUS
10
23.4381
20
6.50538
11
23.1453
21
5.9727
0
LINE
8
BLACK
6
CONTINUOUS
10
23.1453
20
5.9727
11
22.9941
21
5.38393
0
LINE
8
BLACK
6
CONTINUOUS
10
22.9941
20
5.38393
11
22.9941
21
4.77607
0
LINE
8
BLACK
6
CONTINUOUS
10
22.9941
20
4.77607
11
23.1453
21
4.1873
0
LINE
8
BLACK
6
CONTINUOUS
10
23.1453
20
4.1873
11
23.4381
21
3.65462
0
LINE
8
BLACK
6
CONTINUOUS
10
23.4381
20
3.65462
11
23.8542
21
3.2115
0
LINE
8
BLACK
6
CONTINUOUS
10
23.8542
20
3.2115
11
24.3675
21
2.88579
0
LINE
8
BLACK
6
CONTINUOUS
10
24.3675
20
2.88579
11
24.9456
21
2.69795
0
LINE
8
BLACK
6
CONTINUOUS
10
24.9456
20
2.69795
11
25.5523
21
2.65978
0
LINE
8
BLACK
6
CONTINUOUS
10
25.5523
20
2.65978
11
26.1494
21
2.77369
0
LINE
8
BLACK
6
CONTINUOUS
10
26.1494
20
2.77369
11
26.6994
21
3.03251
0
LINE
8
BLACK
6
CONTINUOUS
10
26.6994
20
3.03251
11
27.1677
21
3.41997
0
LINE
8
BLACK
6
CONTINUOUS
10
27.1677
20
3.41997
11
27.525
21
3.91175
0
LINE
8
BLACK
6
CONTINUOUS
10
27.525
20
3.91175
11
27.7488
21
4.47693
0
LINE
8
BLACK
6
CONTINUOUS
10
27.7488
20
4.47693
11
27.825
21
5.08
0
LINE
8
BLACK
6
CONTINUOUS
10
27.825
20
5.08
11
27.7488
21
5.68307
0
LINE
8
BLACK
6
CONTINUOUS
10
27.7488
20
5.68307
11
27.525
21
6.24825
0
LINE
8
BLACK
6
CONTINUOUS
10
120.296
20
20.388
11
119.929
21
19.8821
0
LINE
8
BLACK
6
CONTINUOUS
10
119.929
20
19.8821
11
119.447
21
19.4834
0
LINE
8
BLACK
6
CONTINUOUS
10
119.447
20
19.4834
11
118.881
21
19.2171
0
LINE
8
BLACK
6
CONTINUOUS
10
118.881
20
19.2171
11
118.267
21
19.0999
0
LINE
8
BLACK
6
CONTINUOUS
10
118.267
20
19.0999
11
117.642
21
19.1392
0
LINE
8
BLACK
6
CONTINUOUS
10
117.642
20
19.1392
11
117.048
21
19.3325
0
LINE
8
BLACK
6
CONTINUOUS
10
117.048
20
19.3325
11
116.52
21
19.6676
0
LINE
8
BLACK
6
CONTINUOUS
10
116.52
20
19.6676
11
116.092
21
20.1235
0
LINE
8
BLACK
6
CONTINUOUS
10
116.092
20
20.1235
11
115.79
21
20.6715
0
LINE
8
BLACK
6
CONTINUOUS
10
115.79
20
20.6715
11
115.635
21
21.2773
0
LINE
8
BLACK
6
CONTINUOUS
10
115.635
20
21.2773
11
115.635
21
21.9027
0
LINE
8
BLACK
6
CONTINUOUS
10
115.635
20
21.9027
11
115.79
21
22.5085
0
LINE
8
BLACK
6
CONTINUOUS
10
115.79
20
22.5085
11
116.092
21
23.0565
0
LINE
8
BLACK
6
CONTINUOUS
10
116.092
20
23.0565
11
116.52
21
23.5124
0
LINE
8
BLACK
6
CONTINUOUS
10
116.52
20
23.5124
11
117.048
21
23.8475
0
LINE
8
BLACK
6
CONTINUOUS
10
117.048
20
23.8475
11
117.642
21
24.0408
0
LINE
8
BLACK
6
CONTINUOUS
10
117.642
20
24.0408
11
118.267
21
24.0801
0
LINE
8
BLACK
6
CONTINUOUS
10
118.267
20
24.0801
11
118.881
21
23.9629
0
LINE
8
BLACK
6
CONTINUOUS
10
118.881
20
23.9629
11
119.447
21
23.6966
0
LINE
8
BLACK
6
CONTINUOUS
10
119.447
20
23.6966
11
119.929
21
23.2979
0
LINE
8
BLACK
6
CONTINUOUS
10
119.929
20
23.2979
11
120.296
21
22.792
0
LINE
8
BLACK
6
CONTINUOUS
10
120.296
20
22.792
11
120.527
21
22.2105
0
LINE
8
BLACK
6
CONTINUOUS
10
120.527
20
22.2105
11
120.605
21
21.59
0
LINE
8
BLACK
6
CONTINUOUS
10
120.605
20
21.59
11
120.527
21
20.9695
0
LINE
8
BLACK
6
CONTINUOUS
10
120.527
20
20.9695
11
120.296
21
20.388
0
LINE
8
BLACK
6
CONTINUOUS
10
120.235
20
22.7583
11
119.878
21
23.25
0
LINE
8
BLACK
6
CONTINUOUS
10
119.878
20
23.25
11
119.409
21
23.6375
0
LINE
8
BLACK
6
CONTINUOUS
10
119.409
20
23.6375
11
118.859
21
23.8963
0
LINE
8
BLACK
6
CONTINUOUS
10
118.859
20
23.8963
11
118.262
21
24.0102
0
LINE
8
BLACK
6
CONTINUOUS
10
118.262
20
24.0102
11
117.656
21
23.972
0
LINE
8
BLACK
6
CONTINUOUS
10
117.656
20
23.972
11
117.077
21
23.7842
0
LINE
8
BLACK
6
CONTINUOUS
10
117.077
20
23.7842
11
116.564
21
23.4585
0
LINE
8
BLACK
6
CONTINUOUS
10
116.564
20
23.4585
11
116.148
21
23.0154
0
LINE
8
BLACK
6
CONTINUOUS
10
116.148
20
23.0154
11
115.855
21
22.4827
0
LINE
8
BLACK
6
CONTINUOUS
10
115.855
20
22.4827
11
115.704
21
21.8939
0
LINE
8
BLACK
6
CONTINUOUS
10
115.704
20
21.8939
11
115.704
21
21.2861
0
LINE
8
BLACK
6
CONTINUOUS
10
115.704
20
21.2861
11
115.855
21
20.6973
0
LINE
8
BLACK
6
CONTINUOUS
10
115.855
20
20.6973
11
116.148
21
20.1646
0
LINE
8
BLACK
6
CONTINUOUS
10
116.148
20
20.1646
11
116.564
21
19.7215
0
LINE
8
BLACK
6
CONTINUOUS
10
116.564
20
19.7215
11
117.077
21
19.3958
0
LINE
8
BLACK
6
CONTINUOUS
10
117.077
20
19.3958
11
117.656
21
19.208
0
LINE
8
BLACK
6
CONTINUOUS
10
117.656
20
19.208
11
118.262
21
19.1698
0
LINE
8
BLACK
6
CONTINUOUS
10
118.262
20
19.1698
11
118.859
21
19.2837
0
LINE
8
BLACK
6
CONTINUOUS
10
118.859
20
19.2837
11
119.409
21
19.5425
0
LINE
8
BLACK
6
CONTINUOUS
10
119.409
20
19.5425
11
119.878
21
19.93
0
LINE
8
BLACK
6
CONTINUOUS
10
119.878
20
19.93
11
120.235
21
20.4217
0
LINE
8
BLACK
6
CONTINUOUS
10
120.235
20
20.4217
11
120.459
21
20.9869
0
LINE
8
BLACK
6
CONTINUOUS
10
120.459
20
20.9869
11
120.535
21
21.59
0
LINE
8
BLACK
6
CONTINUOUS
10
120.535
20
21.59
11
120.459
21
22.1931
0
LINE
8
BLACK
6
CONTINUOUS
10
120.459
20
22.1931
11
120.235
21
22.7583
0
LINE
8
BLACK
6
CONTINUOUS
10
72.0364
20
21.658
11
71.6688
21
21.1521
0
LINE
8
BLACK
6
CONTINUOUS
10
71.6688
20
21.1521
11
71.1869
21
20.7534
0
LINE
8
BLACK
6
CONTINUOUS
10
71.1869
20
20.7534
11
70.621
21
20.4871
0
LINE
8
BLACK
6
CONTINUOUS
10
70.621
20
20.4871
11
70.0067
21
20.3699
0
LINE
8
BLACK
6
CONTINUOUS
10
70.0067
20
20.3699
11
69.3825
21
20.4092
0
LINE
8
BLACK
6
CONTINUOUS
10
69.3825
20
20.4092
11
68.7877
21
20.6025
0
LINE
8
BLACK
6
CONTINUOUS
10
68.7877
20
20.6025
11
68.2596
21
20.9376
0
LINE
8
BLACK
6
CONTINUOUS
10
68.2596
20
20.9376
11
67.8315
21
21.3935
0
LINE
8
BLACK
6
CONTINUOUS
10
67.8315
20
21.3935
11
67.5302
21
21.9415
0
LINE
8
BLACK
6
CONTINUOUS
10
67.5302
20
21.9415
11
67.3747
21
22.5473
0
LINE
8
BLACK
6
CONTINUOUS
10
67.3747
20
22.5473
11
67.3747
21
23.1727
0
LINE
8
BLACK
6
CONTINUOUS
10
67.3747
20
23.1727
11
67.5302
21
23.7785
0
LINE
8
BLACK
6
CONTINUOUS
10
67.5302
20
23.7785
11
67.8315
21
24.3265
0
LINE
8
BLACK
6
CONTINUOUS
10
67.8315
20
24.3265
11
68.2596
21
24.7824
0
LINE
8
BLACK
6
CONTINUOUS
10
68.2596
20
24.7824
11
68.7877
21
25.1175
0
LINE
8
BLACK
6
CONTINUOUS
10
68.7877
20
25.1175
11
69.3825
21
25.3108
0
LINE
8
BLACK
6
CONTINUOUS
10
69.3825
20
25.3108
11
70.0067
21
25.3501
0
LINE
8
BLACK
6
CONTINUOUS
10
70.0067
20
25.3501
11
70.621
21
25.2329
0
LINE
8
BLACK
6
CONTINUOUS
10
70.621
20
25.2329
11
71.1869
21
24.9666
0
LINE
8
BLACK
6
CONTINUOUS
10
71.1869
20
24.9666
11
71.6688
21
24.5679
0
LINE
8
BLACK
6
CONTINUOUS
10
71.6688
20
24.5679
11
72.0364
21
24.062
0
LINE
8
BLACK
6
CONTINUOUS
10
72.0364
20
24.062
11
72.2666
21
23.4805
0
LINE
8
BLACK
6
CONTINUOUS
10
72.2666
20
23.4805
11
72.345
21
22.86
0
LINE
8
BLACK
6
CONTINUOUS
10
72.345
20
22.86
11
72.2666
21
22.2395
0
LINE
8
BLACK
6
CONTINUOUS
10
72.2666
20
22.2395
11
72.0364
21
21.658
0
LINE
8
BLACK
6
CONTINUOUS
10
71.975
20
24.0283
11
71.6177
21
24.52
0
LINE
8
BLACK
6
CONTINUOUS
10
71.6177
20
24.52
11
71.1494
21
24.9075
0
LINE
8
BLACK
6
CONTINUOUS
10
71.1494
20
24.9075
11
70.5994
21
25.1663
0
LINE
8
BLACK
6
CONTINUOUS
10
70.5994
20
25.1663
11
70.0023
21
25.2802
0
LINE
8
BLACK
6
CONTINUOUS
10
70.0023
20
25.2802
11
69.3956
21
25.242
0
LINE
8
BLACK
6
CONTINUOUS
10
69.3956
20
25.242
11
68.8175
21
25.0542
0
LINE
8
BLACK
6
CONTINUOUS
10
68.8175
20
25.0542
11
68.3042
21
24.7285
0
LINE
8
BLACK
6
CONTINUOUS
10
68.3042
20
24.7285
11
67.8881
21
24.2854
0
LINE
8
BLACK
6
CONTINUOUS
10
67.8881
20
24.2854
11
67.5953
21
23.7527
0
LINE
8
BLACK
6
CONTINUOUS
10
67.5953
20
23.7527
11
67.4441
21
23.1639
0
LINE
8
BLACK
6
CONTINUOUS
10
67.4441
20
23.1639
11
67.4441
21
22.5561
0
LINE
8
BLACK
6
CONTINUOUS
10
67.4441
20
22.5561
11
67.5953
21
21.9673
0
LINE
8
BLACK
6
CONTINUOUS
10
67.5953
20
21.9673
11
67.8881
21
21.4346
0
LINE
8
BLACK
6
CONTINUOUS
10
67.8881
20
21.4346
11
68.3042
21
20.9915
0
LINE
8
BLACK
6
CONTINUOUS
10
68.3042
20
20.9915
11
68.8175
21
20.6658
0
LINE
8
BLACK
6
CONTINUOUS
10
68.8175
20
20.6658
11
69.3956
21
20.478
0
LINE
8
BLACK
6
CONTINUOUS
10
69.3956
20
20.478
11
70.0023
21
20.4398
0
LINE
8
BLACK
6
CONTINUOUS
10
70.0023
20
20.4398
11
70.5994
21
20.5537
0
LINE
8
BLACK
6
CONTINUOUS
10
70.5994
20
20.5537
11
71.1494
21
20.8125
0
LINE
8
BLACK
6
CONTINUOUS
10
71.1494
20
20.8125
11
71.6177
21
21.2
0
LINE
8
BLACK
6
CONTINUOUS
10
71.6177
20
21.2
11
71.975
21
21.6917
0
LINE
8
BLACK
6
CONTINUOUS
10
71.975
20
21.6917
11
72.1988
21
22.2569
0
LINE
8
BLACK
6
CONTINUOUS
10
72.1988
20
22.2569
11
72.275
21
22.86
0
LINE
8
BLACK
6
CONTINUOUS
10
72.275
20
22.86
11
72.1988
21
23.4631
0
LINE
8
BLACK
6
CONTINUOUS
10
72.1988
20
23.4631
11
71.975
21
24.0283
0
LINE
8
BLACK
6
CONTINUOUS
10
120.296
20
25.468
11
119.929
21
24.9621
0
LINE
8
BLACK
6
CONTINUOUS
10
119.929
20
24.9621
11
119.447
21
24.5634
0
LINE
8
BLACK
6
CONTINUOUS
10
119.447
20
24.5634
11
118.881
21
24.2971
0
LINE
8
BLACK
6
CONTINUOUS
10
118.881
20
24.2971
11
118.267
21
24.1799
0
LINE
8
BLACK
6
CONTINUOUS
10
118.267
20
24.1799
11
117.642
21
24.2192
0
LINE
8
BLACK
6
CONTINUOUS
10
117.642
20
24.2192
11
117.048
21
24.4125
0
LINE
8
BLACK
6
CONTINUOUS
10
117.048
20
24.4125
11
116.52
21
24.7476
0
LINE
8
BLACK
6
CONTINUOUS
10
116.52
20
24.7476
11
116.092
21
25.2035
0
LINE
8
BLACK
6
CONTINUOUS
10
116.092
20
25.2035
11
115.79
21
25.7515
0
LINE
8
BLACK
6
CONTINUOUS
10
115.79
20
25.7515
11
115.635
21
26.3573
0
LINE
8
BLACK
6
CONTINUOUS
10
115.635
20
26.3573
11
115.635
21
26.9827
0
LINE
8
BLACK
6
CONTINUOUS
10
115.635
20
26.9827
11
115.79
21
27.5885
0
LINE
8
BLACK
6
CONTINUOUS
10
115.79
20
27.5885
11
116.092
21
28.1365
0
LINE
8
BLACK
6
CONTINUOUS
10
116.092
20
28.1365
11
116.52
21
28.5924
0
LINE
8
BLACK
6
CONTINUOUS
10
116.52
20
28.5924
11
117.048
21
28.9275
0
LINE
8
BLACK
6
CONTINUOUS
10
117.048
20
28.9275
11
117.642
21
29.1208
0
LINE
8
BLACK
6
CONTINUOUS
10
117.642
20
29.1208
11
118.267
21
29.1601
0
LINE
8
BLACK
6
CONTINUOUS
10
118.267
20
29.1601
11
118.881
21
29.0429
0
LINE
8
BLACK
6
CONTINUOUS
10
118.881
20
29.0429
11
119.447
21
28.7766
0
LINE
8
BLACK
6
CONTINUOUS
10
119.447
20
28.7766
11
119.929
21
28.3779
0
LINE
8
BLACK
6
CONTINUOUS
10
119.929
20
28.3779
11
120.296
21
27.872
0
LINE
8
BLACK
6
CONTINUOUS
10
120.296
20
27.872
11
120.527
21
27.2905
0
LINE
8
BLACK
6
CONTINUOUS
10
120.527
20
27.2905
11
120.605
21
26.67
0
LINE
8
BLACK
6
CONTINUOUS
10
120.605
20
26.67
11
120.527
21
26.0495
0
LINE
8
BLACK
6
CONTINUOUS
10
120.527
20
26.0495
11
120.296
21
25.468
0
LINE
8
BLACK
6
CONTINUOUS
10
120.235
20
27.8383
11
119.878
21
28.33
0
LINE
8
BLACK
6
CONTINUOUS
10
119.878
20
28.33
11
119.409
21
28.7175
0
LINE
8
BLACK
6
CONTINUOUS
10
119.409
20
28.7175
11
118.859
21
28.9763
0
LINE
8
BLACK
6
CONTINUOUS
10
118.859
20
28.9763
11
118.262
21
29.0902
0
LINE
8
BLACK
6
CONTINUOUS
10
118.262
20
29.0902
11
117.656
21
29.052
0
LINE
8
BLACK
6
CONTINUOUS
10
117.656
20
29.052
11
117.077
21
28.8642
0
LINE
8
BLACK
6
CONTINUOUS
10
117.077
20
28.8642
11
116.564
21
28.5385
0
LINE
8
BLACK
6
CONTINUOUS
10
116.564
20
28.5385
11
116.148
21
28.0954
0
LINE
8
BLACK
6
CONTINUOUS
10
116.148
20
28.0954
11
115.855
21
27.5627
0
LINE
8
BLACK
6
CONTINUOUS
10
115.855
20
27.5627
11
115.704
21
26.9739
0
LINE
8
BLACK
6
CONTINUOUS
10
115.704
20
26.9739
11
115.704
21
26.3661
0
LINE
8
BLACK
6
CONTINUOUS
10
115.704
20
26.3661
11
115.855
21
25.7773
0
LINE
8
BLACK
6
CONTINUOUS
10
115.855
20
25.7773
11
116.148
21
25.2446
0
LINE
8
BLACK
6
CONTINUOUS
10
116.148
20
25.2446
11
116.564
21
24.8015
0
LINE
8
BLACK
6
CONTINUOUS
10
116.564
20
24.8015
11
117.077
21
24.4758
0
LINE
8
BLACK
6
CONTINUOUS
10
117.077
20
24.4758
11
117.656
21
24.288
0
LINE
8
BLACK
6
CONTINUOUS
10
117.656
20
24.288
11
118.262
21
24.2498
0
LINE
8
BLACK
6
CONTINUOUS
10
118.262
20
24.2498
11
118.859
21
24.3637
0
LINE
8
BLACK
6
CONTINUOUS
10
118.859
20
24.3637
11
119.409
21
24.6225
0
LINE
8
BLACK
6
CONTINUOUS
10
119.409
20
24.6225
11
119.878
21
25.01
0
LINE
8
BLACK
6
CONTINUOUS
10
119.878
20
25.01
11
120.235
21
25.5017
0
LINE
8
BLACK
6
CONTINUOUS
10
120.235
20
25.5017
11
120.459
21
26.0669
0
LINE
8
BLACK
6
CONTINUOUS
10
120.459
20
26.0669
11
120.535
21
26.67
0
LINE
8
BLACK
6
CONTINUOUS
10
120.535
20
26.67
11
120.459
21
27.2731
0
LINE
8
BLACK
6
CONTINUOUS
10
120.459
20
27.2731
11
120.235
21
27.8383
0
LINE
8
BLACK
6
CONTINUOUS
10
7.26638
20
39.438
11
6.89878
21
38.9321
0
LINE
8
BLACK
6
CONTINUOUS
10
6.89878
20
38.9321
11
6.41689
21
38.5334
0
LINE
8
BLACK
6
CONTINUOUS
10
6.41689
20
38.5334
11
5.851
21
38.2671
0
LINE
8
BLACK
6
CONTINUOUS
10
5.851
20
38.2671
11
5.23666
21
38.1499
0
LINE
8
BLACK
6
CONTINUOUS
10
5.23666
20
38.1499
11
4.61248
21
38.1892
0
LINE
8
BLACK
6
CONTINUOUS
10
4.61248
20
38.1892
11
4.01768
21
38.3825
0
LINE
8
BLACK
6
CONTINUOUS
10
4.01768
20
38.3825
11
3.48963
21
38.7176
0
LINE
8
BLACK
6
CONTINUOUS
10
3.48963
20
38.7176
11
3.0615
21
39.1735
0
LINE
8
BLACK
6
CONTINUOUS
10
3.0615
20
39.1735
11
2.76021
21
39.7215
0
LINE
8
BLACK
6
CONTINUOUS
10
2.76021
20
39.7215
11
2.60467
21
40.3273
0
LINE
8
BLACK
6
CONTINUOUS
10
2.60467
20
40.3273
11
2.60467
21
40.9527
0
LINE
8
BLACK
6
CONTINUOUS
10
2.60467
20
40.9527
11
2.76021
21
41.5585
0
LINE
8
BLACK
6
CONTINUOUS
10
2.76021
20
41.5585
11
3.0615
21
42.1065
0
LINE
8
BLACK
6
CONTINUOUS
10
3.0615
20
42.1065
11
3.48963
21
42.5624
0
LINE
8
BLACK
6
CONTINUOUS
10
3.48963
20
42.5624
11
4.01768
21
42.8975
0
LINE
8
BLACK
6
CONTINUOUS
10
4.01768
20
42.8975
11
4.61248
21
43.0908
0
LINE
8
BLACK
6
CONTINUOUS
10
4.61248
20
43.0908
11
5.23666
21
43.1301
0
LINE
8
BLACK
6
CONTINUOUS
10
5.23666
20
43.1301
11
5.851
21
43.0129
0
LINE
8
BLACK
6
CONTINUOUS
10
5.851
20
43.0129
11
6.41689
21
42.7466
0
LINE
8
BLACK
6
CONTINUOUS
10
6.41689
20
42.7466
11
6.89878
21
42.3479
0
LINE
8
BLACK
6
CONTINUOUS
10
6.89878
20
42.3479
11
7.26638
21
41.842
0
LINE
8
BLACK
6
CONTINUOUS
10
7.26638
20
41.842
11
7.49661
21
41.2605
0
LINE
8
BLACK
6
CONTINUOUS
10
7.49661
20
41.2605
11
7.575
21
40.64
0
LINE
8
BLACK
6
CONTINUOUS
10
7.575
20
40.64
11
7.49661
21
40.0195
0
LINE
8
BLACK
6
CONTINUOUS
10
7.49661
20
40.0195
11
7.26638
21
39.438
0
LINE
8
BLACK
6
CONTINUOUS
10
7.20504
20
41.8083
11
6.84775
21
42.3
0
LINE
8
BLACK
6
CONTINUOUS
10
6.84775
20
42.3
11
6.37938
21
42.6875
0
LINE
8
BLACK
6
CONTINUOUS
10
6.37938
20
42.6875
11
5.82937
21
42.9463
0
LINE
8
BLACK
6
CONTINUOUS
10
5.82937
20
42.9463
11
5.23227
21
43.0602
0
LINE
8
BLACK
6
CONTINUOUS
10
5.23227
20
43.0602
11
4.6256
21
43.022
0
LINE
8
BLACK
6
CONTINUOUS
10
4.6256
20
43.022
11
4.04748
21
42.8342
0
LINE
8
BLACK
6
CONTINUOUS
10
4.04748
20
42.8342
11
3.53425
21
42.5085
0
LINE
8
BLACK
6
CONTINUOUS
10
3.53425
20
42.5085
11
3.11813
21
42.0654
0
LINE
8
BLACK
6
CONTINUOUS
10
3.11813
20
42.0654
11
2.82529
21
41.5327
0
LINE
8
BLACK
6
CONTINUOUS
10
2.82529
20
41.5327
11
2.67412
21
40.9439
0
LINE
8
BLACK
6
CONTINUOUS
10
2.67412
20
40.9439
11
2.67412
21
40.3361
0
LINE
8
BLACK
6
CONTINUOUS
10
2.67412
20
40.3361
11
2.82529
21
39.7473
0
LINE
8
BLACK
6
CONTINUOUS
10
2.82529
20
39.7473
11
3.11813
21
39.2146
0
LINE
8
BLACK
6
CONTINUOUS
10
3.11813
20
39.2146
11
3.53425
21
38.7715
0
LINE
8
BLACK
6
CONTINUOUS
10
3.53425
20
38.7715
11
4.04748
21
38.4458
0
LINE
8
BLACK
6
CONTINUOUS
10
4.04748
20
38.4458
11
4.6256
21
38.258
0
LINE
8
BLACK
6
CONTINUOUS
10
4.6256
20
38.258
11
5.23227
21
38.2198
0
LINE
8
BLACK
6
CONTINUOUS
10
5.23227
20
38.2198
11
5.82937
21
38.3337
0
LINE
8
BLACK
6
CONTINUOUS
10
5.82937
20
38.3337
11
6.37938
21
38.5925
0
LINE
8
BLACK
6
CONTINUOUS
10
6.37938
20
38.5925
11
6.84775
21
38.98
0
LINE
8
BLACK
6
CONTINUOUS
10
6.84775
20
38.98
11
7.20504
21
39.4717
0
LINE
8
BLACK
6
CONTINUOUS
10
7.20504
20
39.4717
11
7.42881
21
40.0369
0
LINE
8
BLACK
6
CONTINUOUS
10
7.42881
20
40.0369
11
7.505
21
40.64
0
LINE
8
BLACK
6
CONTINUOUS
10
7.505
20
40.64
11
7.42881
21
41.2431
0
LINE
8
BLACK
6
CONTINUOUS
10
7.42881
20
41.2431
11
7.20504
21
41.8083
0
LINE
8
BLACK
6
CONTINUOUS
10
87.2764
20
59.758
11
86.9088
21
59.2521
0
LINE
8
BLACK
6
CONTINUOUS
10
86.9088
20
59.2521
11
86.4269
21
58.8534
0
LINE
8
BLACK
6
CONTINUOUS
10
86.4269
20
58.8534
11
85.861
21
58.5871
0
LINE
8
BLACK
6
CONTINUOUS
10
85.861
20
58.5871
11
85.2467
21
58.4699
0
LINE
8
BLACK
6
CONTINUOUS
10
85.2467
20
58.4699
11
84.6225
21
58.5092
0
LINE
8
BLACK
6
CONTINUOUS
10
84.6225
20
58.5092
11
84.0277
21
58.7025
0
LINE
8
BLACK
6
CONTINUOUS
10
84.0277
20
58.7025
11
83.4996
21
59.0376
0
LINE
8
BLACK
6
CONTINUOUS
10
83.4996
20
59.0376
11
83.0715
21
59.4935
0
LINE
8
BLACK
6
CONTINUOUS
10
83.0715
20
59.4935
11
82.7702
21
60.0415
0
LINE
8
BLACK
6
CONTINUOUS
10
82.7702
20
60.0415
11
82.6147
21
60.6473
0
LINE
8
BLACK
6
CONTINUOUS
10
82.6147
20
60.6473
11
82.6147
21
61.2727
0
LINE
8
BLACK
6
CONTINUOUS
10
82.6147
20
61.2727
11
82.7702
21
61.8785
0
LINE
8
BLACK
6
CONTINUOUS
10
82.7702
20
61.8785
11
83.0715
21
62.4265
0
LINE
8
BLACK
6
CONTINUOUS
10
83.0715
20
62.4265
11
83.4996
21
62.8824
0
LINE
8
BLACK
6
CONTINUOUS
10
83.4996
20
62.8824
11
84.0277
21
63.2175
0
LINE
8
BLACK
6
CONTINUOUS
10
84.0277
20
63.2175
11
84.6225
21
63.4108
0
LINE
8
BLACK
6
CONTINUOUS
10
84.6225
20
63.4108
11
85.2467
21
63.4501
0
LINE
8
BLACK
6
CONTINUOUS
10
85.2467
20
63.4501
11
85.861
21
63.3329
0
LINE
8
BLACK
6
CONTINUOUS
10
85.861
20
63.3329
11
86.4269
21
63.0666
0
LINE
8
BLACK
6
CONTINUOUS
10
86.4269
20
63.0666
11
86.9088
21
62.6679
0
LINE
8
BLACK
6
CONTINUOUS
10
86.9088
20
62.6679
11
87.2764
21
62.162
0
LINE
8
BLACK
6
CONTINUOUS
10
87.2764
20
62.162
11
87.5066
21
61.5805
0
LINE
8
BLACK
6
CONTINUOUS
10
87.5066
20
61.5805
11
87.585
21
60.96
0
LINE
8
BLACK
6
CONTINUOUS
10
87.585
20
60.96
11
87.5066
21
60.3395
0
LINE
8
BLACK
6
CONTINUOUS
10
87.5066
20
60.3395
11
87.2764
21
59.758
0
LINE
8
BLACK
6
CONTINUOUS
10
87.215
20
62.1283
11
86.8577
21
62.62
0
LINE
8
BLACK
6
CONTINUOUS
10
86.8577
20
62.62
11
86.3894
21
63.0075
0
LINE
8
BLACK
6
CONTINUOUS
10
86.3894
20
63.0075
11
85.8394
21
63.2663
0
LINE
8
BLACK
6
CONTINUOUS
10
85.8394
20
63.2663
11
85.2423
21
63.3802
0
LINE
8
BLACK
6
CONTINUOUS
10
85.2423
20
63.3802
11
84.6356
21
63.342
0
LINE
8
BLACK
6
CONTINUOUS
10
84.6356
20
63.342
11
84.0575
21
63.1542
0
LINE
8
BLACK
6
CONTINUOUS
10
84.0575
20
63.1542
11
83.5442
21
62.8285
0
LINE
8
BLACK
6
CONTINUOUS
10
83.5442
20
62.8285
11
83.1281
21
62.3854
0
LINE
8
BLACK
6
CONTINUOUS
10
83.1281
20
62.3854
11
82.8353
21
61.8527
0
LINE
8
BLACK
6
CONTINUOUS
10
82.8353
20
61.8527
11
82.6841
21
61.2639
0
LINE
8
BLACK
6
CONTINUOUS
10
82.6841
20
61.2639
11
82.6841
21
60.6561
0
LINE
8
BLACK
6
CONTINUOUS
10
82.6841
20
60.6561
11
82.8353
21
60.0673
0
LINE
8
BLACK
6
CONTINUOUS
10
82.8353
20
60.0673
11
83.1281
21
59.5346
0
LINE
8
BLACK
6
CONTINUOUS
10
83.1281
20
59.5346
11
83.5442
21
59.0915
0
LINE
8
BLACK
6
CONTINUOUS
10
83.5442
20
59.0915
11
84.0575
21
58.7658
0
LINE
8
BLACK
6
CONTINUOUS
10
84.0575
20
58.7658
11
84.6356
21
58.578
0
LINE
8
BLACK
6
CONTINUOUS
10
84.6356
20
58.578
11
85.2423
21
58.5398
0
LINE
8
BLACK
6
CONTINUOUS
10
85.2423
20
58.5398
11
85.8394
21
58.6537
0
LINE
8
BLACK
6
CONTINUOUS
10
85.8394
20
58.6537
11
86.3894
21
58.9125
0
LINE
8
BLACK
6
CONTINUOUS
10
86.3894
20
58.9125
11
86.8577
21
59.3
0
LINE
8
BLACK
6
CONTINUOUS
10
86.8577
20
59.3
11
87.215
21
59.7917
0
LINE
8
BLACK
6
CONTINUOUS
10
87.215
20
59.7917
11
87.4388
21
60.3569
0
LINE
8
BLACK
6
CONTINUOUS
10
87.4388
20
60.3569
11
87.515
21
60.96
0
LINE
8
BLACK
6
CONTINUOUS
10
87.515
20
60.96
11
87.4388
21
61.5631
0
LINE
8
BLACK
6
CONTINUOUS
10
87.4388
20
61.5631
11
87.215
21
62.1283
  0
ENDSEC
  0
EOF
