  0
SECTION
  2
HEADER
  9
$ANGBASE
  50
0.0
  9
$ANGDIR
  70
  1
  9
$MEASUREMENT
  70
0
  0
ENDSEC
  0
SECTION
  2
TABLES
  0
TABLE
  2
LTYPE
  70
4
  0
LTYPE
  5
40F
  2
CONTINUOUS
  70
0
  3
Solid line
  72
65
  73
0
  40
0.0
  0
LTYPE
  5
410
  2
DASHDOT
 70
0
  3
Dash Dot ____ _ ____ _
 72
65
 73
4
 40
2.0
 49
1.25
 49
-0.25
 49
0.25
 49
-0.25
  0
LTYPE
  5
411
  2
DASHED
 70
0
  3
Dashed __ __ __ __ __
 72
65
 73
2
 40
0.75
 49
0.5
 49
-0.25
  0
LTYPE
  5
43B
  2
DOTTED
 70
0
  3
Dotted .  .  .  .
 72
65
 73
2
 40
0.2
 49
0.0
 49
-0.2
  0
ENDTAB
  0
TABLE
  2
STYLE
  70
4
  0
STYLE
  2
KICAD
  70
0
  40
0
  41
1
  42
1
  50
0
  71
0
  3
isocp.shx
  0
STYLE
  2
KICADB
  70
0
  40
0
  41
1
  42
1
  50
0
  71
0
  3
isocp.shx
  0
STYLE
  2
KICADI
  70
0
  40
0
  41
1
  42
1
  50
15
  71
0
  3
isocp.shx
  0
STYLE
  2
KICADBI
  70
0
  40
0
  41
1
  42
1
  50
15
  71
0
  3
isocp.shx
  0
ENDTAB
  0
TABLE
  2
LAYER
  70
30
  0
LAYER
  2
BLACK
  70
0
  62
7
  6
CONTINUOUS
  0
LAYER
  2
GRAY1
  70
0
  62
251
  6
CONTINUOUS
  0
LAYER
  2
GRAY2
  70
0
  62
8
  6
CONTINUOUS
  0
LAYER
  2
GRAY3
  70
0
  62
9
  6
CONTINUOUS
  0
LAYER
  2
WHITE
  70
0
  62
7
  6
CONTINUOUS
  0
LAYER
  2
LYELLOW
  70
0
  62
51
  6
CONTINUOUS
  0
LAYER
  2
BLUE1
  70
0
  62
178
  6
CONTINUOUS
  0
LAYER
  2
GREEN1
  70
0
  62
98
  6
CONTINUOUS
  0
LAYER
  2
CYAN1
  70
0
  62
138
  6
CONTINUOUS
  0
LAYER
  2
RED1
  70
0
  62
18
  6
CONTINUOUS
  0
LAYER
  2
MAGENTA1
  70
0
  62
228
  6
CONTINUOUS
  0
LAYER
  2
BROWN1
  70
0
  62
58
  6
CONTINUOUS
  0
LAYER
  2
BLUE2
  70
0
  62
5
  6
CONTINUOUS
  0
LAYER
  2
GREEN2
  70
0
  62
3
  6
CONTINUOUS
  0
LAYER
  2
CYAN2
  70
0
  62
4
  6
CONTINUOUS
  0
LAYER
  2
RED2
  70
0
  62
1
  6
CONTINUOUS
  0
LAYER
  2
MAGENTA2
  70
0
  62
6
  6
CONTINUOUS
  0
LAYER
  2
BROWN2
  70
0
  62
54
  6
CONTINUOUS
  0
LAYER
  2
BLUE3
  70
0
  62
171
  6
CONTINUOUS
  0
LAYER
  2
GREEN3
  70
0
  62
91
  6
CONTINUOUS
  0
LAYER
  2
CYAN3
  70
0
  62
131
  6
CONTINUOUS
  0
LAYER
  2
RED3
  70
0
  62
11
  6
CONTINUOUS
  0
LAYER
  2
MAGENTA3
  70
0
  62
221
  6
CONTINUOUS
  0
LAYER
  2
YELLOW3
  70
0
  62
2
  6
CONTINUOUS
  0
LAYER
  2
BLUE4
  70
0
  62
5
  6
CONTINUOUS
  0
LAYER
  2
GREEN4
  70
0
  62
3
  6
CONTINUOUS
  0
LAYER
  2
CYAN4
  70
0
  62
4
  6
CONTINUOUS
  0
LAYER
  2
RED4
  70
0
  62
1
  6
CONTINUOUS
  0
LAYER
  2
MAGENTA4
  70
0
  62
6
  6
CONTINUOUS
  0
LAYER
  2
YELLOW4
  70
0
  62
2
  6
CONTINUOUS
  0
ENDTAB
  0
ENDSEC
  0
SECTION
  2
ENTITIES
0
LINE
8
BLACK
6
CONTINUOUS
10
86.8322
20
-33.9272
11
86.8322
21
-65.9272
0
LINE
8
BLACK
6
CONTINUOUS
10
86.8322
20
-65.9272
11
194.832
21
-65.9272
0
LINE
8
BLACK
6
CONTINUOUS
10
194.832
20
-65.9272
11
194.832
21
-33.9272
0
LINE
8
BLACK
6
CONTINUOUS
10
194.832
20
-33.9272
11
86.8322
21
-33.9272
0
LINE
8
BLACK
6
CONTINUOUS
10
-80.17
20
122.08
11
-80.17
21
-67.9272
0
LINE
8
BLACK
6
CONTINUOUS
10
-80.17
20
-67.9272
11
196.832
21
-67.9272
0
LINE
8
BLACK
6
CONTINUOUS
10
196.832
20
-67.9272
11
196.832
21
122.08
0
LINE
8
BLACK
6
CONTINUOUS
10
196.832
20
122.08
11
-80.17
21
122.08
0
LINE
8
BLACK
6
CONTINUOUS
10
-78.17
20
120.08
11
-78.17
21
-65.9272
0
LINE
8
BLACK
6
CONTINUOUS
10
-78.17
20
-65.9272
11
194.832
21
-65.9272
0
LINE
8
BLACK
6
CONTINUOUS
10
194.832
20
-65.9272
11
194.832
21
120.08
0
LINE
8
BLACK
6
CONTINUOUS
10
194.832
20
120.08
11
-78.17
21
120.08
0
LINE
8
BLACK
6
CONTINUOUS
10
-30.17
20
120.08
11
-30.17
21
122.08
0
LINE
8
BLACK
6
CONTINUOUS
10
19.83
20
120.08
11
19.83
21
122.08
0
LINE
8
BLACK
6
CONTINUOUS
10
69.83
20
120.08
11
69.83
21
122.08
0
LINE
8
BLACK
6
CONTINUOUS
10
119.83
20
120.08
11
119.83
21
122.08
0
LINE
8
BLACK
6
CONTINUOUS
10
169.83
20
120.08
11
169.83
21
122.08
0
LINE
8
BLACK
6
CONTINUOUS
10
-54.1045
20
120.492
11
-54.8474
21
120.492
0
LINE
8
BLACK
6
CONTINUOUS
10
-54.476
20
120.492
11
-54.476
21
121.792
0
LINE
8
BLACK
6
CONTINUOUS
10
-54.476
20
121.792
11
-54.5998
21
121.606
0
LINE
8
BLACK
6
CONTINUOUS
10
-54.5998
20
121.606
11
-54.7236
21
121.482
0
LINE
8
BLACK
6
CONTINUOUS
10
-54.7236
20
121.482
11
-54.8474
21
121.42
0
LINE
8
BLACK
6
CONTINUOUS
10
-4.84738
20
121.668
11
-4.78548
21
121.73
0
LINE
8
BLACK
6
CONTINUOUS
10
-4.78548
20
121.73
11
-4.66167
21
121.792
0
LINE
8
BLACK
6
CONTINUOUS
10
-4.66167
20
121.792
11
-4.35214
21
121.792
0
LINE
8
BLACK
6
CONTINUOUS
10
-4.35214
20
121.792
11
-4.22833
21
121.73
0
LINE
8
BLACK
6
CONTINUOUS
10
-4.22833
20
121.73
11
-4.16643
21
121.668
0
LINE
8
BLACK
6
CONTINUOUS
10
-4.16643
20
121.668
11
-4.10452
21
121.544
0
LINE
8
BLACK
6
CONTINUOUS
10
-4.10452
20
121.544
11
-4.10452
21
121.42
0
LINE
8
BLACK
6
CONTINUOUS
10
-4.10452
20
121.42
11
-4.16643
21
121.235
0
LINE
8
BLACK
6
CONTINUOUS
10
-4.16643
20
121.235
11
-4.90929
21
120.492
0
LINE
8
BLACK
6
CONTINUOUS
10
-4.90929
20
120.492
11
-4.10452
21
120.492
0
LINE
8
BLACK
6
CONTINUOUS
10
45.0907
20
121.792
11
45.8955
21
121.792
0
LINE
8
BLACK
6
CONTINUOUS
10
45.8955
20
121.792
11
45.4621
21
121.297
0
LINE
8
BLACK
6
CONTINUOUS
10
45.4621
20
121.297
11
45.6479
21
121.297
0
LINE
8
BLACK
6
CONTINUOUS
10
45.6479
20
121.297
11
45.7717
21
121.235
0
LINE
8
BLACK
6
CONTINUOUS
10
45.7717
20
121.235
11
45.8336
21
121.173
0
LINE
8
BLACK
6
CONTINUOUS
10
45.8336
20
121.173
11
45.8955
21
121.049
0
LINE
8
BLACK
6
CONTINUOUS
10
45.8955
20
121.049
11
45.8955
21
120.74
0
LINE
8
BLACK
6
CONTINUOUS
10
45.8955
20
120.74
11
45.8336
21
120.616
0
LINE
8
BLACK
6
CONTINUOUS
10
45.8336
20
120.616
11
45.7717
21
120.554
0
LINE
8
BLACK
6
CONTINUOUS
10
45.7717
20
120.554
11
45.6479
21
120.492
0
LINE
8
BLACK
6
CONTINUOUS
10
45.6479
20
120.492
11
45.2764
21
120.492
0
LINE
8
BLACK
6
CONTINUOUS
10
45.2764
20
120.492
11
45.1526
21
120.554
0
LINE
8
BLACK
6
CONTINUOUS
10
45.1526
20
120.554
11
45.0907
21
120.616
0
LINE
8
BLACK
6
CONTINUOUS
10
95.7717
20
121.359
11
95.7717
21
120.492
0
LINE
8
BLACK
6
CONTINUOUS
10
95.4621
20
121.854
11
95.1526
21
120.925
0
LINE
8
BLACK
6
CONTINUOUS
10
95.1526
20
120.925
11
95.9574
21
120.925
0
LINE
8
BLACK
6
CONTINUOUS
10
145.834
20
121.792
11
145.215
21
121.792
0
LINE
8
BLACK
6
CONTINUOUS
10
145.215
20
121.792
11
145.153
21
121.173
0
LINE
8
BLACK
6
CONTINUOUS
10
145.153
20
121.173
11
145.215
21
121.235
0
LINE
8
BLACK
6
CONTINUOUS
10
145.215
20
121.235
11
145.338
21
121.297
0
LINE
8
BLACK
6
CONTINUOUS
10
145.338
20
121.297
11
145.648
21
121.297
0
LINE
8
BLACK
6
CONTINUOUS
10
145.648
20
121.297
11
145.772
21
121.235
0
LINE
8
BLACK
6
CONTINUOUS
10
145.772
20
121.235
11
145.834
21
121.173
0
LINE
8
BLACK
6
CONTINUOUS
10
145.834
20
121.173
11
145.895
21
121.049
0
LINE
8
BLACK
6
CONTINUOUS
10
145.895
20
121.049
11
145.895
21
120.74
0
LINE
8
BLACK
6
CONTINUOUS
10
145.895
20
120.74
11
145.834
21
120.616
0
LINE
8
BLACK
6
CONTINUOUS
10
145.834
20
120.616
11
145.772
21
120.554
0
LINE
8
BLACK
6
CONTINUOUS
10
145.772
20
120.554
11
145.648
21
120.492
0
LINE
8
BLACK
6
CONTINUOUS
10
145.648
20
120.492
11
145.338
21
120.492
0
LINE
8
BLACK
6
CONTINUOUS
10
145.338
20
120.492
11
145.215
21
120.554
0
LINE
8
BLACK
6
CONTINUOUS
10
145.215
20
120.554
11
145.153
21
120.616
0
LINE
8
BLACK
6
CONTINUOUS
10
195.772
20
121.792
11
195.524
21
121.792
0
LINE
8
BLACK
6
CONTINUOUS
10
195.524
20
121.792
11
195.4
21
121.73
0
LINE
8
BLACK
6
CONTINUOUS
10
195.4
20
121.73
11
195.338
21
121.668
0
LINE
8
BLACK
6
CONTINUOUS
10
195.338
20
121.668
11
195.215
21
121.482
0
LINE
8
BLACK
6
CONTINUOUS
10
195.215
20
121.482
11
195.153
21
121.235
0
LINE
8
BLACK
6
CONTINUOUS
10
195.153
20
121.235
11
195.153
21
120.74
0
LINE
8
BLACK
6
CONTINUOUS
10
195.153
20
120.74
11
195.215
21
120.616
0
LINE
8
BLACK
6
CONTINUOUS
10
195.215
20
120.616
11
195.276
21
120.554
0
LINE
8
BLACK
6
CONTINUOUS
10
195.276
20
120.554
11
195.4
21
120.492
0
LINE
8
BLACK
6
CONTINUOUS
10
195.4
20
120.492
11
195.648
21
120.492
0
LINE
8
BLACK
6
CONTINUOUS
10
195.648
20
120.492
11
195.772
21
120.554
0
LINE
8
BLACK
6
CONTINUOUS
10
195.772
20
120.554
11
195.834
21
120.616
0
LINE
8
BLACK
6
CONTINUOUS
10
195.834
20
120.616
11
195.895
21
120.74
0
LINE
8
BLACK
6
CONTINUOUS
10
195.895
20
120.74
11
195.895
21
121.049
0
LINE
8
BLACK
6
CONTINUOUS
10
195.895
20
121.049
11
195.834
21
121.173
0
LINE
8
BLACK
6
CONTINUOUS
10
195.834
20
121.173
11
195.772
21
121.235
0
LINE
8
BLACK
6
CONTINUOUS
10
195.772
20
121.235
11
195.648
21
121.297
0
LINE
8
BLACK
6
CONTINUOUS
10
195.648
20
121.297
11
195.4
21
121.297
0
LINE
8
BLACK
6
CONTINUOUS
10
195.4
20
121.297
11
195.276
21
121.235
0
LINE
8
BLACK
6
CONTINUOUS
10
195.276
20
121.235
11
195.215
21
121.173
0
LINE
8
BLACK
6
CONTINUOUS
10
195.215
20
121.173
11
195.153
21
121.049
0
LINE
8
BLACK
6
CONTINUOUS
10
-30.17
20
-65.9272
11
-30.17
21
-67.9272
0
LINE
8
BLACK
6
CONTINUOUS
10
19.83
20
-65.9272
11
19.83
21
-67.9272
0
LINE
8
BLACK
6
CONTINUOUS
10
69.83
20
-65.9272
11
69.83
21
-67.9272
0
LINE
8
BLACK
6
CONTINUOUS
10
119.83
20
-65.9272
11
119.83
21
-67.9272
0
LINE
8
BLACK
6
CONTINUOUS
10
169.83
20
-65.9272
11
169.83
21
-67.9272
0
LINE
8
BLACK
6
CONTINUOUS
10
-54.1045
20
-67.5153
11
-54.8474
21
-67.5153
0
LINE
8
BLACK
6
CONTINUOUS
10
-54.476
20
-67.5153
11
-54.476
21
-66.2153
0
LINE
8
BLACK
6
CONTINUOUS
10
-54.476
20
-66.2153
11
-54.5998
21
-66.401
0
LINE
8
BLACK
6
CONTINUOUS
10
-54.5998
20
-66.401
11
-54.7236
21
-66.5248
0
LINE
8
BLACK
6
CONTINUOUS
10
-54.7236
20
-66.5248
11
-54.8474
21
-66.5867
0
LINE
8
BLACK
6
CONTINUOUS
10
-4.84738
20
-66.3391
11
-4.78548
21
-66.2772
0
LINE
8
BLACK
6
CONTINUOUS
10
-4.78548
20
-66.2772
11
-4.66167
21
-66.2153
0
LINE
8
BLACK
6
CONTINUOUS
10
-4.66167
20
-66.2153
11
-4.35214
21
-66.2153
0
LINE
8
BLACK
6
CONTINUOUS
10
-4.35214
20
-66.2153
11
-4.22833
21
-66.2772
0
LINE
8
BLACK
6
CONTINUOUS
10
-4.22833
20
-66.2772
11
-4.16643
21
-66.3391
0
LINE
8
BLACK
6
CONTINUOUS
10
-4.16643
20
-66.3391
11
-4.10452
21
-66.4629
0
LINE
8
BLACK
6
CONTINUOUS
10
-4.10452
20
-66.4629
11
-4.10452
21
-66.5867
0
LINE
8
BLACK
6
CONTINUOUS
10
-4.10452
20
-66.5867
11
-4.16643
21
-66.7724
0
LINE
8
BLACK
6
CONTINUOUS
10
-4.16643
20
-66.7724
11
-4.90929
21
-67.5153
0
LINE
8
BLACK
6
CONTINUOUS
10
-4.90929
20
-67.5153
11
-4.10452
21
-67.5153
0
LINE
8
BLACK
6
CONTINUOUS
10
45.0907
20
-66.2153
11
45.8955
21
-66.2153
0
LINE
8
BLACK
6
CONTINUOUS
10
45.8955
20
-66.2153
11
45.4621
21
-66.7105
0
LINE
8
BLACK
6
CONTINUOUS
10
45.4621
20
-66.7105
11
45.6479
21
-66.7105
0
LINE
8
BLACK
6
CONTINUOUS
10
45.6479
20
-66.7105
11
45.7717
21
-66.7724
0
LINE
8
BLACK
6
CONTINUOUS
10
45.7717
20
-66.7724
11
45.8336
21
-66.8343
0
LINE
8
BLACK
6
CONTINUOUS
10
45.8336
20
-66.8343
11
45.8955
21
-66.9582
0
LINE
8
BLACK
6
CONTINUOUS
10
45.8955
20
-66.9582
11
45.8955
21
-67.2677
0
LINE
8
BLACK
6
CONTINUOUS
10
45.8955
20
-67.2677
11
45.8336
21
-67.3915
0
LINE
8
BLACK
6
CONTINUOUS
10
45.8336
20
-67.3915
11
45.7717
21
-67.4534
0
LINE
8
BLACK
6
CONTINUOUS
10
45.7717
20
-67.4534
11
45.6479
21
-67.5153
0
LINE
8
BLACK
6
CONTINUOUS
10
45.6479
20
-67.5153
11
45.2764
21
-67.5153
0
LINE
8
BLACK
6
CONTINUOUS
10
45.2764
20
-67.5153
11
45.1526
21
-67.4534
0
LINE
8
BLACK
6
CONTINUOUS
10
45.1526
20
-67.4534
11
45.0907
21
-67.3915
0
LINE
8
BLACK
6
CONTINUOUS
10
95.7717
20
-66.6486
11
95.7717
21
-67.5153
0
LINE
8
BLACK
6
CONTINUOUS
10
95.4621
20
-66.1534
11
95.1526
21
-67.082
0
LINE
8
BLACK
6
CONTINUOUS
10
95.1526
20
-67.082
11
95.9574
21
-67.082
0
LINE
8
BLACK
6
CONTINUOUS
10
145.834
20
-66.2153
11
145.215
21
-66.2153
0
LINE
8
BLACK
6
CONTINUOUS
10
145.215
20
-66.2153
11
145.153
21
-66.8343
0
LINE
8
BLACK
6
CONTINUOUS
10
145.153
20
-66.8343
11
145.215
21
-66.7724
0
LINE
8
BLACK
6
CONTINUOUS
10
145.215
20
-66.7724
11
145.338
21
-66.7105
0
LINE
8
BLACK
6
CONTINUOUS
10
145.338
20
-66.7105
11
145.648
21
-66.7105
0
LINE
8
BLACK
6
CONTINUOUS
10
145.648
20
-66.7105
11
145.772
21
-66.7724
0
LINE
8
BLACK
6
CONTINUOUS
10
145.772
20
-66.7724
11
145.834
21
-66.8343
0
LINE
8
BLACK
6
CONTINUOUS
10
145.834
20
-66.8343
11
145.895
21
-66.9582
0
LINE
8
BLACK
6
CONTINUOUS
10
145.895
20
-66.9582
11
145.895
21
-67.2677
0
LINE
8
BLACK
6
CONTINUOUS
10
145.895
20
-67.2677
11
145.834
21
-67.3915
0
LINE
8
BLACK
6
CONTINUOUS
10
145.834
20
-67.3915
11
145.772
21
-67.4534
0
LINE
8
BLACK
6
CONTINUOUS
10
145.772
20
-67.4534
11
145.648
21
-67.5153
0
LINE
8
BLACK
6
CONTINUOUS
10
145.648
20
-67.5153
11
145.338
21
-67.5153
0
LINE
8
BLACK
6
CONTINUOUS
10
145.338
20
-67.5153
11
145.215
21
-67.4534
0
LINE
8
BLACK
6
CONTINUOUS
10
145.215
20
-67.4534
11
145.153
21
-67.3915
0
LINE
8
BLACK
6
CONTINUOUS
10
195.772
20
-66.2153
11
195.524
21
-66.2153
0
LINE
8
BLACK
6
CONTINUOUS
10
195.524
20
-66.2153
11
195.4
21
-66.2772
0
LINE
8
BLACK
6
CONTINUOUS
10
195.4
20
-66.2772
11
195.338
21
-66.3391
0
LINE
8
BLACK
6
CONTINUOUS
10
195.338
20
-66.3391
11
195.215
21
-66.5248
0
LINE
8
BLACK
6
CONTINUOUS
10
195.215
20
-66.5248
11
195.153
21
-66.7724
0
LINE
8
BLACK
6
CONTINUOUS
10
195.153
20
-66.7724
11
195.153
21
-67.2677
0
LINE
8
BLACK
6
CONTINUOUS
10
195.153
20
-67.2677
11
195.215
21
-67.3915
0
LINE
8
BLACK
6
CONTINUOUS
10
195.215
20
-67.3915
11
195.276
21
-67.4534
0
LINE
8
BLACK
6
CONTINUOUS
10
195.276
20
-67.4534
11
195.4
21
-67.5153
0
LINE
8
BLACK
6
CONTINUOUS
10
195.4
20
-67.5153
11
195.648
21
-67.5153
0
LINE
8
BLACK
6
CONTINUOUS
10
195.648
20
-67.5153
11
195.772
21
-67.4534
0
LINE
8
BLACK
6
CONTINUOUS
10
195.772
20
-67.4534
11
195.834
21
-67.3915
0
LINE
8
BLACK
6
CONTINUOUS
10
195.834
20
-67.3915
11
195.895
21
-67.2677
0
LINE
8
BLACK
6
CONTINUOUS
10
195.895
20
-67.2677
11
195.895
21
-66.9582
0
LINE
8
BLACK
6
CONTINUOUS
10
195.895
20
-66.9582
11
195.834
21
-66.8343
0
LINE
8
BLACK
6
CONTINUOUS
10
195.834
20
-66.8343
11
195.772
21
-66.7724
0
LINE
8
BLACK
6
CONTINUOUS
10
195.772
20
-66.7724
11
195.648
21
-66.7105
0
LINE
8
BLACK
6
CONTINUOUS
10
195.648
20
-66.7105
11
195.4
21
-66.7105
0
LINE
8
BLACK
6
CONTINUOUS
10
195.4
20
-66.7105
11
195.276
21
-66.7724
0
LINE
8
BLACK
6
CONTINUOUS
10
195.276
20
-66.7724
11
195.215
21
-66.8343
0
LINE
8
BLACK
6
CONTINUOUS
10
195.215
20
-66.8343
11
195.153
21
-66.9582
0
LINE
8
BLACK
6
CONTINUOUS
10
-80.17
20
72.08
11
-78.17
21
72.08
0
LINE
8
BLACK
6
CONTINUOUS
10
-80.17
20
22.08
11
-78.17
21
22.08
0
LINE
8
BLACK
6
CONTINUOUS
10
-80.17
20
-27.92
11
-78.17
21
-27.92
0
LINE
8
BLACK
6
CONTINUOUS
10
-79.4795
20
96.8633
11
-78.8605
21
96.8633
0
LINE
8
BLACK
6
CONTINUOUS
10
-79.6033
20
96.4919
11
-79.17
21
97.7919
0
LINE
8
BLACK
6
CONTINUOUS
10
-79.17
20
97.7919
11
-78.7367
21
96.4919
0
LINE
8
BLACK
6
CONTINUOUS
10
-79.0771
20
47.1729
11
-78.8914
21
47.111
0
LINE
8
BLACK
6
CONTINUOUS
10
-78.8914
20
47.111
11
-78.8295
21
47.049
0
LINE
8
BLACK
6
CONTINUOUS
10
-78.8295
20
47.049
11
-78.7676
21
46.9252
0
LINE
8
BLACK
6
CONTINUOUS
10
-78.7676
20
46.9252
11
-78.7676
21
46.7395
0
LINE
8
BLACK
6
CONTINUOUS
10
-78.7676
20
46.7395
11
-78.8295
21
46.6157
0
LINE
8
BLACK
6
CONTINUOUS
10
-78.8295
20
46.6157
11
-78.8914
21
46.5538
0
LINE
8
BLACK
6
CONTINUOUS
10
-78.8914
20
46.5538
11
-79.0152
21
46.4919
0
LINE
8
BLACK
6
CONTINUOUS
10
-79.0152
20
46.4919
11
-79.5105
21
46.4919
0
LINE
8
BLACK
6
CONTINUOUS
10
-79.5105
20
46.4919
11
-79.5105
21
47.7919
0
LINE
8
BLACK
6
CONTINUOUS
10
-79.5105
20
47.7919
11
-79.0771
21
47.7919
0
LINE
8
BLACK
6
CONTINUOUS
10
-79.0771
20
47.7919
11
-78.9533
21
47.73
0
LINE
8
BLACK
6
CONTINUOUS
10
-78.9533
20
47.73
11
-78.8914
21
47.6681
0
LINE
8
BLACK
6
CONTINUOUS
10
-78.8914
20
47.6681
11
-78.8295
21
47.5443
0
LINE
8
BLACK
6
CONTINUOUS
10
-78.8295
20
47.5443
11
-78.8295
21
47.4205
0
LINE
8
BLACK
6
CONTINUOUS
10
-78.8295
20
47.4205
11
-78.8914
21
47.2967
0
LINE
8
BLACK
6
CONTINUOUS
10
-78.8914
20
47.2967
11
-78.9533
21
47.2348
0
LINE
8
BLACK
6
CONTINUOUS
10
-78.9533
20
47.2348
11
-79.0771
21
47.1729
0
LINE
8
BLACK
6
CONTINUOUS
10
-79.0771
20
47.1729
11
-79.5105
21
47.1729
0
LINE
8
BLACK
6
CONTINUOUS
10
-78.7676
20
-3.38428
11
-78.8295
21
-3.44619
0
LINE
8
BLACK
6
CONTINUOUS
10
-78.8295
20
-3.44619
11
-79.0152
21
-3.50809
0
LINE
8
BLACK
6
CONTINUOUS
10
-79.0152
20
-3.50809
11
-79.139
21
-3.50809
0
LINE
8
BLACK
6
CONTINUOUS
10
-79.139
20
-3.50809
11
-79.3248
21
-3.44619
0
LINE
8
BLACK
6
CONTINUOUS
10
-79.3248
20
-3.44619
11
-79.4486
21
-3.32238
0
LINE
8
BLACK
6
CONTINUOUS
10
-79.4486
20
-3.32238
11
-79.5105
21
-3.19857
0
LINE
8
BLACK
6
CONTINUOUS
10
-79.5105
20
-3.19857
11
-79.5724
21
-2.95095
0
LINE
8
BLACK
6
CONTINUOUS
10
-79.5724
20
-2.95095
11
-79.5724
21
-2.76524
0
LINE
8
BLACK
6
CONTINUOUS
10
-79.5724
20
-2.76524
11
-79.5105
21
-2.51762
0
LINE
8
BLACK
6
CONTINUOUS
10
-79.5105
20
-2.51762
11
-79.4486
21
-2.39381
0
LINE
8
BLACK
6
CONTINUOUS
10
-79.4486
20
-2.39381
11
-79.3248
21
-2.27
0
LINE
8
BLACK
6
CONTINUOUS
10
-79.3248
20
-2.27
11
-79.139
21
-2.20809
0
LINE
8
BLACK
6
CONTINUOUS
10
-79.139
20
-2.20809
11
-79.0152
21
-2.20809
0
LINE
8
BLACK
6
CONTINUOUS
10
-79.0152
20
-2.20809
11
-78.8295
21
-2.27
0
LINE
8
BLACK
6
CONTINUOUS
10
-78.8295
20
-2.27
11
-78.7676
21
-2.3319
0
LINE
8
BLACK
6
CONTINUOUS
10
-79.5105
20
-53.5081
11
-79.5105
21
-52.2081
0
LINE
8
BLACK
6
CONTINUOUS
10
-79.5105
20
-52.2081
11
-79.201
21
-52.2081
0
LINE
8
BLACK
6
CONTINUOUS
10
-79.201
20
-52.2081
11
-79.0152
21
-52.27
0
LINE
8
BLACK
6
CONTINUOUS
10
-79.0152
20
-52.27
11
-78.8914
21
-52.3938
0
LINE
8
BLACK
6
CONTINUOUS
10
-78.8914
20
-52.3938
11
-78.8295
21
-52.5176
0
LINE
8
BLACK
6
CONTINUOUS
10
-78.8295
20
-52.5176
11
-78.7676
21
-52.7652
0
LINE
8
BLACK
6
CONTINUOUS
10
-78.7676
20
-52.7652
11
-78.7676
21
-52.951
0
LINE
8
BLACK
6
CONTINUOUS
10
-78.7676
20
-52.951
11
-78.8295
21
-53.1986
0
LINE
8
BLACK
6
CONTINUOUS
10
-78.8295
20
-53.1986
11
-78.8914
21
-53.3224
0
LINE
8
BLACK
6
CONTINUOUS
10
-78.8914
20
-53.3224
11
-79.0152
21
-53.4462
0
LINE
8
BLACK
6
CONTINUOUS
10
-79.0152
20
-53.4462
11
-79.201
21
-53.5081
0
LINE
8
BLACK
6
CONTINUOUS
10
-79.201
20
-53.5081
11
-79.5105
21
-53.5081
0
LINE
8
BLACK
6
CONTINUOUS
10
196.832
20
72.08
11
194.832
21
72.08
0
LINE
8
BLACK
6
CONTINUOUS
10
196.832
20
22.08
11
194.832
21
22.08
0
LINE
8
BLACK
6
CONTINUOUS
10
196.832
20
-27.92
11
194.832
21
-27.92
0
LINE
8
BLACK
6
CONTINUOUS
10
195.523
20
96.8633
11
196.142
21
96.8633
0
LINE
8
BLACK
6
CONTINUOUS
10
195.399
20
96.4919
11
195.832
21
97.7919
0
LINE
8
BLACK
6
CONTINUOUS
10
195.832
20
97.7919
11
196.266
21
96.4919
0
LINE
8
BLACK
6
CONTINUOUS
10
195.925
20
47.1729
11
196.111
21
47.111
0
LINE
8
BLACK
6
CONTINUOUS
10
196.111
20
47.111
11
196.173
21
47.049
0
LINE
8
BLACK
6
CONTINUOUS
10
196.173
20
47.049
11
196.235
21
46.9252
0
LINE
8
BLACK
6
CONTINUOUS
10
196.235
20
46.9252
11
196.235
21
46.7395
0
LINE
8
BLACK
6
CONTINUOUS
10
196.235
20
46.7395
11
196.173
21
46.6157
0
LINE
8
BLACK
6
CONTINUOUS
10
196.173
20
46.6157
11
196.111
21
46.5538
0
LINE
8
BLACK
6
CONTINUOUS
10
196.111
20
46.5538
11
195.987
21
46.4919
0
LINE
8
BLACK
6
CONTINUOUS
10
195.987
20
46.4919
11
195.492
21
46.4919
0
LINE
8
BLACK
6
CONTINUOUS
10
195.492
20
46.4919
11
195.492
21
47.7919
0
LINE
8
BLACK
6
CONTINUOUS
10
195.492
20
47.7919
11
195.925
21
47.7919
0
LINE
8
BLACK
6
CONTINUOUS
10
195.925
20
47.7919
11
196.049
21
47.73
0
LINE
8
BLACK
6
CONTINUOUS
10
196.049
20
47.73
11
196.111
21
47.6681
0
LINE
8
BLACK
6
CONTINUOUS
10
196.111
20
47.6681
11
196.173
21
47.5443
0
LINE
8
BLACK
6
CONTINUOUS
10
196.173
20
47.5443
11
196.173
21
47.4205
0
LINE
8
BLACK
6
CONTINUOUS
10
196.173
20
47.4205
11
196.111
21
47.2967
0
LINE
8
BLACK
6
CONTINUOUS
10
196.111
20
47.2967
11
196.049
21
47.2348
0
LINE
8
BLACK
6
CONTINUOUS
10
196.049
20
47.2348
11
195.925
21
47.1729
0
LINE
8
BLACK
6
CONTINUOUS
10
195.925
20
47.1729
11
195.492
21
47.1729
0
LINE
8
BLACK
6
CONTINUOUS
10
196.235
20
-3.38428
11
196.173
21
-3.44619
0
LINE
8
BLACK
6
CONTINUOUS
10
196.173
20
-3.44619
11
195.987
21
-3.50809
0
LINE
8
BLACK
6
CONTINUOUS
10
195.987
20
-3.50809
11
195.863
21
-3.50809
0
LINE
8
BLACK
6
CONTINUOUS
10
195.863
20
-3.50809
11
195.677
21
-3.44619
0
LINE
8
BLACK
6
CONTINUOUS
10
195.677
20
-3.44619
11
195.554
21
-3.32238
0
LINE
8
BLACK
6
CONTINUOUS
10
195.554
20
-3.32238
11
195.492
21
-3.19857
0
LINE
8
BLACK
6
CONTINUOUS
10
195.492
20
-3.19857
11
195.43
21
-2.95095
0
LINE
8
BLACK
6
CONTINUOUS
10
195.43
20
-2.95095
11
195.43
21
-2.76524
0
LINE
8
BLACK
6
CONTINUOUS
10
195.43
20
-2.76524
11
195.492
21
-2.51762
0
LINE
8
BLACK
6
CONTINUOUS
10
195.492
20
-2.51762
11
195.554
21
-2.39381
0
LINE
8
BLACK
6
CONTINUOUS
10
195.554
20
-2.39381
11
195.677
21
-2.27
0
LINE
8
BLACK
6
CONTINUOUS
10
195.677
20
-2.27
11
195.863
21
-2.20809
0
LINE
8
BLACK
6
CONTINUOUS
10
195.863
20
-2.20809
11
195.987
21
-2.20809
0
LINE
8
BLACK
6
CONTINUOUS
10
195.987
20
-2.20809
11
196.173
21
-2.27
0
LINE
8
BLACK
6
CONTINUOUS
10
196.173
20
-2.27
11
196.235
21
-2.3319
0
LINE
8
BLACK
6
CONTINUOUS
10
195.492
20
-53.5081
11
195.492
21
-52.2081
0
LINE
8
BLACK
6
CONTINUOUS
10
195.492
20
-52.2081
11
195.801
21
-52.2081
0
LINE
8
BLACK
6
CONTINUOUS
10
195.801
20
-52.2081
11
195.987
21
-52.27
0
LINE
8
BLACK
6
CONTINUOUS
10
195.987
20
-52.27
11
196.111
21
-52.3938
0
LINE
8
BLACK
6
CONTINUOUS
10
196.111
20
-52.3938
11
196.173
21
-52.5176
0
LINE
8
BLACK
6
CONTINUOUS
10
196.173
20
-52.5176
11
196.235
21
-52.7652
0
LINE
8
BLACK
6
CONTINUOUS
10
196.235
20
-52.7652
11
196.235
21
-52.951
0
LINE
8
BLACK
6
CONTINUOUS
10
196.235
20
-52.951
11
196.173
21
-53.1986
0
LINE
8
BLACK
6
CONTINUOUS
10
196.173
20
-53.1986
11
196.111
21
-53.3224
0
LINE
8
BLACK
6
CONTINUOUS
10
196.111
20
-53.3224
11
195.987
21
-53.4462
0
LINE
8
BLACK
6
CONTINUOUS
10
195.987
20
-53.4462
11
195.801
21
-53.5081
0
LINE
8
BLACK
6
CONTINUOUS
10
195.801
20
-53.5081
11
195.492
21
-53.5081
0
LINE
8
BLACK
6
CONTINUOUS
10
110.264
20
-61.7058
11
110.264
21
-60.2058
0
LINE
8
BLACK
6
CONTINUOUS
10
110.264
20
-60.2058
11
110.621
21
-60.2058
0
LINE
8
BLACK
6
CONTINUOUS
10
110.621
20
-60.2058
11
110.836
21
-60.2772
0
LINE
8
BLACK
6
CONTINUOUS
10
110.836
20
-60.2772
11
110.979
21
-60.4201
0
LINE
8
BLACK
6
CONTINUOUS
10
110.979
20
-60.4201
11
111.05
21
-60.5629
0
LINE
8
BLACK
6
CONTINUOUS
10
111.05
20
-60.5629
11
111.121
21
-60.8486
0
LINE
8
BLACK
6
CONTINUOUS
10
111.121
20
-60.8486
11
111.121
21
-61.0629
0
LINE
8
BLACK
6
CONTINUOUS
10
111.121
20
-61.0629
11
111.05
21
-61.3486
0
LINE
8
BLACK
6
CONTINUOUS
10
111.05
20
-61.3486
11
110.979
21
-61.4915
0
LINE
8
BLACK
6
CONTINUOUS
10
110.979
20
-61.4915
11
110.836
21
-61.6343
0
LINE
8
BLACK
6
CONTINUOUS
10
110.836
20
-61.6343
11
110.621
21
-61.7058
0
LINE
8
BLACK
6
CONTINUOUS
10
110.621
20
-61.7058
11
110.264
21
-61.7058
0
LINE
8
BLACK
6
CONTINUOUS
10
112.407
20
-61.7058
11
112.407
21
-60.9201
0
LINE
8
BLACK
6
CONTINUOUS
10
112.407
20
-60.9201
11
112.336
21
-60.7772
0
LINE
8
BLACK
6
CONTINUOUS
10
112.336
20
-60.7772
11
112.193
21
-60.7058
0
LINE
8
BLACK
6
CONTINUOUS
10
112.193
20
-60.7058
11
111.907
21
-60.7058
0
LINE
8
BLACK
6
CONTINUOUS
10
111.907
20
-60.7058
11
111.764
21
-60.7772
0
LINE
8
BLACK
6
CONTINUOUS
10
112.407
20
-61.6343
11
112.264
21
-61.7058
0
LINE
8
BLACK
6
CONTINUOUS
10
112.264
20
-61.7058
11
111.907
21
-61.7058
0
LINE
8
BLACK
6
CONTINUOUS
10
111.907
20
-61.7058
11
111.764
21
-61.6343
0
LINE
8
BLACK
6
CONTINUOUS
10
111.764
20
-61.6343
11
111.693
21
-61.4915
0
LINE
8
BLACK
6
CONTINUOUS
10
111.693
20
-61.4915
11
111.693
21
-61.3486
0
LINE
8
BLACK
6
CONTINUOUS
10
111.693
20
-61.3486
11
111.764
21
-61.2058
0
LINE
8
BLACK
6
CONTINUOUS
10
111.764
20
-61.2058
11
111.907
21
-61.1343
0
LINE
8
BLACK
6
CONTINUOUS
10
111.907
20
-61.1343
11
112.264
21
-61.1343
0
LINE
8
BLACK
6
CONTINUOUS
10
112.264
20
-61.1343
11
112.407
21
-61.0629
0
LINE
8
BLACK
6
CONTINUOUS
10
112.907
20
-60.7058
11
113.479
21
-60.7058
0
LINE
8
BLACK
6
CONTINUOUS
10
113.121
20
-60.2058
11
113.121
21
-61.4915
0
LINE
8
BLACK
6
CONTINUOUS
10
113.121
20
-61.4915
11
113.193
21
-61.6343
0
LINE
8
BLACK
6
CONTINUOUS
10
113.193
20
-61.6343
11
113.336
21
-61.7058
0
LINE
8
BLACK
6
CONTINUOUS
10
113.336
20
-61.7058
11
113.479
21
-61.7058
0
LINE
8
BLACK
6
CONTINUOUS
10
114.55
20
-61.6343
11
114.407
21
-61.7058
0
LINE
8
BLACK
6
CONTINUOUS
10
114.407
20
-61.7058
11
114.121
21
-61.7058
0
LINE
8
BLACK
6
CONTINUOUS
10
114.121
20
-61.7058
11
113.979
21
-61.6343
0
LINE
8
BLACK
6
CONTINUOUS
10
113.979
20
-61.6343
11
113.907
21
-61.4915
0
LINE
8
BLACK
6
CONTINUOUS
10
113.907
20
-61.4915
11
113.907
21
-60.9201
0
LINE
8
BLACK
6
CONTINUOUS
10
113.907
20
-60.9201
11
113.979
21
-60.7772
0
LINE
8
BLACK
6
CONTINUOUS
10
113.979
20
-60.7772
11
114.121
21
-60.7058
0
LINE
8
BLACK
6
CONTINUOUS
10
114.121
20
-60.7058
11
114.407
21
-60.7058
0
LINE
8
BLACK
6
CONTINUOUS
10
114.407
20
-60.7058
11
114.55
21
-60.7772
0
LINE
8
BLACK
6
CONTINUOUS
10
114.55
20
-60.7772
11
114.621
21
-60.9201
0
LINE
8
BLACK
6
CONTINUOUS
10
114.621
20
-60.9201
11
114.621
21
-61.0629
0
LINE
8
BLACK
6
CONTINUOUS
10
114.621
20
-61.0629
11
113.907
21
-61.2058
0
LINE
8
BLACK
6
CONTINUOUS
10
115.264
20
-61.5629
11
115.336
21
-61.6343
0
LINE
8
BLACK
6
CONTINUOUS
10
115.336
20
-61.6343
11
115.264
21
-61.7058
0
LINE
8
BLACK
6
CONTINUOUS
10
115.264
20
-61.7058
11
115.193
21
-61.6343
0
LINE
8
BLACK
6
CONTINUOUS
10
115.193
20
-61.6343
11
115.264
21
-61.5629
0
LINE
8
BLACK
6
CONTINUOUS
10
115.264
20
-61.5629
11
115.264
21
-61.7058
0
LINE
8
BLACK
6
CONTINUOUS
10
115.264
20
-60.7772
11
115.336
21
-60.8486
0
LINE
8
BLACK
6
CONTINUOUS
10
115.336
20
-60.8486
11
115.264
21
-60.9201
0
LINE
8
BLACK
6
CONTINUOUS
10
115.264
20
-60.9201
11
115.193
21
-60.8486
0
LINE
8
BLACK
6
CONTINUOUS
10
115.193
20
-60.8486
11
115.264
21
-60.7772
0
LINE
8
BLACK
6
CONTINUOUS
10
115.264
20
-60.7772
11
115.264
21
-60.9201
0
LINE
8
BLACK
6
CONTINUOUS
10
86.8322
20
-62.4272
11
194.832
21
-62.4272
0
LINE
8
BLACK
6
CONTINUOUS
10
88.2643
20
-64.5058
11
88.2643
21
-63.0058
0
LINE
8
BLACK
6
CONTINUOUS
10
89.1215
20
-64.5058
11
88.4786
21
-63.6486
0
LINE
8
BLACK
6
CONTINUOUS
10
89.1215
20
-63.0058
11
88.2643
21
-63.8629
0
LINE
8
BLACK
6
CONTINUOUS
10
89.7643
20
-64.5058
11
89.7643
21
-63.5058
0
LINE
8
BLACK
6
CONTINUOUS
10
89.7643
20
-63.0058
11
89.6929
21
-63.0772
0
LINE
8
BLACK
6
CONTINUOUS
10
89.6929
20
-63.0772
11
89.7643
21
-63.1486
0
LINE
8
BLACK
6
CONTINUOUS
10
89.7643
20
-63.1486
11
89.8358
21
-63.0772
0
LINE
8
BLACK
6
CONTINUOUS
10
89.8358
20
-63.0772
11
89.7643
21
-63.0058
0
LINE
8
BLACK
6
CONTINUOUS
10
89.7643
20
-63.0058
11
89.7643
21
-63.1486
0
LINE
8
BLACK
6
CONTINUOUS
10
91.3358
20
-64.3629
11
91.2643
21
-64.4343
0
LINE
8
BLACK
6
CONTINUOUS
10
91.2643
20
-64.4343
11
91.0501
21
-64.5058
0
LINE
8
BLACK
6
CONTINUOUS
10
91.0501
20
-64.5058
11
90.9072
21
-64.5058
0
LINE
8
BLACK
6
CONTINUOUS
10
90.9072
20
-64.5058
11
90.6929
21
-64.4343
0
LINE
8
BLACK
6
CONTINUOUS
10
90.6929
20
-64.4343
11
90.5501
21
-64.2915
0
LINE
8
BLACK
6
CONTINUOUS
10
90.5501
20
-64.2915
11
90.4786
21
-64.1486
0
LINE
8
BLACK
6
CONTINUOUS
10
90.4786
20
-64.1486
11
90.4072
21
-63.8629
0
LINE
8
BLACK
6
CONTINUOUS
10
90.4072
20
-63.8629
11
90.4072
21
-63.6486
0
LINE
8
BLACK
6
CONTINUOUS
10
90.4072
20
-63.6486
11
90.4786
21
-63.3629
0
LINE
8
BLACK
6
CONTINUOUS
10
90.4786
20
-63.3629
11
90.5501
21
-63.2201
0
LINE
8
BLACK
6
CONTINUOUS
10
90.5501
20
-63.2201
11
90.6929
21
-63.0772
0
LINE
8
BLACK
6
CONTINUOUS
10
90.6929
20
-63.0772
11
90.9072
21
-63.0058
0
LINE
8
BLACK
6
CONTINUOUS
10
90.9072
20
-63.0058
11
91.0501
21
-63.0058
0
LINE
8
BLACK
6
CONTINUOUS
10
91.0501
20
-63.0058
11
91.2643
21
-63.0772
0
LINE
8
BLACK
6
CONTINUOUS
10
91.2643
20
-63.0772
11
91.3358
21
-63.1486
0
LINE
8
BLACK
6
CONTINUOUS
10
92.6215
20
-64.5058
11
92.6215
21
-63.7201
0
LINE
8
BLACK
6
CONTINUOUS
10
92.6215
20
-63.7201
11
92.5501
21
-63.5772
0
LINE
8
BLACK
6
CONTINUOUS
10
92.5501
20
-63.5772
11
92.4072
21
-63.5058
0
LINE
8
BLACK
6
CONTINUOUS
10
92.4072
20
-63.5058
11
92.1215
21
-63.5058
0
LINE
8
BLACK
6
CONTINUOUS
10
92.1215
20
-63.5058
11
91.9786
21
-63.5772
0
LINE
8
BLACK
6
CONTINUOUS
10
92.6215
20
-64.4343
11
92.4786
21
-64.5058
0
LINE
8
BLACK
6
CONTINUOUS
10
92.4786
20
-64.5058
11
92.1215
21
-64.5058
0
LINE
8
BLACK
6
CONTINUOUS
10
92.1215
20
-64.5058
11
91.9786
21
-64.4343
0
LINE
8
BLACK
6
CONTINUOUS
10
91.9786
20
-64.4343
11
91.9072
21
-64.2915
0
LINE
8
BLACK
6
CONTINUOUS
10
91.9072
20
-64.2915
11
91.9072
21
-64.1486
0
LINE
8
BLACK
6
CONTINUOUS
10
91.9072
20
-64.1486
11
91.9786
21
-64.0058
0
LINE
8
BLACK
6
CONTINUOUS
10
91.9786
20
-64.0058
11
92.1215
21
-63.9343
0
LINE
8
BLACK
6
CONTINUOUS
10
92.1215
20
-63.9343
11
92.4786
21
-63.9343
0
LINE
8
BLACK
6
CONTINUOUS
10
92.4786
20
-63.9343
11
92.6215
21
-63.8629
0
LINE
8
BLACK
6
CONTINUOUS
10
93.9786
20
-64.5058
11
93.9786
21
-63.0058
0
LINE
8
BLACK
6
CONTINUOUS
10
93.9786
20
-64.4343
11
93.8358
21
-64.5058
0
LINE
8
BLACK
6
CONTINUOUS
10
93.8358
20
-64.5058
11
93.5501
21
-64.5058
0
LINE
8
BLACK
6
CONTINUOUS
10
93.5501
20
-64.5058
11
93.4072
21
-64.4343
0
LINE
8
BLACK
6
CONTINUOUS
10
93.4072
20
-64.4343
11
93.3358
21
-64.3629
0
LINE
8
BLACK
6
CONTINUOUS
10
93.3358
20
-64.3629
11
93.2643
21
-64.2201
0
LINE
8
BLACK
6
CONTINUOUS
10
93.2643
20
-64.2201
11
93.2643
21
-63.7915
0
LINE
8
BLACK
6
CONTINUOUS
10
93.2643
20
-63.7915
11
93.3358
21
-63.6486
0
LINE
8
BLACK
6
CONTINUOUS
10
93.3358
20
-63.6486
11
93.4072
21
-63.5772
0
LINE
8
BLACK
6
CONTINUOUS
10
93.4072
20
-63.5772
11
93.5501
21
-63.5058
0
LINE
8
BLACK
6
CONTINUOUS
10
93.5501
20
-63.5058
11
93.8358
21
-63.5058
0
LINE
8
BLACK
6
CONTINUOUS
10
93.8358
20
-63.5058
11
93.9786
21
-63.5772
0
LINE
8
BLACK
6
CONTINUOUS
10
95.8358
20
-63.7201
11
96.3358
21
-63.7201
0
LINE
8
BLACK
6
CONTINUOUS
10
96.5501
20
-64.5058
11
95.8358
21
-64.5058
0
LINE
8
BLACK
6
CONTINUOUS
10
95.8358
20
-64.5058
11
95.8358
21
-63.0058
0
LINE
8
BLACK
6
CONTINUOUS
10
95.8358
20
-63.0058
11
96.5501
21
-63.0058
0
LINE
8
BLACK
6
CONTINUOUS
10
97.1929
20
-64.3629
11
97.2643
21
-64.4343
0
LINE
8
BLACK
6
CONTINUOUS
10
97.2643
20
-64.4343
11
97.1929
21
-64.5058
0
LINE
8
BLACK
6
CONTINUOUS
10
97.1929
20
-64.5058
11
97.1215
21
-64.4343
0
LINE
8
BLACK
6
CONTINUOUS
10
97.1215
20
-64.4343
11
97.1929
21
-64.3629
0
LINE
8
BLACK
6
CONTINUOUS
10
97.1929
20
-64.3629
11
97.1929
21
-64.5058
0
LINE
8
BLACK
6
CONTINUOUS
10
97.9072
20
-64.5058
11
97.9072
21
-63.0058
0
LINE
8
BLACK
6
CONTINUOUS
10
97.9072
20
-63.0058
11
98.2643
21
-63.0058
0
LINE
8
BLACK
6
CONTINUOUS
10
98.2643
20
-63.0058
11
98.4786
21
-63.0772
0
LINE
8
BLACK
6
CONTINUOUS
10
98.4786
20
-63.0772
11
98.6215
21
-63.2201
0
LINE
8
BLACK
6
CONTINUOUS
10
98.6215
20
-63.2201
11
98.6929
21
-63.3629
0
LINE
8
BLACK
6
CONTINUOUS
10
98.6929
20
-63.3629
11
98.7643
21
-63.6486
0
LINE
8
BLACK
6
CONTINUOUS
10
98.7643
20
-63.6486
11
98.7643
21
-63.8629
0
LINE
8
BLACK
6
CONTINUOUS
10
98.7643
20
-63.8629
11
98.6929
21
-64.1486
0
LINE
8
BLACK
6
CONTINUOUS
10
98.6929
20
-64.1486
11
98.6215
21
-64.2915
0
LINE
8
BLACK
6
CONTINUOUS
10
98.6215
20
-64.2915
11
98.4786
21
-64.4343
0
LINE
8
BLACK
6
CONTINUOUS
10
98.4786
20
-64.4343
11
98.2643
21
-64.5058
0
LINE
8
BLACK
6
CONTINUOUS
10
98.2643
20
-64.5058
11
97.9072
21
-64.5058
0
LINE
8
BLACK
6
CONTINUOUS
10
99.4072
20
-64.3629
11
99.4786
21
-64.4343
0
LINE
8
BLACK
6
CONTINUOUS
10
99.4786
20
-64.4343
11
99.4072
21
-64.5058
0
LINE
8
BLACK
6
CONTINUOUS
10
99.4072
20
-64.5058
11
99.3358
21
-64.4343
0
LINE
8
BLACK
6
CONTINUOUS
10
99.3358
20
-64.4343
11
99.4072
21
-64.3629
0
LINE
8
BLACK
6
CONTINUOUS
10
99.4072
20
-64.3629
11
99.4072
21
-64.5058
0
LINE
8
BLACK
6
CONTINUOUS
10
100.05
20
-64.0772
11
100.764
21
-64.0772
0
LINE
8
BLACK
6
CONTINUOUS
10
99.9072
20
-64.5058
11
100.407
21
-63.0058
0
LINE
8
BLACK
6
CONTINUOUS
10
100.407
20
-63.0058
11
100.907
21
-64.5058
0
LINE
8
BLACK
6
CONTINUOUS
10
101.407
20
-64.3629
11
101.479
21
-64.4343
0
LINE
8
BLACK
6
CONTINUOUS
10
101.479
20
-64.4343
11
101.407
21
-64.5058
0
LINE
8
BLACK
6
CONTINUOUS
10
101.407
20
-64.5058
11
101.336
21
-64.4343
0
LINE
8
BLACK
6
CONTINUOUS
10
101.336
20
-64.4343
11
101.407
21
-64.3629
0
LINE
8
BLACK
6
CONTINUOUS
10
101.407
20
-64.3629
11
101.407
21
-64.5058
0
LINE
8
BLACK
6
CONTINUOUS
10
104.407
20
-64.5058
11
104.407
21
-63.0058
0
LINE
8
BLACK
6
CONTINUOUS
10
104.55
20
-63.9343
11
104.979
21
-64.5058
0
LINE
8
BLACK
6
CONTINUOUS
10
104.979
20
-63.5058
11
104.407
21
-64.0772
0
LINE
8
BLACK
6
CONTINUOUS
10
105.621
20
-64.5058
11
105.621
21
-63.5058
0
LINE
8
BLACK
6
CONTINUOUS
10
105.621
20
-63.0058
11
105.55
21
-63.0772
0
LINE
8
BLACK
6
CONTINUOUS
10
105.55
20
-63.0772
11
105.621
21
-63.1486
0
LINE
8
BLACK
6
CONTINUOUS
10
105.621
20
-63.1486
11
105.693
21
-63.0772
0
LINE
8
BLACK
6
CONTINUOUS
10
105.693
20
-63.0772
11
105.621
21
-63.0058
0
LINE
8
BLACK
6
CONTINUOUS
10
105.621
20
-63.0058
11
105.621
21
-63.1486
0
LINE
8
BLACK
6
CONTINUOUS
10
106.979
20
-64.4343
11
106.836
21
-64.5058
0
LINE
8
BLACK
6
CONTINUOUS
10
106.836
20
-64.5058
11
106.55
21
-64.5058
0
LINE
8
BLACK
6
CONTINUOUS
10
106.55
20
-64.5058
11
106.407
21
-64.4343
0
LINE
8
BLACK
6
CONTINUOUS
10
106.407
20
-64.4343
11
106.336
21
-64.3629
0
LINE
8
BLACK
6
CONTINUOUS
10
106.336
20
-64.3629
11
106.264
21
-64.2201
0
LINE
8
BLACK
6
CONTINUOUS
10
106.264
20
-64.2201
11
106.264
21
-63.7915
0
LINE
8
BLACK
6
CONTINUOUS
10
106.264
20
-63.7915
11
106.336
21
-63.6486
0
LINE
8
BLACK
6
CONTINUOUS
10
106.336
20
-63.6486
11
106.407
21
-63.5772
0
LINE
8
BLACK
6
CONTINUOUS
10
106.407
20
-63.5772
11
106.55
21
-63.5058
0
LINE
8
BLACK
6
CONTINUOUS
10
106.55
20
-63.5058
11
106.836
21
-63.5058
0
LINE
8
BLACK
6
CONTINUOUS
10
106.836
20
-63.5058
11
106.979
21
-63.5772
0
LINE
8
BLACK
6
CONTINUOUS
10
108.264
20
-64.5058
11
108.264
21
-63.7201
0
LINE
8
BLACK
6
CONTINUOUS
10
108.264
20
-63.7201
11
108.193
21
-63.5772
0
LINE
8
BLACK
6
CONTINUOUS
10
108.193
20
-63.5772
11
108.05
21
-63.5058
0
LINE
8
BLACK
6
CONTINUOUS
10
108.05
20
-63.5058
11
107.764
21
-63.5058
0
LINE
8
BLACK
6
CONTINUOUS
10
107.764
20
-63.5058
11
107.621
21
-63.5772
0
LINE
8
BLACK
6
CONTINUOUS
10
108.264
20
-64.4343
11
108.121
21
-64.5058
0
LINE
8
BLACK
6
CONTINUOUS
10
108.121
20
-64.5058
11
107.764
21
-64.5058
0
LINE
8
BLACK
6
CONTINUOUS
10
107.764
20
-64.5058
11
107.621
21
-64.4343
0
LINE
8
BLACK
6
CONTINUOUS
10
107.621
20
-64.4343
11
107.55
21
-64.2915
0
LINE
8
BLACK
6
CONTINUOUS
10
107.55
20
-64.2915
11
107.55
21
-64.1486
0
LINE
8
BLACK
6
CONTINUOUS
10
107.55
20
-64.1486
11
107.621
21
-64.0058
0
LINE
8
BLACK
6
CONTINUOUS
10
107.621
20
-64.0058
11
107.764
21
-63.9343
0
LINE
8
BLACK
6
CONTINUOUS
10
107.764
20
-63.9343
11
108.121
21
-63.9343
0
LINE
8
BLACK
6
CONTINUOUS
10
108.121
20
-63.9343
11
108.264
21
-63.8629
0
LINE
8
BLACK
6
CONTINUOUS
10
109.621
20
-64.5058
11
109.621
21
-63.0058
0
LINE
8
BLACK
6
CONTINUOUS
10
109.621
20
-64.4343
11
109.479
21
-64.5058
0
LINE
8
BLACK
6
CONTINUOUS
10
109.479
20
-64.5058
11
109.193
21
-64.5058
0
LINE
8
BLACK
6
CONTINUOUS
10
109.193
20
-64.5058
11
109.05
21
-64.4343
0
LINE
8
BLACK
6
CONTINUOUS
10
109.05
20
-64.4343
11
108.979
21
-64.3629
0
LINE
8
BLACK
6
CONTINUOUS
10
108.979
20
-64.3629
11
108.907
21
-64.2201
0
LINE
8
BLACK
6
CONTINUOUS
10
108.907
20
-64.2201
11
108.907
21
-63.7915
0
LINE
8
BLACK
6
CONTINUOUS
10
108.907
20
-63.7915
11
108.979
21
-63.6486
0
LINE
8
BLACK
6
CONTINUOUS
10
108.979
20
-63.6486
11
109.05
21
-63.5772
0
LINE
8
BLACK
6
CONTINUOUS
10
109.05
20
-63.5772
11
109.193
21
-63.5058
0
LINE
8
BLACK
6
CONTINUOUS
10
109.193
20
-63.5058
11
109.479
21
-63.5058
0
LINE
8
BLACK
6
CONTINUOUS
10
109.479
20
-63.5058
11
109.621
21
-63.5772
0
LINE
8
BLACK
6
CONTINUOUS
10
112.193
20
-63.0058
11
111.479
21
-63.0058
0
LINE
8
BLACK
6
CONTINUOUS
10
111.479
20
-63.0058
11
111.407
21
-63.7201
0
LINE
8
BLACK
6
CONTINUOUS
10
111.407
20
-63.7201
11
111.479
21
-63.6486
0
LINE
8
BLACK
6
CONTINUOUS
10
111.479
20
-63.6486
11
111.621
21
-63.5772
0
LINE
8
BLACK
6
CONTINUOUS
10
111.621
20
-63.5772
11
111.979
21
-63.5772
0
LINE
8
BLACK
6
CONTINUOUS
10
111.979
20
-63.5772
11
112.121
21
-63.6486
0
LINE
8
BLACK
6
CONTINUOUS
10
112.121
20
-63.6486
11
112.193
21
-63.7201
0
LINE
8
BLACK
6
CONTINUOUS
10
112.193
20
-63.7201
11
112.264
21
-63.8629
0
LINE
8
BLACK
6
CONTINUOUS
10
112.264
20
-63.8629
11
112.264
21
-64.2201
0
LINE
8
BLACK
6
CONTINUOUS
10
112.264
20
-64.2201
11
112.193
21
-64.3629
0
LINE
8
BLACK
6
CONTINUOUS
10
112.193
20
-64.3629
11
112.121
21
-64.4343
0
LINE
8
BLACK
6
CONTINUOUS
10
112.121
20
-64.4343
11
111.979
21
-64.5058
0
LINE
8
BLACK
6
CONTINUOUS
10
111.979
20
-64.5058
11
111.621
21
-64.5058
0
LINE
8
BLACK
6
CONTINUOUS
10
111.621
20
-64.5058
11
111.479
21
-64.4343
0
LINE
8
BLACK
6
CONTINUOUS
10
111.479
20
-64.4343
11
111.407
21
-64.3629
0
LINE
8
BLACK
6
CONTINUOUS
10
112.907
20
-64.3629
11
112.979
21
-64.4343
0
LINE
8
BLACK
6
CONTINUOUS
10
112.979
20
-64.4343
11
112.907
21
-64.5058
0
LINE
8
BLACK
6
CONTINUOUS
10
112.907
20
-64.5058
11
112.836
21
-64.4343
0
LINE
8
BLACK
6
CONTINUOUS
10
112.836
20
-64.4343
11
112.907
21
-64.3629
0
LINE
8
BLACK
6
CONTINUOUS
10
112.907
20
-64.3629
11
112.907
21
-64.5058
0
LINE
8
BLACK
6
CONTINUOUS
10
113.907
20
-63.0058
11
114.05
21
-63.0058
0
LINE
8
BLACK
6
CONTINUOUS
10
114.05
20
-63.0058
11
114.193
21
-63.0772
0
LINE
8
BLACK
6
CONTINUOUS
10
114.193
20
-63.0772
11
114.264
21
-63.1486
0
LINE
8
BLACK
6
CONTINUOUS
10
114.264
20
-63.1486
11
114.336
21
-63.2915
0
LINE
8
BLACK
6
CONTINUOUS
10
114.336
20
-63.2915
11
114.407
21
-63.5772
0
LINE
8
BLACK
6
CONTINUOUS
10
114.407
20
-63.5772
11
114.407
21
-63.9343
0
LINE
8
BLACK
6
CONTINUOUS
10
114.407
20
-63.9343
11
114.336
21
-64.2201
0
LINE
8
BLACK
6
CONTINUOUS
10
114.336
20
-64.2201
11
114.264
21
-64.3629
0
LINE
8
BLACK
6
CONTINUOUS
10
114.264
20
-64.3629
11
114.193
21
-64.4343
0
LINE
8
BLACK
6
CONTINUOUS
10
114.193
20
-64.4343
11
114.05
21
-64.5058
0
LINE
8
BLACK
6
CONTINUOUS
10
114.05
20
-64.5058
11
113.907
21
-64.5058
0
LINE
8
BLACK
6
CONTINUOUS
10
113.907
20
-64.5058
11
113.764
21
-64.4343
0
LINE
8
BLACK
6
CONTINUOUS
10
113.764
20
-64.4343
11
113.693
21
-64.3629
0
LINE
8
BLACK
6
CONTINUOUS
10
113.693
20
-64.3629
11
113.621
21
-64.2201
0
LINE
8
BLACK
6
CONTINUOUS
10
113.621
20
-64.2201
11
113.55
21
-63.9343
0
LINE
8
BLACK
6
CONTINUOUS
10
113.55
20
-63.9343
11
113.55
21
-63.5772
0
LINE
8
BLACK
6
CONTINUOUS
10
113.55
20
-63.5772
11
113.621
21
-63.2915
0
LINE
8
BLACK
6
CONTINUOUS
10
113.621
20
-63.2915
11
113.693
21
-63.1486
0
LINE
8
BLACK
6
CONTINUOUS
10
113.693
20
-63.1486
11
113.764
21
-63.0772
0
LINE
8
BLACK
6
CONTINUOUS
10
113.764
20
-63.0772
11
113.907
21
-63.0058
0
LINE
8
BLACK
6
CONTINUOUS
10
115.05
20
-64.3629
11
115.121
21
-64.4343
0
LINE
8
BLACK
6
CONTINUOUS
10
115.121
20
-64.4343
11
115.05
21
-64.5058
0
LINE
8
BLACK
6
CONTINUOUS
10
115.05
20
-64.5058
11
114.979
21
-64.4343
0
LINE
8
BLACK
6
CONTINUOUS
10
114.979
20
-64.4343
11
115.05
21
-64.3629
0
LINE
8
BLACK
6
CONTINUOUS
10
115.05
20
-64.3629
11
115.05
21
-64.5058
0
LINE
8
BLACK
6
CONTINUOUS
10
116.05
20
-63.0058
11
116.193
21
-63.0058
0
LINE
8
BLACK
6
CONTINUOUS
10
116.193
20
-63.0058
11
116.336
21
-63.0772
0
LINE
8
BLACK
6
CONTINUOUS
10
116.336
20
-63.0772
11
116.407
21
-63.1486
0
LINE
8
BLACK
6
CONTINUOUS
10
116.407
20
-63.1486
11
116.479
21
-63.2915
0
LINE
8
BLACK
6
CONTINUOUS
10
116.479
20
-63.2915
11
116.55
21
-63.5772
0
LINE
8
BLACK
6
CONTINUOUS
10
116.55
20
-63.5772
11
116.55
21
-63.9343
0
LINE
8
BLACK
6
CONTINUOUS
10
116.55
20
-63.9343
11
116.479
21
-64.2201
0
LINE
8
BLACK
6
CONTINUOUS
10
116.479
20
-64.2201
11
116.407
21
-64.3629
0
LINE
8
BLACK
6
CONTINUOUS
10
116.407
20
-64.3629
11
116.336
21
-64.4343
0
LINE
8
BLACK
6
CONTINUOUS
10
116.336
20
-64.4343
11
116.193
21
-64.5058
0
LINE
8
BLACK
6
CONTINUOUS
10
116.193
20
-64.5058
11
116.05
21
-64.5058
0
LINE
8
BLACK
6
CONTINUOUS
10
116.05
20
-64.5058
11
115.907
21
-64.4343
0
LINE
8
BLACK
6
CONTINUOUS
10
115.907
20
-64.4343
11
115.836
21
-64.3629
0
LINE
8
BLACK
6
CONTINUOUS
10
115.836
20
-64.3629
11
115.764
21
-64.2201
0
LINE
8
BLACK
6
CONTINUOUS
10
115.764
20
-64.2201
11
115.693
21
-63.9343
0
LINE
8
BLACK
6
CONTINUOUS
10
115.693
20
-63.9343
11
115.693
21
-63.5772
0
LINE
8
BLACK
6
CONTINUOUS
10
115.693
20
-63.5772
11
115.764
21
-63.2915
0
LINE
8
BLACK
6
CONTINUOUS
10
115.764
20
-63.2915
11
115.836
21
-63.1486
0
LINE
8
BLACK
6
CONTINUOUS
10
115.836
20
-63.1486
11
115.907
21
-63.0772
0
LINE
8
BLACK
6
CONTINUOUS
10
115.907
20
-63.0772
11
116.05
21
-63.0058
0
LINE
8
BLACK
6
CONTINUOUS
10
117.193
20
-63.9343
11
118.336
21
-63.9343
0
LINE
8
BLACK
6
CONTINUOUS
10
117.764
20
-64.5058
11
117.764
21
-63.3629
0
LINE
8
BLACK
6
CONTINUOUS
10
119.693
20
-64.5058
11
119.693
21
-63.0058
0
LINE
8
BLACK
6
CONTINUOUS
10
119.693
20
-64.4343
11
119.55
21
-64.5058
0
LINE
8
BLACK
6
CONTINUOUS
10
119.55
20
-64.5058
11
119.264
21
-64.5058
0
LINE
8
BLACK
6
CONTINUOUS
10
119.264
20
-64.5058
11
119.121
21
-64.4343
0
LINE
8
BLACK
6
CONTINUOUS
10
119.121
20
-64.4343
11
119.05
21
-64.3629
0
LINE
8
BLACK
6
CONTINUOUS
10
119.05
20
-64.3629
11
118.979
21
-64.2201
0
LINE
8
BLACK
6
CONTINUOUS
10
118.979
20
-64.2201
11
118.979
21
-63.7915
0
LINE
8
BLACK
6
CONTINUOUS
10
118.979
20
-63.7915
11
119.05
21
-63.6486
0
LINE
8
BLACK
6
CONTINUOUS
10
119.05
20
-63.6486
11
119.121
21
-63.5772
0
LINE
8
BLACK
6
CONTINUOUS
10
119.121
20
-63.5772
11
119.264
21
-63.5058
0
LINE
8
BLACK
6
CONTINUOUS
10
119.264
20
-63.5058
11
119.55
21
-63.5058
0
LINE
8
BLACK
6
CONTINUOUS
10
119.55
20
-63.5058
11
119.693
21
-63.5772
0
LINE
8
BLACK
6
CONTINUOUS
10
120.193
20
-63.5058
11
120.764
21
-63.5058
0
LINE
8
BLACK
6
CONTINUOUS
10
120.407
20
-64.5058
11
120.407
21
-63.2201
0
LINE
8
BLACK
6
CONTINUOUS
10
120.407
20
-63.2201
11
120.479
21
-63.0772
0
LINE
8
BLACK
6
CONTINUOUS
10
120.479
20
-63.0772
11
120.621
21
-63.0058
0
LINE
8
BLACK
6
CONTINUOUS
10
120.621
20
-63.0058
11
120.764
21
-63.0058
0
LINE
8
BLACK
6
CONTINUOUS
10
121.193
20
-64.4343
11
121.336
21
-64.5058
0
LINE
8
BLACK
6
CONTINUOUS
10
121.336
20
-64.5058
11
121.621
21
-64.5058
0
LINE
8
BLACK
6
CONTINUOUS
10
121.621
20
-64.5058
11
121.764
21
-64.4343
0
LINE
8
BLACK
6
CONTINUOUS
10
121.764
20
-64.4343
11
121.836
21
-64.2915
0
LINE
8
BLACK
6
CONTINUOUS
10
121.836
20
-64.2915
11
121.836
21
-64.2201
0
LINE
8
BLACK
6
CONTINUOUS
10
121.836
20
-64.2201
11
121.764
21
-64.0772
0
LINE
8
BLACK
6
CONTINUOUS
10
121.764
20
-64.0772
11
121.621
21
-64.0058
0
LINE
8
BLACK
6
CONTINUOUS
10
121.621
20
-64.0058
11
121.407
21
-64.0058
0
LINE
8
BLACK
6
CONTINUOUS
10
121.407
20
-64.0058
11
121.264
21
-63.9343
0
LINE
8
BLACK
6
CONTINUOUS
10
121.264
20
-63.9343
11
121.193
21
-63.7915
0
LINE
8
BLACK
6
CONTINUOUS
10
121.193
20
-63.7915
11
121.193
21
-63.7201
0
LINE
8
BLACK
6
CONTINUOUS
10
121.193
20
-63.7201
11
121.264
21
-63.5772
0
LINE
8
BLACK
6
CONTINUOUS
10
121.264
20
-63.5772
11
121.407
21
-63.5058
0
LINE
8
BLACK
6
CONTINUOUS
10
121.407
20
-63.5058
11
121.621
21
-63.5058
0
LINE
8
BLACK
6
CONTINUOUS
10
121.621
20
-63.5058
11
121.764
21
-63.5772
0
LINE
8
BLACK
6
CONTINUOUS
10
123.121
20
-63.5058
11
123.121
21
-64.7201
0
LINE
8
BLACK
6
CONTINUOUS
10
123.121
20
-64.7201
11
123.05
21
-64.8629
0
LINE
8
BLACK
6
CONTINUOUS
10
123.05
20
-64.8629
11
122.979
21
-64.9343
0
LINE
8
BLACK
6
CONTINUOUS
10
122.979
20
-64.9343
11
122.836
21
-65.0058
0
LINE
8
BLACK
6
CONTINUOUS
10
122.836
20
-65.0058
11
122.621
21
-65.0058
0
LINE
8
BLACK
6
CONTINUOUS
10
122.621
20
-65.0058
11
122.479
21
-64.9343
0
LINE
8
BLACK
6
CONTINUOUS
10
123.121
20
-64.4343
11
122.979
21
-64.5058
0
LINE
8
BLACK
6
CONTINUOUS
10
122.979
20
-64.5058
11
122.693
21
-64.5058
0
LINE
8
BLACK
6
CONTINUOUS
10
122.693
20
-64.5058
11
122.55
21
-64.4343
0
LINE
8
BLACK
6
CONTINUOUS
10
122.55
20
-64.4343
11
122.479
21
-64.3629
0
LINE
8
BLACK
6
CONTINUOUS
10
122.479
20
-64.3629
11
122.407
21
-64.2201
0
LINE
8
BLACK
6
CONTINUOUS
10
122.407
20
-64.2201
11
122.407
21
-63.7915
0
LINE
8
BLACK
6
CONTINUOUS
10
122.407
20
-63.7915
11
122.479
21
-63.6486
0
LINE
8
BLACK
6
CONTINUOUS
10
122.479
20
-63.6486
11
122.55
21
-63.5772
0
LINE
8
BLACK
6
CONTINUOUS
10
122.55
20
-63.5772
11
122.693
21
-63.5058
0
LINE
8
BLACK
6
CONTINUOUS
10
122.693
20
-63.5058
11
122.979
21
-63.5058
0
LINE
8
BLACK
6
CONTINUOUS
10
122.979
20
-63.5058
11
123.121
21
-63.5772
0
LINE
8
BLACK
6
CONTINUOUS
10
124.621
20
-64.5058
11
123.764
21
-64.5058
0
LINE
8
BLACK
6
CONTINUOUS
10
124.193
20
-64.5058
11
124.193
21
-63.0058
0
LINE
8
BLACK
6
CONTINUOUS
10
124.193
20
-63.0058
11
124.05
21
-63.2201
0
LINE
8
BLACK
6
CONTINUOUS
10
124.05
20
-63.2201
11
123.907
21
-63.3629
0
LINE
8
BLACK
6
CONTINUOUS
10
123.907
20
-63.3629
11
123.764
21
-63.4343
0
LINE
8
BLACK
6
CONTINUOUS
10
125.264
20
-63.9343
11
126.407
21
-63.9343
0
LINE
8
BLACK
6
CONTINUOUS
10
127.05
20
-63.1486
11
127.121
21
-63.0772
0
LINE
8
BLACK
6
CONTINUOUS
10
127.121
20
-63.0772
11
127.264
21
-63.0058
0
LINE
8
BLACK
6
CONTINUOUS
10
127.264
20
-63.0058
11
127.621
21
-63.0058
0
LINE
8
BLACK
6
CONTINUOUS
10
127.621
20
-63.0058
11
127.764
21
-63.0772
0
LINE
8
BLACK
6
CONTINUOUS
10
127.764
20
-63.0772
11
127.836
21
-63.1486
0
LINE
8
BLACK
6
CONTINUOUS
10
127.836
20
-63.1486
11
127.907
21
-63.2915
0
LINE
8
BLACK
6
CONTINUOUS
10
127.907
20
-63.2915
11
127.907
21
-63.4343
0
LINE
8
BLACK
6
CONTINUOUS
10
127.907
20
-63.4343
11
127.836
21
-63.6486
0
LINE
8
BLACK
6
CONTINUOUS
10
127.836
20
-63.6486
11
126.979
21
-64.5058
0
LINE
8
BLACK
6
CONTINUOUS
10
126.979
20
-64.5058
11
127.907
21
-64.5058
0
LINE
8
BLACK
6
CONTINUOUS
10
128.193
20
-62.5972
11
129.55
21
-62.5972
0
LINE
8
BLACK
6
CONTINUOUS
10
128.55
20
-64.5058
11
128.55
21
-63.0058
0
LINE
8
BLACK
6
CONTINUOUS
10
128.55
20
-63.5772
11
128.693
21
-63.5058
0
LINE
8
BLACK
6
CONTINUOUS
10
128.693
20
-63.5058
11
128.979
21
-63.5058
0
LINE
8
BLACK
6
CONTINUOUS
10
128.979
20
-63.5058
11
129.121
21
-63.5772
0
LINE
8
BLACK
6
CONTINUOUS
10
129.121
20
-63.5772
11
129.193
21
-63.6486
0
LINE
8
BLACK
6
CONTINUOUS
10
129.193
20
-63.6486
11
129.264
21
-63.7915
0
LINE
8
BLACK
6
CONTINUOUS
10
129.264
20
-63.7915
11
129.264
21
-64.2201
0
LINE
8
BLACK
6
CONTINUOUS
10
129.264
20
-64.2201
11
129.193
21
-64.3629
0
LINE
8
BLACK
6
CONTINUOUS
10
129.193
20
-64.3629
11
129.121
21
-64.4343
0
LINE
8
BLACK
6
CONTINUOUS
10
129.121
20
-64.4343
11
128.979
21
-64.5058
0
LINE
8
BLACK
6
CONTINUOUS
10
128.979
20
-64.5058
11
128.693
21
-64.5058
0
LINE
8
BLACK
6
CONTINUOUS
10
128.693
20
-64.5058
11
128.55
21
-64.4343
0
LINE
8
BLACK
6
CONTINUOUS
10
129.55
20
-62.5972
11
130.907
21
-62.5972
0
LINE
8
BLACK
6
CONTINUOUS
10
129.907
20
-63.5058
11
129.907
21
-65.0058
0
LINE
8
BLACK
6
CONTINUOUS
10
129.907
20
-63.5772
11
130.05
21
-63.5058
0
LINE
8
BLACK
6
CONTINUOUS
10
130.05
20
-63.5058
11
130.336
21
-63.5058
0
LINE
8
BLACK
6
CONTINUOUS
10
130.336
20
-63.5058
11
130.479
21
-63.5772
0
LINE
8
BLACK
6
CONTINUOUS
10
130.479
20
-63.5772
11
130.55
21
-63.6486
0
LINE
8
BLACK
6
CONTINUOUS
10
130.55
20
-63.6486
11
130.621
21
-63.7915
0
LINE
8
BLACK
6
CONTINUOUS
10
130.621
20
-63.7915
11
130.621
21
-64.2201
0
LINE
8
BLACK
6
CONTINUOUS
10
130.621
20
-64.2201
11
130.55
21
-64.3629
0
LINE
8
BLACK
6
CONTINUOUS
10
130.55
20
-64.3629
11
130.479
21
-64.4343
0
LINE
8
BLACK
6
CONTINUOUS
10
130.479
20
-64.4343
11
130.336
21
-64.5058
0
LINE
8
BLACK
6
CONTINUOUS
10
130.336
20
-64.5058
11
130.05
21
-64.5058
0
LINE
8
BLACK
6
CONTINUOUS
10
130.05
20
-64.5058
11
129.907
21
-64.4343
0
LINE
8
BLACK
6
CONTINUOUS
10
130.907
20
-62.5972
11
132.264
21
-62.5972
0
LINE
8
BLACK
6
CONTINUOUS
10
131.479
20
-64.5058
11
131.336
21
-64.4343
0
LINE
8
BLACK
6
CONTINUOUS
10
131.336
20
-64.4343
11
131.264
21
-64.3629
0
LINE
8
BLACK
6
CONTINUOUS
10
131.264
20
-64.3629
11
131.193
21
-64.2201
0
LINE
8
BLACK
6
CONTINUOUS
10
131.193
20
-64.2201
11
131.193
21
-63.7915
0
LINE
8
BLACK
6
CONTINUOUS
10
131.193
20
-63.7915
11
131.264
21
-63.6486
0
LINE
8
BLACK
6
CONTINUOUS
10
131.264
20
-63.6486
11
131.336
21
-63.5772
0
LINE
8
BLACK
6
CONTINUOUS
10
131.336
20
-63.5772
11
131.479
21
-63.5058
0
LINE
8
BLACK
6
CONTINUOUS
10
131.479
20
-63.5058
11
131.693
21
-63.5058
0
LINE
8
BLACK
6
CONTINUOUS
10
131.693
20
-63.5058
11
131.836
21
-63.5772
0
LINE
8
BLACK
6
CONTINUOUS
10
131.836
20
-63.5772
11
131.907
21
-63.6486
0
LINE
8
BLACK
6
CONTINUOUS
10
131.907
20
-63.6486
11
131.979
21
-63.7915
0
LINE
8
BLACK
6
CONTINUOUS
10
131.979
20
-63.7915
11
131.979
21
-64.2201
0
LINE
8
BLACK
6
CONTINUOUS
10
131.979
20
-64.2201
11
131.907
21
-64.3629
0
LINE
8
BLACK
6
CONTINUOUS
10
131.907
20
-64.3629
11
131.836
21
-64.4343
0
LINE
8
BLACK
6
CONTINUOUS
10
131.836
20
-64.4343
11
131.693
21
-64.5058
0
LINE
8
BLACK
6
CONTINUOUS
10
131.693
20
-64.5058
11
131.479
21
-64.5058
0
LINE
8
BLACK
6
CONTINUOUS
10
132.264
20
-62.5972
11
133.693
21
-62.5972
0
LINE
8
BLACK
6
CONTINUOUS
10
132.693
20
-64.5058
11
132.979
21
-64.5058
0
LINE
8
BLACK
6
CONTINUOUS
10
132.979
20
-64.5058
11
133.121
21
-64.4343
0
LINE
8
BLACK
6
CONTINUOUS
10
133.121
20
-64.4343
11
133.193
21
-64.3629
0
LINE
8
BLACK
6
CONTINUOUS
10
133.193
20
-64.3629
11
133.336
21
-64.1486
0
LINE
8
BLACK
6
CONTINUOUS
10
133.336
20
-64.1486
11
133.407
21
-63.8629
0
LINE
8
BLACK
6
CONTINUOUS
10
133.407
20
-63.8629
11
133.407
21
-63.2915
0
LINE
8
BLACK
6
CONTINUOUS
10
133.407
20
-63.2915
11
133.336
21
-63.1486
0
LINE
8
BLACK
6
CONTINUOUS
10
133.336
20
-63.1486
11
133.264
21
-63.0772
0
LINE
8
BLACK
6
CONTINUOUS
10
133.264
20
-63.0772
11
133.121
21
-63.0058
0
LINE
8
BLACK
6
CONTINUOUS
10
133.121
20
-63.0058
11
132.836
21
-63.0058
0
LINE
8
BLACK
6
CONTINUOUS
10
132.836
20
-63.0058
11
132.693
21
-63.0772
0
LINE
8
BLACK
6
CONTINUOUS
10
132.693
20
-63.0772
11
132.621
21
-63.1486
0
LINE
8
BLACK
6
CONTINUOUS
10
132.621
20
-63.1486
11
132.55
21
-63.2915
0
LINE
8
BLACK
6
CONTINUOUS
10
132.55
20
-63.2915
11
132.55
21
-63.6486
0
LINE
8
BLACK
6
CONTINUOUS
10
132.55
20
-63.6486
11
132.621
21
-63.7915
0
LINE
8
BLACK
6
CONTINUOUS
10
132.621
20
-63.7915
11
132.693
21
-63.8629
0
LINE
8
BLACK
6
CONTINUOUS
10
132.693
20
-63.8629
11
132.836
21
-63.9343
0
LINE
8
BLACK
6
CONTINUOUS
10
132.836
20
-63.9343
11
133.121
21
-63.9343
0
LINE
8
BLACK
6
CONTINUOUS
10
133.121
20
-63.9343
11
133.264
21
-63.8629
0
LINE
8
BLACK
6
CONTINUOUS
10
133.264
20
-63.8629
11
133.336
21
-63.7915
0
LINE
8
BLACK
6
CONTINUOUS
10
133.336
20
-63.7915
11
133.407
21
-63.6486
0
LINE
8
BLACK
6
CONTINUOUS
10
133.693
20
-62.5972
11
135.55
21
-62.5972
0
LINE
8
BLACK
6
CONTINUOUS
10
134.05
20
-63.9343
11
135.193
21
-63.9343
0
LINE
8
BLACK
6
CONTINUOUS
10
134.621
20
-64.5058
11
134.621
21
-63.3629
0
LINE
8
BLACK
6
CONTINUOUS
10
135.55
20
-62.5972
11
136.979
21
-62.5972
0
LINE
8
BLACK
6
CONTINUOUS
10
136.693
20
-64.5058
11
135.836
21
-64.5058
0
LINE
8
BLACK
6
CONTINUOUS
10
136.264
20
-64.5058
11
136.264
21
-63.0058
0
LINE
8
BLACK
6
CONTINUOUS
10
136.264
20
-63.0058
11
136.121
21
-63.2201
0
LINE
8
BLACK
6
CONTINUOUS
10
136.121
20
-63.2201
11
135.979
21
-63.3629
0
LINE
8
BLACK
6
CONTINUOUS
10
135.979
20
-63.3629
11
135.836
21
-63.4343
0
LINE
8
BLACK
6
CONTINUOUS
10
86.8322
20
-59.4272
11
194.832
21
-59.4272
0
LINE
8
BLACK
6
CONTINUOUS
10
174.241
20
-61.7058
11
173.741
21
-60.9915
0
LINE
8
BLACK
6
CONTINUOUS
10
173.384
20
-61.7058
11
173.384
21
-60.2058
0
LINE
8
BLACK
6
CONTINUOUS
10
173.384
20
-60.2058
11
173.956
21
-60.2058
0
LINE
8
BLACK
6
CONTINUOUS
10
173.956
20
-60.2058
11
174.099
21
-60.2772
0
LINE
8
BLACK
6
CONTINUOUS
10
174.099
20
-60.2772
11
174.17
21
-60.3486
0
LINE
8
BLACK
6
CONTINUOUS
10
174.17
20
-60.3486
11
174.241
21
-60.4915
0
LINE
8
BLACK
6
CONTINUOUS
10
174.241
20
-60.4915
11
174.241
21
-60.7058
0
LINE
8
BLACK
6
CONTINUOUS
10
174.241
20
-60.7058
11
174.17
21
-60.8486
0
LINE
8
BLACK
6
CONTINUOUS
10
174.17
20
-60.8486
11
174.099
21
-60.9201
0
LINE
8
BLACK
6
CONTINUOUS
10
174.099
20
-60.9201
11
173.956
21
-60.9915
0
LINE
8
BLACK
6
CONTINUOUS
10
173.956
20
-60.9915
11
173.384
21
-60.9915
0
LINE
8
BLACK
6
CONTINUOUS
10
175.456
20
-61.6343
11
175.313
21
-61.7058
0
LINE
8
BLACK
6
CONTINUOUS
10
175.313
20
-61.7058
11
175.027
21
-61.7058
0
LINE
8
BLACK
6
CONTINUOUS
10
175.027
20
-61.7058
11
174.884
21
-61.6343
0
LINE
8
BLACK
6
CONTINUOUS
10
174.884
20
-61.6343
11
174.813
21
-61.4915
0
LINE
8
BLACK
6
CONTINUOUS
10
174.813
20
-61.4915
11
174.813
21
-60.9201
0
LINE
8
BLACK
6
CONTINUOUS
10
174.813
20
-60.9201
11
174.884
21
-60.7772
0
LINE
8
BLACK
6
CONTINUOUS
10
174.884
20
-60.7772
11
175.027
21
-60.7058
0
LINE
8
BLACK
6
CONTINUOUS
10
175.027
20
-60.7058
11
175.313
21
-60.7058
0
LINE
8
BLACK
6
CONTINUOUS
10
175.313
20
-60.7058
11
175.456
21
-60.7772
0
LINE
8
BLACK
6
CONTINUOUS
10
175.456
20
-60.7772
11
175.527
21
-60.9201
0
LINE
8
BLACK
6
CONTINUOUS
10
175.527
20
-60.9201
11
175.527
21
-61.0629
0
LINE
8
BLACK
6
CONTINUOUS
10
175.527
20
-61.0629
11
174.813
21
-61.2058
0
LINE
8
BLACK
6
CONTINUOUS
10
176.027
20
-60.7058
11
176.384
21
-61.7058
0
LINE
8
BLACK
6
CONTINUOUS
10
176.384
20
-61.7058
11
176.741
21
-60.7058
0
LINE
8
BLACK
6
CONTINUOUS
10
177.313
20
-61.5629
11
177.384
21
-61.6343
0
LINE
8
BLACK
6
CONTINUOUS
10
177.384
20
-61.6343
11
177.313
21
-61.7058
0
LINE
8
BLACK
6
CONTINUOUS
10
177.313
20
-61.7058
11
177.241
21
-61.6343
0
LINE
8
BLACK
6
CONTINUOUS
10
177.241
20
-61.6343
11
177.313
21
-61.5629
0
LINE
8
BLACK
6
CONTINUOUS
10
177.313
20
-61.5629
11
177.313
21
-61.7058
0
LINE
8
BLACK
6
CONTINUOUS
10
177.313
20
-60.7772
11
177.384
21
-60.8486
0
LINE
8
BLACK
6
CONTINUOUS
10
177.384
20
-60.8486
11
177.313
21
-60.9201
0
LINE
8
BLACK
6
CONTINUOUS
10
177.313
20
-60.9201
11
177.241
21
-60.8486
0
LINE
8
BLACK
6
CONTINUOUS
10
177.241
20
-60.8486
11
177.313
21
-60.7772
0
LINE
8
BLACK
6
CONTINUOUS
10
177.313
20
-60.7772
11
177.313
21
-60.9201
0
LINE
8
BLACK
6
CONTINUOUS
10
179.027
20
-60.7058
11
179.384
21
-61.7058
0
LINE
8
BLACK
6
CONTINUOUS
10
179.384
20
-61.7058
11
179.741
21
-60.7058
0
LINE
8
BLACK
6
CONTINUOUS
10
182.241
20
-61.7058
11
181.384
21
-61.7058
0
LINE
8
BLACK
6
CONTINUOUS
10
181.813
20
-61.7058
11
181.813
21
-60.2058
0
LINE
8
BLACK
6
CONTINUOUS
10
181.813
20
-60.2058
11
181.67
21
-60.4201
0
LINE
8
BLACK
6
CONTINUOUS
10
181.67
20
-60.4201
11
181.527
21
-60.5629
0
LINE
8
BLACK
6
CONTINUOUS
10
181.527
20
-60.5629
11
181.384
21
-60.6343
0
LINE
8
BLACK
6
CONTINUOUS
10
182.884
20
-61.5629
11
182.956
21
-61.6343
0
LINE
8
BLACK
6
CONTINUOUS
10
182.956
20
-61.6343
11
182.884
21
-61.7058
0
LINE
8
BLACK
6
CONTINUOUS
10
182.884
20
-61.7058
11
182.813
21
-61.6343
0
LINE
8
BLACK
6
CONTINUOUS
10
182.813
20
-61.6343
11
182.884
21
-61.5629
0
LINE
8
BLACK
6
CONTINUOUS
10
182.884
20
-61.5629
11
182.884
21
-61.7058
0
LINE
8
BLACK
6
CONTINUOUS
10
184.384
20
-61.7058
11
183.527
21
-61.7058
0
LINE
8
BLACK
6
CONTINUOUS
10
183.956
20
-61.7058
11
183.956
21
-60.2058
0
LINE
8
BLACK
6
CONTINUOUS
10
183.956
20
-60.2058
11
183.813
21
-60.4201
0
LINE
8
BLACK
6
CONTINUOUS
10
183.813
20
-60.4201
11
183.67
21
-60.5629
0
LINE
8
BLACK
6
CONTINUOUS
10
183.67
20
-60.5629
11
183.527
21
-60.6343
0
LINE
8
BLACK
6
CONTINUOUS
10
88.1929
20
-61.6343
11
88.4072
21
-61.7058
0
LINE
8
BLACK
6
CONTINUOUS
10
88.4072
20
-61.7058
11
88.7643
21
-61.7058
0
LINE
8
BLACK
6
CONTINUOUS
10
88.7643
20
-61.7058
11
88.9072
21
-61.6343
0
LINE
8
BLACK
6
CONTINUOUS
10
88.9072
20
-61.6343
11
88.9786
21
-61.5629
0
LINE
8
BLACK
6
CONTINUOUS
10
88.9786
20
-61.5629
11
89.0501
21
-61.4201
0
LINE
8
BLACK
6
CONTINUOUS
10
89.0501
20
-61.4201
11
89.0501
21
-61.2772
0
LINE
8
BLACK
6
CONTINUOUS
10
89.0501
20
-61.2772
11
88.9786
21
-61.1343
0
LINE
8
BLACK
6
CONTINUOUS
10
88.9786
20
-61.1343
11
88.9072
21
-61.0629
0
LINE
8
BLACK
6
CONTINUOUS
10
88.9072
20
-61.0629
11
88.7643
21
-60.9915
0
LINE
8
BLACK
6
CONTINUOUS
10
88.7643
20
-60.9915
11
88.4786
21
-60.9201
0
LINE
8
BLACK
6
CONTINUOUS
10
88.4786
20
-60.9201
11
88.3358
21
-60.8486
0
LINE
8
BLACK
6
CONTINUOUS
10
88.3358
20
-60.8486
11
88.2643
21
-60.7772
0
LINE
8
BLACK
6
CONTINUOUS
10
88.2643
20
-60.7772
11
88.1929
21
-60.6343
0
LINE
8
BLACK
6
CONTINUOUS
10
88.1929
20
-60.6343
11
88.1929
21
-60.4915
0
LINE
8
BLACK
6
CONTINUOUS
10
88.1929
20
-60.4915
11
88.2643
21
-60.3486
0
LINE
8
BLACK
6
CONTINUOUS
10
88.2643
20
-60.3486
11
88.3358
21
-60.2772
0
LINE
8
BLACK
6
CONTINUOUS
10
88.3358
20
-60.2772
11
88.4786
21
-60.2058
0
LINE
8
BLACK
6
CONTINUOUS
10
88.4786
20
-60.2058
11
88.8358
21
-60.2058
0
LINE
8
BLACK
6
CONTINUOUS
10
88.8358
20
-60.2058
11
89.0501
21
-60.2772
0
LINE
8
BLACK
6
CONTINUOUS
10
89.6929
20
-61.7058
11
89.6929
21
-60.7058
0
LINE
8
BLACK
6
CONTINUOUS
10
89.6929
20
-60.2058
11
89.6215
21
-60.2772
0
LINE
8
BLACK
6
CONTINUOUS
10
89.6215
20
-60.2772
11
89.6929
21
-60.3486
0
LINE
8
BLACK
6
CONTINUOUS
10
89.6929
20
-60.3486
11
89.7643
21
-60.2772
0
LINE
8
BLACK
6
CONTINUOUS
10
89.7643
20
-60.2772
11
89.6929
21
-60.2058
0
LINE
8
BLACK
6
CONTINUOUS
10
89.6929
20
-60.2058
11
89.6929
21
-60.3486
0
LINE
8
BLACK
6
CONTINUOUS
10
90.2643
20
-60.7058
11
91.0501
21
-60.7058
0
LINE
8
BLACK
6
CONTINUOUS
10
91.0501
20
-60.7058
11
90.2643
21
-61.7058
0
LINE
8
BLACK
6
CONTINUOUS
10
90.2643
20
-61.7058
11
91.0501
21
-61.7058
0
LINE
8
BLACK
6
CONTINUOUS
10
92.1929
20
-61.6343
11
92.0501
21
-61.7058
0
LINE
8
BLACK
6
CONTINUOUS
10
92.0501
20
-61.7058
11
91.7643
21
-61.7058
0
LINE
8
BLACK
6
CONTINUOUS
10
91.7643
20
-61.7058
11
91.6215
21
-61.6343
0
LINE
8
BLACK
6
CONTINUOUS
10
91.6215
20
-61.6343
11
91.5501
21
-61.4915
0
LINE
8
BLACK
6
CONTINUOUS
10
91.5501
20
-61.4915
11
91.5501
21
-60.9201
0
LINE
8
BLACK
6
CONTINUOUS
10
91.5501
20
-60.9201
11
91.6215
21
-60.7772
0
LINE
8
BLACK
6
CONTINUOUS
10
91.6215
20
-60.7772
11
91.7643
21
-60.7058
0
LINE
8
BLACK
6
CONTINUOUS
10
91.7643
20
-60.7058
11
92.0501
21
-60.7058
0
LINE
8
BLACK
6
CONTINUOUS
10
92.0501
20
-60.7058
11
92.1929
21
-60.7772
0
LINE
8
BLACK
6
CONTINUOUS
10
92.1929
20
-60.7772
11
92.2643
21
-60.9201
0
LINE
8
BLACK
6
CONTINUOUS
10
92.2643
20
-60.9201
11
92.2643
21
-61.0629
0
LINE
8
BLACK
6
CONTINUOUS
10
92.2643
20
-61.0629
11
91.5501
21
-61.2058
0
LINE
8
BLACK
6
CONTINUOUS
10
92.9072
20
-61.5629
11
92.9786
21
-61.6343
0
LINE
8
BLACK
6
CONTINUOUS
10
92.9786
20
-61.6343
11
92.9072
21
-61.7058
0
LINE
8
BLACK
6
CONTINUOUS
10
92.9072
20
-61.7058
11
92.8358
21
-61.6343
0
LINE
8
BLACK
6
CONTINUOUS
10
92.8358
20
-61.6343
11
92.9072
21
-61.5629
0
LINE
8
BLACK
6
CONTINUOUS
10
92.9072
20
-61.5629
11
92.9072
21
-61.7058
0
LINE
8
BLACK
6
CONTINUOUS
10
92.9072
20
-60.7772
11
92.9786
21
-60.8486
0
LINE
8
BLACK
6
CONTINUOUS
10
92.9786
20
-60.8486
11
92.9072
21
-60.9201
0
LINE
8
BLACK
6
CONTINUOUS
10
92.9072
20
-60.9201
11
92.8358
21
-60.8486
0
LINE
8
BLACK
6
CONTINUOUS
10
92.8358
20
-60.8486
11
92.9072
21
-60.7772
0
LINE
8
BLACK
6
CONTINUOUS
10
92.9072
20
-60.7772
11
92.9072
21
-60.9201
0
LINE
8
BLACK
6
CONTINUOUS
10
94.6929
20
-61.2772
11
95.4072
21
-61.2772
0
LINE
8
BLACK
6
CONTINUOUS
10
94.5501
20
-61.7058
11
95.0501
21
-60.2058
0
LINE
8
BLACK
6
CONTINUOUS
10
95.0501
20
-60.2058
11
95.5501
21
-61.7058
0
LINE
8
BLACK
6
CONTINUOUS
10
96.6929
20
-60.7058
11
96.6929
21
-61.7058
0
LINE
8
BLACK
6
CONTINUOUS
10
96.3358
20
-60.1343
11
95.9786
21
-61.2058
0
LINE
8
BLACK
6
CONTINUOUS
10
95.9786
20
-61.2058
11
96.9072
21
-61.2058
0
LINE
8
BLACK
6
CONTINUOUS
10
173.264
20
-64.5058
11
173.264
21
-63.0058
0
LINE
8
BLACK
6
CONTINUOUS
10
174.621
20
-64.5058
11
174.621
21
-63.0058
0
LINE
8
BLACK
6
CONTINUOUS
10
174.621
20
-64.4343
11
174.479
21
-64.5058
0
LINE
8
BLACK
6
CONTINUOUS
10
174.479
20
-64.5058
11
174.193
21
-64.5058
0
LINE
8
BLACK
6
CONTINUOUS
10
174.193
20
-64.5058
11
174.05
21
-64.4343
0
LINE
8
BLACK
6
CONTINUOUS
10
174.05
20
-64.4343
11
173.979
21
-64.3629
0
LINE
8
BLACK
6
CONTINUOUS
10
173.979
20
-64.3629
11
173.907
21
-64.2201
0
LINE
8
BLACK
6
CONTINUOUS
10
173.907
20
-64.2201
11
173.907
21
-63.7915
0
LINE
8
BLACK
6
CONTINUOUS
10
173.907
20
-63.7915
11
173.979
21
-63.6486
0
LINE
8
BLACK
6
CONTINUOUS
10
173.979
20
-63.6486
11
174.05
21
-63.5772
0
LINE
8
BLACK
6
CONTINUOUS
10
174.05
20
-63.5772
11
174.193
21
-63.5058
0
LINE
8
BLACK
6
CONTINUOUS
10
174.193
20
-63.5058
11
174.479
21
-63.5058
0
LINE
8
BLACK
6
CONTINUOUS
10
174.479
20
-63.5058
11
174.621
21
-63.5772
0
LINE
8
BLACK
6
CONTINUOUS
10
175.336
20
-64.3629
11
175.407
21
-64.4343
0
LINE
8
BLACK
6
CONTINUOUS
10
175.407
20
-64.4343
11
175.336
21
-64.5058
0
LINE
8
BLACK
6
CONTINUOUS
10
175.336
20
-64.5058
11
175.264
21
-64.4343
0
LINE
8
BLACK
6
CONTINUOUS
10
175.264
20
-64.4343
11
175.336
21
-64.3629
0
LINE
8
BLACK
6
CONTINUOUS
10
175.336
20
-64.3629
11
175.336
21
-64.5058
0
LINE
8
BLACK
6
CONTINUOUS
10
175.336
20
-63.5772
11
175.407
21
-63.6486
0
LINE
8
BLACK
6
CONTINUOUS
10
175.407
20
-63.6486
11
175.336
21
-63.7201
0
LINE
8
BLACK
6
CONTINUOUS
10
175.336
20
-63.7201
11
175.264
21
-63.6486
0
LINE
8
BLACK
6
CONTINUOUS
10
175.264
20
-63.6486
11
175.336
21
-63.5772
0
LINE
8
BLACK
6
CONTINUOUS
10
175.336
20
-63.5772
11
175.336
21
-63.7201
0
LINE
8
BLACK
6
CONTINUOUS
10
177.979
20
-64.5058
11
177.121
21
-64.5058
0
LINE
8
BLACK
6
CONTINUOUS
10
177.55
20
-64.5058
11
177.55
21
-63.0058
0
LINE
8
BLACK
6
CONTINUOUS
10
177.55
20
-63.0058
11
177.407
21
-63.2201
0
LINE
8
BLACK
6
CONTINUOUS
10
177.407
20
-63.2201
11
177.264
21
-63.3629
0
LINE
8
BLACK
6
CONTINUOUS
10
177.264
20
-63.3629
11
177.121
21
-63.4343
0
LINE
8
BLACK
6
CONTINUOUS
10
179.693
20
-62.9343
11
178.407
21
-64.8629
0
LINE
8
BLACK
6
CONTINUOUS
10
180.979
20
-64.5058
11
180.121
21
-64.5058
0
LINE
8
BLACK
6
CONTINUOUS
10
180.55
20
-64.5058
11
180.55
21
-63.0058
0
LINE
8
BLACK
6
CONTINUOUS
10
180.55
20
-63.0058
11
180.407
21
-63.2201
0
LINE
8
BLACK
6
CONTINUOUS
10
180.407
20
-63.2201
11
180.264
21
-63.3629
0
LINE
8
BLACK
6
CONTINUOUS
10
180.264
20
-63.3629
11
180.121
21
-63.4343
0
LINE
8
BLACK
6
CONTINUOUS
10
86.8322
20
-55.4272
11
194.832
21
-55.4272
0
LINE
8
BLACK
6
CONTINUOUS
10
88.5446
20
-56.132
11
89.6874
21
-56.132
0
LINE
8
BLACK
6
CONTINUOUS
10
88.866
20
-58.132
11
89.116
21
-56.132
0
LINE
8
BLACK
6
CONTINUOUS
10
90.1041
20
-58.132
11
90.2708
21
-56.7986
0
LINE
8
BLACK
6
CONTINUOUS
10
90.3541
20
-56.132
11
90.247
21
-56.2272
0
LINE
8
BLACK
6
CONTINUOUS
10
90.247
20
-56.2272
11
90.3303
21
-56.3224
0
LINE
8
BLACK
6
CONTINUOUS
10
90.3303
20
-56.3224
11
90.4374
21
-56.2272
0
LINE
8
BLACK
6
CONTINUOUS
10
90.4374
20
-56.2272
11
90.3541
21
-56.132
0
LINE
8
BLACK
6
CONTINUOUS
10
90.3541
20
-56.132
11
90.3303
21
-56.3224
0
LINE
8
BLACK
6
CONTINUOUS
10
90.9374
20
-56.7986
11
91.6993
21
-56.7986
0
LINE
8
BLACK
6
CONTINUOUS
10
91.3065
20
-56.132
11
91.0922
21
-57.8462
0
LINE
8
BLACK
6
CONTINUOUS
10
91.0922
20
-57.8462
11
91.1636
21
-58.0367
0
LINE
8
BLACK
6
CONTINUOUS
10
91.1636
20
-58.0367
11
91.3422
21
-58.132
0
LINE
8
BLACK
6
CONTINUOUS
10
91.3422
20
-58.132
11
91.5327
21
-58.132
0
LINE
8
BLACK
6
CONTINUOUS
10
92.4851
20
-58.132
11
92.3065
21
-58.0367
0
LINE
8
BLACK
6
CONTINUOUS
10
92.3065
20
-58.0367
11
92.2351
21
-57.8462
0
LINE
8
BLACK
6
CONTINUOUS
10
92.2351
20
-57.8462
11
92.4493
21
-56.132
0
LINE
8
BLACK
6
CONTINUOUS
10
94.0208
20
-58.0367
11
93.8184
21
-58.132
0
LINE
8
BLACK
6
CONTINUOUS
10
93.8184
20
-58.132
11
93.4374
21
-58.132
0
LINE
8
BLACK
6
CONTINUOUS
10
93.4374
20
-58.132
11
93.2589
21
-58.0367
0
LINE
8
BLACK
6
CONTINUOUS
10
93.2589
20
-58.0367
11
93.1874
21
-57.8462
0
LINE
8
BLACK
6
CONTINUOUS
10
93.1874
20
-57.8462
11
93.2827
21
-57.0843
0
LINE
8
BLACK
6
CONTINUOUS
10
93.2827
20
-57.0843
11
93.4017
21
-56.8939
0
LINE
8
BLACK
6
CONTINUOUS
10
93.4017
20
-56.8939
11
93.6041
21
-56.7986
0
LINE
8
BLACK
6
CONTINUOUS
10
93.6041
20
-56.7986
11
93.9851
21
-56.7986
0
LINE
8
BLACK
6
CONTINUOUS
10
93.9851
20
-56.7986
11
94.1636
21
-56.8939
0
LINE
8
BLACK
6
CONTINUOUS
10
94.1636
20
-56.8939
11
94.2351
21
-57.0843
0
LINE
8
BLACK
6
CONTINUOUS
10
94.2351
20
-57.0843
11
94.2112
21
-57.2748
0
LINE
8
BLACK
6
CONTINUOUS
10
94.2112
20
-57.2748
11
93.2351
21
-57.4653
0
LINE
8
BLACK
6
CONTINUOUS
10
94.9851
20
-57.9415
11
95.0684
21
-58.0367
0
LINE
8
BLACK
6
CONTINUOUS
10
95.0684
20
-58.0367
11
94.9612
21
-58.132
0
LINE
8
BLACK
6
CONTINUOUS
10
94.9612
20
-58.132
11
94.8779
21
-58.0367
0
LINE
8
BLACK
6
CONTINUOUS
10
94.8779
20
-58.0367
11
94.9851
21
-57.9415
0
LINE
8
BLACK
6
CONTINUOUS
10
94.9851
20
-57.9415
11
94.9612
21
-58.132
0
LINE
8
BLACK
6
CONTINUOUS
10
95.116
20
-56.8939
11
95.1993
21
-56.9891
0
LINE
8
BLACK
6
CONTINUOUS
10
95.1993
20
-56.9891
11
95.0922
21
-57.0843
0
LINE
8
BLACK
6
CONTINUOUS
10
95.0922
20
-57.0843
11
95.0089
21
-56.9891
0
LINE
8
BLACK
6
CONTINUOUS
10
95.0089
20
-56.9891
11
95.116
21
-56.8939
0
LINE
8
BLACK
6
CONTINUOUS
10
95.116
20
-56.8939
11
95.0922
21
-57.0843
0
LINE
8
BLACK
6
CONTINUOUS
10
97.4374
20
-58.132
11
97.6874
21
-56.132
0
LINE
8
BLACK
6
CONTINUOUS
10
98.5803
20
-58.132
11
97.866
21
-56.9891
0
LINE
8
BLACK
6
CONTINUOUS
10
98.8303
20
-56.132
11
97.5446
21
-57.2748
0
LINE
8
BLACK
6
CONTINUOUS
10
99.7232
20
-58.132
11
99.5446
21
-58.0367
0
LINE
8
BLACK
6
CONTINUOUS
10
99.5446
20
-58.0367
11
99.4612
21
-57.9415
0
LINE
8
BLACK
6
CONTINUOUS
10
99.4612
20
-57.9415
11
99.3898
21
-57.751
0
LINE
8
BLACK
6
CONTINUOUS
10
99.3898
20
-57.751
11
99.4612
21
-57.1796
0
LINE
8
BLACK
6
CONTINUOUS
10
99.4612
20
-57.1796
11
99.5803
21
-56.9891
0
LINE
8
BLACK
6
CONTINUOUS
10
99.5803
20
-56.9891
11
99.6874
21
-56.8939
0
LINE
8
BLACK
6
CONTINUOUS
10
99.6874
20
-56.8939
11
99.8898
21
-56.7986
0
LINE
8
BLACK
6
CONTINUOUS
10
99.8898
20
-56.7986
11
100.176
21
-56.7986
0
LINE
8
BLACK
6
CONTINUOUS
10
100.176
20
-56.7986
11
100.354
21
-56.8939
0
LINE
8
BLACK
6
CONTINUOUS
10
100.354
20
-56.8939
11
100.437
21
-56.9891
0
LINE
8
BLACK
6
CONTINUOUS
10
100.437
20
-56.9891
11
100.509
21
-57.1796
0
LINE
8
BLACK
6
CONTINUOUS
10
100.509
20
-57.1796
11
100.437
21
-57.751
0
LINE
8
BLACK
6
CONTINUOUS
10
100.437
20
-57.751
11
100.318
21
-57.9415
0
LINE
8
BLACK
6
CONTINUOUS
10
100.318
20
-57.9415
11
100.211
21
-58.0367
0
LINE
8
BLACK
6
CONTINUOUS
10
100.211
20
-58.0367
11
100.009
21
-58.132
0
LINE
8
BLACK
6
CONTINUOUS
10
100.009
20
-58.132
11
99.7232
21
-58.132
0
LINE
8
BLACK
6
CONTINUOUS
10
101.128
20
-56.7986
11
101.89
21
-56.7986
0
LINE
8
BLACK
6
CONTINUOUS
10
101.497
20
-56.132
11
101.283
21
-57.8462
0
LINE
8
BLACK
6
CONTINUOUS
10
101.283
20
-57.8462
11
101.354
21
-58.0367
0
LINE
8
BLACK
6
CONTINUOUS
10
101.354
20
-58.0367
11
101.533
21
-58.132
0
LINE
8
BLACK
6
CONTINUOUS
10
101.533
20
-58.132
11
101.723
21
-58.132
0
LINE
8
BLACK
6
CONTINUOUS
10
102.676
20
-58.132
11
102.497
21
-58.0367
0
LINE
8
BLACK
6
CONTINUOUS
10
102.497
20
-58.0367
11
102.414
21
-57.9415
0
LINE
8
BLACK
6
CONTINUOUS
10
102.414
20
-57.9415
11
102.342
21
-57.751
0
LINE
8
BLACK
6
CONTINUOUS
10
102.342
20
-57.751
11
102.414
21
-57.1796
0
LINE
8
BLACK
6
CONTINUOUS
10
102.414
20
-57.1796
11
102.533
21
-56.9891
0
LINE
8
BLACK
6
CONTINUOUS
10
102.533
20
-56.9891
11
102.64
21
-56.8939
0
LINE
8
BLACK
6
CONTINUOUS
10
102.64
20
-56.8939
11
102.842
21
-56.7986
0
LINE
8
BLACK
6
CONTINUOUS
10
102.842
20
-56.7986
11
103.128
21
-56.7986
0
LINE
8
BLACK
6
CONTINUOUS
10
103.128
20
-56.7986
11
103.306
21
-56.8939
0
LINE
8
BLACK
6
CONTINUOUS
10
103.306
20
-56.8939
11
103.39
21
-56.9891
0
LINE
8
BLACK
6
CONTINUOUS
10
103.39
20
-56.9891
11
103.461
21
-57.1796
0
LINE
8
BLACK
6
CONTINUOUS
10
103.461
20
-57.1796
11
103.39
21
-57.751
0
LINE
8
BLACK
6
CONTINUOUS
10
103.39
20
-57.751
11
103.271
21
-57.9415
0
LINE
8
BLACK
6
CONTINUOUS
10
103.271
20
-57.9415
11
103.164
21
-58.0367
0
LINE
8
BLACK
6
CONTINUOUS
10
103.164
20
-58.0367
11
102.961
21
-58.132
0
LINE
8
BLACK
6
CONTINUOUS
10
102.961
20
-58.132
11
102.676
21
-58.132
0
LINE
8
BLACK
6
CONTINUOUS
10
104.366
20
-56.7986
11
104.199
21
-58.132
0
LINE
8
BLACK
6
CONTINUOUS
10
104.342
20
-56.9891
11
104.449
21
-56.8939
0
LINE
8
BLACK
6
CONTINUOUS
10
104.449
20
-56.8939
11
104.652
21
-56.7986
0
LINE
8
BLACK
6
CONTINUOUS
10
104.652
20
-56.7986
11
104.937
21
-56.7986
0
LINE
8
BLACK
6
CONTINUOUS
10
104.937
20
-56.7986
11
105.116
21
-56.8939
0
LINE
8
BLACK
6
CONTINUOUS
10
105.116
20
-56.8939
11
105.187
21
-57.0843
0
LINE
8
BLACK
6
CONTINUOUS
10
105.187
20
-57.0843
11
105.056
21
-58.132
0
LINE
8
BLACK
6
CONTINUOUS
10
106.295
20
-58.132
11
106.116
21
-58.0367
0
LINE
8
BLACK
6
CONTINUOUS
10
106.116
20
-58.0367
11
106.033
21
-57.9415
0
LINE
8
BLACK
6
CONTINUOUS
10
106.033
20
-57.9415
11
105.961
21
-57.751
0
LINE
8
BLACK
6
CONTINUOUS
10
105.961
20
-57.751
11
106.033
21
-57.1796
0
LINE
8
BLACK
6
CONTINUOUS
10
106.033
20
-57.1796
11
106.152
21
-56.9891
0
LINE
8
BLACK
6
CONTINUOUS
10
106.152
20
-56.9891
11
106.259
21
-56.8939
0
LINE
8
BLACK
6
CONTINUOUS
10
106.259
20
-56.8939
11
106.461
21
-56.7986
0
LINE
8
BLACK
6
CONTINUOUS
10
106.461
20
-56.7986
11
106.747
21
-56.7986
0
LINE
8
BLACK
6
CONTINUOUS
10
106.747
20
-56.7986
11
106.926
21
-56.8939
0
LINE
8
BLACK
6
CONTINUOUS
10
106.926
20
-56.8939
11
107.009
21
-56.9891
0
LINE
8
BLACK
6
CONTINUOUS
10
107.009
20
-56.9891
11
107.08
21
-57.1796
0
LINE
8
BLACK
6
CONTINUOUS
10
107.08
20
-57.1796
11
107.009
21
-57.751
0
LINE
8
BLACK
6
CONTINUOUS
10
107.009
20
-57.751
11
106.89
21
-57.9415
0
LINE
8
BLACK
6
CONTINUOUS
10
106.89
20
-57.9415
11
106.783
21
-58.0367
0
LINE
8
BLACK
6
CONTINUOUS
10
106.783
20
-58.0367
11
106.58
21
-58.132
0
LINE
8
BLACK
6
CONTINUOUS
10
106.58
20
-58.132
11
106.295
21
-58.132
0
LINE
8
BLACK
6
CONTINUOUS
10
107.818
20
-58.132
11
108.068
21
-56.132
0
LINE
8
BLACK
6
CONTINUOUS
10
108.676
20
-58.132
11
108.806
21
-57.0843
0
LINE
8
BLACK
6
CONTINUOUS
10
108.806
20
-57.0843
11
108.735
21
-56.8939
0
LINE
8
BLACK
6
CONTINUOUS
10
108.735
20
-56.8939
11
108.556
21
-56.7986
0
LINE
8
BLACK
6
CONTINUOUS
10
108.556
20
-56.7986
11
108.271
21
-56.7986
0
LINE
8
BLACK
6
CONTINUOUS
10
108.271
20
-56.7986
11
108.068
21
-56.8939
0
LINE
8
BLACK
6
CONTINUOUS
10
108.068
20
-56.8939
11
107.961
21
-56.9891
0
LINE
8
BLACK
6
CONTINUOUS
10
110.485
20
-58.132
11
110.616
21
-57.0843
0
LINE
8
BLACK
6
CONTINUOUS
10
110.616
20
-57.0843
11
110.545
21
-56.8939
0
LINE
8
BLACK
6
CONTINUOUS
10
110.545
20
-56.8939
11
110.366
21
-56.7986
0
LINE
8
BLACK
6
CONTINUOUS
10
110.366
20
-56.7986
11
109.985
21
-56.7986
0
LINE
8
BLACK
6
CONTINUOUS
10
109.985
20
-56.7986
11
109.783
21
-56.8939
0
LINE
8
BLACK
6
CONTINUOUS
10
110.497
20
-58.0367
11
110.295
21
-58.132
0
LINE
8
BLACK
6
CONTINUOUS
10
110.295
20
-58.132
11
109.818
21
-58.132
0
LINE
8
BLACK
6
CONTINUOUS
10
109.818
20
-58.132
11
109.64
21
-58.0367
0
LINE
8
BLACK
6
CONTINUOUS
10
109.64
20
-58.0367
11
109.568
21
-57.8462
0
LINE
8
BLACK
6
CONTINUOUS
10
109.568
20
-57.8462
11
109.592
21
-57.6558
0
LINE
8
BLACK
6
CONTINUOUS
10
109.592
20
-57.6558
11
109.711
21
-57.4653
0
LINE
8
BLACK
6
CONTINUOUS
10
109.711
20
-57.4653
11
109.914
21
-57.3701
0
LINE
8
BLACK
6
CONTINUOUS
10
109.914
20
-57.3701
11
110.39
21
-57.3701
0
LINE
8
BLACK
6
CONTINUOUS
10
110.39
20
-57.3701
11
110.592
21
-57.2748
0
LINE
8
BLACK
6
CONTINUOUS
10
112.961
20
-58.132
11
113.211
21
-56.132
0
LINE
8
BLACK
6
CONTINUOUS
10
113.116
20
-56.8939
11
113.318
21
-56.7986
0
LINE
8
BLACK
6
CONTINUOUS
10
113.318
20
-56.7986
11
113.699
21
-56.7986
0
LINE
8
BLACK
6
CONTINUOUS
10
113.699
20
-56.7986
11
113.878
21
-56.8939
0
LINE
8
BLACK
6
CONTINUOUS
10
113.878
20
-56.8939
11
113.961
21
-56.9891
0
LINE
8
BLACK
6
CONTINUOUS
10
113.961
20
-56.9891
11
114.033
21
-57.1796
0
LINE
8
BLACK
6
CONTINUOUS
10
114.033
20
-57.1796
11
113.961
21
-57.751
0
LINE
8
BLACK
6
CONTINUOUS
10
113.961
20
-57.751
11
113.842
21
-57.9415
0
LINE
8
BLACK
6
CONTINUOUS
10
113.842
20
-57.9415
11
113.735
21
-58.0367
0
LINE
8
BLACK
6
CONTINUOUS
10
113.735
20
-58.0367
11
113.533
21
-58.132
0
LINE
8
BLACK
6
CONTINUOUS
10
113.533
20
-58.132
11
113.152
21
-58.132
0
LINE
8
BLACK
6
CONTINUOUS
10
113.152
20
-58.132
11
112.973
21
-58.0367
0
LINE
8
BLACK
6
CONTINUOUS
10
115.056
20
-58.132
11
114.878
21
-58.0367
0
LINE
8
BLACK
6
CONTINUOUS
10
114.878
20
-58.0367
11
114.795
21
-57.9415
0
LINE
8
BLACK
6
CONTINUOUS
10
114.795
20
-57.9415
11
114.723
21
-57.751
0
LINE
8
BLACK
6
CONTINUOUS
10
114.723
20
-57.751
11
114.795
21
-57.1796
0
LINE
8
BLACK
6
CONTINUOUS
10
114.795
20
-57.1796
11
114.914
21
-56.9891
0
LINE
8
BLACK
6
CONTINUOUS
10
114.914
20
-56.9891
11
115.021
21
-56.8939
0
LINE
8
BLACK
6
CONTINUOUS
10
115.021
20
-56.8939
11
115.223
21
-56.7986
0
LINE
8
BLACK
6
CONTINUOUS
10
115.223
20
-56.7986
11
115.509
21
-56.7986
0
LINE
8
BLACK
6
CONTINUOUS
10
115.509
20
-56.7986
11
115.687
21
-56.8939
0
LINE
8
BLACK
6
CONTINUOUS
10
115.687
20
-56.8939
11
115.771
21
-56.9891
0
LINE
8
BLACK
6
CONTINUOUS
10
115.771
20
-56.9891
11
115.842
21
-57.1796
0
LINE
8
BLACK
6
CONTINUOUS
10
115.842
20
-57.1796
11
115.771
21
-57.751
0
LINE
8
BLACK
6
CONTINUOUS
10
115.771
20
-57.751
11
115.652
21
-57.9415
0
LINE
8
BLACK
6
CONTINUOUS
10
115.652
20
-57.9415
11
115.545
21
-58.0367
0
LINE
8
BLACK
6
CONTINUOUS
10
115.545
20
-58.0367
11
115.342
21
-58.132
0
LINE
8
BLACK
6
CONTINUOUS
10
115.342
20
-58.132
11
115.056
21
-58.132
0
LINE
8
BLACK
6
CONTINUOUS
10
117.437
20
-58.132
11
117.568
21
-57.0843
0
LINE
8
BLACK
6
CONTINUOUS
10
117.568
20
-57.0843
11
117.497
21
-56.8939
0
LINE
8
BLACK
6
CONTINUOUS
10
117.497
20
-56.8939
11
117.318
21
-56.7986
0
LINE
8
BLACK
6
CONTINUOUS
10
117.318
20
-56.7986
11
116.937
21
-56.7986
0
LINE
8
BLACK
6
CONTINUOUS
10
116.937
20
-56.7986
11
116.735
21
-56.8939
0
LINE
8
BLACK
6
CONTINUOUS
10
117.449
20
-58.0367
11
117.247
21
-58.132
0
LINE
8
BLACK
6
CONTINUOUS
10
117.247
20
-58.132
11
116.771
21
-58.132
0
LINE
8
BLACK
6
CONTINUOUS
10
116.771
20
-58.132
11
116.592
21
-58.0367
0
LINE
8
BLACK
6
CONTINUOUS
10
116.592
20
-58.0367
11
116.521
21
-57.8462
0
LINE
8
BLACK
6
CONTINUOUS
10
116.521
20
-57.8462
11
116.545
21
-57.6558
0
LINE
8
BLACK
6
CONTINUOUS
10
116.545
20
-57.6558
11
116.664
21
-57.4653
0
LINE
8
BLACK
6
CONTINUOUS
10
116.664
20
-57.4653
11
116.866
21
-57.3701
0
LINE
8
BLACK
6
CONTINUOUS
10
116.866
20
-57.3701
11
117.342
21
-57.3701
0
LINE
8
BLACK
6
CONTINUOUS
10
117.342
20
-57.3701
11
117.545
21
-57.2748
0
LINE
8
BLACK
6
CONTINUOUS
10
118.39
20
-58.132
11
118.556
21
-56.7986
0
LINE
8
BLACK
6
CONTINUOUS
10
118.509
20
-57.1796
11
118.628
21
-56.9891
0
LINE
8
BLACK
6
CONTINUOUS
10
118.628
20
-56.9891
11
118.735
21
-56.8939
0
LINE
8
BLACK
6
CONTINUOUS
10
118.735
20
-56.8939
11
118.937
21
-56.7986
0
LINE
8
BLACK
6
CONTINUOUS
10
118.937
20
-56.7986
11
119.128
21
-56.7986
0
LINE
8
BLACK
6
CONTINUOUS
10
120.485
20
-58.132
11
120.735
21
-56.132
0
LINE
8
BLACK
6
CONTINUOUS
10
120.497
20
-58.0367
11
120.295
21
-58.132
0
LINE
8
BLACK
6
CONTINUOUS
10
120.295
20
-58.132
11
119.914
21
-58.132
0
LINE
8
BLACK
6
CONTINUOUS
10
119.914
20
-58.132
11
119.735
21
-58.0367
0
LINE
8
BLACK
6
CONTINUOUS
10
119.735
20
-58.0367
11
119.652
21
-57.9415
0
LINE
8
BLACK
6
CONTINUOUS
10
119.652
20
-57.9415
11
119.58
21
-57.751
0
LINE
8
BLACK
6
CONTINUOUS
10
119.58
20
-57.751
11
119.652
21
-57.1796
0
LINE
8
BLACK
6
CONTINUOUS
10
119.652
20
-57.1796
11
119.771
21
-56.9891
0
LINE
8
BLACK
6
CONTINUOUS
10
119.771
20
-56.9891
11
119.878
21
-56.8939
0
LINE
8
BLACK
6
CONTINUOUS
10
119.878
20
-56.8939
11
120.08
21
-56.7986
0
LINE
8
BLACK
6
CONTINUOUS
10
120.08
20
-56.7986
11
120.461
21
-56.7986
0
LINE
8
BLACK
6
CONTINUOUS
10
120.461
20
-56.7986
11
120.64
21
-56.8939
0
LINE
8
BLACK
6
CONTINUOUS
10
123.056
20
-57.3701
11
124.58
21
-57.3701
0
LINE
8
BLACK
6
CONTINUOUS
10
127.759
20
-57.0843
11
128.033
21
-57.1796
0
LINE
8
BLACK
6
CONTINUOUS
10
128.033
20
-57.1796
11
128.116
21
-57.2748
0
LINE
8
BLACK
6
CONTINUOUS
10
128.116
20
-57.2748
11
128.187
21
-57.4653
0
LINE
8
BLACK
6
CONTINUOUS
10
128.187
20
-57.4653
11
128.152
21
-57.751
0
LINE
8
BLACK
6
CONTINUOUS
10
128.152
20
-57.751
11
128.033
21
-57.9415
0
LINE
8
BLACK
6
CONTINUOUS
10
128.033
20
-57.9415
11
127.926
21
-58.0367
0
LINE
8
BLACK
6
CONTINUOUS
10
127.926
20
-58.0367
11
127.723
21
-58.132
0
LINE
8
BLACK
6
CONTINUOUS
10
127.723
20
-58.132
11
126.961
21
-58.132
0
LINE
8
BLACK
6
CONTINUOUS
10
126.961
20
-58.132
11
127.211
21
-56.132
0
LINE
8
BLACK
6
CONTINUOUS
10
127.211
20
-56.132
11
127.878
21
-56.132
0
LINE
8
BLACK
6
CONTINUOUS
10
127.878
20
-56.132
11
128.056
21
-56.2272
0
LINE
8
BLACK
6
CONTINUOUS
10
128.056
20
-56.2272
11
128.14
21
-56.3224
0
LINE
8
BLACK
6
CONTINUOUS
10
128.14
20
-56.3224
11
128.211
21
-56.5129
0
LINE
8
BLACK
6
CONTINUOUS
10
128.211
20
-56.5129
11
128.187
21
-56.7034
0
LINE
8
BLACK
6
CONTINUOUS
10
128.187
20
-56.7034
11
128.068
21
-56.8939
0
LINE
8
BLACK
6
CONTINUOUS
10
128.068
20
-56.8939
11
127.961
21
-56.9891
0
LINE
8
BLACK
6
CONTINUOUS
10
127.961
20
-56.9891
11
127.759
21
-57.0843
0
LINE
8
BLACK
6
CONTINUOUS
10
127.759
20
-57.0843
11
127.092
21
-57.0843
0
LINE
8
BLACK
6
CONTINUOUS
10
129.247
20
-58.132
11
129.068
21
-58.0367
0
LINE
8
BLACK
6
CONTINUOUS
10
129.068
20
-58.0367
11
128.985
21
-57.9415
0
LINE
8
BLACK
6
CONTINUOUS
10
128.985
20
-57.9415
11
128.914
21
-57.751
0
LINE
8
BLACK
6
CONTINUOUS
10
128.914
20
-57.751
11
128.985
21
-57.1796
0
LINE
8
BLACK
6
CONTINUOUS
10
128.985
20
-57.1796
11
129.104
21
-56.9891
0
LINE
8
BLACK
6
CONTINUOUS
10
129.104
20
-56.9891
11
129.211
21
-56.8939
0
LINE
8
BLACK
6
CONTINUOUS
10
129.211
20
-56.8939
11
129.414
21
-56.7986
0
LINE
8
BLACK
6
CONTINUOUS
10
129.414
20
-56.7986
11
129.699
21
-56.7986
0
LINE
8
BLACK
6
CONTINUOUS
10
129.699
20
-56.7986
11
129.878
21
-56.8939
0
LINE
8
BLACK
6
CONTINUOUS
10
129.878
20
-56.8939
11
129.961
21
-56.9891
0
LINE
8
BLACK
6
CONTINUOUS
10
129.961
20
-56.9891
11
130.033
21
-57.1796
0
LINE
8
BLACK
6
CONTINUOUS
10
130.033
20
-57.1796
11
129.961
21
-57.751
0
LINE
8
BLACK
6
CONTINUOUS
10
129.961
20
-57.751
11
129.842
21
-57.9415
0
LINE
8
BLACK
6
CONTINUOUS
10
129.842
20
-57.9415
11
129.735
21
-58.0367
0
LINE
8
BLACK
6
CONTINUOUS
10
129.735
20
-58.0367
11
129.533
21
-58.132
0
LINE
8
BLACK
6
CONTINUOUS
10
129.533
20
-58.132
11
129.247
21
-58.132
0
LINE
8
BLACK
6
CONTINUOUS
10
130.937
20
-56.7986
11
130.771
21
-58.132
0
LINE
8
BLACK
6
CONTINUOUS
10
130.914
20
-56.9891
11
131.021
21
-56.8939
0
LINE
8
BLACK
6
CONTINUOUS
10
131.021
20
-56.8939
11
131.223
21
-56.7986
0
LINE
8
BLACK
6
CONTINUOUS
10
131.223
20
-56.7986
11
131.509
21
-56.7986
0
LINE
8
BLACK
6
CONTINUOUS
10
131.509
20
-56.7986
11
131.687
21
-56.8939
0
LINE
8
BLACK
6
CONTINUOUS
10
131.687
20
-56.8939
11
131.759
21
-57.0843
0
LINE
8
BLACK
6
CONTINUOUS
10
131.759
20
-57.0843
11
131.628
21
-58.132
0
LINE
8
BLACK
6
CONTINUOUS
10
132.497
20
-58.0367
11
132.676
21
-58.132
0
LINE
8
BLACK
6
CONTINUOUS
10
132.676
20
-58.132
11
133.056
21
-58.132
0
LINE
8
BLACK
6
CONTINUOUS
10
133.056
20
-58.132
11
133.259
21
-58.0367
0
LINE
8
BLACK
6
CONTINUOUS
10
133.259
20
-58.0367
11
133.378
21
-57.8462
0
LINE
8
BLACK
6
CONTINUOUS
10
133.378
20
-57.8462
11
133.39
21
-57.751
0
LINE
8
BLACK
6
CONTINUOUS
10
133.39
20
-57.751
11
133.318
21
-57.5605
0
LINE
8
BLACK
6
CONTINUOUS
10
133.318
20
-57.5605
11
133.14
21
-57.4653
0
LINE
8
BLACK
6
CONTINUOUS
10
133.14
20
-57.4653
11
132.854
21
-57.4653
0
LINE
8
BLACK
6
CONTINUOUS
10
132.854
20
-57.4653
11
132.676
21
-57.3701
0
LINE
8
BLACK
6
CONTINUOUS
10
132.676
20
-57.3701
11
132.604
21
-57.1796
0
LINE
8
BLACK
6
CONTINUOUS
10
132.604
20
-57.1796
11
132.616
21
-57.0843
0
LINE
8
BLACK
6
CONTINUOUS
10
132.616
20
-57.0843
11
132.735
21
-56.8939
0
LINE
8
BLACK
6
CONTINUOUS
10
132.735
20
-56.8939
11
132.937
21
-56.7986
0
LINE
8
BLACK
6
CONTINUOUS
10
132.937
20
-56.7986
11
133.223
21
-56.7986
0
LINE
8
BLACK
6
CONTINUOUS
10
133.223
20
-56.7986
11
133.402
21
-56.8939
0
LINE
8
BLACK
6
CONTINUOUS
10
135.056
20
-58.132
11
135.187
21
-57.0843
0
LINE
8
BLACK
6
CONTINUOUS
10
135.187
20
-57.0843
11
135.116
21
-56.8939
0
LINE
8
BLACK
6
CONTINUOUS
10
135.116
20
-56.8939
11
134.937
21
-56.7986
0
LINE
8
BLACK
6
CONTINUOUS
10
134.937
20
-56.7986
11
134.556
21
-56.7986
0
LINE
8
BLACK
6
CONTINUOUS
10
134.556
20
-56.7986
11
134.354
21
-56.8939
0
LINE
8
BLACK
6
CONTINUOUS
10
135.068
20
-58.0367
11
134.866
21
-58.132
0
LINE
8
BLACK
6
CONTINUOUS
10
134.866
20
-58.132
11
134.39
21
-58.132
0
LINE
8
BLACK
6
CONTINUOUS
10
134.39
20
-58.132
11
134.211
21
-58.0367
0
LINE
8
BLACK
6
CONTINUOUS
10
134.211
20
-58.0367
11
134.14
21
-57.8462
0
LINE
8
BLACK
6
CONTINUOUS
10
134.14
20
-57.8462
11
134.164
21
-57.6558
0
LINE
8
BLACK
6
CONTINUOUS
10
134.164
20
-57.6558
11
134.283
21
-57.4653
0
LINE
8
BLACK
6
CONTINUOUS
10
134.283
20
-57.4653
11
134.485
21
-57.3701
0
LINE
8
BLACK
6
CONTINUOUS
10
134.485
20
-57.3701
11
134.961
21
-57.3701
0
LINE
8
BLACK
6
CONTINUOUS
10
134.961
20
-57.3701
11
135.164
21
-57.2748
0
LINE
8
BLACK
6
CONTINUOUS
10
136.009
20
-58.132
11
136.176
21
-56.7986
0
LINE
8
BLACK
6
CONTINUOUS
10
136.259
20
-56.132
11
136.152
21
-56.2272
0
LINE
8
BLACK
6
CONTINUOUS
10
136.152
20
-56.2272
11
136.235
21
-56.3224
0
LINE
8
BLACK
6
CONTINUOUS
10
136.235
20
-56.3224
11
136.342
21
-56.2272
0
LINE
8
BLACK
6
CONTINUOUS
10
136.342
20
-56.2272
11
136.259
21
-56.132
0
LINE
8
BLACK
6
CONTINUOUS
10
136.259
20
-56.132
11
136.235
21
-56.3224
0
LINE
8
BLACK
6
CONTINUOUS
10
138.58
20
-57.3701
11
140.104
21
-57.3701
0
LINE
8
BLACK
6
CONTINUOUS
10
88.7643
20
-53.5201
11
88.2643
21
-53.5201
0
LINE
8
BLACK
6
CONTINUOUS
10
88.2643
20
-54.3058
11
88.2643
21
-52.8058
0
LINE
8
BLACK
6
CONTINUOUS
10
88.2643
20
-52.8058
11
88.9786
21
-52.8058
0
LINE
8
BLACK
6
CONTINUOUS
10
89.5501
20
-54.3058
11
89.5501
21
-53.3058
0
LINE
8
BLACK
6
CONTINUOUS
10
89.5501
20
-52.8058
11
89.4786
21
-52.8772
0
LINE
8
BLACK
6
CONTINUOUS
10
89.4786
20
-52.8772
11
89.5501
21
-52.9486
0
LINE
8
BLACK
6
CONTINUOUS
10
89.5501
20
-52.9486
11
89.6215
21
-52.8772
0
LINE
8
BLACK
6
CONTINUOUS
10
89.6215
20
-52.8772
11
89.5501
21
-52.8058
0
LINE
8
BLACK
6
CONTINUOUS
10
89.5501
20
-52.8058
11
89.5501
21
-52.9486
0
LINE
8
BLACK
6
CONTINUOUS
10
90.4786
20
-54.3058
11
90.3358
21
-54.2343
0
LINE
8
BLACK
6
CONTINUOUS
10
90.3358
20
-54.2343
11
90.2643
21
-54.0915
0
LINE
8
BLACK
6
CONTINUOUS
10
90.2643
20
-54.0915
11
90.2643
21
-52.8058
0
LINE
8
BLACK
6
CONTINUOUS
10
91.6215
20
-54.2343
11
91.4786
21
-54.3058
0
LINE
8
BLACK
6
CONTINUOUS
10
91.4786
20
-54.3058
11
91.1929
21
-54.3058
0
LINE
8
BLACK
6
CONTINUOUS
10
91.1929
20
-54.3058
11
91.0501
21
-54.2343
0
LINE
8
BLACK
6
CONTINUOUS
10
91.0501
20
-54.2343
11
90.9786
21
-54.0915
0
LINE
8
BLACK
6
CONTINUOUS
10
90.9786
20
-54.0915
11
90.9786
21
-53.5201
0
LINE
8
BLACK
6
CONTINUOUS
10
90.9786
20
-53.5201
11
91.0501
21
-53.3772
0
LINE
8
BLACK
6
CONTINUOUS
10
91.0501
20
-53.3772
11
91.1929
21
-53.3058
0
LINE
8
BLACK
6
CONTINUOUS
10
91.1929
20
-53.3058
11
91.4786
21
-53.3058
0
LINE
8
BLACK
6
CONTINUOUS
10
91.4786
20
-53.3058
11
91.6215
21
-53.3772
0
LINE
8
BLACK
6
CONTINUOUS
10
91.6215
20
-53.3772
11
91.6929
21
-53.5201
0
LINE
8
BLACK
6
CONTINUOUS
10
91.6929
20
-53.5201
11
91.6929
21
-53.6629
0
LINE
8
BLACK
6
CONTINUOUS
10
91.6929
20
-53.6629
11
90.9786
21
-53.8058
0
LINE
8
BLACK
6
CONTINUOUS
10
92.3358
20
-54.1629
11
92.4072
21
-54.2343
0
LINE
8
BLACK
6
CONTINUOUS
10
92.4072
20
-54.2343
11
92.3358
21
-54.3058
0
LINE
8
BLACK
6
CONTINUOUS
10
92.3358
20
-54.3058
11
92.2643
21
-54.2343
0
LINE
8
BLACK
6
CONTINUOUS
10
92.2643
20
-54.2343
11
92.3358
21
-54.1629
0
LINE
8
BLACK
6
CONTINUOUS
10
92.3358
20
-54.1629
11
92.3358
21
-54.3058
0
LINE
8
BLACK
6
CONTINUOUS
10
92.3358
20
-53.3772
11
92.4072
21
-53.4486
0
LINE
8
BLACK
6
CONTINUOUS
10
92.4072
20
-53.4486
11
92.3358
21
-53.5201
0
LINE
8
BLACK
6
CONTINUOUS
10
92.3358
20
-53.5201
11
92.2643
21
-53.4486
0
LINE
8
BLACK
6
CONTINUOUS
10
92.2643
20
-53.4486
11
92.3358
21
-53.3772
0
LINE
8
BLACK
6
CONTINUOUS
10
92.3358
20
-53.3772
11
92.3358
21
-53.5201
0
LINE
8
BLACK
6
CONTINUOUS
10
94.1929
20
-54.3058
11
94.1929
21
-52.8058
0
LINE
8
BLACK
6
CONTINUOUS
10
94.1929
20
-53.3772
11
94.3358
21
-53.3058
0
LINE
8
BLACK
6
CONTINUOUS
10
94.3358
20
-53.3058
11
94.6215
21
-53.3058
0
LINE
8
BLACK
6
CONTINUOUS
10
94.6215
20
-53.3058
11
94.7643
21
-53.3772
0
LINE
8
BLACK
6
CONTINUOUS
10
94.7643
20
-53.3772
11
94.8358
21
-53.4486
0
LINE
8
BLACK
6
CONTINUOUS
10
94.8358
20
-53.4486
11
94.9072
21
-53.5915
0
LINE
8
BLACK
6
CONTINUOUS
10
94.9072
20
-53.5915
11
94.9072
21
-54.0201
0
LINE
8
BLACK
6
CONTINUOUS
10
94.9072
20
-54.0201
11
94.8358
21
-54.1629
0
LINE
8
BLACK
6
CONTINUOUS
10
94.8358
20
-54.1629
11
94.7643
21
-54.2343
0
LINE
8
BLACK
6
CONTINUOUS
10
94.7643
20
-54.2343
11
94.6215
21
-54.3058
0
LINE
8
BLACK
6
CONTINUOUS
10
94.6215
20
-54.3058
11
94.3358
21
-54.3058
0
LINE
8
BLACK
6
CONTINUOUS
10
94.3358
20
-54.3058
11
94.1929
21
-54.2343
0
LINE
8
BLACK
6
CONTINUOUS
10
95.7643
20
-54.3058
11
95.6215
21
-54.2343
0
LINE
8
BLACK
6
CONTINUOUS
10
95.6215
20
-54.2343
11
95.5501
21
-54.1629
0
LINE
8
BLACK
6
CONTINUOUS
10
95.5501
20
-54.1629
11
95.4786
21
-54.0201
0
LINE
8
BLACK
6
CONTINUOUS
10
95.4786
20
-54.0201
11
95.4786
21
-53.5915
0
LINE
8
BLACK
6
CONTINUOUS
10
95.4786
20
-53.5915
11
95.5501
21
-53.4486
0
LINE
8
BLACK
6
CONTINUOUS
10
95.5501
20
-53.4486
11
95.6215
21
-53.3772
0
LINE
8
BLACK
6
CONTINUOUS
10
95.6215
20
-53.3772
11
95.7643
21
-53.3058
0
LINE
8
BLACK
6
CONTINUOUS
10
95.7643
20
-53.3058
11
95.9786
21
-53.3058
0
LINE
8
BLACK
6
CONTINUOUS
10
95.9786
20
-53.3058
11
96.1215
21
-53.3772
0
LINE
8
BLACK
6
CONTINUOUS
10
96.1215
20
-53.3772
11
96.1929
21
-53.4486
0
LINE
8
BLACK
6
CONTINUOUS
10
96.1929
20
-53.4486
11
96.2643
21
-53.5915
0
LINE
8
BLACK
6
CONTINUOUS
10
96.2643
20
-53.5915
11
96.2643
21
-54.0201
0
LINE
8
BLACK
6
CONTINUOUS
10
96.2643
20
-54.0201
11
96.1929
21
-54.1629
0
LINE
8
BLACK
6
CONTINUOUS
10
96.1929
20
-54.1629
11
96.1215
21
-54.2343
0
LINE
8
BLACK
6
CONTINUOUS
10
96.1215
20
-54.2343
11
95.9786
21
-54.3058
0
LINE
8
BLACK
6
CONTINUOUS
10
95.9786
20
-54.3058
11
95.7643
21
-54.3058
0
LINE
8
BLACK
6
CONTINUOUS
10
96.9072
20
-53.3058
11
96.9072
21
-54.3058
0
LINE
8
BLACK
6
CONTINUOUS
10
96.9072
20
-53.4486
11
96.9786
21
-53.3772
0
LINE
8
BLACK
6
CONTINUOUS
10
96.9786
20
-53.3772
11
97.1215
21
-53.3058
0
LINE
8
BLACK
6
CONTINUOUS
10
97.1215
20
-53.3058
11
97.3358
21
-53.3058
0
LINE
8
BLACK
6
CONTINUOUS
10
97.3358
20
-53.3058
11
97.4786
21
-53.3772
0
LINE
8
BLACK
6
CONTINUOUS
10
97.4786
20
-53.3772
11
97.5501
21
-53.5201
0
LINE
8
BLACK
6
CONTINUOUS
10
97.5501
20
-53.5201
11
97.5501
21
-54.3058
0
LINE
8
BLACK
6
CONTINUOUS
10
98.1929
20
-54.2343
11
98.3358
21
-54.3058
0
LINE
8
BLACK
6
CONTINUOUS
10
98.3358
20
-54.3058
11
98.6215
21
-54.3058
0
LINE
8
BLACK
6
CONTINUOUS
10
98.6215
20
-54.3058
11
98.7643
21
-54.2343
0
LINE
8
BLACK
6
CONTINUOUS
10
98.7643
20
-54.2343
11
98.8358
21
-54.0915
0
LINE
8
BLACK
6
CONTINUOUS
10
98.8358
20
-54.0915
11
98.8358
21
-54.0201
0
LINE
8
BLACK
6
CONTINUOUS
10
98.8358
20
-54.0201
11
98.7643
21
-53.8772
0
LINE
8
BLACK
6
CONTINUOUS
10
98.7643
20
-53.8772
11
98.6215
21
-53.8058
0
LINE
8
BLACK
6
CONTINUOUS
10
98.6215
20
-53.8058
11
98.4072
21
-53.8058
0
LINE
8
BLACK
6
CONTINUOUS
10
98.4072
20
-53.8058
11
98.2643
21
-53.7343
0
LINE
8
BLACK
6
CONTINUOUS
10
98.2643
20
-53.7343
11
98.1929
21
-53.5915
0
LINE
8
BLACK
6
CONTINUOUS
10
98.1929
20
-53.5915
11
98.1929
21
-53.5201
0
LINE
8
BLACK
6
CONTINUOUS
10
98.1929
20
-53.5201
11
98.2643
21
-53.3772
0
LINE
8
BLACK
6
CONTINUOUS
10
98.2643
20
-53.3772
11
98.4072
21
-53.3058
0
LINE
8
BLACK
6
CONTINUOUS
10
98.4072
20
-53.3058
11
98.6215
21
-53.3058
0
LINE
8
BLACK
6
CONTINUOUS
10
98.6215
20
-53.3058
11
98.7643
21
-53.3772
0
LINE
8
BLACK
6
CONTINUOUS
10
100.121
20
-54.3058
11
100.121
21
-53.5201
0
LINE
8
BLACK
6
CONTINUOUS
10
100.121
20
-53.5201
11
100.05
21
-53.3772
0
LINE
8
BLACK
6
CONTINUOUS
10
100.05
20
-53.3772
11
99.9072
21
-53.3058
0
LINE
8
BLACK
6
CONTINUOUS
10
99.9072
20
-53.3058
11
99.6215
21
-53.3058
0
LINE
8
BLACK
6
CONTINUOUS
10
99.6215
20
-53.3058
11
99.4786
21
-53.3772
0
LINE
8
BLACK
6
CONTINUOUS
10
100.121
20
-54.2343
11
99.9786
21
-54.3058
0
LINE
8
BLACK
6
CONTINUOUS
10
99.9786
20
-54.3058
11
99.6215
21
-54.3058
0
LINE
8
BLACK
6
CONTINUOUS
10
99.6215
20
-54.3058
11
99.4786
21
-54.2343
0
LINE
8
BLACK
6
CONTINUOUS
10
99.4786
20
-54.2343
11
99.4072
21
-54.0915
0
LINE
8
BLACK
6
CONTINUOUS
10
99.4072
20
-54.0915
11
99.4072
21
-53.9486
0
LINE
8
BLACK
6
CONTINUOUS
10
99.4072
20
-53.9486
11
99.4786
21
-53.8058
0
LINE
8
BLACK
6
CONTINUOUS
10
99.4786
20
-53.8058
11
99.6215
21
-53.7343
0
LINE
8
BLACK
6
CONTINUOUS
10
99.6215
20
-53.7343
11
99.9786
21
-53.7343
0
LINE
8
BLACK
6
CONTINUOUS
10
99.9786
20
-53.7343
11
100.121
21
-53.6629
0
LINE
8
BLACK
6
CONTINUOUS
10
100.836
20
-54.3058
11
100.836
21
-53.3058
0
LINE
8
BLACK
6
CONTINUOUS
10
100.836
20
-52.8058
11
100.764
21
-52.8772
0
LINE
8
BLACK
6
CONTINUOUS
10
100.764
20
-52.8772
11
100.836
21
-52.9486
0
LINE
8
BLACK
6
CONTINUOUS
10
100.836
20
-52.9486
11
100.907
21
-52.8772
0
LINE
8
BLACK
6
CONTINUOUS
10
100.907
20
-52.8772
11
100.836
21
-52.8058
0
LINE
8
BLACK
6
CONTINUOUS
10
100.836
20
-52.8058
11
100.836
21
-52.9486
0
LINE
8
BLACK
6
CONTINUOUS
10
101.55
20
-54.1629
11
101.621
21
-54.2343
0
LINE
8
BLACK
6
CONTINUOUS
10
101.621
20
-54.2343
11
101.55
21
-54.3058
0
LINE
8
BLACK
6
CONTINUOUS
10
101.55
20
-54.3058
11
101.479
21
-54.2343
0
LINE
8
BLACK
6
CONTINUOUS
10
101.479
20
-54.2343
11
101.55
21
-54.1629
0
LINE
8
BLACK
6
CONTINUOUS
10
101.55
20
-54.1629
11
101.55
21
-54.3058
0
LINE
8
BLACK
6
CONTINUOUS
10
102.264
20
-54.3058
11
102.264
21
-52.8058
0
LINE
8
BLACK
6
CONTINUOUS
10
102.407
20
-53.7343
11
102.836
21
-54.3058
0
LINE
8
BLACK
6
CONTINUOUS
10
102.836
20
-53.3058
11
102.264
21
-53.8772
0
LINE
8
BLACK
6
CONTINUOUS
10
103.479
20
-54.3058
11
103.479
21
-53.3058
0
LINE
8
BLACK
6
CONTINUOUS
10
103.479
20
-52.8058
11
103.407
21
-52.8772
0
LINE
8
BLACK
6
CONTINUOUS
10
103.407
20
-52.8772
11
103.479
21
-52.9486
0
LINE
8
BLACK
6
CONTINUOUS
10
103.479
20
-52.9486
11
103.55
21
-52.8772
0
LINE
8
BLACK
6
CONTINUOUS
10
103.55
20
-52.8772
11
103.479
21
-52.8058
0
LINE
8
BLACK
6
CONTINUOUS
10
103.479
20
-52.8058
11
103.479
21
-52.9486
0
LINE
8
BLACK
6
CONTINUOUS
10
104.836
20
-54.2343
11
104.693
21
-54.3058
0
LINE
8
BLACK
6
CONTINUOUS
10
104.693
20
-54.3058
11
104.407
21
-54.3058
0
LINE
8
BLACK
6
CONTINUOUS
10
104.407
20
-54.3058
11
104.264
21
-54.2343
0
LINE
8
BLACK
6
CONTINUOUS
10
104.264
20
-54.2343
11
104.193
21
-54.1629
0
LINE
8
BLACK
6
CONTINUOUS
10
104.193
20
-54.1629
11
104.121
21
-54.0201
0
LINE
8
BLACK
6
CONTINUOUS
10
104.121
20
-54.0201
11
104.121
21
-53.5915
0
LINE
8
BLACK
6
CONTINUOUS
10
104.121
20
-53.5915
11
104.193
21
-53.4486
0
LINE
8
BLACK
6
CONTINUOUS
10
104.193
20
-53.4486
11
104.264
21
-53.3772
0
LINE
8
BLACK
6
CONTINUOUS
10
104.264
20
-53.3772
11
104.407
21
-53.3058
0
LINE
8
BLACK
6
CONTINUOUS
10
104.407
20
-53.3058
11
104.693
21
-53.3058
0
LINE
8
BLACK
6
CONTINUOUS
10
104.693
20
-53.3058
11
104.836
21
-53.3772
0
LINE
8
BLACK
6
CONTINUOUS
10
106.121
20
-54.3058
11
106.121
21
-53.5201
0
LINE
8
BLACK
6
CONTINUOUS
10
106.121
20
-53.5201
11
106.05
21
-53.3772
0
LINE
8
BLACK
6
CONTINUOUS
10
106.05
20
-53.3772
11
105.907
21
-53.3058
0
LINE
8
BLACK
6
CONTINUOUS
10
105.907
20
-53.3058
11
105.621
21
-53.3058
0
LINE
8
BLACK
6
CONTINUOUS
10
105.621
20
-53.3058
11
105.479
21
-53.3772
0
LINE
8
BLACK
6
CONTINUOUS
10
106.121
20
-54.2343
11
105.979
21
-54.3058
0
LINE
8
BLACK
6
CONTINUOUS
10
105.979
20
-54.3058
11
105.621
21
-54.3058
0
LINE
8
BLACK
6
CONTINUOUS
10
105.621
20
-54.3058
11
105.479
21
-54.2343
0
LINE
8
BLACK
6
CONTINUOUS
10
105.479
20
-54.2343
11
105.407
21
-54.0915
0
LINE
8
BLACK
6
CONTINUOUS
10
105.407
20
-54.0915
11
105.407
21
-53.9486
0
LINE
8
BLACK
6
CONTINUOUS
10
105.407
20
-53.9486
11
105.479
21
-53.8058
0
LINE
8
BLACK
6
CONTINUOUS
10
105.479
20
-53.8058
11
105.621
21
-53.7343
0
LINE
8
BLACK
6
CONTINUOUS
10
105.621
20
-53.7343
11
105.979
21
-53.7343
0
LINE
8
BLACK
6
CONTINUOUS
10
105.979
20
-53.7343
11
106.121
21
-53.6629
0
LINE
8
BLACK
6
CONTINUOUS
10
107.479
20
-54.3058
11
107.479
21
-52.8058
0
LINE
8
BLACK
6
CONTINUOUS
10
107.479
20
-54.2343
11
107.336
21
-54.3058
0
LINE
8
BLACK
6
CONTINUOUS
10
107.336
20
-54.3058
11
107.05
21
-54.3058
0
LINE
8
BLACK
6
CONTINUOUS
10
107.05
20
-54.3058
11
106.907
21
-54.2343
0
LINE
8
BLACK
6
CONTINUOUS
10
106.907
20
-54.2343
11
106.836
21
-54.1629
0
LINE
8
BLACK
6
CONTINUOUS
10
106.836
20
-54.1629
11
106.764
21
-54.0201
0
LINE
8
BLACK
6
CONTINUOUS
10
106.764
20
-54.0201
11
106.764
21
-53.5915
0
LINE
8
BLACK
6
CONTINUOUS
10
106.764
20
-53.5915
11
106.836
21
-53.4486
0
LINE
8
BLACK
6
CONTINUOUS
10
106.836
20
-53.4486
11
106.907
21
-53.3772
0
LINE
8
BLACK
6
CONTINUOUS
10
106.907
20
-53.3772
11
107.05
21
-53.3058
0
LINE
8
BLACK
6
CONTINUOUS
10
107.05
20
-53.3058
11
107.336
21
-53.3058
0
LINE
8
BLACK
6
CONTINUOUS
10
107.336
20
-53.3058
11
107.479
21
-53.3772
0
LINE
8
BLACK
6
CONTINUOUS
10
107.836
20
-54.4486
11
108.979
21
-54.4486
0
LINE
8
BLACK
6
CONTINUOUS
10
109.336
20
-53.3058
11
109.336
21
-54.8058
0
LINE
8
BLACK
6
CONTINUOUS
10
109.336
20
-53.3772
11
109.479
21
-53.3058
0
LINE
8
BLACK
6
CONTINUOUS
10
109.479
20
-53.3058
11
109.764
21
-53.3058
0
LINE
8
BLACK
6
CONTINUOUS
10
109.764
20
-53.3058
11
109.907
21
-53.3772
0
LINE
8
BLACK
6
CONTINUOUS
10
109.907
20
-53.3772
11
109.979
21
-53.4486
0
LINE
8
BLACK
6
CONTINUOUS
10
109.979
20
-53.4486
11
110.05
21
-53.5915
0
LINE
8
BLACK
6
CONTINUOUS
10
110.05
20
-53.5915
11
110.05
21
-54.0201
0
LINE
8
BLACK
6
CONTINUOUS
10
110.05
20
-54.0201
11
109.979
21
-54.1629
0
LINE
8
BLACK
6
CONTINUOUS
10
109.979
20
-54.1629
11
109.907
21
-54.2343
0
LINE
8
BLACK
6
CONTINUOUS
10
109.907
20
-54.2343
11
109.764
21
-54.3058
0
LINE
8
BLACK
6
CONTINUOUS
10
109.764
20
-54.3058
11
109.479
21
-54.3058
0
LINE
8
BLACK
6
CONTINUOUS
10
109.479
20
-54.3058
11
109.336
21
-54.2343
0
LINE
8
BLACK
6
CONTINUOUS
10
111.336
20
-54.2343
11
111.193
21
-54.3058
0
LINE
8
BLACK
6
CONTINUOUS
10
111.193
20
-54.3058
11
110.907
21
-54.3058
0
LINE
8
BLACK
6
CONTINUOUS
10
110.907
20
-54.3058
11
110.764
21
-54.2343
0
LINE
8
BLACK
6
CONTINUOUS
10
110.764
20
-54.2343
11
110.693
21
-54.1629
0
LINE
8
BLACK
6
CONTINUOUS
10
110.693
20
-54.1629
11
110.621
21
-54.0201
0
LINE
8
BLACK
6
CONTINUOUS
10
110.621
20
-54.0201
11
110.621
21
-53.5915
0
LINE
8
BLACK
6
CONTINUOUS
10
110.621
20
-53.5915
11
110.693
21
-53.4486
0
LINE
8
BLACK
6
CONTINUOUS
10
110.693
20
-53.4486
11
110.764
21
-53.3772
0
LINE
8
BLACK
6
CONTINUOUS
10
110.764
20
-53.3772
11
110.907
21
-53.3058
0
LINE
8
BLACK
6
CONTINUOUS
10
110.907
20
-53.3058
11
111.193
21
-53.3058
0
LINE
8
BLACK
6
CONTINUOUS
10
111.193
20
-53.3058
11
111.336
21
-53.3772
0
LINE
8
BLACK
6
CONTINUOUS
10
111.979
20
-54.3058
11
111.979
21
-52.8058
0
LINE
8
BLACK
6
CONTINUOUS
10
111.979
20
-53.3772
11
112.121
21
-53.3058
0
LINE
8
BLACK
6
CONTINUOUS
10
112.121
20
-53.3058
11
112.407
21
-53.3058
0
LINE
8
BLACK
6
CONTINUOUS
10
112.407
20
-53.3058
11
112.55
21
-53.3772
0
LINE
8
BLACK
6
CONTINUOUS
10
112.55
20
-53.3772
11
112.621
21
-53.4486
0
LINE
8
BLACK
6
CONTINUOUS
10
112.621
20
-53.4486
11
112.693
21
-53.5915
0
LINE
8
BLACK
6
CONTINUOUS
10
112.693
20
-53.5915
11
112.693
21
-54.0201
0
LINE
8
BLACK
6
CONTINUOUS
10
112.693
20
-54.0201
11
112.621
21
-54.1629
0
LINE
8
BLACK
6
CONTINUOUS
10
112.621
20
-54.1629
11
112.55
21
-54.2343
0
LINE
8
BLACK
6
CONTINUOUS
10
112.55
20
-54.2343
11
112.407
21
-54.3058
0
LINE
8
BLACK
6
CONTINUOUS
10
112.407
20
-54.3058
11
112.121
21
-54.3058
0
LINE
8
BLACK
6
CONTINUOUS
10
112.121
20
-54.3058
11
111.979
21
-54.2343
0
LINE
8
BLACK
6
CONTINUOUS
10
86.8322
20
-49.4272
11
194.832
21
-49.4272
0
LINE
8
BLACK
6
CONTINUOUS
10
88.1929
20
-51.5343
11
88.4072
21
-51.6058
0
LINE
8
BLACK
6
CONTINUOUS
10
88.4072
20
-51.6058
11
88.7643
21
-51.6058
0
LINE
8
BLACK
6
CONTINUOUS
10
88.7643
20
-51.6058
11
88.9072
21
-51.5343
0
LINE
8
BLACK
6
CONTINUOUS
10
88.9072
20
-51.5343
11
88.9786
21
-51.4629
0
LINE
8
BLACK
6
CONTINUOUS
10
88.9786
20
-51.4629
11
89.0501
21
-51.3201
0
LINE
8
BLACK
6
CONTINUOUS
10
89.0501
20
-51.3201
11
89.0501
21
-51.1772
0
LINE
8
BLACK
6
CONTINUOUS
10
89.0501
20
-51.1772
11
88.9786
21
-51.0343
0
LINE
8
BLACK
6
CONTINUOUS
10
88.9786
20
-51.0343
11
88.9072
21
-50.9629
0
LINE
8
BLACK
6
CONTINUOUS
10
88.9072
20
-50.9629
11
88.7643
21
-50.8915
0
LINE
8
BLACK
6
CONTINUOUS
10
88.7643
20
-50.8915
11
88.4786
21
-50.8201
0
LINE
8
BLACK
6
CONTINUOUS
10
88.4786
20
-50.8201
11
88.3358
21
-50.7486
0
LINE
8
BLACK
6
CONTINUOUS
10
88.3358
20
-50.7486
11
88.2643
21
-50.6772
0
LINE
8
BLACK
6
CONTINUOUS
10
88.2643
20
-50.6772
11
88.1929
21
-50.5343
0
LINE
8
BLACK
6
CONTINUOUS
10
88.1929
20
-50.5343
11
88.1929
21
-50.3915
0
LINE
8
BLACK
6
CONTINUOUS
10
88.1929
20
-50.3915
11
88.2643
21
-50.2486
0
LINE
8
BLACK
6
CONTINUOUS
10
88.2643
20
-50.2486
11
88.3358
21
-50.1772
0
LINE
8
BLACK
6
CONTINUOUS
10
88.3358
20
-50.1772
11
88.4786
21
-50.1058
0
LINE
8
BLACK
6
CONTINUOUS
10
88.4786
20
-50.1058
11
88.8358
21
-50.1058
0
LINE
8
BLACK
6
CONTINUOUS
10
88.8358
20
-50.1058
11
89.0501
21
-50.1772
0
LINE
8
BLACK
6
CONTINUOUS
10
89.6929
20
-51.6058
11
89.6929
21
-50.1058
0
LINE
8
BLACK
6
CONTINUOUS
10
90.3358
20
-51.6058
11
90.3358
21
-50.8201
0
LINE
8
BLACK
6
CONTINUOUS
10
90.3358
20
-50.8201
11
90.2643
21
-50.6772
0
LINE
8
BLACK
6
CONTINUOUS
10
90.2643
20
-50.6772
11
90.1215
21
-50.6058
0
LINE
8
BLACK
6
CONTINUOUS
10
90.1215
20
-50.6058
11
89.9072
21
-50.6058
0
LINE
8
BLACK
6
CONTINUOUS
10
89.9072
20
-50.6058
11
89.7643
21
-50.6772
0
LINE
8
BLACK
6
CONTINUOUS
10
89.7643
20
-50.6772
11
89.6929
21
-50.7486
0
LINE
8
BLACK
6
CONTINUOUS
10
91.6215
20
-51.5343
11
91.4786
21
-51.6058
0
LINE
8
BLACK
6
CONTINUOUS
10
91.4786
20
-51.6058
11
91.1929
21
-51.6058
0
LINE
8
BLACK
6
CONTINUOUS
10
91.1929
20
-51.6058
11
91.0501
21
-51.5343
0
LINE
8
BLACK
6
CONTINUOUS
10
91.0501
20
-51.5343
11
90.9786
21
-51.3915
0
LINE
8
BLACK
6
CONTINUOUS
10
90.9786
20
-51.3915
11
90.9786
21
-50.8201
0
LINE
8
BLACK
6
CONTINUOUS
10
90.9786
20
-50.8201
11
91.0501
21
-50.6772
0
LINE
8
BLACK
6
CONTINUOUS
10
91.0501
20
-50.6772
11
91.1929
21
-50.6058
0
LINE
8
BLACK
6
CONTINUOUS
10
91.1929
20
-50.6058
11
91.4786
21
-50.6058
0
LINE
8
BLACK
6
CONTINUOUS
10
91.4786
20
-50.6058
11
91.6215
21
-50.6772
0
LINE
8
BLACK
6
CONTINUOUS
10
91.6215
20
-50.6772
11
91.6929
21
-50.8201
0
LINE
8
BLACK
6
CONTINUOUS
10
91.6929
20
-50.8201
11
91.6929
21
-50.9629
0
LINE
8
BLACK
6
CONTINUOUS
10
91.6929
20
-50.9629
11
90.9786
21
-51.1058
0
LINE
8
BLACK
6
CONTINUOUS
10
92.9072
20
-51.5343
11
92.7643
21
-51.6058
0
LINE
8
BLACK
6
CONTINUOUS
10
92.7643
20
-51.6058
11
92.4786
21
-51.6058
0
LINE
8
BLACK
6
CONTINUOUS
10
92.4786
20
-51.6058
11
92.3358
21
-51.5343
0
LINE
8
BLACK
6
CONTINUOUS
10
92.3358
20
-51.5343
11
92.2643
21
-51.3915
0
LINE
8
BLACK
6
CONTINUOUS
10
92.2643
20
-51.3915
11
92.2643
21
-50.8201
0
LINE
8
BLACK
6
CONTINUOUS
10
92.2643
20
-50.8201
11
92.3358
21
-50.6772
0
LINE
8
BLACK
6
CONTINUOUS
10
92.3358
20
-50.6772
11
92.4786
21
-50.6058
0
LINE
8
BLACK
6
CONTINUOUS
10
92.4786
20
-50.6058
11
92.7643
21
-50.6058
0
LINE
8
BLACK
6
CONTINUOUS
10
92.7643
20
-50.6058
11
92.9072
21
-50.6772
0
LINE
8
BLACK
6
CONTINUOUS
10
92.9072
20
-50.6772
11
92.9786
21
-50.8201
0
LINE
8
BLACK
6
CONTINUOUS
10
92.9786
20
-50.8201
11
92.9786
21
-50.9629
0
LINE
8
BLACK
6
CONTINUOUS
10
92.9786
20
-50.9629
11
92.2643
21
-51.1058
0
LINE
8
BLACK
6
CONTINUOUS
10
93.4072
20
-50.6058
11
93.9786
21
-50.6058
0
LINE
8
BLACK
6
CONTINUOUS
10
93.6215
20
-50.1058
11
93.6215
21
-51.3915
0
LINE
8
BLACK
6
CONTINUOUS
10
93.6215
20
-51.3915
11
93.6929
21
-51.5343
0
LINE
8
BLACK
6
CONTINUOUS
10
93.6929
20
-51.5343
11
93.8358
21
-51.6058
0
LINE
8
BLACK
6
CONTINUOUS
10
93.8358
20
-51.6058
11
93.9786
21
-51.6058
0
LINE
8
BLACK
6
CONTINUOUS
10
94.4786
20
-51.4629
11
94.5501
21
-51.5343
0
LINE
8
BLACK
6
CONTINUOUS
10
94.5501
20
-51.5343
11
94.4786
21
-51.6058
0
LINE
8
BLACK
6
CONTINUOUS
10
94.4786
20
-51.6058
11
94.4072
21
-51.5343
0
LINE
8
BLACK
6
CONTINUOUS
10
94.4072
20
-51.5343
11
94.4786
21
-51.4629
0
LINE
8
BLACK
6
CONTINUOUS
10
94.4786
20
-51.4629
11
94.4786
21
-51.6058
0
LINE
8
BLACK
6
CONTINUOUS
10
94.4786
20
-50.6772
11
94.5501
21
-50.7486
0
LINE
8
BLACK
6
CONTINUOUS
10
94.5501
20
-50.7486
11
94.4786
21
-50.8201
0
LINE
8
BLACK
6
CONTINUOUS
10
94.4786
20
-50.8201
11
94.4072
21
-50.7486
0
LINE
8
BLACK
6
CONTINUOUS
10
94.4072
20
-50.7486
11
94.4786
21
-50.6772
0
LINE
8
BLACK
6
CONTINUOUS
10
94.4786
20
-50.6772
11
94.4786
21
-50.8201
0
LINE
8
BLACK
6
CONTINUOUS
10
106.832
20
-59.4272
11
106.832
21
-62.4272
0
LINE
8
BLACK
6
CONTINUOUS
10
170.832
20
-59.4272
11
170.832
21
-65.9272
0
LINE
8
BLACK
6
CONTINUOUS
10
114.309
20
75.03
11
114.318
21
75.03
0
LINE
8
BLACK
6
CONTINUOUS
10
114.318
20
75.03
11
114.326
21
75.027
0
LINE
8
BLACK
6
CONTINUOUS
10
114.326
20
75.027
11
114.335
21
75.0254
0
LINE
8
BLACK
6
CONTINUOUS
10
114.335
20
75.0254
11
114.342
21
75.021
0
LINE
8
BLACK
6
CONTINUOUS
10
114.342
20
75.021
11
114.351
21
75.0179
0
LINE
8
BLACK
6
CONTINUOUS
10
114.351
20
75.0179
11
114.358
21
75.0122
0
LINE
8
BLACK
6
CONTINUOUS
10
114.358
20
75.0122
11
114.365
21
75.0078
0
LINE
8
BLACK
6
CONTINUOUS
10
114.365
20
75.0078
11
114.371
21
75.001
0
LINE
8
BLACK
6
CONTINUOUS
10
114.371
20
75.001
11
114.378
21
74.9953
0
LINE
8
BLACK
6
CONTINUOUS
10
114.378
20
74.9953
11
114.382
21
74.9876
0
LINE
8
BLACK
6
CONTINUOUS
10
114.382
20
74.9876
11
114.388
21
74.9808
0
LINE
8
BLACK
6
CONTINUOUS
10
114.388
20
74.9808
11
114.391
21
74.9724
0
LINE
8
BLACK
6
CONTINUOUS
10
114.391
20
74.9724
11
114.395
21
74.9647
0
LINE
8
BLACK
6
CONTINUOUS
10
114.395
20
74.9647
11
114.397
21
74.956
0
LINE
8
BLACK
6
CONTINUOUS
10
114.397
20
74.956
11
114.4
21
74.9476
0
LINE
8
BLACK
6
CONTINUOUS
10
114.4
20
74.9476
11
114.4
21
74.9388
0
LINE
8
BLACK
6
CONTINUOUS
10
114.4
20
74.9388
11
114.4
21
74.9387
0
LINE
8
BLACK
6
CONTINUOUS
10
114.4
20
74.9387
11
114.4
21
64.87
0
LINE
8
BLACK
6
CONTINUOUS
10
114.4
20
64.87
11
133.359
21
64.87
0
LINE
8
BLACK
6
CONTINUOUS
10
133.359
20
64.87
11
133.359
21
64.87
0
LINE
8
BLACK
6
CONTINUOUS
10
133.359
20
64.87
11
133.368
21
64.87
0
LINE
8
BLACK
6
CONTINUOUS
10
133.368
20
64.87
11
133.376
21
64.867
0
LINE
8
BLACK
6
CONTINUOUS
10
133.376
20
64.867
11
133.385
21
64.8654
0
LINE
8
BLACK
6
CONTINUOUS
10
133.385
20
64.8654
11
133.392
21
64.861
0
LINE
8
BLACK
6
CONTINUOUS
10
133.392
20
64.861
11
133.401
21
64.8579
0
LINE
8
BLACK
6
CONTINUOUS
10
133.401
20
64.8579
11
133.408
21
64.8522
0
LINE
8
BLACK
6
CONTINUOUS
10
133.408
20
64.8522
11
133.415
21
64.8478
0
LINE
8
BLACK
6
CONTINUOUS
10
133.415
20
64.8478
11
133.421
21
64.841
0
LINE
8
BLACK
6
CONTINUOUS
10
133.421
20
64.841
11
133.428
21
64.8353
0
LINE
8
BLACK
6
CONTINUOUS
10
133.428
20
64.8353
11
133.432
21
64.8276
0
LINE
8
BLACK
6
CONTINUOUS
10
133.432
20
64.8276
11
133.438
21
64.8208
0
LINE
8
BLACK
6
CONTINUOUS
10
133.438
20
64.8208
11
133.441
21
64.8124
0
LINE
8
BLACK
6
CONTINUOUS
10
133.441
20
64.8124
11
133.445
21
64.8047
0
LINE
8
BLACK
6
CONTINUOUS
10
133.445
20
64.8047
11
133.447
21
64.796
0
LINE
8
BLACK
6
CONTINUOUS
10
133.447
20
64.796
11
133.45
21
64.7876
0
LINE
8
BLACK
6
CONTINUOUS
10
133.45
20
64.7876
11
133.45
21
64.7788
0
LINE
8
BLACK
6
CONTINUOUS
10
133.45
20
64.7788
11
133.45
21
64.7787
0
LINE
8
BLACK
6
CONTINUOUS
10
133.45
20
64.7787
11
133.45
21
-2.54874
0
LINE
8
BLACK
6
CONTINUOUS
10
133.45
20
-2.54874
11
133.445
21
-2.57473
0
LINE
8
BLACK
6
CONTINUOUS
10
133.445
20
-2.57473
11
133.428
21
-2.60527
0
LINE
8
BLACK
6
CONTINUOUS
10
133.428
20
-2.60527
11
133.401
21
-2.62794
0
LINE
8
BLACK
6
CONTINUOUS
10
133.401
20
-2.62794
11
133.368
21
-2.64
0
LINE
8
BLACK
6
CONTINUOUS
10
133.368
20
-2.64
11
133.356
21
-2.64
0
LINE
8
BLACK
6
CONTINUOUS
10
133.356
20
-2.64
11
119.435
21
-16.5607
0
LINE
8
BLACK
6
CONTINUOUS
10
119.435
20
-16.5607
11
119.429
21
-16.5683
0
LINE
8
BLACK
6
CONTINUOUS
10
119.429
20
-16.5683
11
119.42
21
-16.5733
0
LINE
8
BLACK
6
CONTINUOUS
10
119.42
20
-16.5733
11
119.412
21
-16.579
0
LINE
8
BLACK
6
CONTINUOUS
10
119.412
20
-16.579
11
119.409
21
-16.5799
0
LINE
8
BLACK
6
CONTINUOUS
10
119.409
20
-16.5799
11
119.406
21
-16.5816
0
LINE
8
BLACK
6
CONTINUOUS
10
119.406
20
-16.5816
11
119.396
21
-16.5833
0
LINE
8
BLACK
6
CONTINUOUS
10
119.396
20
-16.5833
11
119.387
21
-16.5859
0
LINE
8
BLACK
6
CONTINUOUS
10
119.387
20
-16.5859
11
119.377
21
-16.585
0
LINE
8
BLACK
6
CONTINUOUS
10
119.377
20
-16.585
11
74.9333
21
-16.585
0
LINE
8
BLACK
6
CONTINUOUS
10
74.9333
20
-16.585
11
74.9234
21
-16.5859
0
LINE
8
BLACK
6
CONTINUOUS
10
74.9234
20
-16.5859
11
74.9138
21
-16.5833
0
LINE
8
BLACK
6
CONTINUOUS
10
74.9138
20
-16.5833
11
74.904
21
-16.5816
0
LINE
8
BLACK
6
CONTINUOUS
10
74.904
20
-16.5816
11
74.901
21
-16.5799
0
LINE
8
BLACK
6
CONTINUOUS
10
74.901
20
-16.5799
11
74.8978
21
-16.579
0
LINE
8
BLACK
6
CONTINUOUS
10
74.8978
20
-16.579
11
74.8897
21
-16.5733
0
LINE
8
BLACK
6
CONTINUOUS
10
74.8897
20
-16.5733
11
74.881
21
-16.5683
0
LINE
8
BLACK
6
CONTINUOUS
10
74.881
20
-16.5683
11
74.8747
21
-16.5607
0
LINE
8
BLACK
6
CONTINUOUS
10
74.8747
20
-16.5607
11
58.3889
21
-0.075
0
LINE
8
BLACK
6
CONTINUOUS
10
58.3889
20
-0.075
11
-0.006556
21
-0.075
0
LINE
8
BLACK
6
CONTINUOUS
10
-0.006556
20
-0.075
11
-0.006562
21
-0.074999
0
LINE
8
BLACK
6
CONTINUOUS
10
-0.006562
20
-0.074999
11
-0.013223
21
-0.074999
0
LINE
8
BLACK
6
CONTINUOUS
10
-0.013223
20
-0.074999
11
-0.019484
21
-0.07272
0
LINE
8
BLACK
6
CONTINUOUS
10
-0.019484
20
-0.07272
11
-0.026047
21
-0.071563
0
LINE
8
BLACK
6
CONTINUOUS
10
-0.026047
20
-0.071563
11
-0.031818
21
-0.068231
0
LINE
8
BLACK
6
CONTINUOUS
10
-0.031818
20
-0.068231
11
-0.038077
21
-0.065953
0
LINE
8
BLACK
6
CONTINUOUS
10
-0.038077
20
-0.065953
11
-0.043179
21
-0.061672
0
LINE
8
BLACK
6
CONTINUOUS
10
-0.043179
20
-0.061672
11
-0.048952
21
-0.058339
0
LINE
8
BLACK
6
CONTINUOUS
10
-0.048952
20
-0.058339
11
-0.053237
21
-0.053232
0
LINE
8
BLACK
6
CONTINUOUS
10
-0.053237
20
-0.053232
11
-0.058338
21
-0.048952
0
LINE
8
BLACK
6
CONTINUOUS
10
-0.058338
20
-0.048952
11
-0.061667
21
-0.043186
0
LINE
8
BLACK
6
CONTINUOUS
10
-0.061667
20
-0.043186
11
-0.065953
21
-0.038078
0
LINE
8
BLACK
6
CONTINUOUS
10
-0.065953
20
-0.038078
11
-0.068234
21
-0.031812
0
LINE
8
BLACK
6
CONTINUOUS
10
-0.068234
20
-0.031812
11
-0.071562
21
-0.026047
0
LINE
8
BLACK
6
CONTINUOUS
10
-0.071562
20
-0.026047
11
-0.072718
21
-0.019491
0
LINE
8
BLACK
6
CONTINUOUS
10
-0.072718
20
-0.019491
11
-0.074999
21
-0.013224
0
LINE
8
BLACK
6
CONTINUOUS
10
-0.074999
20
-0.013224
11
-0.074999
21
0.013224
0
LINE
8
BLACK
6
CONTINUOUS
10
-0.074999
20
0.013224
11
-0.075
21
8.85893
0
LINE
8
BLACK
6
CONTINUOUS
10
-0.075
20
8.85893
11
-10.1661
21
18.95
0
LINE
8
BLACK
6
CONTINUOUS
10
-10.1661
20
18.95
11
-10.1776
21
18.95
0
LINE
8
BLACK
6
CONTINUOUS
10
-10.1776
20
18.95
11
-10.2108
21
18.9621
0
LINE
8
BLACK
6
CONTINUOUS
10
-10.2108
20
18.9621
11
-10.2378
21
18.9847
0
LINE
8
BLACK
6
CONTINUOUS
10
-10.2378
20
18.9847
11
-10.2554
21
19.0153
0
LINE
8
BLACK
6
CONTINUOUS
10
-10.2554
20
19.0153
11
-10.26
21
19.0413
0
LINE
8
BLACK
6
CONTINUOUS
10
-10.26
20
19.0413
11
-10.26
21
39.3787
0
LINE
8
BLACK
6
CONTINUOUS
10
-10.26
20
39.3787
11
-10.2554
21
39.4047
0
LINE
8
BLACK
6
CONTINUOUS
10
-10.2554
20
39.4047
11
-10.2378
21
39.4353
0
LINE
8
BLACK
6
CONTINUOUS
10
-10.2378
20
39.4353
11
-10.2108
21
39.4579
0
LINE
8
BLACK
6
CONTINUOUS
10
-10.2108
20
39.4579
11
-10.1776
21
39.47
0
LINE
8
BLACK
6
CONTINUOUS
10
-10.1776
20
39.47
11
-10.1661
21
39.47
0
LINE
8
BLACK
6
CONTINUOUS
10
-10.1661
20
39.47
11
5.005
21
54.6411
0
LINE
8
BLACK
6
CONTINUOUS
10
5.005
20
54.6411
11
5.005
21
58.4266
0
LINE
8
BLACK
6
CONTINUOUS
10
5.005
20
58.4266
11
5.005
21
58.4332
0
LINE
8
BLACK
6
CONTINUOUS
10
5.005
20
58.4332
11
5.00728
21
58.4395
0
LINE
8
BLACK
6
CONTINUOUS
10
5.00728
20
58.4395
11
5.00844
21
58.446
0
LINE
8
BLACK
6
CONTINUOUS
10
5.00844
20
58.446
11
5.01177
21
58.4518
0
LINE
8
BLACK
6
CONTINUOUS
10
5.01177
20
58.4518
11
5.01405
21
58.4581
0
LINE
8
BLACK
6
CONTINUOUS
10
5.01405
20
58.4581
11
5.01833
21
58.4632
0
LINE
8
BLACK
6
CONTINUOUS
10
5.01833
20
58.4632
11
5.02166
21
58.469
0
LINE
8
BLACK
6
CONTINUOUS
10
5.02166
20
58.469
11
5.02676
21
58.4732
0
LINE
8
BLACK
6
CONTINUOUS
10
5.02676
20
58.4732
11
5.03105
21
58.4783
0
LINE
8
BLACK
6
CONTINUOUS
10
5.03105
20
58.4783
11
5.03682
21
58.4817
0
LINE
8
BLACK
6
CONTINUOUS
10
5.03682
20
58.4817
11
5.04192
21
58.486
0
LINE
8
BLACK
6
CONTINUOUS
10
5.04192
20
58.486
11
5.04818
21
58.4882
0
LINE
8
BLACK
6
CONTINUOUS
10
5.04818
20
58.4882
11
5.05395
21
58.4916
0
LINE
8
BLACK
6
CONTINUOUS
10
5.05395
20
58.4916
11
5.06052
21
58.4927
0
LINE
8
BLACK
6
CONTINUOUS
10
5.06052
20
58.4927
11
5.06678
21
58.495
0
LINE
8
BLACK
6
CONTINUOUS
10
5.06678
20
58.495
11
5.07344
21
58.495
0
LINE
8
BLACK
6
CONTINUOUS
10
5.07344
20
58.495
11
5.07344
21
58.495
0
LINE
8
BLACK
6
CONTINUOUS
10
5.07344
20
58.495
11
19.0189
21
58.495
0
LINE
8
BLACK
6
CONTINUOUS
10
19.0189
20
58.495
11
26.57
21
66.0461
0
LINE
8
BLACK
6
CONTINUOUS
10
26.57
20
66.0461
11
26.57
21
66.0576
0
LINE
8
BLACK
6
CONTINUOUS
10
26.57
20
66.0576
11
26.5821
21
66.0908
0
LINE
8
BLACK
6
CONTINUOUS
10
26.5821
20
66.0908
11
26.6047
21
66.1178
0
LINE
8
BLACK
6
CONTINUOUS
10
26.6047
20
66.1178
11
26.6353
21
66.1354
0
LINE
8
BLACK
6
CONTINUOUS
10
26.6353
20
66.1354
11
26.6613
21
66.14
0
LINE
8
BLACK
6
CONTINUOUS
10
26.6613
20
66.14
11
82.45
21
66.14
0
LINE
8
BLACK
6
CONTINUOUS
10
82.45
20
66.14
11
82.45
21
74.9387
0
LINE
8
BLACK
6
CONTINUOUS
10
82.45
20
74.9387
11
82.45
21
74.9476
0
LINE
8
BLACK
6
CONTINUOUS
10
82.45
20
74.9476
11
82.453
21
74.956
0
LINE
8
BLACK
6
CONTINUOUS
10
82.453
20
74.956
11
82.4546
21
74.9647
0
LINE
8
BLACK
6
CONTINUOUS
10
82.4546
20
74.9647
11
82.459
21
74.9724
0
LINE
8
BLACK
6
CONTINUOUS
10
82.459
20
74.9724
11
82.4621
21
74.9808
0
LINE
8
BLACK
6
CONTINUOUS
10
82.4621
20
74.9808
11
82.4678
21
74.9876
0
LINE
8
BLACK
6
CONTINUOUS
10
82.4678
20
74.9876
11
82.4722
21
74.9953
0
LINE
8
BLACK
6
CONTINUOUS
10
82.4722
20
74.9953
11
82.479
21
75.001
0
LINE
8
BLACK
6
CONTINUOUS
10
82.479
20
75.001
11
82.4847
21
75.0078
0
LINE
8
BLACK
6
CONTINUOUS
10
82.4847
20
75.0078
11
82.4924
21
75.0122
0
LINE
8
BLACK
6
CONTINUOUS
10
82.4924
20
75.0122
11
82.4992
21
75.0179
0
LINE
8
BLACK
6
CONTINUOUS
10
82.4992
20
75.0179
11
82.5076
21
75.021
0
LINE
8
BLACK
6
CONTINUOUS
10
82.5076
20
75.021
11
82.5153
21
75.0254
0
LINE
8
BLACK
6
CONTINUOUS
10
82.5153
20
75.0254
11
82.524
21
75.027
0
LINE
8
BLACK
6
CONTINUOUS
10
82.524
20
75.027
11
82.5324
21
75.03
0
LINE
8
BLACK
6
CONTINUOUS
10
82.5324
20
75.03
11
82.5412
21
75.03
0
LINE
8
BLACK
6
CONTINUOUS
10
82.5412
20
75.03
11
82.5413
21
75.03
0
LINE
8
BLACK
6
CONTINUOUS
10
82.5413
20
75.03
11
114.309
21
75.03
0
LINE
8
BLACK
6
CONTINUOUS
10
114.309
20
75.03
11
114.309
21
75.03
0
LINE
8
BLACK
6
CONTINUOUS
10
82.65
20
74.83
11
82.65
21
66.0313
0
LINE
8
BLACK
6
CONTINUOUS
10
82.65
20
66.0313
11
82.65
21
66.0312
0
LINE
8
BLACK
6
CONTINUOUS
10
82.65
20
66.0312
11
82.65
21
66.0224
0
LINE
8
BLACK
6
CONTINUOUS
10
82.65
20
66.0224
11
82.647
21
66.014
0
LINE
8
BLACK
6
CONTINUOUS
10
82.647
20
66.014
11
82.6454
21
66.0053
0
LINE
8
BLACK
6
CONTINUOUS
10
82.6454
20
66.0053
11
82.641
21
65.9976
0
LINE
8
BLACK
6
CONTINUOUS
10
82.641
20
65.9976
11
82.6379
21
65.9892
0
LINE
8
BLACK
6
CONTINUOUS
10
82.6379
20
65.9892
11
82.6322
21
65.9824
0
LINE
8
BLACK
6
CONTINUOUS
10
82.6322
20
65.9824
11
82.6278
21
65.9747
0
LINE
8
BLACK
6
CONTINUOUS
10
82.6278
20
65.9747
11
82.621
21
65.969
0
LINE
8
BLACK
6
CONTINUOUS
10
82.621
20
65.969
11
82.6153
21
65.9622
0
LINE
8
BLACK
6
CONTINUOUS
10
82.6153
20
65.9622
11
82.6076
21
65.9578
0
LINE
8
BLACK
6
CONTINUOUS
10
82.6076
20
65.9578
11
82.6008
21
65.9521
0
LINE
8
BLACK
6
CONTINUOUS
10
82.6008
20
65.9521
11
82.5924
21
65.949
0
LINE
8
BLACK
6
CONTINUOUS
10
82.5924
20
65.949
11
82.5847
21
65.9446
0
LINE
8
BLACK
6
CONTINUOUS
10
82.5847
20
65.9446
11
82.576
21
65.943
0
LINE
8
BLACK
6
CONTINUOUS
10
82.576
20
65.943
11
82.5676
21
65.94
0
LINE
8
BLACK
6
CONTINUOUS
10
82.5676
20
65.94
11
82.5588
21
65.94
0
LINE
8
BLACK
6
CONTINUOUS
10
82.5588
20
65.94
11
82.5587
21
65.94
0
LINE
8
BLACK
6
CONTINUOUS
10
82.5587
20
65.94
11
26.6761
21
65.94
0
LINE
8
BLACK
6
CONTINUOUS
10
26.6761
20
65.94
11
19.1053
21
58.3693
0
LINE
8
BLACK
6
CONTINUOUS
10
19.1053
20
58.3693
11
19.099
21
58.3617
0
LINE
8
BLACK
6
CONTINUOUS
10
19.099
20
58.3617
11
19.0903
21
58.3567
0
LINE
8
BLACK
6
CONTINUOUS
10
19.0903
20
58.3567
11
19.0822
21
58.351
0
LINE
8
BLACK
6
CONTINUOUS
10
19.0822
20
58.351
11
19.079
21
58.3501
0
LINE
8
BLACK
6
CONTINUOUS
10
19.079
20
58.3501
11
19.076
21
58.3484
0
LINE
8
BLACK
6
CONTINUOUS
10
19.076
20
58.3484
11
19.0662
21
58.3467
0
LINE
8
BLACK
6
CONTINUOUS
10
19.0662
20
58.3467
11
19.0566
21
58.3441
0
LINE
8
BLACK
6
CONTINUOUS
10
19.0566
20
58.3441
11
19.0467
21
58.345
0
LINE
8
BLACK
6
CONTINUOUS
10
19.0467
20
58.345
11
5.155
21
58.345
0
LINE
8
BLACK
6
CONTINUOUS
10
5.155
20
58.345
11
5.155
21
54.6133
0
LINE
8
BLACK
6
CONTINUOUS
10
5.155
20
54.6133
11
5.15587
21
54.6034
0
LINE
8
BLACK
6
CONTINUOUS
10
5.15587
20
54.6034
11
5.15329
21
54.5938
0
LINE
8
BLACK
6
CONTINUOUS
10
5.15329
20
54.5938
11
5.15156
21
54.584
0
LINE
8
BLACK
6
CONTINUOUS
10
5.15156
20
54.584
11
5.14989
21
54.581
0
LINE
8
BLACK
6
CONTINUOUS
10
5.14989
20
54.581
11
5.14902
21
54.5778
0
LINE
8
BLACK
6
CONTINUOUS
10
5.14902
20
54.5778
11
5.14331
21
54.5697
0
LINE
8
BLACK
6
CONTINUOUS
10
5.14331
20
54.5697
11
5.13834
21
54.561
0
LINE
8
BLACK
6
CONTINUOUS
10
5.13834
20
54.561
11
5.13073
21
54.5547
0
LINE
8
BLACK
6
CONTINUOUS
10
5.13073
20
54.5547
11
-10.06
21
39.3639
0
LINE
8
BLACK
6
CONTINUOUS
10
-10.06
20
39.3639
11
-10.06
21
19.0561
0
LINE
8
BLACK
6
CONTINUOUS
10
-10.06
20
19.0561
11
0.050728
21
8.94534
0
LINE
8
BLACK
6
CONTINUOUS
10
0.050728
20
8.94534
11
0.058339
21
8.93895
0
LINE
8
BLACK
6
CONTINUOUS
10
0.058339
20
8.93895
11
0.063316
21
8.93033
0
LINE
8
BLACK
6
CONTINUOUS
10
0.063316
20
8.93033
11
0.06902
21
8.92218
0
LINE
8
BLACK
6
CONTINUOUS
10
0.06902
20
8.92218
11
0.069887
21
8.91895
0
LINE
8
BLACK
6
CONTINUOUS
10
0.069887
20
8.91895
11
0.071563
21
8.91605
0
LINE
8
BLACK
6
CONTINUOUS
10
0.071563
20
8.91605
11
0.073291
21
8.90625
0
LINE
8
BLACK
6
CONTINUOUS
10
0.073291
20
8.90625
11
0.075866
21
8.89664
0
LINE
8
BLACK
6
CONTINUOUS
10
0.075866
20
8.89664
11
0.075
21
8.88674
0
LINE
8
BLACK
6
CONTINUOUS
10
0.075
20
8.88674
11
0.075
21
0.075
0
LINE
8
BLACK
6
CONTINUOUS
10
0.075
20
0.075
11
58.4167
21
0.075
0
LINE
8
BLACK
6
CONTINUOUS
10
58.4167
20
0.075
11
58.4266
21
0.075866
0
LINE
8
BLACK
6
CONTINUOUS
10
58.4266
20
0.075866
11
58.4362
21
0.073292
0
LINE
8
BLACK
6
CONTINUOUS
10
58.4362
20
0.073292
11
58.446
21
0.071563
0
LINE
8
BLACK
6
CONTINUOUS
10
58.446
20
0.071563
11
58.449
21
0.069886
0
LINE
8
BLACK
6
CONTINUOUS
10
58.449
20
0.069886
11
58.4522
21
0.06902
0
LINE
8
BLACK
6
CONTINUOUS
10
58.4522
20
0.06902
11
58.4603
21
0.063319
0
LINE
8
BLACK
6
CONTINUOUS
10
58.4603
20
0.063319
11
58.469
21
0.058339
0
LINE
8
BLACK
6
CONTINUOUS
10
58.469
20
0.058339
11
58.4753
21
0.050719
0
LINE
8
BLACK
6
CONTINUOUS
10
58.4753
20
0.050719
11
74.9611
21
-16.435
0
LINE
8
BLACK
6
CONTINUOUS
10
74.9611
20
-16.435
11
119.349
21
-16.435
0
LINE
8
BLACK
6
CONTINUOUS
10
119.349
20
-16.435
11
133.25
21
-2.53393
0
LINE
8
BLACK
6
CONTINUOUS
10
133.25
20
-2.53393
11
133.25
21
64.67
0
LINE
8
BLACK
6
CONTINUOUS
10
133.25
20
64.67
11
114.291
21
64.67
0
LINE
8
BLACK
6
CONTINUOUS
10
114.291
20
64.67
11
114.291
21
64.67
0
LINE
8
BLACK
6
CONTINUOUS
10
114.291
20
64.67
11
114.282
21
64.67
0
LINE
8
BLACK
6
CONTINUOUS
10
114.282
20
64.67
11
114.274
21
64.673
0
LINE
8
BLACK
6
CONTINUOUS
10
114.274
20
64.673
11
114.265
21
64.6746
0
LINE
8
BLACK
6
CONTINUOUS
10
114.265
20
64.6746
11
114.258
21
64.679
0
LINE
8
BLACK
6
CONTINUOUS
10
114.258
20
64.679
11
114.249
21
64.6821
0
LINE
8
BLACK
6
CONTINUOUS
10
114.249
20
64.6821
11
114.242
21
64.6878
0
LINE
8
BLACK
6
CONTINUOUS
10
114.242
20
64.6878
11
114.235
21
64.6922
0
LINE
8
BLACK
6
CONTINUOUS
10
114.235
20
64.6922
11
114.229
21
64.699
0
LINE
8
BLACK
6
CONTINUOUS
10
114.229
20
64.699
11
114.222
21
64.7047
0
LINE
8
BLACK
6
CONTINUOUS
10
114.222
20
64.7047
11
114.218
21
64.7124
0
LINE
8
BLACK
6
CONTINUOUS
10
114.218
20
64.7124
11
114.212
21
64.7192
0
LINE
8
BLACK
6
CONTINUOUS
10
114.212
20
64.7192
11
114.209
21
64.7276
0
LINE
8
BLACK
6
CONTINUOUS
10
114.209
20
64.7276
11
114.205
21
64.7353
0
LINE
8
BLACK
6
CONTINUOUS
10
114.205
20
64.7353
11
114.203
21
64.744
0
LINE
8
BLACK
6
CONTINUOUS
10
114.203
20
64.744
11
114.2
21
64.7524
0
LINE
8
BLACK
6
CONTINUOUS
10
114.2
20
64.7524
11
114.2
21
64.7876
0
LINE
8
BLACK
6
CONTINUOUS
10
114.2
20
64.7876
11
114.2
21
74.83
0
LINE
8
BLACK
6
CONTINUOUS
10
114.2
20
74.83
11
82.65
21
74.83
  0
ENDSEC
  0
EOF
